<?xml version="1.0" encoding="utf-8"?>
<!-- Generator: Adobe Illustrator 28.0.0, SVG Export Plug-In . SVG Version: 6.00 Build 0)  -->
<svg version="1.1" id="a" xmlns="http://www.w3.org/2000/svg" xmlns:xlink="http://www.w3.org/1999/xlink" x="0px" y="0px"
	 viewBox="0 0 148.9 55" style="enable-background:new 0 0 148.9 55;" xml:space="preserve">
<style type="text/css">
	.st0{fill:#FFFFFF;}
</style>
<polyline class="st0" points="77.2,18.4 77.2,20.2 70.4,20.2 70.4,26.6 76.8,26.6 76.8,28.2 70.4,28.2 70.4,35.4 77.3,35.4 
	77.3,37.1 67.5,37.1 67.5,18.4 "/>
<polyline class="st0" points="84.1,18.4 84.1,35.3 90.7,35.3 90.7,37.1 81.2,37.1 81.2,18.4 "/>
<polyline class="st0" points="104.2,18.4 104.2,20.2 97.4,20.2 97.4,26.6 103.7,26.6 103.7,28.2 97.4,28.2 97.4,35.4 104.2,35.4 
	104.2,37.1 94.5,37.1 94.5,18.4 "/>
<polyline class="st0" points="111.3,18.4 111.3,27.1 118.8,18.4 121.2,18.4 113.8,26.6 121.6,37.1 118,37.1 111.3,27.7 111.3,37.1 
	108.4,37.1 108.4,18.4 "/>
<polyline class="st0" points="135.3,18.4 135.3,20.1 130.2,20.1 130.2,37.1 127.3,37.1 127.3,20.1 122.3,20.1 122.3,18.4 "/>
<path class="st0" d="M141.1,22.3l2.2,7.1h-4.5 M140.7,18.4l-6.3,18.7h2l2-6.2h5.5l2,6.2h3.1l-6.4-18.7L140.7,18.4L140.7,18.4z"/>
<path class="st0" d="M24.9,0.1C9.8,1.6-1.3,15,0.1,30.1C0.8,37.4,4.3,44,10,48.7s12.8,6.9,20.1,6.2c7.3-0.7,13.9-4.2,18.6-9.9
	s6.9-12.8,6.2-20.1c-0.4-3.8-1.5-7.4-3.3-10.7l-1.1,0.9c1.7,3.1,2.6,6.3,3,9.9c0.7,6.9-1.4,13.7-5.9,19c-4.4,5.4-10.7,8.7-17.6,9.3
	c-6.9,0.7-13.7-1.4-19-5.9C5.5,43.1,2.2,36.9,1.6,30C0.2,15.7,10.8,2.9,25,1.6C32.2,0.9,38.9,3,44.3,7.7l1.1-1
	C39.7,1.7,32.4-0.6,24.9,0.1"/>
<path class="st0" d="M29,27.4c-0.6,0.5-1.5,0.3-2-0.3c-0.5-0.6-0.4-1.5,0.3-2c0.6-0.5,1.5-0.3,2,0.3C29.8,26.1,29.6,27,29,27.4"/>
<path class="st0" d="M33.6,24c-0.7,0.5-1.7,0.4-2.2-0.3c-0.5-0.7-0.4-1.6,0.3-2.2c0.7-0.5,1.7-0.4,2.2,0.3
	C34.4,22.6,34.3,23.5,33.6,24"/>
<path class="st0" d="M38.1,20.6c-0.8,0.6-1.8,0.4-2.4-0.3c-0.6-0.8-0.4-1.8,0.3-2.4c0.8-0.6,1.8-0.4,2.4,0.3S38.9,20,38.1,20.6"/>
<path class="st0" d="M43.3,17c-0.8,0.6-2,0.5-2.6-0.4c-0.6-0.8-0.5-2,0.4-2.6c0.8-0.6,2-0.5,2.6,0.4C44.3,15.2,44.1,16.4,43.3,17"/>
<path class="st0" d="M48.7,12.9c-0.9,0.7-2.2,0.5-2.9-0.4s-0.5-2.2,0.4-2.9c0.9-0.7,2.2-0.5,2.9,0.4C49.8,11,49.6,12.3,48.7,12.9"/>
</svg>
