<?xml version="1.0" encoding="utf-8"?>
<!-- Generator: Adobe Illustrator 28.0.0, SVG Export Plug-In . SVG Version: 6.00 Build 0)  -->
<svg version="1.1" id="a" xmlns="http://www.w3.org/2000/svg" xmlns:xlink="http://www.w3.org/1999/xlink" x="0px" y="0px"
	 viewBox="0 0 300 130" style="enable-background:new 0 0 300 130;" xml:space="preserve">
<style type="text/css">
	.st0{fill:#FFFFFF;}
	.st1{fill-rule:evenodd;clip-rule:evenodd;fill:#FFFFFF;}
</style>
<path class="st0" d="M248.8,89.7L217,121.8h-32l48-48.4C238.6,78.5,243.9,83.9,248.8,89.7 M274.8,63.6l-23.1,23.2
	c-4.9-5.8-10.1-11.2-15.8-16.3L261,45.3h38v76.5h-25C274.4,104.3,274.5,89.2,274.8,63.6"/>
<polygon class="st0" points="24.5,121.9 24.5,45.3 109.9,45.3 109.9,62.5 47.6,62.5 47.6,75.8 105.8,75.8 105.8,91 47.6,91 
	47.6,104.6 109.9,104.6 109.9,121.9 "/>
<g>
	<g>
		<path class="st0" d="M115.5,121.9V45.2h62.1c5.6,0,10.2,0.4,14.1,1c3.9,0.7,7.2,2.2,9.8,4.7c2.7,2.5,4.5,5.6,5.4,9.2
			c0.9,3.7,1.4,8.2,1.4,13.5c0,5.7-0.4,10.3-1.3,14.1c-0.9,3.8-2.4,6.8-4.6,9c-2.2,2.3-5.1,3.9-8.8,4.9c-3.7,1-8.3,1.5-14,1.5
			c-0.9,0-1.6,0-2.2-0.1c-0.7,0-1.4-0.1-2.2-0.1h-36.2V122L115.5,121.9 M139.1,84.2h35.8c3.7,0,6.3-0.7,7.7-2.1
			c1.5-1.4,2.3-4,2.3-7.8c0-3.9-0.7-6.4-2.1-7.9c-1.4-1.7-4.1-2.5-8-2.5H139L139.1,84.2L139.1,84.2z"/>
		<path class="st1" d="M152.5,9c19.8,4.6,38.6,11.2,55.6,19.7c37.1,18.4,74.5,52.1,90.9,93.2h-25.4c-22.7-51.1-74-84.4-129.6-97.8
			C96.1,12.4,48.1,16.7,24.1,40.9C-0.3,65.4,7.6,101,25.3,127.1C9.7,108.3,0.7,88.2,1,68.9C1.9,16.9,69.6-10.1,152.5,9"/>
	</g>
</g>
</svg>
