<?xml version="1.0" encoding="utf-8"?>
<!-- Generator: Adobe Illustrator 28.0.0, SVG Export Plug-In . SVG Version: 6.00 Build 0)  -->
<svg version="1.1" id="Layer_1" xmlns="http://www.w3.org/2000/svg" xmlns:xlink="http://www.w3.org/1999/xlink" x="0px" y="0px"
	 viewBox="0 0 780 180" style="enable-background:new 0 0 780 180;" xml:space="preserve">
<style type="text/css">
	.st0{display:none;}
	.st1{fill:#FFFFFF;}
</style>
<g id="Layer_1_00000070802339699895530120000006422604263865210018_" class="st0">
</g>
<g id="K_logo">
	<path class="st1" d="M61.3,49.9c0-1.7,0.4-2.1,2.1-2.1h0.7c1.7,0,2.1,0.4,2.1,2.1v80.7c0,1.7-0.4,2.1-2.1,2.1h-0.7
		c-1.7,0-2.1-0.4-2.1-2.1V49.9z M114.7,49.9c1.4-1.7,2.3-2.1,4.6-2.1h0.7c2.2,0,2.4,0.4,0.9,2.1L93.7,81.3c-3,3.5-4.2,5.4-4.2,7.1
		c0,1.7,1.2,3.7,4.2,7.2l29.8,35.1c1.4,1.7,1.3,2.1-0.9,2.1h-0.7c-2.2,0-3.1-0.4-4.6-2.1l-25.9-30.3c-4.4-5.2-6.7-8.1-6.7-12
		c0-3.8,2.2-6.7,6.7-11.8L114.7,49.9z M90,180c-49.6,0-90-40.4-90-90C0,40.4,40.4,0,90,0c49.6,0,90,40.4,90,90
		C180,139.6,139.6,180,90,180z M90,4.8C43,4.8,4.8,43,4.8,90S43,175.2,90,175.2S175.2,137,175.2,90S137,4.8,90,4.8z"/>
</g>
<g id="K_Wearables_Normal">
	<path class="st1" d="M222.4,121.3c1.2,6.7,4,8.1,7.8,8.1c3.8,0,6.4-1.4,7.6-8.1l11.5-62.4c1.4-7.7,3.7-11.1,9.4-11.1
		c5.7,0,8,3.4,9.4,11.1l11.5,62.4c1.2,6.7,3.8,8.1,7.6,8.1c3.8,0,6.7-1.4,7.8-8.1l12.7-71.4c0.3-1.7,0.8-2.1,2.5-2.1h0.5
		c1.7,0,2,0.4,1.7,2.1l-12.5,71.2c-1.8,10.1-6.1,12.7-12.7,12.7c-6.4,0-10.6-2.5-12.4-12.7l-11.4-62.3c-1-5.9-2.2-7.1-4.7-7.1
		c-2.5,0-3.7,1.2-4.7,7.1l-11.4,62.3c-1.8,10.2-6,12.7-12.4,12.7c-6.5,0-10.8-2.6-12.7-12.7L205,49.9c-0.3-1.7,0-2.1,1.7-2.1h0.5
		c1.7,0,2.2,0.4,2.5,2.1L222.4,121.3z M370.4,102.8h-45.6v5.2c0,15.9,6.9,21.4,22.6,21.4c8.4,0,15.9-1.7,19.8-3.3
		c1.4-0.5,1.7-0.3,1.7,1.2v0.7c0,1.4-0.3,2-1.7,2.5c-4.7,1.7-11.5,3.3-19.6,3.3c-18,0-27.4-7.1-27.4-26.4V94c0-15,6-26.1,25.6-26.1
		c15.5,0,25.3,7.8,25.3,24.5C371.2,96.4,371,99.9,370.4,102.8z M324.9,98.5h42v-6c0-14.9-8.5-20.2-21-20.2c-12.9,0-21,5.4-21,20.2
		V98.5z M432.9,113.4c0,15.3-8.9,20.4-26.5,20.4c-9.7,0-21.8-4-21.8-18.7c0-13.2,8.5-18.3,26.8-18.3h17v-9.9
		c0-11.2-7.6-14.6-19.6-14.6c-7.6,0-13.3,1-16.7,2.1c-1.4,0.4-1.7,0.1-1.7-1.3v-1c0-1.4,0.3-2,2-2.4c3.7-0.9,8.7-1.7,16.3-1.7
		c13.8,0,24.3,4.6,24.3,18.9V113.4z M428.3,100.8h-16.6c-15,0-22.6,3.3-22.6,14.4c0,10.8,8.5,14.2,17.2,14.2
		c14.8,0,21.9-3.1,21.9-16.1V100.8z M453.4,130.7c0,1.6-0.4,2-2,2h-0.7c-1.6,0-2-0.4-2-2V89.6c0-12.7,4.6-21.7,18.9-21.7
		c3.1,0,5.5,0.4,6.3,0.5c1.3,0.3,1.8,0.5,1.8,2v0.9c0,1.4-0.7,1.8-1.8,1.6c-0.5-0.1-2.9-0.7-6.3-0.7c-11.1,0-14.4,6.3-14.4,17.4
		V130.7z M528.8,113.4c0,15.3-8.9,20.4-26.5,20.4c-9.7,0-21.8-4-21.8-18.7c0-13.2,8.5-18.3,26.8-18.3h17v-9.9
		c0-11.2-7.6-14.6-19.6-14.6c-7.6,0-13.3,1-16.7,2.1c-1.4,0.4-1.7,0.1-1.7-1.3v-1c0-1.4,0.3-2,2-2.4c3.7-0.9,8.7-1.7,16.3-1.7
		c13.8,0,24.3,4.6,24.3,18.9V113.4z M524.3,100.8h-16.6c-15,0-22.6,3.3-22.6,14.4c0,10.8,8.5,14.2,17.2,14.2
		c14.8,0,21.9-3.1,21.9-16.1V100.8z M546.1,43.3c0-1.6,0.4-2,2-2h0.7c1.6,0,2,0.4,2,2V79c3.1-6.9,9.8-11.1,22.2-11.1
		c20.6,0,26.8,10.6,26.8,26.2v13.3c0,15.7-6.1,26.2-26.8,26.2c-20.6,0-26.8-10.6-26.8-26.2V43.3z M550.6,94.2v13.3
		c0,14.4,4.8,21.9,22.2,21.9c17.4,0,22.2-7.6,22.2-21.9V94.2c0-14.4-4.8-21.9-22.2-21.9C555.5,72.2,550.6,79.8,550.6,94.2z
		 M616.2,43.3c0-1.6,0.4-2,2-2h0.7c1.6,0,2,0.4,2,2v74.8c0,8.6,3.4,10.7,7.3,10.7c0.9,0,1.6,0,2.4-0.1c1.4-0.3,2.1,0.1,2.1,1.6v0.7
		c0,1.4-0.7,1.8-2.1,2.1c-0.8,0.1-1.3,0.1-2.2,0.1c-6.3,0-12-3.5-12-15V43.3z M691.8,102.8h-45.6v5.2c0,15.9,6.9,21.4,22.6,21.4
		c8.4,0,15.9-1.7,19.8-3.3c1.4-0.5,1.7-0.3,1.7,1.2v0.7c0,1.4-0.3,2-1.7,2.5c-4.7,1.7-11.5,3.3-19.6,3.3c-18,0-27.4-7.1-27.4-26.4
		V94c0-15,6-26.1,25.6-26.1c15.5,0,25.3,7.8,25.3,24.5C692.6,96.4,692.3,99.9,691.8,102.8z M646.2,98.5h42v-6
		c0-14.9-8.5-20.2-21-20.2c-12.9,0-21,5.4-21,20.2V98.5z M707.2,127.7c0-1.4,0.4-1.7,1.8-1.3c3.7,1,11,3,20.5,3
		c11.4,0,17.2-2.6,17.2-10.1c0-5.7-3-9-8.7-11.9l-18.7-9.3c-6.8-3.4-11.1-7.1-11.1-15.9c0-10.3,7.4-14.4,20.6-14.4
		c7.8,0,12.8,1.3,17.6,3.1c1.7,0.7,2,1.2,2,2.6v0.8c0,1.4-0.4,1.6-1.8,1c-4.7-1.8-10.1-3.3-18-3.3c-10.7,0-15.8,2.6-15.8,9.9
		c0,5.4,2.4,8.9,8.1,11.8l18.7,9.3c6.8,3.4,11.8,6.8,11.8,15.9c0,10.6-8,14.6-22.3,14.6c-8.2,0-13.8-1.3-20-3
		c-1.4-0.4-1.8-0.9-1.8-2.3V127.7z"/>
</g>
</svg>
