<?xml version="1.0" encoding="utf-8"?>
<!-- Generator: Adobe Illustrator 28.0.0, SVG Export Plug-In . SVG Version: 6.00 Build 0)  -->
<svg version="1.1" id="Layer_1" xmlns="http://www.w3.org/2000/svg" xmlns:xlink="http://www.w3.org/1999/xlink" x="0px" y="0px"
	 viewBox="0 0 300 108.5" style="enable-background:new 0 0 300 108.5;" xml:space="preserve">
<style type="text/css">
	.st0{fill:#FFFFFF;}
	.st1{fill:url(#SVGID_1_);}
	.st2{fill:url(#SVGID_00000081629516770052267790000014182184507076658314_);}
	.st3{fill:url(#SVGID_00000079448398488675909070000011088491877459861912_);}
	.st4{fill:url(#SVGID_00000033337605388496034750000016585797672939048847_);}
</style>
<g>
	<path class="st0" d="M129.4,28.8L129.4,28.8c0-0.7-0.6-1.3-1.3-1.3h-6.6c-0.7,0-1.3,0.5-1.3,1.3V76c0,0.7,0.6,1.3,1.3,1.3h1.5h1.1
		h4.1c0.7,0,1.3-0.6,1.3-1.3V28.8L129.4,28.8z"/>
	<path class="st0" d="M25.8,28.4c0.3-0.5,0.8-0.5,1.5-0.5h7.6c0.9,0,1.3,0.3,1.3,0.8c0,0.3-0.2,0.7-0.5,1.1L18.6,51.9l17.3,24.2
		c0.2,0.3,0.3,0.6,0.3,0.8c0,0.4-0.3,0.6-1,0.6h-9c-0.8,0-1.2-0.2-1.5-0.7L9.4,54v22.2c0,0.7-0.6,1.3-1.3,1.3H1.4
		c-0.7,0-1.3-0.6-1.3-1.3v-13L25.8,28.4z"/>
	<path class="st0" d="M164.5,29.1c0.3-0.6,1-1.3,1.7-1.3h7.3c0.6,0,1.1,0.4,1.1,0.9c0,0.1-0.1,0.3-0.1,0.4l-14.1,23.6l14.7,23.6
		c0.1,0.2,0.1,0.3,0.1,0.5c0,0.4-0.3,0.8-1.1,0.8h-7.9c-0.7,0-1.2-0.5-1.7-1.3l-9.8-15.8l-9.2,15.8c-0.5,0.9-1,1.3-1.7,1.3h-7.3
		c-0.7,0-1.1-0.4-1.1-0.9c0-0.1,0.1-0.3,0.1-0.5L164.5,29.1z"/>
	<linearGradient id="SVGID_1_" gradientUnits="userSpaceOnUse" x1="142.3648" y1="27.8159" x2="142.3648" y2="43.9689">
		<stop  offset="0" style="stop-color:#048FE6"/>
		<stop  offset="0.2384" style="stop-color:#048DE3"/>
		<stop  offset="0.4299" style="stop-color:#0387D9"/>
		<stop  offset="0.6051" style="stop-color:#037DC8"/>
		<stop  offset="0.7705" style="stop-color:#026EB0"/>
		<stop  offset="0.9277" style="stop-color:#015C92"/>
		<stop  offset="1" style="stop-color:#005281"/>
	</linearGradient>
	<path class="st1" d="M144.5,44l-9.3-14.9c-0.1-0.1-0.1-0.3-0.1-0.4c0-0.5,0.5-0.9,1.1-0.9h7.9c0.7,0,1.3,0.7,1.7,1.3l4,6.4
		L144.5,44z"/>
	<path class="st0" d="M66.6,56.1l-4.8-19.9c-0.2-0.8-0.4-1.1-1.1-1.1c-0.7,0-0.9,0.3-1.1,1.1l-9.7,40.3c-0.1,0.6-0.7,1.1-1.3,1.1
		h-7.1c-0.7,0-1.2-0.5-1.2-1.1c0-0.1,0.1-0.2,0.1-0.3l11-42c1.6-6.2,6.4-6.8,9.3-6.8c2.9,0,7.7,0.6,9.3,6.8l11,42
		c0,0.1,0.1,0.3,0.1,0.3c0,0.7-0.5,1.1-1.2,1.1h-7.1c-0.6,0-1.1-0.5-1.3-1.1l-3.1-12.7H56.8l5.8-7.6H66.6z"/>
	<path class="st0" d="M205.4,56.1l-4.8-19.9c-0.2-0.8-0.4-1.1-1.1-1.1c-0.7,0-0.9,0.3-1.1,1.1l-9.7,40.3c-0.1,0.6-0.7,1.1-1.3,1.1
		h-7.1c-0.7,0-1.2-0.5-1.2-1.1c0-0.1,0.1-0.2,0.1-0.3l11-42c1.6-6.2,6.4-6.8,9.3-6.8c2.9,0,7.7,0.6,9.3,6.8l11,42
		c0,0.1,0.1,0.3,0.1,0.3c0,0.7-0.5,1.1-1.2,1.1h-7.1c-0.6,0-1.1-0.5-1.3-1.1l-3.1-12.7h-11.5l5.8-7.6H205.4z"/>
	
		<linearGradient id="SVGID_00000064355900452200205660000003178190776683666867_" gradientUnits="userSpaceOnUse" x1="7.3486" y1="27.8017" x2="7.3486" y2="47.7404">
		<stop  offset="0" style="stop-color:#048FE6"/>
		<stop  offset="0.2384" style="stop-color:#048DE3"/>
		<stop  offset="0.4299" style="stop-color:#0387D9"/>
		<stop  offset="0.6051" style="stop-color:#037DC8"/>
		<stop  offset="0.7705" style="stop-color:#026EB0"/>
		<stop  offset="0.9277" style="stop-color:#015C92"/>
		<stop  offset="1" style="stop-color:#005281"/>
	</linearGradient>
	<path style="fill:url(#SVGID_00000064355900452200205660000003178190776683666867_);" d="M14.7,27.8H2.1c-1.1,0-2.1,0.9-2.1,2.1
		v17.9L14.7,27.8z"/>
	<g>
		<path class="st0" d="M112.3,77.1c-2,0.5-7.8,0.5-11.4,0.5c-11.6,0-15.4-0.7-15.4-13.3V29.1c0-0.7,0.6-1.3,1.3-1.3h6.6
			c0.7,0,1.3,0.6,1.3,1.3v35.2c0,3.9,0.7,5.7,5.2,5.7h12.3c0.7,0,1.3,0.6,1.3,1.3v4.3C113.6,76.6,113.3,76.9,112.3,77.1z"/>
	</g>
	
		<linearGradient id="SVGID_00000134940957914756258890000015098662365666934195_" gradientUnits="userSpaceOnUse" x1="258.9226" y1="-9.094947e-13" x2="258.9226" y2="57.3204">
		<stop  offset="0" style="stop-color:#048FE6"/>
		<stop  offset="0.2384" style="stop-color:#048DE3"/>
		<stop  offset="0.4299" style="stop-color:#0387D9"/>
		<stop  offset="0.6051" style="stop-color:#037DC8"/>
		<stop  offset="0.7705" style="stop-color:#026EB0"/>
		<stop  offset="0.9277" style="stop-color:#015C92"/>
		<stop  offset="1" style="stop-color:#005281"/>
	</linearGradient>
	<path style="fill:url(#SVGID_00000134940957914756258890000015098662365666934195_);" d="M217.8,39.3L244.5,3
		c2.4-3.3,7.1-4,10.4-1.6L300,34.6l-77.2,22.7L217.8,39.3z"/>
	<g>
		<path class="st0" d="M243.5,31.3c-0.5,0-1.3-0.1-1.7-0.1v5c0,0.2-0.2,0.4-0.4,0.4h-1.9c-0.2,0-0.4-0.2-0.4-0.4V23
			c0-0.4,0.2-0.5,0.6-0.6c1-0.2,2.4-0.3,3.8-0.3c3,0,5.5,1,5.5,4.4v0.2C249,30.2,246.5,31.3,243.5,31.3z M246.4,26.6
			c0-1.6-1-2.2-2.9-2.2c-0.4,0-1.4,0-1.7,0.1v4.6c0.3,0,1.4,0.1,1.7,0.1c2.1,0,2.9-0.8,2.9-2.3V26.6z"/>
		<path class="st0" d="M258.5,36.6h-1.6c-0.2,0-0.4-0.2-0.4-0.4v-0.3c-0.9,0.5-1.8,0.8-2.7,0.8c-1.6,0-3.3-0.6-3.3-3.2v-0.1
			c0-2.2,1.3-3.3,4.7-3.3h1.2v-0.8c0-1.2-0.6-1.6-1.7-1.6c-1.2,0-2.5,0.1-3.1,0.2c0,0-0.1,0-0.1,0c-0.2,0-0.3-0.1-0.3-0.3v-1.2
			c0-0.2,0.1-0.3,0.4-0.4c0.8-0.2,1.9-0.3,3.2-0.3c2.7,0,4.2,1.2,4.2,3.7v6.9C258.8,36.5,258.7,36.6,258.5,36.6z M256.3,31.9h-1.2
			c-1.8,0-2.1,0.6-2.1,1.6v0.1c0,0.9,0.4,1.2,1.4,1.2c0.7,0,1.4-0.2,2-0.5V31.9z"/>
		<path class="st0" d="M270,26.2l-3.2,11.2c-0.6,2.1-1.3,3-3.9,3c-0.6,0-1.6-0.1-2-0.3c-0.2-0.1-0.4-0.1-0.4-0.3v-1.2
			c0-0.2,0.2-0.3,0.4-0.3c0,0,0,0,0,0c0.5,0,1.6,0.1,2.2,0.1c0.8,0,1.2-0.2,1.5-1.2l0.2-0.6h-0.3c-0.6,0-1.2-0.1-1.7-1.6l-2.5-8.8
			c0-0.1,0-0.1,0-0.1c0-0.2,0.1-0.3,0.4-0.3h1.9c0.2,0,0.3,0.2,0.4,0.3l1.9,7.8c0.1,0.3,0.2,0.4,0.3,0.4h0c0,0,0.1,0,0.1,0
			c0.1,0,0.1,0,0.1,0l2.1-8.3c0-0.2,0.2-0.3,0.4-0.3h2c0.2,0,0.3,0.2,0.3,0.3C270.1,26.2,270.1,26.2,270,26.2z"/>
	</g>
	
		<linearGradient id="SVGID_00000045605086443624975700000003945708873371663013_" gradientUnits="userSpaceOnUse" x1="5.061222e-02" y1="97.7574" x2="219.7403" y2="97.7574">
		<stop  offset="0" style="stop-color:#048FE6"/>
		<stop  offset="0.2384" style="stop-color:#048DE3"/>
		<stop  offset="0.4299" style="stop-color:#0387D9"/>
		<stop  offset="0.6051" style="stop-color:#037DC8"/>
		<stop  offset="0.7705" style="stop-color:#026EB0"/>
		<stop  offset="0.9277" style="stop-color:#015C92"/>
		<stop  offset="1" style="stop-color:#005281"/>
	</linearGradient>
	<path style="fill:url(#SVGID_00000045605086443624975700000003945708873371663013_);" d="M11.3,89.1H6.9v14.5
		c0,0.2-0.2,0.5-0.4,0.5H5.3c-0.2,0-0.4-0.2-0.4-0.5V89.1H0.5c-0.2,0-0.5-0.1-0.5-0.4v-1c0-0.2,0.2-0.4,0.5-0.4h10.8
		c0.2,0,0.4,0.2,0.4,0.4v1C11.8,88.9,11.6,89.1,11.3,89.1z M23.1,104.1H22c-0.2,0-0.5-0.2-0.5-0.5v-7.4c0-2.3-0.9-3-2.4-3
		c-0.7,0-2.1,0.2-3.1,0.6v9.7c0,0.2-0.2,0.5-0.5,0.5h-1.1c-0.2,0-0.4-0.2-0.4-0.5v-16c0-0.2,0.2-0.5,0.4-0.5h1.1
		c0.2,0,0.4,0.2,0.4,0.5v4.6c1.1-0.5,2.5-0.7,3.4-0.7c2.4,0,4.1,1.4,4.1,4.7v7.4C23.6,103.9,23.4,104.1,23.1,104.1z M35.8,98.5h-7.5
		v0.3c0,2.7,1.1,3.7,3.1,3.7c1.3,0,3-0.1,4-0.2c0,0,0.1,0,0.1,0c0.2,0,0.4,0.1,0.4,0.3v0.8c0,0.3-0.1,0.5-0.5,0.5
		c-1.3,0.2-2.5,0.4-4,0.4c-2.6,0-5.1-1.2-5.1-5.4v-2c0-3.2,1.8-5.3,5-5.3c3.3,0,5,2.1,5,5.3V98C36.2,98.3,36,98.5,35.8,98.5z
		 M34.2,96.8c0-2.5-1-3.5-3-3.5c-1.9,0-3,1.1-3,3.5V97h6V96.8z M48.1,104.2c-0.8,0-2.5-0.1-3.6-0.3c-0.3-0.1-0.5-0.2-0.5-0.5v-0.8
		c0-0.2,0.2-0.3,0.4-0.3c0,0,0.1,0,0.1,0c1.1,0.1,2.7,0.2,3.5,0.2c1.5,0,2.2-0.4,2.2-1.6c0-0.7-0.4-1.1-1.7-1.9l-2.3-1.4
		c-1.4-0.8-2.3-1.8-2.3-3.2c0-2.3,1.8-3,4.1-3c1.3,0,2.5,0.1,3.5,0.3c0.3,0,0.4,0.2,0.4,0.5V93c0,0.3-0.2,0.4-0.4,0.4c0,0,0,0-0.1,0
		c-0.8-0.1-2.2-0.2-3.5-0.2c-1.3,0-2.1,0.2-2.1,1.3c0,0.7,0.5,1.1,1.6,1.7l2.2,1.3c1.9,1.1,2.5,2.1,2.5,3.4
		C52.3,103.3,50.6,104.2,48.1,104.2z M56.8,89.7h-1.1c-0.2,0-0.5-0.2-0.5-0.5v-1.8c0-0.2,0.2-0.5,0.5-0.5h1.1c0.2,0,0.5,0.2,0.5,0.5
		v1.8C57.2,89.5,57,89.7,56.8,89.7z M56.7,104.1h-1.1c-0.2,0-0.5-0.2-0.5-0.5V92.1c0-0.2,0.2-0.5,0.5-0.5h1.1c0.2,0,0.5,0.2,0.5,0.5
		v11.5C57.2,103.9,57,104.1,56.7,104.1z M75,104.1h-1.1c-0.2,0-0.5-0.2-0.5-0.5v-8c0-1.9-0.9-2.4-2.1-2.4c-0.8,0-1.8,0.3-2.6,0.6
		c0.1,0.5,0.2,1.1,0.2,1.8v8c0,0.2-0.2,0.5-0.4,0.5h-1.2c-0.2,0-0.4-0.2-0.4-0.5v-8c0-2-0.6-2.4-1.7-2.4c-0.8,0-1.8,0.4-2.7,0.9v9.5
		c0,0.2-0.2,0.5-0.4,0.5h-1.2c-0.2,0-0.4-0.2-0.4-0.5V92.1c0-0.2,0.2-0.5,0.4-0.5h1.1c0.2,0,0.4,0.2,0.4,0.5v0.4
		c0.9-0.6,2.1-1.1,3.3-1.1c1,0,1.7,0.3,2.3,0.9c1.2-0.6,2.6-0.9,3.7-0.9c2,0,3.7,1,3.7,4.1v8C75.5,103.9,75.2,104.1,75,104.1z
		 M83.1,104.2c-0.7,0-1.8-0.1-2.6-0.2v4.1c0,0.2-0.2,0.4-0.4,0.4h-1.2c-0.2,0-0.4-0.2-0.4-0.4V92.6c0-0.3,0.1-0.4,0.5-0.5
		c1.2-0.3,2.8-0.5,4.1-0.5c3.4,0,4.9,2.2,4.9,5.6v1.6C88,102.2,86.4,104.2,83.1,104.2z M86.1,97.1c0-2.4-0.7-3.9-2.9-3.9
		c-0.9,0-2,0.1-2.6,0.2v8.9c0.7,0.1,1.9,0.2,2.6,0.2c2.2,0,2.9-1.4,2.9-3.9V97.1z M92.5,104.1h-1.2c-0.2,0-0.4-0.2-0.4-0.5V87.5
		c0-0.2,0.2-0.4,0.4-0.4h1.2c0.2,0,0.4,0.2,0.4,0.4v16.1C92.9,103.8,92.8,104.1,92.5,104.1z M105.3,98.5h-7.5v0.3
		c0,2.7,1.1,3.7,3.1,3.7c1.3,0,3-0.1,4-0.2c0,0,0.1,0,0.1,0c0.2,0,0.4,0.1,0.4,0.3v0.8c0,0.3-0.1,0.5-0.5,0.5
		c-1.3,0.2-2.5,0.4-4,0.4c-2.6,0-5.1-1.2-5.1-5.4v-2c0-3.2,1.8-5.3,5-5.3c3.3,0,5,2.1,5,5.3V98C105.8,98.3,105.6,98.5,105.3,98.5z
		 M103.8,96.8c0-2.5-1-3.5-3-3.5c-1.9,0-3,1.1-3,3.5V97h6V96.8z M129.4,92.2l-2.2,10.5c-0.3,1.4-0.5,1.6-1.9,1.6
		c-1.2,0-1.5-0.2-1.8-1.6l-2-7.7c0-0.2,0-0.2-0.1-0.2c-0.1,0-0.1,0-0.1,0.2l-2,7.7c-0.3,1.3-0.7,1.6-1.9,1.6c-1.4,0-1.6-0.2-1.9-1.6
		l-2.2-10.5c0,0,0-0.1,0-0.1c0-0.2,0.2-0.5,0.4-0.5h1.2c0.2,0,0.4,0.2,0.4,0.4l1.9,10.3c0,0.3,0.1,0.3,0.2,0.3
		c0.1,0,0.1-0.1,0.2-0.3l2.2-8.7c0.1-0.5,0.4-0.7,0.9-0.7h1.3c0.5,0,0.8,0.2,0.9,0.7l2.2,8.7c0,0.2,0.1,0.3,0.2,0.3
		c0.1,0,0.1,0,0.2-0.3l1.9-10.3c0-0.2,0.2-0.4,0.4-0.4h1.2C129.2,91.7,129.4,91.9,129.4,92.2C129.4,92.1,129.4,92.2,129.4,92.2z
		 M139.9,104.1h-1c-0.2,0-0.5-0.2-0.5-0.5v-0.5c-1.1,0.6-2.2,1.1-3.5,1.1c-1.9,0-3.7-0.8-3.7-3.7v-0.3c0-2.4,1.4-3.7,5.4-3.7h1.7
		v-0.9c0-1.9-0.7-2.5-2.4-2.5c-1.5,0-2.5,0.1-3.4,0.2c0,0-0.1,0-0.1,0c-0.2,0-0.4-0.1-0.4-0.4v-0.8c0-0.2,0.2-0.4,0.5-0.4
		c0.9-0.2,2-0.3,3.5-0.3c3.1,0,4.4,1.6,4.4,4.2v7.9C140.4,103.9,140.2,104.1,139.9,104.1z M138.4,98.1h-1.7c-2.7,0-3.4,0.6-3.4,2.2
		v0.3c0,1.6,0.8,2.1,2.1,2.1c1,0,2-0.3,3-0.9V98.1z M152.5,92.2l-3.7,13c-0.7,2.4-1.5,3.3-4.1,3.3c-0.6,0-1.4-0.1-1.9-0.2
		c-0.3-0.1-0.5-0.1-0.5-0.4v-0.8c0-0.2,0.2-0.4,0.4-0.4c0,0,0,0,0.1,0c0.5,0,1.5,0.1,2,0.1c1.3,0,1.8-0.3,2.2-1.9l0.2-0.9H147
		c-0.7,0-1.3-0.2-1.7-1.6l-3-10.3c0,0,0-0.1,0-0.2c0-0.2,0.1-0.4,0.4-0.4h1.2c0.2,0,0.3,0.2,0.4,0.4l2.7,9.8
		c0.1,0.5,0.3,0.5,0.4,0.5h0.4l2.7-10.3c0-0.2,0.2-0.3,0.4-0.3h1.3c0.2,0,0.4,0.2,0.4,0.4C152.6,92.1,152.6,92.2,152.5,92.2z
		 M166.7,104.1c-0.5,0.1-1,0.1-1.5,0.1c-2.1,0-3.1-0.5-3.1-3v-7.9l-2.2-0.2c-0.2,0-0.4-0.2-0.4-0.4v-0.6c0-0.2,0.2-0.4,0.4-0.4h2.2
		v-2.2c0-0.2,0.2-0.4,0.4-0.5l1.2-0.2c0,0,0,0,0.1,0c0.2,0,0.3,0.2,0.3,0.4v2.5h2.4c0.2,0,0.5,0.2,0.5,0.5v0.8
		c0,0.2-0.2,0.5-0.5,0.5h-2.4v7.9c0,1.2,0.3,1.4,1.2,1.4h1.3c0.3,0,0.5,0.1,0.5,0.3v0.8C167.1,103.9,167,104.1,166.7,104.1z
		 M173.5,104.2c-3.3,0-5-2.2-5-5.5V97c0-3.3,1.7-5.5,5-5.5c3.3,0,5,2.2,5,5.5v1.7C178.5,102,176.8,104.2,173.5,104.2z M176.5,97
		c0-2.3-0.9-3.8-3-3.8c-2.1,0-3,1.4-3,3.8v1.7c0,2.3,0.9,3.8,3,3.8c2.1,0,3-1.4,3-3.8V97z M191.3,104.2c-0.7,0-1.8-0.1-2.6-0.2v4.1
		c0,0.2-0.2,0.4-0.4,0.4h-1.2c-0.2,0-0.4-0.2-0.4-0.4V92.6c0-0.3,0.1-0.4,0.5-0.5c1.2-0.3,2.8-0.5,4.1-0.5c3.4,0,4.9,2.2,4.9,5.6
		v1.6C196.3,102.2,194.6,104.2,191.3,104.2z M194.3,97.1c0-2.4-0.7-3.9-2.9-3.9c-0.9,0-2,0.1-2.6,0.2v8.9c0.7,0.1,1.9,0.2,2.6,0.2
		c2.2,0,2.9-1.4,2.9-3.9V97.1z M207.1,104.1h-1c-0.2,0-0.5-0.2-0.5-0.5v-0.5c-1.1,0.6-2.2,1.1-3.5,1.1c-1.9,0-3.7-0.8-3.7-3.7v-0.3
		c0-2.4,1.4-3.7,5.4-3.7h1.7v-0.9c0-1.9-0.7-2.5-2.4-2.5c-1.5,0-2.5,0.1-3.4,0.2c0,0-0.1,0-0.1,0c-0.2,0-0.4-0.1-0.4-0.4v-0.8
		c0-0.2,0.2-0.4,0.5-0.4c0.9-0.2,2-0.3,3.5-0.3c3.1,0,4.4,1.6,4.4,4.2v7.9C207.5,103.9,207.3,104.1,207.1,104.1z M205.6,98.1h-1.7
		c-2.7,0-3.4,0.6-3.4,2.2v0.3c0,1.6,0.8,2.1,2.1,2.1c1,0,2-0.3,3-0.9V98.1z M219.7,92.2l-3.7,13c-0.7,2.4-1.5,3.3-4.1,3.3
		c-0.6,0-1.4-0.1-1.9-0.2c-0.3-0.1-0.5-0.1-0.5-0.4v-0.8c0-0.2,0.2-0.4,0.4-0.4c0,0,0,0,0.1,0c0.5,0,1.5,0.1,2,0.1
		c1.3,0,1.9-0.3,2.2-1.9l0.2-0.9h-0.3c-0.7,0-1.3-0.2-1.7-1.6l-3-10.3c0,0,0-0.1,0-0.2c0-0.2,0.1-0.4,0.4-0.4h1.2
		c0.2,0,0.3,0.2,0.4,0.4l2.7,9.8c0.1,0.5,0.3,0.5,0.4,0.5h0.4l2.7-10.3c0-0.2,0.2-0.3,0.4-0.3h1.3c0.2,0,0.4,0.2,0.4,0.4
		C219.7,92.1,219.7,92.2,219.7,92.2z"/>
</g>
</svg>
