<?xml version="1.0" encoding="utf-8"?>
<!-- Generator: Adobe Illustrator 28.0.0, SVG Export Plug-In . SVG Version: 6.00 Build 0)  -->
<svg version="1.1"
	 id="svg16" xmlns:svg="http://www.w3.org/2000/svg" xmlns:dc="http://purl.org/dc/elements/1.1/" xmlns:inkscape="http://www.inkscape.org/namespaces/inkscape" xmlns:rdf="http://www.w3.org/1999/02/22-rdf-syntax-ns#" xmlns:sodipodi="http://sodipodi.sourceforge.net/DTD/sodipodi-0.dtd" xmlns:cc="http://creativecommons.org/ns#"
	 xmlns="http://www.w3.org/2000/svg" xmlns:xlink="http://www.w3.org/1999/xlink" x="0px" y="0px" viewBox="0 0 180 80"
	 style="enable-background:new 0 0 180 80;" xml:space="preserve">
<style type="text/css">
	.st0{fill:#FFFFFF;}
</style>
<g id="g31" transform="matrix(0.988886,0,0,0.988886,1,2.7425)">
	<g id="K_logo" transform="scale(0.41862108)">
		<path id="path10" class="st0" d="M61.3,49.9c0-1.7,0.4-2.1,2.1-2.1h0.7c1.7,0,2.1,0.4,2.1,2.1v80.7c0,1.7-0.4,2.1-2.1,2.1h-0.7
			c-1.7,0-2.1-0.4-2.1-2.1V49.9z M114.7,49.9c1.4-1.7,2.3-2.1,4.6-2.1h0.7c2.2,0,2.4,0.4,0.9,2.1L93.7,81.3c-3,3.5-4.2,5.4-4.2,7.1
			s1.2,3.7,4.2,7.2l29.8,35.1c1.4,1.7,1.3,2.1-0.9,2.1h-0.7c-2.2,0-3.1-0.4-4.6-2.1l-25.9-30.3c-4.4-5.2-6.7-8.1-6.7-12
			c0-3.8,2.2-6.7,6.7-11.8L114.7,49.9z M90,180c-49.6,0-90-40.4-90-90C0,40.4,40.4,0,90,0c49.6,0,90,40.4,90,90
			C180,139.6,139.6,180,90,180z M90,4.8C43,4.8,4.8,43,4.8,90S43,175.2,90,175.2c47,0,85.2-38.2,85.2-85.2S137,4.8,90,4.8z"/>
	</g>
	<g id="K_Ring_Normal" transform="scale(0.41862108)">
		<path id="path13" class="st0" d="M216.8,95.6v35c0,1.7-0.4,2.1-2.1,2.1H214c-1.7,0-2.1-0.4-2.1-2.1V60.9c0-9.1,3.9-13.1,13.1-13.1
			H244c21.7,0,26.6,8.7,26.6,23.9c0,13.2-3.9,21.8-20.1,23.6l21.4,35.3c1,1.7,0.8,2.1-1.2,2.1h-0.5c-2,0-2.7-0.4-3.8-2.1l-21.2-35
			H216.8z M224.6,52.4c-5.5,0-7.8,2.4-7.8,7.8V91H244c18.5,0,21.8-6.5,21.8-19.3c0-12.8-3.4-19.3-21.8-19.3H224.6z M290.3,44.8
			c2.1,0,3.5,1.6,3.5,3.7c0,2-1.4,3.5-3.5,3.5c-2.1,0-3.7-1.6-3.7-3.5C286.6,46.4,288.2,44.8,290.3,44.8z M287.9,70.9
			c0-1.6,0.4-2,2-2h0.7c1.6,0,2,0.4,2,2v59.8c0,1.6-0.4,2-2,2h-0.7c-1.6,0-2-0.4-2-2V70.9z M316.3,130.7c0,1.6-0.4,2-2,2h-0.7
			c-1.6,0-2-0.4-2-2V90.9c0-13.4,5.9-23,25.5-23c19.6,0,25.5,9.5,25.5,23v39.8c0,1.6-0.4,2-2,2H360c-1.6,0-2-0.4-2-2V90.9
			c0-11.9-4.6-18.7-20.9-18.7c-16.3,0-20.9,6.8-20.9,18.7V130.7z M403.3,113.4c-16.7,0-20.4,1-20.4,6c0,4.4,3.7,5.6,20.4,5.6
			c19.8,0,26.6,4.4,26.6,16.5c0,14.4-7.3,19.7-26.6,19.7c-20.9,0-26.9-6.7-26.9-18.7c0-8.7,4.4-12.9,8.1-15.1c-4.4-1.6-6.1-4-6.1-8
			c0-5,3.8-8.5,11-8.7c-7.7-2.4-11.6-9.7-11.6-18.9v-2.1c0-14,9.4-21.7,25.6-21.7c3.7,0,9.8,0.7,14.8,3.1l7.8-7.1
			c0.9-0.8,1.4-0.8,2.2,0l0.5,0.5c0.9,0.8,0.9,1.3,0,2.1l-7.1,6.7c5.4,3.9,7.1,10.6,7.1,16.3v2.1
			C428.7,105.4,421.5,113.4,403.3,113.4z M389,128.5c-5.5,2.7-8,7.2-8,14c0,11.4,6.4,14.4,22.3,14.4c15,0,22.1-2.7,22.1-15
			c0-11.1-7-12.5-22.1-12.5C397.3,129.3,392.6,129,389,128.5z M424.1,89.6c0-9.9-5.1-17.4-20.8-17.4c-15.7,0-21,7.4-21,17.4v2.1
			c0,10.7,4,17.4,21,17.4c17,0,20.8-6.8,20.8-17.4V89.6z"/>
	</g>
</g>
</svg>
