<?xml version="1.0" encoding="utf-8"?>
<!-- Generator: Adobe Illustrator 28.0.0, SVG Export Plug-In . SVG Version: 6.00 Build 0)  -->
<svg version="1.1" id="Art" xmlns="http://www.w3.org/2000/svg" xmlns:xlink="http://www.w3.org/1999/xlink" x="0px" y="0px"
	 viewBox="0 0 494.4 157.9" style="enable-background:new 0 0 494.4 157.9;" xml:space="preserve">
<style type="text/css">
	.st0{fill:#FFFFFF;}
</style>
<g>
	<path class="st0" d="M155.7,79.2c-1.8,0-3.3-0.6-4.7-1.8c-1.3-1.2-2-2.8-2-4.6V39.5c0-7.2-2.6-13.4-7.6-18.5
		c-5.1-5.1-11.3-7.7-18.4-7.7c-7.3,0-13.5,2.6-18.6,7.7c-5.1,5.1-7.6,11.3-7.6,18.5v32.6c0,1.9-0.7,3.6-2,5c-1.4,1.4-3,2.1-4.8,2.1
		c-1.8,0-3.4-0.6-4.7-1.9c-1.3-1.3-2-2.9-2-4.7V39.4c0-10.8,3.9-20.2,11.5-27.8c7.6-7.7,17-11.6,28-11.6c10.8,0,20.2,3.9,28,11.6
		c7.7,7.7,11.7,17.1,11.7,27.9l0.1,32.8c0,1.8-0.7,3.4-2,4.8C159.1,78.5,157.5,79.2,155.7,79.2"/>
	<path class="st0" d="M180.7,33.1h49c-1.4-5.5-4-10.2-7.8-13.8c-4.4-4-9.7-6-15.7-6c-6.2,0-11.8,2-16.6,6
		C185.1,23,182.1,27.6,180.7,33.1 M206,79.2c-10.9,0-20.3-3.9-28.1-11.6c-7.7-7.7-11.6-17.2-11.6-28.1c0-10.8,3.9-20.2,11.6-27.9
		C185.7,3.9,195.1,0,206,0c7.9,0,15.3,2.2,21.9,6.7c6.6,4.4,11.6,10.4,14.6,17.8c1.7,4.1,2.5,7.3,2.6,9.7v12.6h-64.4
		c1.5,5.2,4.4,9.6,8.8,13c4.7,3.7,10.2,5.6,16.4,5.6h9.6c4.5,0.2,6.9,2.7,6.9,6.9c0,4-2.2,6.4-6.5,6.7C214,79.2,206.9,79.2,206,79.2
		"/>
	<path class="st0" d="M289.5,13.3c-7.3,0-13.5,2.6-18.6,7.7c-5.1,5.1-7.6,11.3-7.6,18.5c0,7.2,2.6,13.4,7.6,18.4
		c5.1,5.1,11.3,7.6,18.6,7.6c7.2,0,13.4-2.6,18.4-7.6c5.1-5.1,7.6-11.3,7.6-18.4c0-7.2-2.6-13.4-7.6-18.5
		C302.9,15.9,296.7,13.3,289.5,13.3 M256.5,104.3c-1.8,0-3.3-0.6-4.6-1.8c-1.3-1.2-2-2.8-2-4.6V39.5c0-10.8,3.9-20.2,11.6-27.9
		C269.2,3.9,278.6,0,289.5,0c10.8,0,20.2,3.9,27.9,11.6c7.7,7.7,11.6,17.1,11.6,27.9c0,10.9-3.9,20.3-11.7,28.1
		c-7.7,7.7-17.1,11.6-28,11.6c-9.8,0-18.5-3.6-26.1-10.7v28.9c0,1.8-0.7,3.4-2,4.8C259.9,103.6,258.3,104.3,256.5,104.3"/>
	<path class="st0" d="M372.5,13.3c-7.3,0-13.5,2.6-18.6,7.7c-5.1,5.1-7.6,11.3-7.6,18.5c0,7.2,2.6,13.4,7.6,18.4
		c5.1,5.1,11.3,7.6,18.6,7.6c7.2,0,13.4-2.6,18.4-7.6c5.1-5.1,7.6-11.3,7.6-18.4c0-7.2-2.6-13.4-7.6-18.5
		C385.9,15.9,379.7,13.3,372.5,13.3 M405.2,79.2c-2.4,0-5.4-0.9-6.3-5.4c0-0.2-0.1-0.7-0.2-5.2c-7.4,7.1-16.2,10.7-26.2,10.7
		c-10.9,0-20.3-3.9-28.1-11.6c-7.7-7.7-11.6-17.2-11.6-28.1c0-10.8,3.9-20.2,11.6-27.9C352.2,3.9,361.6,0,372.5,0
		c10.8,0,20.2,3.9,27.9,11.6c7.7,7.7,11.6,17.1,11.6,27.9v33.3c0,2-0.7,3.5-2.2,4.7C408.6,78.7,407,79.2,405.2,79.2"/>
	<path class="st0" d="M454.8,125.1h-0.5c-1.8,0-3.4-0.7-4.8-2c-1.4-1.3-2.1-2.9-2.1-4.7c0-1.8,0.6-3.4,1.8-4.6c1.2-1.3,2.8-2,4.7-2
		h0.9c7.3,0,13.5-2.6,18.6-7.7c5.1-5.1,7.6-11.3,7.6-18.5V69.3c-7.4,6.6-16.2,9.9-26.2,9.9c-10.8,0-20.2-3.9-27.9-11.6
		c-7.7-7.7-11.6-17.1-11.6-27.9V6.9c0-1.8,0.7-3.4,2-4.8c1.4-1.4,3-2.1,4.8-2.1c1.8,0,3.3,0.6,4.7,1.8c1.3,1.2,2,2.8,2,4.6v33.3
		c0,7.2,2.6,13.4,7.6,18.5c5.1,5.1,11.3,7.7,18.4,7.7c7.3,0,13.5-2.6,18.6-7.7c5.1-5.1,7.6-11.4,7.6-18.5V7c0-1.9,0.7-3.6,2-5
		c1.4-1.4,3-2.1,4.8-2.1c1.8,0,3.4,0.6,4.7,1.9c1.3,1.3,2,2.8,2,4.7v33.2c0,0.5,0,1,0,1.5l0,0.6v43.6c0,10.8-3.9,20.2-11.6,27.9
		C475.1,121.2,465.7,125.1,454.8,125.1"/>
</g>
<g>
	<path class="st0" d="M12.4,116.3h6.4v6.3h-6.4v22.2H4v-22.2H0v-6.3h4v-1.9c0-8.3,4.9-10.7,10-10.7c6.8,0,9.2,4.3,9.2,8.6
		c0,0.3-0.1,1.2-0.3,1.6h-6.4c0.2-0.2,0.2-0.7,0.2-1c0-1.3-0.6-2.5-2.2-2.5s-2.1,1.5-2.1,2.7V116.3z"/>
	<path class="st0" d="M36.7,115.4c8.4,0,15.8,6,15.8,15c0,9-7.4,15-15.8,15c-8.3,0-15.8-6-15.8-15C20.9,121.4,28.4,115.4,36.7,115.4
		z M36.7,138.2c4.1,0,7.7-3.4,7.7-7.8c0-4.4-3.5-7.8-7.7-7.8c-4.1,0-7.7,3.3-7.7,7.8C29,134.9,32.6,138.2,36.7,138.2z"/>
	<path class="st0" d="M65.3,122.3c1-5.2,5.4-6.9,7.9-6.9c1,0,1.2,0.1,2.1,0.2v8.2c-1.2-0.3-2.7-0.4-3.5-0.4c-3.1,0-6.3,1.8-6.3,5.7
		v15.6h-8.3V116h8.1V122.3z"/>
	<path class="st0" d="M113.4,116h9.2L104,157.9h-8.4l6.6-15.5L90.3,116h9.4l6.8,18L113.4,116z"/>
	<path class="st0" d="M138.2,115.4c8.4,0,15.8,6,15.8,15c0,9-7.4,15-15.8,15c-8.3,0-15.8-6-15.8-15
		C122.4,121.4,129.9,115.4,138.2,115.4z M138.2,138.2c4.1,0,7.7-3.4,7.7-7.8c0-4.4-3.5-7.8-7.7-7.8c-4.1,0-7.7,3.3-7.7,7.8
		C130.6,134.9,134.1,138.2,138.2,138.2z"/>
	<path class="st0" d="M185.8,144.8h-8.3v-3.9c-2.4,3.4-5.4,4.5-8.9,4.5c-8.1,0-10.2-6.4-10.2-13.7V116h8.3v15.5c0,4,1.5,7,5.3,7
		c3.9,0,5.5-3.1,5.5-7.1V116h8.3V144.8z"/>
</g>
<path class="st0" d="M39.9,0c-8.5,0-16.3,2.7-22.8,7.2c2.3,0.1,4.6,1,6.4,2.8c2.2,2.2,3.1,5.3,2.6,8.2c4-2.5,8.7-4,13.7-4
	c14.1,0,25.5,11.4,25.5,25.5S53.9,65.1,39.9,65.1S14.4,53.7,14.4,39.6c0-7,2.8-13.4,7.5-18c2.8-2.8,2.8-7.2,0-10
	c-2.8-2.8-7.2-2.8-10,0l0,0c-7.2,7.2-11.6,17.1-11.6,28c0,21.9,17.7,39.6,39.6,39.6s39.6-17.7,39.6-39.6S61.7,0,39.9,0z"/>
</svg>
