<?xml version="1.0" encoding="UTF-8"?><svg id="uuid-48bf4d8b-5fac-41c3-b461-e94575a4c251" xmlns="http://www.w3.org/2000/svg" viewBox="0 0 597.45 280.13"><g id="uuid-d6ba2a5f-82de-41d2-8006-e721da38b638"><path d="m388.56,130.06c-1.87-.05-3.75.12-5.59.51-8.31,1.69-14.25,6.83-17.06,7.75-.39.02-.69-.31-1-.59-1.25-1.61-7.41-7.06-11.74-8.32-7.64-2.62-17.52-.39-23.32,4.16-7.42,5.72-10.58,14.64-12.72,23.38-5.33,19.76-8.41,40.23-14.74,59.68-2.64,6.06-12.19,20.64-18.11,11.31-1.7-4.52-.19-9.85.73-14.53,3.59-16.65,5.87-26.81,9.63-43.27.34-1.45.45-3.41-.86-4.15-3.35-1.15-6.99-.28-10.51-.47-2.38.01-4.25,1.3-4.91,3.7-3.69,16.01-5.62,26.33-9.11,43.08-1.14,6.94-4.86,14.83-11.17,17.95-4.52,2.63-10.57,1.39-11.79-4.35-1.05-3.88-.08-7.84.63-11.71,3.11-17.2,5.81-28.23,8.76-45.3.07-2.23-1.75-2.88-3.59-2.8-2.8.06-5.25.13-8.06.25-2.93-.02-4.77,2.27-5.13,5.07-2.9,15.17-4.66,24.72-7.38,40.01-.67,4.7-2.68,9.67-5.18,13.61-2.53,3.83-5.19,7.62-9.63,7.94-2.33,0-4.2-1.52-4.84-3.97-1.17-4.48-.12-9.22.6-13.76,2.77-16.48,4.56-26.66,7.52-43.02.25-1.36.38-3.28-.66-4.08-2.3-1.36-5.46-.29-8.03-.4-3.26.02-7.06.34-7.63,4.08-.73,3.99-2.33.28-4.82-1.26-2.69-1.74-5.93-2.29-9.11-2.17-25.11,1.33-38.41,29.52-38.01,52.54.04,2.35-.16,4.44-1.1,6.9-1.74,4.56-5.33,9.38-8.23,10.51-5.05,2.24-7.63-2.7-7.77-7.25-1.49-15.84,8.93-35.77.12-51.08-3.05-4.7-9.53-5.99-14.85-5.45-7.6.88-11.83,3.21-17.65,9.82-1,.88-3.31,4.97-3.22,1.52,1.22-12.81,2.27-21.65,3.68-34.37.09-1.16.25-2.77-.42-3.58-.72-.96-2.19-.75-3.28-.51-3.69,1.09-7.5,1.38-10.93,3.21-1.48.98-2.05,2.81-2.19,4.56-1.92,18.73-3.69,37.48-5.32,56.24-.9,6.74-.41,13.77-2.4,20.31-5.96,13.2-18.51,20.62-32.67,21.2-16.99,1.32-23.13-11.22-25-26.02-3.55-24.37-.43-66.66,26.45-74.69,19.04-5.1,19.69,10.86,13.03,22.81-1.1,2.01,1.6,2.44,3.17,2.76,5.7,1.24,11.75-2.38,12.69-7.85,2.32-11.71-4.99-22.46-17.33-23.69C10.12,141.23-6.82,198.2,2.41,236.8c2.91,15.33,11.93,28.89,27.89,29.62,17.04.83,34.4-7.17,44.9-20.47.7-.72,1.36-2.14,2.25-2.09.67.65-.07,5.43-.13,7.15-.13,1.96-.5,4.17.28,5.25,1.58,2.2,8.09-.1,10.65-.12,3.04-.28,4.53-2.88,4.6-5.76,1.3-15.24,2.18-24.89,3.68-40.24.33-4.16,1.67-8.67,3.6-12.3,2.91-5.51,6.75-10.13,13.05-10.7,2.76-.21,5.5.84,6.64,3.32,1.14,2.26,1.38,4.89,1.41,7.36.19,13.04-6.88,31.41-1.24,45.26,5.31,11.81,20.94,10.64,28.73-.08,1.42-1.74,2.81-4.07,3.95-5.83.66-1.03,1.47-.93,2.14-.16,7.24,12.08,20.29,14.04,30.76,5.08,3.64-2.76,7.89-7.21,10.65-10.19.73-.75.88-.63,1.6.71,2.79,5.02,7.48,13,14.19,12.44,6.7-.34,13.23-6.73,17.62-13.66.58-.76,1.24-.65,1.7,0,2.97,6.09,7.21,10.94,13.67,11.85,8.23,1.3,14.78-6.54,20.34-11.41,1.52-1.45,2.59-2.57,3.14-2.93.54-.34.76.09,1.39,1.33,6.99,14.43,15.37,16.83,27.6,4.83,1.09-1.09,1.71-.99,1.3.76-.85,4.76-1.63,8.55-6.64,10.5-14.41,6.52-26.69,18.02-15.29,30.08,4.73,3.49,10.94,4.68,16.9,2.38,3.47-1.46,6.62-4.38,9.4-6.66,1.4-1.2,2.1-1.23,3.37-.37,3.12,2.01,11.03,7.65,16.76,8.32,11.58,1.16,19.26-9.02,22.78-19.65,7.84-27.99,14.35-56.35,22.33-84.31.97-4.18,5.36-3.56,8.88-3.32,2.38.17,4.68-.17,5.49-2.26,1.04-6.33-13.4.56-10.68-7.61,2.39-9.26,5.41-20.26,15.38-22.15,5.33-1.58,10.81-1.08,14.33,3.84.13.13.25.25.38.36.98.94,1.81.97,2.15.03,1.16-9.09-6.12-14.79-15.51-14.9h-.25Zm-192.28,87.81c-2.23,15.08-24,27.94-27.34,6.53-2.49-16.13,5.16-47.27,25.18-47.84,5.36.19,8.51,4.49,7.29,9.62-1.87,11.21-3.18,20.02-5.09,31.47l-.04.21Zm98.64,36.34c-1.35,6.73-4.33,16.84-8.88,17.94-4.26,1.45-8.23-1.94-7.91-6.32.13-5.66,7.71-12.22,16.02-15.5,1.87-.29,1.26,1.54.82,3.64l-.05.24Zm37.34.42c-1.81,8-6.72,17.51-13.21,17.67-3.26.36-13.42-2.98-12.27-7.5.54-2.47,2.54-7.41,3.4-11.14,1.01-3.06.89-6.79,2.89-9.37.6-.64,1.45-1.03,2.3-1.27,5.51-1.38,11.92-3.03,18.45-3.77,1.89-.07,1.88,1.73,1.49,3.09-1.02,4.13-1.95,7.94-2.99,12.09l-.05.2Zm4.33-21.13c-.62.58-1.48.87-2.33,1.02-4.94.77-10.64,1.82-16.56,3.21-1.09.22-2.8.75-3.49-.23-.41-.61-.11-1.97.1-2.84,4.84-20.26,9.74-40.53,14.84-60.71.52-2.13,2.32-3.13,4.41-3.07,6.19.15,11.02.11,17.15.53,2.22.26,2.43,2.01,1.81,3.92-4.94,18.25-9.74,36.54-14.4,54.86-.28,1.12-.67,2.46-1.43,3.21l-.11.11Zm23.85-85.93c-1.25,4.79-3.66,9.96-4.63,14.59-.49,2.69-1.88,4.56-4.85,4.34-5.87-.18-10.08-.31-15.87-.43-3.84.03-3.81-1.78-2.79-5.09,2.67-11.09,6.47-23.34,18.55-22.97,5.15-.41,10.5,4.24,9.62,9.39l-.03.17Z" fill="#fff" stroke-width="0"/><path d="m580.49,189.33c-1.09.59-1.86,1.78-2.45,2.91-8.1,14.59-15.42,31.41-27.55,38.75-8.2,4.98-11.61,14.13-6.86,23.03,2.65,5.79,10.99,10.62,18.55,11.52,10.6,1.77,24.44-3.3,28.52-18.46,2.8-11.22,1.81-13.75,4.17-33.64.8-7.4,1.53-13.13,2.53-21.08.43-2.79-1.36-3.79-3.79-3.7-3.36-.04-6.12-.06-9.5-.07-1.17,0-2.43.1-3.46.64l-.15.08Zm-5.85,52.4c-1.35,7.39-6.36,12.47-13.38,11.94-1.95-.07-3.9-.57-5.54-1.74-3.11-2.14-4.88-6.79-5.5-10.14-.08-.48-.06-.72.16-.65.84.43,1.84,1.31,2.84,1.62,2.95,1.05,5.72-.86,7.06-3.61.85-1.7.83-3.95.41-5.51-.33-1.43-.75-2.08-.46-3.27,1.62-5.47,16.04-25.95,17.82-28.29.22-.27.32-.37.29.08-.02.33-.06.92-.12,1.72-.94,11.61-1.68,26.33-3.55,37.64l-.04.19Z" fill="#fff" stroke-width="0"/><path d="m554,198.83c2.16.57,3.69,2.33,5.43,3.59,4.72,3.29,11.74-1.41,12.5-6.82,1.58-6.32-5.59-9.16-10.76-9.05-6.34.04-12.02,3.43-17.34,7.23-4.02,2.99-2.06-.85-1.01-3.53,1.25-2.84,2.41-5.73-1.23-6.43-3.01-.56-5.71-.9-8.75-1.35-2.17-.37-4.35.26-5.28,2.44-6,14.69-10.93,29.75-17.01,44.43-2.79,5.66-14.3,20.39-20.12,11.49-1.41-3.43-.09-7.85,1-11.34,6.04-17.1,10.34-28.7,16.53-45.32,1.11-2.66,1.16-5.11-2.34-5.47-3.43-.34-6.64-1.18-10.1-1.03-2.06.25-3.26,2.11-3.93,4-5.69,15.78-8.94,25.21-14.8,42.05-1.67,4.92-4.77,10.08-8.96,12.93-7.1,5.31-16.32,3.35-15.26-6.75.23-2.59,1.08-5.04,1.89-7.52,5.61-16.97,9.02-26.98,14.72-43.5,2.07-5.44-3.42-4.75-6.97-5.25-4.01-.42-8.01-1.46-9.49,3.35-5.04,15.08-8.05,24.44-12.86,39.53-.85,2.82-2.21,5.51-4.31,7.63-8.29,8.21-16.83,11.37-25.94,11.09-7.73-.21-13.61-3.66-13.82-12.09-.16-2.69-.13-6.03.42-7.74.24-.79.7-1.47,1.39-1.91,7.93-4.83,35.5-10.02,40.43-23.71,3.48-11.96-3.76-19.92-15.23-20.4-25.21-1.91-41.29,24.02-44.17,46.83-3.37,20,9.48,32.14,27.7,29.94,10.63-1.15,20.35-7.09,28.3-14.17,1.28-.93,1.91-.46,2.24,1.33.91,9.4,7.01,16.7,15.36,17.23,7.15-.13,13.98-6.08,19.55-9.93,3.34-2.4,2.91-2.84,4.13.75,2,5.75,6.27,14.38,13.51,13.23,2.94-.19,6.37-1.15,10.23-3.82,1.12-.7,2.3-1.84,3.47-2.18.27,0,.24.08.3.22-.46,3.53-3.41,6.58,2.15,7.37,3.04.3,5.91,1.12,8.98.99,2.07-.21,3.29-2.06,3.98-3.94,6.55-17.4,10.59-27.98,17.42-45.37.94-2.48,2.52-4.73,4.87-5.96,4.32-2.11,8.57-4.05,13.01-3.1l.18.05Zm-129.9-21.58c3.11.35,5.15,2.48,5.12,5.48.59,13.81-25.99,26.73-31.04,26.1-1.43-.19-.47-1.52-.19-2.53,1.71-4.21,4.15-8.69,6.97-13.15,4.42-6.45,10.82-16.26,18.95-15.93l.19.02Z" fill="#fff" stroke-width="0"/><path d="m143.17,33.63c-2.37-.02-5.34-1.1-6.29-1.93-.22-.2-.4-.41-.44-.69-.1-.71.84-1.73,1.93-3.31,3.59-4.67,6.87-11.52,2.87-16.75-7.62-10.39-33.7-3.06-35.68,9.12-1.08,5.43,2.21,11.65,5.87,15.81,11.82,13.11,33.91,19.5,39.65,38.19,9.6,31.84-23.12,53.61-52.14,49.74-10.9-.97-22.29-6.28-25.54-17.5-3.66-11.24,1.16-23.84,11.07-29.67,8.96-5.7,16.39-4.32,23.49,3.42,1.33,1.5.76,2.1-1.58,3.14-6.03,2.87-16.1,6.92-16.69,14.96,1.22,26.57,48.8,16.3,39.98-13.74-2.93-10.21-11.09-16.99-19.46-23.42-10.33-7.91-23.13-16.68-23.72-30.75-.84-27.75,65.5-43.84,70.07-15.06,1.54,8.83-4.04,18.13-13.17,18.43h-.21Z" fill="#fff" stroke-width="0"/><path d="m512.69,45.89c-1.09.69-1.78,2.1-2.27,3.36-5.25,13.67-8.66,22.71-13.4,35.49-1.56,4.04-2.92,8.49-4.98,12.39-3.93,7.33-10.7,11.35-16.39,11.61-11.13.04-9.64-11.07-6.44-18.51,6.05-17.05,9.78-27.26,15.99-44.08.6-1.58.87-3.63-.91-4.32-4.06-1.04-7.92-.96-12.11-1.49-1.62-.12-3.27.24-4.32,1.58-6.74,15.48-9.61,27.04-15.45,43.04-4.27,12.94-23.25,19.81-34,18.92-9.7-.4-16.05-4.22-15.64-15.23.17-2.19-.36-5.47,1.57-6.85,5.63-2.69,28.22-5.42,39.82-15.6,5.58-4.57,8.49-12.39,6.26-19.5-2.67-8.18-11.83-10.44-19.59-10.69-26.36-.79-43.71,23.99-47.23,47.55-.41,2.84-1.31,5.3-3.18,7.9-3.42,4.72-6.99,7.87-10.39,8.98-8.35,2.17-9.07-5.99-7.49-12.17,7.72-27.62,16.35-55.04,24.69-82.5.41-1.63.19-2.79-1.41-3.1-4.38-.22-8.36.44-12.74.63-2.23.11-4.45,1-5.28,3.25-8.17,27.97-17.26,55.85-23.65,84.27-.85,6.32-.3,14.28,4.93,18.49,8.36,5.84,19.57,4.24,28.24-4.15,1.2-1.13,2.49-2.5,3.49-3.66.89-.87,1.83-2.7,2.99-2.05.74.57,1.13,1.55,1.59,2.44,4.3,9.11,14.55,13.19,24.12,13.39,12.99.37,25.85-5.42,36.07-13.81.66-.53,1.72-1.41,2.36-1.41,1.24,0,1.29,2.41,1.53,3.55,2.64,16.57,21.01,20.83,33.7,12.06,2.16-1.35,2.7-.82,1.86,1.47-.81,2.81-2.13,5.65-5.18,6.6-11.67,3.77-29.08,9.22-27.06,23.42,1.25,8.54,10.85,11.6,18.24,12.2,8.78.71,14.8-1.6,20.9-12.9,1.97-3.69,3.62-7.64,4.96-11.29,10.51-28.31,21.38-56.52,32.34-84.67.98-2.66-.68-3.72-3.08-3.96-3.44-.46-6.31-.83-9.78-1.25-1.19-.13-2.52-.12-3.56.52l-.15.09Zm-78.49-1.86c3.12.23,5.98,2.36,5.91,5.68.77,14.6-29.59,27.96-34.77,26.88-2.9.14,6.18-13.91,7.46-15.82,5-6.98,12.33-17.07,21.2-16.76l.2.02Zm44.94,89.49c-2.43,6.98-6.85,16.62-12.14,17.1-4.94.91-9.35-3.21-7.88-8.23.85-4.86,10.9-11.86,20.33-13.52,2.02.13.06,3.19-.22,4.43l-.08.22Z" fill="#fff" stroke-width="0"/><path d="m338.81,31.21c-9.33-.48-16.62,5.91-23.45,11.59-1.85.91-.12-3.5.14-4.89,1.06-3.56,1.8-6.52-2.75-6.46-3.53-.04-6.45-.06-10-.05-2.82-.14-4.84,1.49-5.32,4.28-3.65,14.78-7.15,29.55-10.65,44.4-1.94,7.11-8.78,18.9-16.56,19.72-10.79-.28-4.53-16.83-3.46-23.32,2.88-12.88,4.95-21.81,8.06-35.09.65-2.66.56-4.6-2.77-4.23-3.42.21-7.01-.25-10.4-1.32-3.11-1.17-4.32.47-4.87,3.44-3.61,15.74-5.64,26.79-9.32,42.71-1.12,3.82-3.56,8.14-5.66,11.22-3,4.06-5.81,7.48-10.69,7.68-2.23-.04-4.15-1.36-4.87-3.59-3.89-17.72,11.29-38.41,4.31-55.89-2.94-7.57-12.77-9.67-21.07-8.43-4.97.74-10.97,2.89-17.08,9.07-.8.61-2.96,3.53-3.47,2.23,1.76-13.59,4.27-23.23,6.66-36.73.19-1.05.44-2.45.09-3.32-.35-1.31-2.28-1.32-3.71-1.03-3.69.64-6.71,1.17-10.43,1.87-2.47.39-4.49,1.92-4.88,4.55-6.15,34.04-11.86,68.17-17.25,102.35-.59,3.02.08,4.76,3.48,4.42,3.18-.24,5.85-.46,9.02-.7,2.3-.11,4.26-1.25,4.86-3.63,3.01-16.46,4.56-27.4,7.6-43.93,1.28-9.12,8.83-20.58,17.12-22.4,8.2-1.88,12.07,2.45,11.5,10.56-.2,15.02-18.19,51.51,6.84,56.83,8.55,1.22,15.02-1.06,22.16-9.14,1.07-1.17,2.19-2.82,3.14-3.82.32-.31.58-.45.8-.41.88.39.99,1.6,1.37,2.48,2.05,7.29,9.11,10.61,16.86,9.87,4.48-.44,8.64-1.85,13.79-6.42.72-.61,1.46-1.35,2.16-1.79,2.31-1.45-.25,4.12.4,5.39.38,1.63,2.38,1.71,3.8,1.71,3.09-.03,5.72-.03,8.84-.05,1.29-.03,2.7-.24,3.67-1.12.91-.79,1.36-2.16,1.65-3.38,4-16.72,8.11-33.41,12.34-50.07.58-2.68,2.14-5,4.49-6.43,5.85-3.68,12.86-7.45,18.9-2.88,3.13,2.37,7.26,1.88,10.54-.56,3.52-2.49,5.33-8.63,2.55-12.09-1.79-2.22-5.38-3.09-8.26-3.22h-.22Z" fill="#fff" stroke-width="0"/><path d="m267.23,29.92c13.44,1.89,15.2-8.78,19.54-18.3.67-1.36,1.8-2.57,2.74-3.69.26-.36.36-.66.26-.88-.11-.24-.49-.4-1.06-.48-2.36-.3-5,.26-7.15,1.33-1.77.73-3.5,2.93-3.78,1.51.07-3.13-1.57-9.88-5.85-7.32-1.74,1.03-3.33,2.62-4.27,4.44-.43.74-1.01,2.21-1.78.88-1.4-2.52-3.79-4.8-6.73-5.67-.63-.18-1.54-.48-2.04-.07-.2.19-.23.52-.17.97.37,1.6.74,3.32.6,5.05-.83,10.11-3.72,19.56,9.33,22.16l.37.06Z" fill="#f99d1c" fill-rule="evenodd" stroke-width="0"/></g></svg>