<?xml version="1.0" encoding="utf-8"?>
<!-- Generator: Adobe Illustrator 28.0.0, SVG Export Plug-In . SVG Version: 6.00 Build 0)  -->
<svg version="1.1" xmlns="http://www.w3.org/2000/svg" xmlns:xlink="http://www.w3.org/1999/xlink" x="0px" y="0px"
	 viewBox="0 0 1344 384" enable-background="new 0 0 1344 384" xml:space="preserve">
<g id="brand">
	<path fill="#FFD200" d="M695.4,76.6L695.4,76.6C678.6,68.5,659.8,64,640,64c-59.1,0-108.9,40.2-123.6,94.7
		c-2.9,10.6-4.4,21.8-4.4,33.3v192h64v-81.2c18.8,10.9,40.7,17.2,64,17.2c15.6,0,30.6-2.8,44.5-8c0.8-0.3,1.6-0.6,2.4-0.9
		C734.3,292.4,768,246,768,192C768,141.3,738.3,97.3,695.4,76.6z M675.6,245.1c-4.1,2.7-8.5,5-13.1,6.8c-7,2.6-14.6,4.1-22.5,4.1
		c-35.3,0-64-28.7-64-64c0,0,0-0.4,0-1.3c0-0.4,0-0.7,0-1.1c0-0.5,0-0.9,0.1-1.4c0-0.4,0-0.8,0.1-1.2c2.5-33,30.2-59.1,63.8-59.1
		c35.3,0,64,28.7,64,64C704,214.1,692.7,233.6,675.6,245.1z"/>
	<path fill="#FFD200" d="M1276,194.3l4-2.3l1.2-0.7l58.2-33.6c-2.9-10.5-7.1-20.5-12.5-29.7c-5.4-9.4-12-18-19.5-25.7
		c-17.6-17.9-40.4-30.7-66-35.8c-8.2-1.7-16.7-2.5-25.3-2.5c-56.4,0-104.3,36.5-121.4,87.2c-4.3,12.8-6.6,26.5-6.6,40.8
		c0,11.9,1.6,23.4,4.6,34.3v0l-36.6,21.2h0c-6.1,3.6-12.9,6.1-20.2,7.5c-3.8,0.7-7.8,1.1-11.8,1.1c-10.6,0-20.6-2.6-29.3-7.1
		c-0.9-0.5-1.8-1-2.7-1.5c-4.9-2.8-9.3-6.3-13.3-10.2c-3.9-3.9-7.3-8.4-10.1-13.2c-5.5-9.4-8.6-20.4-8.6-32v-37l20-11.5l1.9-1.1
		l9.6-5.6c0.2-0.1,0.4-0.2,0.5-0.3c0.2-0.1,0.5-0.3,0.7-0.4l61.3-35.4l34-19.6l15.8-9.1l-8.2-14.1l-7.8-13.6l-16-27.7L1031,40.2
		L962,80l-0.2,0.1l-1.8,1l0,0l0,0V0h-64v192c0,11.9,1.6,23.4,4.6,34.3c2.9,10.5,7.1,20.5,12.5,29.7c4.3,7.4,9.2,14.3,14.9,20.6
		c1.5,1.7,3.1,3.4,4.7,5c0.7,0.8,1.5,1.5,2.2,2.2c3.2,3.1,6.5,6,9.9,8.7c21.8,17.2,49.3,27.4,79.2,27.4c8.7,0,17.1-0.9,25.3-2.5
		c13.8-2.8,26.9-7.8,38.7-14.6l0,0l36.7-21.2c21.4,21.8,50.5,35.9,82.9,38c1.9,0.1,3.9,0.2,5.8,0.2c0.9,0,1.8,0,2.6,0
		c23.3,0,45.2-6.2,64-17.1l-16-27.7l-1.2-2.1l-14.4-24.9l-0.4-0.8c-1.1,0.6-2.1,1.2-3.2,1.7c-0.2,0.1-0.5,0.2-0.8,0.4
		c-1.6,0.8-3.2,1.5-4.8,2.1c-0.3,0.1-0.5,0.2-0.8,0.3c-0.5,0.2-0.9,0.4-1.4,0.5c-0.9,0.3-1.7,0.6-2.6,0.8c-0.4,0.1-0.9,0.3-1.4,0.4
		c-0.1,0-0.3,0.1-0.4,0.1c-0.5,0.1-0.9,0.2-1.4,0.4c-0.2,0-0.5,0.1-0.7,0.2c-1.2,0.3-2.3,0.5-3.5,0.7c-0.3,0-0.6,0.1-0.9,0.1
		c-0.6,0.1-1.2,0.2-1.8,0.3c-0.5,0.1-1,0.1-1.5,0.2c-0.7,0.1-1.3,0.1-1.9,0.2c-0.4,0-0.7,0.1-1.1,0.1c-0.6,0-1.1,0.1-1.7,0.1
		c-0.7,0-1.4,0-2.2,0c-0.7,0-1.3,0-2,0h-0.1c-0.6,0-1.1,0-1.7-0.1c-0.4,0-0.7,0-1.1-0.1c-0.6,0-1.3-0.1-1.9-0.2
		c-0.5-0.1-1-0.1-1.5-0.2c-0.6-0.1-1.2-0.2-1.8-0.3c-0.3,0-0.6-0.1-0.9-0.1c-1.2-0.2-2.3-0.4-3.5-0.7c-0.2-0.1-0.5-0.1-0.7-0.2
		c-0.5-0.1-1-0.2-1.4-0.4c-0.1,0-0.3-0.1-0.4-0.1c-0.5-0.1-0.9-0.3-1.4-0.4c-0.9-0.2-1.7-0.5-2.6-0.8c-0.5-0.2-0.9-0.3-1.4-0.5
		c-0.3-0.1-0.5-0.2-0.8-0.3c-1.7-0.6-3.3-1.3-4.8-2.1c-0.2-0.1-0.5-0.2-0.8-0.4c-1.1-0.5-2.2-1.1-3.2-1.7L1276,194.3L1276,194.3z
		 M1175.4,178.5L1152,192c0-2.8,0.2-5.5,0.5-8.2c0.1-1,0.3-2,0.4-2.9c0-0.1,0-0.2,0.1-0.3c0.1-0.4,0.1-0.7,0.2-1.1
		c0-0.1,0-0.2,0.1-0.3c0.1-0.5,0.2-1,0.3-1.6c0.1-0.6,0.3-1.2,0.4-1.8c0.1-0.4,0.2-0.9,0.3-1.3c0.1-0.5,0.3-1,0.5-1.5
		c0.2-0.5,0.3-0.9,0.5-1.4c0.5-1.4,1-2.7,1.5-4.1c0.2-0.4,0.3-0.8,0.5-1.2c0.2-0.4,0.4-0.8,0.6-1.2c0.2-0.4,0.4-0.8,0.6-1.2
		c1-2,2.1-4,3.3-5.9c0.2-0.3,0.4-0.6,0.6-0.9c0.3-0.5,0.6-0.9,1-1.4c0.2-0.3,0.5-0.7,0.7-1c0.3-0.4,0.5-0.7,0.8-1.1
		c0.8-1.1,1.7-2.1,2.5-3.1c0.3-0.3,0.6-0.7,0.9-1c0.2-0.3,0.5-0.5,0.7-0.8c0.4-0.5,0.9-0.9,1.3-1.3c0.2-0.2,0.5-0.5,0.7-0.7
		c0.3-0.3,0.7-0.7,1-1c0.6-0.6,1.3-1.2,2-1.8c0.4-0.3,0.7-0.6,1.1-0.9c0.4-0.3,0.7-0.6,1.1-0.8c0.8-0.6,1.5-1.2,2.3-1.7
		c0.3-0.2,0.6-0.5,0.9-0.7c1.3-0.9,2.6-1.7,3.9-2.5c0.3-0.2,0.5-0.3,0.8-0.5c1.2-0.7,2.4-1.3,3.7-2c0.3-0.2,0.7-0.3,1.1-0.5
		c2.3-1.1,4.6-2,7-2.8c0.4-0.1,0.7-0.2,1.1-0.3c0.9-0.3,1.7-0.5,2.6-0.7c0.3-0.1,0.6-0.2,0.9-0.2c1.5-0.4,3.1-0.7,4.7-1
		c0.4-0.1,0.8-0.1,1.2-0.2c0.4-0.1,0.8-0.1,1.2-0.2c0.4-0.1,0.9-0.1,1.3-0.2c0.4,0,0.8-0.1,1.3-0.1c0.3,0,0.7-0.1,1-0.1
		c0.5,0,0.9-0.1,1.4-0.1c0.1,0,0.2,0,0.3,0c0.3,0,0.6,0,0.9,0c0.3,0,0.6,0,0.8,0c0.5,0,1,0,1.4,0c0.7,0,1.4,0,2.2,0
		c0.6,0,1.1,0,1.7,0.1c0.4,0,0.7,0,1.1,0.1c0.6,0,1.3,0.1,1.9,0.2c0.5,0,1,0.1,1.5,0.2c0.6,0.1,1.2,0.2,1.8,0.3
		c0.3,0,0.6,0.1,0.9,0.1c1.2,0.2,2.3,0.4,3.5,0.7c0.2,0.1,0.5,0.1,0.7,0.2c0.5,0.1,1,0.2,1.4,0.4c0.1,0,0.3,0.1,0.4,0.1
		c0.5,0.1,0.9,0.3,1.4,0.4c0.9,0.2,1.7,0.5,2.6,0.8c0.5,0.2,0.9,0.3,1.4,0.5c0.3,0.1,0.5,0.2,0.8,0.3c1.7,0.6,3.3,1.3,4.8,2.1
		c0.3,0.1,0.5,0.2,0.8,0.4c1.1,0.5,2.2,1.1,3.2,1.7L1175.4,178.5z"/>
	<path fill="#FFD200" d="M256,189.8c-0.8-46.4-26.3-86.8-64-108.6c-7-4.1-14.4-7.5-22.2-10.2c-3.8-1.3-7.7-2.5-11.7-3.4
		c-9.6-2.3-19.7-3.6-30.1-3.6c-7.8,0-15.5,0.7-23,2.1c-14.7,2.7-28.5,7.9-41,15.1V0H0v192c0,58.5,39.4,107.9,93.1,123.2
		c3.9,1.1,7.9,2,12,2.8c7.5,1.3,15.1,2.1,23,2.1c27.4,0,52.9-8.7,73.7-23.4c8.2-5.8,15.6-12.5,22.2-20c19.1-21.6,31-49.8,32-80.6
		c0-1.3,0.1-2.7,0.1-4C256,191.3,256,190.5,256,189.8z M159,248c-9.2,5.1-19.7,8-31,8c-7.1,0-13.9-1.2-20.2-3.3
		C82.4,244.2,64,220.2,64,192c0-35.3,28.7-64,64-64c8.6,0,16.8,1.7,24.3,4.8c2.3,0.9,4.5,2,6.7,3.2c3.2,1.8,6.2,3.8,9,6
		c6.6,5.3,12.1,11.8,16.2,19.3c0,0,0,0,0,0.1c5,9.1,7.8,19.5,7.8,30.6C192,216.1,178.6,237.1,159,248z"/>
	<path fill="#FFD200" d="M448,64v320h-64v-81.1c-18.5,10.7-39.9,16.9-62.8,17.1c-0.4,0-0.8,0-1.2,0c-20.4,0-39.7-4.8-56.8-13.3
		c0,0,0,0,0,0c-8.8-4.3-17-9.7-24.4-15.8c-3.5-2.9-6.9-6-10.1-9.2c-1.6-1.6-3.2-3.3-4.7-5c0,0,0,0,0,0c-5.6-6.3-10.6-13.2-14.8-20.6
		c-5.4-9.2-9.6-19.2-12.5-29.7c-2.4-8.8-4-17.9-4.5-27.3c-0.1-2.3-0.2-4.6-0.2-7V64h64v128c0,2.3,0.1,4.5,0.3,6.7
		c1,9.1,3.8,17.7,8.2,25.3c5.6,9.7,13.7,17.8,23.4,23.4c9.4,5.5,20.4,8.6,32,8.6c1.6,0,3.2-0.1,4.7-0.2c7.6-0.6,14.8-2.4,21.4-5.4
		c21-9.4,36-29.9,37.7-54c0.1-1.5,0.2-3,0.2-4.5V64H448z"/>
	<path id="_x31_st_e_00000139254051057942657110000012243063086900633224_" fill="#FFD200" d="M825.5,255.7c-0.1,0-0.1,0-0.2,0
		c-0.9-0.1-1.8-0.2-2.7-0.3c-0.2,0-0.5-0.1-0.7-0.1c-0.9-0.1-1.8-0.3-2.7-0.5c-0.1,0-0.2,0-0.3-0.1c-0.8-0.2-1.6-0.4-2.5-0.6
		c-0.2-0.1-0.5-0.1-0.7-0.2c-0.9-0.2-1.8-0.5-2.6-0.7c-0.1,0-0.3-0.1-0.4-0.1c-0.8-0.2-1.5-0.5-2.2-0.8c-0.2-0.1-0.5-0.2-0.7-0.3
		c-0.8-0.3-1.7-0.6-2.5-1c-0.2-0.1-0.3-0.2-0.5-0.2c-0.7-0.3-1.3-0.6-2-0.9c-0.2-0.1-0.5-0.2-0.7-0.4c-0.8-0.4-1.5-0.8-2.3-1.2
		c-0.2-0.1-0.4-0.2-0.7-0.4c-0.3-0.2-0.7-0.4-1-0.6l48-27.7l48-27.7l30.4-17.5l29-16.7c-2.9-10.5-7.1-20.5-12.5-29.7
		c-5.4-9.4-12-18-19.5-25.7c-8.1-8.2-17.3-15.4-27.3-21.2v0c-0.4-0.2-0.9-0.5-1.3-0.7c-0.6-0.4-1.3-0.7-1.9-1.1
		c-0.6-0.4-1.3-0.7-2-1c-0.7-0.3-1.3-0.7-2-1c-1.1-0.6-2.2-1.1-3.4-1.6c-0.8-0.4-1.6-0.7-2.4-1.1c-0.7-0.3-1.3-0.6-2-0.9
		c-0.7-0.3-1.4-0.6-2.1-0.9c-0.7-0.3-1.4-0.5-2-0.8c-0.7-0.3-1.4-0.5-2.1-0.8c-0.7-0.2-1.4-0.5-2.1-0.7c-0.7-0.2-1.4-0.5-2.1-0.7
		c-0.7-0.2-1.5-0.5-2.2-0.7c-0.7-0.2-1.4-0.4-2.1-0.6c-0.8-0.2-1.7-0.4-2.5-0.7c-0.6-0.2-1.2-0.3-1.9-0.5c-1.4-0.3-2.9-0.7-4.3-0.9
		c-0.1,0-0.1,0-0.2,0c-1.2-0.3-2.5-0.5-3.8-0.7c-0.2,0-0.4-0.1-0.6-0.1c-1.1-0.2-2.2-0.4-3.4-0.5c-0.2,0-0.5-0.1-0.7-0.1
		c-2.6-0.3-5.2-0.6-7.9-0.8c-0.3,0-0.6,0-1-0.1c-1-0.1-2-0.1-3-0.2c-0.4,0-0.7,0-1.1,0c-1.3,0-2.6-0.1-3.9-0.1c-1.6,0-3.1,0-4.7,0.1
		c-0.3,0-0.7,0-1,0c-1.5,0.1-3,0.2-4.5,0.3c-0.2,0-0.5,0-0.7,0.1c-1.4,0.1-2.7,0.3-4.1,0.4c-0.3,0-0.5,0.1-0.8,0.1
		c-1.5,0.2-3,0.4-4.4,0.6c-0.3,0.1-0.6,0.1-1,0.2c-1.5,0.2-2.9,0.5-4.4,0.8c0,0-0.1,0-0.1,0c-1.5,0.3-2.9,0.6-4.4,1
		c-0.3,0.1-0.6,0.2-1,0.2c-1.4,0.4-2.8,0.7-4.2,1.1c-0.2,0.1-0.5,0.1-0.7,0.2c-1.3,0.4-2.5,0.8-3.8,1.2c-0.3,0.1-0.5,0.2-0.8,0.3
		c-1.4,0.5-2.7,0.9-4.1,1.4c-0.3,0.1-0.6,0.2-0.9,0.3c-1.3,0.5-2.6,1-3.9,1.6c-0.1,0-0.2,0.1-0.2,0.1c-1.3,0.6-2.7,1.2-4,1.8
		c-0.3,0.1-0.6,0.3-0.9,0.4c-1.3,0.6-2.6,1.2-3.8,1.9c-0.2,0.1-0.4,0.2-0.6,0.3c-1.1,0.6-2.3,1.2-3.4,1.8c-0.2,0.1-0.5,0.3-0.7,0.4
		c-1.2,0.7-2.4,1.4-3.7,2.2c-0.3,0.2-0.6,0.3-0.8,0.5c-1.1,0.7-2.3,1.5-3.4,2.2c-0.1,0.1-0.2,0.1-0.3,0.2c-1.2,0.8-2.4,1.6-3.5,2.5
		c-0.3,0.2-0.6,0.4-0.8,0.6c-1.1,0.8-2.3,1.7-3.4,2.6c-0.2,0.1-0.3,0.3-0.5,0.4c-1,0.8-2,1.6-3,2.4c-0.2,0.2-0.4,0.4-0.7,0.6
		c-1.1,0.9-2.1,1.9-3.2,2.8c-0.2,0.2-0.5,0.4-0.7,0.6c-1,0.9-2,1.8-2.9,2.8c-0.1,0.1-0.2,0.2-0.3,0.3c-1,1-2,2-3,3.1
		c-0.2,0.2-0.4,0.5-0.7,0.7c-1,1.1-1.9,2.1-2.9,3.2c-0.1,0.1-0.2,0.3-0.3,0.4c-0.9,1-1.7,2-2.6,3.1c-0.2,0.2-0.3,0.4-0.5,0.6
		c-0.9,1.1-1.8,2.3-2.6,3.4c-0.2,0.2-0.3,0.4-0.5,0.7c-0.8,1.1-1.6,2.3-2.4,3.5c0,0.1-0.1,0.1-0.1,0.2c-0.8,1.2-1.6,2.5-2.4,3.7
		c-0.1,0.2-0.3,0.5-0.4,0.7c-0.8,1.3-1.6,2.6-2.3,3.9c0,0.1-0.1,0.1-0.1,0.2c-0.7,1.3-1.4,2.6-2.1,3.9c-0.1,0.2-0.2,0.3-0.3,0.5
		c-0.7,1.3-1.4,2.7-2,4.1c-0.1,0.2-0.1,0.3-0.2,0.5c-1.3,2.8-2.6,5.7-3.7,8.7c-0.1,0.1-0.1,0.3-0.2,0.4c-1.1,3-2.1,6-3,9.1
		c0,0.2-0.1,0.3-0.1,0.5c-0.4,1.5-0.8,3-1.2,4.5c-0.1,0.2-0.1,0.4-0.2,0.7c-0.4,1.5-0.7,2.9-1,4.4c0,0.1,0,0.1,0,0.2
		c-0.3,1.5-0.6,3-0.8,4.5c-0.1,0.3-0.1,0.6-0.2,1c-0.2,1.5-0.5,3-0.6,4.5c0,0.2,0,0.4-0.1,0.7c-0.2,1.4-0.3,2.8-0.4,4.2
		c0,0.3-0.1,0.5-0.1,0.8c-0.1,1.5-0.2,3-0.3,4.6c0,0.3,0,0.7,0,1c-0.1,1.6-0.1,3.2-0.1,4.8c0,1.3,0,2.7,0.1,4c0,0.4,0,0.8,0,1.1
		c0,1,0.1,2,0.2,3c0,0.4,0,0.7,0.1,1.1c0.1,1.3,0.2,2.7,0.3,4c0,0,0,0,0,0c0.1,1.3,0.3,2.6,0.5,3.9c0,0.3,0.1,0.6,0.1,0.9
		c0.1,1.1,0.3,2.1,0.5,3.2c0,0.3,0.1,0.5,0.1,0.8c0.2,1.3,0.5,2.6,0.7,3.9c0,0,0,0,0,0c0.3,1.3,0.5,2.5,0.8,3.7
		c0.1,0.3,0.2,0.6,0.2,1c0.2,1,0.5,2,0.8,2.9c0.1,0.2,0.1,0.4,0.2,0.6c0,0.1,0.1,0.2,0.1,0.3c0.3,1.2,0.7,2.4,1.1,3.6c0,0,0,0,0,0.1
		c0.4,1.2,0.8,2.3,1.2,3.5c0.1,0.3,0.2,0.6,0.3,0.9c0.3,0.9,0.7,1.9,1,2.8c0.1,0.3,0.2,0.6,0.3,0.8c0.9,2.4,1.9,4.7,2.9,7
		c0.1,0.2,0.1,0.3,0.2,0.5c0.5,1,0.9,2,1.4,3c0.1,0.2,0.2,0.4,0.3,0.6c1.7,3.5,3.6,6.9,5.7,10.2c0,0.1,0.1,0.2,0.1,0.2
		c0.7,1.1,1.3,2.1,2,3.2c0,0,0.1,0.1,0.1,0.2c1.4,2.2,2.9,4.3,4.5,6.3c0.1,0.2,0.3,0.4,0.4,0.5c0.6,0.8,1.3,1.7,1.9,2.5
		c0.2,0.2,0.3,0.4,0.5,0.6c1.6,1.9,3.2,3.8,4.9,5.6c0.2,0.2,0.5,0.5,0.7,0.7c0.6,0.7,1.2,1.3,1.9,2c0.2,0.2,0.3,0.3,0.5,0.5
		c0.1,0.1,0.3,0.3,0.4,0.4c0.4,0.4,0.7,0.7,1.1,1.1c0.4,0.4,0.7,0.7,1.1,1.1c0.4,0.3,0.7,0.7,1.1,1c0.4,0.4,0.8,0.7,1.2,1.1
		c0.4,0.3,0.7,0.6,1.1,1c0.4,0.4,0.8,0.7,1.2,1.1c0.4,0.3,0.7,0.6,1.1,0.9c0.4,0.4,0.9,0.7,1.3,1.1c0.3,0.3,0.7,0.6,1,0.9
		c0.5,0.4,0.9,0.7,1.4,1.1c0.3,0.3,0.7,0.5,1,0.8c0.5,0.4,0.9,0.7,1.4,1.1c0.3,0.3,0.7,0.5,1,0.8c0.5,0.4,1,0.7,1.5,1.1
		c0.3,0.2,0.7,0.5,1,0.7c0.5,0.4,1,0.7,1.5,1c0.3,0.2,0.7,0.5,1,0.7c0.5,0.3,1,0.7,1.6,1c0.3,0.2,0.7,0.4,1,0.7
		c0.5,0.3,1.1,0.7,1.6,1c0.3,0.2,0.7,0.4,1,0.6c0.5,0.3,1.1,0.6,1.6,1c0.3,0.2,0.7,0.4,1,0.6c0.6,0.3,1.1,0.6,1.7,0.9
		c0.3,0.2,0.7,0.4,1.1,0.6c0.6,0.3,1.1,0.6,1.7,0.9c0.4,0.2,0.7,0.4,1.1,0.5c0.6,0.3,1.1,0.6,1.7,0.9c0.4,0.2,0.7,0.3,1.1,0.5
		c0.6,0.3,1.2,0.5,1.7,0.8c0.4,0.2,0.7,0.3,1.1,0.5c0.6,0.3,1.2,0.5,1.8,0.8c0.4,0.2,0.7,0.3,1.1,0.5c0.6,0.2,1.2,0.5,1.8,0.7
		c0.4,0.2,0.8,0.3,1.1,0.4c0.6,0.2,1.2,0.5,1.8,0.7c0.4,0.1,0.8,0.3,1.2,0.4c0.6,0.2,1.2,0.4,1.8,0.6c0.4,0.1,0.8,0.3,1.2,0.4
		c0.6,0.2,1.2,0.4,1.8,0.6c0.4,0.1,0.8,0.3,1.3,0.4c0.6,0.2,1.2,0.4,1.8,0.5c0.4,0.1,0.9,0.2,1.3,0.4c0.6,0.2,1.2,0.3,1.8,0.5
		c0.4,0.1,0.9,0.2,1.3,0.3c0.6,0.1,1.2,0.3,1.8,0.4c0.5,0.1,0.9,0.2,1.4,0.3c0.6,0.1,1.2,0.3,1.7,0.4c0.5,0.1,1,0.2,1.4,0.3
		c0.6,0.1,1.1,0.2,1.7,0.3c0.5,0.1,1,0.2,1.5,0.2c0.6,0.1,1.1,0.2,1.7,0.3c0.5,0.1,1,0.1,1.5,0.2c0.6,0.1,1.1,0.2,1.7,0.2
		c0.5,0.1,1.1,0.1,1.6,0.2c0.5,0.1,1.1,0.1,1.6,0.2c0.6,0.1,1.2,0.1,1.8,0.2c0.5,0,1,0.1,1.5,0.1c0.6,0,1.3,0.1,1.9,0.1
		c0.5,0,0.9,0.1,1.4,0.1c0.7,0,1.4,0.1,2.1,0.1c0.4,0,0.8,0,1.2,0c1.1,0,2.2,0,3.3,0c1.3,0,2.6,0,3.9-0.1c0.3,0,0.6,0,0.9,0
		c1.3,0,2.5-0.1,3.8-0.2c0.2,0,0.4,0,0.6,0c1.1-0.1,2.3-0.2,3.4-0.3c0.2,0,0.5,0,0.7-0.1c1.2-0.1,2.5-0.3,3.7-0.4
		c0.3,0,0.5-0.1,0.8-0.1c1.1-0.2,2.3-0.3,3.4-0.5c0.1,0,0.3,0,0.4-0.1c1.2-0.2,2.4-0.4,3.7-0.7c0.3-0.1,0.5-0.1,0.8-0.2
		c1.2-0.3,2.4-0.5,3.7-0.8c0,0,0.1,0,0.1,0c1.2-0.3,2.4-0.6,3.5-0.9c0.2-0.1,0.5-0.1,0.7-0.2c1.2-0.3,2.4-0.7,3.5-1
		c0.2-0.1,0.3-0.1,0.5-0.2c1.1-0.3,2.2-0.7,3.2-1.1c0.2-0.1,0.4-0.1,0.5-0.2c1.2-0.4,2.3-0.8,3.5-1.3c0.2-0.1,0.4-0.2,0.6-0.2
		c1.1-0.4,2.3-0.9,3.4-1.4c0,0,0.1,0,0.1,0c1.2-0.5,2.3-1,3.5-1.5c0.2-0.1,0.4-0.2,0.6-0.3c2.3-1.1,4.6-2.2,6.8-3.4
		c0.2-0.1,0.3-0.2,0.5-0.2c1.1-0.6,2.2-1.2,3.3-1.8c0,0,0.1,0,0.1-0.1l0,0c5.1-2.9,9.9-6.2,14.5-9.8c-14.5-16.3-25.6-35.7-32-57.1
		c-4.3,4.5-9.3,8.4-14.7,11.6c-0.3,0.1-0.5,0.3-0.8,0.4c-0.6,0.4-1.3,0.7-1.9,1c-0.2,0.1-0.4,0.2-0.6,0.3c-0.8,0.4-1.6,0.8-2.4,1.1
		c-0.2,0.1-0.5,0.2-0.7,0.3c-0.8,0.4-1.7,0.7-2.5,1c-0.1,0-0.2,0.1-0.2,0.1c-0.8,0.3-1.7,0.6-2.5,0.9c-0.2,0.1-0.5,0.2-0.7,0.2
		c-0.9,0.3-1.8,0.5-2.7,0.8c-0.2,0-0.3,0.1-0.5,0.1c-0.8,0.2-1.6,0.4-2.5,0.6c-0.2,0-0.4,0.1-0.6,0.1c-0.9,0.2-1.9,0.4-2.8,0.5
		c-0.2,0-0.4,0.1-0.6,0.1c-0.9,0.1-1.7,0.2-2.6,0.3c-0.1,0-0.3,0-0.4,0c-1,0.1-2,0.2-2.9,0.2c-0.2,0-0.5,0-0.7,0c-1,0-2,0.1-3,0.1
		c-1,0-2,0-2.9-0.1c-0.2,0-0.5,0-0.7,0C827.4,255.8,826.4,255.8,825.5,255.7z M768,192c0-35.4,28.7-64,64-64c1,0,2,0,3,0.1
		c0.2,0,0.5,0,0.7,0c1,0.1,2,0.1,2.9,0.2c0.1,0,0.3,0,0.4,0c0.9,0.1,1.7,0.2,2.6,0.3c0.2,0,0.4,0.1,0.6,0.1c0.9,0.2,1.9,0.3,2.8,0.5
		c0.2,0,0.4,0.1,0.6,0.1c0.8,0.2,1.6,0.4,2.5,0.6c0.2,0,0.3,0.1,0.5,0.1c0.9,0.2,1.8,0.5,2.7,0.8c0.2,0.1,0.5,0.1,0.7,0.2
		c0.8,0.3,1.7,0.6,2.5,0.9c0.1,0,0.2,0.1,0.2,0.1c0.9,0.3,1.7,0.7,2.5,1c0.2,0.1,0.5,0.2,0.7,0.3c0.8,0.4,1.6,0.7,2.4,1.1
		c0.2,0.1,0.4,0.2,0.6,0.3c0.6,0.3,1.3,0.7,1.9,1c0.3,0.1,0.5,0.3,0.8,0.4c0.1,0,0.2,0.1,0.2,0.1L768,192z"/>
	<linearGradient id="SVGID_1_" gradientUnits="userSpaceOnUse" x1="256" y1="256" x2="348.0207" y2="256">
		<stop  offset="0" style="stop-color:#F0A500"/>
		<stop  offset="0.7491" style="stop-color:#FFD200"/>
	</linearGradient>
	<path fill="url(#SVGID_1_)" d="M321.2,320c-0.4,0-0.8,0-1.2,0c-64-0.5-64-128-64-128c0,11.7,3.1,22.6,8.6,32
		c5.6,9.7,13.7,17.8,23.4,23.4c9.4,5.5,20.4,8.6,32,8.6c1.6,0,3.2-0.1,4.7-0.2c7.6-0.6,14.8-2.4,21.4-5.4
		C351,287,347.7,319.2,321.2,320z"/>
	
		<linearGradient id="SVGID_00000075150617920140110790000002435071825606734777_" gradientUnits="userSpaceOnUse" x1="64" y1="128" x2="169.82" y2="128">
		<stop  offset="0" style="stop-color:#F0A500"/>
		<stop  offset="0.7491" style="stop-color:#FFD200"/>
	</linearGradient>
	<path fill="url(#SVGID_00000075150617920140110790000002435071825606734777_)" d="M169.8,71l-17.5,61.8c-7.5-3.1-15.7-4.8-24.3-4.8
		c-35.3,0-64,28.7-64,64V81.2C82.8,70.3,104.7,64,128,64C142.6,64,156.7,66.5,169.8,71z"/>
	
		<linearGradient id="SVGID_00000109734807819069088870000012122726030785464245_" gradientUnits="userSpaceOnUse" x1="227.1292" y1="192.7518" x2="223.7548" y2="63.1731">
		<stop  offset="0" style="stop-color:#EF9100"/>
		<stop  offset="0.7491" style="stop-color:#FFC40C"/>
	</linearGradient>
	<path fill="url(#SVGID_00000109734807819069088870000012122726030785464245_)" d="M256,64v128c0-0.7,0-1.5,0-2.2
		c-0.8-46.4-26.3-86.8-64-108.6V64H256z"/>
	
		<linearGradient id="SVGID_00000103953674320462659810000010571822791934724015_" gradientUnits="userSpaceOnUse" x1="195.7923" y1="247.0742" x2="107.7413" y2="279.1761">
		<stop  offset="0" style="stop-color:#F0A500"/>
		<stop  offset="0.7491" style="stop-color:#FFD200"/>
	</linearGradient>
	<path fill="url(#SVGID_00000103953674320462659810000010571822791934724015_)" d="M224,276.6c-6.6,7.5-14.1,14.2-22.2,20
		C180.9,311.3,155.4,320,128,320c-7.8,0-15.5-0.7-23-2.1c-4.1-0.7-8-1.7-12-2.8l14.7-62.4c6.4,2.1,13.2,3.3,20.2,3.3
		c11.2,0,21.8-2.9,31-8c19.7-10.9,33-31.9,33-56c0,2.3,0.1,4.7,0.2,7c0.5,9.4,2,18.5,4.5,27.3c2.9,10.5,7.1,20.5,12.5,29.7
		C213.4,263.4,218.4,270.3,224,276.6C224,276.6,224,276.6,224,276.6z"/>
	
		<linearGradient id="SVGID_00000004506367785968171020000010385071009834604174_" gradientUnits="userSpaceOnUse" x1="675.29" y1="182.185" x2="896" y2="182.185">
		<stop  offset="0.2793" style="stop-color:#FFD200"/>
		<stop  offset="0.6749" style="stop-color:#FFEB32"/>
	</linearGradient>
	<path fill="url(#SVGID_00000004506367785968171020000010385071009834604174_)" d="M896,81.1c-95.7,0.8-119.9,64.2-126,94.8
		c-1.9,9.7-2,16.1-2,16.1c0,21.6-5.4,41.9-14.8,59.7c-4.8,9-10.5,17.3-17.2,24.9c-8.1,9.2-17.5,17.2-27.9,23.8l-32.8-55
		c0.1-0.1,0.2-0.1,0.3-0.2c17.1-11.5,28.4-31,28.4-53.1c0-1.6,0-3.2,0.1-4.8c0-0.3,0-0.7,0-1c0.1-1.5,0.2-3,0.3-4.6
		c0-0.3,0.1-0.5,0.1-0.8c0.1-1.4,0.3-2.8,0.4-4.2c0-0.2,0-0.4,0.1-0.7c0.2-1.5,0.4-3,0.7-4.5c0-0.3,0.1-0.6,0.2-1
		c0.2-1.5,0.5-3,0.8-4.5c0-0.1,0-0.1,0-0.2c0.3-1.5,0.7-3,1-4.4c0-0.2,0.1-0.4,0.2-0.7c0.4-1.5,0.8-3,1.2-4.5c0-0.2,0.1-0.3,0.1-0.5
		c0.9-3.1,1.9-6.1,3-9.1c0-0.2,0.1-0.3,0.2-0.4c1.1-2.9,2.4-5.8,3.7-8.6c0.1-0.2,0.1-0.3,0.2-0.5c0.7-1.4,1.3-2.7,2-4.1
		c0.1-0.2,0.2-0.3,0.3-0.5c0.7-1.3,1.4-2.6,2.1-3.9c0-0.1,0.1-0.1,0.1-0.2c0.8-1.3,1.5-2.6,2.3-3.8c0.1-0.2,0.3-0.5,0.4-0.7
		c0.8-1.3,1.6-2.5,2.4-3.7c0-0.1,0.1-0.1,0.1-0.2c0.8-1.2,1.6-2.3,2.4-3.5c0.2-0.2,0.3-0.4,0.5-0.7c0.9-1.2,1.7-2.3,2.6-3.4
		c0.2-0.2,0.3-0.4,0.5-0.6c0.8-1,1.7-2.1,2.6-3.1c0.1-0.1,0.2-0.3,0.3-0.4c0.3-0.3,0.6-0.7,0.9-1c0.6-0.7,1.3-1.5,2-2.2
		c0.2-0.2,0.4-0.5,0.7-0.7c1-1.1,2-2.1,3-3.1c0.1-0.1,0.2-0.2,0.3-0.3c1-0.9,1.9-1.9,2.9-2.8c0.2-0.2,0.5-0.4,0.7-0.6
		c1-1,2.1-1.9,3.1-2.8c0.2-0.2,0.5-0.4,0.7-0.6c1-0.8,2-1.6,3-2.4c0.2-0.1,0.3-0.3,0.5-0.4c1.1-0.9,2.2-1.7,3.4-2.6
		c0.3-0.2,0.6-0.4,0.8-0.6c1.2-0.8,2.3-1.7,3.5-2.5c0.1-0.1,0.2-0.1,0.3-0.2c1.1-0.8,2.3-1.5,3.4-2.2c0.3-0.2,0.6-0.3,0.8-0.5
		c1.2-0.7,2.4-1.5,3.7-2.2c0.2-0.1,0.5-0.3,0.8-0.4c1.1-0.6,2.3-1.2,3.4-1.9c0.2-0.1,0.4-0.2,0.6-0.3c1.3-0.7,2.6-1.3,3.9-1.9
		c0.3-0.1,0.6-0.3,0.9-0.4c1.3-0.6,2.7-1.2,4-1.8c0.1,0,0.2-0.1,0.2-0.1c1.3-0.6,2.6-1.1,3.9-1.6c0.3-0.1,0.6-0.2,0.9-0.4
		c1.4-0.5,2.7-1,4.1-1.4c0.3-0.1,0.5-0.2,0.8-0.2c1.3-0.4,2.5-0.8,3.8-1.2c0.2-0.1,0.5-0.1,0.7-0.2c1.4-0.4,2.8-0.8,4.2-1.1
		c0.3-0.1,0.6-0.2,1-0.2c1.5-0.4,2.9-0.7,4.4-1c0,0,0.1,0,0.1,0c1.5-0.3,2.9-0.6,4.4-0.8c0.3,0,0.6-0.1,1-0.2
		c1.5-0.2,2.9-0.5,4.4-0.6c0.2,0,0.5-0.1,0.8-0.1c1.4-0.2,2.7-0.3,4.1-0.4c0.2,0,0.5,0,0.7-0.1c1.5-0.1,3-0.2,4.5-0.3
		c0.3,0,0.7,0,1,0c1.6,0,3.1-0.1,4.7-0.1c1.3,0,2.6,0,3.9,0.1c0.4,0,0.7,0,1.1,0c1,0,2,0.1,3,0.2c0.3,0,0.6,0,1,0.1
		c2.6,0.2,5.3,0.4,7.9,0.8c0.2,0,0.5,0.1,0.7,0.1c1.1,0.2,2.2,0.3,3.4,0.5c0.2,0,0.4,0.1,0.6,0.1c1.3,0.2,2.5,0.4,3.8,0.7
		c0.1,0,0.1,0,0.2,0c1.4,0.3,2.9,0.6,4.3,1c0.6,0.2,1.2,0.3,1.9,0.5c0.8,0.2,1.7,0.4,2.5,0.7c0.7,0.2,1.4,0.4,2.1,0.6
		c0.7,0.2,1.5,0.4,2.2,0.7c0.7,0.2,1.4,0.5,2.1,0.7c0.7,0.2,1.4,0.5,2.1,0.7c0.7,0.2,1.4,0.5,2.1,0.8c0.7,0.2,1.4,0.5,2,0.8
		c0.7,0.3,1.4,0.6,2.1,0.8c0.7,0.3,1.3,0.6,2,0.9c0.8,0.4,1.6,0.7,2.4,1.1c1.1,0.5,2.2,1,3.4,1.6c0.7,0.3,1.3,0.7,2,1
		c0.7,0.3,1.3,0.7,2,1c0.6,0.4,1.3,0.7,1.9,1.1C895.1,80.6,895.6,80.9,896,81.1z"/>
	
		<linearGradient id="SVGID_00000133491506982025480650000007998711646042605234_" gradientUnits="userSpaceOnUse" x1="576" y1="-184" x2="668.0207" y2="-184" gradientTransform="matrix(1 0 0 -1 0 -56)">
		<stop  offset="0" style="stop-color:#F0A500"/>
		<stop  offset="0.7491" style="stop-color:#FFD200"/>
	</linearGradient>
	<path fill="url(#SVGID_00000133491506982025480650000007998711646042605234_)" d="M641.2,64c-0.4,0-0.8,0-1.2,0
		c-64,0.5-64,128-64,128c0-11.7,3.1-22.6,8.6-32c5.6-9.7,13.7-17.8,23.4-23.4c9.4-5.5,20.4-8.6,32-8.6c1.6,0,3.2,0.1,4.7,0.2
		c7.6,0.6,14.8,2.4,21.4,5.4C671,97,667.7,64.8,641.2,64z"/>
	
		<linearGradient id="SVGID_00000168083311165438185860000015349624077763011998_" gradientUnits="userSpaceOnUse" x1="960" y1="256" x2="1052.0208" y2="256">
		<stop  offset="0" style="stop-color:#F0A500"/>
		<stop  offset="0.7491" style="stop-color:#FFD200"/>
	</linearGradient>
	<path fill="url(#SVGID_00000168083311165438185860000015349624077763011998_)" d="M1025.2,320c-0.4,0-0.8,0-1.2,0
		c-64-0.5-64-128-64-128c0,11.7,3.1,22.6,8.6,32c5.6,9.7,13.7,17.8,23.4,23.4c9.4,5.5,20.4,8.6,32,8.6c1.6,0,3.2-0.1,4.7-0.2
		c7.6-0.6,14.8-2.4,21.4-5.4C1055,287,1051.7,319.2,1025.2,320z"/>
	
		<linearGradient id="SVGID_00000134958071924849378280000007989347968168021417_" gradientUnits="userSpaceOnUse" x1="3408.0015" y1="240" x2="3500.022" y2="240" gradientTransform="matrix(-1 0 0 1 4112.0015 16)">
		<stop  offset="0" style="stop-color:#F0A500"/>
		<stop  offset="0.7491" style="stop-color:#FFD200"/>
	</linearGradient>
	<path fill="url(#SVGID_00000134958071924849378280000007989347968168021417_)" d="M638.8,320c0.4,0,0.8,0,1.2,0
		c64-0.5,64-128,64-128c0,11.7-3.1,22.6-8.6,32c-5.6,9.7-13.7,17.8-23.4,23.4c-9.4,5.5-20.4,8.6-32,8.6c-1.6,0-3.2-0.1-4.7-0.2
		c-7.6-0.6-14.8-2.4-21.4-5.4C609,287,612.3,319.2,638.8,320z"/>
	
		<linearGradient id="SVGID_00000111166234037504199250000008841053715299190698_" gradientUnits="userSpaceOnUse" x1="365.2541" y1="-227.707" x2="457.2748" y2="-227.707" gradientTransform="matrix(1 0 0 -1 786.7459 -99.707)">
		<stop  offset="0" style="stop-color:#F0A500"/>
		<stop  offset="0.7491" style="stop-color:#FFD200"/>
	</linearGradient>
	<path fill="url(#SVGID_00000111166234037504199250000008841053715299190698_)" d="M1217.2,64c-0.4,0-0.8,0-1.2,0
		c-64,0.5-64,128-64,128c0-11.7,3.1-22.6,8.6-32c5.6-9.7,13.7-17.8,23.4-23.4c9.4-5.5,20.4-8.6,32-8.6c1.6,0,3.2,0.1,4.7,0.2
		c7.6,0.6,14.8,2.4,21.4,5.4C1247,97,1243.7,64.8,1217.2,64z"/>
	
		<linearGradient id="SVGID_00000075156128683856165120000003351805303106379157_" gradientUnits="userSpaceOnUse" x1="1151.1138" y1="227.6472" x2="1054.1201" y2="283.367">
		<stop  offset="0" style="stop-color:#F0A500"/>
		<stop  offset="0.7491" style="stop-color:#FFD200"/>
	</linearGradient>
	<path fill="url(#SVGID_00000075156128683856165120000003351805303106379157_)" d="M1088,302.8L1088,302.8
		c-11.8,6.9-24.9,11.9-38.7,14.7l-13.4-62.6c7.2-1.3,14-3.9,20.2-7.5h0l36.6-21.2c5.9,21.2,17.1,40.2,32,55.4L1088,302.8z"/>
	
		<linearGradient id="SVGID_00000055674465480726020010000000162963816622137228_" gradientUnits="userSpaceOnUse" x1="1224.5703" y1="186.0777" x2="1141.4111" y2="237.135">
		<stop  offset="0.2509" style="stop-color:#FFD200"/>
		<stop  offset="1" style="stop-color:#F0A500"/>
	</linearGradient>
	<path fill="url(#SVGID_00000055674465480726020010000000162963816622137228_)" d="M1244,212.8l-60,34.7c-19.1-11.1-32-31.7-32-55.4
		l63-36.4L1244,212.8z"/>
	
		<linearGradient id="SVGID_00000052796979403261326590000003678514635018857349_" gradientUnits="userSpaceOnUse" x1="552.6713" y1="160.6746" x2="583.0084" y2="98.8768">
		<stop  offset="0.2793" style="stop-color:#FFD200"/>
		<stop  offset="0.6749" style="stop-color:#FFEB32"/>
	</linearGradient>
	<path fill="url(#SVGID_00000052796979403261326590000003678514635018857349_)" d="M640,64c-60.8,0.4-63.8,115.5-64,127.1
		c0,0.5,0,0.8,0,0.9c0,0,0,0,0,0c0,0,0,0,0,0l-59.6-33.3C531.1,104.2,580.9,64,640,64z"/>
	
		<linearGradient id="SVGID_00000169518928697273123980000005969937780226001837_" gradientUnits="userSpaceOnUse" x1="947.543" y1="115.5609" x2="1017.25" y2="92.6309">
		<stop  offset="0" style="stop-color:#F0A500"/>
		<stop  offset="0.7491" style="stop-color:#FFD200"/>
	</linearGradient>
	<polygon fill="url(#SVGID_00000169518928697273123980000005969937780226001837_)" points="960,81.1 960,155 1043.2,107 
		1013.4,50.3 	"/>
</g>
<g id="white">
</g>
<g id="grey">
</g>
</svg>
