<?xml version="1.0" encoding="UTF-8"?><svg id="a" xmlns="http://www.w3.org/2000/svg" width="1339.36" height="384" viewBox="0 0 1339.36 384"><path d="m695.42,76.63h-.01c-16.77-8.09-35.57-12.63-55.41-12.63-59.06,0-108.91,40.21-123.6,94.69-2.87,10.62-4.4,21.79-4.4,33.31v192h64v-81.18c18.84,10.92,40.7,17.18,64,17.18,15.64,0,30.62-2.82,44.48-7.97.8-.29,1.59-.59,2.37-.9,47.47-18.74,81.15-65.08,81.15-119.13,0-50.74-29.67-94.67-72.58-115.37Zm-19.79,168.5c-4.07,2.74-8.47,5.03-13.13,6.78-7,2.64-14.59,4.09-22.5,4.09-35.28,0-63.98-28.69-64-63.96,0,0,0-.44.02-1.28,0-.36.01-.73.03-1.09.01-.46.03-.93.06-1.39.02-.37.05-.77.08-1.2,2.52-33,30.17-59.08,63.81-59.08,35.29,0,64,28.71,64,64,0,22.11-11.27,41.63-28.37,53.13Z" fill="#fff" stroke-width="0"/><path d="m1275.99,194.32l4.01-2.32,1.17-.68,58.19-33.59c-2.92-10.52-7.14-20.49-12.49-29.74-5.43-9.37-12-17.99-19.54-25.67-17.59-17.91-40.4-30.67-65.98-35.81-8.19-1.65-16.67-2.51-25.35-2.51-56.43,0-104.34,36.52-121.36,87.22-4.31,12.81-6.64,26.52-6.64,40.78,0,11.87,1.62,23.36,4.64,34.27h0s-36.63,21.16-36.63,21.16h-.01c-6.14,3.56-12.93,6.12-20.15,7.47-3.84.72-7.8,1.1-11.85,1.1-10.58,0-20.57-2.57-29.35-7.11-.9-.47-1.79-.95-2.66-1.46-4.87-2.81-9.34-6.26-13.29-10.21-3.92-3.93-7.33-8.38-10.13-13.21-5.45-9.41-8.57-20.35-8.57-32.01v-36.95l19.96-11.52,1.87-1.08,9.62-5.56c.18-.11.36-.22.54-.32.24-.14.49-.28.74-.42l61.27-35.37,34.01-19.64,15.77-9.1-8.17-14.15-7.83-13.56-16-27.72-40.79,23.55-69,39.84-.22.12-1.77,1.03h-.01s.01-.02.01-.02V0h-64v192c0,11.87,1.62,23.36,4.64,34.27,2.92,10.52,7.14,20.49,12.5,29.74,4.27,7.38,9.25,14.3,14.86,20.65,1.51,1.72,3.07,3.39,4.67,5.02.74.75,1.49,1.5,2.25,2.22,3.15,3.06,6.45,5.95,9.9,8.66,21.78,17.19,49.28,27.44,79.18,27.44,8.65,0,17.11-.86,25.28-2.5,13.85-2.77,26.89-7.78,38.73-14.64h-.01s36.67-21.18,36.67-21.18c21.38,21.77,50.48,35.93,82.88,38.04,1.93.13,3.87.21,5.82.25.87.02,1.75.03,2.63.03,23.32,0,45.18-6.24,64.01-17.14l-16-27.71-1.2-2.08-14.36-24.88-.44-.76c-1.06.61-2.13,1.2-3.22,1.74-.25.13-.5.25-.75.38-1.58.77-3.19,1.48-4.84,2.11-.26.11-.52.21-.78.3-.46.18-.93.35-1.4.51-.86.3-1.72.58-2.59.83-.45.14-.9.27-1.36.4-.14.04-.27.07-.4.11-.48.13-.95.25-1.44.37-.23.05-.47.11-.72.17-1.15.27-2.31.5-3.48.7-.28.05-.57.1-.85.14-.58.1-1.17.18-1.76.26-.52.07-1.03.13-1.55.18-.65.07-1.3.13-1.94.18-.36.03-.73.06-1.09.07-.55.04-1.11.07-1.66.08-.73.03-1.45.04-2.18.04-.68,0-1.35-.01-2.03-.04h-.15c-.55,0-1.11-.04-1.66-.08-.36-.01-.73-.04-1.09-.07-.64-.05-1.29-.11-1.94-.18-.52-.05-1.03-.11-1.55-.18-.59-.08-1.18-.16-1.76-.26-.28-.04-.57-.09-.85-.14-1.17-.2-2.33-.43-3.48-.7-.25-.06-.49-.12-.72-.17-.49-.12-.96-.24-1.44-.37-.13-.04-.26-.07-.4-.11-.46-.13-.91-.26-1.36-.4-.87-.25-1.73-.53-2.59-.83-.47-.16-.94-.33-1.4-.51-.26-.09-.52-.19-.78-.3-1.65-.63-3.26-1.34-4.84-2.11-.25-.13-.5-.25-.75-.38-1.09-.54-2.16-1.13-3.22-1.74l91.98-53.11h.02Zm-100.58-15.83l-23.41,13.51c0-2.79.18-5.54.52-8.23.12-.98.27-1.96.45-2.93.02-.1.04-.21.06-.31.06-.37.13-.74.2-1.11.02-.11.04-.21.07-.32.1-.52.22-1.04.34-1.56.14-.59.28-1.19.44-1.78.11-.43.23-.86.35-1.29.14-.5.29-1.01.45-1.51.15-.48.3-.95.46-1.41.46-1.38.97-2.73,1.53-4.07.16-.41.34-.82.52-1.22.18-.42.37-.83.56-1.24.19-.42.39-.83.59-1.23,1-2.04,2.11-4.02,3.32-5.93.19-.31.39-.62.59-.93.31-.47.62-.93.95-1.39.24-.35.48-.7.73-1.04.27-.37.53-.73.81-1.09.81-1.07,1.66-2.12,2.54-3.15.29-.34.59-.68.89-1.01.24-.27.48-.54.72-.8.43-.45.86-.9,1.29-1.34.24-.24.48-.49.73-.73.34-.33.68-.67,1.03-.99.64-.61,1.3-1.2,1.97-1.79.36-.3.71-.6,1.06-.89.35-.29.7-.57,1.05-.85.75-.59,1.5-1.17,2.27-1.72.31-.23.62-.45.93-.66,1.27-.89,2.56-1.72,3.89-2.51.27-.17.55-.33.83-.49,1.2-.69,2.42-1.34,3.67-1.95.35-.18.7-.35,1.06-.51,2.28-1.07,4.63-2.01,7.04-2.8.35-.12.7-.23,1.05-.34.85-.26,1.7-.51,2.55-.74.29-.07.58-.15.88-.22,1.53-.39,3.09-.72,4.66-.98.4-.08.8-.14,1.2-.2.42-.07.83-.13,1.25-.18.44-.06.88-.11,1.33-.16.42-.05.85-.09,1.28-.13.33-.03.66-.06.98-.08.48-.04.95-.07,1.43-.1.1,0,.2-.01.31-.01.29-.02.59-.03.89-.04.27-.01.55-.02.83-.02.48,0,.96-.02,1.45-.02.73,0,1.45.01,2.18.04.55.01,1.11.04,1.66.08.36.01.73.04,1.09.07.64.05,1.29.11,1.94.18.52.05,1.03.11,1.55.18.59.08,1.18.16,1.76.26.29.04.57.09.85.14,1.17.2,2.33.43,3.48.7.24.06.48.11.72.17.49.12.96.24,1.44.37.13.04.26.07.4.11.46.13.91.26,1.36.4.87.25,1.73.53,2.59.83.47.16.94.33,1.4.51.26.09.52.19.78.3,1.65.63,3.26,1.34,4.84,2.11.26.12.51.25.75.38,1.09.54,2.16,1.13,3.22,1.74l-72.6,41.92Z" fill="#fff" stroke-width="0"/><path d="m255.98,189.79c-.79-46.36-26.35-86.8-63.98-108.61-7-4.06-14.42-7.48-22.18-10.16-3.83-1.33-7.74-2.48-11.72-3.44-9.65-2.34-19.73-3.58-30.1-3.58-7.84,0-15.51.71-22.96,2.06-14.71,2.68-28.54,7.87-41.04,15.12V0H0v192c0,58.47,39.42,107.92,93.08,123.16,3.91,1.11,7.9,2.04,11.96,2.78,7.45,1.35,15.12,2.06,22.96,2.06,27.43,0,52.88-8.68,73.74-23.43,8.16-5.77,15.62-12.47,22.23-19.95,19.1-21.63,31.01-49.76,31.97-80.59.04-1.34.06-2.68.06-4.03,0-.74-.01-1.48-.02-2.21Zm-97.03,58.21c-9.18,5.1-19.73,8-30.95,8-7.07,0-13.87-1.15-20.23-3.28-25.41-8.48-43.77-32.5-43.77-60.72,0-35.29,28.71-64,64-64,8.6,0,16.81,1.71,24.3,4.8,2.29.94,4.51,2.02,6.66,3.21,3.16,1.75,6.16,3.77,8.96,6.01,6.6,5.27,12.13,11.83,16.22,19.28.02.02.03.04.04.06,4.99,9.11,7.82,19.55,7.82,30.64,0,24.07-13.36,45.08-33.05,56Z" fill="#fff" stroke-width="0"/><path d="m448,64v320h-64v-81.13c-18.5,10.7-39.91,16.91-62.76,17.12-.41.01-.82.01-1.24.01-20.4,0-39.68-4.77-56.78-13.26,0-.01-.02-.01-.03-.01-8.76-4.35-16.95-9.67-24.43-15.83-3.53-2.88-6.9-5.97-10.09-9.22-1.61-1.64-3.18-3.32-4.69-5.05t-.02-.02c-5.59-6.34-10.56-13.24-14.82-20.6-5.36-9.25-9.58-19.22-12.5-29.74-2.42-8.76-3.95-17.88-4.45-27.28-.13-2.31-.19-4.64-.19-6.99V64h64v128c0,2.26.12,4.5.35,6.7.95,9.15,3.83,17.73,8.22,25.31,5.61,9.71,13.71,17.81,23.42,23.42,9.41,5.45,20.35,8.57,32.01,8.57,1.59,0,3.16-.06,4.72-.18,7.58-.55,14.8-2.42,21.41-5.38,21.03-9.41,36.04-29.85,37.71-53.95.11-1.49.16-2.98.16-4.49V64h64Z" fill="#fff" stroke-width="0"/><path id="b" d="m825.49,255.67c-.06,0-.11-.01-.17-.02-.9-.09-1.8-.21-2.69-.34-.24-.04-.48-.07-.72-.11-.92-.15-1.84-.31-2.75-.49-.1-.02-.21-.05-.31-.07-.82-.17-1.64-.36-2.45-.57-.24-.06-.48-.12-.72-.18-.88-.23-1.75-.48-2.62-.74-.14-.04-.28-.09-.42-.14-.75-.24-1.5-.49-2.24-.76-.24-.09-.48-.17-.72-.26-.83-.31-1.66-.63-2.47-.97-.17-.07-.34-.15-.51-.22-.68-.29-1.35-.6-2.01-.91-.25-.12-.49-.23-.74-.35-.77-.38-1.53-.76-2.28-1.17-.22-.12-.44-.25-.66-.37-.34-.19-.67-.39-1.01-.58l47.99-27.71,48-27.71,30.39-17.55,28.97-16.72c-2.92-10.52-7.14-20.49-12.49-29.74-5.43-9.37-12-17.99-19.54-25.67-8.08-8.23-17.28-15.36-27.33-21.17v-.02c-.43-.25-.86-.48-1.29-.72-.65-.36-1.29-.73-1.94-1.08-.65-.35-1.31-.69-1.96-1.03-.66-.34-1.31-.69-1.98-1.02-1.11-.55-2.23-1.08-3.36-1.6-.81-.37-1.63-.73-2.45-1.08-.67-.29-1.33-.59-2.01-.87-.71-.29-1.42-.57-2.13-.85-.68-.27-1.35-.53-2.03-.79-.71-.27-1.43-.52-2.15-.78-.7-.25-1.4-.49-2.1-.72-.71-.24-1.42-.47-2.14-.7-.74-.23-1.48-.45-2.22-.67-.69-.2-1.39-.41-2.08-.6-.83-.23-1.66-.44-2.49-.65-.63-.16-1.25-.33-1.88-.48-1.42-.34-2.85-.66-4.29-.95-.05-.01-.1-.02-.15-.03-1.25-.25-2.5-.48-3.76-.69-.2-.03-.4-.07-.6-.1-1.12-.18-2.24-.35-3.36-.51-.24-.03-.49-.07-.73-.1-2.6-.34-5.23-.61-7.88-.79-.32-.02-.64-.04-.95-.06-1.01-.06-2.02-.11-3.04-.15-.36-.01-.72-.03-1.08-.04-1.31-.04-2.62-.07-3.93-.07-1.58,0-3.14.04-4.7.09-.33.01-.67.02-1,.04-1.52.07-3.03.16-4.54.28-.25.02-.5.05-.75.07-1.38.12-2.75.26-4.11.42-.26.03-.52.06-.77.09-1.48.18-2.96.4-4.43.63-.32.05-.65.11-.97.16-1.47.25-2.93.51-4.38.8-.04,0-.07.01-.11.02-1.48.3-2.94.64-4.4.99-.32.08-.64.15-.96.23-1.42.36-2.84.73-4.25,1.14-.23.07-.45.14-.68.2-1.28.37-2.55.77-3.81,1.18-.26.08-.52.16-.77.25-1.37.46-2.73.94-4.08,1.45-.3.11-.6.23-.9.34-1.32.5-2.63,1.02-3.93,1.57-.08.03-.15.06-.23.09-1.35.57-2.68,1.17-4,1.78-.3.14-.61.28-.91.42-1.29.61-2.58,1.24-3.85,1.9-.21.11-.41.22-.62.33-1.15.6-2.28,1.22-3.41,1.85-.25.14-.5.28-.75.42-1.23.7-2.45,1.42-3.65,2.16-.28.17-.55.34-.83.52-1.15.72-2.29,1.45-3.41,2.2-.1.07-.2.13-.3.2-1.19.8-2.36,1.63-3.52,2.47-.28.2-.55.4-.83.6-1.14.84-2.27,1.69-3.38,2.57-.17.14-.35.28-.52.42-1.01.8-2,1.62-2.98,2.45-.22.19-.45.38-.67.57-1.07.92-2.12,1.85-3.16,2.81-.23.21-.46.43-.69.64-.98.92-1.95,1.84-2.91,2.79-.09.09-.19.18-.28.28-1.02,1.01-2.01,2.05-2.99,3.1-.22.24-.44.47-.66.71-.97,1.05-1.93,2.12-2.86,3.2-.11.13-.22.27-.34.4-.87,1.02-1.72,2.05-2.56,3.09-.17.21-.34.41-.5.62-.89,1.13-1.77,2.27-2.62,3.42-.16.22-.32.43-.48.65-.83,1.14-1.65,2.29-2.44,3.45-.05.07-.1.14-.15.21-.83,1.23-1.64,2.47-2.43,3.73-.14.23-.28.45-.43.68-.79,1.27-1.56,2.55-2.3,3.85-.03.06-.07.12-.1.18-.73,1.28-1.43,2.58-2.12,3.88-.09.17-.18.34-.27.51-.7,1.34-1.37,2.7-2.02,4.08-.07.15-.14.3-.21.46-1.33,2.83-2.56,5.71-3.68,8.65-.06.15-.11.3-.17.44-1.12,2.97-2.14,5.99-3.04,9.06-.04.15-.09.3-.13.45-.43,1.49-.84,2.99-1.22,4.5-.06.22-.11.44-.16.67-.36,1.46-.7,2.94-1.01,4.42-.02.07-.03.15-.05.22-.31,1.5-.58,3-.84,4.52-.05.32-.11.64-.16.96-.24,1.49-.46,2.99-.65,4.5-.03.22-.05.44-.08.66-.17,1.39-.31,2.79-.43,4.19-.02.27-.05.54-.07.81-.12,1.52-.21,3.04-.28,4.57-.01.33-.03.66-.04.99-.06,1.58-.1,3.16-.1,4.76,0,1.34.03,2.67.07,3.99.01.38.03.76.04,1.14.04,1.01.09,2.01.15,3.01.02.35.04.71.07,1.06.09,1.33.2,2.66.34,3.97,0,0,0,0,0,.01.13,1.31.29,2.62.47,3.92.04.32.09.63.13.95.15,1.06.31,2.12.49,3.17.04.27.09.54.13.81.23,1.32.47,2.64.74,3.94,0,.01,0,.02,0,.04.26,1.25.54,2.5.84,3.74.08.32.15.64.23.95.24.98.5,1.96.76,2.94.06.21.11.42.16.63.03.1.06.2.09.3.34,1.21.69,2.41,1.06,3.61,0,.02.01.03.02.05.37,1.17.75,2.34,1.15,3.5.1.29.2.57.3.86.33.93.67,1.85,1.01,2.77.11.28.21.55.32.83.91,2.36,1.89,4.69,2.94,6.98.07.16.15.32.22.48.46,1,.94,1.99,1.42,2.98.1.2.2.4.3.6,1.74,3.48,3.64,6.87,5.68,10.16.05.08.1.16.15.24.67,1.07,1.35,2.13,2.04,3.17.03.05.07.1.1.15,1.44,2.16,2.94,4.27,4.5,6.33.13.18.27.35.41.53.64.83,1.29,1.66,1.95,2.48.16.2.31.39.47.59,1.57,1.92,3.19,3.8,4.87,5.63.23.25.45.49.68.73.62.66,1.24,1.32,1.87,1.97.15.16.3.32.46.48.14.14.28.27.41.41.36.37.73.73,1.09,1.09.37.37.74.73,1.12,1.09.36.34.72.68,1.08,1.02.39.37.79.74,1.19,1.1.35.32.71.64,1.07.96.41.37.83.74,1.24,1.1.35.31.7.61,1.06.91.43.37.87.74,1.31,1.1.35.29.69.57,1.04.85.45.37.91.74,1.37,1.1.34.27.69.54,1.04.81.47.36.94.73,1.42,1.09.34.26.69.51,1.03.76.49.36.98.72,1.47,1.07.34.24.69.48,1.03.72.5.35,1.01.7,1.51,1.05.34.23.69.46,1.03.69.52.34,1.03.69,1.56,1.02.34.22.69.44,1.03.65.53.34,1.06.67,1.6,1,.34.21.69.41,1.04.62.54.32,1.09.65,1.63.97.35.2.7.4,1.05.59.55.31,1.11.63,1.67.93.35.19.7.38,1.05.56.56.3,1.13.6,1.7.9.35.18.71.36,1.06.54.57.29,1.15.58,1.72.86.36.17.72.34,1.08.51.58.27,1.16.55,1.74.81.37.17.74.33,1.1.49.58.26,1.17.52,1.76.77.37.16.75.31,1.12.47.59.24,1.18.49,1.78.73.38.15.76.29,1.15.44.59.23,1.19.46,1.78.68.39.14.79.28,1.18.42.59.21,1.19.43,1.78.63.4.14.81.27,1.21.4.59.2,1.19.39,1.78.58.42.13.84.25,1.25.38.59.18,1.18.36,1.78.53.43.12.86.24,1.29.35.59.16,1.18.33,1.77.48.44.11.89.22,1.33.33.59.14,1.17.29,1.76.43.46.11.92.2,1.38.3.58.13,1.16.26,1.74.38.48.1.96.19,1.44.28.57.11,1.14.23,1.72.33.49.09.98.16,1.47.25.57.1,1.14.2,1.71.28.51.08,1.02.14,1.53.22.56.08,1.11.16,1.67.23.54.07,1.08.13,1.62.19.54.06,1.07.13,1.61.18.58.06,1.17.11,1.76.16.5.04.99.09,1.49.13.63.05,1.27.08,1.9.12.46.03.92.06,1.38.09.7.04,1.41.06,2.12.08.39.01.79.03,1.18.04,1.1.03,2.21.04,3.32.04,1.3,0,2.59-.03,3.88-.06.29,0,.57-.02.86-.03,1.26-.05,2.52-.11,3.78-.19.19-.01.37-.03.56-.04,1.14-.08,2.27-.18,3.4-.28.25-.02.49-.05.74-.07,1.24-.13,2.47-.27,3.69-.43.25-.03.5-.07.76-.1,1.14-.16,2.27-.33,3.4-.51.15-.02.29-.05.44-.07,1.23-.21,2.44-.44,3.66-.68.27-.05.53-.11.8-.16,1.22-.25,2.45-.52,3.66-.8.04,0,.08-.02.12-.03,1.18-.28,2.36-.58,3.53-.9.24-.07.49-.13.73-.2,1.18-.33,2.36-.67,3.53-1.03.16-.05.33-.1.49-.15,1.09-.34,2.17-.69,3.25-1.06.18-.06.35-.12.53-.18,1.17-.4,2.32-.82,3.47-1.26.2-.08.4-.15.6-.23,1.14-.44,2.27-.89,3.39-1.35.04-.02.07-.03.11-.04,1.16-.49,2.31-.99,3.45-1.51.19-.09.38-.17.57-.26,2.3-1.06,4.55-2.18,6.78-3.36.15-.08.31-.16.46-.24,1.11-.6,2.2-1.21,3.29-1.83.03-.02.06-.03.09-.05h0c5.06-2.93,9.9-6.19,14.49-9.76-14.51-16.27-25.57-35.68-32.03-57.09-4.29,4.53-9.25,8.43-14.71,11.56-.26.15-.52.29-.78.43-.64.35-1.28.7-1.93,1.03-.19.1-.38.2-.57.29-.8.4-1.61.78-2.43,1.14-.24.11-.48.21-.72.32-.83.36-1.67.71-2.52,1.03-.08.03-.17.06-.25.09-.83.31-1.67.6-2.51.88-.23.08-.46.15-.69.22-.89.28-1.78.55-2.69.79-.16.04-.32.08-.48.12-.81.21-1.63.41-2.46.59-.2.04-.41.09-.61.13-.93.19-1.87.37-2.81.52-.21.03-.41.06-.62.09-.86.13-1.73.25-2.61.34-.14.02-.28.04-.43.05-.97.1-1.95.17-2.94.23-.23.01-.46.02-.69.03-1.01.05-2.02.08-3.04.08s-1.96-.03-2.93-.07c-.24-.01-.48-.02-.72-.04-.96-.05-1.92-.12-2.87-.22Zm-57.49-63.67c0-35.35,28.65-64,64-64,1.02,0,2.03.03,3.04.08.23.01.46.02.69.03.98.06,1.96.13,2.94.23.14.01.28.03.43.05.88.1,1.75.21,2.61.34.21.03.41.06.62.09.94.15,1.88.33,2.81.52.21.04.41.09.61.13.82.18,1.64.38,2.46.59.16.04.32.08.48.12.91.24,1.8.51,2.69.79.23.07.46.15.69.22.84.28,1.68.57,2.51.88.08.03.17.06.25.09.85.32,1.69.67,2.52,1.03.24.1.48.21.72.32.82.37,1.63.74,2.43,1.14.19.09.38.2.57.29.65.33,1.29.67,1.93,1.03.26.14.52.29.78.43.08.05.16.1.24.14l-96,55.42Z" fill="#fff" stroke-width="0"/><path d="m321.24,319.99c-.41.01-.82.01-1.24.01-64-.46-64-128-64-128,0,11.66,3.12,22.6,8.57,32.01,5.61,9.71,13.71,17.81,23.42,23.42,9.41,5.45,20.35,8.57,32.01,8.57,1.59,0,3.16-.06,4.72-.18,7.58-.55,14.8-2.42,21.41-5.38,4.88,36.6,1.56,68.76-24.89,69.55Z" fill="#fff" stroke-width="0"/><path d="m169.82,71.02l-17.52,61.78c-7.49-3.09-15.7-4.8-24.3-4.8-35.29,0-64,28.71-64,64v-110.82c18.84-10.92,40.7-17.18,64-17.18,14.64,0,28.71,2.47,41.82,7.02Z" fill="#fff" stroke-width="0"/><path d="m256,64v128c0-.74-.01-1.48-.02-2.21-.79-46.36-26.35-86.8-63.98-108.61v-17.18h64Z" fill="#fff" stroke-width="0"/><path d="m255.94,196.03c.04-1.34.06-2.68.06-4.03,0,2.26.12,4.5.35,6.7-.18.05-.35.1-.53.14.05-.93.09-1.87.12-2.81Z" fill="#fff" stroke-width="0"/><path d="m223.97,276.62c-6.61,7.48-14.07,14.18-22.23,19.95-20.86,14.75-46.31,23.43-73.74,23.43-7.84,0-15.51-.71-22.96-2.06-4.06-.74-8.05-1.67-11.96-2.78l14.69-62.44c6.36,2.13,13.16,3.28,20.23,3.28,11.22,0,21.77-2.9,30.95-8,19.69-10.92,33.05-31.93,33.05-56,0,2.35.06,4.68.19,6.99.5,9.4,2.03,18.52,4.45,27.28,2.92,10.52,7.14,20.49,12.5,29.74,4.26,7.36,9.23,14.26,14.82,20.6,0,.01,0,.01,0,.01Z" fill="#fff" stroke-width="0"/><path d="m896,81.13c-95.69.85-119.86,64.21-125.96,94.75-1.93,9.72-2.04,16.12-2.04,16.12,0,21.56-5.36,41.89-14.82,59.74-4.75,8.98-10.54,17.32-17.22,24.87-8.1,9.19-17.5,17.2-27.91,23.76l-32.76-55.02c.12-.07.23-.14.34-.22,17.1-11.5,28.37-31.02,28.37-53.13,0-1.59.04-3.18.1-4.76.01-.33.02-.66.03-.99.07-1.53.16-3.05.28-4.57.03-.27.05-.54.08-.81.12-1.4.26-2.8.43-4.19.02-.22.04-.44.07-.66.19-1.51.41-3.01.65-4.5.05-.32.1-.64.16-.96.25-1.51.53-3.02.84-4.52.01-.07.03-.14.04-.21.31-1.49.65-2.96,1.01-4.43.05-.22.11-.44.16-.66.38-1.51.79-3.01,1.22-4.5.04-.15.09-.3.13-.45.91-3.07,1.92-6.09,3.05-9.06.05-.15.11-.29.16-.44,1.13-2.94,2.36-5.82,3.69-8.65.07-.15.14-.31.21-.46.65-1.37,1.32-2.73,2.02-4.07.09-.17.18-.34.27-.51.69-1.31,1.39-2.61,2.12-3.89.04-.06.07-.12.1-.18.75-1.3,1.52-2.58,2.3-3.85.14-.23.29-.45.43-.68.79-1.26,1.59-2.5,2.43-3.73.04-.07.09-.14.14-.21.8-1.17,1.61-2.32,2.44-3.45.16-.22.32-.44.48-.66.85-1.15,1.73-2.29,2.62-3.42.16-.21.33-.41.5-.62.84-1.04,1.69-2.07,2.56-3.09.11-.13.22-.27.34-.4.3-.35.6-.69.91-1.03.64-.73,1.29-1.46,1.95-2.17.22-.24.44-.48.67-.71.98-1.05,1.97-2.09,2.99-3.1.09-.1.19-.19.28-.28.95-.94,1.92-1.87,2.91-2.79.23-.21.46-.43.69-.64,1.03-.95,2.09-1.89,3.15-2.81.23-.19.45-.37.67-.56.98-.83,1.97-1.65,2.98-2.45.17-.14.34-.28.52-.42,1.11-.88,2.24-1.73,3.38-2.57.27-.2.55-.4.82-.6,1.16-.84,2.33-1.67,3.52-2.47.1-.07.2-.13.3-.2,1.13-.76,2.27-1.49,3.41-2.21.28-.17.56-.34.83-.51,1.21-.74,2.42-1.47,3.65-2.17.25-.14.5-.28.75-.41,1.13-.64,2.26-1.25,3.41-1.85.21-.11.41-.22.62-.33,1.27-.65,2.55-1.28,3.85-1.9.3-.14.61-.28.91-.42,1.32-.61,2.65-1.21,4-1.78.07-.03.15-.06.23-.09,1.29-.55,2.6-1.07,3.92-1.57.3-.12.6-.23.91-.35,1.35-.5,2.71-.98,4.08-1.44.26-.09.52-.17.77-.25,1.26-.42,2.53-.81,3.81-1.18.23-.07.45-.14.68-.21,1.4-.4,2.82-.77,4.24-1.13.32-.08.64-.16.96-.23,1.46-.36,2.93-.69,4.41-1,.03,0,.07-.01.11-.02,1.45-.29,2.91-.55,4.38-.8.32-.05.64-.11.97-.16,1.47-.23,2.94-.45,4.43-.63.25-.03.51-.06.77-.09,1.36-.16,2.73-.3,4.11-.42.25-.02.49-.04.74-.06,1.51-.12,3.02-.21,4.54-.28.34-.01.67-.02,1.01-.04,1.56-.05,3.12-.09,4.7-.09,1.32,0,2.63.03,3.93.07.36,0,.73.02,1.09.04,1.01.04,2.03.09,3.04.15.31.02.63.04.95.06,2.65.18,5.27.45,7.88.79.24.03.49.07.73.1,1.13.16,2.25.33,3.36.51.2.03.4.06.61.1,1.26.21,2.51.44,3.76.69.05,0,.1.02.15.03,1.44.3,2.87.61,4.3.95.63.15,1.25.32,1.87.48.84.21,1.67.42,2.49.65.7.19,1.39.4,2.09.61.74.21,1.48.44,2.22.67.71.22,1.43.46,2.14.69.7.24,1.4.48,2.1.73.72.25,1.44.51,2.15.78.68.25,1.35.52,2.03.78.71.28,1.43.56,2.13.85.67.28,1.34.58,2.01.87.82.36,1.63.71,2.44,1.08,1.13.52,2.25,1.05,3.36,1.6.67.33,1.32.68,1.98,1.02.65.34,1.31.68,1.96,1.03.65.35,1.3.72,1.94,1.08.43.24.86.47,1.29.72Z" fill="#fff" stroke-width="0"/><path d="m641.24,64.01c-.41-.01-.82-.01-1.24-.01-64,.46-64,128-64,128,0-11.66,3.12-22.6,8.57-32.01,5.61-9.71,13.71-17.81,23.42-23.42,9.41-5.45,20.35-8.57,32.01-8.57,1.59,0,3.16.06,4.72.18,7.58.55,14.8,2.42,21.41,5.38,4.88-36.6,1.56-68.76-24.89-69.55Z" fill="#fff" stroke-width="0"/><path d="m1025.24,319.99c-.41.01-.82.01-1.24.01-64-.46-64-128-64-128,0,11.66,3.12,22.6,8.57,32.01,5.61,9.71,13.71,17.81,23.42,23.42,9.41,5.45,20.35,8.57,32.01,8.57,1.59,0,3.16-.06,4.72-.18,7.58-.55,14.8-2.42,21.41-5.38,4.88,36.6,1.56,68.76-24.89,69.55Z" fill="#fff" stroke-width="0"/><path d="m1276.01,192.81c0,.38-.01.89-.02,1.51h-.02c.03-.5.04-1.01.04-1.51Z" fill="#fff" stroke-width="0"/><path d="m638.76,319.99c.41.01.82.01,1.24.01,64-.46,64-128,64-128,0,11.66-3.12,22.6-8.57,32.01-5.61,9.71-13.71,17.81-23.42,23.42-9.41,5.45-20.35,8.57-32.01,8.57-1.59,0-3.16-.06-4.72-.18-7.58-.55-14.8-2.42-21.41-5.38-4.88,36.6-1.56,68.76,24.89,69.55Z" fill="#fff" stroke-width="0"/><path d="m1217.24,64.01c-.41-.01-.82-.01-1.24-.01-64,.46-64,128-64,128,0-11.66,3.12-22.6,8.57-32.01,5.61-9.71,13.71-17.81,23.42-23.42,9.41-5.45,20.35-8.57,32.01-8.57,1.59,0,3.16.06,4.72.18,7.58.55,14.8,2.42,21.41,5.38,4.88-36.6,1.56-68.76-24.89-69.55Z" fill="#fff" stroke-width="0"/><path d="m1088,302.85h.01c-11.84,6.87-24.88,11.88-38.73,14.65l-13.43-62.6c7.22-1.35,14.01-3.91,20.15-7.47h.01l36.63-21.15c5.88,21.18,17.06,40.15,32.03,55.4l-36.67,21.17Z" fill="#fff" stroke-width="0"/><path d="m1244.02,212.77l-60.03,34.66c-19.12-11.06-31.99-31.74-31.99-55.43l63.03-36.39,28.99,57.16Z" fill="#fff" stroke-width="0"/><path d="m640,64c-60.77.44-63.84,115.46-63.99,127.06-.01.48-.01.78-.01.89v.09l-59.6-33.35c14.69-54.48,64.54-94.69,123.6-94.69Z" fill="#fff" stroke-width="0"/><path d="m576.01,191.06c.01-.1.01-.2.01-.3-.02.4-.02.79-.02,1.19,0-.11,0-.41.01-.89Z" fill="#fff" stroke-width="0"/><polygon points="960 81.13 960 155.05 1043.17 107.03 1013.42 50.3 960 81.13" fill="#fff" stroke-width="0"/></svg>