<?xml version="1.0" encoding="UTF-8"?><svg id="a" xmlns="http://www.w3.org/2000/svg" viewBox="0 0 2000 1000"><path d="M2008.2,1120.03c52.41,8.61,105.72,17.2,158.08,6.87,93.22-18.39,176.92-100.7,212.33-208.8,35.41-108.1,21.23-238.05-35.97-329.64-106.58-170.69-315.78-176.47-456.64-303.98-94.95-85.95-151.3-220.03-218.51-339.29-67.21-119.26-159.49-234.42-277.38-246.51-104.23-10.69-205.15,64.73-271.51,165.36-66.36,100.62-104.4,224.19-141.36,345.36-39.53,129.62-79.67,263.8-74.16,401.56,10.3,257.63,195.52,489.87,408.85,473.39,87.14-6.73,171.26-32.34,259.19-29.91,145.62,4.03,292.99,41.94,437.07,65.6Z" style="fill:none; stroke:#fff; stroke-miterlimit:10; stroke-width:2.24px;"/><path d="M1041.08-238.97c-36.63,54.42-67.66,113.42-94.9,175.07-28.21,63.61-52.62,130.17-75.15,196.94-12.43,36.8-24.4,74.13-34.89,112.04-29.69,107.26-45.94,219.61-30.61,326.68,6,41.92,16.62,82.34,29.02,123.12,21.37,70.58,45.96,139.61,80.18,198.97,70.75,122.74,183.24,199.64,308.83,213.39,58.36,6.39,121.26,10.11,184.66,1.76,49.46-6.5,97.42-19.92,145.28-24.75,153.5-15.48,307.9,12.89,456.26,18.76,53.92,2.2,108.45,4.38,161.62-11.92,95.6-29.31,180.72-120.41,219.07-235.93,1.12-3.36,2.19-6.74,3.23-10.13,35.02-114.63,24.27-248.3-14.61-341.91-21.21-51.07-46.13-87.35-81.54-122.28-39.36-38.84-92.84-72.61-149.11-103.65-71.93-39.71-147.85-76.57-214.34-129.19-26.41-20.83-50.88-43.81-74.07-67.97-75.82-79.02-138.63-171.16-205.07-259.7s-137.79-169.94-225.74-216.24c-29.99-15.85-61.61-26.48-94.74-29.89-53.25-5.47-105.6,8.82-153.46,39.07-54.93,34.66-100.67,89.36-139.9,147.75Z" style="fill:none; stroke:#fff; stroke-miterlimit:10; stroke-width:2.15px;"/><path d="M963.56-341.97c-40.54,59.24-76.76,122.05-109.04,187.62-33.57,67.86-63.37,138.93-89.7,211.04-14.56,39.8-28.15,80.35-39.56,121.78-32.24,117-44.03,241.73-17.28,354.1,10.33,43.41,25.71,84.51,40.84,127.76,25.99,74.68,47.18,150.66,79.25,216.42,65.44,134.19,179.1,220.52,307.1,253.38,68.68,17.63,145.37,33.79,223.8,24.47,61.38-7.27,119.24-29.23,176.88-40.54,160.72-31.54,322.8-16.16,475.45-28.08,55.43-4.21,111.2-8.51,165.15-30.72,98.02-40.35,184.51-140.11,225.81-263.05,1.21-3.61,2.39-7.24,3.53-10.88,38.42-123.09,31.91-265.68,9.68-363.55-12.28-54.08-23.76-91.29-51.92-132.85-31.17-46.02-85.23-90.33-144.82-128.5-76.2-48.86-160.3-90.98-236.6-144.91-30.43-21.4-59.16-44.39-86.75-67.93-91.02-77.66-171.13-162.13-253.02-248.13-76.39-80.22-161.84-164.9-259.88-214.02-33.06-16.67-67.71-28.03-103.68-31.73-58.09-5.98-115.08,8.99-166.96,43.41-59.3,39.23-105.33,101.99-148.27,164.88Z" style="fill:none; stroke:#fff; stroke-miterlimit:10; stroke-width:2.07px;"/><path d="M886.03-444.97c-44.45,64.06-85.86,130.68-123.18,200.17-38.93,72.1-74.13,147.7-104.26,225.14-16.68,42.8-31.9,86.58-44.23,131.52-34.8,126.73-42.24,263.83-3.96,381.53,14.6,44.89,34.8,86.67,52.67,132.41,30.6,78.78,48.44,161.66,78.33,233.88,60.23,145.55,174.99,244.1,305.36,293.37,79.17,29.92,169.47,57.46,262.93,47.18,73.31-8.04,141.02-38.02,208.48-56.33,167.97-45.59,337.71-45.21,494.65-74.91,56.94-10.62,113.95-21.46,168.69-49.51,100.45-51.48,188.31-159.82,232.55-290.17,1.31-3.86,2.59-7.74,3.83-11.63,41.81-131.56,39.75-283.38,33.97-385.2-3.25-57.27-1.41-95.17-22.3-143.41-23-53.12-77.63-108.06-140.53-153.35-80.47-58-172.75-105.4-258.86-160.63-34.45-21.96-67.46-44.95-99.43-67.88-106.29-76.25-203.34-153.19-300.97-236.55-89.14-76.11-185.9-159.86-294.03-211.79-36.13-17.5-73.81-29.57-112.63-33.57-62.92-6.48-124.56,9.16-180.46,47.75-63.66,43.81-110,114.63-156.63,182.01Z" style="fill:none; stroke:#fff; stroke-miterlimit:10; stroke-width:1.99px;"/><path d="M808.5-547.97c-48.37,68.87-94.97,139.32-137.32,212.72-44.3,76.35-84.89,156.46-118.82,239.23-18.81,45.79-35.64,92.8-48.9,141.25-37.35,136.46-40.58,285.93,9.37,408.95,18.83,46.37,43.88,88.83,64.5,137.05,35.21,82.87,49.75,172.63,77.4,251.34,55.11,156.84,170.45,269.25,303.63,333.37,89.43,43.05,193.58,81.14,302.07,69.89,85.23-8.81,162.89-46.39,240.09-72.12,175.45-58.48,352.61-74.25,513.84-121.75,58.45-17.02,116.7-34.45,172.23-68.31,102.86-62.71,192.11-179.52,239.29-317.3,1.41-4.11,2.79-8.24,4.12-12.38,45.21-140.02,47.9-301.25,58.25-406.84,5.94-60.57,20.91-99.02,7.33-153.98-14.87-60.18-70.03-125.78-136.23-178.2-84.73-67.15-185.2-119.81-281.12-176.35-38.46-22.53-75.78-45.5-112.11-67.84-121.62-74.79-235.34-144.39-348.92-224.98-101.69-72.14-209.95-154.82-328.18-209.57-39.21-18.32-79.91-31.11-121.57-35.41-67.76-6.99-134.04,9.33-193.95,52.08-68.03,48.39-114.66,127.26-164.99,199.14Z" style="fill:none; stroke:#fff; stroke-miterlimit:10; stroke-width:1.9px;"/><path d="M730.98-650.97c-52.28,73.69-104.07,147.95-151.46,225.27-49.66,80.6-95.64,165.22-133.37,253.33-20.93,48.79-39.39,99.02-53.57,150.99-39.91,146.19-39,308.05,22.69,436.37,23.02,47.87,52.97,90.99,76.33,141.69,39.82,86.97,51.1,183.59,76.48,268.79,50.08,168.09,165.4,295.26,301.9,373.36,99.32,56.83,217.69,104.82,341.21,92.6,97.15-9.58,184.87-54.43,271.69-87.91,183.21-70.66,367.52-103.3,533.03-168.58,59.96-23.43,119.42-47.49,175.76-87.1,105.24-74,195.9-199.23,246.03-344.42,1.51-4.36,2.98-8.74,4.42-13.13,48.6-148.48,56.36-319.15,82.54-428.49,15.3-63.88,43.18-102.85,36.95-164.54-6.79-67.23-62.42-143.51-131.94-203.05-89-76.3-197.65-134.22-303.38-192.07-42.48-23.09-84.11-46.03-124.79-67.79-136.99-73.28-267.2-135.75-396.87-213.4-114.11-68.33-234.01-149.78-362.33-207.34-42.28-19.14-86.01-32.66-130.52-37.25-72.6-7.5-143.53,9.5-207.45,56.42-72.4,52.97-119.32,139.89-173.35,216.27Z" style="fill:none; stroke:#fff; stroke-miterlimit:10; stroke-width:1.82px;"/><path d="M653.45-753.97c-56.19,78.5-113.18,156.58-165.6,237.82-55.03,84.84-106.4,173.98-147.93,267.43-23.06,51.79-43.14,105.25-58.24,160.72-42.46,155.93-37.5,330.22,36.02,463.8,27.18,49.38,62.06,93.15,88.16,146.34,44.43,91.07,52.48,194.53,75.56,286.25,45.12,179.31,159.88,321.73,300.17,413.35,108.82,71.07,241.79,128.49,380.35,115.31,109.07-10.35,207-62.21,303.29-103.7,191.22-82.41,382.43-132.35,552.23-215.42,61.47-29.84,122.13-60.55,179.3-105.9,107.58-85.34,199.7-218.93,252.77-371.55,1.61-4.61,3.18-9.24,4.72-13.89,52-156.95,65.05-336.98,106.83-450.13,24.79-67.15,65.41-106.68,66.57-175.11,1.25-74.29-54.82-161.23-127.65-227.9-93.27-85.45-210.1-148.63-325.65-207.79-46.5-23.65-92.44-46.55-137.47-67.75-152.37-71.73-298.98-127.27-444.82-201.83-126.46-64.65-258.06-144.74-396.48-205.12-45.35-19.96-92.11-34.2-139.46-39.09-77.43-8-153.01,9.67-220.94,60.75-76.77,57.55-123.99,152.52-181.71,233.4Z" style="fill:none; stroke:#fff; stroke-miterlimit:10; stroke-width:1.74px;"/><path d="M575.93-856.97c-60.1,83.32-122.28,165.21-179.74,250.37-60.39,89.09-117.16,182.74-162.49,281.52-25.18,54.79-46.89,111.47-62.91,170.46C125.77,11.05,134.73,197.81,220.14,336.61c31.32,50.9,71.14,95.31,99.99,150.98,49.05,95.16,53.9,205.47,74.63,303.71,40.22,190.53,153.96,348.44,298.44,453.34,117.94,85.64,265.9,152.17,419.49,138.02,120.99-11.12,229.26-69.78,334.89-119.49,199.46-93.88,397.33-161.4,571.42-262.26,62.99-36.25,124.82-73.63,182.83-124.69,109.89-96.71,203.5-238.64,259.51-398.67,1.71-4.86,3.38-9.74,5.02-14.64,55.39-165.41,73.88-354.68,131.12-471.77,34.38-70.34,87.63-110.53,96.19-185.67,9.27-81.35-47.21-178.96-123.36-252.75-97.53-94.6-222.55-163.04-347.91-223.52-50.51-24.22-100.78-47.06-150.15-67.7-167.76-70.14-330.72-118.93-492.77-190.26-138.79-61.08-282.12-139.7-430.63-202.9-48.43-20.78-98.21-35.74-148.4-40.93-82.27-8.51-162.49,9.85-234.44,65.09-81.14,62.13-128.65,165.15-190.08,250.53Z" style="fill:none; stroke:#fff; stroke-miterlimit:10; stroke-width:1.65px;"/><path d="M498.4-959.97c-64.02,88.14-131.39,173.84-193.88,262.93-65.75,93.34-127.92,191.51-177.04,295.62-27.31,57.79-50.63,117.69-67.58,180.19C12.33-45.84,25.24,153.44,122.57,297.42c35.45,52.44,80.23,97.48,111.82,155.62,53.66,99.26,55.34,216.41,73.71,321.16,35.37,201.75,147.71,375.25,296.71,493.33,126.74,100.43,290.01,175.84,458.63,160.73,132.91-11.89,251.65-77.18,366.49-135.28,207.89-105.18,412.24-190.45,590.61-309.09,64.5-42.65,127.49-86.72,186.37-143.49,112.16-108.12,207.29-258.35,266.25-425.79,1.81-5.12,3.58-10.25,5.32-15.39,58.79-173.87,82.79-372.26,155.4-493.42,44.02-73.46,109.82-114.39,125.81-196.24,17.27-88.43-39.61-196.68-119.07-277.6-101.8-103.74-235-177.45-370.17-239.24-54.53-24.78-109.12-47.57-162.83-67.66-183.15-68.52-362.45-110.71-540.72-178.68-151.1-57.61-306.17-134.66-464.78-200.67-51.5-21.6-104.31-37.28-157.35-42.77-87.11-9.01-171.98,10.02-247.94,69.43-85.51,66.71-133.32,177.78-198.44,267.66Z" style="fill:none; stroke:#fff; stroke-miterlimit:10; stroke-width:1.57px;"/><path d="M420.87-1062.97c-67.93,92.95-140.49,182.47-208.01,275.48-71.12,97.58-138.67,200.27-191.6,309.72-29.43,60.79-54.38,123.92-72.25,189.93C-101.12-102.72-84.28,109.11,25,258.23c39.56,53.99,89.32,99.64,123.65,160.26,58.27,103.36,56.81,227.34,72.78,338.62,30.57,212.96,141.18,402.11,294.98,533.32,135.25,115.4,314.11,199.52,497.77,183.44,144.83-12.66,274.15-84.46,398.1-151.07,216.5-116.36,427.14-219.5,609.81-355.93,66.01-49.06,130.14-99.83,189.91-162.28,114.39-119.54,211.09-278.05,272.99-452.92,1.9-5.37,3.77-10.75,5.61-16.14,62.18-182.34,91.74-389.72,179.69-515.06,53.69-76.51,132.01-118.26,155.43-206.81,25.27-95.53-32-214.41-114.78-302.45-106.07-112.89-247.45-191.87-392.43-254.96-58.55-25.34-117.45-48.06-175.51-67.61-198.55-66.88-394.18-102.58-588.67-167.11-163.43-54.22-330.23-129.62-498.93-198.45-54.58-22.42-110.41-38.83-166.29-44.61-91.94-9.52-181.46,10.19-261.43,73.76-89.88,71.28-137.98,190.41-206.8,284.8Z" style="fill:none; stroke:#fff; stroke-miterlimit:10; stroke-width:1.48px;"/><path d="M343.35-1165.97c-71.84,97.77-149.6,191.1-222.15,288.03-76.48,101.83-149.43,209.03-206.16,323.82-31.56,63.79-58.13,130.14-76.92,199.67-52.68,194.85-31.93,419.27,89.32,573.49,43.67,55.55,98.41,101.8,135.48,164.91,62.88,107.45,58.3,238.28,71.86,356.08,25.81,224.19,134.44,428.97,293.24,573.31,143.54,130.47,338.22,223.19,536.91,206.14,156.75-13.43,296.75-91.63,429.7-166.86,225.24-127.47,442.05-248.55,629-402.77,67.52-55.47,132.78-112.93,193.44-181.08,116.6-130.97,214.89-297.76,279.73-480.04,2-5.62,3.97-11.25,5.91-16.89,65.58-190.8,100.69-407.1,203.98-536.71,63.36-79.5,154.2-122.14,185.06-217.37,33.26-102.64-24.4-232.13-110.49-327.3-110.33-122.04-259.89-206.28-414.69-270.68-62.57-25.91-125.79-48.55-188.19-67.57-213.94-65.21-425.93-94.54-636.62-155.53-175.77-50.88-354.28-124.59-533.08-196.22-57.65-23.24-116.51-40.37-175.23-46.45-96.78-10.03-190.94,10.36-274.93,78.1-94.25,75.86-142.65,203.04-215.16,301.93Z" style="fill:none; stroke:#fff; stroke-miterlimit:10; stroke-width:1.4px;"/><path d="M265.82-1268.97c-75.75,102.59-158.7,199.73-236.29,300.58-81.84,106.08-160.19,217.79-220.71,337.91-33.68,66.79-61.88,136.36-81.59,209.4-55.24,204.59-30.6,441.62,102.65,600.92,47.78,57.12,107.49,103.96,147.31,169.55,67.5,111.55,59.8,249.23,70.93,373.53,21.08,235.42,127.52,455.8,291.51,613.31,151.62,145.62,362.33,246.87,576.05,228.85,168.67-14.2,319.44-98.71,461.3-182.66,234.11-138.53,456.95-277.59,648.19-449.6,69.03-61.88,135.4-126.04,196.98-199.87,118.78-142.41,218.68-317.46,286.47-507.16,2.1-5.87,4.17-11.75,6.21-17.64,68.97-199.26,109.63-424.41,228.27-558.35,73.03-82.45,176.38-126.04,214.68-227.94,41.24-109.75-16.8-249.86-106.2-352.15-114.6-131.19-272.34-220.69-436.95-286.4-66.58-26.47-134.13-49.03-200.87-67.53-229.33-63.54-457.69-86.55-684.57-143.96-188.12-47.6-378.33-119.55-567.23-194-60.72-24.06-122.61-41.91-184.18-48.29-101.62-10.53-200.42,10.53-288.43,82.43-98.62,80.44-147.31,215.67-223.53,319.06Z" style="fill:none; stroke:#fff; stroke-miterlimit:10; stroke-width:1.32px;"/><path d="M188.29-1371.97c-79.67,107.4-167.81,208.36-250.43,313.13-87.21,110.33-170.95,226.56-235.27,352.01-35.81,69.79-65.62,142.59-86.26,219.14-57.79,214.32-29.27,463.99,115.98,628.34,51.88,58.71,116.58,106.12,159.14,174.19,72.11,115.65,61.33,260.17,70.01,390.99,16.37,246.66,120.45,482.61,289.78,653.3,159.54,160.82,386.43,270.55,615.19,251.56,180.59-14.97,342.21-105.72,492.9-198.45,243.08-149.56,471.86-306.64,667.39-496.44,70.54-68.28,138.01-139.16,200.51-218.67,120.94-153.86,222.48-337.17,293.21-534.29,2.2-6.12,4.37-12.25,6.51-18.39,72.37-207.73,118.56-441.66,252.55-580,82.7-85.37,198.57-129.94,244.3-238.5,49.23-116.88-9.19-267.58-101.91-377-118.87-140.33-284.79-235.1-459.21-302.12-70.6-27.04-142.46-49.52-213.55-67.48-244.71-61.84-489.48-78.62-732.52-132.38-200.5-44.35-402.39-114.51-601.38-191.77-63.8-24.88-128.71-43.46-193.12-50.13-106.45-11.04-209.91,10.7-301.92,86.77-102.98,85.02-151.97,228.3-231.89,336.19Z" style="fill:none; stroke:#fff; stroke-miterlimit:10; stroke-width:1.23px;"/><path d="M110.77-1474.97c-83.58,112.22-176.91,216.99-264.57,325.68-92.57,114.57-181.7,235.32-249.83,366.11-37.93,72.79-69.37,148.81-90.93,228.87-60.35,224.05-27.95,486.39,129.3,655.77,55.98,60.3,125.67,108.28,170.96,178.84,76.72,119.74,62.86,271.13,69.08,408.45,11.69,257.91,113.27,509.38,288.05,693.29,167.32,176.06,410.54,294.22,654.33,274.27,192.51-15.74,365.04-112.68,524.51-214.24,252.14-160.58,486.76-335.69,686.58-543.27,72.05-74.69,140.62-152.27,204.05-237.46,123.08-165.3,226.28-356.87,299.95-561.41,2.3-6.37,4.57-12.75,6.81-19.15,75.76-216.19,127.47-458.88,276.84-601.64,92.35-88.27,220.56-133.93,273.92-249.07,57.01-124.1-1.59-285.31-97.62-401.85-123.13-149.48-297.24-249.51-481.47-317.84-74.62-27.6-150.83-49.85-226.23-67.44-260.21-59.63-521.28-70.73-780.47-120.81-212.9-41.14-426.44-109.47-635.53-189.55-66.87-25.7-134.82-45-202.07-51.97-111.29-11.54-219.39,10.87-315.42,91.11-107.35,89.6-156.64,240.93-240.25,353.32Z" style="fill:none; stroke:#fff; stroke-miterlimit:10; stroke-width:1.15px;"/><path d="M33.24-1577.96c-87.49,117.03-186.02,225.62-278.71,338.23-97.94,118.82-192.46,244.08-264.38,380.2-40.06,75.79-73.12,155.04-95.6,238.61-62.9,233.78-26.64,508.81,142.63,683.19,60.08,61.9,134.75,110.44,182.79,183.48,81.33,123.84,64.41,282.09,68.16,425.9,7.02,269.17,105.98,536.1,286.32,733.28,174.99,191.32,434.64,317.9,693.47,296.98,204.43-16.51,387.94-119.59,556.11-230.03,261.28-171.58,501.67-364.74,705.77-590.11,73.56-81.1,143.21-165.38,207.59-256.26,125.2-176.75,230.07-376.58,306.69-588.53,2.4-6.62,4.76-13.25,7.1-19.9,79.16-224.65,136.36-476.06,301.13-623.28,102-91.14,242.8-137.82,303.54-259.63,65.06-131.22,6.02-303.03-93.33-426.7-127.4-158.63-309.69-263.92-503.74-333.57-78.64-28.16-159.15-50.36-238.91-67.39-275.55-58.04-553.11-62.87-828.42-109.24-225.31-37.95-450.5-104.43-669.68-187.33-69.94-26.52-140.92-46.54-211.01-53.81-116.13-12.05-228.87,11.04-328.91,95.44-111.72,94.18-161.3,253.56-248.61,370.45Z" style="fill:none; stroke:#fff; stroke-miterlimit:10; stroke-width:1.07px;"/><path d="M-44.28-1680.96c-91.4,121.85-195.12,234.25-292.85,350.78-103.3,123.07-203.22,252.84-278.94,394.3-42.18,78.79-76.87,161.26-100.27,248.35-65.45,243.52-25.33,531.25,155.96,710.61,64.18,63.5,143.84,112.61,194.62,188.12,85.94,127.94,66.24,293.05,67.23,443.36,2.88,280.44,98.61,562.8,284.59,773.27,182.56,206.6,458.75,341.57,732.61,319.69,216.36-17.28,410.89-126.46,587.71-245.82,270.48-182.57,516.57-393.79,724.97-636.95,75.07-87.51,145.63-178.6,211.12-275.05,126.99-188.41,233.87-396.29,313.43-615.66,2.49-6.87,4.96-13.75,7.4-20.65,82.55-233.12,145.24-493.21,325.42-644.93,111.64-94,265.03-141.71,333.16-270.2,73.1-138.33,13.62-320.76-89.04-451.55-131.67-167.78-322.14-278.34-526-349.29-82.65-28.73-167.47-50.87-251.59-67.35-290.9-56.44-584.95-55.04-876.37-97.66-237.74-34.77-474.55-99.39-703.83-185.1-73.02-27.35-147.02-48.08-219.95-55.65-120.96-12.56-238.35,11.21-342.41,99.78-116.09,98.76-165.97,266.19-256.97,387.58Z" style="fill:none; stroke:#fff; stroke-miterlimit:10; stroke-width:.98px;"/><path d="M-121.81-1783.96c-95.32,126.67-204.23,242.88-306.99,363.33-108.66,127.31-213.98,261.6-293.49,408.4-44.31,81.78-80.61,167.48-104.94,258.08-68.01,253.25-24.2,553.9,169.28,738.04,68.22,65.18,152.93,114.77,206.45,192.77,90.56,132.03,67.67,304.02,66.31,460.82-2,291.72,91.17,589.45,282.86,813.26,190.04,221.89,482.86,365.25,771.75,342.4,228.28-18.05,433.88-133.3,619.31-261.61,279.75-193.57,531.48-422.84,744.16-683.78,76.58-93.91,148.3-191.66,214.66-293.85,129.24-199.74,237.67-415.99,320.17-642.78,2.59-7.12,5.16-14.26,7.7-21.4,85.95-241.58,154.34-510.05,349.7-666.57,121.41-96.66,287.26-145.6,362.78-280.76,81.14-145.45,21.22-338.48-84.75-476.4-135.93-176.92-334.59-292.75-548.26-365.01-86.67-29.29-175.8-51.38-264.27-67.3-306.24-54.85-616.75-47.71-924.32-86.09-250.14-32.01-498.61-94.35-737.97-182.88-76.09-28.17-153.12-49.63-228.9-57.5-125.8-13.06-247.84,11.38-355.91,104.11-120.46,103.33-170.63,278.82-265.34,404.71Z" style="fill:none; stroke:#fff; stroke-miterlimit:10; stroke-width:.9px;"/><path d="M-520.46-1511.08c-177.58,204.88-347.1,427.33-417.66,690.31-70.56,262.98-22.71,576.18,182.61,765.46,72.38,66.73,162.02,116.93,218.28,197.41,95.17,136.13,69.1,314.99,65.39,478.27-6.89,303.01,83.67,616.07,281.13,853.26,197.46,237.18,506.96,388.93,810.88,365.11,240.2-18.82,456.92-140.11,650.91-277.4,602.97-426.72,1067.82-1039.47,1316.45-1735.32,89.34-250.04,162.94-527.47,373.99-688.22,130.89-99.69,309.5-149.49,392.41-291.33,89.18-152.57,28.83-356.21-80.45-501.24-197.09-261.58-525.88-394.74-847.47-447.99-321.58-53.25-648.68-39.43-972.27-74.51-262.65-28.47-522.66-89.31-772.12-180.65-210.69-77.15-427.7-106.1-607.24,49.11-124.83,107.91-175.29,291.45-273.7,421.84-99.23,131.48-213.33,251.52-321.13,375.88Z" style="fill:none; stroke:#fff; stroke-miterlimit:10; stroke-width:.82px;"/></svg>