<?xml version="1.0" encoding="utf-8"?>
<!-- Generator: Adobe Illustrator 28.0.0, SVG Export Plug-In . SVG Version: 6.00 Build 0)  -->
<!DOCTYPE svg PUBLIC "-//W3C//DTD SVG 1.1//EN" "http://www.w3.org/Graphics/SVG/1.1/DTD/svg11.dtd" [
	<!ENTITY st0 "display:none;">
	<!ENTITY st1 "display:inline;">
	<!ENTITY st2 "fill:none;stroke:#FFFFFF;stroke-width:0.8249;stroke-miterlimit:10;">
	<!ENTITY st3 "fill:none;stroke:#FFFFFF;stroke-miterlimit:10;">
	<!ENTITY st4 "display:inline;opacity:0.13;">
	<!ENTITY st5 "display:none;fill:none;stroke:#FFFFFF;stroke-width:1.1007;stroke-miterlimit:10;">
	<!ENTITY st6 "fill:none;stroke:#FFFFFF;stroke-width:1.1007;stroke-miterlimit:10;">
	<!ENTITY st7 "fill:#FFFFFF;">
	<!ENTITY st8 "fill:none;stroke:#FFFFFF;stroke-width:2;stroke-miterlimit:10;">
]>
<svg version="1.1" xmlns="http://www.w3.org/2000/svg" xmlns:xlink="http://www.w3.org/1999/xlink" x="0px" y="0px"
	 viewBox="0 0 1920 1080" style="enable-background:new 0 0 1920 1080;" xml:space="preserve">
<g id="Layer_2">
	<image style="overflow:visible;" width="1920" height="1080" xlink:href="3ABCAE3B.png" >
	</image>
</g>
<g id="Layer_3" style="&st0;">
	<g style="&st1;">
		<path style="&st2;" d="M1418.9,630.1c31.3-48.6,33.7-114.7,4.8-164.8c-28.9-50.1-88.1-81.3-145.6-75.4
			c-33.8,3.5-65.4,18.5-93.4,37.7c-37.7,25.8-71.4,62-80.4,106.8c-14.3,72,35.4,130.2,88.5,170.9c40.2,30.7,76.6,32.9,122.1,10.9
			C1355,696.9,1394.4,668.1,1418.9,630.1z"/>
		<path style="&st2;" d="M1559.7,603.7c4.9-47.3,10-97.2,0.3-145.9c-9.7-48.8-31-96.2-65.6-131.7c-37.1-38-87.6-59.9-139.4-68.6
			c-51.8-8.7-105.7-4.9-158.1,8.5c-73.3,18.7-143.8,51.4-205.5,96C922,411.9,861.8,480,839.3,562.4c-23.9,87.7-1.8,177.4,52.4,246.7
			c21.5,27.4,47.6,51.3,75.1,72.2c105.1,79.5,228.6,87.7,349.7,50.2c10.8-3.3,21.6-6.7,32.4-10.5c30.6-10.6,60.1-23.2,87.2-42.9
			c42-30.4,75.5-72.2,95.1-118.4C1552.6,709.9,1554.2,656.4,1559.7,603.7z"/>
		<path style="&st2;" d="M1693.4,581.6c-1.9-69.3-4-141.5-24.4-210.1c-20.3-68.6-56.5-134.2-111.1-180.3
			c-60.1-50.8-138.8-74.5-216.8-78.5c-78-4-156.3,10.4-232.5,33.8C996,180.9,886.4,230.6,791.1,300.6
			c-101.2,74-187.5,174.2-223.8,294c-37.1,123.9-16,258.6,59.3,361.1c29.8,40.6,67.3,75.4,107.3,105.7c173,130.6,386.1,143,587.4,85
			c18.4-5.3,36.6-10.6,54.6-16.4c51.8-16.6,101.4-36.9,146.6-70.6c69.7-52,122.8-125.7,149.6-206.9
			C1701,765.2,1695.9,672.7,1693.4,581.6z"/>
		<path style="&st2;" d="M1821,561.2c-8.3-91.7-18-185.8-49-274.3c-31-88.5-82.1-172.2-156.6-229c-83.2-63.5-190-89.1-294.1-88.5
			c-104.2,0.6-207,25.8-307,59c-152,50.5-300.6,117.1-429.6,212.6c-132.9,98.1-245.5,230.3-295.5,387.7
			c-50.5,160-30.1,339.8,66.1,475.5c38.1,53.8,87,99.6,139.5,139.3c241,181.6,543.5,198.3,825.2,119.7c25.9-7.2,51.6-14.4,76.9-22.3
			c73-22.7,142.8-50.5,206-98.3c97.3-73.7,170.1-179.1,204-295.3C1843.4,822.2,1832.7,690.2,1821,561.2z"/>
		<path style="&st2;" d="M1948.2,541.4c-14.5-114.3-32.1-230.1-73.7-338.5C1833,94.5,1766.7-7.1,1672.5-74.8
			c-106.3-76-241.2-103.7-371.5-98.4c-130.3,5.3-257.6,41.3-381.4,84.3C728.4-22.1,540.5,61,377.8,181.9
			C213.2,304.1,74.3,468.4,10.6,663.2c-64,196.2-44.3,421,72.9,590c46.5,67,106.7,123.8,171.8,172.8
			c308.9,232.7,701,253.6,1062.9,154.5c33.4-9.1,66.5-18.3,99.1-28.2c94.2-28.7,184.1-64.1,265.3-126.1
			c125-95.3,217.4-232.6,258.5-383.8C1985.4,879.8,1969.4,708.2,1948.2,541.4z"/>
		<path style="&st2;" d="M1762.5,1610.1c152.7-117,264.7-286,312.9-472.2c51.9-200.2,30.9-411.6-0.1-616
			c-20.7-136.9-46.1-274.4-98.3-402.7s-133.3-248-247.6-326.3c-129.3-88.7-292.4-118.3-448.9-108.4
			C1124-305.6,972.3-258.9,824.6-206C594.1-123.3,367.2-23.2,170.9,123.1S-190.7,465.7-268,698.1s-58.5,502.3,79.7,704.4
			c54.8,80.2,126.4,147.9,204,206.4c376.8,283.8,858.5,308.9,1300.7,189.3C1475.8,1754.9,1628.9,1712.4,1762.5,1610.1z"/>
	</g>
</g>
<g id="Layer_4" style="&st0;">
	<g style="&st1;">
		<path style="&st3;" d="M1056,403c-74.1,46.3-122.2,141.2-94.2,223.9c21.3,63,80.7,106.6,143.5,128.5
			c78.1,27.2,167.7,25.7,240.7-13c73.1-38.7,126.2-116.9,126-199.5C1471.7,327.5,1194.7,316.4,1056,403z"/>
		<path style="&st3;" d="M1037,326.2c-88.3,54-137.6,164.5-121,264.1c10.5,62.8,35.6,119.6,58.4,164.5c5.5,10.8,10.7,21,17.6,31.2
			c6.9,10.2,15.9,20.4,27.8,29.5c13.7,10.4,32,16.3,49.9,20.3c98.3,22.3,201.2,26.1,298.8,8.6c23.8-4.3,47.6-9.9,69.5-21.1
			c51.6-26.6,89.4-75.3,109.5-127.5c20.3-52.5,23.6-109.1,17-166.3c-5.2-45-16.3-84.7-35.8-118.1c-18.3-31.4-43.9-56.5-72.5-77.5
			c-40.1-29.5-88.4-45.2-140.8-53.2c-45.8-7-93.5-6.9-139.6-0.6C1125.7,287.2,1077.1,301.8,1037,326.2z"/>
		<path style="&st3;" d="M1018.1,249.4c-102.4,61.7-155.3,188.7-147.7,304.3c5.5,83.7,24.9,163.2,32.3,228.6
			c1.8,15.9,2.6,30.9,6.4,46.6c3.9,15.7,11.5,32.3,25.3,46.5c17.2,17.7,44,26.1,69.5,31.7c140,30.8,285.4,39.2,426.1,22.6
			c34.2-4.1,69-9.8,100.1-25.5c66.9-34,111-102.3,128.9-172.2c18-70.2,11.7-142.9-1.9-215.9c-9.7-52.2-24-100.2-48.3-141.4
			c-22.2-37.7-53.1-68.3-86.2-95.4c-47.5-38.9-104.1-59.1-166.9-71.5c-55-10.8-112.4-13.5-168.4-8.5
			C1126.9,205.1,1067.4,219.9,1018.1,249.4z"/>
		<path style="&st3;" d="M999.1,172.6C882.5,242,825,385.7,824.7,517.1c-0.3,104.6,14.2,206.8,6.1,292.7c-2,21-5.6,40.9-4.8,62.1
			c0.9,21.2,7.1,44.3,22.8,63.5c20.6,25.2,55.9,35.9,89,43c181.8,39.3,369.7,52.3,553.4,36.6c44.7-3.8,90.3-9.7,130.8-29.9
			c82.2-41.4,132.7-129.3,148.3-216.9c15.8-87.9,0.2-176.7-20.8-265.4c-14.1-59.5-31.6-115.8-60.8-164.6
			c-26.2-43.9-62.2-80-99.8-113.3c-54.7-48.3-119.7-73-193.1-89.8c-64.2-14.7-131.2-20.1-197.2-16.3
			C1128.1,122.9,1057.7,138,999.1,172.6z"/>
		<path style="&st3;" d="M980.1,95.8C849.4,172.9,786.7,333.1,779,480.5c-6.5,125.4,3.2,250.4-20,356.9c-5.8,26-13.7,50.8-15.9,77.5
			c-2.2,26.7,2.5,56.2,20.3,80.6c23.8,32.7,67.8,45.7,108.6,54.4c223.6,47.8,454,65.4,680.7,50.5c55.1-3.6,111.6-9.6,161.4-34.4
			c97.5-48.8,154.3-156.3,167.6-261.7c13.5-105.6-11.2-210.6-39.7-315c-18.3-66.9-39.3-131.3-73.3-187.9
			c-30.1-50.2-71.3-91.8-113.5-131.2c-62-57.8-135.4-87-219.3-108.2c-73.5-18.6-150.1-26.7-226-24.2
			C1129.4,40.8,1048,56.1,980.1,95.8z"/>
		<path style="&st3;" d="M961.2,19C816.3,103.8,748,280.4,733.3,443.9c-13.2,146.2-7.5,293.9-46.1,421c-9.5,31.1-21.9,60.7-27.1,93
			c-5.2,32.2-2,68.2,17.8,97.6c27.1,40.2,79.7,55.4,128.1,65.7c265.4,56.3,538.3,78.5,808,64.5c65.6-3.4,133-9.4,192.1-38.8
			c112.8-56.2,175.9-183.3,187-306.4c11.2-123.2-22.4-244.6-58.6-364.5c-22.4-74.3-47-146.9-85.7-211.2
			c-34-56.5-80.4-103.6-127.1-149c-69.2-67.3-151.1-100.9-245.5-126.5c-82.7-22.5-169-33.3-254.7-32.1
			C1130.6-41.4,1038.2-25.9,961.2,19z"/>
		<path style="&st3;" d="M942.2-57.8c-159,92.5-233,285.4-254.6,465c-20.1,166.9-18.2,337.5-72.2,485.2
			c-13.3,36.2-30,70.7-38.2,108.4c-8.2,37.7-6.6,80.2,15.3,114.6c30.3,47.6,91.6,65.2,147.7,77.1c307.2,64.8,622.6,91.6,935.2,78.4
			c76.1-3.2,154.3-9.3,222.7-43.2c128.1-63.7,197.6-210.3,206.4-351.1c8.9-140.9-33.5-278.6-77.5-414
			c-26.5-81.7-54.7-162.4-98.2-234.5c-37.9-62.8-89.5-115.5-140.7-166.9c-76.3-77-166.8-114.8-271.6-144.9
			c-91.9-26.4-187.8-39.9-283.5-39.9C1131.8-123.5,1028.5-107.8,942.2-57.8z"/>
		<path style="&st3;" d="M923.2-134.6C750-34.4,670.2,174.8,641.9,370.6c-27.2,187.5-28.9,381-98.3,549.3
			c-17.1,41.2-38.2,80.6-49.4,123.8c-11.2,43.2-11.2,92.2,12.8,131.6c33.5,55.1,103.6,75,167.3,88.4
			c348.9,73.3,706.8,104.6,1062.5,92.4c86.5-3,175.6-9.2,253.4-47.7c143.4-71.1,219.2-237.3,225.8-395.9
			c6.6-158.6-44.6-312.7-96.4-463.6c-30.6-89.1-62.4-178-110.7-257.7c-41.8-69.1-98.6-127.3-154.4-184.8
			c-83.6-86.4-182.4-128.7-297.8-163.2c-101.1-30.2-206.7-46.4-312.3-47.8C1133.1-205.7,1018.8-189.7,923.2-134.6z"/>
		<path style="&st3;" d="M904.3-211.4C716.9-103.5,631.2,121.9,596.2,334c-34.4,208-39.6,424.6-124.5,613.5
			c-20.8,46.3-46.4,90.6-60.6,139.3c-14.2,48.7-15.8,104.2,10.3,148.7c36.7,62.6,115.5,84.8,186.8,99.8
			c390.7,81.8,791.1,117.7,1189.8,106.3c97-2.8,197-9.1,284-52.1c158.7-78.5,240.8-264.4,245.2-440.6
			c4.4-176.3-55.6-346.8-115.3-513.1c-34.7-96.6-70-193.5-123.2-281c-45.8-75.3-107.7-139.1-168-202.7
			c-90.8-95.9-198.1-142.6-324-181.5c-110.4-34.1-225.6-53-341.1-55.7C1134.3-287.8,1009.1-271.7,904.3-211.4z"/>
		<path style="&st3;" d="M1267-365.9c-131.5-4.1-267.6,12.3-381.7,77.7c-201.5,115.6-293.1,357-334.8,585.5
			C508.8,525.9,500.1,765.5,399.9,975c-24.6,51.3-54.5,100.5-71.7,154.7c-17.2,54.2-20.4,116.2,7.8,165.7
			c39.9,70.1,127.4,94.6,206.4,111.1c432.5,90.3,875.4,130.8,1317.1,120.3c107.4-2.6,218.3-9,314.6-56.5
			c173.9-85.9,262.5-291.4,264.6-485.3c2.1-194-66.5-380.9-134.2-562.7c-38.7-104-77.7-209.1-135.7-304.3
			C2119,36.5,2051.9-32.8,1987-102.5c-98.1-105.4-213.8-156.6-350.1-199.9C1517.3-340.4,1392.5-362,1267-365.9z"/>
	</g>
	<g style="&st1;">
		<path style="&st3;" d="M563.6-390.3c-83.3,20.5-168.4,41.7-240.2,88.6S194.4-176.5,196.2-90.7c1.6,78,49.7,146.1,87.6,214.3
			c96.4,173.8,132.8,388,64,574.4c-44.8,121.5-130,223.6-188.6,339.2s-87.4,261.6-17.4,370.6"/>
		<path style="&st3;" d="M430.8-402.2C364.2-379.1,295-354,236.6-305.3c-58.5,48.7-105.1,126.2-100.7,210.7
			c4.1,77,48.4,145.4,82.3,214.2c3.3,6.7,6.5,13.5,9.7,20.3c25.2,54.9,44.4,113,55.7,172.1c15.9,82.5,16.7,166.6,2.6,248.9
			c-7.2,42.3-18.4,84.2-33.9,125C206.6,806,127,909.7,73.2,1025.7C19.4,1141.6-6,1285,58.9,1394.9"/>
		<path style="&st3;" d="M298-414c-50,25.7-103.2,54.6-148.4,105.2c-45.1,50.5-81.2,127.2-74,210.5c6.6,75.9,47.1,144.8,77.1,214
			c2.9,6.7,5.8,13.5,8.5,20.4c22.1,55.2,38,113.3,45.5,171.7c10.5,81.5,4.9,163-12.8,243.4c-9.1,41.3-21.3,82.4-37.1,122.7
			C110.3,792.4,36.2,897.7-12.8,1014.1C-61.9,1130.4-83.7,1271.1-24,1382"/>
		<path style="&st3;" d="M165.2-425.8c-33.4,28.4-70.7,61.1-102.5,113.4C30.9-260,5.5-184.2,15.4-102c9,74.8,45.8,144.1,71.8,213.8
			c2.5,6.8,5,13.6,7.3,20.5c18.9,55.5,31.7,113.5,35.3,171.3c5.1,80.5-6.9,159.4-28.1,237.9c-10.9,40.3-24.2,80.6-40.3,120.3
			c-47.5,117-115.9,224-160.2,340.8c-44.3,116.7-62.5,254.6-8.1,366.5"/>
		<path style="&st3;" d="M32.4-437.6c-16.8,31-38.1,67.5-56.5,121.7c-18.5,54.1-33.3,129.2-20.7,210.1C-33.3-32-0.4,37.7,21.7,107.8
			c2.2,6.8,4.2,13.7,6.2,20.6C43.8,184.2,53.3,242.2,53,299.3c-0.2,79.5-18.7,155.8-43.5,232.4C-3.2,571-17.6,610.5-34,649.7
			C-82.3,765.2-145.2,873.8-184.8,991c-39.6,117.1-54.2,252.3-5,365.2"/>
	</g>
</g>
<g id="Layer_4_copy" style="&st0;">
	<g style="&st4;">
		<path style="&st5;" d="M1147.7,344.6c-81.6,51-134.6,155.4-103.7,246.5c23.5,69.3,88.9,117.3,158,141.4
			c85.9,29.9,184.5,28.3,265-14.3c80.4-42.6,138.9-128.6,138.7-219.6C1605.2,261.5,1300.4,249.3,1147.7,344.6z"/>
		<path style="&st6;" d="M1126.8,260.1c-97.2,59.4-151.4,181-133.2,290.7c11.5,69.2,39.1,131.7,64.3,181
			c6.1,11.9,11.8,23.1,19.3,34.3c7.6,11.2,17.5,22.4,30.6,32.4c15,11.5,35.3,17.9,55,22.4c108.2,24.6,221.4,28.8,328.9,9.5
			c26.2-4.7,52.4-10.9,76.5-23.2c56.8-29.3,98.4-82.9,120.5-140.3c22.4-57.8,26-120.1,18.7-183.1c-5.7-49.5-17.9-93.2-39.4-130
			c-20.2-34.5-48.3-62.2-79.9-85.3c-44.2-32.4-97.3-49.7-155-58.5c-50.4-7.7-102.9-7.6-153.7-0.6
			C1224.4,217.1,1170.9,233.3,1126.8,260.1z"/>
		<path style="&st6;" d="M1105.9,175.6c-112.7,67.9-170.9,207.7-162.6,335c6,92.1,27.4,179.7,35.5,251.6c2,17.5,2.8,34,7,51.3
			c4.3,17.3,12.7,35.5,27.8,51.2c18.9,19.5,48.4,28.7,76.5,34.9c154.2,34,314.2,43.2,469,24.9c37.7-4.5,75.9-10.8,110.2-28.1
			c73.7-37.5,122.2-112.6,141.9-189.6c19.9-77.3,12.9-157.3-2.1-237.6c-10.7-57.5-26.4-110.3-53.2-155.6
			c-24.5-41.5-58.4-75.1-94.9-105c-52.2-42.8-114.5-65.1-183.8-78.7c-60.6-11.9-123.7-14.9-185.4-9.3
			C1225.7,126.7,1160.2,143.1,1105.9,175.6z"/>
		<path style="&st6;" d="M1085.1,91c-128.3,76.4-191.7,234.5-192,379.2c-0.3,115.1,15.6,227.7,6.8,322.2c-2.2,23.1-6.2,45-5.2,68.3
			c0.9,23.4,7.8,48.7,25.1,69.9c22.6,27.7,61.5,39.5,98,47.4c200.1,43.3,407,57.6,609.1,40.2c49.2-4.2,99.4-10.6,143.9-33
			c90.5-45.6,146-142.3,163.2-238.8c17.4-96.7,0.2-194.5-22.9-292.2c-15.5-65.5-34.8-127.4-66.9-181.2
			c-28.8-48.4-68.5-88.1-109.9-124.7c-60.2-53.2-131.8-80.4-212.6-98.9c-70.7-16.2-144.5-22.1-217.1-18
			C1227.1,36.3,1149.5,52.9,1085.1,91z"/>
		<path style="&st6;" d="M1043.3-78C883.8,15.3,808.7,209.7,792.5,389.6c-14.5,160.9-8.2,323.5-50.7,463.5
			c-10.5,34.2-24.1,66.9-29.8,102.3c-5.7,35.5-2.2,75.1,19.6,107.4c29.8,44.2,87.7,61,141.1,72.4c292.1,62,592.5,86.4,889.4,71
			c72.2-3.8,146.4-10.4,211.4-42.7c124.2-61.9,193.6-201.8,205.9-337.3c12.3-135.7-24.7-269.2-64.5-401.2
			c-24.7-81.7-51.7-161.7-94.4-232.5c-37.4-62.2-88.5-114.1-139.9-164.1c-76.2-74.1-166.3-111-270.2-139.3
			c-91-24.8-186-36.6-280.4-35.3C1229.8-144.6,1128.2-127.5,1043.3-78z"/>
		<path style="&st6;" d="M1022.4-162.6C847.4-60.8,765.9,151.6,742.2,349.3c-22.1,183.7-20,371.5-79.5,534.1
			c-14.6,39.8-33.1,77.8-42.1,119.3c-9,41.5-7.3,88.3,16.8,126.2c33.4,52.4,100.9,71.8,162.6,84.8
			c338.1,71.4,685.3,100.8,1029.5,86.3c83.7-3.5,169.8-10.3,245.1-47.6c141-70.1,217.5-231.5,227.2-386.5
			c9.8-155.1-36.9-306.7-85.3-455.8c-29.2-89.9-60.2-178.8-108.1-258.1c-41.7-69.1-98.5-127.2-154.9-183.7
			c-84-84.7-183.6-126.4-299-159.5c-101.2-29-206.8-43.9-312.1-43.9C1231.2-235,1117.5-217.7,1022.4-162.6z"/>
		<path style="&st6;" d="M1001.6-247.1C810.9-136.8,723.1,93.4,691.8,309C661.9,515.3,660,728.4,583.6,913.7
			c-18.8,45.4-42,88.7-54.4,136.3c-12.3,47.6-12.3,101.5,14,144.9c36.9,60.7,114,82.6,184.1,97.3
			c384.1,80.7,778.1,115.2,1169.6,101.7c95.2-3.3,193.3-10.1,278.9-52.5c157.8-78.2,241.3-261.3,248.5-435.8
			c7.3-174.6-49.1-344.2-106.1-510.3c-33.7-98.1-68.6-195.9-121.9-283.7c-46.1-76-108.5-140.1-169.9-203.4
			c-92-95.1-200.8-141.7-327.8-179.6c-111.3-33.3-227.5-51.1-343.8-52.6C1232.5-325.4,1106.8-307.9,1001.6-247.1z"/>
		<path style="&st6;" d="M1380-501.7c-144.7-4.5-294.6,13.5-420.2,85.6C738-289,637.1-23.2,591.2,228.4
			c-45.9,251.5-55.4,515.3-165.8,745.9c-27,56.5-60,110.6-79,170.3s-22.4,127.9,8.5,182.4c43.9,77.2,140.2,104.2,227.1,122.3
			c476.1,99.5,963.6,144,1449.8,132.4c118.2-2.8,240.3-9.9,346.3-62.2c191.5-94.5,288.9-320.7,291.2-534.2s-73.2-419.3-147.7-619.4
			c-42.6-114.5-85.6-230.1-149.3-334.9c-54.7-89.8-128.6-166.1-200-242.8c-108-116-235.3-172.3-385.4-220
			C1655.5-473.7,1518.1-497.4,1380-501.7z"/>
	</g>
	<g style="&st4;">
		<path style="&st3;" d="M563.6-390.3c-83.3,20.5-168.4,41.7-240.2,88.6S194.4-176.5,196.2-90.7c1.6,78,49.7,146.1,87.6,214.3
			c96.4,173.8,132.8,388,64,574.4c-44.8,121.5-130,223.6-188.6,339.2s-87.4,261.6-17.4,370.6"/>
		<path style="&st3;" d="M298-414c-50,25.7-103.2,54.6-148.4,105.2c-45.1,50.5-81.2,127.2-74,210.5c6.6,75.9,47.1,144.8,77.1,214
			c2.9,6.7,5.8,13.5,8.5,20.4c22.1,55.2,38,113.3,45.5,171.7c10.5,81.5,4.9,163-12.8,243.4c-9.1,41.3-21.3,82.4-37.1,122.7
			C110.3,792.4,36.2,897.7-12.8,1014.1C-61.9,1130.4-83.7,1271.1-24,1382"/>
		<path style="&st3;" d="M165.2-425.8c-33.4,28.4-70.7,61.1-102.5,113.4C30.9-260,5.5-184.2,15.4-102c9,74.8,45.8,144.1,71.8,213.8
			c2.5,6.8,5,13.6,7.3,20.5c18.9,55.5,31.7,113.5,35.3,171.3c5.1,80.5-6.9,159.4-28.1,237.9c-10.9,40.3-24.2,80.6-40.3,120.3
			c-47.5,117-115.9,224-160.2,340.8c-44.3,116.7-62.5,254.6-8.1,366.5"/>
		<path style="&st3;" d="M32.4-437.6c-16.8,31-38.1,67.5-56.5,121.7c-18.5,54.1-33.3,129.2-20.7,210.1C-33.3-32-0.4,37.7,21.7,107.8
			c2.2,6.8,4.2,13.7,6.2,20.6C43.8,184.2,53.3,242.2,53,299.3c-0.2,79.5-18.7,155.8-43.5,232.4C-3.2,571-17.6,610.5-34,649.7
			C-82.3,765.2-145.2,873.8-184.8,991c-39.6,117.1-54.2,252.3-5,365.2"/>
	</g>
</g>
<g id="Layer_1" style="&st0;">
	<g style="&st4;">
		<g>
			<path style="&st7;" d="M1282.4-365.9c161.4,0,324,40.1,470.2,116l0.8,0.4c21.1,10.9,42.8,22.2,61.8,36.2
				c21.1,15.5,36.6,32.9,47.3,53.1c24.7,46.7,38.3,103.1,51.4,157.7c5.4,22.6,10.6,44,16.5,64.7l77.2,271.5
				c21.7,76.4,44.2,155.3,50.5,236.1c9.7,122.7-19.3,250-83.7,368.1c-30.3,55.6-67.7,107.9-111.3,155.5
				c-43.2,47.2-91.3,88.6-143.2,123.3c-171.8,114.8-391.8,173.1-653.8,173.1c-17.9,0-36.1-0.3-54.3-0.8
				c-128-3.8-256.4-20-381.6-47.9c-89.8-20.1-189.5-51.3-247.8-131c-14.2-19.4-25.6-41.5-33.9-65.6c-7.8-22.8-12.9-47.5-15.2-73.5
				c-4.2-48.7,1.6-101.1,16.8-151.7c26.8-89,77.5-168.6,126.6-245.6c4.5-7,9-14.1,13.4-21.1c53.1-83.7,106.4-173.9,124.7-275.3
				c8.6-47.7,9.2-97.2,9.8-145c0.5-44.4,1.1-90.2,8-134.5c5.6-35.3,15.4-70.4,29.3-104.4c13.4-32.8,30.6-64.7,51.2-94.9
				C753-160,805.4-211.8,864.7-251.3c56.2-37.4,120.3-66.2,190.6-85.4c64.5-17.7,134.1-27.4,206.8-28.9
				C1268.8-365.8,1275.7-365.9,1282.4-365.9 M1282.4-367.9c-6.8,0-13.6,0.1-20.4,0.2c-139.4,2.9-280.6,36.2-398.5,114.7
				C745.7-174.5,653.5-47.6,630.7,97.4c-14.5,92.2-1.2,187.7-17.8,279.5c-18.1,100.3-70.6,189.6-124.4,274.5
				c-53.8,84.9-110.9,169.8-140.2,267.2c-29.3,97.3-26.6,211.7,32.5,292.6c57.9,79.2,156.1,111.1,249,131.8
				c125.6,28.1,253.6,44.1,382,48c18.1,0.5,36.2,0.8,54.4,0.8c229,0,462.2-44.6,654.9-173.4c208-139,359.5-390.1,339.1-648.7
				c-6.4-80.7-28.5-159-50.6-236.5c-25.7-90.5-51.5-181-77.2-271.5c-20.4-71.8-33.2-156.8-68.1-222.8
				c-24.2-45.9-67.4-68.1-110.7-90.5C1607.6-327.5,1445.2-367.9,1282.4-367.9L1282.4-367.9z"/>
		</g>
		<g>
			<path style="&st7;" d="M1282.7-285.6c159.9,0,315.8,38.1,450.7,110.3c39,20.8,79.4,42.4,102,85.6c22.3,42.3,34.6,93.2,46.5,142.5
				c4.9,20.2,9.5,39.2,14.8,57.8c22.8,80.2,46,162.5,69.1,244.7c19.3,68.6,39.2,139.6,44.7,212.8c8.4,110.6-17.9,225.2-75.8,331.5
				c-27.3,50-61,97.2-100.2,140c-38.8,42.5-82.2,79.9-128.9,111.2c-37.5,25.3-78.3,47.4-124.7,67.8
				c-146.4,64.1-318.4,96.6-511.5,96.6c-10.6,0-21.4-0.1-32.1-0.3c-114.4-2.1-231.3-15.9-347.6-40.9c-32.5-7-80.8-18.7-124.8-39
				c-43.7-20.2-77-45.6-101.6-77.6c-13.5-17.6-24.6-37.6-32.9-59.4c-7.9-20.7-13.4-43.1-16.3-66.8c-5.5-44.4-2.1-92.4,10-139
				c22.3-85.8,68.7-163.6,113.6-238.9c2.1-3.4,4.1-6.9,6.2-10.3c49.9-84.1,96.3-167,114.3-258c8.6-43.3,10.7-87.9,12.6-131
				c1.9-41.7,3.9-84.9,11.9-126.3c6.2-32,16.2-63.8,29.8-94.5c13.1-29.6,29.7-58.4,49.2-85.4C799.8-104.7,849-151,904.2-186
				c52.4-33.2,112-58.5,177.2-75.2c59.7-15.3,124.1-23.5,191.5-24.3C1276.2-285.6,1279.4-285.6,1282.7-285.6 M1282.7-287.6
				c-3.2,0-6.5,0-9.7,0c-128.9,1.6-259.8,30.2-369.8,99.9C793.1-118,706.3-4.2,681,127.3c-16.2,84.1-7.7,171.9-24.6,257.2
				c-18.5,93.2-66.4,177.2-114.1,257.3c-47.6,79.9-96.6,159.8-120,249.7c-23.4,90-16.7,193.7,39.5,266.9
				c54.1,70.4,143,99.1,227.6,117.4c114.5,24.6,231.1,38.8,347.9,40.9c10.7,0.2,21.4,0.3,32.1,0.3c174.6,0,352.4-26.8,512.3-96.8
				c43.2-18.9,85.2-41.2,125-67.9c187.3-125.4,323.4-351.5,305.8-584.5c-5.5-72.7-25.2-143.2-44.8-213.2
				c-22.9-81.6-45.9-163.2-69.1-244.7c-18.4-64.7-30-141.1-61.4-200.7c-22.7-43.2-62.6-64.9-102.9-86.4
				C1595.5-251.3,1438.4-287.6,1282.7-287.6L1282.7-287.6z"/>
		</g>
		<g>
			<path style="&st7;" d="M1283.8-205.4c157.7,0,306.5,36.3,430.3,104.7c34.1,18.8,72.7,40.1,94.2,81.4
				c19.9,37.8,31,83.3,41.7,127.3c4.3,17.7,8.4,34.5,13,50.8c20.2,71.4,40.8,144.7,61,217.9c16,58,34.2,123.8,38.9,189.4
				c7.1,98.3-16.5,200.2-68,294.7c-24.3,44.5-54.2,86.4-89.1,124.6c-34.5,37.8-73,71.2-114.5,99.2c-34.3,23.2-72.7,43.7-117.5,62.7
				c-141.1,59.9-308.2,90.4-510.9,93.3c-5,0.1-10.1,0.1-15.1,0.1c-89.5,0-187.1-11.1-298.3-34c-46.1-9.5-81.8-20.3-112.5-34.1
				c-39.3-17.7-69.6-40-92.5-68.1c-25.2-31-41.8-69.1-49.4-113.3c-6.8-40-5.7-83.7,3.3-126.3c17.6-83.4,59.3-158.8,99.6-231.7
				l0.8-1.4c41.5-75.5,84.3-153.5,103.1-239.3c8.4-38.6,11.9-78,15.2-116.1c3.4-39.4,7-80.1,16.1-118.8c6.8-28.8,17-57.2,30.3-84.5
				c12.9-26.5,28.8-52,47.2-76c35.9-46.6,81.9-87.4,133-117.8c48.6-29,103.7-50.9,163.7-65.1c55.1-13,114.3-19.6,176.1-19.6H1283.8
				 M1283.6-207.4c-118.4,0-238.8,24.2-340.9,85C840.5-61.5,759.1,39.1,731.2,157.2c-17.9,76-14.1,156.2-31.3,234.9
				c-18.8,86-62.3,164.7-103.7,240.2c-41.5,75-82.4,149.7-99.9,232.3c-17.4,82.6-6.8,175.7,46.5,241.3
				c50.2,61.6,129.8,87.2,206.3,102.9c98.4,20.2,198.5,34,298.8,34c5,0,10.1,0,15.1-0.1c173.5-2.4,351.4-25.4,511.7-93.4
				c40.8-17.3,80.5-37.7,117.9-62.9C1858.9,974,1979.9,773.5,1965,566c-4.6-64.7-21.8-127.5-39-189.8
				c-20.1-72.7-40.4-145.3-61-217.9c-16.3-57.6-26.9-125.5-54.8-178.5c-21.2-40.6-57.8-61.7-95.1-82.3
				c-131.3-72.6-283.1-104.9-431.3-105C1283.8-207.4,1283.7-207.4,1283.6-207.4L1283.6-207.4z"/>
		</g>
		<g>
			<path style="&st7;" d="M1282.6-45.4c7.6,0,15.3,0.1,22.9,0.3c149.2,4.4,273.7,35.9,370,93.7c29.8,17.8,60.4,38.1,78.6,73.2
				c15.1,29,23.7,63.8,32,97.3c3.2,12.7,6.1,24.8,9.5,36.6c15.2,53.8,30.2,109.1,44.8,164.3c10.8,41.1,24.3,92.3,27.4,142.6
				c4.5,74-13.6,150.5-52.3,221.3c-18.2,33.4-40.7,64.9-66.8,93.7c-25.8,28.5-54.7,53.7-85.7,75c-28.1,19.3-60.9,36-103.3,52.6
				c-68.6,26.9-142.3,48-219.1,62.7c-73.2,14-149.3,22.2-226.3,24.4c-9.6,0.3-19.4,0.4-29.2,0.4c-68,0-140.7-6.8-216.2-20.2
				c-75.8-13.4-127.4-36.8-162.4-73.4c-22.8-23.8-39.5-53.3-49.8-87.5c-9.4-31.4-13-66.3-10.2-100.9c5.2-64.2,27.5-125.1,59.3-196.8
				c5.7-12.7,11.6-25.8,17.4-38.5c24.5-53.9,49.9-109.6,65.7-167.6c7.5-27.5,12.8-55.1,18-81.8c7.3-37.9,14.3-73.7,26.7-108.3
				c16-44.4,41-85.4,74.5-121.7c32.5-35.3,71.1-64.2,114.6-86c38-19,80.4-33.4,126-42.6C1190.7-41.1,1235.7-45.4,1282.6-45.4
				 M1282.6-47.5c-90.1,0-181.1,15.8-260.8,55.7C935.3,51.5,864.5,125.9,831.7,217c-21.5,59.8-27,124.8-44.8,190.3
				c-19.5,71.7-53.8,139.9-83,205.8c-28.9,65.1-54,129.6-59.5,197.4c-5.5,68,12.6,139.8,60.5,189.9c42.1,44.1,103.5,63.4,163.5,74
				c71.5,12.7,144,20.3,216.6,20.3c9.7,0,19.5-0.1,29.2-0.4c150.9-4.3,304.8-31.8,446.1-87.3c36-14.1,71.3-30.6,103.7-52.8
				c124.7-85.5,215.2-235.7,205.7-391.8c-2.9-48.7-15.1-96-27.4-143c-14.5-54.8-29.4-109.6-44.8-164.3
				c-12.3-43.5-20.8-94.2-41.6-134.3c-18.3-35.3-48.2-55.4-79.4-74c-110.5-66.3-244.2-90.3-371-94
				C1298-47.3,1290.3-47.5,1282.6-47.5L1282.6-47.5z"/>
		</g>
		<g>
			<path style="&st7;" d="M1274.8,113.3c17,0,34.6,0.6,52.4,1.9c45,3.2,104,8.6,161,21.8c59.4,13.7,108.1,33.6,148.8,60.8
				c23.5,15.6,47.4,34.3,63,65c10.4,20.3,16.5,44.4,22.4,67.6c1.9,7.3,3.8,14.9,5.8,22c10.1,36.2,19.7,73.4,28.6,110.6
				c7.6,32,14.6,63.4,15.8,95.9c1.9,49.7-10.8,101-36.5,148.1c-24.6,44.9-59.7,84.2-101.6,113.5c-28.5,20-61,32.7-89,42.5
				c-61.2,21.4-124.4,39.2-187.8,52.7c-64.1,13.7-128.8,23.2-192.3,28.3c-19,1.5-38.7,2.3-58.6,2.3c-37.4,0-77.3-2.7-118.7-8
				c-23.6-3-45-7.9-63.8-14.5c-21.7-7.6-40.5-17.8-56-30.2c-20.7-16.7-37.7-37.5-50.5-61.7c-12.2-23.2-20.1-48.7-23.3-75.6
				c-5.7-47.7,0.4-99.1,19.1-161.8c10.4-34.9,24.3-71.1,37.8-106c8.2-21.4,16.7-43.5,24.4-65.3c3.5-10,7-20.1,10.3-29.8
				c14.1-41.4,27.5-80.4,47.8-115.6c36.1-62.4,95.7-111,167.6-137.1C1152,122.5,1210.3,113.3,1274.8,113.3 M1274.8,111.2
				c-59.6,0-119.2,7.8-173.8,27.6c-70.9,25.6-131.5,73.8-168.7,138c-25.3,43.7-39.8,93.4-58.3,145.7c-20.3,57.3-45.4,115-62.2,171.4
				c-16.5,55.2-25.5,109.5-19.2,162.6c6.5,53.3,31.5,104,74.5,138.6c33.4,26.9,77.2,39.5,120.8,45.1c39.4,5.1,79.2,8.1,118.9,8.1
				c19.6,0,39.2-0.7,58.8-2.3c128.4-10.2,258.1-38.2,380.5-81.1c31.1-10.9,62-23.5,89.5-42.7c83.3-58.4,143-158.5,139-263.4
				c-1.2-32.6-8.3-64.6-15.9-96.3c-8.8-37-18.4-74-28.6-110.7c-8.2-29.4-14.5-62.9-28.3-90c-15.3-30-38.6-49.1-63.7-65.8
				c-89.7-60-205.3-75.4-310.8-83C1309.9,111.9,1292.4,111.2,1274.8,111.2L1274.8,111.2z"/>
		</g>
		<g>
			<path style="&st7;" d="M1264.1,191.4c23.3,0,48.2,1.3,73.9,4c94,9.6,200.6,20.4,279.7,77.1c17.8,12.7,40.2,31.1,55.2,60.9
				c8.1,16.1,13,35,17.8,53.2c1.2,4.7,2.5,9.6,3.8,14.3c7.6,27.4,14.5,55.6,20.5,83.8c4.6,21.7,9.6,47,10,72.5
				c0.6,37.7-9.3,76.2-28.6,111.6c-18.5,33.9-44.9,63.6-76.2,85.9c-23.4,16.7-49.6,27-81.8,37.4c-120,38.8-236.9,65.1-347.4,77.9
				c-24.3,2.8-49.8,4.3-75.7,4.3c-21.8,0-44.6-1-67.5-3c-39.6-3.4-72.7-13.7-98.5-30.4c-39.4-25.6-68.1-65.3-80.7-111.8
				c-11.5-42.9-11.9-91.4-1-144.2c10.6-51.4,31.4-104.2,51.8-153.8c17.3-42.1,36.5-86.3,64.7-123c19.1-24.8,42.5-46.2,69.5-63.6
				c26.4-17,55.8-29.9,87.4-38.3C1177.7,196.4,1219.1,191.4,1264.1,191.4 M1264.1,189.4c-42.1,0-84,4.2-123.6,14.8
				c-63,16.8-118.9,51.8-158,102.6c-27.4,35.5-46.3,77.7-65,123.4c-20.6,50.2-41.2,102.5-51.9,154.2c-10.3,50.2-11.3,99.4,1,145.2
				c12.4,45.9,40.6,86.4,81.5,113c28.7,18.6,64,27.6,99.4,30.7c22.5,2,45.1,3,67.7,3c25.4,0,50.8-1.3,76-4.3
				c117.2-13.7,234.8-41.5,347.8-78c28.7-9.3,57.4-19.9,82.4-37.7c62.7-44.6,106.9-119.9,105.7-199.2c-0.4-24.6-4.9-48.8-10.1-72.9
				c-6-28.1-12.8-56.1-20.5-83.9c-6.2-22.3-11.4-47.3-21.7-67.9c-13.8-27.4-33.8-45.9-55.9-61.6c-79.3-56.8-185.9-67.8-280.7-77.5
				C1313.8,190.8,1288.9,189.4,1264.1,189.4L1264.1,189.4z"/>
		</g>
		<g>
			<path style="&st7;" d="M1244,267.2c31,0,65.3,2.7,104.9,8.3c10.4,1.5,21.2,2.9,31.7,4.3c38.1,5,77.5,10.1,115,19.9
				c42.4,11,76,26.5,102.8,47.4c21.5,16.6,36.5,34.7,47.5,56.8c6.1,12.4,10,26.7,13.7,40.5c0.4,1.6,0.9,3.3,1.3,4.9
				c5,18.6,9.2,37.7,12.4,56.9c2.2,13.5,4.8,31.3,4.3,49.1c-0.7,25.7-7.9,51.7-20.7,75.2c-12.5,22.9-30.1,43.1-50.8,58.2
				c-22.3,16.2-49.1,24.9-74.6,32.4c-118.2,34.6-221.2,59-314.8,74.9c-32.8,5.6-65.7,8.4-97.8,8.4c-3.8,0-7.7,0-11.4-0.1
				c-28.7-0.6-55.4-6.1-77.3-16.1c-19.2-8.7-36.6-20.7-51.5-35.5c-14.8-14.7-26.9-31.8-36-50.9c-17.9-37.7-25.2-81.5-21-126.7
				c3.9-42.3,17.8-88.1,41.3-136.3c20.7-42.6,44.1-75.5,71.3-100.5c19.7-18.1,42.5-33.1,67.8-44.3c24-10.7,50.4-18.3,78.5-22.3
				C1200.1,268.7,1221.5,267.2,1244,267.2 M1244,265.2c-21.6,0-43,1.3-63.9,4.3c-55.2,8-106.4,29.5-147.3,67.2
				c-29.6,27.2-52.7,62-71.7,101.1c-21,43-37.1,90-41.5,137c-4.2,45.1,2.9,89.4,21.2,127.7c18.4,38.6,49.2,69.5,88.5,87.3
				c23.7,10.8,50.9,15.7,78.1,16.3c3.8,0.1,7.7,0.1,11.5,0.1c32.7,0,65.7-2.9,98.1-8.4c105.9-17.9,211.5-44.7,315-74.9
				c26.3-7.7,52.8-16.3,75.3-32.7c42.2-30.8,70.8-81.3,72.4-135c0.5-16.6-1.6-33.1-4.3-49.5c-3.2-19.1-7.3-38.3-12.4-57.1
				c-4.1-15.2-8.2-31.7-15.1-45.8c-12.2-24.8-29-42.8-48-57.5c-68.9-53.6-166.5-60.1-250.5-71.9
				C1314.6,268.6,1279.1,265.2,1244,265.2L1244,265.2z"/>
		</g>
		<g>
			<path style="&st7;" d="M1213.3,336.8c50.2,0,101.3,10,146.4,18.8c16.1,3.2,32.6,5.6,50,8.3c40.9,6.2,83.2,12.5,120.3,28
				c20,8.3,36.6,18.5,50.7,31.1c16,14.2,28.4,31,38.1,51.3c11.4,24.1,15.4,53.4,10.9,80.6c-4.7,28.5-18.2,52.6-38,67.7
				c-19.8,15.2-45.1,21.6-67.4,27.3l-282.2,71.8c-30.4,7.7-64.9,16.5-98.6,16.5c-11.4,0-22.5-1-32.8-3.1
				c-35.5-7-68.9-28.5-94.1-60.6c-24.8-31.6-39.4-70.5-41.2-109.5c-1.8-38.6,7.9-78,28-113.8c9.7-17.2,21.5-33.1,35.1-47.1
				c13.8-14.2,29.1-26.3,45.5-35.9C1120.4,347.1,1162.7,336.8,1213.3,336.8 M1213.3,334.8c-45.2,0-89.5,8.1-130.2,31.8
				c-67,39.1-113.4,118-109.6,198.6s61.6,157.1,136.9,172c11,2.2,22.1,3.1,33.1,3.1c33.2,0,66.6-8.3,99.1-16.6
				c94.1-23.9,188.1-47.9,282.2-71.8c23.8-6.1,48.3-12.5,68.2-27.6c42.8-32.7,51.3-101,27.7-150.8
				c-49.3-103.9-167.4-101.6-260.6-119.8C1312.7,344.4,1262.5,334.8,1213.3,334.8L1213.3,334.8z"/>
		</g>
	</g>
	<g style="&st4;">
		<path style="&st8;" d="M154.8,1153c6.8-92.5,19.1-190.4,43.4-279.3c18.5-67.7,47.5-129.9,75.1-193.5
			c93-214.4,130-458.8,83.2-689.8"/>
		<path style="&st8;" d="M66.6,1120.7c75.7-166.4,97.8-359.4,72.5-539.9c-12.2-87.1-37.9-169.5-42.5-256
			c-6.6-122.1,0.1-257.4,0.7-386.2"/>
		<path style="&st8;" d="M-3.1,1173.6c87.2-178.7,112.9-388,77.4-583.4c-16.5-90.5-48-176.3-62.1-266.4
			C-4.6,217.3-9.4,100.1-0.9-11.8"/>
		<path style="&st8;" d="M-72.8,1176.6c98.7-191,128.3-416.8,82.2-626.8c-20.6-94-55.7-184.2-81.7-276.8S-115.5,82.7-99.2-12.1"/>
	</g>
</g>
</svg>
