<svg id="a" xmlns="http://www.w3.org/2000/svg" xmlns:xlink="http://www.w3.org/1999/xlink" viewBox="0 0 320 320.69"><defs><linearGradient id="b" x1="62.9" y1="254.28" x2="95.44" y2="220.52" gradientUnits="userSpaceOnUse"><stop offset="0" stop-color="#f0a500"/><stop offset=".29" stop-color="#d67000"/></linearGradient><linearGradient id="c" x1="-56" y1="200.33" x2="24.52" y2="200.33" gradientTransform="translate(160 16) rotate(-180) scale(1 -1)" gradientUnits="userSpaceOnUse"><stop offset=".05" stop-color="#d67000"/><stop offset=".69" stop-color="#ffd200"/></linearGradient><linearGradient id="d" x1="90.47" y1="117.04" x2="156.79" y2="88.89" gradientUnits="userSpaceOnUse"><stop offset=".12" stop-color="#d67000"/><stop offset=".89" stop-color="#ffd200"/></linearGradient></defs><path d="m208.5,59.38h0c-9.44-4.55-19.62-7.82-30.3-9.57-5.92-.98-12-1.48-18.19-1.48-20.38,0-39.52,5.47-56,15.03-25.3,14.68-44.36,38.97-52.15,67.83-2.52,9.3-3.85,19.07-3.85,29.15v130.67h56v-33.7c3.57,2.06,7.25,3.95,11.05,5.62,13.77,6.05,28.97,9.42,44.95,9.42,13.68,0,26.8-2.46,38.92-6.97.7-.25,1.39-.51,2.07-.79,41.54-16.39,71.01-56.94,71.01-104.23,0-44.4-25.97-82.83-63.5-100.95Zm-17.32,147.44c-3.56,2.4-7.41,4.4-11.49,5.94-6.12,2.31-12.76,3.57-19.68,3.57-18.39,0-34.73-8.9-44.95-22.63-6.93-9.31-11.04-20.85-11.05-33.33v-.21c0-.19,0-.49.02-.91,0-.32,0-.64.03-.95,0-.41.03-.82.05-1.22.02-.32.05-.67.07-1.05,2.2-28.88,26.39-51.7,55.83-51.7,6.37,0,12.49,1.06,18.19,3.04,21.98,7.56,37.81,28.45,37.81,52.96,0,19.35-9.87,36.43-24.83,46.49Z" style="fill:#ffd200; stroke-width:0px;"/><path d="m104,257.3v63.39h-56v-160c0,41.28,22.52,77.32,56,96.61Z" style="fill:url(#b); stroke-width:0px;"/><rect x="48" y="21" width="56" height="139.33" style="fill:#ffd200; stroke-width:0px;"/><path d="m158.92,272.32c.36,0,.72,0,1.08,0,56-.4,56-112,56-112,0,10.2-2.73,19.77-7.5,28.01-4.91,8.5-12,15.58-20.49,20.49-8.23,4.77-17.81,7.5-28.01,7.5-1.39,0-2.76-.05-4.13-.16-6.63-.48-12.95-2.12-18.73-4.71-4.27,32.02-1.36,60.17,21.78,60.86Z" style="fill:url(#c); stroke-width:0px;"/><path d="m178.19,49.82v57.56c-5.7-1.98-11.83-3.04-18.19-3.04-29.44,0-53.63,22.82-55.83,51.7-.03.37-.06.73-.07,1.05-.02.4-.04.81-.05,1.22-.02.31-.03.63-.03.95,0,.42-.02.73-.02.91V63.36c16.48-9.56,35.62-15.03,56-15.03,6.19,0,12.27.5,18.19,1.48Z" style="fill:url(#d); stroke-width:0px;"/></svg>