<?xml version="1.0" standalone="no"?>
<!DOCTYPE svg PUBLIC "-//W3C//DTD SVG 20010904//EN"
 "http://www.w3.org/TR/2001/REC-SVG-20010904/DTD/svg10.dtd">
<svg version="1.0" xmlns="http://www.w3.org/2000/svg"
 width="320.000000pt" height="320.000000pt" viewBox="0 0 320.000000 320.000000"
 preserveAspectRatio="xMidYMid meet">
<metadata>
Created by potrace 1.14, written by Peter Selinger 2001-2017
</metadata>
<g transform="translate(0.000000,320.000000) scale(0.100000,-0.100000)"
fill="#000000" stroke="none">
<path d="M0 1600 l0 -1600 240 0 240 0 2 441 3 441 40 -58 c93 -136 355 -360
483 -413 l32 -13 0 -199 0 -199 1080 0 1080 0 0 1600 0 1600 -1600 0 -1600 0
0 -1600z m1040 1181 l0 -210 83 39 c376 176 807 132 1142 -117 435 -324 574
-902 335 -1390 -171 -348 -487 -568 -886 -617 -97 -12 -131 -12 -225 0 -204
25 -338 73 -497 178 -279 184 -461 474 -501 801 -7 58 -11 346 -11 808 l0 717
280 0 280 0 0 -209z"/>
<path d="M1456 2135 c-209 -58 -375 -243 -407 -455 -48 -323 185 -613 513
-637 218 -16 438 107 533 300 111 227 74 468 -100 642 -78 78 -142 117 -243
146 -79 22 -221 24 -296 4z"/>
</g>
</svg>
