<?xml version="1.0" encoding="UTF-8"?><svg id="a" xmlns="http://www.w3.org/2000/svg" viewBox="0 0 2426.49 721.27"><defs><style>.b{fill-rule:evenodd;}</style></defs><path class="b" d="M2426.49,721.27V0h-752.12V721.27h752.12Zm-171.4-514.13c-57.94-33.29-115.9-50.56-170.15-50.56-57.94,0-106.04,18.49-143.02,55.48-38.22,35.76-57.94,80.14-57.94,135.62s19.71,98.62,56.72,135.64c39.44,34.5,86.3,51.78,143.02,51.78,60.41,0,119.59-18.49,177.54-55.5v77.69c-54.27,29.58-114.68,44.38-181.25,44.38-56.72,0-103.58-11.09-143.04-33.28-37.77-23-69.47-54.72-92.46-92.49-22.19-41.89-34.53-83.82-34.53-128.22,0-73.98,25.89-134.39,78.91-183.72,51.8-49.32,115.92-75.21,191.12-75.21,54.24,0,112.19,13.57,175.07,41.92v76.46h.01ZM1590.55,0H838.43V721.27h752.12V0h0Zm-521.55,107.26h130.7c41.92,0,73.99,4.93,97.39,16.03,23.44,12.33,40.69,27.12,51.8,45.63,12.31,19.73,18.49,41.92,18.49,67.81,0,49.31-24.67,83.84-76.46,104.81,36.99,6.16,66.57,20.96,87.55,45.61,20.95,22.19,30.83,50.56,32.05,82.6-1.22,24.67-7.39,48.08-19.71,67.82-13.58,19.73-32.07,35.77-57.96,49.32-25.89,12.33-56.72,18.49-94.94,18.49h-168.91V107.26h0Z"/><path class="b" d="M1187.36,320.57c38.21,0,65.34-7.39,81.37-20.96,16.03-16.03,24.64-34.53,24.64-57.95,0-46.85-30.8-71.52-91.23-71.52h-61.63v150.42h46.85Zm19.73,64.11h-66.57v156.57h71.52c33.28,0,60.41-2.45,77.66-7.39,16.03-8.64,27.13-18.49,34.53-29.58,7.39-12.33,12.33-25.89,12.33-40.69-1.25-14.8-4.94-28.38-13.58-40.69-7.39-13.58-19.71-23.44-36.99-29.61-16-6.15-43.14-9.84-78.9-8.61ZM752.12,0H0V721.27H752.12V0ZM229.34,605.38V107.26h130.7c41.92,0,72.75,4.93,96.17,16.03,23.42,11.09,41.92,27.12,53.02,46.85,12.32,18.49,18.49,40.69,19.73,66.57-1.23,49.31-25.89,83.84-77.68,106.03,38.22,6.17,66.57,20.96,87.55,44.38,20.96,22.19,32.06,50.56,32.06,82.6,0,25.89-6.16,49.32-19.73,67.82-13.57,20.95-32.06,36.99-56.72,49.32-25.89,12.33-57.95,18.49-96.17,18.49H229.34Z"/><path class="b" d="M362.5,170.15h-61.65v150.42h48.08c36.99,0,64.11-7.39,80.15-20.96,16.02-14.8,24.66-34.53,24.66-56.72-.01-48.09-30.83-72.75-91.24-72.75Zm4.93,214.53h-66.57v156.57h70.27c36.99,0,64.11-2.45,80.14-7.39,13.57-6.16,24.66-14.8,33.28-27.13,7.41-13.55,11.1-27.13,12.33-43.14-1.23-17.28-6.17-30.83-13.57-40.69-8.46-13.65-21.61-23.74-36.99-28.38-17.25-7.38-44.37-9.84-78.9-9.84h0Z"/></svg>