<?xml version="1.0" encoding="utf-8"?>
<!-- Generator: Adobe Illustrator 28.0.0, SVG Export Plug-In . SVG Version: 6.00 Build 0)  -->
<svg version="1.0" id="Layer_1" xmlns="http://www.w3.org/2000/svg" xmlns:xlink="http://www.w3.org/1999/xlink" x="0px" y="0px"
	 viewBox="0 0 328.7 171" style="enable-background:new 0 0 328.7 171;" xml:space="preserve">
<style type="text/css">
	.st0{fill:#FFFFFF;}
	.st1{fill:#6BB540;}
</style>
<g>
	<g>
		<polygon class="st0" points="0,0.5 0,56.5 38.1,56.5 38.1,44.3 13.8,44.3 13.8,34.4 34.6,34.4 34.6,22.1 13.8,22.1 13.8,12.8 
			38.1,12.8 38.1,0.5 		"/>
		<path class="st0" d="M65.9,21.7l-5,15h9.8L65.9,21.7z M76.9,56.5l-2.6-8.3H57l-2.8,8.3H39.9L60.2,0.5h10.6l20.4,56.1H76.9z"/>
		<path class="st0" d="M110.6,57c-8.6,0-15.6-1.6-21.3-7.4l8.8-8.8c2.9,2.9,8,3.9,12.5,3.9c5.4,0,8-1.8,8-5c0-1.3-0.3-2.4-1.1-3.3
			c-0.7-0.7-1.9-1.3-3.7-1.5l-6.8-0.9c-5-0.7-8.7-2.4-11.3-5c-2.6-2.7-3.9-6.5-3.9-11.3C92,7.5,99.7,0,112.5,0
			c8,0,14.1,1.9,18.9,6.7l-8.7,8.7c-3.5-3.5-8.2-3.3-10.6-3.3c-4.8,0-6.8,2.8-6.8,5.2c0,0.7,0.2,1.7,1.1,2.6
			c0.7,0.7,1.9,1.4,3.9,1.7l6.8,0.9c5,0.7,8.7,2.3,11,4.6c3,2.9,4.2,7.1,4.2,12.3C132.2,50.8,122.4,57,110.6,57"/>
		<polygon class="st0" points="160,12.8 160,56.5 146.3,56.5 146.3,12.8 132.5,12.8 132.5,0.5 173.8,0.5 173.8,12.8 		"/>
		<path class="st0" d="M193.9,57c-8.6,0-15.6-1.6-21.3-7.4l8.8-8.8c2.9,2.9,8,3.9,12.5,3.9c5.4,0,8-1.8,8-5c0-1.3-0.3-2.4-1.1-3.3
			c-0.7-0.7-1.9-1.3-3.7-1.5l-6.8-0.9c-5-0.7-8.7-2.4-11.3-5c-2.6-2.7-3.9-6.5-3.9-11.3C175.3,7.5,183,0,195.8,0
			c8,0,14.1,1.9,18.9,6.7l-8.7,8.7c-3.5-3.5-8.2-3.3-10.6-3.3c-4.8,0-6.8,2.8-6.8,5.2c0,0.7,0.2,1.7,1.1,2.6
			c0.7,0.7,1.9,1.4,3.9,1.7l6.8,0.9c5,0.7,8.7,2.3,11,4.6c3,2.9,4.2,7.1,4.2,12.3C215.6,50.8,205.7,57,193.9,57"/>
		<rect x="220.7" y="0.5" class="st0" width="13.8" height="56.1"/>
		<path class="st0" d="M268.3,15.9c-1.3-1.9-3.2-3.2-6.6-3.2h-6.1v31.5h6.1c3.5,0,5.4-1.3,6.6-3.2c1.1-1.6,1.5-3.1,1.5-12.6
			C269.8,19.1,269.4,17.5,268.3,15.9 M277.8,51c-3.9,3.9-9.3,5.5-15.1,5.5h-20.8V0.5h20.8c5.8,0,11.3,1.7,15.1,5.5
			c6.5,6.5,5.8,13.7,5.8,22.5C283.6,37.3,284.3,44.5,277.8,51"/>
		<polygon class="st0" points="289.2,56.5 289.2,0.5 327.3,0.5 327.3,12.8 303,12.8 303,22.1 323.8,22.1 323.8,34.4 303,34.4 
			303,44.3 327.3,44.3 327.3,56.5 		"/>
	</g>
	<g>
		<polygon class="st1" points="112.2,117.8 112.2,61.7 125.9,61.7 125.9,105.5 149.5,105.5 149.5,117.8 		"/>
		<path class="st1" d="M176.6,76c-1-1.3-3-2.4-5.5-2.4c-2.5,0-4.5,1.1-5.5,2.4c-1.3,1.7-2,3.5-2,13.8s0.8,12,2,13.7
			c1,1.3,3,2.5,5.5,2.5c2.5,0,4.5-1.2,5.5-2.5c1.3-1.7,2-3.5,2-13.7S177.8,77.6,176.6,76 M186.7,111.9c-4.1,4.1-8.8,6.3-15.7,6.3
			c-6.9,0-11.6-2.2-15.7-6.3c-5.9-5.9-5.7-13.8-5.7-22.2c0-8.4-0.2-16.3,5.7-22.2c4.1-4.1,8.8-6.3,15.7-6.3c6.9,0,11.6,2.2,15.7,6.3
			c5.9,5.9,5.7,13.8,5.7,22.2C192.4,98.2,192.6,106,186.7,111.9"/>
		<path class="st1" d="M217.5,118.2c-6.5,0-11.5-2.2-15.6-6.3c-5.9-5.9-5.7-13.8-5.7-22.2c0-8.4-0.2-16.3,5.7-22.2
			c4.1-4.1,9.1-6.3,15.6-6.3c10.6,0,19.2,5.9,21.3,18.3h-14c-0.9-3.2-2.6-6-7.2-6c-2.5,0-4.4,1-5.4,2.4c-1.3,1.7-2.1,3.6-2.1,13.9
			s0.9,12.2,2.1,13.9c1,1.3,2.9,2.4,5.4,2.4c4.6,0,6.3-2.8,7.2-6h14C236.7,112.3,228.1,118.2,217.5,118.2"/>
		<polygon class="st1" points="273.3,117.8 260.4,94.8 255.7,100.2 255.7,117.8 242,117.8 242,61.7 255.7,61.7 255.7,81.5 
			271.9,61.7 288.7,61.7 269.6,84.4 289.4,117.8 		"/>
		<path class="st1" d="M307.1,118.2c-8.6,0-15.6-1.6-21.3-7.4l8.8-8.8c2.9,2.9,8,3.9,12.5,3.9c5.4,0,8-1.8,8-5
			c0-1.3-0.3-2.4-1.1-3.3c-0.7-0.7-1.9-1.3-3.7-1.5l-6.8-0.9c-5-0.7-8.7-2.4-11.3-5c-2.6-2.7-3.9-6.5-3.9-11.3
			c0-10.2,7.7-17.7,20.5-17.7c8,0,14.1,1.9,18.9,6.7l-8.7,8.7c-3.5-3.5-8.2-3.3-10.6-3.3c-4.8,0-6.8,2.8-6.8,5.2
			c0,0.7,0.2,1.7,1.1,2.6c0.7,0.7,1.9,1.4,3.9,1.7l6.8,0.9c5,0.7,8.7,2.3,11,4.6c3,2.9,4.2,7.1,4.2,12.3
			C328.7,112,318.9,118.2,307.1,118.2"/>
	</g>
	<g>
		<path class="st0" d="M118.4,164h-3.7v4.8h3.7c1.6,0,2.6-1,2.6-2.4C120.9,165,120,164,118.4,164 M118.1,157.4h-3.5v4.5h3.5
			c1.5,0,2.5-0.8,2.5-2.2C120.7,158.2,119.7,157.4,118.1,157.4 M118.6,170.9h-6.3v-15.6h6.1c2.9,0,4.7,1.6,4.7,4.3
			c0,1.7-1.1,2.9-2.1,3.3c1.2,0.5,2.3,1.6,2.3,3.6C123.3,169.3,121.3,170.9,118.6,170.9"/>
		<rect x="136" y="155.3" class="st0" width="2.4" height="15.6"/>
		<path class="st0" d="M157.5,157.4H154v4.9h3.5c1.6,0,2.7-0.9,2.7-2.4C160.2,158.3,159.1,157.4,157.5,157.4 M160.2,170.9l-3.3-6.6
			h-3v6.6h-2.4v-15.6h6c3,0,4.8,1.9,4.8,4.6c0,2.2-1.4,3.7-3.1,4.1l3.6,6.9H160.2z"/>
		<polygon class="st0" points="186.6,155.3 182.1,165 177.6,155.3 175.2,155.3 175.2,170.9 177.6,170.9 177.6,160.4 181.2,168 
			183,168 186.6,160.4 186.6,170.9 188.9,170.9 188.9,155.3 		"/>
		<rect x="202.2" y="155.3" class="st0" width="2.4" height="15.6"/>
		<polygon class="st0" points="227.2,155.3 227.2,166.2 220,155.3 217.8,155.3 217.8,170.9 220.2,170.9 220.2,159.9 227.4,170.9 
			229.6,170.9 229.6,155.3 		"/>
		<path class="st0" d="M252.2,169.2c-1.2,1.2-2.7,1.8-4.3,1.8c-1.6,0-3-0.6-4.1-1.7c-1.5-1.5-1.5-3.3-1.5-6.3c0-3,0-4.7,1.5-6.3
			c1.1-1.1,2.4-1.7,4.1-1.7c3.3,0,5.2,2.2,5.7,4.8h-2.4c-0.4-1.7-1.5-2.7-3.3-2.7c-0.9,0-1.8,0.4-2.3,1c-0.8,0.8-0.9,1.7-0.9,4.8
			c0,3.1,0.2,4,0.9,4.9c0.5,0.6,1.4,0.9,2.3,0.9c1,0,1.9-0.4,2.5-1.1c0.6-0.7,0.8-1.4,0.8-2.5v-0.9h-3.3v-2h5.7v2.4
			C253.6,166.8,253.2,168.1,252.2,169.2"/>
		<polygon class="st0" points="275,155.3 275,161.9 268.6,161.9 268.6,155.3 266.3,155.3 266.3,170.9 268.6,170.9 268.6,164 
			275,164 275,170.9 277.3,170.9 277.3,155.3 		"/>
		<path class="st0" d="M295.5,158.8l2.4,6.9H293L295.5,158.8z M294.5,155.3l-5.7,15.6h2.5l1.1-3.1h6.2l1.1,3.1h2.5l-5.7-15.6H294.5z
			"/>
		<polygon class="st0" points="324.9,155.3 320.4,165 315.9,155.3 313.5,155.3 313.5,170.9 315.9,170.9 315.9,160.4 319.6,168 
			321.3,168 324.9,160.4 324.9,170.9 327.3,170.9 327.3,155.3 		"/>
	</g>
</g>
</svg>
