<?xml version="1.0" encoding="UTF-8"?><svg xmlns="http://www.w3.org/2000/svg" xmlns:xlink="http://www.w3.org/1999/xlink" viewBox="0 0 416.48 117.66"><defs><style>.o{fill:url(#l);}.p{fill:url(#c);}.q{isolation:isolate;}.r{opacity:.2;}.s{fill:url(#m);}.t{fill:url(#f);}.u{fill:#005f9d;}.v{fill:url(#g);}.w{fill:url(#b);}.x{opacity:.3;}.x,.y{mix-blend-mode:multiply;}.a`{fill:url(#i);}.aa{fill:url(#h);}.ab{fill:url(#d);}.ac{fill:url(#e);}.ad{fill:url(#n);}.ae{fill:url(#j);}.af{fill:url(#k);}.ag{fill:#231f20;}</style><linearGradient id="b" x1="51.12" y1="19.84" x2="108.95" y2="19.84" gradientTransform="matrix(1, 0, 0, 1, 0, 0)" gradientUnits="userSpaceOnUse"><stop offset="0" stop-color="#fff"/><stop offset="1" stop-color="#000"/></linearGradient><linearGradient id="c" x1="30.32" y1="36.55" x2="111.29" y2="36.55" xlink:href="#b"/><linearGradient id="d" x1="9.29" y1="58.87" x2="97.47" y2="58.87" xlink:href="#b"/><linearGradient id="e" x1="87.82" y1="38.4" x2="76.99" y2="23.24" gradientTransform="matrix(1, 0, 0, 1, 0, 0)" gradientUnits="userSpaceOnUse"><stop offset="0" stop-color="#fff" stop-opacity="0"/><stop offset="1" stop-color="#000"/></linearGradient><linearGradient id="f" x1="92.76" y1="34.87" x2="81.93" y2="19.71" xlink:href="#e"/><linearGradient id="g" x1="71.8" y1="49.84" x2="60.97" y2="34.68" xlink:href="#e"/><linearGradient id="h" x1="80.79" y1="43.43" x2="69.96" y2="28.26" xlink:href="#e"/><linearGradient id="i" x1="50.14" y1="65.32" x2="39.31" y2="50.16" xlink:href="#e"/><linearGradient id="j" x1="55.12" y1="61.76" x2="44.29" y2="46.6" xlink:href="#e"/><linearGradient id="k" x1="39.13" y1="95.78" x2="55.97" y2="53.48" gradientTransform="matrix(1, 0, 0, 1, 0, 0)" gradientUnits="userSpaceOnUse"><stop offset="0" stop-color="#1c75bc"/><stop offset="1" stop-color="#00aeef"/></linearGradient><linearGradient id="l" x1="39.8" y1="96.05" x2="56.65" y2="53.75" xlink:href="#k"/><linearGradient id="m" x1="40.59" y1="96.37" x2="57.43" y2="54.07" xlink:href="#k"/><linearGradient id="n" x1="40.97" y1="96.52" x2="57.81" y2="54.22" xlink:href="#k"/></defs><g class="q"><g id="a"><g class="r"><path class="w" d="M108.95,39.53c-2.61-4.54-4.12-10-4.12-10,0,0-23.79,.87-53.72-29.39,0,0,4.76,26.48,57.84,39.38Z"/><path class="p" d="M41.06,1.94l-10.73,4.15s12.33,43.51,78.8,65.08c.93-12.32,2.16-17.31,2.16-17.31,0,0-37.56,7.93-70.23-51.92Z"/><path class="ab" d="M18.93,13.84c-11.14,13.41-7.95,13.24-7.95,13.24l-1.68,.1s22.54,45.58,72.25,76.72c11.33-6.86,15.93-11.51,15.93-11.51,0,0-53.13-24.33-78.55-78.55Z"/></g><g class="y"><path class="u" d="M108.95,39.53c-2.61-4.54-4.12-10-4.12-10,0,0-23.79,.87-53.72-29.39,0,0,4.76,26.48,57.84,39.38Z"/><path class="u" d="M41.06,1.94l-10.73,4.15s12.33,43.51,78.8,65.08c.93-12.32,2.16-17.31,2.16-17.31,0,0-37.56,7.93-70.23-51.92Z"/><path class="u" d="M18.93,13.84c-11.14,13.41-7.95,13.24-7.95,13.24l-1.68,.1s22.54,45.58,72.25,76.72c11.33-6.86,15.93-11.51,15.93-11.51,0,0-53.13-24.33-78.55-78.55Z"/></g><g class="x"><path class="ac" d="M72.94,22.73h.5c.25,.12,.37,.25,.25,.5,4.33,.37,8.16,2.72,12.37,3.09,1.68,.19,3.37,.41,5.07,.55-9.79-3.27-24.03-10.56-40.01-26.72,0,0,1.84,10.25,16.03,21.11,2.11-.07,4.23-.1,5.8,1.47Z"/><path class="t" d="M104.83,29.53s-5.16,.19-13.71-2.67c-1.7-.14-3.4-.35-5.07-.55-4.2-.37-8.04-2.72-12.37-3.09,.12-.25,0-.37-.25-.5h-.5c-1.57-1.57-3.69-1.54-5.8-1.47,8.61,6.59,21.76,13.4,41.81,18.28-2.61-4.54-4.12-10-4.12-10Z"/><path class="v" d="M41.06,1.94l-10.73,4.15s5.29,18.66,27.6,37.59c.06,.02,.12,.05,.18,.07,.49,.12,1.24-.25,1.73,.25,.37,.49,.87,.49,1.24,.62,3.96,1.11,8.16,.74,11.75,2.84,1.11,.62,2.47,.62,3.59,.74,2.7,.25,5.39,.33,8.07,.35-12.85-6.34-28.64-19.54-43.42-46.62Z"/><path class="aa" d="M111.29,53.86s-11.26,2.38-26.81-5.3c-2.68-.02-5.36-.11-8.07-.35-1.11-.12-2.47-.12-3.59-.74-3.59-2.1-7.79-1.73-11.75-2.84-.37-.12-.87-.12-1.24-.62-.5-.49-1.24-.12-1.73-.25-.06-.02-.12-.05-.18-.07,11.76,9.98,28.26,20.04,51.2,27.49,.93-12.32,2.16-17.31,2.16-17.31Z"/><path class="a`" d="M18.93,13.84c-11.14,13.41-7.95,13.24-7.95,13.24l-1.68,.1s9.95,20.12,31.2,42.75c2.24,.74,4.39,1.94,6.6,2.89,.49,.25,1.11,.62,1.85,.74,1.98,.37,3.34,1.98,5.2,2.72,1.48,.49,2.97,.87,4.45,1.24,2.35,.74,4.82,.74,7.17,.99,3.21,.4,6.41,.48,9.61,.62C57.77,66.71,33.68,45.32,18.93,13.84Z"/><path class="ae" d="M75.39,79.13c-3.21-.15-6.41-.22-9.61-.62-2.35-.25-4.82-.25-7.17-.99-1.48-.37-2.97-.74-4.45-1.24-1.86-.74-3.22-2.35-5.2-2.72-.74-.12-1.36-.49-1.85-.74-2.21-.95-4.37-2.14-6.6-2.89,10.74,11.44,24.36,23.52,41.05,33.97,11.33-6.86,15.93-11.51,15.93-11.51,0,0-9.35-4.28-22.09-13.26Z"/></g><path class="af" d="M7.25,57.89c-2.46-2.46-4.79-5.01-6.99-7.62-.17,1.77-.26,3.57-.26,5.39,0,30.74,24.92,55.66,55.66,55.66,16.66,0,31.61-7.32,41.81-18.92-32.43,1.77-65.45-9.73-90.22-34.5Z"/><path class="o" d="M111.29,53.86c-27.18,6.9-57.19-.28-78.46-21.54-5.62-5.62-10.25-11.85-13.9-18.47-4.38,3.85-8.15,8.37-11.14,13.41,17.53,27.41,48.23,45.58,83.18,45.58,6.2,0,12.27-.57,18.16-1.67,1.43-4.92,2.19-10.13,2.19-15.51,0-.6-.01-1.2-.03-1.8Z"/><path class="s" d="M90.97,42.69c6.3,0,12.4-.85,18.19-2.44-1.07-3.74-2.53-7.31-4.32-10.68-18.81,4.69-39.54-.32-54.24-15.02-3.84-3.84-7.02-8.09-9.54-12.61-3.75,1.02-7.34,2.42-10.73,4.15,11.48,21.77,34.33,36.6,60.64,36.6Z"/><path class="ad" d="M90.97,21.76c2.82,0,5.59-.25,8.28-.72C89.04,8.22,73.31,0,55.66,0c-1.53,0-3.04,.06-4.54,.18,8.5,12.99,23.17,21.57,39.85,21.57Z"/><g><path class="ag" d="M147.43,78.97c-2.55-2.64-4.54-5.7-5.98-9.18-1.44-3.48-2.16-7.15-2.16-11.01v-13.08c0-3.92,.74-7.62,2.2-11.11,1.47-3.48,3.45-6.51,5.93-9.08,2.48-2.57,5.41-4.61,8.77-6.14,3.36-1.52,6.94-2.28,10.73-2.28h54.89v10.95h-54.89c-2.35,0-4.57,.45-6.66,1.37-2.09,.91-3.91,2.16-5.44,3.75-1.54,1.59-2.76,3.45-3.68,5.58-.92,2.13-1.37,4.41-1.37,6.85v13.18c0,2.37,.44,4.61,1.32,6.75,.88,2.13,2.09,4,3.63,5.63,1.53,1.62,3.33,2.91,5.39,3.85,2.06,.95,4.26,1.42,6.62,1.42h44.5v-18.36h-40.58v-10.85h51.16v40.06h-54.89c-3.79,0-7.37-.74-10.73-2.23-3.37-1.49-6.29-3.52-8.77-6.08Z"/><path class="ag" d="M244.66,87.29h-10.68V17.1h67.93c2.88,0,5.62,.58,8.23,1.73,2.61,1.15,4.9,2.72,6.86,4.72,1.96,1.99,3.53,4.31,4.7,6.95,1.18,2.64,1.76,5.44,1.76,8.42s-.6,5.88-1.81,8.52c-1.21,2.64-2.83,4.95-4.85,6.95-2.03,1.99-4.38,3.55-7.06,4.67-2.68,1.12-5.46,1.67-8.33,1.67h-56.75v26.57Zm56.95-37.42c1.5,0,2.92-.29,4.26-.86,1.34-.57,2.52-1.35,3.53-2.33,1.01-.98,1.85-2.13,2.5-3.45,.65-1.32,1.01-2.75,1.08-4.31-.07-1.49-.43-2.89-1.08-4.21-.65-1.32-1.5-2.47-2.55-3.45-1.05-.98-2.25-1.76-3.63-2.33-1.37-.57-2.81-.86-4.31-.86h-56.75v21.81h56.95Z"/><path class="ag" d="M333.66,87.29v-11.16h63.22c1.24,0,2.4-.24,3.48-.71,1.08-.47,2.01-1.13,2.79-1.98,.78-.85,1.4-1.83,1.86-2.94,.46-1.12,.69-2.32,.69-3.6,0-2.57-.85-4.75-2.55-6.54-1.7-1.79-3.79-2.69-6.27-2.69h-47.05c-2.68,0-5.21-.52-7.6-1.57-2.39-1.05-4.48-2.5-6.27-4.36-1.8-1.86-3.22-4.02-4.26-6.49-1.05-2.47-1.57-5.12-1.57-7.96s.51-5.49,1.52-7.96c1.01-2.47,2.42-4.63,4.22-6.49,1.8-1.86,3.89-3.33,6.27-4.41,2.38-1.08,4.95-1.62,7.69-1.62h63.12v11.05h-63.12c-2.55,0-4.62,.9-6.22,2.69-1.6,1.79-2.5,3.94-2.7,6.44,.2,2.71,1.13,4.97,2.79,6.8,1.67,1.83,3.71,2.74,6.13,2.74h47.05c2.68,0,5.21,.54,7.6,1.62,2.39,1.08,4.46,2.54,6.22,4.36,1.76,1.82,3.17,3.97,4.21,6.44,1.04,2.47,1.57,5.09,1.57,7.86s-.51,5.51-1.52,8.01c-1.01,2.5-2.4,4.67-4.17,6.49-1.76,1.82-3.84,3.28-6.22,4.36-2.39,1.08-4.95,1.62-7.69,1.62h-63.22Z"/></g><g><path class="ag" d="M148.69,116.06l.61-.82c1.28,.97,2.75,1.48,4.32,1.48,2.45,0,4.2-1.38,4.2-4.07v-1.52c-.92,1.29-2.35,2.43-4.47,2.43-2.58,0-5.14-1.93-5.14-4.93v-.04c0-3.02,2.56-4.98,5.14-4.98,2.14,0,3.59,1.11,4.47,2.34v-2.1h1.03v8.87c0,1.52-.5,2.71-1.36,3.56-.92,.9-2.31,1.4-3.88,1.4-1.78,0-3.44-.53-4.91-1.6Zm9.19-7.46v-.04c0-2.42-2.2-3.99-4.43-3.99s-4.13,1.52-4.13,3.97v.04c0,2.37,1.93,4.01,4.13,4.01s4.43-1.6,4.43-3.99Z"/><path class="ag" d="M162.9,99.32h1.03v15.01h-1.03v-15.01Z"/><path class="ag" d="M167.24,109.13v-.04c0-2.94,2.33-5.49,5.52-5.49s5.48,2.51,5.48,5.45v.04c0,2.94-2.33,5.49-5.52,5.49s-5.48-2.51-5.48-5.45Zm9.88,0v-.04c0-2.53-1.93-4.55-4.41-4.55s-4.36,2.04-4.36,4.5v.04c0,2.53,1.93,4.55,4.41,4.55s4.36-2.04,4.36-4.5Z"/><path class="ag" d="M182.44,112.07v2.26h-1.03v-15.01h1.03v6.87c.92-1.38,2.29-2.59,4.41-2.59,2.58,0,5.2,2.04,5.2,5.45v.04c0,3.41-2.62,5.49-5.2,5.49-2.14,0-3.52-1.19-4.41-2.51Zm8.5-2.94v-.04c0-2.75-1.95-4.52-4.2-4.52s-4.36,1.83-4.36,4.5v.04c0,2.69,2.14,4.5,4.36,4.5s4.2-1.67,4.2-4.48Z"/><path class="ag" d="M194.37,111.29v-.04c0-2.18,1.91-3.41,4.68-3.41,1.49,0,2.52,.19,3.55,.45v-.45c0-2.12-1.32-3.21-3.53-3.21-1.3,0-2.37,.35-3.36,.84l-.38-.88c1.17-.54,2.33-.9,3.8-.9s2.6,.39,3.38,1.15c.71,.7,1.09,1.66,1.09,2.96v6.54h-1.01v-1.75c-.74,1.01-2.06,2-4.09,2s-4.13-1.11-4.13-3.29Zm8.25-.88v-1.19c-.9-.23-2.1-.47-3.63-.47-2.27,0-3.53,.99-3.53,2.45v.04c0,1.52,1.47,2.41,3.11,2.41,2.18,0,4.05-1.32,4.05-3.23Z"/><path class="ag" d="M207.45,99.32h1.03v15.01h-1.03v-15.01Z"/><path class="ag" d="M218.82,103.84h1.03v2.35c.92-1.38,2.29-2.59,4.41-2.59,2.58,0,5.2,2.04,5.2,5.45v.04c0,3.41-2.62,5.49-5.2,5.49-2.14,0-3.53-1.19-4.41-2.51v5.55h-1.03v-13.78Zm9.53,5.29v-.04c0-2.75-1.95-4.52-4.2-4.52s-4.36,1.83-4.36,4.5v.04c0,2.69,2.14,4.5,4.36,4.5s4.2-1.67,4.2-4.48Z"/><path class="ag" d="M232.67,103.84h1.03v2.98c.84-1.87,2.62-3.23,4.74-3.15v1.11h-.1c-2.48,0-4.64,1.83-4.64,5.24v4.3h-1.03v-10.49Z"/><path class="ag" d="M239.8,109.13v-.04c0-2.94,2.33-5.49,5.52-5.49s5.48,2.51,5.48,5.45v.04c0,2.94-2.33,5.49-5.52,5.49s-5.48-2.51-5.48-5.45Zm9.88,0v-.04c0-2.53-1.93-4.55-4.41-4.55s-4.36,2.04-4.36,4.5v.04c0,2.53,1.93,4.55,4.41,4.55s4.36-2.04,4.36-4.5Z"/><path class="ag" d="M253.23,109.13v-.04c0-2.94,2.39-5.49,5.46-5.49,2.01,0,3.27,.91,4.28,1.93l-.73,.74c-.92-.93-1.97-1.73-3.57-1.73-2.43,0-4.32,2-4.32,4.5v.04c0,2.53,1.95,4.55,4.41,4.55,1.51,0,2.69-.76,3.59-1.75l.71,.62c-1.09,1.21-2.39,2.08-4.36,2.08-3.08,0-5.46-2.51-5.46-5.45Z"/><path class="ag" d="M264.9,109.11v-.04c0-3.04,2.18-5.47,5.08-5.47s4.91,2.39,4.91,5.49c0,.18,0,.25-.02,.41h-8.88c.19,2.61,2.1,4.13,4.2,4.13,1.66,0,2.79-.72,3.67-1.65l.71,.62c-1.09,1.15-2.37,1.97-4.43,1.97-2.81,0-5.25-2.2-5.25-5.47Zm8.88-.51c-.15-2.12-1.38-4.07-3.84-4.07-2.12,0-3.76,1.75-3.94,4.07h7.78Z"/><path class="ag" d="M276.97,113.02l.61-.8c1.17,.89,2.48,1.38,3.84,1.38,1.45,0,2.58-.78,2.58-1.99v-.04c0-1.23-1.34-1.69-2.83-2.1-1.74-.49-3.67-1.01-3.67-2.88v-.04c0-1.69,1.45-2.9,3.53-2.9,1.28,0,2.73,.45,3.8,1.15l-.54,.84c-.99-.64-2.16-1.05-3.29-1.05-1.47,0-2.43,.78-2.43,1.83v.04c0,1.17,1.45,1.6,2.98,2.04,1.72,.47,3.52,1.09,3.52,2.94v.04c0,1.87-1.64,3.06-3.69,3.06-1.55,0-3.25-.62-4.39-1.52Z"/><path class="ag" d="M287.19,113.02l.61-.8c1.18,.89,2.48,1.38,3.84,1.38,1.45,0,2.58-.78,2.58-1.99v-.04c0-1.23-1.34-1.69-2.83-2.1-1.74-.49-3.67-1.01-3.67-2.88v-.04c0-1.69,1.45-2.9,3.52-2.9,1.28,0,2.73,.45,3.8,1.15l-.55,.84c-.99-.64-2.16-1.05-3.29-1.05-1.47,0-2.43,.78-2.43,1.83v.04c0,1.17,1.45,1.6,2.98,2.04,1.72,.47,3.52,1.09,3.52,2.94v.04c0,1.87-1.64,3.06-3.69,3.06-1.55,0-3.25-.62-4.38-1.52Z"/><path class="ag" d="M298.56,99.73h1.28v1.38h-1.28v-1.38Zm.13,4.11h1.03v10.49h-1.03v-10.49Z"/><path class="ag" d="M303.76,103.84h1.03v1.96c.71-1.23,1.91-2.2,3.86-2.2,2.71,0,4.28,1.81,4.28,4.32v6.42h-1.03v-6.23c0-2.16-1.24-3.58-3.4-3.58s-3.71,1.56-3.71,3.74v6.07h-1.03v-10.49Z"/><path class="ag" d="M316.42,116.06l.61-.82c1.28,.97,2.75,1.48,4.32,1.48,2.45,0,4.2-1.38,4.2-4.07v-1.52c-.92,1.29-2.35,2.43-4.47,2.43-2.58,0-5.14-1.93-5.14-4.93v-.04c0-3.02,2.56-4.98,5.14-4.98,2.14,0,3.59,1.11,4.47,2.34v-2.1h1.03v8.87c0,1.52-.5,2.71-1.36,3.56-.92,.9-2.31,1.4-3.88,1.4-1.78,0-3.44-.53-4.91-1.6Zm9.19-7.46v-.04c0-2.42-2.2-3.99-4.43-3.99s-4.13,1.52-4.13,3.97v.04c0,2.37,1.93,4.01,4.13,4.01s4.43-1.6,4.43-3.99Z"/><path class="ag" d="M335.85,113.02l.61-.8c1.18,.89,2.48,1.38,3.84,1.38,1.45,0,2.58-.78,2.58-1.99v-.04c0-1.23-1.34-1.69-2.83-2.1-1.74-.49-3.67-1.01-3.67-2.88v-.04c0-1.69,1.45-2.9,3.52-2.9,1.28,0,2.73,.45,3.8,1.15l-.54,.84c-.99-.64-2.16-1.05-3.29-1.05-1.47,0-2.43,.78-2.43,1.83v.04c0,1.17,1.45,1.6,2.98,2.04,1.72,.47,3.53,1.09,3.53,2.94v.04c0,1.87-1.64,3.06-3.69,3.06-1.55,0-3.25-.62-4.39-1.52Z"/><path class="ag" d="M346.46,109.11v-.04c0-3.04,2.18-5.47,5.08-5.47s4.91,2.39,4.91,5.49c0,.18,0,.25-.02,.41h-8.88c.19,2.61,2.1,4.13,4.2,4.13,1.66,0,2.79-.72,3.67-1.65l.71,.62c-1.09,1.15-2.37,1.97-4.43,1.97-2.81,0-5.25-2.2-5.25-5.47Zm8.88-.51c-.15-2.12-1.39-4.07-3.84-4.07-2.12,0-3.76,1.75-3.94,4.07h7.79Z"/><path class="ag" d="M359.45,103.84h1.03v2.98c.84-1.87,2.62-3.23,4.74-3.15v1.11h-.11c-2.48,0-4.64,1.83-4.64,5.24v4.3h-1.03v-10.49Z"/><path class="ag" d="M366.75,103.84h1.2l4.05,9.36,4.09-9.36h1.15l-4.81,10.57h-.88l-4.8-10.57Z"/><path class="ag" d="M380.08,99.73h1.28v1.38h-1.28v-1.38Zm.13,4.11h1.03v10.49h-1.03v-10.49Z"/><path class="ag" d="M384.55,109.13v-.04c0-2.94,2.39-5.49,5.46-5.49,2.02,0,3.27,.91,4.28,1.93l-.73,.74c-.92-.93-1.97-1.73-3.57-1.73-2.43,0-4.32,2-4.32,4.5v.04c0,2.53,1.95,4.55,4.41,4.55,1.51,0,2.69-.76,3.59-1.75l.71,.62c-1.09,1.21-2.39,2.08-4.37,2.08-3.08,0-5.46-2.51-5.46-5.45Z"/><path class="ag" d="M396.22,109.11v-.04c0-3.04,2.18-5.47,5.08-5.47s4.91,2.39,4.91,5.49c0,.18,0,.25-.02,.41h-8.88c.19,2.61,2.1,4.13,4.2,4.13,1.66,0,2.79-.72,3.67-1.65l.71,.62c-1.09,1.15-2.37,1.97-4.43,1.97-2.81,0-5.25-2.2-5.25-5.47Zm8.88-.51c-.15-2.12-1.39-4.07-3.84-4.07-2.12,0-3.76,1.75-3.95,4.07h7.79Z"/><path class="ag" d="M408.28,113.02l.61-.8c1.18,.89,2.48,1.38,3.84,1.38,1.45,0,2.58-.78,2.58-1.99v-.04c0-1.23-1.34-1.69-2.83-2.1-1.74-.49-3.67-1.01-3.67-2.88v-.04c0-1.69,1.45-2.9,3.52-2.9,1.28,0,2.73,.45,3.8,1.15l-.55,.84c-.99-.64-2.16-1.05-3.29-1.05-1.47,0-2.43,.78-2.43,1.83v.04c0,1.17,1.45,1.6,2.98,2.04,1.72,.47,3.52,1.09,3.52,2.94v.04c0,1.87-1.64,3.06-3.69,3.06-1.55,0-3.25-.62-4.39-1.52Z"/></g></g></g></svg>