<?xml version="1.0" encoding="utf-8"?>
<!-- Generator: Adobe Illustrator 15.0.2, SVG Export Plug-In . SVG Version: 6.00 Build 0)  -->
<!DOCTYPE svg PUBLIC "-//W3C//DTD SVG 1.1//EN" "http://www.w3.org/Graphics/SVG/1.1/DTD/svg11.dtd">
<svg version="1.1" xmlns="http://www.w3.org/2000/svg" xmlns:xlink="http://www.w3.org/1999/xlink" x="0px" y="0px" width="780px"
	 height="180px" viewBox="0 0 780 180" style="enable-background:new 0 0 780 180;" xml:space="preserve">
<style type="text/css">
<![CDATA[
	.st0{fill:#231F20;}
	.st1{fill:url(#SVGID_1_);}
]]>
</style>
<g id="Layer_1">
</g>
<g id="K_logo">
	<linearGradient id="SVGID_1_" gradientUnits="userSpaceOnUse" x1="26.1362305" y1="153.8652344" x2="153.355896" y2="26.6455631">
		<stop  offset="0" style="stop-color:#FF0000"/>
		<stop  offset="1" style="stop-color:#FF00D2"/>
	</linearGradient>
	<path class="st1" d="M61.3115234,49.9150391c0-1.6972656,0.3920898-2.0888672,2.0893555-2.0888672h0.652832
		c1.6967773,0,2.0893555,0.3916016,2.0893555,2.0888672v80.6904297c0,1.6962891-0.3925781,2.0888672-2.0893555,2.0888672h-0.652832
		c-1.6972656,0-2.0893555-0.3925781-2.0893555-2.0888672V49.9150391z M114.7421875,49.9150391
		c1.4360352-1.6972656,2.3496094-2.0888672,4.5693359-2.0888672h0.6533203c2.21875,0,2.3505859,0.3916016,0.9140625,2.0888672
		L93.7207031,81.2509766c-3.0029297,3.5253906-4.1782227,5.3535156-4.1782227,7.050293
		c0,1.6972656,1.175293,3.6557617,4.1782227,7.1811523l29.769043,35.1230469
		c1.4365234,1.6962891,1.3056641,2.0888672-0.9140625,2.0888672h-0.652832c-2.2192383,0-3.1333008-0.3925781-4.5698242-2.0888672
		l-25.8520508-30.2919922c-4.4389648-5.2226563-6.6591797-8.0947266-6.6591797-12.012207
		c0-3.7861328,2.2202148-6.6582031,6.6591797-11.7504883L114.7421875,49.9150391z M90,180
		c-49.6264648,0-90-40.3740234-90-90.0004883C0,40.3735352,40.3735352,0,90,0c49.6259766,0,90,40.3735352,90,89.9995117
		C180,139.6259766,139.6259766,180,90,180z M90,4.7646484c-46.9985352,0-85.2348633,38.2363281-85.2348633,85.2348633
		S43.0014648,175.234375,90,175.234375s85.2348633-38.2363281,85.2348633-85.2348633S136.9985352,4.7646484,90,4.7646484z"/>
</g>
<g id="K_Wearables_Normal">
	<path class="st0" d="M222.3686523,121.3417969C223.5439453,128,226.4165039,129.4375,230.2041016,129.4375
		c3.7866211,0,6.3984375-1.4375,7.5727539-8.0957031l11.4912109-62.4169922
		c1.4365234-7.7045898,3.65625-11.0996094,9.4023438-11.0996094c5.7441406,0,7.9643555,3.3950195,9.4003906,11.0996094
		L279.5625,121.3417969C280.737793,128,283.3486328,129.4375,287.1362305,129.4375
		c3.7861328,0,6.6586914-1.4375,7.8339844-8.0957031l12.6665039-71.4267578
		c0.2617188-1.6977539,0.7836914-2.0898438,2.4814453-2.0898438h0.5224609c1.6962891,0,1.9580078,0.3920898,1.6962891,2.0898438
		l-12.534668,71.1650391c-1.828125,10.0546875-6.1376953,12.6660156-12.6660156,12.6660156
		c-6.3984375,0-10.5776367-2.4804688-12.4057617-12.6660156l-11.3598633-62.2861328
		c-1.0444336-5.8759766-2.2202148-7.0512695-4.7001953-7.0512695c-2.4819336,0-3.65625,1.175293-4.7016602,7.0512695
		l-11.3603516,62.2861328c-1.828125,10.1855469-6.0058594,12.6660156-12.4042969,12.6660156
		c-6.5297852,0-10.8378906-2.6113281-12.6660156-12.6660156l-12.5356445-71.1650391
		c-0.2617188-1.6977539,0-2.0898438,1.6977539-2.0898438h0.5219727c1.6977539,0,2.2197266,0.3920898,2.4804688,2.0898438
		L222.3686523,121.3417969z M370.4467773,102.7988281H324.875v5.2236328c0,15.9296875,6.9199219,21.4150391,22.5898438,21.4150391
		c8.3579102,0,15.9301758-1.6982422,19.8481445-3.265625c1.4360352-0.5214844,1.6977539-0.2607422,1.6977539,1.1757813V128
		c0,1.4375-0.2617188,1.9599609-1.6977539,2.4814453c-4.7006836,1.6982422-11.4902344,3.2646484-19.5864258,3.2646484
		c-18.0200195,0-27.421875-7.0517578-27.421875-26.3769531V94.0498047c0-15.0161133,6.0063477-26.1152344,25.59375-26.1152344
		c15.5385742,0,25.3320313,7.8344727,25.3320313,24.5488281C371.2304688,96.4003906,370.9692383,99.9257813,370.4467773,102.7988281
		z M324.875,98.4892578h42.0458984v-6.0058594c0-14.8862305-8.487793-20.2397461-21.0224609-20.2397461
		c-12.9277344,0-21.0234375,5.3535156-21.0234375,20.2397461V98.4892578z M432.8632813,113.3759766
		c0,15.2773438-8.8798828,20.3701172-26.5078125,20.3701172c-9.6625977,0-21.8066406-4.0488281-21.8066406-18.6728516
		c0-13.1875,8.487793-18.28125,26.7685547-18.28125h16.9755859v-9.9238281c0-11.2294922-7.5742188-14.6245117-19.5859375-14.6245117
		c-7.5742188,0-13.3198242,1.0444336-16.7143555,2.0893555c-1.4375,0.3916016-1.6977539,0.1303711-1.6977539-1.3061523v-1.0444336
		c0-1.4360352,0.2602539-1.9584961,1.9580078-2.3500977c3.65625-0.9145508,8.7490234-1.6977539,16.3222656-1.6977539
		c13.8417969,0,24.2880859,4.5703125,24.2880859,18.9335938V113.3759766z M428.2929688,100.8398438h-16.5839844
		c-15.0161133,0-22.5898438,3.2636719-22.5898438,14.3642578c0,10.8378906,8.487793,14.2333984,17.2363281,14.2333984
		c14.7558594,0,21.9375-3.1337891,21.9375-16.0615234V100.8398438z M453.3623047,130.7421875
		c0,1.5673828-0.3916016,1.9599609-1.9580078,1.9599609H450.75c-1.5654297,0-1.9570313-0.3925781-1.9570313-1.9599609V89.6103516
		c0-12.6660156,4.5693359-21.6757813,18.9335938-21.6757813c3.1328125,0,5.484375,0.3916016,6.2675781,0.5224609
		c1.3066406,0.2607422,1.828125,0.5219727,1.828125,1.9580078v0.9145508c0,1.4360352-0.6533203,1.828125-1.828125,1.5668945
		c-0.5234375-0.1308594-2.8730469-0.652832-6.2675781-0.652832c-11.0996094,0-14.3642578,6.2675781-14.3642578,17.3666992
		V130.7421875z M528.8378906,113.3759766c0,15.2773438-8.8798828,20.3701172-26.5078125,20.3701172
		c-9.6630859,0-21.8066406-4.0488281-21.8066406-18.6728516c0-13.1875,8.4873047-18.28125,26.7685547-18.28125h16.9746094
		v-9.9238281c0-11.2294922-7.5732422-14.6245117-19.5869141-14.6245117c-7.5732422,0-13.3183594,1.0444336-16.7128906,2.0893555
		c-1.4375,0.3916016-1.6982422,0.1303711-1.6982422-1.3061523v-1.0444336c0-1.4360352,0.2607422-1.9584961,1.9599609-2.3500977
		c3.65625-0.9145508,8.7480469-1.6977539,16.3222656-1.6977539c13.8398438,0,24.2871094,4.5703125,24.2871094,18.9335938
		V113.3759766z M524.2666016,100.8398438h-16.5830078c-15.0166016,0-22.5898438,3.2636719-22.5898438,14.3642578
		c0,10.8378906,8.4863281,14.2333984,17.2363281,14.2333984c14.7539063,0,21.9365234-3.1337891,21.9365234-16.0615234V100.8398438z
		 M546.0722656,43.2548828c0-1.5664063,0.390625-1.9584961,1.9589844-1.9584961h0.6523438
		c1.5664063,0,1.9580078,0.3920898,1.9580078,1.9584961v35.7788086c3.1337891-6.9208984,9.7939453-11.0991211,22.1982422-11.0991211
		c20.6328125,0,26.7695313,10.5766602,26.7695313,26.2451172v13.3193359c0,15.6708984-6.1367188,26.2470703-26.7695313,26.2470703
		c-20.6298828,0-26.7675781-10.5761719-26.7675781-26.2470703V43.2548828z M550.6416016,94.1796875v13.3193359
		c0,14.3642578,4.8330078,21.9384766,22.1982422,21.9384766c17.3671875,0,22.1992188-7.5742188,22.1992188-21.9384766V94.1796875
		c0-14.3623047-4.8320313-21.9360352-22.1992188-21.9360352C555.4746094,72.2436523,550.6416016,79.8173828,550.6416016,94.1796875z
		 M616.1923828,43.2548828c0-1.5664063,0.3916016-1.9584961,1.9580078-1.9584961h0.6533203
		c1.5673828,0,1.9589844,0.3920898,1.9589844,1.9584961v74.8212891c0,8.6181641,3.3935547,10.7080078,7.3115234,10.7080078
		c0.9140625,0,1.5683594,0,2.3505859-0.1308594c1.4365234-0.2607422,2.0888672,0.1308594,2.0888672,1.5673828v0.6533203
		c0,1.4355469-0.6523438,1.828125-2.0888672,2.0878906c-0.7822266,0.1318359-1.3056641,0.1318359-2.2197266,0.1318359
		c-6.2675781,0-12.0126953-3.5263672-12.0126953-15.0175781V43.2548828z M691.7949219,102.7988281h-45.5703125v5.2236328
		c0,15.9296875,6.9199219,21.4150391,22.5898438,21.4150391c8.3574219,0,15.9306641-1.6982422,19.8476563-3.265625
		c1.4365234-0.5214844,1.6972656-0.2607422,1.6972656,1.1757813V128c0,1.4375-0.2607422,1.9599609-1.6972656,2.4814453
		c-4.7011719,1.6982422-11.4902344,3.2646484-19.5869141,3.2646484c-18.0195313,0-27.421875-7.0517578-27.421875-26.3769531
		V94.0498047c0-15.0161133,6.0078125-26.1152344,25.59375-26.1152344c15.5380859,0,25.3330078,7.8344727,25.3330078,24.5488281
		C692.5800781,96.4003906,692.3183594,99.9257813,691.7949219,102.7988281z M646.2246094,98.4892578h42.0458984v-6.0058594
		c0-14.8862305-8.4873047-20.2397461-21.0234375-20.2397461c-12.9267578,0-21.0224609,5.3535156-21.0224609,20.2397461V98.4892578z
		 M707.203125,127.7392578c0-1.4355469,0.3925781-1.6972656,1.828125-1.3056641
		c3.6582031,1.0449219,10.9707031,3.0039063,20.5019531,3.0039063c11.3613281,0,17.2363281-2.6123047,17.2363281-10.0556641
		c0-5.7451172-3.0039063-9.0097656-8.7480469-11.8828125l-18.6738281-9.2705078
		C712.5585938,94.8339844,708.25,91.1777344,708.25,82.2978516c0-10.3154297,7.4414063-14.3632813,20.6289063-14.3632813
		c7.8359375,0,12.7988281,1.3056641,17.6289063,3.1337891c1.6972656,0.652832,1.9589844,1.175293,1.9589844,2.6113281v0.7836914
		c0,1.4360352-0.390625,1.5668945-1.828125,1.0449219c-4.7011719-1.8286133-10.0546875-3.2646484-18.0195313-3.2646484
		c-10.7070313,0-15.8007813,2.6113281-15.8007813,9.9238281c0,5.3540039,2.3515625,8.8793945,8.0976563,11.7524414
		l18.671875,9.2695313c6.7890625,3.3964844,11.7519531,6.7910156,11.7519531,15.9316406
		c0,10.5761719-7.9648438,14.625-22.328125,14.625c-8.2265625,0-13.8417969-1.3066406-19.9804688-3.0039063
		c-1.4355469-0.390625-1.828125-0.9140625-1.828125-2.3496094V127.7392578z"/>
</g>
</svg>
