<?xml version="1.0" encoding="UTF-8"?><svg id="a" xmlns="http://www.w3.org/2000/svg" xmlns:xlink="http://www.w3.org/1999/xlink" viewBox="0 0 910.16 320.52"><defs><style>.f{fill:#fff;}.g{fill:url(#c);}.h{fill:url(#b);}.i{fill:url(#d);}.j{fill:url(#e);}</style><linearGradient id="b" x1="432.77" y1="84.25" x2="432.77" y2="133.18" gradientTransform="matrix(1, 0, 0, 1, 0, 0)" gradientUnits="userSpaceOnUse"><stop offset="0" stop-color="#f99e1a"/><stop offset=".25" stop-color="#f79a1a"/><stop offset=".46" stop-color="#f2901b"/><stop offset=".64" stop-color="#e97f1c"/><stop offset=".82" stop-color="#dd681e"/><stop offset=".99" stop-color="#cd4920"/><stop offset="1" stop-color="#cc4721"/></linearGradient><linearGradient id="c" x1="23.83" y1="84.21" x2="23.83" y2="144.6" xlink:href="#b"/><linearGradient id="d" x1="785.74" y1="0" x2="785.74" y2="173.62" xlink:href="#b"/><linearGradient id="e" x1="0" y1="291.92" x2="666.95" y2="291.92" xlink:href="#b"/></defs><path d="M393.59,87.3h0c0-2.23-1.83-3.86-4.06-3.86h-20.08c-2.23,0-4.06,1.62-4.06,3.86V230.12c0,2.23,1.83,4.05,4.06,4.05h20.08c2.23,0,4.06-1.83,4.06-4.05V87.3h0Z"/><path d="M79.62,86.08c1.02-1.42,2.44-1.63,4.67-1.63h23.12c2.64,0,3.86,1.02,3.86,2.44,0,1.01-.62,2.23-1.42,3.25l-51.93,67.15,52.33,73.44c.61,1.02,1.02,1.82,1.02,2.43,0,1.22-1.02,1.83-3.05,1.83h-27.18c-2.43,0-3.66-.61-4.67-2.23L29.92,163.58v67.35c0,2.23-1.83,4.06-4.06,4.06H5.78c-2.24,0-4.06-1.83-4.06-4.06v-39.5L79.62,86.08Z"/><path d="M499.95,88.11c1.01-1.83,3.04-3.86,5.28-3.86h22.1c1.83,0,3.25,1.22,3.25,2.64,0,.41-.21,.81-.41,1.21l-42.6,71.41,44.63,71.41c.41,.61,.41,1.02,.41,1.62,0,1.22-1.02,2.44-3.25,2.44h-23.94c-2.23,0-3.65-1.62-5.28-4.06l-29.81-47.88-28,47.88c-1.42,2.64-3.04,4.06-5.27,4.06h-22.11c-2.23,0-3.24-1.22-3.24-2.64,0-.4,.2-1.01,.4-1.42l87.84-142.82Z"/><path class="h" d="M439.21,133.18l-28.31-45.07c-.21-.4-.41-.81-.41-1.21,0-1.43,1.42-2.64,3.24-2.64h23.94c2.23,0,4.05,2.03,5.28,3.86l12.1,19.39-15.84,25.67Z"/><path d="M203.18,169.86l-14.6-60.25c-.61-2.43-1.22-3.24-3.24-3.24s-2.64,.81-3.25,3.24l-29.41,121.92c-.41,1.83-2.03,3.45-3.86,3.45h-21.5c-2.03,0-3.65-1.42-3.65-3.45,0-.2,.2-.61,.2-1.01l33.27-127.2c4.87-18.87,19.47-20.69,28.2-20.69s23.33,1.82,28.19,20.69l33.27,127.2c0,.4,.2,.81,.2,1.01,0,2.03-1.62,3.45-3.65,3.45h-21.5c-1.82,0-3.45-1.62-3.85-3.45l-9.33-38.54h-34.97l17.59-23.13h11.9Z"/><path d="M623.84,169.86l-14.6-60.25c-.61-2.43-1.21-3.24-3.24-3.24s-2.64,.81-3.25,3.24l-29.42,121.92c-.4,1.83-2.03,3.45-3.85,3.45h-21.5c-2.03,0-3.66-1.42-3.66-3.45,0-.2,.21-.61,.21-1.01l33.27-127.2c4.87-18.87,19.47-20.69,28.2-20.69s23.33,1.82,28.2,20.69l33.27,127.2c0,.4,.2,.81,.2,1.01,0,2.03-1.63,3.45-3.65,3.45h-21.5c-1.83,0-3.45-1.62-3.86-3.45l-9.33-38.54h-34.98l17.6-23.13h11.9Z"/><path class="g" d="M46.09,84.21H7.81c-3.45,0-6.24,2.79-6.24,6.25v54.14l44.52-60.39Z"/><path d="M341.6,233.41c-6.07,1.42-23.69,1.64-34.42,1.64-35.26,0-46.77-2.16-46.77-40.31V88.23c0-2.23,1.82-4.05,4.05-4.05h20.05c2.23,0,4.05,1.82,4.05,4.05v106.5c0,11.9,2.24,17.41,15.79,17.41h37.25c2.23,0,4.05,1.82,4.05,4.05v12.96c0,2.83-1,3.64-4.05,4.25Z"/><path class="i" d="M661.33,119.04L741.99,9.19c7.36-10.02,21.44-12.18,31.46-4.82l136.71,100.39-233.69,68.87-15.14-54.58Z"/><g><path class="f" d="M739.07,93.62c-1.5,0-3.84-.17-5.18-.24v15.2c0,.64-.47,1.16-1.11,1.16h-5.81c-.64,0-1.17-.52-1.17-1.16v-40.05c0-1.17,.7-1.58,1.86-1.75,3.04-.47,7.16-.76,11.41-.76,8.97,0,16.77,3.14,16.77,13.45v.52c0,10.3-7.8,13.62-16.77,13.62Zm8.73-14.14c0-4.89-2.91-6.76-8.73-6.76-1.22,0-4.13,.12-5.18,.23v13.85c.93,.06,4.19,.17,5.18,.17,6.29,0,8.73-2.32,8.73-6.98v-.52Z"/><path class="f" d="M777.23,83.03c-3.15,0-5.59,.81-8.03,2.09v23.4c0,.64-.52,1.22-1.17,1.22h-5.35c-.64,0-1.17-.58-1.17-1.22v-30.45c0-.63,.53-1.16,1.17-1.16h5.06c.64,0,1.17,.52,1.17,1.16v1.23c2.86-2.22,5.99-2.8,8.32-2.8,.64,0,1.16,.53,1.16,1.16v4.19c0,.64-.52,1.17-1.16,1.17Z"/><path class="f" d="M795.93,110.21c-9.14,0-13.91-6.17-13.91-14.49v-4.71c0-8.33,4.77-14.49,13.91-14.49s13.91,6.17,13.91,14.49v4.71c0,8.33-4.77,14.49-13.91,14.49Zm6.23-19.21c0-4.77-2.15-7.86-6.23-7.86s-6.22,3.08-6.22,7.86v4.71c0,4.77,2.15,7.86,6.22,7.86s6.23-3.09,6.23-7.86v-4.71Z"/></g><path class="j" d="M30.17,268.56h-11.75v38.83c0,.6-.42,1.21-1.08,1.21h-3.31c-.6,0-1.08-.54-1.08-1.21v-38.83H1.21c-.66,0-1.21-.3-1.21-.97v-2.65c0-.6,.55-1.09,1.21-1.09H30.17c.66,0,1.14,.42,1.14,1.09v2.65c0,.6-.48,.97-1.14,.97Zm24.09,40.04h-2.77c-.66,0-1.21-.54-1.21-1.21v-1.32c-2.89,1.68-5.9,2.95-9.27,2.95-5.12,0-9.81-2.23-9.81-9.76v-.72c0-6.5,3.79-9.75,14.51-9.75h4.46v-2.41c0-5.06-1.75-6.81-6.45-6.81-3.91,0-6.8,.24-9.21,.48h-.3c-.54,0-1.08-.18-1.08-.96v-2.11c0-.66,.42-1.02,1.27-1.14,2.47-.43,5.24-.79,9.33-.79,8.37,0,11.74,4.21,11.74,11.32v21.01c0,.67-.54,1.21-1.2,1.21Zm-4.09-16.02h-4.46c-7.29,0-9.21,1.63-9.21,5.9v.72c0,4.34,2.05,5.48,5.54,5.48,2.77,0,5.24-.84,8.13-2.41v-9.69Zm36.49,16.02h-4.33c-.66,0-.91-.18-1.39-.78l-11.98-14.81v14.39c0,.67-.54,1.21-1.2,1.21h-2.89c-.66,0-1.21-.54-1.21-1.21v-42.87c0-.67,.54-1.21,1.21-1.21h2.89c.66,0,1.2,.54,1.2,1.21v25.05l12.05-13.55c.36-.42,.6-.54,1.2-.54h4.22c.6,0,.9,.3,.9,.66,0,.24-.12,.48-.3,.67l-13.25,14.33,13.36,16.14c.12,.12,.18,.36,.18,.54,0,.42-.24,.78-.66,.78Zm29.15-14.87h-20.17v.84c0,7.17,2.83,9.82,8.37,9.82,3.49,0,7.95-.24,10.72-.66h.3c.48,0,.96,.24,.96,.84v2.05c0,.78-.24,1.21-1.2,1.39-3.43,.66-6.74,1.02-10.78,1.02-6.92,0-13.67-3.25-13.67-14.45v-5.42c0-8.61,4.76-14.09,13.37-14.09s13.25,5.54,13.25,14.09v3.25c0,.79-.42,1.32-1.14,1.32Zm-4.22-4.58c0-6.8-2.59-9.45-7.88-9.45s-8.07,2.95-8.07,9.45v.54h15.96v-.54Zm39.81,19.87c-1.87,0-4.7-.24-7.05-.66v10.9c0,.6-.48,1.14-1.14,1.14h-3.07c-.6,0-1.08-.48-1.08-1.14v-41.43c0-.78,.18-1.14,1.26-1.39,3.19-.78,7.41-1.38,11.08-1.38,8.97,0,13.13,5.84,13.13,14.87v4.33c0,9.45-4.34,14.75-13.13,14.75Zm7.83-19.09c0-6.32-1.86-10.42-7.83-10.42-2.53,0-5.36,.3-7.05,.6v23.84c1.99,.36,5.12,.6,7.05,.6,5.9,0,7.83-3.85,7.83-10.3v-4.33Zm34.26,18.66h-2.77c-.66,0-1.21-.54-1.21-1.21v-1.32c-2.89,1.68-5.9,2.95-9.27,2.95-5.12,0-9.81-2.23-9.81-9.76v-.72c0-6.5,3.79-9.75,14.51-9.75h4.46v-2.41c0-5.06-1.75-6.81-6.44-6.81-3.91,0-6.8,.24-9.21,.48h-.3c-.54,0-1.09-.18-1.09-.96v-2.11c0-.66,.42-1.02,1.27-1.14,2.47-.43,5.24-.79,9.33-.79,8.37,0,11.74,4.21,11.74,11.32v21.01c0,.67-.54,1.21-1.21,1.21Zm-4.09-16.02h-4.46c-7.29,0-9.21,1.63-9.21,5.9v.72c0,4.34,2.05,5.48,5.54,5.48,2.77,0,5.24-.84,8.13-2.41v-9.69Zm37.82-15.65l-9.94,34.68c-1.87,6.5-4.1,8.91-11.02,8.91-1.69,0-3.79-.24-5.06-.54-.72-.18-1.26-.36-1.26-.96v-2.23c0-.67,.48-.97,1.14-.97h.18c1.32,.12,4.03,.36,5.36,.36,3.43,0,4.94-.9,5.96-5.12l.6-2.47h-.84c-1.81,0-3.37-.42-4.46-4.16l-8.01-27.51c-.06-.12-.06-.3-.06-.42,0-.6,.36-1.02,1.08-1.02h3.31c.48,0,.9,.48,1.02,.96l7.11,26.13c.3,1.21,.72,1.32,1.15,1.32h.96l7.34-27.52c.12-.48,.6-.9,1.15-.9h3.37c.6,0,.96,.42,.96,1.02,0,.12,0,.3-.06,.42Zm45.16,31.67h-2.89c-.66,0-1.2-.54-1.2-1.21v-21.31c0-5.06-2.35-6.44-5.48-6.44-2.17,0-4.7,.72-7.05,1.63,.36,1.32,.54,2.89,.54,4.7v21.43c0,.6-.42,1.21-1.09,1.21h-3.19c-.6,0-1.02-.54-1.02-1.21v-21.43c0-5.24-1.51-6.32-4.64-6.32-2.17,0-4.82,1.08-7.34,2.35v25.41c0,.6-.42,1.21-1.09,1.21h-3.19c-.6,0-1.02-.54-1.02-1.21v-30.71c0-.66,.48-1.21,1.15-1.21h3.01c.67,0,1.15,.54,1.15,1.21v1.14c2.41-1.51,5.48-2.83,8.79-2.83,2.59,0,4.52,.72,6.02,2.47,3.31-1.56,6.86-2.47,10-2.47,5.41,0,9.75,2.71,9.75,11.08v21.31c0,.67-.54,1.21-1.21,1.21Zm33.79-14.87h-20.17v.84c0,7.17,2.83,9.82,8.37,9.82,3.49,0,7.95-.24,10.72-.66h.3c.48,0,.96,.24,.96,.84v2.05c0,.78-.24,1.21-1.21,1.39-3.43,.66-6.74,1.02-10.78,1.02-6.92,0-13.67-3.25-13.67-14.45v-5.42c0-8.61,4.76-14.09,13.37-14.09s13.25,5.54,13.25,14.09v3.25c0,.79-.42,1.32-1.14,1.32Zm-4.21-4.58c0-6.8-2.59-9.45-7.89-9.45s-8.07,2.95-8.07,9.45v.54h15.96v-.54Zm36.73,19.45h-2.89c-.66,0-1.21-.54-1.21-1.21v-19.81c0-6.08-2.05-7.95-6.62-7.95-2.53,0-5.36,.96-8.13,2.35v25.41c0,.6-.54,1.21-1.2,1.21h-2.95c-.6,0-1.14-.54-1.14-1.21v-30.71c0-.66,.48-1.21,1.14-1.21h3.01c.67,0,1.14,.54,1.14,1.21v1.14c3.31-1.86,6.02-2.77,9.57-2.77,7.23,0,10.48,4.51,10.48,12.52v19.81c0,.67-.54,1.21-1.2,1.21Zm24.69,.12c-1.21,.18-2.77,.3-3.92,.3-5.54,0-8.19-1.45-8.19-8.07v-21.02l-5.84-.66c-.66-.06-1.14-.42-1.14-1.08v-1.63c0-.66,.48-1.08,1.14-1.08h5.84v-5.9c0-.6,.42-1.08,1.08-1.2l3.13-.48h.18c.49,0,.91,.42,.91,1.02v6.56h6.5c.66,0,1.2,.54,1.2,1.21v2.05c0,.67-.54,1.21-1.2,1.21h-6.5v21.02c0,3.31,.84,3.79,3.25,3.79h3.37c.85,0,1.27,.24,1.27,.84v2.11c0,.55-.3,.9-1.08,1.02Zm16.38,.3c-2.23,0-6.56-.18-9.52-.9-.78-.18-1.26-.54-1.26-1.2v-2.11c0-.55,.49-.91,1.09-.91h.24c2.89,.36,7.29,.66,9.46,.66,3.91,0,5.96-1.02,5.96-4.27,0-1.8-1.08-2.95-4.51-5l-6.08-3.61c-3.67-2.23-6.14-4.82-6.14-8.61,0-6.26,4.7-8.01,10.9-8.01,3.37,0,6.56,.3,9.39,.79,.78,.12,1.14,.54,1.14,1.2v1.99c0,.72-.42,1.02-1.02,1.02h-.18c-2.11-.18-5.96-.48-9.33-.48s-5.6,.42-5.6,3.49c0,1.81,1.39,2.95,4.16,4.58l5.96,3.55c5,2.95,6.62,5.54,6.62,9.09,0,6.14-4.51,8.73-11.26,8.73Zm55.1-.42h-2.77c-.67,0-1.21-.54-1.21-1.21v-1.32c-2.89,1.68-5.9,2.95-9.27,2.95-5.12,0-9.81-2.23-9.81-9.76v-.72c0-6.5,3.79-9.75,14.51-9.75h4.46v-2.41c0-5.06-1.74-6.81-6.44-6.81-3.91,0-6.8,.24-9.21,.48h-.3c-.55,0-1.09-.18-1.09-.96v-2.11c0-.66,.42-1.02,1.27-1.14,2.47-.43,5.24-.79,9.33-.79,8.37,0,11.74,4.21,11.74,11.32v21.01c0,.67-.54,1.21-1.21,1.21Zm-4.09-16.02h-4.46c-7.29,0-9.21,1.63-9.21,5.9v.72c0,4.34,2.05,5.48,5.54,5.48,2.76,0,5.24-.84,8.13-2.41v-9.69Zm37.64,16.02h-2.89c-.66,0-1.2-.54-1.2-1.21v-19.81c0-6.08-2.05-7.95-6.63-7.95-2.53,0-5.35,.96-8.13,2.35v25.41c0,.6-.54,1.21-1.2,1.21h-2.95c-.6,0-1.14-.54-1.14-1.21v-30.71c0-.66,.48-1.21,1.14-1.21h3.01c.66,0,1.14,.54,1.14,1.21v1.14c3.31-1.86,6.02-2.77,9.58-2.77,7.23,0,10.48,4.51,10.48,12.52v19.81c0,.67-.55,1.21-1.21,1.21Zm33.73-31.67l-9.94,34.68c-1.87,6.5-4.09,8.91-11.02,8.91-1.68,0-3.79-.24-5.05-.54-.72-.18-1.27-.36-1.27-.96v-2.23c0-.67,.48-.97,1.14-.97h.18c1.33,.12,4.03,.36,5.36,.36,3.43,0,4.93-.9,5.96-5.12l.6-2.47h-.84c-1.81,0-3.37-.42-4.46-4.16l-8.01-27.51c-.06-.12-.06-.3-.06-.42,0-.6,.36-1.02,1.08-1.02h3.31c.48,0,.9,.48,1.02,.96l7.11,26.13c.3,1.21,.72,1.32,1.14,1.32h.96l7.35-27.52c.12-.48,.6-.9,1.14-.9h3.37c.6,0,.96,.42,.96,1.02,0,.12,0,.3-.06,.42Zm47.45,0l-5.84,27.94c-.78,3.79-1.45,4.16-5.06,4.16-3.13,0-3.97-.54-4.94-4.34l-5.24-20.47q-.12-.42-.3-.42t-.3,.42l-5.24,20.47c-.9,3.49-1.81,4.34-4.94,4.34-3.61,0-4.27-.42-5.06-4.16l-5.84-27.94v-.24c0-.6,.49-1.21,1.14-1.21h3.25c.54,0,.96,.48,1.02,.96l5,27.46c.12,.72,.3,.72,.48,.72s.36-.18,.48-.72l5.9-23.12c.36-1.32,1.14-1.8,2.41-1.8h3.37c1.27,0,2.04,.48,2.41,1.8l5.9,23.12c.12,.54,.3,.72,.48,.72s.36,0,.48-.72l5-27.46c.06-.48,.48-.96,1.02-.96h3.25c.66,0,1.14,.6,1.14,1.21v.24Zm30.54,31.67h-2.89c-.66,0-1.2-.54-1.2-1.21v-19.81c0-6.02-2.53-7.89-6.44-7.89-1.86,0-5.66,.48-8.31,1.69v26.01c0,.6-.54,1.21-1.2,1.21h-2.95c-.6,0-1.14-.54-1.14-1.21v-42.87c0-.67,.48-1.21,1.14-1.21h3.01c.66,0,1.14,.54,1.14,1.21v12.4c2.89-1.27,6.62-1.87,9.21-1.87,6.38,0,10.84,3.67,10.84,12.52v19.81c0,.67-.54,1.21-1.2,1.21Zm33.78-14.87h-20.17v.84c0,7.17,2.83,9.82,8.37,9.82,3.49,0,7.95-.24,10.72-.66h.3c.48,0,.96,.24,.96,.84v2.05c0,.78-.24,1.21-1.2,1.39-3.43,.66-6.75,1.02-10.78,1.02-6.92,0-13.67-3.25-13.67-14.45v-5.42c0-8.61,4.76-14.09,13.37-14.09s13.25,5.54,13.25,14.09v3.25c0,.79-.42,1.32-1.14,1.32Zm-4.21-4.58c0-6.8-2.59-9.45-7.89-9.45s-8.07,2.95-8.07,9.45v.54h15.96v-.54Zm26.2-9.51c-2.77,0-5.3,.72-8.31,2.53v25.23c0,.6-.54,1.21-1.2,1.21h-2.95c-.6,0-1.14-.54-1.14-1.21v-30.71c0-.66,.49-1.21,1.14-1.21h2.83c.67,0,1.14,.54,1.14,1.21v1.27c3.01-2.11,5.78-2.89,8.49-2.89,.84,0,1.26,.36,1.26,1.08v2.47c0,.66-.42,1.02-1.26,1.02Zm29.93,14.09h-20.17v.84c0,7.17,2.83,9.82,8.37,9.82,3.49,0,7.95-.24,10.72-.66h.3c.48,0,.96,.24,.96,.84v2.05c0,.78-.24,1.21-1.2,1.39-3.43,.66-6.74,1.02-10.78,1.02-6.92,0-13.67-3.25-13.67-14.45v-5.42c0-8.61,4.76-14.09,13.37-14.09s13.24,5.54,13.24,14.09v3.25c0,.79-.42,1.32-1.14,1.32Zm-4.21-4.58c0-6.8-2.59-9.45-7.89-9.45s-8.07,2.95-8.07,9.45v.54h15.96v-.54Z"/></svg>