<?xml version="1.0" encoding="UTF-8" standalone="no"?>
<svg
   xmlns:dc="http://purl.org/dc/elements/1.1/"
   xmlns:cc="http://creativecommons.org/ns#"
   xmlns:rdf="http://www.w3.org/1999/02/22-rdf-syntax-ns#"
   xmlns:svg="http://www.w3.org/2000/svg"
   xmlns="http://www.w3.org/2000/svg"
   xmlns:sodipodi="http://sodipodi.sourceforge.net/DTD/sodipodi-0.dtd"
   xmlns:inkscape="http://www.inkscape.org/namespaces/inkscape"
   version="1.1"
   id="Layer_1"
   x="0px"
   y="0px"
   width="180"
   height="142"
   viewBox="0 0 180 142"
   xml:space="preserve"
   sodipodi:docname="mc_vrt_pos--cropped.svg"
   inkscape:version="1.0.1 (3bc2e813f5, 2020-09-07)"><metadata
   id="metadata21"><rdf:RDF><cc:Work
       rdf:about=""><dc:format>image/svg+xml</dc:format><dc:type
         rdf:resource="http://purl.org/dc/dcmitype/StillImage" /><dc:title></dc:title></cc:Work></rdf:RDF></metadata><defs
   id="defs19" /><sodipodi:namedview
   pagecolor="#ffffff"
   bordercolor="#666666"
   borderopacity="1"
   objecttolerance="10"
   gridtolerance="10"
   guidetolerance="10"
   inkscape:pageopacity="0"
   inkscape:pageshadow="2"
   inkscape:window-width="2880"
   inkscape:window-height="1526"
   id="namedview17"
   showgrid="false"
   inkscape:zoom="3.4280767"
   inkscape:cx="150"
   inkscape:cy="144.83573"
   inkscape:window-x="2869"
   inkscape:window-y="-11"
   inkscape:window-maximized="1"
   inkscape:current-layer="Layer_1" />
<g
   id="g14"
   transform="scale(0.6)">
	<g
   id="g12">
		<path
   style="fill:#231f20"
   d="M 54.567,232.042 V 216.59 c 0,-5.819 -3.707,-9.732 -9.682,-9.783 -3.141,-0.053 -6.385,0.926 -8.651,4.376 -1.699,-2.729 -4.377,-4.376 -8.137,-4.376 -2.627,0 -5.201,0.772 -7.21,3.657 v -3.041 h -5.355 v 24.619 h 5.407 v -13.648 c 0,-4.275 2.369,-6.542 6.026,-6.542 3.554,0 5.355,2.319 5.355,6.489 v 13.701 h 5.408 v -13.648 c 0,-4.275 2.471,-6.542 6.025,-6.542 3.657,0 5.407,2.319 5.407,6.489 v 13.701 z m 80.031,-24.619 h -8.754 v -7.467 h -5.408 v 7.467 h -4.995 v 4.895 h 4.995 v 11.227 c 0,5.717 2.214,9.114 8.549,9.114 2.318,0 4.995,-0.722 6.695,-1.903 l -1.545,-4.585 c -1.596,0.928 -3.347,1.391 -4.738,1.391 -2.677,0 -3.552,-1.647 -3.552,-4.119 v -11.124 h 8.754 v -4.896 z m 45.679,-0.616 c -3.088,0 -5.098,1.441 -6.488,3.604 v -2.988 h -5.304 v 24.619 h 5.354 v -13.805 c 0,-4.066 1.752,-6.333 5.253,-6.333 1.082,0 2.216,0.154 3.348,0.619 l 1.647,-5.048 c -1.184,-0.461 -2.728,-0.668 -3.81,-0.668 z m -69.059,2.573 c -2.575,-1.697 -6.129,-2.573 -10.043,-2.573 -6.23,0 -10.247,2.985 -10.247,7.88 0,4.017 2.986,6.488 8.497,7.261 l 2.524,0.359 c 2.935,0.412 4.326,1.185 4.326,2.575 0,1.906 -1.958,2.988 -5.613,2.988 -3.708,0 -6.385,-1.185 -8.188,-2.575 l -2.524,4.172 c 2.936,2.16 6.645,3.191 10.661,3.191 7.106,0 11.227,-3.348 11.227,-8.033 0,-4.325 -3.244,-6.591 -8.6,-7.366 l -2.523,-0.359 c -2.318,-0.31 -4.171,-0.772 -4.171,-2.419 0,-1.804 1.75,-2.885 4.686,-2.885 3.143,0 6.181,1.185 7.674,2.112 z m 143.477,-2.573 c -3.091,0 -5.101,1.441 -6.488,3.604 v -2.988 H 242.9 v 24.619 h 5.356 v -13.805 c 0,-4.066 1.751,-6.333 5.254,-6.333 1.082,0 2.213,0.154 3.348,0.619 l 1.647,-5.048 c -1.184,-0.461 -2.728,-0.668 -3.81,-0.668 z m -69.01,12.924 c 0,7.47 5.204,12.927 13.134,12.927 3.707,0 6.179,-0.822 8.857,-2.935 l -2.575,-4.326 c -2.007,1.441 -4.12,2.213 -6.437,2.213 -4.275,-0.05 -7.416,-3.141 -7.416,-7.879 0,-4.735 3.141,-7.827 7.416,-7.88 2.316,0 4.43,0.772 6.437,2.216 l 2.575,-4.325 c -2.679,-2.113 -5.15,-2.936 -8.857,-2.936 -7.93,10e-4 -13.134,5.459 -13.134,12.925 z m 50.161,0 v -12.309 h -5.356 v 2.988 c -1.698,-2.214 -4.273,-3.604 -7.776,-3.604 -6.901,0 -12.309,5.407 -12.309,12.925 0,7.52 5.407,12.927 12.309,12.927 3.503,0 6.078,-1.391 7.776,-3.604 v 2.987 h 5.356 z m -19.931,0 c 0,-4.326 2.834,-7.88 7.469,-7.88 4.429,0 7.414,3.4 7.414,7.88 0,4.481 -2.985,7.879 -7.414,7.879 -4.635,0 -7.469,-3.553 -7.469,-7.879 z m -64.631,-12.924 c -7.211,0 -12.257,5.252 -12.257,12.925 0,7.829 5.252,12.927 12.617,12.927 3.707,0 7.107,-0.926 10.093,-3.45 l -2.626,-3.967 c -2.06,1.65 -4.685,2.576 -7.158,2.576 -3.451,0 -6.592,-1.598 -7.364,-6.026 h 18.282 c 0.051,-0.669 0.104,-1.338 0.104,-2.06 -0.053,-7.673 -4.791,-12.925 -11.691,-12.925 z m -0.103,4.789 c 3.452,0 5.665,2.162 6.231,5.973 h -12.771 c 0.566,-3.554 2.728,-5.973 6.54,-5.973 z m 134.363,8.135 v -22.194 h -5.356 v 12.874 c -1.7,-2.214 -4.275,-3.604 -7.776,-3.604 -6.901,0 -12.309,5.407 -12.309,12.925 0,7.52 5.407,12.927 12.309,12.927 3.501,0 6.076,-1.391 7.776,-3.604 v 2.987 h 5.356 z m 8.928,8.743 c 0.343,0 0.667,0.063 0.969,0.19 0.302,0.129 0.565,0.303 0.792,0.526 0.224,0.221 0.402,0.48 0.533,0.779 0.129,0.297 0.193,0.613 0.193,0.951 0,0.334 -0.064,0.651 -0.193,0.947 -0.131,0.295 -0.31,0.554 -0.533,0.775 -0.227,0.224 -0.49,0.397 -0.792,0.527 -0.302,0.131 -0.626,0.196 -0.969,0.196 -0.352,0 -0.681,-0.065 -0.988,-0.196 -0.304,-0.13 -0.57,-0.304 -0.792,-0.527 -0.227,-0.222 -0.402,-0.48 -0.533,-0.775 -0.128,-0.296 -0.193,-0.613 -0.193,-0.947 0,-0.338 0.065,-0.654 0.193,-0.951 0.131,-0.299 0.307,-0.559 0.533,-0.779 0.222,-0.224 0.488,-0.397 0.792,-0.526 0.307,-0.128 0.636,-0.19 0.988,-0.19 z m 0,4.353 c 0.265,0 0.509,-0.051 0.737,-0.148 0.229,-0.101 0.428,-0.236 0.599,-0.41 0.174,-0.171 0.307,-0.372 0.405,-0.604 0.098,-0.234 0.148,-0.48 0.148,-0.744 0,-0.265 -0.051,-0.511 -0.148,-0.745 -0.099,-0.231 -0.231,-0.433 -0.405,-0.605 -0.171,-0.172 -0.37,-0.308 -0.599,-0.405 -0.229,-0.099 -0.473,-0.146 -0.737,-0.146 -0.269,0 -0.521,0.047 -0.754,0.146 -0.234,0.098 -0.436,0.233 -0.608,0.405 -0.172,0.173 -0.308,0.374 -0.405,0.605 -0.098,0.234 -0.146,0.48 -0.146,0.745 0,0.264 0.048,0.51 0.146,0.744 0.098,0.231 0.233,0.433 0.405,0.604 0.173,0.174 0.374,0.31 0.608,0.41 0.233,0.097 0.485,0.148 0.754,0.148 z m 0.143,-3.054 c 0.292,0 0.516,0.065 0.674,0.196 0.159,0.131 0.236,0.307 0.236,0.53 0,0.187 -0.063,0.343 -0.188,0.466 -0.125,0.12 -0.304,0.196 -0.535,0.224 l 0.741,0.857 h -0.58 l -0.689,-0.853 h -0.222 v 0.853 h -0.485 v -2.273 z m -0.563,0.428 v 0.606 h 0.559 c 0.126,0 0.229,-0.025 0.305,-0.076 0.075,-0.05 0.113,-0.128 0.113,-0.231 0,-0.101 -0.038,-0.176 -0.113,-0.226 -0.076,-0.048 -0.179,-0.073 -0.305,-0.073 z m -28.439,-10.47 c 0,-4.326 2.831,-7.88 7.467,-7.88 4.429,0 7.416,3.4 7.416,7.88 0,4.481 -2.987,7.879 -7.416,7.879 -4.636,0 -7.467,-3.553 -7.467,-7.879 z m -180.866,0 v -12.309 h -5.355 v 2.988 c -1.7,-2.214 -4.275,-3.604 -7.777,-3.604 -6.9,0 -12.309,5.407 -12.309,12.925 0,7.52 5.409,12.927 12.309,12.927 3.502,0 6.077,-1.391 7.777,-3.604 v 2.987 h 5.355 z m -19.93,0 c 0,-4.326 2.832,-7.88 7.467,-7.88 4.429,0 7.416,3.4 7.416,7.88 0,4.481 -2.986,7.879 -7.416,7.879 -4.635,0 -7.467,-3.553 -7.467,-7.879 z"
   id="path2" />
		<g
   id="XMLID_23_">
			<rect
   x="109.438"
   y="19.822001"
   style="fill:#ff5f00"
   width="81.123001"
   height="145.78"
   id="rect4" />
			<path
   id="XMLID_35_"
   style="fill:#eb001b"
   d="M 114.589,92.712 C 114.589,63.137 128.436,36.798 150,19.822 134.23,7.407 114.332,0 92.704,0 41.506,0 0,41.508 0,92.712 c 0,51.203 41.506,92.71 92.704,92.71 21.627,0 41.526,-7.406 57.296,-19.82 -21.563,-16.976 -35.411,-43.316 -35.411,-72.89 z" />
			<path
   style="fill:#f79e1b"
   d="m 300,92.712 c 0,51.203 -41.505,92.71 -92.704,92.71 -21.629,0 -41.527,-7.406 -57.296,-19.82 21.563,-16.976 35.411,-43.315 35.411,-72.89 C 185.411,63.137 171.563,36.798 150,19.822 165.769,7.407 185.667,0 207.296,0 258.495,0 300,41.508 300,92.712 Z"
   id="path7" />
			<path
   style="fill:#f79e1b"
   d="m 291.155,150.16 v -2.985 h 1.202 v -0.608 h -3.063 v 0.608 h 1.202 v 2.985 z m 5.95,0 v -3.6 h -0.94 l -1.082,2.476 -1.079,-2.476 h -0.94 v 3.6 h 0.664 v -2.717 l 1.014,2.342 h 0.687 l 1.014,-2.347 v 2.722 z"
   id="path9" />
		</g>
	</g>
</g>
</svg>
