<?xml version="1.0" encoding="UTF-8"?>
<!-- Generator: Adobe Illustrator 16.0.0, SVG Export Plug-In . SVG Version: 6.00 Build 0)  -->
<!DOCTYPE svg PUBLIC "-//W3C//DTD SVG 1.1//EN" "http://www.w3.org/Graphics/SVG/1.1/DTD/svg11.dtd">
<svg version="1.1" id="Layer_1" xmlns="http://www.w3.org/2000/svg" xmlns:xlink="http://www.w3.org/1999/xlink" x="0px" y="0px" width="301px" height="98px" viewBox="0 0 301 98" enable-background="new 0 0 301 98" xml:space="preserve">
<g>
	<polyline fill="#010101" points="16.356,7.69 21.74,7.69 25.153,28.314 37.363,7.69 43.251,7.69 37.898,32.903 34.308,32.903    38.904,11.303 38.836,11.303 25.942,32.903 22.457,32.903 18.976,11.303 18.905,11.303 14.09,32.903 10.61,32.903 16.356,7.69  "/>
	<path fill="#010101" d="M56.499,24.051h-2.586c-2.549,0-6.393,0.688-6.393,4.051c0,1.625,1.406,2.491,3.018,2.491   C53.946,30.593,56.102,27.157,56.499,24.051 M48.204,14.987c1.615-0.546,3.767-0.94,5.103-0.94c3.694,0,7.249,1.446,7.249,5.85   c0,0.833-0.145,2.027-0.32,2.893c-0.688,3.43-1.439,6.859-1.906,10.113h-3.125c0.181-0.901,0.393-1.986,0.613-3.067h-0.075   c-1.149,2.198-3.52,3.499-5.96,3.499c-3.085,0-5.852-1.622-5.852-5.091c0-5.237,4.704-6.721,10.845-6.721   c0.718,0,1.612,0.077,2.44,0.109c0.074-0.357,0.176-0.753,0.176-1.187c0-2.642-1.724-3.652-4.202-3.652   c-1.976,0-4.09,0.65-5.598,1.557L48.204,14.987z"/>
	<path fill="#010101" d="M75.926,17.729c-0.935-0.469-2.407-0.937-3.662-0.937c-1.474,0-3.417,0.394-3.417,2.239   c0,3.145,6.248,3.29,6.248,8.417c0,4.444-4.054,5.887-6.927,5.887c-2.912,0-3.988-0.394-5.354-0.863l0.647-2.931   c1.329,0.546,2.731,1.052,4.205,1.052c1.831,0,3.842-0.757,3.842-2.855c0-3.143-6.251-3.612-6.251-8.275   c0-3.899,3.88-5.416,6.896-5.416c1.615,0,3.268,0.394,4.777,1.011L75.926,17.729"/>
	<path fill="#010101" d="M79.587,14.479h4.091l0.9-4.259l3.625-1.264l-1.15,5.523h5.024l-0.54,2.748H86.48l-1.687,7.912   c-0.182,0.828-0.54,2.819-0.54,3.466c0,1.3,0.714,1.989,2.439,1.989c0.722,0,1.727-0.182,2.375-0.474l-0.502,2.821   c-0.755,0.29-2.335,0.394-3.302,0.394c-3.201,0-4.384-2.127-4.384-4.077c0-1.194,0.432-3.328,0.644-4.338l1.58-7.692h-4.02   L79.587,14.479"/>
	<path fill="#010101" d="M106.01,21.924c0.07-0.543,0.108-0.978,0.108-1.413c0-2.162-1.328-3.719-3.876-3.719   c-2.767,0-4.885,2.417-5.602,5.132H106.01 M106.445,32.572c-1.761,0.439-3.599,0.762-5.422,0.762c-4.454,0-8.441-1.803-8.441-8.305   c0-5.096,3.553-10.982,10.014-10.982c4.421,0,6.895,2.674,6.895,7.044c0,1.23-0.142,2.276-0.322,3.359H96.282   c-0.078,0.4-0.108,0.759-0.108,1.156c0,3.864,2.372,4.987,5.638,4.987c1.689,0,3.517-0.438,5.17-1.123L106.445,32.572z"/>
	<path fill="#010101" d="M115.313,17.298c0.143-0.759,0.355-1.734,0.501-2.819h3.162l-0.577,2.926h0.074   c1.076-1.729,3.049-3.357,6.244-3.357c0.322,0,0.9,0.075,1.545,0.323l-0.754,3.005c-0.646-0.257-1.185-0.367-1.438-0.367   c-4.163,0-6.213,4.553-6.679,6.832l-1.898,9.063h-3.376L115.313,17.298"/>
	<path fill="#010101" d="M143.854,32.647c-1.47,0.471-3.054,0.687-4.598,0.687c-6.676,0-11.773-3.541-11.773-11.52   c0-6.177,4.234-14.556,15.042-14.556c2.012,0,4.094,0.398,5.966,1.153l-1.046,3.107c-1.508-0.65-3.159-1.081-4.849-1.081   c-7.612,0-11.307,5.633-11.307,11.553c0,5.53,3.662,8.164,8.546,8.164c1.509,0,3.084-0.29,4.482-0.863L143.854,32.647"/>
	<path fill="#010101" d="M160.266,24.051h-2.589c-2.546,0-6.392,0.688-6.392,4.051c0,1.625,1.398,2.491,3.02,2.491   C157.713,30.593,159.867,27.157,160.266,24.051 M151.97,14.987c1.613-0.546,3.768-0.94,5.098-0.94c3.701,0,7.251,1.446,7.251,5.85   c0,0.833-0.142,2.027-0.319,2.893c-0.686,3.43-1.439,6.859-1.906,10.113h-3.122c0.178-0.901,0.395-1.986,0.612-3.067h-0.072   c-1.153,2.198-3.521,3.499-5.96,3.499c-3.088,0-5.854-1.622-5.854-5.091c0-5.237,4.704-6.721,10.846-6.721   c0.714,0,1.612,0.077,2.442,0.109c0.066-0.357,0.171-0.753,0.171-1.187c0-2.642-1.721-3.652-4.201-3.652   c-1.969,0-4.088,0.65-5.595,1.557L151.97,14.987z"/>
	<path fill="#010101" d="M171.182,17.298c0.141-0.759,0.354-1.734,0.5-2.819h3.161l-0.573,2.926h0.072   c1.074-1.729,3.046-3.357,6.243-3.357c0.326,0,0.896,0.075,1.546,0.323l-0.755,3.005c-0.646-0.257-1.183-0.367-1.436-0.367   c-4.163,0-6.21,4.553-6.679,6.832l-1.903,9.063h-3.375L171.182,17.298"/>
	<path fill="#010101" d="M190.425,30.593c4.234,0,6.177-5.307,6.177-8.778c0-2.748-1.619-5.023-4.563-5.023   c-3.981,0-6.07,5.094-6.07,8.562C185.969,28.279,187.34,30.593,190.425,30.593 M199.079,26.799   c-0.429,2.058-0.791,4.077-1.045,6.104h-3.157c0.179-0.87,0.326-1.878,0.608-2.816h-0.068c-1.258,2.455-3.484,3.248-6.25,3.248   c-4.42,0-6.783-3.541-6.783-7.729c0-5.776,3.233-11.559,9.474-11.559c2.479,0,4.851,1.085,5.888,3.47h0.076l2.403-11.703h3.379   L199.079,26.799z"/>
	<path fill="#010101" d="M208.75,10.711h0.886c0.589,0,1.1-0.077,1.1-0.801c0-0.634-0.579-0.743-1.086-0.743h-0.899V10.711    M207.753,8.398h2.001c1.284,0,1.983,0.454,1.983,1.592c0,0.924-0.527,1.369-1.41,1.451l1.449,2.362h-1.027l-1.39-2.327h-0.609   v2.327h-0.997V8.398z M213.166,11.123c0-2.236-1.601-3.844-3.586-3.844c-1.979,0-3.579,1.608-3.579,3.844   c0,2.229,1.6,3.845,3.579,3.845C211.565,14.968,213.166,13.352,213.166,11.123z M204.841,11.123c0-2.626,2.128-4.768,4.739-4.768   c2.618,0,4.745,2.142,4.745,4.768c0,2.626-2.127,4.769-4.745,4.769C206.969,15.892,204.841,13.75,204.841,11.123z"/>
	<path fill="#010101" d="M12.724,62.653c0.266-1.389,0.656-3.181,0.92-5.17h5.804l-1.059,5.368h0.131   c1.979-3.178,5.603-6.165,11.468-6.165c0.593,0,1.648,0.135,2.832,0.593l-1.383,5.508c-1.185-0.467-2.173-0.662-2.632-0.662   c-7.648,0-11.4,8.348-12.256,12.526l-3.491,16.636H6.857L12.724,62.653"/>
	<path fill="#010101" d="M53.977,71.136c0.128-0.995,0.196-1.784,0.196-2.582c0-3.978-2.438-6.829-7.118-6.829   c-5.071,0-8.959,4.445-10.273,9.411H53.977 M54.767,90.693c-3.23,0.793-6.589,1.396-9.951,1.396   c-8.17,0-15.485-3.319-15.485-15.253c0-9.346,6.521-20.15,18.384-20.15c8.104,0,12.652,4.91,12.652,12.925   c0,2.256-0.267,4.178-0.59,6.17H36.115c-0.128,0.729-0.196,1.387-0.196,2.121c0,7.09,4.35,9.145,10.346,9.145   c3.096,0,6.456-0.797,9.486-2.055L54.767,90.693z"/>
	<path fill="#DF1F28" d="M79.281,66.367h3.293c4.877,0,9.291-1.726,9.291-7.225c0-4.445-3.036-5.374-6.326-5.374h-3.625   L79.281,66.367 M71.633,45.016h12.259c10.081,0,20.229,1.065,20.229,12.737c0,11.532-9.356,17.367-20.427,17.367h-6.262   l-3.427,16.168H61.749L71.633,45.016z"/>
	<path fill="none" stroke="#DF1F28" stroke-width="0.391" d="M79.271,66.354h3.292c4.876,0,9.289-1.726,9.289-7.225   c0-4.442-3.033-5.372-6.324-5.372h-3.624L79.271,66.354z M71.623,45.004h12.259c10.081,0,20.227,1.065,20.227,12.736   c0,11.532-9.355,17.366-20.426,17.366h-6.26l-3.426,16.173H61.739L71.623,45.004z"/>
	<path fill="#DF1F28" d="M124.154,64.313c-5.731,0-9.293,6.23-9.293,11.729c0,4.644,2.441,7.762,6.457,7.692   c5.538,0,9.03-4.643,9.03-12.467C130.349,67.691,128.768,64.313,124.154,64.313 M120.463,92.089   c-12.716,0-17.857-7.097-17.857-15.776c0-12.135,8.697-20.357,22.144-20.357c11.66,0,17.854,6.768,17.854,15.451   C142.603,85.789,133.316,92.089,120.463,92.089z"/>
	<path fill="none" stroke="#DF1F28" stroke-width="0.391" d="M124.143,64.3c-5.731,0-9.293,6.23-9.293,11.732   c0,4.643,2.441,7.759,6.459,7.689c5.532,0,9.026-4.641,9.026-12.468C130.335,67.682,128.755,64.3,124.143,64.3z M120.448,92.076   c-12.715,0-17.854-7.09-17.854-15.777c0-12.131,8.696-20.354,22.144-20.354c11.659,0,17.853,6.764,17.853,15.447   C142.59,85.779,133.304,92.076,120.448,92.076z"/>
	<polyline fill="#DF1F28" points="190.902,91.288 177.131,91.288 176.67,66.299 176.538,66.299 164.75,91.288 150.907,91.288    147.613,56.752 159.408,56.752 159.74,81.745 159.867,81.745 171.142,56.752 185.506,56.752 185.763,81.745 185.894,81.745    196.901,56.752 208.898,56.752 190.902,91.288  "/>
	<polygon fill="none" stroke="#DF1F28" stroke-width="0.391" points="190.893,91.279 177.121,91.279 176.66,66.288 176.528,66.288    164.736,91.279 150.896,91.279 147.602,56.746 159.396,56.746 159.728,81.739 159.856,81.739 171.128,56.746 185.492,56.746    185.752,81.739 185.884,81.739 196.892,56.746 208.886,56.746  "/>
	<path fill="#DF1F28" d="M232.613,70.744c0-3.712-1.441-6.833-5.791-6.833c-5.141,0-7.907,3.51-8.763,6.833H232.613 M235.782,90.162   c-4.153,1.258-8.569,1.927-11.993,1.927c-11.466,0-17.663-7.097-17.663-15.776c0-8.021,5.271-20.357,20.561-20.357   c9.029,0,15.813,4.581,15.813,15.049c0,1.396-0.395,4.445-0.855,6.497h-24.315c0.139,3.718,1.977,6.628,9.228,6.628   c3.167,0,7.447-0.797,10.741-2.384L235.782,90.162z"/>
	<path fill="none" stroke="#DF1F28" stroke-width="0.391" d="M232.601,70.733c0-3.714-1.441-6.836-5.795-6.836   c-5.138,0-7.903,3.518-8.763,6.836H232.601z M235.77,90.152c-4.157,1.259-8.569,1.924-11.994,1.924   c-11.465,0-17.662-7.09-17.662-15.777c0-8.021,5.268-20.354,20.56-20.354c9.03,0,15.817,4.58,15.817,15.046   c0,1.396-0.398,4.445-0.856,6.5h-24.318c0.138,3.711,1.976,6.625,9.227,6.625c3.168,0,7.444-0.797,10.742-2.377L235.77,90.152z"/>
	<path fill="#DF1F28" d="M262.534,56.752l-1.317,7.093h0.125c1.917-4.044,5.743-7.89,10.613-7.89c1.591,0,3.428,0.204,5.012,0.866   l-2.703,10.54c-1.515-1.191-3.234-1.455-5.467-1.455c-5.009,0-7.976,4.373-8.832,9.474l-3.361,15.908h-11.858l5.334-25.52   c0.593-2.98,1.12-5.901,1.452-9.016H262.534"/>
	<path fill="none" stroke="#DF1F28" stroke-width="0.391" d="M262.521,56.746l-1.317,7.086h0.126   c1.916-4.041,5.739-7.886,10.615-7.886c1.581,0,3.426,0.201,5.006,0.863l-2.696,10.541c-1.519-1.192-3.233-1.455-5.474-1.455   c-5.009,0-7.973,4.373-8.832,9.477l-3.358,15.909h-11.861l5.338-25.524c0.593-2.977,1.12-5.9,1.449-9.009H262.521z"/>
	<polyline fill="#DA432A" points="279.012,55.619 285.848,55.619 285.558,57.091 283.059,57.091 281.448,64.938 279.598,64.938    281.208,57.091 278.709,57.091 279.012,55.619  "/>
	<polyline fill="#DA432A" points="286.968,55.619 289.895,55.619 290.491,62.333 290.514,62.333 294.001,55.619 296.955,55.619    295.062,64.938 293.191,64.938 294.867,57.22 294.842,57.22 290.833,64.938 289.135,64.938 288.423,57.22 288.396,57.22    286.77,64.938 285.084,64.938 286.968,55.619  "/>
</g>
</svg>