<?xml version="1.0" encoding="UTF-8"?><svg id="a" xmlns="http://www.w3.org/2000/svg" viewBox="0 0 2503.13 704.28"><path d="M620.34,703.77s-12.76-28.46-28.46-62.82c-14.72-34.35-28.46-64.78-30.43-66.75-3.93-5.89-8.83-9.82-16.69-12.76-3.93-.98-6.87-1.96-6.87-3.93s2.94-1.96,38.28-1.96c37.3,0,39.26,0,39.26,1.96s-.98,1.96-5.89,2.94c-7.85,1.96-13.74,4.91-15.7,7.85-.98,.98-.98,3.93-.98,6.87,.98,5.89,8.83,26.5,19.63,50.06,12.76,27.48,16.69,36.32,18.65,35.34,2.94-.98,30.43-66.75,33.37-80.49,.98-5.89,1.96-7.85,.98-9.82-1.96-3.93-9.82-7.85-17.67-9.82-4.91-.98-5.89-1.96-5.89-2.94,0-1.96,.98-1.96,32.39-1.96s32.39,0,32.39,1.96-1.96,2.94-5.89,3.93c-4.91,.98-7.85,2.94-11.78,7.85-7.85,7.85-22.58,36.32-55.95,112.88-9.82,20.61-11.78,23.56-12.76,21.59h0Zm-522.18-3.93c-23.56-3.93-34.35-14.72-39.26-37.3-.98-3.93-2.94-19.63-3.93-35.34-4.91-45.15-6.87-53.99-14.72-60.86-2.94-2.94-5.89-3.93-8.83-3.93-10.8-.98-10.8-1.96-10.8-3.93s0-2.94,14.72-2.94c7.85,0,20.61-.98,28.46-.98h13.74l.98,4.91c0,2.94,.98,18.65,1.96,35.34,1.96,34.35,4.91,62.82,5.89,69.69,1.96,5.89,7.85,13.74,13.74,17.67,7.85,4.91,15.7,6.87,27.48,6.87,16.69,0,29.45-5.89,35.34-16.69,4.91-9.82,10.8-43.19,11.78-68.71,.98-19.63,0-25.52-4.91-32.39-2.94-4.91-11.78-9.82-16.69-9.82-3.93,0-5.89-.98-5.89-2.94s.98-1.96,37.3-1.96,37.3,0,37.3,1.96-2.94,2.94-7.85,2.94c-3.93,0-11.78,3.93-15.7,6.87-6.87,6.87-11.78,20.61-13.74,42.21-2.94,31.41-4.91,43.19-6.87,51.04-5.89,21.59-16.69,34.35-35.34,38.28-9.82,1.96-32.39,1.96-44.17,0Zm1003.14-.98c-5.89-.98-17.67-4.91-23.56-7.85l-5.89-2.94v-22.58q0-22.58,1.96-22.58c1.96,0,2.94,1.96,4.91,9.82,6.87,26.5,21.59,40.24,40.24,39.26,15.7-1.96,25.52-15.7,21.59-30.43-.98-4.91-1.96-6.87-7.85-11.78-4.91-4.91-8.83-7.85-23.56-14.72-9.82-4.91-19.63-10.8-22.58-12.76-13.74-9.82-18.65-28.46-10.8-44.17,6.87-15.7,24.54-25.52,47.11-25.52,10.8,0,17.67,.98,28.46,4.91,5.89,1.96,5.89,2.94,5.89,6.87v19.63c-.98,14.72-.98,15.7-2.94,14.72-1.96,0-2.94-1.96-4.91-8.83-3.93-14.72-9.82-23.56-18.65-27.48-11.78-5.89-23.56-2.94-30.43,6.87-4.91,6.87-4.91,11.78-2.94,19.63,2.94,9.82,8.83,14.72,30.43,25.52,19.63,9.82,24.54,12.76,30.43,19.63,9.82,10.8,11.78,27.48,4.91,41.22-4.91,9.82-17.67,18.65-32.39,21.59-5.89,2.94-24.54,2.94-29.45,1.96h0Zm1157.24-1.96c-4.91-.98-11.78-3.93-15.7-4.91l-5.89-2.94v-22.58c0-20.61,0-22.58,1.96-22.58s1.96,1.96,3.93,9.82c6.87,28.46,24.54,44.17,44.17,39.26,14.72-3.93,22.58-21.59,15.7-35.34-3.93-7.85-9.82-11.78-29.45-21.59-29.45-13.74-36.32-22.58-36.32-41.22,0-14.72,5.89-24.54,17.67-32.39,16.69-10.8,41.22-11.78,61.84-2.94l4.91,1.96-.98,11.78c-.98,24.54-1.96,27.48-3.93,27.48s-1.96-.98-2.94-4.91c-3.93-14.72-9.82-25.52-17.67-30.43-5.89-3.93-16.69-4.91-22.58-1.96-8.83,3.93-13.74,11.78-13.74,21.59,0,12.76,7.85,20.61,29.45,31.41,24.54,11.78,32.39,17.67,37.3,29.45,3.93,7.85,2.94,22.58-.98,30.43-4.91,10.8-15.7,18.65-30.43,22.58-7.85,1.96-24.54,.98-36.32-1.96h0Zm134.47,0c-3.93-.98-11.78-3.93-15.7-4.91l-7.85-2.94v-22.58q0-22.58,1.96-22.58c1.96,0,1.96,.98,2.94,4.91,4.91,18.65,9.82,28.46,16.69,36.32,14.72,13.74,37.3,10.8,45.15-4.91,4.91-10.8,2.94-22.58-6.87-30.43-1.96-1.96-12.76-7.85-23.56-13.74-28.46-14.72-35.34-21.59-36.32-39.26-.98-14.72,4.91-26.5,17.67-34.35,16.69-10.8,41.22-11.78,62.82-2.94l4.91,1.96-.98,13.74c-.98,21.59-.98,24.54-3.93,24.54-.98,0-2.94-2.94-4.91-9.82-3.93-12.76-9.82-21.59-16.69-25.52-4.91-2.94-6.87-2.94-13.74-2.94-5.89,0-8.83,.98-11.78,2.94-8.83,5.89-12.76,15.7-9.82,26.5,2.94,8.83,9.82,14.72,31.41,25.52,24.54,12.76,29.45,16.69,35.34,27.48,2.94,4.91,2.94,6.87,2.94,15.7s0,10.8-2.94,16.69c-5.89,11.78-14.72,18.65-29.45,22.58-10.8,.98-26.5,.98-37.3-1.96h0Zm-1363.37,0c-6.87,0-15.7-1.96-17.67-1.96-14.72-4.91-28.46-17.67-43.19-40.24-6.87-10.8-17.67-30.43-17.67-31.41l5.89-1.96c15.7-4.91,21.59-12.76,21.59-28.46,0-9.82-1.96-15.7-8.83-21.59-6.87-5.89-18.65-10.8-28.46-10.8h-4.91v53.99c0,59.87,.98,60.86,7.85,68.71,3.93,3.93,9.82,5.89,19.63,7.85,4.91,.98,5.89,.98,5.89,2.94s-1.96,1.96-42.21,1.96-42.21,0-42.21-1.96,1.96-1.96,7.85-3.93c9.82-1.96,14.72-4.91,17.67-10.8q1.96-4.91,1.96-53v-48.1l-2.94-4.91c-2.94-5.89-6.87-8.83-17.67-10.8-6.87-1.96-7.85-1.96-7.85-3.93s.98-1.96,41.22-1.96c46.13,0,49.08,0,63.8,6.87,12.76,5.89,18.65,14.72,18.65,27.48,0,13.74-6.87,23.56-22.58,31.41l-6.87,2.94,2.94,4.91c7.85,15.7,28.46,41.22,42.21,51.04,5.89,4.91,13.74,8.83,20.61,10.8,2.94,.98,3.93,1.96,3.93,3.93s-.98,2.94-2.94,1.96c-1.96,0-8.83,0-15.7-.98h0Zm1005.1,0c-6.87,0-14.72-1.96-18.65-2.94-17.67-4.91-34.35-22.58-53.99-57.91l-7.85-13.74,5.89-1.96c15.7-4.91,22.58-11.78,23.56-24.54,1.96-19.63-10.8-32.39-36.32-35.34l-5.89-.98v41.22c0,22.58,0,48.1,.98,56.93,.98,23.56,4.91,28.46,22.58,31.41,7.85,.98,8.83,1.96,8.83,3.93s-1.96,1.96-41.22,1.96-41.22,0-41.22-1.96,1.96-1.96,6.87-3.93c16.69-3.93,18.65-7.85,19.63-35.34,.98-11.78,.98-31.41,0-48.1-.98-27.48-.98-29.45-3.93-34.35-2.94-5.89-7.85-8.83-18.65-10.8-5.89-.98-5.89-1.96-5.89-3.93v-2.94h41.22c45.15,.98,50.06,.98,62.82,7.85,7.85,3.93,12.76,8.83,15.7,14.72s2.94,20.61,0,26.5c-2.94,5.89-10.8,13.74-18.65,17.67-3.93,1.96-6.87,3.93-6.87,4.91,0,1.96,11.78,20.61,19.63,29.45,8.83,10.8,22.58,24.54,30.43,28.46,2.94,1.96,8.83,4.91,12.76,5.89,5.89,1.96,6.87,2.94,6.87,4.91,0,4.91,1.96,4.91-18.65,2.94h0Zm-1796.23-2.94c0-1.96,.98-1.96,5.89-2.94,10.8-1.96,17.67-7.85,19.63-15.7,2.94-11.78,5.89-53,3.93-79.51l-.98-15.7-6.87-6.87c-6.87-6.87-11.78-9.82-21.59-12.76-1.96-.98-3.93-1.96-3.93-2.94,0-1.96,1.96-1.96,23.56-1.96h23.56l7.85,9.82c9.82,11.78,18.65,21.59,40.24,43.19,8.83,9.82,22.58,23.56,30.43,31.41l14.72,14.72c.98,0,.98-52.02,0-64.78-.98-11.78-2.94-17.67-6.87-21.59s-12.76-6.87-21.59-7.85c-5.89-.98-7.85-.98-7.85-2.94s1.96-1.96,37.3-1.96,37.3,0,37.3,1.96-.98,1.96-5.89,2.94c-6.87,1.96-12.76,4.91-14.72,8.83-4.91,9.82-6.87,53-5.89,98.15l.98,27.48h-3.93c-2.94,0-4.91-.98-14.72-11.78-5.89-6.87-22.58-23.56-36.32-38.28s-31.41-32.39-38.28-39.26c-6.87-7.85-13.74-13.74-14.72-13.74s-.98,4.91-.98,33.37c.98,36.32,1.96,46.13,4.91,52.02,3.93,7.85,9.82,10.8,25.52,12.76,6.87,.98,8.83,1.96,8.83,2.94,0,1.96-1.96,1.96-39.26,1.96-38.28,.98-40.24,.98-40.24-.98h0Zm202.2,0c0-.98,.98-1.96,1.96-2.94,19.63-3.93,23.56-6.87,25.52-22.58,1.96-11.78,1.96-75.58,0-84.41-1.96-8.83-2.94-12.76-5.89-15.7-1.96-2.94-10.8-5.89-17.67-6.87-3.93-.98-4.91-.98-4.91-2.94s.98-1.96,41.22-1.96,41.22,0,41.22,1.96c0,.98-1.96,1.96-7.85,3.93-8.83,1.96-15.7,6.87-18.65,12.76-1.96,4.91-2.94,4.91-1.96,49.08,0,39.26,0,45.15,1.96,51.04,2.94,9.82,9.82,13.74,23.56,16.69,2.94,.98,3.93,.98,3.93,2.94s-.98,1.96-41.22,1.96c-40.24-.98-41.22-.98-41.22-2.94h0Zm283.67,0c0-1.96,.98-1.96,4.91-2.94,6.87-.98,15.7-4.91,17.67-6.87,4.91-5.89,6.87-19.63,6.87-60.86,0-46.13-1.96-53-12.76-58.89-2.94-1.96-7.85-2.94-10.8-3.93-3.93-.98-5.89-.98-5.89-2.94s1.96-1.96,60.86-1.96h60.86l-.98,1.96c0,.98-.98,9.82-.98,18.65v16.69h-2.94c-1.96,0-2.94-.98-2.94-.98-2.94-10.8-4.91-14.72-9.82-19.63-7.85-7.85-13.74-9.82-34.35-9.82h-15.7v54.97h11.78c14.72,0,25.52-.98,27.48-3.93,.98-.98,2.94-4.91,3.93-8.83,1.96-5.89,2.94-7.85,4.91-7.85s1.96,0,1.96,12.76c0,6.87,0,19.63-.98,28.46-.98,13.74-.98,15.7-2.94,15.7-.98,0-1.96-.98-2.94-4.91-.98-7.85-3.93-12.76-9.82-15.7-3.93-1.96-6.87-1.96-19.63-1.96h-15.7v22.58c0,26.5,.98,29.45,9.82,33.37,4.91,1.96,6.87,2.94,15.7,2.94,9.82,0,10.8,0,17.67-3.93,11.78-5.89,21.59-16.69,27.48-33.37,1.96-4.91,2.94-6.87,4.91-6.87,.98,0,1.96,.98,1.96,.98,0,3.93-6.87,35.34-9.82,43.19l-1.96,5.89h-59.87c-56.93,0-57.91,0-57.91-1.96h0Zm474.09,0c0-.98,.98-1.96,2.94-2.94,14.72-2.94,19.63-5.89,22.58-12.76,2.94-7.85,3.93-25.52,3.93-60.86-.98-35.34-.98-42.21-5.89-49.08-1.96-2.94-10.8-6.87-18.65-7.85-2.94-.98-3.93-.98-3.93-2.94s1.96-1.96,41.22-1.96,41.22,0,41.22,1.96-.98,1.96-5.89,2.94c-11.78,2.94-18.65,7.85-21.59,16.69-1.96,5.89-1.96,78.52,0,91.28,1.96,13.74,6.87,17.67,20.61,21.59,6.87,1.96,8.83,1.96,8.83,3.93s-1.96,1.96-41.22,1.96q-44.17,0-44.17-1.96h0Zm134.47,0c0-1.96,.98-1.96,3.93-2.94,7.85-.98,17.67-4.91,19.63-7.85,1.96-1.96,3.93-5.89,4.91-9.82,1.96-5.89,1.96-12.76,1.96-56.93v-50.06h-13.74c-17.67,0-24.54,1.96-28.46,7.85-2.94,3.93-6.87,14.72-7.85,22.58,0,3.93-.98,4.91-2.94,4.91-.98,0-1.96-.98-2.94-.98-.98-.98,.98-28.46,1.96-39.26l.98-3.93h131.53l.98,19.63c.98,10.8,1.96,20.61,1.96,21.59,.98,1.96,0,2.94-1.96,1.96-2.94,0-2.94-.98-4.91-7.85-3.93-13.74-8.83-20.61-17.67-23.56-4.91-.98-19.63-1.96-28.46-1.96h-2.94v48.1c0,66.75,.98,69.69,16.69,74.6,2.94,.98,6.87,1.96,9.82,1.96,3.93,.98,4.91,.98,4.91,2.94s-.98,1.96-43.19,1.96c-42.21-.98-44.17-.98-44.17-2.94h0Zm168.83,0c0-1.96,.98-1.96,3.93-2.94,13.74-1.96,21.59-6.87,24.54-14.72,.98-1.96,1.96-8.83,1.96-17.67l.98-13.74-4.91-8.83c-13.74-24.54-36.32-58.89-44.17-66.75-3.93-3.93-11.78-6.87-17.67-8.83-3.93-.98-4.91-.98-4.91-2.94s.98-1.96,36.32-1.96,36.32,0,36.32,1.96-.98,1.96-4.91,2.94c-2.94,.98-6.87,2.94-7.85,3.93-5.89,4.91-3.93,10.8,16.69,42.21,15.7,23.56,12.76,22.58,23.56,2.94,7.85-15.7,14.72-31.41,14.72-37.3s-1.96-7.85-8.83-10.8c-2.94-.98-4.91-1.96-4.91-3.93s.98-1.96,28.46-1.96,28.46,0,28.46,1.96-1.96,1.96-6.87,3.93c-8.83,1.96-15.7,7.85-21.59,15.7-5.89,6.87-16.69,27.48-26.5,48.1l-6.87,13.74v15.7c0,17.67,1.96,23.56,6.87,28.46,3.93,2.94,12.76,6.87,18.65,7.85,3.93,.98,4.91,.98,4.91,2.94s-.98,1.96-43.19,1.96-43.19,0-43.19-1.96h0Zm229.68,0c0-1.96,.98-1.96,4.91-2.94,6.87-.98,15.7-4.91,17.67-7.85,4.91-4.91,5.89-10.8,5.89-52.02,.98-59.87-.98-64.78-21.59-68.71-5.89-.98-6.87-1.96-6.87-3.93s.98-1.96,7.85-2.94c3.93,0,22.58-.98,41.22,0,32.39,0,34.35,.98,44.17,2.94,19.63,4.91,30.43,11.78,35.34,22.58s2.94,28.46-3.93,37.3c-6.87,9.82-21.59,16.69-40.24,19.63-12.76,1.96-14.72,1.96-14.72-.98,0-1.96,.98-2.94,6.87-3.93,19.63-3.93,25.52-10.8,26.5-29.45,0-7.85,0-11.78-.98-15.7-1.96-6.87-9.82-14.72-16.69-18.65s-20.61-6.87-27.48-6.87h-4.91v54.97c0,50.06,.98,55.95,1.96,60.86,2.94,8.83,9.82,12.76,24.54,14.72,3.93,.98,4.91,.98,4.91,2.94s-1.96,1.96-42.21,1.96c-41.22-1.96-42.21-1.96-42.21-3.93h0Zm337.65,0c0-1.96,1.96-1.96,8.83-3.93,11.78-2.94,15.7-5.89,18.65-15.7,1.96-5.89,1.96-12.76,1.96-50.06,0-46.13,0-48.1-5.89-54.97-2.94-3.93-7.85-6.87-16.69-7.85-4.91-.98-6.87-1.96-6.87-2.94,0-1.96,2.94-1.96,59.87-1.96h59.87l-.98,17.67c0,9.82-.98,18.65-.98,19.63s-.98,.98-2.94,.98-2.94-2.94-3.93-7.85c-5.89-18.65-16.69-23.56-46.13-23.56h-11.78l-.98,5.89c0,2.94-.98,15.7-.98,27.48v21.59l16.69-.98c10.8,0,18.65-.98,20.61-1.96,2.94-1.96,5.89-6.87,7.85-12.76,.98-2.94,.98-3.93,2.94-3.93h2.94v19.63c0,26.5-.98,35.34-2.94,35.34-.98,0-1.96-.98-2.94-5.89-.98-6.87-3.93-11.78-7.85-14.72-2.94-1.96-5.89-1.96-19.63-1.96h-16.69v18.65c0,19.63,.98,28.46,3.93,33.37,5.89,8.83,30.43,9.82,44.17,1.96,9.82-5.89,19.63-19.63,23.56-32.39,.98-3.93,1.96-5.89,3.93-5.89,.98,0,1.96,.98,1.96,1.96,0,3.93-5.89,32.39-8.83,40.24l-1.96,7.85h-59.87c-56.93-.98-58.89-.98-58.89-2.94h0ZM183.55,395.56c-53.99-5.89-97.17-24.54-129.56-57.91-14.72-14.72-23.56-27.48-33.37-47.11C5.89,260.11,0,233.61,0,196.31c0-22.58,1.96-36.32,5.89-54.97C22.58,74.6,74.6,24.54,146.25,6.87,167.84,1.96,183.55,0,208.09,0c97.17,0,169.81,48.1,196.31,128.58,14.72,44.17,14.72,95.21,.98,136.44-15.7,48.1-50.06,86.38-98.15,108.95-22.58,10.8-47.11,17.67-73.62,20.61-8.83,1.96-41.22,1.96-50.06,.98h0Zm51.04-18.65c50.06-7.85,82.45-38.28,98.15-94.23,9.82-35.34,12.76-83.43,6.87-123.67-6.87-44.17-19.63-74.6-45.15-101.1-17.67-18.65-39.26-31.41-62.82-37.3-10.8-2.94-13.74-2.94-29.45-2.94-37.3,0-63.8,10.8-87.36,35.34-30.43,31.41-48.1,92.27-43.19,157.05,3.93,58.89,17.67,95.21,49.08,127.6,32.39,32.39,70.67,46.13,113.86,39.26h0Zm1178.84,18.65c-1.96,0-6.87-.98-12.76-1.96-12.76-1.96-33.37-5.89-45.15-10.8-55.95-19.63-98.15-61.84-116.8-116.8-6.87-21.59-10.8-42.21-10.8-68.71s2.94-46.13,9.82-66.75c23.56-70.67,86.38-118.77,168.83-128.58,12.76-.98,45.15-.98,58.89,0,71.65,7.85,127.6,44.17,156.07,101.1,21.59,42.21,27.48,94.23,16.69,143.31-4.91,23.56-15.7,48.1-29.45,67.73-7.85,10.8-27.48,31.41-37.3,39.26-39.26,29.45-84.41,43.19-138.4,43.19-7.85-.98-17.67-.98-19.63-.98h0Zm47.11-17.67c61.84-6.87,98.15-49.08,109.93-129.56,2.94-18.65,2.94-67.73,0-86.38-4.91-32.39-14.72-59.87-28.46-80.49-32.39-48.1-76.56-69.69-128.58-61.84-26.5,3.93-45.15,12.76-62.82,29.45-26.5,24.54-42.21,63.8-47.11,113.86-1.96,16.69-.98,59.87,1.96,74.6,3.93,23.56,8.83,41.22,17.67,58.89,7.85,15.7,14.72,26.5,27.48,40.24,30.43,32.39,65.76,46.13,109.93,41.22Zm-1020.81,0c0-6.87,.98-6.87,6.87-6.87,1.96,0,7.85-.98,13.74-1.96,39.26-6.87,59.87-21.59,90.3-64.78,20.61-29.45,65.76-93.25,65.76-94.23s-.98-3.93-2.94-6.87c-1.96-2.94-16.69-27.48-33.37-53.99s-32.39-53-36.32-57.91c-20.61-28.46-42.21-47.11-66.75-57.91-6.87-2.94-24.54-6.87-29.45-6.87-6.87,0-7.85-.98-7.85-6.87v-5.89h121.71l9.82,15.7c5.89,8.83,26.5,41.22,46.13,71.65,19.63,31.41,36.32,55.95,37.3,55.95,1.96,0,19.63-27.48,33.37-49.08,21.59-35.34,28.46-55.95,22.58-65.76-3.93-7.85-16.69-13.74-30.43-14.72l-6.87-.98V14.72h155.08v11.78h-3.93c-15.7,.98-37.3,6.87-51.04,14.72-9.82,4.91-27.48,18.65-33.37,25.52-10.8,12.76-19.63,24.54-40.24,56.93-32.39,49.08-33.37,50.06-32.39,51.04,.98,1.96,83.43,129.56,89.32,138.4,22.58,32.39,44.17,49.08,70.67,55.95,7.85,1.96,10.8,1.96,31.41,1.96,25.52,0,40.24-.98,54.97-4.91,25.52-6.87,41.22-19.63,48.1-42.21l2.94-8.83v-117.79c0-82.45,0-120.73-.98-127.6-3.93-27.48-13.74-37.3-44.17-43.19-5.89-.98-12.76-1.96-14.72-2.94q-3.93-.98-3.93-5.89v-4.91h284.65l1.96,38.28c.98,20.61,1.96,38.28,1.96,39.26s-1.96,.98-4.91,.98h-4.91l-1.96-7.85c-6.87-30.43-27.48-46.13-65.76-52.02-8.83-.98-24.54-1.96-50.06-1.96l-38.28-.98V179.62l41.22-.98c36.32-.98,57.91-1.96,63.8-3.93,1.96-.98,1.96,1.96,1.96,43.19v44.17h-3.93c-4.91,0-5.89-.98-5.89-7.85,0-12.76-5.89-30.43-11.78-37.3-10.8-10.8-25.52-14.72-62.82-12.76l-21.59,.98v62.82c0,66.75,.98,70.67,5.89,81.47,2.94,5.89,10.8,12.76,17.67,15.7,4.91,1.96,26.5,6.87,42.21,8.83q3.93,.98,3.93,5.89v4.91h-365.14l-50.06-78.52c-27.48-43.19-51.04-78.52-51.04-78.52-.98,0-7.85,7.85-24.54,31.41-23.56,32.39-42.21,65.76-45.15,78.52-2.94,15.7,6.87,26.5,33.37,35.34l7.85,2.94v9.82h-160.97v-7.85h.98Zm1293.68-44.17c0-27.48,.98-82.45,1.96-123.67,.98-84.41,.98-146.25-.98-155.08-3.93-13.74-9.82-22.58-19.63-25.52-2.94-.98-9.82-1.96-15.7-1.96l-10.8-.98,.98-4.91c0-2.94,.98-4.91,.98-4.91,.98-.98,72.63-2.94,107.97-2.94,43.19-.98,62.82,0,85.39,3.93,51.04,7.85,82.45,27.48,93.25,58.89,3.93,11.78,4.91,31.41,1.96,44.17-8.83,34.35-38.28,62.82-81.47,76.56l-8.83,2.94,2.94,3.93c1.96,1.96,10.8,12.76,20.61,23.56,80.49,91.28,132.51,135.45,170.79,142.32,7.85,.98,19.63,.98,32.39-1.96,22.58-4.91,37.3-17.67,42.21-40.24,3.93-13.74,3.93-25.52,3.93-139.38,0-103.06-.98-112.88-1.96-120.73-3.93-16.69-11.78-26.5-24.54-33.37-7.85-3.93-25.52-8.83-34.35-9.82l-5.89-.98V13.74l22.58-.98c52.02-1.96,145.27-1.96,164.9-.98,84.41,5.89,141.34,25.52,178.64,63.8,30.43,31.41,44.17,72.63,42.21,124.66-.98,19.63-1.96,29.45-7.85,46.13-20.61,61.84-82.45,112.88-155.08,128.58-21.59,4.91-25.52,4.91-162.94,4.91-121.71,0-133.49,0-144.29-1.96-26.5-3.93-49.08-15.7-85.39-40.24-26.5-18.65-48.1-39.26-73.62-69.69-11.78-13.74-53-68.71-53.99-71.65-.98-.98,0-1.96,3.93-1.96,6.87,0,22.58-4.91,33.37-10.8,22.58-11.78,42.21-31.41,51.04-49.08,4.91-10.8,6.87-21.59,5.89-32.39-2.94-21.59-12.76-39.26-29.45-52.02-18.65-14.72-44.17-22.58-72.63-23.56l-12.76-.98-.98,35.34c-1.96,79.51-1.96,252.26-.98,262.07,3.93,29.45,13.74,37.3,53.99,43.19,19.63,2.94,17.67,1.96,17.67,8.83v5.89h-133.49l-1.96-47.11h0Zm575.19,30.43c59.87-9.82,102.08-52.02,115.82-117.79,3.93-17.67,4.91-53,1.96-71.65-3.93-28.46-11.78-50.06-25.52-70.67-26.5-39.26-67.73-63.8-122.69-71.65-14.72-1.96-46.13-2.94-54.97-.98l-5.89,.98V179.62c0,132.51,.98,148.21,1.96,153.12,4.91,16.69,13.74,24.54,28.46,28.46,14.72,5.89,41.22,5.89,60.86,2.94h0Z"/></svg>