<?xml version="1.0" encoding="utf-8"?>
<!-- Generator: Adobe Illustrator 28.0.0, SVG Export Plug-In . SVG Version: 6.00 Build 0)  -->
<svg version="1.1" xmlns="http://www.w3.org/2000/svg" xmlns:xlink="http://www.w3.org/1999/xlink" x="0px" y="0px"
	 viewBox="0 0 640 320" enable-background="new 0 0 640 320" xml:space="preserve">
<g id="lettering" fill="inherit">
	<path fill="inherit" class="lettering" d="M601.5,209.2c-1.1,0.6-1.9,1.8-2.5,2.9c-8.1,14.6-15.4,31.4-27.6,38.8c-8.2,5-11.6,14.1-6.9,23
		c2.6,5.8,11,10.6,18.5,11.5c10.6,1.8,24.4-3.3,28.5-18.5c2.8-11.2,1.8-13.8,4.2-33.6c0.8-7.4,1.5-13.1,2.5-21.1
		c0.4-2.8-1.4-3.8-3.8-3.7c-3.4,0-6.1-0.1-9.5-0.1c-1.2,0-2.4,0.1-3.5,0.6L601.5,209.2z M595.7,261.6c-1.4,7.4-6.4,12.5-13.4,11.9
		c-2-0.1-3.9-0.6-5.5-1.7c-3.1-2.1-4.9-6.8-5.5-10.1c-0.1-0.5-0.1-0.7,0.2-0.7c0.8,0.4,1.8,1.3,2.8,1.6c3,1.1,5.7-0.9,7.1-3.6
		c0.8-1.7,0.8-3.9,0.4-5.5c-0.3-1.4-0.7-2.1-0.5-3.3c1.6-5.5,16-26,17.8-28.3c0.2-0.3,0.3-0.4,0.3,0.1c0,0.3-0.1,0.9-0.1,1.7
		c-0.9,11.6-1.7,26.3-3.5,37.6L595.7,261.6z"/>
	<path fill="inherit" d="M575,218.7c2.2,0.6,3.7,2.3,5.4,3.6c4.7,3.3,11.7-1.4,12.5-6.8c1.6-6.3-5.6-9.2-10.8-9
		c-6.3,0-12,3.4-17.3,7.2c-4,3-2.1-0.9-1-3.5c1.2-2.8,2.4-5.7-1.2-6.4c-3-0.6-5.7-0.9-8.8-1.3c-2.2-0.4-4.3,0.3-5.3,2.4
		c-6,14.7-10.9,29.8-17,44.4c-2.8,5.7-14.3,20.4-20.1,11.5c-1.4-3.4-0.1-7.9,1-11.3c6-17.1,10.3-28.7,16.5-45.3
		c1.1-2.7,1.2-5.1-2.3-5.5c-3.4-0.3-6.6-1.2-10.1-1c-2.1,0.2-3.3,2.1-3.9,4c-5.7,15.8-8.9,25.2-14.8,42.1c-1.7,4.9-4.8,10.1-9,12.9
		c-7.1,5.3-16.3,3.4-15.3-6.8c0.2-2.6,1.1-5,1.9-7.5c5.6-17,9-27,14.7-43.5c2.1-5.4-3.4-4.8-7-5.3c-4-0.4-8-1.5-9.5,3.3
		c-5,15.1-8.1,24.4-12.9,39.5c-0.8,2.8-2.2,5.5-4.3,7.6c-8.3,8.2-16.8,11.4-25.9,11.1c-7.7-0.2-13.6-3.7-13.8-12.1
		c-0.2-2.7-0.1-6,0.4-7.7c0.2-0.8,0.7-1.5,1.4-1.9c7.9-4.8,35.5-10,40.4-23.7c3.5-12-3.8-19.9-15.2-20.4
		c-25.2-1.9-41.3,24-44.2,46.8c-3.4,20,9.5,32.1,27.7,29.9c10.6-1.2,20.4-7.1,28.3-14.2c1.3-0.9,1.9-0.5,2.2,1.3
		c0.9,9.4,7,16.7,15.4,17.2c7.1-0.1,14-6.1,19.6-9.9c3.3-2.4,2.9-2.8,4.1,0.7c2,5.7,6.3,14.4,13.5,13.2c2.9-0.2,6.4-1.1,10.2-3.8
		c1.1-0.7,2.3-1.8,3.5-2.2c0.3,0,0.2,0.1,0.3,0.2c-0.5,3.5-3.4,6.6,2.2,7.4c3,0.3,5.9,1.1,9,1c2.1-0.2,3.3-2.1,4-3.9
		c6.6-17.4,10.6-28,17.4-45.4c0.9-2.5,2.5-4.7,4.9-6c4.3-2.1,8.6-4,13-3.1L575,218.7z M445.1,197.1c3.1,0.3,5.2,2.5,5.1,5.5
		c0.6,13.8-26,26.7-31,26.1c-1.4-0.2-0.5-1.5-0.2-2.5c1.7-4.2,4.1-8.7,7-13.1c4.4-6.4,10.8-16.3,19-15.9L445.1,197.1z"/>
	<path fill="inherit" d="M409.6,149.9c-1.9,0-3.7,0.1-5.6,0.5c-8.3,1.7-14.2,6.8-17.1,7.8c-0.4,0-0.7-0.3-1-0.6
		c-1.3-1.6-7.4-7.1-11.7-8.3c-7.6-2.6-17.5-0.4-23.3,4.2c-7.4,5.7-10.6,14.6-12.7,23.4c-5.3,19.8-8.4,40.2-14.7,59.7
		c-2.6,6.1-12.2,20.6-18.1,11.3c-1.7-4.5-0.2-9.9,0.7-14.5c3.6-16.6,5.9-26.8,9.6-43.3c0.3-1.4,0.5-3.4-0.9-4.1
		c-3.4-1.2-7-0.3-10.5-0.5c-2.4,0-4.3,1.3-4.9,3.7c-3.7,16-5.6,26.3-9.1,43.1c-1.1,6.9-4.9,14.8-11.2,18c-4.5,2.6-10.6,1.4-11.8-4.4
		c-1-3.9-0.1-7.8,0.6-11.7c3.1-17.2,5.8-28.2,8.8-45.3c0.1-2.2-1.7-2.9-3.6-2.8c-2.8,0.1-5.2,0.1-8.1,0.3c-2.9,0-4.8,2.3-5.1,5.1
		c-2.9,15.2-4.7,24.7-7.4,40c-0.7,4.7-2.7,9.7-5.2,13.6c-2.5,3.8-5.2,7.6-9.6,7.9c-2.3,0-4.2-1.5-4.8-4c-1.2-4.5-0.1-9.2,0.6-13.8
		c2.8-16.5,4.6-26.7,7.5-43c0.2-1.4,0.4-3.3-0.7-4.1c-2.3-1.4-5.5-0.3-8-0.4c-3.3,0-7.1,0.3-7.6,4.1c-0.7,4-2.3,0.3-4.8-1.3
		c-2.7-1.7-5.9-2.3-9.1-2.2c-25.1,1.3-38.4,29.5-38,52.5c0,2.3-0.2,4.4-1.1,6.9c-1.7,4.6-5.3,9.4-8.2,10.5c-5.1,2.2-7.6-2.7-7.8-7.3
		c-1.5-15.8,8.9-35.8,0.1-51.1c-3-4.7-9.5-6-14.9-5.5c-7.6,0.9-11.8,3.2-17.7,9.8c-1,0.9-3.3,5-3.2,1.5c1.2-12.8,2.3-21.6,3.7-34.4
		c0.1-1.2,0.2-2.8-0.4-3.6c-0.7-1-2.2-0.7-3.3-0.5c-3.7,1.1-7.5,1.4-10.9,3.2c-1.5,1-2,2.8-2.2,4.6c-1.9,18.7-3.7,37.5-5.3,56.2
		c-0.9,6.7-0.4,13.8-2.4,20.3c-6,13.2-18.5,20.6-32.7,21.2c-17,1.3-23.1-11.2-25-26c-3.5-24.4-0.4-66.7,26.4-74.7
		c19-5.1,19.7,10.9,13,22.8c-1.1,2,1.6,2.4,3.2,2.8c5.7,1.2,11.7-2.4,12.7-7.9c2.3-11.7-5-22.5-17.3-23.7
		c-48.4-5.1-65.3,51.9-56.1,90.5c2.9,15.3,11.9,28.9,27.9,29.6c17,0.8,34.4-7.2,44.9-20.5c0.7-0.7,1.4-2.1,2.3-2.1
		c0.7,0.6-0.1,5.4-0.1,7.1c-0.1,2-0.5,4.2,0.3,5.3c1.6,2.2,8.1-0.1,10.7-0.1c3-0.3,4.5-2.9,4.6-5.8c1.3-15.2,2.2-24.9,3.7-40.2
		c0.3-4.2,1.7-8.7,3.6-12.3c2.9-5.5,6.7-10.1,13.1-10.7c2.8-0.2,5.5,0.8,6.6,3.3c1.1,2.3,1.4,4.9,1.4,7.4c0.2,13-6.9,31.4-1.2,45.3
		c5.3,11.8,20.9,10.6,28.7-0.1c1.4-1.7,2.8-4.1,4-5.8c0.7-1,1.5-0.9,2.1-0.2c7.2,12.1,20.3,14,30.8,5.1c3.6-2.8,7.9-7.2,10.7-10.2
		c0.7-0.8,0.9-0.6,1.6,0.7c2.8,5,7.5,13,14.2,12.4c6.7-0.3,13.2-6.7,17.6-13.7c0.6-0.8,1.2-0.6,1.7,0c3,6.1,7.2,10.9,13.7,11.8
		c8.2,1.3,14.8-6.5,20.3-11.4c1.5-1.4,2.6-2.6,3.1-2.9c0.5-0.3,0.8,0.1,1.4,1.3c7,14.4,15.4,16.8,27.6,4.8c1.1-1.1,1.7-1,1.3,0.8
		c-0.9,4.8-1.6,8.5-6.6,10.5c-14.4,6.5-26.7,18-15.3,30.1c4.7,3.5,10.9,4.7,16.9,2.4c3.5-1.5,6.6-4.4,9.4-6.7
		c1.4-1.2,2.1-1.2,3.4-0.4c3.1,2,11,7.7,16.8,8.3c11.6,1.2,19.3-9,22.8-19.6c7.8-28,14.4-56.4,22.3-84.3c1-4.2,5.4-3.6,8.9-3.3
		c2.4,0.2,4.7-0.2,5.5-2.3c1-6.3-13.4,0.6-10.7-7.6c2.4-9.3,5.4-20.3,15.4-22.2c5.3-1.6,10.8-1.1,14.3,3.8c0.1,0.1,0.3,0.3,0.4,0.4
		c1,0.9,1.8,1,2.2,0c1.2-9.1-6.1-14.8-15.5-14.9L409.6,149.9z M217.3,237.7c-2.2,15.1-24,27.9-27.3,6.5
		c-2.5-16.1,5.2-47.3,25.2-47.8c5.4,0.2,8.5,4.5,7.3,9.6c-1.9,11.2-3.2,20-5.1,31.5L217.3,237.7z M316,274.1
		c-1.3,6.7-4.3,16.8-8.9,17.9c-4.3,1.5-8.2-1.9-7.9-6.3c0.1-5.7,7.7-12.2,16-15.5c1.9-0.3,1.3,1.5,0.8,3.6L316,274.1z M353.3,274.5
		c-1.8,8-6.7,17.5-13.2,17.7c-3.3,0.4-13.4-3-12.3-7.5c0.5-2.5,2.5-7.4,3.4-11.1c1-3.1,0.9-6.8,2.9-9.4c0.6-0.6,1.4-1,2.3-1.3
		c5.5-1.4,11.9-3,18.4-3.8c1.9-0.1,1.9,1.7,1.5,3.1c-1,4.1-1.9,7.9-3,12.1L353.3,274.5z M357.6,253.3c-0.6,0.6-1.5,0.9-2.3,1
		c-4.9,0.8-10.6,1.8-16.6,3.2c-1.1,0.2-2.8,0.7-3.5-0.2c-0.4-0.6-0.1-2,0.1-2.8c4.8-20.3,9.7-40.5,14.8-60.7
		c0.5-2.1,2.3-3.1,4.4-3.1c6.2,0.1,11,0.1,17.1,0.5c2.2,0.3,2.4,2,1.8,3.9c-4.9,18.2-9.7,36.5-14.4,54.9c-0.3,1.1-0.7,2.5-1.4,3.2
		L357.6,253.3z M381.5,167.4c-1.2,4.8-3.7,10-4.6,14.6c-0.5,2.7-1.9,4.6-4.9,4.3c-5.9-0.2-10.1-0.3-15.9-0.4c-3.8,0-3.8-1.8-2.8-5.1
		c2.7-11.1,6.5-23.3,18.6-23c5.1-0.4,10.5,4.2,9.6,9.4L381.5,167.4z"/>
	<path fill="inherit" d="M533.7,65.7c-1.1,0.7-1.8,2.1-2.3,3.4c-5.3,13.7-8.7,22.7-13.4,35.5c-1.6,4-2.9,8.5-5,12.4
		c-3.9,7.3-10.7,11.3-16.4,11.6c-11.1,0-9.6-11.1-6.4-18.5c6.1-17.1,9.8-27.3,16-44.1c0.6-1.6,0.9-3.6-0.9-4.3
		c-4.1-1-7.9-1-12.1-1.5c-1.6-0.1-3.3,0.2-4.3,1.6c-6.7,15.5-9.6,27-15.4,43c-4.3,12.9-23.2,19.8-34,18.9c-9.7-0.4-16-4.2-15.6-15.2
		c0.2-2.2-0.4-5.5,1.6-6.8c5.6-2.7,28.2-5.4,39.8-15.6c5.6-4.6,8.5-12.4,6.3-19.5c-2.7-8.2-11.8-10.4-19.6-10.7
		c-26.4-0.8-43.7,24-47.2,47.6c-0.4,2.8-1.3,5.3-3.2,7.9c-3.4,4.7-7,7.9-10.4,9c-8.4,2.2-9.1-6-7.5-12.2c7.7-27.6,16.3-55,24.7-82.5
		c0.4-1.6,0.2-2.8-1.4-3.1c-4.4-0.2-8.4,0.4-12.7,0.6c-2.2,0.1-4.5,1-5.3,3.3c-8.2,28-17.3,55.8-23.7,84.3
		c-0.8,6.3-0.3,14.3,4.9,18.5c8.4,5.8,19.6,4.2,28.2-4.1c1.2-1.1,2.5-2.5,3.5-3.7c0.9-0.9,1.8-2.7,3-2c0.7,0.6,1.1,1.6,1.6,2.4
		c4.3,9.1,14.5,13.2,24.1,13.4c13,0.4,25.9-5.4,36.1-13.8c0.7-0.5,1.7-1.4,2.4-1.4c1.2,0,1.3,2.4,1.5,3.6
		c2.6,16.6,21,20.8,33.7,12.1c2.2-1.4,2.7-0.8,1.9,1.5c-0.8,2.8-2.1,5.7-5.2,6.6c-11.7,3.8-29.1,9.2-27.1,23.4
		c1.3,8.5,10.8,11.6,18.2,12.2c8.8,0.7,14.8-1.6,20.9-12.9c2-3.7,3.6-7.6,5-11.3c10.5-28.3,21.4-56.5,32.3-84.7c1-2.7-0.7-3.7-3.1-4
		c-3.4-0.5-6.3-0.8-9.8-1.3c-1.2-0.1-2.5-0.1-3.6,0.5L533.7,65.7z M455.2,63.9c3.1,0.2,6,2.4,5.9,5.7c0.8,14.6-29.6,28-34.8,26.9
		c-2.9,0.1,6.2-13.9,7.5-15.8c5-7,12.3-17.1,21.2-16.8L455.2,63.9z M500.2,153.4c-2.4,7-6.8,16.6-12.1,17.1
		c-4.9,0.9-9.4-3.2-7.9-8.2c0.9-4.9,10.9-11.9,20.3-13.5c2,0.1,0.1,3.2-0.2,4.4L500.2,153.4z"/>
	<path fill="inherit" d="M359.8,51.1c-9.3-0.5-16.6,5.9-23.5,11.6c-1.8,0.9-0.1-3.5,0.1-4.9c1.1-3.6,1.8-6.5-2.8-6.5
		c-3.5,0-6.5-0.1-10-0.1c-2.8-0.1-4.8,1.5-5.3,4.3c-3.7,14.8-7.1,29.6-10.7,44.4c-1.9,7.1-8.8,18.9-16.6,19.7
		c-10.8-0.3-4.5-16.8-3.5-23.3c2.9-12.9,4.9-21.8,8.1-35.1c0.7-2.7,0.6-4.6-2.8-4.2c-3.4,0.2-7-0.3-10.4-1.3
		c-3.1-1.2-4.3,0.5-4.9,3.4c-3.6,15.7-5.6,26.8-9.3,42.7c-1.1,3.8-3.6,8.1-5.7,11.2c-3,4.1-5.8,7.5-10.7,7.7c-2.2,0-4.1-1.4-4.9-3.6
		c-3.9-17.7,11.3-38.4,4.3-55.9c-2.9-7.6-12.8-9.7-21.1-8.4c-5,0.7-11,2.9-17.1,9.1c-0.8,0.6-3,3.5-3.5,2.2
		c1.8-13.6,4.3-23.2,6.7-36.7c0.2-1.1,0.4-2.4,0.1-3.3c-0.4-1.3-2.3-1.3-3.7-1c-3.7,0.6-6.7,1.2-10.4,1.9c-2.5,0.4-4.5,1.9-4.9,4.5
		c-6.2,34-11.9,68.2-17.2,102.3c-0.6,3,0.1,4.8,3.5,4.4c3.2-0.2,5.9-0.5,9-0.7c2.3-0.1,4.3-1.2,4.9-3.6c3-16.5,4.6-27.4,7.6-43.9
		c1.3-9.1,8.8-20.6,17.1-22.4c8.2-1.9,12.1,2.4,11.5,10.6c-0.2,15-18.2,51.5,6.8,56.8c8.5,1.2,15-1.1,22.2-9.1
		c1.1-1.2,2.2-2.8,3.1-3.8c0.3-0.3,0.6-0.5,0.8-0.4c0.9,0.4,1,1.6,1.4,2.5c2.1,7.3,9.1,10.6,16.9,9.9c4.5-0.4,8.6-1.8,13.8-6.4
		c0.7-0.6,1.5-1.3,2.2-1.8c2.3-1.5-0.3,4.1,0.4,5.4c0.4,1.6,2.4,1.7,3.8,1.7c3.1,0,5.7,0,8.8-0.1c1.3,0,2.7-0.2,3.7-1.1
		c0.9-0.8,1.4-2.2,1.6-3.4c4-16.7,8.1-33.4,12.3-50.1c0.6-2.7,2.1-5,4.5-6.4c5.9-3.7,12.9-7.5,18.9-2.9c3.1,2.4,7.3,1.9,10.5-0.6
		c3.5-2.5,5.3-8.6,2.5-12.1c-1.8-2.2-5.4-3.1-8.3-3.2L359.8,51.1z"/>
	<path fill="inherit" d="M164.2,53.5c-2.4,0-5.3-1.1-6.3-1.9c-0.2-0.2-0.4-0.4-0.4-0.7c-0.1-0.7,0.8-1.7,1.9-3.3
		c3.6-4.7,6.9-11.5,2.9-16.8c-7.6-10.4-33.7-3.1-35.7,9.1c-1.1,5.4,2.2,11.7,5.9,15.8c11.8,13.1,33.9,19.5,39.6,38.2
		c9.6,31.8-23.1,53.6-52.1,49.7c-10.9-1-22.3-6.3-25.5-17.5c-3.7-11.2,1.2-23.8,11.1-29.7c9-5.7,16.4-4.3,23.5,3.4
		c1.3,1.5,0.8,2.1-1.6,3.1c-6,2.9-16.1,6.9-16.7,15c1.2,26.6,48.8,16.3,40-13.7c-2.9-10.2-11.1-17-19.5-23.4
		c-10.3-7.9-23.1-16.7-23.7-30.8C106.7,22.4,173,6.3,177.6,35c1.5,8.8-4,18.1-13.2,18.4L164.2,53.5z"/>
</g>
<g id="flower_00000003792064629396639240000010337964621590134666_">
	<path id="flower" fill-rule="evenodd" clip-rule="evenodd" fill="#F99D1C" d="M288.3,49.8c13.4,1.9,15.2-8.8,19.5-18.3
		c0.7-1.4,1.8-2.6,2.7-3.7c0.3-0.4,0.4-0.7,0.3-0.9c-0.1-0.2-0.5-0.4-1.1-0.5c-2.4-0.3-5,0.3-7.1,1.3c-1.8,0.7-3.5,2.9-3.8,1.5
		c0.1-3.1-1.6-9.9-5.9-7.3c-1.7,1-3.3,2.6-4.3,4.4c-0.4,0.7-1,2.2-1.8,0.9c-1.4-2.5-3.8-4.8-6.7-5.7c-0.6-0.2-1.5-0.5-2-0.1
		c-0.2,0.2-0.2,0.5-0.2,1c0.4,1.6,0.7,3.3,0.6,5c-0.8,10.1-3.7,19.6,9.3,22.2L288.3,49.8z"/>
</g>
</svg>
