<?xml version="1.0" encoding="utf-8"?>
<!-- Generator: Adobe Illustrator 28.0.0, SVG Export Plug-In . SVG Version: 6.00 Build 0)  -->
<svg version="1.1" xmlns="http://www.w3.org/2000/svg" xmlns:xlink="http://www.w3.org/1999/xlink" x="0px" y="0px"
	 viewBox="0 0 1920 1080" style="enable-background:new 0 0 1920 1080;" xml:space="preserve">
<style type="text/css">
	.st0{opacity:0.25;fill:none;stroke:#FFFFFF;stroke-width:2;stroke-miterlimit:10;}
	.st1{opacity:0.5;fill:none;stroke:#FFFFFF;stroke-width:2;stroke-miterlimit:10;}
	.st2{opacity:0.22;fill:none;stroke:#FFFFFF;stroke-width:2;stroke-miterlimit:10;}
	.st3{opacity:0.79;fill:none;stroke:#FFFFFF;stroke-width:2;stroke-miterlimit:10;}
	.st4{fill:none;stroke:#FFFFFF;stroke-width:2;stroke-miterlimit:10;}
	.st5{fill:none;stroke:#FFFFFF;stroke-miterlimit:10;}
	.st6{display:none;}
	.st7{display:inline;fill:none;stroke:#FFFFFF;stroke-miterlimit:10;}
	.st8{display:inline;}
	.st9{opacity:0.2;fill:none;stroke:#FFFFFF;stroke-miterlimit:10;}
	.st10{opacity:0.2333;fill:none;stroke:#FFFFFF;stroke-miterlimit:10;}
	.st11{opacity:0.2667;fill:none;stroke:#FFFFFF;stroke-miterlimit:10;}
	.st12{opacity:0.3;fill:none;stroke:#FFFFFF;stroke-miterlimit:10;}
	.st13{opacity:0.3333;fill:none;stroke:#FFFFFF;stroke-miterlimit:10;}
	.st14{opacity:0.3667;fill:none;stroke:#FFFFFF;stroke-miterlimit:10;}
	.st15{opacity:0.4;fill:none;stroke:#FFFFFF;stroke-miterlimit:10;}
	.st16{opacity:0.4333;fill:none;stroke:#FFFFFF;stroke-miterlimit:10;}
	.st17{opacity:0.4667;fill:none;stroke:#FFFFFF;stroke-miterlimit:10;}
	.st18{opacity:0.5;fill:none;stroke:#FFFFFF;stroke-miterlimit:10;}
	
		.st19{clip-path:url(#SVGID_00000115485302723753474710000002388461366054727327_);fill:none;stroke:#FFFFFF;stroke-width:2;stroke-miterlimit:10;}
	.st20{clip-path:url(#SVGID_00000003085435339118183480000003480255357504273343_);}
	.st21{opacity:0.94;fill:#FFFFFF;}
	.st22{display:inline;opacity:0.94;fill:none;stroke:#FFFFFF;stroke-miterlimit:10;}
	.st23{display:inline;opacity:0.31;fill:none;stroke:#FFFFFF;stroke-miterlimit:10;}
	.st24{display:inline;opacity:0.87;fill:none;stroke:#FFFFFF;stroke-miterlimit:10;}
	.st25{display:inline;opacity:0.96;fill:none;stroke:#FFFFFF;stroke-miterlimit:10;}
	.st26{display:inline;opacity:0.83;fill:none;stroke:#FFFFFF;stroke-miterlimit:10;}
	.st27{display:inline;opacity:0.71;fill:none;stroke:#FFFFFF;stroke-miterlimit:10;}
	.st28{display:inline;opacity:0.99;fill:none;stroke:#FFFFFF;stroke-miterlimit:10;}
	.st29{display:inline;opacity:0.14;fill:none;stroke:#FFFFFF;stroke-miterlimit:10;}
	.st30{display:inline;opacity:0.64;fill:none;stroke:#FFFFFF;stroke-miterlimit:10;}
	.st31{display:inline;opacity:0.57;fill:none;stroke:#FFFFFF;stroke-miterlimit:10;}
	.st32{display:inline;opacity:0.38;fill:none;stroke:#FFFFFF;stroke-miterlimit:10;}
	.st33{display:inline;opacity:0.52;fill:none;stroke:#FFFFFF;stroke-miterlimit:10;}
	.st34{display:inline;opacity:0.18;fill:none;stroke:#FFFFFF;stroke-miterlimit:10;}
	.st35{display:inline;opacity:0.68;fill:none;stroke:#FFFFFF;stroke-miterlimit:10;}
	.st36{display:inline;opacity:0.8;fill:none;stroke:#FFFFFF;stroke-miterlimit:10;}
	.st37{display:inline;opacity:0.26;fill:none;stroke:#FFFFFF;stroke-miterlimit:10;}
	.st38{display:inline;opacity:0.97;fill:none;stroke:#FFFFFF;stroke-miterlimit:10;}
	.st39{display:inline;opacity:0.28;fill:none;stroke:#FFFFFF;stroke-miterlimit:10;}
	.st40{display:inline;opacity:0.17;fill:none;stroke:#FFFFFF;stroke-miterlimit:10;}
	.st41{display:inline;opacity:0.34;fill:none;stroke:#FFFFFF;stroke-miterlimit:10;}
	.st42{display:inline;opacity:6.000000e-02;fill:none;stroke:#FFFFFF;stroke-miterlimit:10;}
	.st43{display:inline;opacity:0.4;fill:none;stroke:#FFFFFF;stroke-miterlimit:10;}
	.st44{display:inline;opacity:0.16;fill:none;stroke:#FFFFFF;stroke-miterlimit:10;}
	.st45{display:inline;opacity:0.98;fill:none;stroke:#FFFFFF;stroke-miterlimit:10;}
	.st46{display:inline;opacity:0.6;fill:none;stroke:#FFFFFF;stroke-miterlimit:10;}
	.st47{display:inline;opacity:0.24;fill:none;stroke:#FFFFFF;stroke-miterlimit:10;}
	.st48{display:inline;opacity:8.000000e-02;fill:none;stroke:#FFFFFF;stroke-miterlimit:10;}
	.st49{display:inline;opacity:5.000000e-02;fill:none;stroke:#FFFFFF;stroke-miterlimit:10;}
	.st50{display:inline;opacity:0.33;fill:none;stroke:#FFFFFF;stroke-miterlimit:10;}
	.st51{display:inline;opacity:0.49;fill:none;stroke:#FFFFFF;stroke-miterlimit:10;}
	.st52{display:inline;opacity:0.67;fill:none;stroke:#FFFFFF;stroke-miterlimit:10;}
	.st53{display:inline;opacity:0.78;fill:none;stroke:#FFFFFF;stroke-miterlimit:10;}
	.st54{display:inline;opacity:0.58;fill:none;stroke:#FFFFFF;stroke-miterlimit:10;}
	.st55{display:inline;opacity:0.48;fill:none;stroke:#FFFFFF;stroke-miterlimit:10;}
	.st56{display:inline;opacity:0.93;fill:none;stroke:#FFFFFF;stroke-miterlimit:10;}
	.st57{display:inline;opacity:0.92;fill:none;stroke:#FFFFFF;stroke-miterlimit:10;}
	.st58{display:inline;opacity:0.77;fill:none;stroke:#FFFFFF;stroke-miterlimit:10;}
	.st59{display:inline;opacity:0.45;fill:none;stroke:#FFFFFF;stroke-miterlimit:10;}
	.st60{display:inline;opacity:0.5;fill:none;stroke:#FFFFFF;stroke-miterlimit:10;}
	.st61{display:inline;opacity:0.7;fill:none;stroke:#FFFFFF;stroke-miterlimit:10;}
	.st62{display:inline;opacity:0.15;fill:none;stroke:#FFFFFF;stroke-miterlimit:10;}
	.st63{display:inline;opacity:0.9;fill:none;stroke:#FFFFFF;stroke-miterlimit:10;}
	.st64{display:inline;opacity:0.84;fill:none;stroke:#FFFFFF;stroke-miterlimit:10;}
	.st65{display:inline;opacity:0.25;fill:none;stroke:#FFFFFF;stroke-miterlimit:10;}
	.st66{display:inline;opacity:0.76;fill:none;stroke:#FFFFFF;stroke-miterlimit:10;}
	.st67{display:inline;opacity:0.39;fill:none;stroke:#FFFFFF;stroke-miterlimit:10;}
	.st68{opacity:0.78;}
	.st69{fill:#FFFFFF;}
	.st70{display:none;opacity:0.15;}
	.st71{display:inline;fill:#FFFFFF;}
</style>
<g id="Topogrpahy">
</g>
<g id="swoosh">
	<g>
		<path class="st5" d="M-76.1-234.3C-161.9-74.6-243,91.6-267.9,272.5C-315.1,581.2-201,896-4,1132.6
			c104,128,227.9,237.7,348.9,349.9c105.2,96.6,206.7,197,306.4,299.2"/>
		<path class="st5" d="M776.6,1718.8c-72-132.4-136.8-280.1-247.8-407C418.7,1186,290.1,1072.6,181.3,942
			C-6.3,716.7-120.7,424.4-98.4,140.5C-85.3-26-26-178.2,39-324.4"/>
		<path class="st5" d="M901.9,1655.8c-44.2-162.5-72.7-356.1-189.1-514.7c-100.9-137.4-233.6-255.8-346.2-389.8
			C186.8,538.7,71.3,267.3,71.1,8.6c-0.1-152.4,38.8-290.4,83.1-423.2"/>
		<path class="st5" d="M1027.2,1592.8c-16.5-192.6-9.8-430.7-130.5-622.4c-92.9-147.5-228-272.8-344.8-409.8
			C380.7,360.1,263.2,110.2,240.6-123.4c-13.4-138.3,5.3-262.1,28.7-381.4"/>
		<path class="st5" d="M1152.5,1529.9c11.2-222.7,51.7-504.5-71.9-730.1c-86-157-222.3-289.8-343.4-429.7
			C574.5,181.5,455-47.1,410.1-255.4c-26.8-124.2-28.3-233.7-25.6-339.6"/>
		<path class="st5" d="M1277.7,1466.9c38.9-252.8,111.9-577.7-13.3-837.8c-79.9-166.1-216.7-306.7-342.1-449.7
			C768.4,2.9,646.5-204.3,579.6-387.3c-40.2-110.1-61.9-205.4-80-297.8"/>
		<path class="st5" d="M1403,1403.9c66.7-283,170.8-650.5,45.4-945.5c-74.5-175.1-211-323.7-340.7-469.6
			C962.3-175.7,837.8-361.3,749.1-519.3c-53.9-96-95.5-177-134.3-256"/>
		<path class="st5" d="M1528.3,1340.9c94.4-313.1,228.6-723.1,104-1053.2c-69.5-184.1-205.4-340.7-339.3-489.6
			c-136.8-152.4-264.1-316.2-374.4-449.4C851-732.9,789.6-800,729.9-865.5"/>
		<path class="st5" d="M1653.6,1277.9c122.1-343.2,285.2-795.6,162.6-1160.9c-64.8-193.2-199.7-357.6-337.9-509.6
			c-128.1-140.3-258.3-282-390.2-390.7c-81.4-67.1-162.6-120.3-243-172.4"/>
		<path class="st5" d="M1778.9,1215c149.8-373.3,340.9-868,221.2-1268.6C1939.6-256,1806-428.3,1663.5-583.2
			c-119.5-128.3-252-247.9-405.9-332.1c-94.9-52.6-196.2-92-297.4-130.6"/>
	</g>
</g>
<g id="grid_00000025440360682593285260000004292783832669771684_" class="st6">
</g>
<g id="mountain">
</g>
<g id="range">
</g>
<g id="space" class="st6">
</g>
<g id="Layer_7">
</g>
</svg>
