<?xml version="1.0" encoding="utf-8"?>
<!-- Generator: Adobe Illustrator 28.0.0, SVG Export Plug-In . SVG Version: 6.00 Build 0)  -->
<svg version="1.1" xmlns="http://www.w3.org/2000/svg" xmlns:xlink="http://www.w3.org/1999/xlink" x="0px" y="0px"
	 viewBox="0 0 1920 1080" style="enable-background:new 0 0 1920 1080;" xml:space="preserve">
<style type="text/css">
	.st0{opacity:0.25;fill:none;stroke:#FFFFFF;stroke-width:2;stroke-miterlimit:10;}
	.st1{opacity:0.5;fill:none;stroke:#FFFFFF;stroke-width:2;stroke-miterlimit:10;}
	.st2{opacity:0.22;fill:none;stroke:#FFFFFF;stroke-width:2;stroke-miterlimit:10;}
	.st3{opacity:0.79;fill:none;stroke:#FFFFFF;stroke-width:2;stroke-miterlimit:10;}
	.st4{fill:none;stroke:#FFFFFF;stroke-width:2;stroke-miterlimit:10;}
	.st5{fill:none;stroke:#FFFFFF;stroke-miterlimit:10;}
	.st6{display:none;}
	.st7{display:inline;fill:none;stroke:#FFFFFF;stroke-miterlimit:10;}
	.st8{display:inline;}
	.st9{opacity:0.2;fill:none;stroke:#FFFFFF;stroke-miterlimit:10;}
	.st10{opacity:0.2333;fill:none;stroke:#FFFFFF;stroke-miterlimit:10;}
	.st11{opacity:0.2667;fill:none;stroke:#FFFFFF;stroke-miterlimit:10;}
	.st12{opacity:0.3;fill:none;stroke:#FFFFFF;stroke-miterlimit:10;}
	.st13{opacity:0.3333;fill:none;stroke:#FFFFFF;stroke-miterlimit:10;}
	.st14{opacity:0.3667;fill:none;stroke:#FFFFFF;stroke-miterlimit:10;}
	.st15{opacity:0.4;fill:none;stroke:#FFFFFF;stroke-miterlimit:10;}
	.st16{opacity:0.4333;fill:none;stroke:#FFFFFF;stroke-miterlimit:10;}
	.st17{opacity:0.4667;fill:none;stroke:#FFFFFF;stroke-miterlimit:10;}
	.st18{opacity:0.5;fill:none;stroke:#FFFFFF;stroke-miterlimit:10;}
	
		.st19{clip-path:url(#SVGID_00000062182667254286951410000013323782459399443385_);fill:none;stroke:#FFFFFF;stroke-width:2;stroke-miterlimit:10;}
	.st20{clip-path:url(#SVGID_00000101080289571977174280000010318264467870069405_);}
	.st21{opacity:0.94;fill:#FFFFFF;}
	.st22{display:inline;opacity:0.94;fill:none;stroke:#FFFFFF;stroke-miterlimit:10;}
	.st23{display:inline;opacity:0.31;fill:none;stroke:#FFFFFF;stroke-miterlimit:10;}
	.st24{display:inline;opacity:0.87;fill:none;stroke:#FFFFFF;stroke-miterlimit:10;}
	.st25{display:inline;opacity:0.96;fill:none;stroke:#FFFFFF;stroke-miterlimit:10;}
	.st26{display:inline;opacity:0.83;fill:none;stroke:#FFFFFF;stroke-miterlimit:10;}
	.st27{display:inline;opacity:0.71;fill:none;stroke:#FFFFFF;stroke-miterlimit:10;}
	.st28{display:inline;opacity:0.99;fill:none;stroke:#FFFFFF;stroke-miterlimit:10;}
	.st29{display:inline;opacity:0.14;fill:none;stroke:#FFFFFF;stroke-miterlimit:10;}
	.st30{display:inline;opacity:0.64;fill:none;stroke:#FFFFFF;stroke-miterlimit:10;}
	.st31{display:inline;opacity:0.57;fill:none;stroke:#FFFFFF;stroke-miterlimit:10;}
	.st32{display:inline;opacity:0.38;fill:none;stroke:#FFFFFF;stroke-miterlimit:10;}
	.st33{display:inline;opacity:0.52;fill:none;stroke:#FFFFFF;stroke-miterlimit:10;}
	.st34{display:inline;opacity:0.18;fill:none;stroke:#FFFFFF;stroke-miterlimit:10;}
	.st35{display:inline;opacity:0.68;fill:none;stroke:#FFFFFF;stroke-miterlimit:10;}
	.st36{display:inline;opacity:0.8;fill:none;stroke:#FFFFFF;stroke-miterlimit:10;}
	.st37{display:inline;opacity:0.26;fill:none;stroke:#FFFFFF;stroke-miterlimit:10;}
	.st38{display:inline;opacity:0.97;fill:none;stroke:#FFFFFF;stroke-miterlimit:10;}
	.st39{display:inline;opacity:0.28;fill:none;stroke:#FFFFFF;stroke-miterlimit:10;}
	.st40{display:inline;opacity:0.17;fill:none;stroke:#FFFFFF;stroke-miterlimit:10;}
	.st41{display:inline;opacity:0.34;fill:none;stroke:#FFFFFF;stroke-miterlimit:10;}
	.st42{display:inline;opacity:6.000000e-02;fill:none;stroke:#FFFFFF;stroke-miterlimit:10;}
	.st43{display:inline;opacity:0.4;fill:none;stroke:#FFFFFF;stroke-miterlimit:10;}
	.st44{display:inline;opacity:0.16;fill:none;stroke:#FFFFFF;stroke-miterlimit:10;}
	.st45{display:inline;opacity:0.98;fill:none;stroke:#FFFFFF;stroke-miterlimit:10;}
	.st46{display:inline;opacity:0.6;fill:none;stroke:#FFFFFF;stroke-miterlimit:10;}
	.st47{display:inline;opacity:0.24;fill:none;stroke:#FFFFFF;stroke-miterlimit:10;}
	.st48{display:inline;opacity:8.000000e-02;fill:none;stroke:#FFFFFF;stroke-miterlimit:10;}
	.st49{display:inline;opacity:5.000000e-02;fill:none;stroke:#FFFFFF;stroke-miterlimit:10;}
	.st50{display:inline;opacity:0.33;fill:none;stroke:#FFFFFF;stroke-miterlimit:10;}
	.st51{display:inline;opacity:0.49;fill:none;stroke:#FFFFFF;stroke-miterlimit:10;}
	.st52{display:inline;opacity:0.67;fill:none;stroke:#FFFFFF;stroke-miterlimit:10;}
	.st53{display:inline;opacity:0.78;fill:none;stroke:#FFFFFF;stroke-miterlimit:10;}
	.st54{display:inline;opacity:0.58;fill:none;stroke:#FFFFFF;stroke-miterlimit:10;}
	.st55{display:inline;opacity:0.48;fill:none;stroke:#FFFFFF;stroke-miterlimit:10;}
	.st56{display:inline;opacity:0.93;fill:none;stroke:#FFFFFF;stroke-miterlimit:10;}
	.st57{display:inline;opacity:0.92;fill:none;stroke:#FFFFFF;stroke-miterlimit:10;}
	.st58{display:inline;opacity:0.77;fill:none;stroke:#FFFFFF;stroke-miterlimit:10;}
	.st59{display:inline;opacity:0.45;fill:none;stroke:#FFFFFF;stroke-miterlimit:10;}
	.st60{display:inline;opacity:0.5;fill:none;stroke:#FFFFFF;stroke-miterlimit:10;}
	.st61{display:inline;opacity:0.7;fill:none;stroke:#FFFFFF;stroke-miterlimit:10;}
	.st62{display:inline;opacity:0.15;fill:none;stroke:#FFFFFF;stroke-miterlimit:10;}
	.st63{display:inline;opacity:0.9;fill:none;stroke:#FFFFFF;stroke-miterlimit:10;}
	.st64{display:inline;opacity:0.84;fill:none;stroke:#FFFFFF;stroke-miterlimit:10;}
	.st65{display:inline;opacity:0.25;fill:none;stroke:#FFFFFF;stroke-miterlimit:10;}
	.st66{display:inline;opacity:0.76;fill:none;stroke:#FFFFFF;stroke-miterlimit:10;}
	.st67{display:inline;opacity:0.39;fill:none;stroke:#FFFFFF;stroke-miterlimit:10;}
	.st68{opacity:0.78;}
	.st69{fill:#FFFFFF;}
	.st70{display:none;opacity:0.15;}
	.st71{display:inline;fill:#FFFFFF;}
</style>
<g id="Topogrpahy">
</g>
<g id="swoosh">
</g>
<g id="grid_00000025440360682593285260000004292783832669771684_" class="st6">
</g>
<g id="mountain">
</g>
<g id="range">
</g>
<g id="space" class="st6">
	<rect x="-0.5" y="0.5" class="st21" width="1921" height="1080"/>
	<circle class="st22" cx="262.4" cy="267.6" r="19.8"/>
	<circle class="st23" cx="807.5" cy="144.9" r="22.6"/>
	<circle class="st24" cx="225.4" cy="550.2" r="18.1"/>
	<circle class="st25" cx="1785.7" cy="852.6" r="22.3"/>
	<circle class="st26" cx="1207.4" cy="820.7" r="17.3"/>
	<circle class="st27" cx="1459" cy="830.4" r="13.2"/>
	<circle class="st28" cx="620.9" cy="1021.2" r="12.7"/>
	<circle class="st29" cx="527.8" cy="321.7" r="21.8"/>
	<circle class="st30" cx="725" cy="535.1" r="17.6"/>
	<circle class="st31" cx="484" cy="936" r="12.6"/>
	<circle class="st32" cx="705.9" cy="702.2" r="12.6"/>
	<circle class="st33" cx="37" cy="169.6" r="21"/>
	<circle class="st34" cx="1514.2" cy="190.7" r="17.5"/>
	<circle class="st35" cx="33.7" cy="704.2" r="15.1"/>
	<circle class="st36" cx="1681" cy="60.1" r="17"/>
	<circle class="st37" cx="1639.2" cy="303" r="12.6"/>
	<circle class="st38" cx="1588" cy="731.7" r="13.1"/>
	<circle class="st39" cx="18" cy="470.8" r="12.9"/>
	<circle class="st23" cx="1815.2" cy="1024.9" r="12.6"/>
	<circle class="st35" cx="1341.4" cy="363.6" r="14.8"/>
	<circle class="st40" cx="1135.1" cy="536.7" r="16.1"/>
	<circle class="st25" cx="984" cy="1011.6" r="35.4"/>
	<circle class="st41" cx="1800.4" cy="436.5" r="19.7"/>
	<circle class="st42" cx="622.4" cy="80.8" r="26.9"/>
	<circle class="st43" cx="280.8" cy="51.6" r="15.9"/>
	<circle class="st44" cx="1887.3" cy="620" r="15.4"/>
	<circle class="st45" cx="396.2" cy="435.5" r="12.6"/>
	<circle class="st46" cx="254.2" cy="779.9" r="22.2"/>
	<circle class="st47" cx="1066.4" cy="108.1" r="18.6"/>
	<circle class="st25" cx="806.9" cy="352.9" r="14.4"/>
	<circle class="st48" cx="1281.1" cy="35.5" r="24.2"/>
	<circle class="st49" cx="63.2" cy="1002.8" r="14.2"/>
	<circle class="st50" cx="1599.5" cy="560.9" r="16.3"/>
	<circle class="st51" cx="813" cy="920.6" r="12.7"/>
	<circle class="st52" cx="334.2" cy="999.6" r="13.8"/>
	<circle class="st41" cx="931.6" cy="718.8" r="20.5"/>
	<circle class="st47" cx="380.9" cy="616.2" r="12.6"/>
	<circle class="st53" cx="967.2" cy="469.6" r="14.5"/>
	<circle class="st54" cx="1574.6" cy="943.8" r="12.6"/>
	<circle class="st24" cx="1442.9" cy="650" r="14.6"/>
	<circle class="st37" cx="1009.7" cy="311.5" r="12.6"/>
	<circle class="st55" cx="411.3" cy="153.5" r="12.6"/>
	<circle class="st56" cx="1385.3" cy="1054.7" r="18.1"/>
	<circle class="st38" cx="1215.8" cy="200.7" r="12.6"/>
	<circle class="st50" cx="1171.1" cy="1061.5" r="12.6"/>
	<circle class="st57" cx="1873.7" cy="170" r="15.5"/>
	<circle class="st58" cx="1487.9" cy="437.6" r="12.6"/>
	<circle class="st59" cx="539.8" cy="775.2" r="16.2"/>
	<circle class="st30" cx="1310.4" cy="553.7" r="12.6"/>
	<circle class="st44" cx="540.4" cy="568.4" r="16.4"/>
	<circle class="st60" cx="1835.9" cy="15.4" r="8.4"/>
	<circle class="st54" cx="1172.2" cy="379.5" r="9.5"/>
	<circle class="st29" cx="1106.6" cy="694.1" r="8.4"/>
	<circle class="st61" cx="1452.2" cy="19" r="8.6"/>
	<circle class="st56" cx="928.3" cy="20.6" r="8.4"/>
	<circle class="st37" cx="136.9" cy="368.9" r="5.6"/>
	<circle class="st62" cx="98.5" cy="17.3" r="6.4"/>
	<circle class="st28" cx="29.6" cy="856" r="3.7"/>
	<circle class="st63" cx="663.4" cy="866.3" r="3.7"/>
	<circle class="st23" cx="1040.8" cy="835.2" r="3.7"/>
	<circle class="st64" cx="690.1" cy="257.5" r="3.7"/>
	<circle class="st45" cx="1741.9" cy="665.3" r="3.7"/>
	<circle class="st65" cx="765.6" cy="1066.2" r="5.8"/>
	<circle class="st66" cx="1903.3" cy="318.3" r="2.5"/>
	<circle class="st35" cx="430.7" cy="7.7" r="2.9"/>
	<circle class="st67" cx="196.2" cy="929.4" r="2.5"/>
	<circle class="st31" cx="9" cy="324.5" r="1.7"/>
</g>
<g id="Layer_7">
	<rect class="st6" width="1920" height="1080"/>
	<g class="st68">
		<polygon class="st5" points="1232.3,1056.4 1211.7,1043 1233.6,1031.9 1255.5,1020.7 1254.3,1045.3 1253,1069.8 		"/>
		<polygon class="st69" points="1184.3,512.7 1191.7,498.2 1200.5,511.9 1209.4,525.5 1193.1,526.3 1176.9,527.2 		"/>
		<polygon class="st5" points="1041.9,400.8 1044.5,379.4 1061.7,392.4 1079,405.4 1059.1,413.8 1039.2,422.2 		"/>
		<polygon class="st69" points="1626.4,237.3 1635.6,231.1 1641.8,240.3 1651,234.1 1644.8,225 1654,218.8 1647.8,209.6 
			1638.6,215.8 1632.4,206.6 1623.2,212.8 1629.4,222 1620.3,228.2 		"/>
		<polygon class="st69" points="1248.1,269 1246.8,283.9 1231.9,282.6 1230.6,297.5 1245.5,298.8 1244.2,313.7 1259,315 
			1260.3,300.1 1275.2,301.4 1276.5,286.5 1261.6,285.2 1263,270.3 		"/>
		<polygon class="st69" points="368.6,801.7 344.7,805.9 353,783.1 361.3,760.2 377,778.9 392.6,797.5 		"/>
		<circle class="st5" cx="253.8" cy="604.5" r="21.6"/>
		<polygon class="st5" points="459.5,60.8 475.5,59.7 476.6,75.8 492.7,74.6 491.6,58.6 507.6,57.5 506.5,41.4 490.5,42.5 
			489.3,26.5 473.3,27.6 474.4,43.7 458.3,44.8 		"/>
		<polygon class="st69" points="1831.9,12.5 1830.5,32.9 1810.1,31.5 1808.7,51.9 1829.1,53.3 1827.6,73.7 1848,75.1 1849.4,54.7 
			1869.8,56.1 1871.3,35.7 1850.9,34.3 1852.3,13.9 		"/>
		<circle class="st5" cx="766.8" cy="757.8" r="23.1"/>
		<circle class="st69" cx="262.9" cy="963" r="18.5"/>
		<polygon class="st69" points="549.7,372.9 553.7,388.1 538.6,384 523.4,379.9 534.5,368.8 545.6,357.8 		"/>
		<circle class="st69" cx="1086.2" cy="140.2" r="33.2"/>
		<polygon class="st5" points="1427.2,964.5 1445.3,968.3 1432.9,982.1 1420.6,995.8 1414.8,978.2 1409.1,960.6 		"/>
		<polygon class="st5" points="893.3,516.4 884.4,503.6 897.2,494.6 888.2,481.8 875.4,490.8 866.4,477.9 853.6,486.9 862.6,499.7 
			849.7,508.7 858.7,521.5 871.5,512.6 880.5,525.4 		"/>
		<circle class="st5" cx="1395.4" cy="706.2" r="17.8"/>
		<polygon class="st69" points="10.3,989.5 15.4,998.7 6.2,1003.8 11.3,1013.1 20.6,1007.9 25.7,1017.2 34.9,1012.1 29.8,1002.8 
			39,997.7 33.9,988.5 24.7,993.6 19.6,984.4 		"/>
		<polygon class="st5" points="528.2,827.7 539,835.2 531.4,846 542.2,853.6 549.8,842.8 560.6,850.3 568.1,839.5 557.3,832 
			564.9,821.2 554.1,813.6 546.5,824.4 535.7,816.9 		"/>
		<polygon class="st5" points="1618.5,543.8 1637.3,566.9 1607.9,571.6 1578.5,576.2 1589.1,548.4 1599.8,520.6 		"/>
		<circle class="st69" cx="1560.1" cy="814.8" r="25.9"/>
		<circle class="st5" cx="879.5" cy="1007.3" r="30.8"/>
		<circle class="st5" cx="1700" cy="1052.2" r="17.3"/>
		<polygon class="st69" points="1282.8,82.2 1278.9,96.8 1268.2,86.1 1257.5,75.4 1272.2,71.5 1286.8,67.6 		"/>
		<circle class="st5" cx="156.4" cy="322.2" r="26.2"/>
		<polygon class="st69" points="335.7,453.9 336.5,438.8 349.2,447 361.9,455.3 348.4,462.1 334.9,469 		"/>
		<polygon class="st5" points="621.8,1035.4 626.5,1055.7 606.5,1049.6 586.6,1043.5 601.8,1029.3 617.1,1015 		"/>
		<circle class="st69" cx="59.9" cy="69.8" r="23"/>
		<polygon class="st5" points="1057.9,848.5 1038.3,848.1 1038.7,828.5 1019.1,828.2 1018.8,847.8 999.2,847.4 998.8,867 
			1018.4,867.4 1018.1,887 1037.7,887.3 1038,867.7 1057.6,868.1 		"/>
		<polygon class="st5" points="1784.2,500.5 1799.8,511.9 1788.4,527.5 1804.1,538.9 1815.4,523.2 1831.1,534.6 1842.4,519 
			1826.8,507.6 1838.2,492 1822.5,480.6 1811.2,496.2 1795.5,484.9 		"/>
		<circle class="st5" cx="723" cy="316.9" r="18.5"/>
		<circle class="st69" cx="466.9" cy="631" r="15.1"/>
		<polygon class="st5" points="391.9,257.4 367.7,269.7 369.1,242.7 370.6,215.6 393.3,230.4 416,245.2 		"/>
		<circle class="st5" cx="1442.3" cy="135.7" r="24.2"/>
		<circle class="st69" cx="57.8" cy="683.4" r="27.3"/>
		<polygon class="st69" points="1723.6,764.3 1731.4,757.9 1737.7,765.8 1745.6,759.4 1739.2,751.6 1747.1,745.2 1740.7,737.4 
			1732.9,743.8 1726.5,735.9 1718.7,742.3 1725.1,750.1 1717.2,756.4 		"/>
		<circle class="st69" cx="862.3" cy="38.9" r="15.7"/>
		<polygon class="st5" points="1033,608.9 1029.8,623.7 1018.6,613.6 1007.4,603.5 1021.7,598.8 1036.1,594.1 		"/>
		<circle class="st5" cx="1859.4" cy="237.3" r="18"/>
		<circle class="st69" cx="1495.9" cy="338" r="16.4"/>
		<circle class="st5" cx="893.6" cy="205" r="15.1"/>
		<polygon class="st69" points="1187.2,683.2 1192.2,697.5 1177.3,694.6 1162.5,691.8 1172.4,680.3 1182.3,668.9 		"/>
		<circle class="st5" cx="228.2" cy="132" r="15.1"/>
		<polygon class="st69" points="674.7,572.5 694.2,563.8 692,585.1 689.8,606.3 672.5,593.7 655.2,581.2 		"/>
		<polygon class="st69" points="695.9,86.5 694.1,72.2 708.4,70.5 706.7,56.2 692.4,57.9 690.6,43.6 676.3,45.4 678,59.7 
			663.7,61.4 665.5,75.7 679.8,74 681.6,88.3 		"/>
		<polygon class="st5" points="63.8,466.5 73.5,478.1 58.6,480.7 43.8,483.3 48.9,469.1 54.1,454.9 		"/>
		<polygon class="st69" points="1875.9,852.1 1875,869.3 1857.8,868.4 1856.9,885.5 1874.1,886.4 1873.2,903.6 1890.4,904.5 
			1891.3,887.3 1908.5,888.2 1909.4,871.1 1892.2,870.2 1893.1,853 		"/>
		<polygon class="st69" points="440,1058 429.9,1053.5 434.4,1043.4 424.3,1039 419.8,1049 409.7,1044.6 405.3,1054.6 415.3,1059.1 
			410.9,1069.2 420.9,1073.7 425.4,1063.6 435.5,1068.1 		"/>
		<circle class="st5" cx="127.1" cy="855.6" r="15.1"/>
		<circle class="st5" cx="1646" cy="34.8" r="17.7"/>
		<circle class="st5" cx="1274" cy="859.3" r="15.1"/>
		<polygon class="st69" points="1066.5,1054.7 1063,1048.9 1068.8,1045.5 1065.3,1039.7 1059.5,1043.2 1056.1,1037.4 1050.3,1040.9 
			1053.8,1046.6 1048,1050.1 1051.5,1055.8 1057.2,1052.4 1060.7,1058.1 		"/>
		<polygon class="st5" points="576.1,224.1 582.7,225.3 581.5,231.9 588.1,233.1 589.3,226.4 595.9,227.6 597.1,221 590.5,219.8 
			591.6,213.2 585,212 583.9,218.6 577.2,217.5 		"/>
		<polygon class="st5" points="1364.9,427.6 1358.2,427.3 1358.5,420.6 1351.8,420.2 1351.4,426.9 1344.7,426.6 1344.4,433.3 
			1351.1,433.7 1350.7,440.4 1357.5,440.7 1357.8,434 1364.5,434.4 		"/>
		<circle class="st69" cx="1651.5" cy="385.9" r="10.1"/>
		<circle class="st5" cx="1870" cy="1063.8" r="11.4"/>
		<polygon class="st5" points="1882.2,675.4 1880.6,681.9 1875.8,677.3 1870.9,672.6 1877.4,670.7 1883.9,668.9 		"/>
		<circle class="st5" cx="691.5" cy="903.9" r="4.5"/>
		<polygon class="st69" points="4.6,232.9 1,227.3 7.6,227 14.1,226.7 11.2,232.5 8.2,238.4 		"/>
		<polygon class="st5" points="329,2.6 330.3,3 329.4,3.9 328.4,4.9 328.1,3.6 327.7,2.3 		"/>
		<polygon class="st5" points="1550.6,1066.6 1550.1,1066.4 1550.2,1065.9 1549.6,1065.7 1549.5,1066.3 1548.9,1066.1 
			1548.8,1066.7 1549.3,1066.9 1549.2,1067.4 1549.7,1067.6 1549.9,1067 1550.5,1067.2 		"/>
		<polygon class="st5" points="1428,558.2 1428,557.3 1428.8,557.7 1429.5,558.2 1428.7,558.6 1428,559.1 		"/>
	</g>
	<g class="st70">
		<polygon class="st71" points="1360.8,983 1339.5,998.9 1323.6,977.7 1302.3,993.7 1318.3,1014.9 1297.1,1030.9 1313.1,1052.1 
			1334.3,1036.1 1350.3,1057.4 1371.5,1041.4 1355.5,1020.2 1376.8,1004.2 		"/>
		<polygon class="st71" points="661.5,616.2 640.7,642.9 614,622 593.2,648.7 619.9,669.5 599,696.2 625.7,717 646.5,690.3 
			673.2,711.2 694,684.5 667.3,663.7 688.2,637 		"/>
		<polygon class="st71" points="1379.3,692.9 1388.6,696.9 1384.6,706.2 1393.9,710.1 1397.8,700.8 1407.1,704.8 1411.1,695.5 
			1401.8,691.5 1405.7,682.3 1396.4,678.3 1392.5,687.6 1383.2,683.7 		"/>
		<polygon class="st71" points="821.4,315.4 827.2,307.1 835.6,312.9 841.4,304.6 833.1,298.7 838.9,290.4 830.6,284.5 824.7,292.9 
			816.4,287 810.6,295.4 818.9,301.2 813.1,309.6 		"/>
		<polygon class="st71" points="1685.7,838.8 1673,832.9 1678.9,820.2 1666.2,814.2 1660.3,826.9 1647.5,821 1641.6,833.7 
			1654.3,839.7 1648.4,852.4 1661.1,858.3 1667,845.6 1679.8,851.5 		"/>
		<polygon class="st71" points="51.5,229.6 41.4,225.5 45.5,215.3 35.3,211.2 31.2,221.4 21,217.3 16.9,227.5 27.1,231.6 23,241.7 
			33.1,245.8 37.2,235.7 47.4,239.8 		"/>
		<polygon class="st71" points="1445.4,381.5 1456.2,394.3 1443.3,405.1 1454.1,418 1467,407.2 1477.8,420.1 1490.6,409.3 
			1479.8,396.4 1492.7,385.6 1481.9,372.8 1469,383.5 1458.2,370.7 		"/>
		<polygon class="st71" points="319.8,609.3 309.9,607.4 311.8,597.5 301.9,595.6 300,605.4 290.1,603.5 288.2,613.4 298.1,615.3 
			296.2,625.2 306,627.2 308,617.3 317.9,619.2 		"/>
		<polygon class="st71" points="1107.1,189.4 1125.8,205.6 1109.6,224.3 1128.3,240.6 1144.5,221.9 1163.2,238.1 1179.4,219.4 
			1160.7,203.2 1177,184.5 1158.3,168.3 1142.1,186.9 1123.4,170.7 		"/>
		<polygon class="st71" points="1448.7,96.3 1448.7,86.2 1458.8,86.2 1458.8,76.1 1448.7,76.1 1448.7,66.1 1438.6,66.1 1438.6,76.1 
			1428.5,76.1 1428.5,86.2 1438.6,86.2 1438.6,96.3 		"/>
		<polygon class="st71" points="432.5,328.2 427.7,311.4 444.5,306.6 439.7,289.8 422.9,294.6 418.1,277.8 401.3,282.6 406.1,299.4 
			389.3,304.2 394.1,321 410.9,316.2 415.7,333 		"/>
		<polygon class="st71" points="1887.5,323.2 1886.1,302.2 1907.1,300.7 1905.6,279.7 1884.6,281.2 1883.1,260.2 1862.1,261.7 
			1863.6,282.7 1842.6,284.1 1844,305.2 1865.1,303.7 1866.5,324.7 		"/>
		<polygon class="st71" points="576,1067.5 587.4,1060.7 594.2,1072.1 605.6,1065.2 598.7,1053.9 610.1,1047 603.3,1035.7 
			591.9,1042.5 585.1,1031.1 573.7,1038 580.5,1049.3 569.2,1056.1 		"/>
		<polygon class="st71" points="1112.6,568.8 1071.3,568.8 1071.3,527.4 1029.9,527.4 1029.9,568.8 988.6,568.8 988.6,610.1 
			1029.9,610.1 1029.9,651.4 1071.3,651.4 1071.3,610.1 1112.6,610.1 		"/>
		<polygon class="st71" points="22.1,1059.5 39.5,1051.8 47.3,1069.2 64.7,1061.4 56.9,1044 74.3,1036.3 66.6,1018.9 49.2,1026.6 
			41.4,1009.2 24,1017 31.8,1034.4 14.4,1042.1 		"/>
		<polygon class="st71" points="945.4,1060.9 958.6,1059.1 960.4,1072.2 973.6,1070.3 971.7,1057.2 984.9,1055.4 983,1042.2 
			969.9,1044.1 968,1030.9 954.9,1032.8 956.7,1045.9 943.6,1047.8 		"/>
		<polygon class="st71" points="316.7,917.5 325.5,912 331,920.8 339.8,915.3 334.3,906.4 343.1,900.9 337.6,892.1 328.8,897.6 
			323.3,888.8 314.5,894.3 320,903.1 311.1,908.6 		"/>
		<polygon class="st71" points="266.1,29.1 256.9,25 261,15.8 251.8,11.7 247.7,20.9 238.5,16.8 234.4,26 243.6,30.1 239.5,39.3 
			248.7,43.4 252.8,34.2 262,38.3 		"/>
		<polygon class="st71" points="1884.9,1042.9 1877.7,1050.4 1870.2,1043.2 1863,1050.7 1870.5,1057.9 1863.3,1065.3 1870.7,1072.6 
			1877.9,1065.1 1885.4,1072.3 1892.6,1064.8 1885.2,1057.6 1892.4,1050.2 		"/>
		<polygon class="st71" points="567.5,51.9 571.1,42.5 580.6,46.1 584.2,36.7 574.8,33.1 578.4,23.7 569,20.1 565.3,29.5 
			555.9,25.9 552.3,35.3 561.7,38.9 558.1,48.3 		"/>
		<polygon class="st71" points="22,714 25.3,723.7 15.7,727 19,736.6 28.7,733.3 32,742.9 41.6,739.6 38.3,730 47.9,726.7 44.6,717 
			35,720.3 31.7,710.7 		"/>
		<polygon class="st71" points="1725.2,30.6 1728.7,24.8 1734.4,28.3 1737.9,22.5 1732.1,19.1 1735.6,13.3 1729.8,9.8 1726.4,15.6 
			1720.6,12.1 1717.1,17.9 1722.9,21.4 1719.4,27.1 		"/>
		<polygon class="st71" points="1876,617.8 1869.4,619.2 1868,612.6 1861.5,614 1862.9,620.6 1856.3,622 1857.7,628.5 1864.3,627.1 
			1865.7,633.7 1872.2,632.3 1870.8,625.7 1877.4,624.3 		"/>
		<polygon class="st71" points="889.9,28.4 888,21.9 894.5,20.1 892.7,13.6 886.2,15.5 884.3,9 877.9,10.9 879.7,17.3 873.3,19.2 
			875.1,25.7 881.6,23.8 883.4,30.3 		"/>
	</g>
</g>
</svg>
