<?xml version="1.0" encoding="utf-8"?>
<!-- Generator: Adobe Illustrator 28.0.0, SVG Export Plug-In . SVG Version: 6.00 Build 0)  -->
<svg version="1.1" xmlns="http://www.w3.org/2000/svg" xmlns:xlink="http://www.w3.org/1999/xlink" x="0px" y="0px"
	 viewBox="0 0 1920 1080" style="enable-background:new 0 0 1920 1080;" xml:space="preserve">
<style type="text/css">
	.st0{opacity:0.25;fill:none;stroke:#FFFFFF;stroke-width:2;stroke-miterlimit:10;}
	.st1{opacity:0.5;fill:none;stroke:#FFFFFF;stroke-width:2;stroke-miterlimit:10;}
	.st2{opacity:0.22;fill:none;stroke:#FFFFFF;stroke-width:2;stroke-miterlimit:10;}
	.st3{opacity:0.79;fill:none;stroke:#FFFFFF;stroke-width:2;stroke-miterlimit:10;}
	.st4{fill:none;stroke:#FFFFFF;stroke-width:2;stroke-miterlimit:10;}
	.st5{fill:none;stroke:#FFFFFF;stroke-miterlimit:10;}
	.st6{display:none;}
	.st7{display:inline;fill:none;stroke:#FFFFFF;stroke-miterlimit:10;}
	.st8{display:inline;}
	.st9{opacity:0.2;fill:none;stroke:#FFFFFF;stroke-miterlimit:10;}
	.st10{opacity:0.2333;fill:none;stroke:#FFFFFF;stroke-miterlimit:10;}
	.st11{opacity:0.2667;fill:none;stroke:#FFFFFF;stroke-miterlimit:10;}
	.st12{opacity:0.3;fill:none;stroke:#FFFFFF;stroke-miterlimit:10;}
	.st13{opacity:0.3333;fill:none;stroke:#FFFFFF;stroke-miterlimit:10;}
	.st14{opacity:0.3667;fill:none;stroke:#FFFFFF;stroke-miterlimit:10;}
	.st15{opacity:0.4;fill:none;stroke:#FFFFFF;stroke-miterlimit:10;}
	.st16{opacity:0.4333;fill:none;stroke:#FFFFFF;stroke-miterlimit:10;}
	.st17{opacity:0.4667;fill:none;stroke:#FFFFFF;stroke-miterlimit:10;}
	.st18{opacity:0.5;fill:none;stroke:#FFFFFF;stroke-miterlimit:10;}
	
		.st19{clip-path:url(#SVGID_00000008836111395528855500000004213588614572583574_);fill:none;stroke:#FFFFFF;stroke-width:2;stroke-miterlimit:10;}
	.st20{clip-path:url(#SVGID_00000009564595558913505720000011124860088944133801_);}
	.st21{opacity:0.94;fill:#FFFFFF;}
	.st22{display:inline;opacity:0.94;fill:none;stroke:#FFFFFF;stroke-miterlimit:10;}
	.st23{display:inline;opacity:0.31;fill:none;stroke:#FFFFFF;stroke-miterlimit:10;}
	.st24{display:inline;opacity:0.87;fill:none;stroke:#FFFFFF;stroke-miterlimit:10;}
	.st25{display:inline;opacity:0.96;fill:none;stroke:#FFFFFF;stroke-miterlimit:10;}
	.st26{display:inline;opacity:0.83;fill:none;stroke:#FFFFFF;stroke-miterlimit:10;}
	.st27{display:inline;opacity:0.71;fill:none;stroke:#FFFFFF;stroke-miterlimit:10;}
	.st28{display:inline;opacity:0.99;fill:none;stroke:#FFFFFF;stroke-miterlimit:10;}
	.st29{display:inline;opacity:0.14;fill:none;stroke:#FFFFFF;stroke-miterlimit:10;}
	.st30{display:inline;opacity:0.64;fill:none;stroke:#FFFFFF;stroke-miterlimit:10;}
	.st31{display:inline;opacity:0.57;fill:none;stroke:#FFFFFF;stroke-miterlimit:10;}
	.st32{display:inline;opacity:0.38;fill:none;stroke:#FFFFFF;stroke-miterlimit:10;}
	.st33{display:inline;opacity:0.52;fill:none;stroke:#FFFFFF;stroke-miterlimit:10;}
	.st34{display:inline;opacity:0.18;fill:none;stroke:#FFFFFF;stroke-miterlimit:10;}
	.st35{display:inline;opacity:0.68;fill:none;stroke:#FFFFFF;stroke-miterlimit:10;}
	.st36{display:inline;opacity:0.8;fill:none;stroke:#FFFFFF;stroke-miterlimit:10;}
	.st37{display:inline;opacity:0.26;fill:none;stroke:#FFFFFF;stroke-miterlimit:10;}
	.st38{display:inline;opacity:0.97;fill:none;stroke:#FFFFFF;stroke-miterlimit:10;}
	.st39{display:inline;opacity:0.28;fill:none;stroke:#FFFFFF;stroke-miterlimit:10;}
	.st40{display:inline;opacity:0.17;fill:none;stroke:#FFFFFF;stroke-miterlimit:10;}
	.st41{display:inline;opacity:0.34;fill:none;stroke:#FFFFFF;stroke-miterlimit:10;}
	.st42{display:inline;opacity:6.000000e-02;fill:none;stroke:#FFFFFF;stroke-miterlimit:10;}
	.st43{display:inline;opacity:0.4;fill:none;stroke:#FFFFFF;stroke-miterlimit:10;}
	.st44{display:inline;opacity:0.16;fill:none;stroke:#FFFFFF;stroke-miterlimit:10;}
	.st45{display:inline;opacity:0.98;fill:none;stroke:#FFFFFF;stroke-miterlimit:10;}
	.st46{display:inline;opacity:0.6;fill:none;stroke:#FFFFFF;stroke-miterlimit:10;}
	.st47{display:inline;opacity:0.24;fill:none;stroke:#FFFFFF;stroke-miterlimit:10;}
	.st48{display:inline;opacity:8.000000e-02;fill:none;stroke:#FFFFFF;stroke-miterlimit:10;}
	.st49{display:inline;opacity:5.000000e-02;fill:none;stroke:#FFFFFF;stroke-miterlimit:10;}
	.st50{display:inline;opacity:0.33;fill:none;stroke:#FFFFFF;stroke-miterlimit:10;}
	.st51{display:inline;opacity:0.49;fill:none;stroke:#FFFFFF;stroke-miterlimit:10;}
	.st52{display:inline;opacity:0.67;fill:none;stroke:#FFFFFF;stroke-miterlimit:10;}
	.st53{display:inline;opacity:0.78;fill:none;stroke:#FFFFFF;stroke-miterlimit:10;}
	.st54{display:inline;opacity:0.58;fill:none;stroke:#FFFFFF;stroke-miterlimit:10;}
	.st55{display:inline;opacity:0.48;fill:none;stroke:#FFFFFF;stroke-miterlimit:10;}
	.st56{display:inline;opacity:0.93;fill:none;stroke:#FFFFFF;stroke-miterlimit:10;}
	.st57{display:inline;opacity:0.92;fill:none;stroke:#FFFFFF;stroke-miterlimit:10;}
	.st58{display:inline;opacity:0.77;fill:none;stroke:#FFFFFF;stroke-miterlimit:10;}
	.st59{display:inline;opacity:0.45;fill:none;stroke:#FFFFFF;stroke-miterlimit:10;}
	.st60{display:inline;opacity:0.5;fill:none;stroke:#FFFFFF;stroke-miterlimit:10;}
	.st61{display:inline;opacity:0.7;fill:none;stroke:#FFFFFF;stroke-miterlimit:10;}
	.st62{display:inline;opacity:0.15;fill:none;stroke:#FFFFFF;stroke-miterlimit:10;}
	.st63{display:inline;opacity:0.9;fill:none;stroke:#FFFFFF;stroke-miterlimit:10;}
	.st64{display:inline;opacity:0.84;fill:none;stroke:#FFFFFF;stroke-miterlimit:10;}
	.st65{display:inline;opacity:0.25;fill:none;stroke:#FFFFFF;stroke-miterlimit:10;}
	.st66{display:inline;opacity:0.76;fill:none;stroke:#FFFFFF;stroke-miterlimit:10;}
	.st67{display:inline;opacity:0.39;fill:none;stroke:#FFFFFF;stroke-miterlimit:10;}
	.st68{opacity:0.78;}
	.st69{fill:#FFFFFF;}
	.st70{display:none;opacity:0.15;}
	.st71{display:inline;fill:#FFFFFF;}
</style>
<g id="Topogrpahy">
</g>
<g id="swoosh">
</g>
<g id="grid_00000025440360682593285260000004292783832669771684_" class="st6">
</g>
<g id="mountain">
</g>
<g id="range">
	<g>
		<defs>
			<rect id="SVGID_00000000219325249992719040000014147611471228589495_" width="1920" height="1080"/>
		</defs>
		<clipPath id="SVGID_00000055702674790650205940000003266585876673132196_">
			<use xlink:href="#SVGID_00000000219325249992719040000014147611471228589495_"  style="overflow:visible;"/>
		</clipPath>
		<g style="clip-path:url(#SVGID_00000055702674790650205940000003266585876673132196_);">
			<path class="st4" d="M-418.6-623.9c-77.4-72.3-168.1-86-280.5-3.5c-75.2,54.5-137.7,133.8-208,211.2
				c-48.3,53.5-98.8,104.8-152.9,145.2c-92.2,70.8-191.3,99.2-285.1,110.2c-87.5,12.2-181.3,10.5-264.1,82.1
				c-155.6,138.7-164.4,426.5-140.2,595.3c36.5,252.2,168.7,474.3,372.8,507.4c311,52.8,621.2-385.2,910.4-324.3
				c194.9,43.9,276.2,279,354.6,480.7C-57.4,1320.1,0.6,1465,93.5,1561.4c72.3,75.8,169.7,114.3,280.9,91.8
				c154.6-30.4,315.9-164.4,428.3-333.2c104.8-156.2,153-331.5,107.1-477.8C864,690.5,747.8,603.1,664.5,488.6
				C611,419,566,319.2,560.7,218.4c-12-142.7,53.2-292.4,76.2-450.3c8.4-58.5,10.3-116.3,3.4-169.9c-26.9-206-167.7-299-351.7-203.6
				C141.6-532.6,12.6-384.6-125.5-386.8c-133.6-5-199-156.4-292.8-236.9L-418.6-623.9z"/>
			<path class="st4" d="M-1295.1-15.1C-1414,94.7-1415.7,316.5-1394.9,447c30.8,192.6,132,363.2,287.9,391.1
				c234.7,42.1,469.4-286.5,688-238.1c147.7,32.7,209.9,210.5,270.3,361.7c42,104.8,87.3,212.7,158.1,284.6
				c55.4,56.2,129,84.5,213.4,67.1c117.3-24.2,239.8-125.7,325.5-253.8c79.8-118.4,116.7-251,83.9-362.2
				C598.5,582.7,513,515.6,451.2,428.7c-38.5-54.1-69.7-130.8-73.3-208.4c-5.1-110.2,44.2-225.7,62.8-347.7
				c6.8-45.2,8.7-89.9,3.7-131.5c-19.2-159.6-125.5-232-267.2-165.3C65-371.3-36.4-262.7-144.4-266.6
				c-103.5-3.7-156.1-118.6-230-179c0,0-0.2-0.2-0.2-0.2c-60.9-54.2-131.4-63.6-218.7-1.4c-58.8,41.9-108.4,102.1-163.5,161.4
				c-37.9,41.1-77.5,80.4-119.3,112.3c-71.5,54.5-147.3,77.9-218.8,89.4C-1161.7-73.3-1233.3-72.2-1295.1-15.1z"/>
			<path class="st4" d="M-981.1,48.5c-81.1,82.2-76.7,236.6-59.3,329c25.1,132.9,95.2,252.7,203.1,274.9
				c158.2,32.4,317.2-185.7,465.5-151.9c100.2,22.9,143.3,142.1,186,242.7c29.7,69.8,62.1,140.9,111.2,187.9
				c38.2,36.7,88.4,55,145.8,42.4c80.2-17.4,163.8-87,222.8-174.3c54.8-80.5,81.1-170.8,60.7-246.6c-21-78.1-78.1-123.5-116.8-183.8
				c-24.4-38-42.4-92.2-42.8-146.6c-0.5-77.6,35.3-159.1,49.5-245c5.2-31.9,7-63.6,4.1-93.1C237.2-229.1,164.4-282.7,66-243
				c-78.4,31.6-151.3,100.7-229.2,96.6c-73.4-3.9-113.2-80.9-167.3-121c0,0-0.1-0.1-0.1-0.1c-44.3-36-95-41.6-157,0.6
				c-42.6,29-79.1,70.3-118.9,111.7c-27.5,28.7-56,56.4-85.7,79.4C-742.6-37-795.4-18.2-844.8-7.2C-890.7,3-939.7,6.6-981.1,48.5z"
				/>
			<path class="st4" d="M-667.1,112.1c-43.3,54.8-33,141.6-18.8,195.9c19.1,73.2,58.2,142.2,118.3,158.6
				c81.5,22.3,164.9-85,243.1-65.6c52.7,13,76.8,73.7,101.8,123.7c17.5,34.9,37,69.1,64.2,91.3c21.1,17.2,47.8,25.4,78.3,17.7
				c43-10.9,87.7-48.3,120.1-94.8c29.8-42.7,45.6-90.5,37.5-131.1C69,366.4,40.4,342.3,24.7,309c-10.4-22.2-15.2-53.6-12.3-84.8
				c4.1-45,26.3-92.4,36.1-142.4c3.6-18.6,5.3-37.2,4.4-54.8C49-39.7,9.8-74.5-45.4-61.7C-90-51.4-134.2-21.9-182.1-26.2
				c-43.2-4-70.3-43.2-104.5-63.1c0,0-0.1-0.1-0.1-0.1c-27.8-17.9-58.6-19.6-95.2,2.6c-26.5,16.1-49.9,38.6-74.4,61.9
				c-17.1,16.3-34.4,32.4-52.1,46.5C-537.6,45-567.4,59-594.7,69.6C-619.6,79.2-646.1,85.5-667.1,112.1z"/>
		</g>
		<g style="clip-path:url(#SVGID_00000055702674790650205940000003266585876673132196_);">
			<path class="st4" d="M3593.6,1198.9c57.4-112.1,100-238.4,83.4-372.2c-13.7-110.5-66.5-217.4-121.8-319.9
				c-58.2-107.8-121.4-215.6-208.8-304S3143.6,46.7,3027.2,41.5c-108.7-4.8-204.9,44-309.9,59.4C2496.1,133.1,2238.6-3,2121.7-214
				c-61.8-111.6-85.2-235.4-130.7-352.7c-45.5-117.3-124.5-238.2-242.5-283.2c-86.9-33.2-180.4-18.4-255.1,20.3
				c-74.7,38.7-133.6,99.1-190.2,159.8C1137.6-492,980.9-300.5,890.2-70.4s-109.6,505.2-1.8,755.2c93.6,217.2,271.4,395,449.2,559.2
				c183.4,169.4,372.6,332.7,567,488.9c106.6,85.6,217.7,178.9,352,193.4c340.4,36.8,703.5-96.5,953.3-280.2
				C3369.7,1528.6,3502.5,1376.7,3593.6,1198.9z"/>
			<path class="st4" d="M1502-365.8c-135.3,140.2-259.2,298.9-328.4,487.6c-69.1,187.5-80.4,409.5,5.1,611.8
				c6.8,16.1,14.1,31.9,21.9,47.5c78,156,204.8,288.9,334.3,410c153.5,144.5,308.6,260.7,467,367.9
				c86.8,58.8,176.8,121.7,284.2,128.7c268.8,17.6,558.3-80.8,761-222.9c128.7-90.6,236.4-208.5,311.1-350.2
				c6.9-13.1,13.5-26.4,19.8-40c36-78.3,59.5-164.9,49.7-255.9c-9.6-88.2-49.6-173.9-93-256c-46.1-87.6-98.1-173.5-168.8-243
				c-71.3-69.9-164.6-122.2-258-125.6c-88.4-3-167,36.1-252.2,50c-56.8,9.4-116.4,6.1-174.6-8.1c-126-30.8-247-113.6-315.6-229.8
				c-10.7-18.2-20.1-37-28.6-56.2c-32.8-74.1-52-153.5-82.8-228.8c-37.8-93.2-101.7-187.6-195.3-223.5
				c-69-26.5-143.2-16.1-203.1,13.1C1595.7-459.8,1547.7-413.3,1502-365.8z"/>
			<path class="st4" d="M1700.8-61.7C1596.1,41,1504.6,166.9,1456.9,314.2c-47.5,144.9-51.2,313.7,11.9,468.4
				c5,12.4,10.4,24.5,16.2,36.5c57.6,120.9,149.9,225.9,247,319.2c124,119.1,244.7,188.6,367.1,246.8c67,32,135.8,62.7,216.4,64
				c197,3.3,413.4-64.8,568.7-165.7c97.8-63.5,180.4-147.7,238.6-253.1c5.3-9.6,10.4-19.5,15.2-29.6
				c27.6-57.6,45.9-122.2,40.2-190.1c-5.5-65.8-32.9-130.4-64.3-192.1c-34.2-67.4-74.7-131.3-128.9-182.1
				c-55.3-51.4-126.5-88.3-196.9-89.8c-68.1-1.2-129.1,28.1-194.5,40.7c-43.8,8.5-89.4,8.6-134.2,0.7
				c-97.1-17.2-193.8-73.3-250.7-161.8c-8.8-13.6-16.5-27.8-23.6-42.4c-27-56.1-43.3-117.5-68.5-174.7c-30.3-69-79-137-148-163.7
				c-51.1-19.8-106-13.8-151.2,6C1772.5-128.6,1735.7-96,1700.8-61.7z"/>
			<path class="st4" d="M1899.5,242.3c-74.3,65.1-132.7,158.3-159.3,264.2c-25.7,102.4-22,218,18.7,325c3.3,8.6,6.8,17.2,10.4,25.6
				c37.2,85.8,94.6,163.3,159.8,228.4c94.1,94.1,180.7,116.6,267.1,125.7c47.2,5.2,94.7,7.8,148.7-0.7
				c124.9-19.6,268.3-49.1,376.4-108.4c66.7-36.6,124.4-86.8,166-156.1c3.7-6.2,7.3-12.6,10.7-19.1c19.2-36.9,32.2-79.4,30.8-124.3
				c-1.4-43.5-16.1-86.9-35.5-128.2c-22.2-47.2-51.2-89.3-89-121.1c-39.2-33-88.4-54.5-135.7-54.1c-47.8,0.4-91.2,20.1-136.8,31.4
				c-30.7,7.7-62.3,11.2-93.8,9.5c-68.3-3.6-140.2-33.3-185.8-93.7c-6.8-9-12.9-18.6-18.6-28.7c-21.3-38.1-34.5-81.5-54.2-120.7
				c-22.6-44.9-56.2-86.4-100.8-104c-33.3-13.1-68.8-11.5-99.2-1.1C1949.4,202.6,1923.7,221.2,1899.5,242.3z"/>
		</g>
	</g>
</g>
<g id="space" class="st6">
</g>
<g id="Layer_7">
</g>
</svg>
