<?xml version="1.0" encoding="utf-8"?>
<!-- Generator: Adobe Illustrator 28.0.0, SVG Export Plug-In . SVG Version: 6.00 Build 0)  -->
<svg version="1.1" xmlns="http://www.w3.org/2000/svg" xmlns:xlink="http://www.w3.org/1999/xlink" x="0px" y="0px"
	 viewBox="0 0 1920 1080" style="enable-background:new 0 0 1920 1080;" xml:space="preserve">
<style type="text/css">
	.st0{opacity:0.25;fill:none;stroke:#FFFFFF;stroke-width:2;stroke-miterlimit:10;}
	.st1{opacity:0.5;fill:none;stroke:#FFFFFF;stroke-width:2;stroke-miterlimit:10;}
	.st2{opacity:0.22;fill:none;stroke:#FFFFFF;stroke-width:2;stroke-miterlimit:10;}
	.st3{opacity:0.79;fill:none;stroke:#FFFFFF;stroke-width:2;stroke-miterlimit:10;}
	.st4{fill:none;stroke:#FFFFFF;stroke-width:2;stroke-miterlimit:10;}
	.st5{fill:none;stroke:#FFFFFF;stroke-miterlimit:10;}
	.st6{display:none;}
	.st7{display:inline;fill:none;stroke:#FFFFFF;stroke-miterlimit:10;}
	.st8{display:inline;}
	.st9{opacity:0.2;fill:none;stroke:#FFFFFF;stroke-miterlimit:10;}
	.st10{opacity:0.2333;fill:none;stroke:#FFFFFF;stroke-miterlimit:10;}
	.st11{opacity:0.2667;fill:none;stroke:#FFFFFF;stroke-miterlimit:10;}
	.st12{opacity:0.3;fill:none;stroke:#FFFFFF;stroke-miterlimit:10;}
	.st13{opacity:0.3333;fill:none;stroke:#FFFFFF;stroke-miterlimit:10;}
	.st14{opacity:0.3667;fill:none;stroke:#FFFFFF;stroke-miterlimit:10;}
	.st15{opacity:0.4;fill:none;stroke:#FFFFFF;stroke-miterlimit:10;}
	.st16{opacity:0.4333;fill:none;stroke:#FFFFFF;stroke-miterlimit:10;}
	.st17{opacity:0.4667;fill:none;stroke:#FFFFFF;stroke-miterlimit:10;}
	.st18{opacity:0.5;fill:none;stroke:#FFFFFF;stroke-miterlimit:10;}
	
		.st19{clip-path:url(#SVGID_00000124842410643099883550000010196737338115317942_);fill:none;stroke:#FFFFFF;stroke-width:2;stroke-miterlimit:10;}
	.st20{clip-path:url(#SVGID_00000167358420905332441500000001540528873239694985_);}
	.st21{opacity:0.94;fill:#FFFFFF;}
	.st22{display:inline;opacity:0.94;fill:none;stroke:#FFFFFF;stroke-miterlimit:10;}
	.st23{display:inline;opacity:0.31;fill:none;stroke:#FFFFFF;stroke-miterlimit:10;}
	.st24{display:inline;opacity:0.87;fill:none;stroke:#FFFFFF;stroke-miterlimit:10;}
	.st25{display:inline;opacity:0.96;fill:none;stroke:#FFFFFF;stroke-miterlimit:10;}
	.st26{display:inline;opacity:0.83;fill:none;stroke:#FFFFFF;stroke-miterlimit:10;}
	.st27{display:inline;opacity:0.71;fill:none;stroke:#FFFFFF;stroke-miterlimit:10;}
	.st28{display:inline;opacity:0.99;fill:none;stroke:#FFFFFF;stroke-miterlimit:10;}
	.st29{display:inline;opacity:0.14;fill:none;stroke:#FFFFFF;stroke-miterlimit:10;}
	.st30{display:inline;opacity:0.64;fill:none;stroke:#FFFFFF;stroke-miterlimit:10;}
	.st31{display:inline;opacity:0.57;fill:none;stroke:#FFFFFF;stroke-miterlimit:10;}
	.st32{display:inline;opacity:0.38;fill:none;stroke:#FFFFFF;stroke-miterlimit:10;}
	.st33{display:inline;opacity:0.52;fill:none;stroke:#FFFFFF;stroke-miterlimit:10;}
	.st34{display:inline;opacity:0.18;fill:none;stroke:#FFFFFF;stroke-miterlimit:10;}
	.st35{display:inline;opacity:0.68;fill:none;stroke:#FFFFFF;stroke-miterlimit:10;}
	.st36{display:inline;opacity:0.8;fill:none;stroke:#FFFFFF;stroke-miterlimit:10;}
	.st37{display:inline;opacity:0.26;fill:none;stroke:#FFFFFF;stroke-miterlimit:10;}
	.st38{display:inline;opacity:0.97;fill:none;stroke:#FFFFFF;stroke-miterlimit:10;}
	.st39{display:inline;opacity:0.28;fill:none;stroke:#FFFFFF;stroke-miterlimit:10;}
	.st40{display:inline;opacity:0.17;fill:none;stroke:#FFFFFF;stroke-miterlimit:10;}
	.st41{display:inline;opacity:0.34;fill:none;stroke:#FFFFFF;stroke-miterlimit:10;}
	.st42{display:inline;opacity:6.000000e-02;fill:none;stroke:#FFFFFF;stroke-miterlimit:10;}
	.st43{display:inline;opacity:0.4;fill:none;stroke:#FFFFFF;stroke-miterlimit:10;}
	.st44{display:inline;opacity:0.16;fill:none;stroke:#FFFFFF;stroke-miterlimit:10;}
	.st45{display:inline;opacity:0.98;fill:none;stroke:#FFFFFF;stroke-miterlimit:10;}
	.st46{display:inline;opacity:0.6;fill:none;stroke:#FFFFFF;stroke-miterlimit:10;}
	.st47{display:inline;opacity:0.24;fill:none;stroke:#FFFFFF;stroke-miterlimit:10;}
	.st48{display:inline;opacity:8.000000e-02;fill:none;stroke:#FFFFFF;stroke-miterlimit:10;}
	.st49{display:inline;opacity:5.000000e-02;fill:none;stroke:#FFFFFF;stroke-miterlimit:10;}
	.st50{display:inline;opacity:0.33;fill:none;stroke:#FFFFFF;stroke-miterlimit:10;}
	.st51{display:inline;opacity:0.49;fill:none;stroke:#FFFFFF;stroke-miterlimit:10;}
	.st52{display:inline;opacity:0.67;fill:none;stroke:#FFFFFF;stroke-miterlimit:10;}
	.st53{display:inline;opacity:0.78;fill:none;stroke:#FFFFFF;stroke-miterlimit:10;}
	.st54{display:inline;opacity:0.58;fill:none;stroke:#FFFFFF;stroke-miterlimit:10;}
	.st55{display:inline;opacity:0.48;fill:none;stroke:#FFFFFF;stroke-miterlimit:10;}
	.st56{display:inline;opacity:0.93;fill:none;stroke:#FFFFFF;stroke-miterlimit:10;}
	.st57{display:inline;opacity:0.92;fill:none;stroke:#FFFFFF;stroke-miterlimit:10;}
	.st58{display:inline;opacity:0.77;fill:none;stroke:#FFFFFF;stroke-miterlimit:10;}
	.st59{display:inline;opacity:0.45;fill:none;stroke:#FFFFFF;stroke-miterlimit:10;}
	.st60{display:inline;opacity:0.5;fill:none;stroke:#FFFFFF;stroke-miterlimit:10;}
	.st61{display:inline;opacity:0.7;fill:none;stroke:#FFFFFF;stroke-miterlimit:10;}
	.st62{display:inline;opacity:0.15;fill:none;stroke:#FFFFFF;stroke-miterlimit:10;}
	.st63{display:inline;opacity:0.9;fill:none;stroke:#FFFFFF;stroke-miterlimit:10;}
	.st64{display:inline;opacity:0.84;fill:none;stroke:#FFFFFF;stroke-miterlimit:10;}
	.st65{display:inline;opacity:0.25;fill:none;stroke:#FFFFFF;stroke-miterlimit:10;}
	.st66{display:inline;opacity:0.76;fill:none;stroke:#FFFFFF;stroke-miterlimit:10;}
	.st67{display:inline;opacity:0.39;fill:none;stroke:#FFFFFF;stroke-miterlimit:10;}
	.st68{opacity:0.78;}
	.st69{fill:#FFFFFF;}
	.st70{display:none;opacity:0.15;}
	.st71{display:inline;fill:#FFFFFF;}
</style>
<g id="Topogrpahy">
	<g>
		<path class="st0" d="M1841.4,130.1c-33-60.2-89.2-71.5-158.4-84.1c-95.8-16.8-192.1-38.8-283.3-75.3
			c-117.7-46.2-231.4-113.1-358.9-87.2C762.6-65.8,697.3,397.7,860.1,670c39.4,67.1,96.3,127.9,162.3,172.7
			c258.9,177.8,547.3,65.4,702.1-160.7c46.7-67.4,82.1-143.5,110.2-220.1c36.7-102,59.9-230.7,6.8-331.7L1841.4,130.1z"/>
		<path class="st1" d="M567.6-377.1c-61.4,24.5-112.4,62-143.1,110.8c-64,101.7-42.6,222.9-23,349.3
			c22.7,146.5,52.6,307.1,76.7,457.2c7.4,46.3,14.9,91.4,22.8,134.8c0.8,4.2,1.5,8.3,2.3,12.5c16.8,87.7,40,170.1,81.3,245.9
			c105.9,194.5,377.3,216.1,608.2,178.7c126.3-20.5,249.5-61.9,356.3-128.1c72.7-45,134.2-101.7,194.8-158.6
			c57.7-54.1,122.3-103.9,168.9-165.1c59.4-78.2,70.4-170.3,78.4-257c14.4-155.9,6-322.4-106.5-443.9c0,0-0.1-0.1-0.1-0.1
			c-59-64.5-128.6-100.7-217.3-134.9c-177.2-68.3-364.8-137.8-562.6-185.5C925.9-404.2,735.4-444,567.6-377.1z"/>
		<path class="st2" d="M753.1-402.9c-61.4,24.5-112.4,62-143.1,110.8c-64,101.7-42.6,222.9-23,349.3
			c22.7,146.5,52.6,307.1,76.7,457.2c7.4,46.3,14.9,91.4,22.8,134.8c0.8,4.2,1.5,8.3,2.3,12.5c16.8,87.7,40,170.1,81.3,245.9
			c105.9,194.5,377.3,216.1,608.2,178.7c126.3-20.5,249.5-61.9,356.3-128.1c72.7-45,134.2-101.7,194.8-158.6
			c57.7-54.1,122.3-103.9,168.9-165.1c59.4-78.2,70.4-170.3,78.4-257c14.4-155.9,6-322.4-106.5-443.9c0,0-0.1-0.1-0.1-0.1
			c-59-64.5-128.6-100.7-217.3-134.9c-177.2-68.3-364.8-137.8-562.6-185.5C1111.5-430.1,920.9-469.9,753.1-402.9z"/>
		<path class="st3" d="M305.3-649.7c-72.9,38.9-130.2,92.9-156.2,157.1C91-349.1,177.7-204,232.3-59.3
			C299.4,118.4,346.6,310.3,354,498.3c2.3,57.4,1.5,114.1-1.2,169.8c-0.3,5.3-0.5,10.6-0.8,15.9c-5.4,111.8-18.1,221.9,5.7,328.2
			c67.9,303.6,479.8,325.5,815.1,289.5c179.5-19.3,358.5-61.8,512.4-142.1c108.2-56.4,198.4-130.2,289.1-202.8
			c95.2-75.9,204.3-143.5,280-232.2c99.2-116.3,106.3-259.4,104.4-391.7c-2.9-209.1-63.8-403-219.8-556.1c0,0-0.1-0.1-0.2-0.2
			c-75.9-75.1-167-132.6-276.1-185.7c-256.5-124.7-536.4-240.3-841.9-295.7C781.8-748.2,512.3-760.2,305.3-649.7z"/>
		<path class="st4" d="M2725.8,262.2c-28.6-384.9-258.8-678.9-668.3-904.9c-334.8-182.3-708.1-342.6-1121.2-406
			c-299-43.1-647.1-27.2-893.5,126.4c-84.3,53.5-147,123.9-169.2,203.4C-176-533.3-22.8-366.4,63.2-201.6
			C179.4,5.2,239.7,230.6,229.8,456.3c-3,75-13.6,149.7-29.2,224c-26.9,136-77.2,273.1-69.9,410.5
			C157,1502,712.9,1525,1152.5,1491.1c232.8-18.4,467.9-60.8,668.6-156.1c143.9-67.2,261.9-159.4,383.3-247
			c132-98.3,286.1-183.3,391-299.3c138.8-154.7,142.8-348.8,130.4-526.4L2725.8,262.2z"/>
	</g>
</g>
<g id="swoosh">
</g>
<g id="grid_00000025440360682593285260000004292783832669771684_" class="st6">
</g>
<g id="mountain">
</g>
<g id="range">
</g>
<g id="space" class="st6">
</g>
<g id="Layer_7">
</g>
</svg>
