<?xml version="1.0" encoding="utf-8"?>
<!-- Generator: Adobe Illustrator 28.0.0, SVG Export Plug-In . SVG Version: 6.00 Build 0)  -->
<svg version="1.1" xmlns="http://www.w3.org/2000/svg" xmlns:xlink="http://www.w3.org/1999/xlink" x="0px" y="0px"
	 viewBox="0 0 1920 1080" style="enable-background:new 0 0 1920 1080;" xml:space="preserve">
<style type="text/css">
	.st0{opacity:0.25;fill:none;stroke:#FFFFFF;stroke-width:2;stroke-miterlimit:10;}
	.st1{opacity:0.5;fill:none;stroke:#FFFFFF;stroke-width:2;stroke-miterlimit:10;}
	.st2{opacity:0.22;fill:none;stroke:#FFFFFF;stroke-width:2;stroke-miterlimit:10;}
	.st3{opacity:0.79;fill:none;stroke:#FFFFFF;stroke-width:2;stroke-miterlimit:10;}
	.st4{fill:none;stroke:#FFFFFF;stroke-width:2;stroke-miterlimit:10;}
	.st5{fill:none;stroke:#FFFFFF;stroke-miterlimit:10;}
	.st6{display:none;}
	.st7{display:inline;fill:none;stroke:#FFFFFF;stroke-miterlimit:10;}
	.st8{display:inline;}
	.st9{opacity:0.2;fill:none;stroke:#FFFFFF;stroke-miterlimit:10;}
	.st10{opacity:0.2333;fill:none;stroke:#FFFFFF;stroke-miterlimit:10;}
	.st11{opacity:0.2667;fill:none;stroke:#FFFFFF;stroke-miterlimit:10;}
	.st12{opacity:0.3;fill:none;stroke:#FFFFFF;stroke-miterlimit:10;}
	.st13{opacity:0.3333;fill:none;stroke:#FFFFFF;stroke-miterlimit:10;}
	.st14{opacity:0.3667;fill:none;stroke:#FFFFFF;stroke-miterlimit:10;}
	.st15{opacity:0.4;fill:none;stroke:#FFFFFF;stroke-miterlimit:10;}
	.st16{opacity:0.4333;fill:none;stroke:#FFFFFF;stroke-miterlimit:10;}
	.st17{opacity:0.4667;fill:none;stroke:#FFFFFF;stroke-miterlimit:10;}
	.st18{opacity:0.5;fill:none;stroke:#FFFFFF;stroke-miterlimit:10;}
	
		.st19{clip-path:url(#SVGID_00000167355907067390475530000012557090089845909426_);fill:none;stroke:#FFFFFF;stroke-width:2;stroke-miterlimit:10;}
	.st20{clip-path:url(#SVGID_00000141443525069723726460000008531554010642607797_);}
	.st21{opacity:0.94;fill:#FFFFFF;}
	.st22{display:inline;opacity:0.94;fill:none;stroke:#FFFFFF;stroke-miterlimit:10;}
	.st23{display:inline;opacity:0.31;fill:none;stroke:#FFFFFF;stroke-miterlimit:10;}
	.st24{display:inline;opacity:0.87;fill:none;stroke:#FFFFFF;stroke-miterlimit:10;}
	.st25{display:inline;opacity:0.96;fill:none;stroke:#FFFFFF;stroke-miterlimit:10;}
	.st26{display:inline;opacity:0.83;fill:none;stroke:#FFFFFF;stroke-miterlimit:10;}
	.st27{display:inline;opacity:0.71;fill:none;stroke:#FFFFFF;stroke-miterlimit:10;}
	.st28{display:inline;opacity:0.99;fill:none;stroke:#FFFFFF;stroke-miterlimit:10;}
	.st29{display:inline;opacity:0.14;fill:none;stroke:#FFFFFF;stroke-miterlimit:10;}
	.st30{display:inline;opacity:0.64;fill:none;stroke:#FFFFFF;stroke-miterlimit:10;}
	.st31{display:inline;opacity:0.57;fill:none;stroke:#FFFFFF;stroke-miterlimit:10;}
	.st32{display:inline;opacity:0.38;fill:none;stroke:#FFFFFF;stroke-miterlimit:10;}
	.st33{display:inline;opacity:0.52;fill:none;stroke:#FFFFFF;stroke-miterlimit:10;}
	.st34{display:inline;opacity:0.18;fill:none;stroke:#FFFFFF;stroke-miterlimit:10;}
	.st35{display:inline;opacity:0.68;fill:none;stroke:#FFFFFF;stroke-miterlimit:10;}
	.st36{display:inline;opacity:0.8;fill:none;stroke:#FFFFFF;stroke-miterlimit:10;}
	.st37{display:inline;opacity:0.26;fill:none;stroke:#FFFFFF;stroke-miterlimit:10;}
	.st38{display:inline;opacity:0.97;fill:none;stroke:#FFFFFF;stroke-miterlimit:10;}
	.st39{display:inline;opacity:0.28;fill:none;stroke:#FFFFFF;stroke-miterlimit:10;}
	.st40{display:inline;opacity:0.17;fill:none;stroke:#FFFFFF;stroke-miterlimit:10;}
	.st41{display:inline;opacity:0.34;fill:none;stroke:#FFFFFF;stroke-miterlimit:10;}
	.st42{display:inline;opacity:6.000000e-02;fill:none;stroke:#FFFFFF;stroke-miterlimit:10;}
	.st43{display:inline;opacity:0.4;fill:none;stroke:#FFFFFF;stroke-miterlimit:10;}
	.st44{display:inline;opacity:0.16;fill:none;stroke:#FFFFFF;stroke-miterlimit:10;}
	.st45{display:inline;opacity:0.98;fill:none;stroke:#FFFFFF;stroke-miterlimit:10;}
	.st46{display:inline;opacity:0.6;fill:none;stroke:#FFFFFF;stroke-miterlimit:10;}
	.st47{display:inline;opacity:0.24;fill:none;stroke:#FFFFFF;stroke-miterlimit:10;}
	.st48{display:inline;opacity:8.000000e-02;fill:none;stroke:#FFFFFF;stroke-miterlimit:10;}
	.st49{display:inline;opacity:5.000000e-02;fill:none;stroke:#FFFFFF;stroke-miterlimit:10;}
	.st50{display:inline;opacity:0.33;fill:none;stroke:#FFFFFF;stroke-miterlimit:10;}
	.st51{display:inline;opacity:0.49;fill:none;stroke:#FFFFFF;stroke-miterlimit:10;}
	.st52{display:inline;opacity:0.67;fill:none;stroke:#FFFFFF;stroke-miterlimit:10;}
	.st53{display:inline;opacity:0.78;fill:none;stroke:#FFFFFF;stroke-miterlimit:10;}
	.st54{display:inline;opacity:0.58;fill:none;stroke:#FFFFFF;stroke-miterlimit:10;}
	.st55{display:inline;opacity:0.48;fill:none;stroke:#FFFFFF;stroke-miterlimit:10;}
	.st56{display:inline;opacity:0.93;fill:none;stroke:#FFFFFF;stroke-miterlimit:10;}
	.st57{display:inline;opacity:0.92;fill:none;stroke:#FFFFFF;stroke-miterlimit:10;}
	.st58{display:inline;opacity:0.77;fill:none;stroke:#FFFFFF;stroke-miterlimit:10;}
	.st59{display:inline;opacity:0.45;fill:none;stroke:#FFFFFF;stroke-miterlimit:10;}
	.st60{display:inline;opacity:0.5;fill:none;stroke:#FFFFFF;stroke-miterlimit:10;}
	.st61{display:inline;opacity:0.7;fill:none;stroke:#FFFFFF;stroke-miterlimit:10;}
	.st62{display:inline;opacity:0.15;fill:none;stroke:#FFFFFF;stroke-miterlimit:10;}
	.st63{display:inline;opacity:0.9;fill:none;stroke:#FFFFFF;stroke-miterlimit:10;}
	.st64{display:inline;opacity:0.84;fill:none;stroke:#FFFFFF;stroke-miterlimit:10;}
	.st65{display:inline;opacity:0.25;fill:none;stroke:#FFFFFF;stroke-miterlimit:10;}
	.st66{display:inline;opacity:0.76;fill:none;stroke:#FFFFFF;stroke-miterlimit:10;}
	.st67{display:inline;opacity:0.39;fill:none;stroke:#FFFFFF;stroke-miterlimit:10;}
	.st68{opacity:0.78;}
	.st69{fill:#FFFFFF;}
	.st70{display:none;opacity:0.15;}
	.st71{display:inline;fill:#FFFFFF;}
</style>
<g id="Topogrpahy">
</g>
<g id="swoosh">
</g>
<g id="grid_00000025440360682593285260000004292783832669771684_" class="st6">
	<g>
		<path class="st7" d="M14.2,547.9c-243.9-215.1-579.5-287.6-889.3-265.8c-304.9,21.4-596.2,123.7-872.6,254.4
			s-544,284.5-832.1,395.1s-603.1,177.2-916,123.1"/>
		<path class="st7" d="M210.4,758c-237.8-261.3-587.9-384.9-924-393.1s-662.1,87.9-972,208.8s-610.2,267.5-927.9,366.7
			s-659.5,150-990.9,74.1"/>
	</g>
</g>
<g id="mountain">
	<g>
		<defs>
			<rect id="SVGID_1_" width="1920" height="1080"/>
		</defs>
		<clipPath id="SVGID_00000030488871713992224010000002691411679383000711_">
			<use xlink:href="#SVGID_1_"  style="overflow:visible;"/>
		</clipPath>
		
			<path style="clip-path:url(#SVGID_00000030488871713992224010000002691411679383000711_);fill:none;stroke:#FFFFFF;stroke-width:2;stroke-miterlimit:10;" d="
			M189.9-168.7C-17,57.8,25.2,185,66.9,277.1c54.6,120.6-3,219.7-85.2,339.7c-95.8,139.8-18.7,287.3-89.3,437.2"/>
		
			<path style="clip-path:url(#SVGID_00000030488871713992224010000002691411679383000711_);fill:none;stroke:#FFFFFF;stroke-width:2;stroke-miterlimit:10;" d="
			M485.1-321.1C283-305.4,202.7-158.3,190.8-77.3C180.9-4.7,206,60.1,237.4,120.4c16.4,31.6,34.6,61.9,52,91.1
			c20.7,35,36.7,69.5,45.9,104.3c54.1,180.6-6.1,309.4-82.6,415.3c-22.7,30.7-44.3,55.8-60.2,76.6
			c-89.3,123.5-246.4,235.7-358.3,321.5"/>
		
			<path style="clip-path:url(#SVGID_00000030488871713992224010000002691411679383000711_);fill:none;stroke:#FFFFFF;stroke-width:2;stroke-miterlimit:10;" d="
			M786.3-390.5c-314.6-66.7-432.4,148.1-439.8,244c-6.4,91.8,38.8,177,91.9,258.4c25.8,39.5,53.6,78.4,79.5,116.9
			c30,44.8,55.6,89.7,71.6,135.8c98.9,271.3,28.2,447-59.7,563.9c-32.3,42.3-65.6,73.5-90,95.7C308.4,1148.6-55,1245.4-217.9,1287.6
			"/>
		
			<path style="clip-path:url(#SVGID_00000030488871713992224010000002691411679383000711_);fill:none;stroke:#FFFFFF;stroke-width:2;stroke-miterlimit:10;" d="
			M1119.6-391.8c-427.2-149-582.3,133.4-585.2,244.3c-2.9,110.9,62,216.9,137.2,319s161.5,202.7,204.1,310
			c204.3,514.8-45.9,747.4-156.5,827.2C545.6,1434-24.2,1515.3-238,1513.9"/>
		
			<path style="clip-path:url(#SVGID_00000030488871713992224010000002691411679383000711_);fill:none;stroke:#FFFFFF;stroke-width:2;stroke-miterlimit:10;" d="
			M829.1-917.9c-51.6,127.1-50.4,284.3,40.1,392.8c67.5,80.9,172.5,123.1,252.7,192.4c106,91.6,162.3,224.6,199.5,356.2
			c37.2,131.6,59.4,267.6,114.4,393.6s150.4,245.1,284.1,290.3c269.1,91,548.1-146,827.8-97c127.2,22.3,247.9,103.3,374.7,84.5
			c73.4-10.9,136.4-54.4,189.7-103.3c149.2-136.9,244.1-327.3,262.8-526.9c18.7-199.6-39.1-406.7-160-573.1
			c-49.4-68.1-110.6-130.7-187.3-168.3c-90.5-44.4-194.7-50.8-290.9-81c-293.8-92.1-482.2-392.2-776.6-482.1
			c-122.5-37.4-252.9-34.7-380.4-31.6c-93.5,2.2-186.9,4.5-280.4,6.7c-65.9,1.6-164.8-14.6-224.5,15.8
			c-46.3,23.6-84.1,85.7-115.6,123.8C909.8-1065.1,851.1-993.2,829.1-917.9z"/>
		
			<path style="clip-path:url(#SVGID_00000030488871713992224010000002691411679383000711_);fill:none;stroke:#FFFFFF;stroke-width:2;stroke-miterlimit:10;" d="
			M1081.1-1064.3c-40.5,50.5-83.8,110.8-99.7,173.9c-36.3,105.8-29.5,233.1,43.9,323c49.1,60.1,124.3,93.6,183.2,144.9
			c77.6,67.6,122.7,162.3,155.5,255.6c32.6,93.2,50.7,191.6,100.1,278.2c60.7,106.3,158.4,204,278.3,250.1
			c142.4,54.8,291.3-19.8,441.4-46.1c50.3-8.8,100.8-12.6,151.3-4.9c91.5,14,178.4,65.6,268.6,49.5c52.2-9.3,97.2-40.6,135.4-75.9
			c62.7-58.2,111.1-129.8,144.6-207.3c29.5-68.1,47.6-141.7,52.6-216.8c10.7-159-37.2-323.8-134.7-454.6
			c-40.1-53.8-89.3-102.8-150.3-133.1c-64.3-32-138-38-206.4-60c-208.7-66.9-348.6-268.9-556.6-337.7c-99-32.7-199.6-47.3-301-55.1
			c-35.5-2.8-71.2-4.9-107.5-5.8c-39.9-1-80.2-0.7-120.3,0.8c-55.5,2.1-132.8-4.9-182.3,21.3
			C1138.8-1144,1107.1-1096.7,1081.1-1064.3z"/>
		
			<path style="clip-path:url(#SVGID_00000030488871713992224010000002691411679383000711_);fill:none;stroke:#FFFFFF;stroke-width:2;stroke-miterlimit:10;" d="
			M1782.3-670.6c-102.7,10.5-186.4,98.9-209.5,201.9c-17.2,77.1-4.9,158.5,7.5,237.5c16.3,104.1,32.7,208.2,49,312.3
			c5.1,32.5,10.7,66.3,28.6,94c23.5,36.4,66,57.1,107.9,60c41.8,2.9,82.9-10.1,119.7-29.3c122.4-64.1,225.1-223.4,191.7-371.4
			c-12.3-54.5-38.5-105.3-51.8-159.7c-18.5-75.5,0-162.3-36.6-232C1949.7-631.7,1862.5-678.8,1782.3-670.6z"/>
	</g>
</g>
<g id="range">
	<g>
		<defs>
			<rect id="SVGID_00000000219325249992719040000014147611471228589495_" x="3420" width="1920" height="1080"/>
		</defs>
		<clipPath id="SVGID_00000017507972495181705840000018258696854766827168_">
			<use xlink:href="#SVGID_00000000219325249992719040000014147611471228589495_"  style="overflow:visible;"/>
		</clipPath>
		<g style="clip-path:url(#SVGID_00000017507972495181705840000018258696854766827168_);">
			<path class="st4" d="M3001.4-623.9c-77.4-72.3-168.1-86-280.5-3.5c-75.2,54.5-137.7,133.8-208,211.2
				c-48.3,53.5-98.8,104.8-152.9,145.2c-92.2,70.8-191.3,99.2-285.1,110.2c-87.5,12.2-181.3,10.5-264.1,82.1
				c-155.6,138.7-164.4,426.5-140.2,595.3c36.5,252.2,168.7,474.3,372.8,507.4c311,52.8,621.2-385.2,910.4-324.3
				c194.9,43.9,276.2,279,354.6,480.7c54.2,139.8,112.2,284.7,205.1,381.2c72.3,75.8,169.7,114.3,280.9,91.8
				c154.6-30.4,315.9-164.4,428.3-333.2c104.8-156.2,153-331.5,107.1-477.8c-45.8-151.7-161.9-239.1-245.3-353.7
				C4031,419,3986,319.2,3980.7,218.4c-12-142.7,53.2-292.4,76.2-450.3c8.4-58.5,10.3-116.3,3.4-169.9
				c-26.9-206-167.7-299-351.7-203.6c-147.1,72.8-276.1,220.9-414.2,218.6c-133.6-5-199-156.4-292.8-236.9L3001.4-623.9z"/>
		</g>
	</g>
</g>
<g id="space" class="st6">
</g>
<g id="Layer_7">
</g>
</svg>
