<?xml version="1.0" encoding="utf-8"?>
<!-- Generator: Adobe Illustrator 28.0.0, SVG Export Plug-In . SVG Version: 6.00 Build 0)  -->
<svg version="1.1" xmlns="http://www.w3.org/2000/svg" xmlns:xlink="http://www.w3.org/1999/xlink" x="0px" y="0px"
	 viewBox="0 0 1920 1080" style="enable-background:new 0 0 1920 1080;" xml:space="preserve">
<style type="text/css">
	.st0{opacity:0.25;fill:none;stroke:#FFFFFF;stroke-width:2;stroke-miterlimit:10;}
	.st1{opacity:0.5;fill:none;stroke:#FFFFFF;stroke-width:2;stroke-miterlimit:10;}
	.st2{opacity:0.22;fill:none;stroke:#FFFFFF;stroke-width:2;stroke-miterlimit:10;}
	.st3{opacity:0.79;fill:none;stroke:#FFFFFF;stroke-width:2;stroke-miterlimit:10;}
	.st4{fill:none;stroke:#FFFFFF;stroke-width:2;stroke-miterlimit:10;}
	.st5{fill:none;stroke:#FFFFFF;stroke-miterlimit:10;}
	.st6{display:none;}
	.st7{display:inline;fill:none;stroke:#FFFFFF;stroke-miterlimit:10;}
	.st8{display:inline;}
	.st9{opacity:0.2;fill:none;stroke:#FFFFFF;stroke-miterlimit:10;}
	.st10{opacity:0.2333;fill:none;stroke:#FFFFFF;stroke-miterlimit:10;}
	.st11{opacity:0.2667;fill:none;stroke:#FFFFFF;stroke-miterlimit:10;}
	.st12{opacity:0.3;fill:none;stroke:#FFFFFF;stroke-miterlimit:10;}
	.st13{opacity:0.3333;fill:none;stroke:#FFFFFF;stroke-miterlimit:10;}
	.st14{opacity:0.3667;fill:none;stroke:#FFFFFF;stroke-miterlimit:10;}
	.st15{opacity:0.4;fill:none;stroke:#FFFFFF;stroke-miterlimit:10;}
	.st16{opacity:0.4333;fill:none;stroke:#FFFFFF;stroke-miterlimit:10;}
	.st17{opacity:0.4667;fill:none;stroke:#FFFFFF;stroke-miterlimit:10;}
	.st18{opacity:0.5;fill:none;stroke:#FFFFFF;stroke-miterlimit:10;}
	
		.st19{clip-path:url(#SVGID_00000119796192473540894370000005294545108297627560_);fill:none;stroke:#FFFFFF;stroke-width:2;stroke-miterlimit:10;}
	.st20{clip-path:url(#SVGID_00000166642660871815138560000015317603100650070422_);}
	.st21{opacity:0.94;fill:#FFFFFF;}
	.st22{display:inline;opacity:0.94;fill:none;stroke:#FFFFFF;stroke-miterlimit:10;}
	.st23{display:inline;opacity:0.31;fill:none;stroke:#FFFFFF;stroke-miterlimit:10;}
	.st24{display:inline;opacity:0.87;fill:none;stroke:#FFFFFF;stroke-miterlimit:10;}
	.st25{display:inline;opacity:0.96;fill:none;stroke:#FFFFFF;stroke-miterlimit:10;}
	.st26{display:inline;opacity:0.83;fill:none;stroke:#FFFFFF;stroke-miterlimit:10;}
	.st27{display:inline;opacity:0.71;fill:none;stroke:#FFFFFF;stroke-miterlimit:10;}
	.st28{display:inline;opacity:0.99;fill:none;stroke:#FFFFFF;stroke-miterlimit:10;}
	.st29{display:inline;opacity:0.14;fill:none;stroke:#FFFFFF;stroke-miterlimit:10;}
	.st30{display:inline;opacity:0.64;fill:none;stroke:#FFFFFF;stroke-miterlimit:10;}
	.st31{display:inline;opacity:0.57;fill:none;stroke:#FFFFFF;stroke-miterlimit:10;}
	.st32{display:inline;opacity:0.38;fill:none;stroke:#FFFFFF;stroke-miterlimit:10;}
	.st33{display:inline;opacity:0.52;fill:none;stroke:#FFFFFF;stroke-miterlimit:10;}
	.st34{display:inline;opacity:0.18;fill:none;stroke:#FFFFFF;stroke-miterlimit:10;}
	.st35{display:inline;opacity:0.68;fill:none;stroke:#FFFFFF;stroke-miterlimit:10;}
	.st36{display:inline;opacity:0.8;fill:none;stroke:#FFFFFF;stroke-miterlimit:10;}
	.st37{display:inline;opacity:0.26;fill:none;stroke:#FFFFFF;stroke-miterlimit:10;}
	.st38{display:inline;opacity:0.97;fill:none;stroke:#FFFFFF;stroke-miterlimit:10;}
	.st39{display:inline;opacity:0.28;fill:none;stroke:#FFFFFF;stroke-miterlimit:10;}
	.st40{display:inline;opacity:0.17;fill:none;stroke:#FFFFFF;stroke-miterlimit:10;}
	.st41{display:inline;opacity:0.34;fill:none;stroke:#FFFFFF;stroke-miterlimit:10;}
	.st42{display:inline;opacity:6.000000e-02;fill:none;stroke:#FFFFFF;stroke-miterlimit:10;}
	.st43{display:inline;opacity:0.4;fill:none;stroke:#FFFFFF;stroke-miterlimit:10;}
	.st44{display:inline;opacity:0.16;fill:none;stroke:#FFFFFF;stroke-miterlimit:10;}
	.st45{display:inline;opacity:0.98;fill:none;stroke:#FFFFFF;stroke-miterlimit:10;}
	.st46{display:inline;opacity:0.6;fill:none;stroke:#FFFFFF;stroke-miterlimit:10;}
	.st47{display:inline;opacity:0.24;fill:none;stroke:#FFFFFF;stroke-miterlimit:10;}
	.st48{display:inline;opacity:8.000000e-02;fill:none;stroke:#FFFFFF;stroke-miterlimit:10;}
	.st49{display:inline;opacity:5.000000e-02;fill:none;stroke:#FFFFFF;stroke-miterlimit:10;}
	.st50{display:inline;opacity:0.33;fill:none;stroke:#FFFFFF;stroke-miterlimit:10;}
	.st51{display:inline;opacity:0.49;fill:none;stroke:#FFFFFF;stroke-miterlimit:10;}
	.st52{display:inline;opacity:0.67;fill:none;stroke:#FFFFFF;stroke-miterlimit:10;}
	.st53{display:inline;opacity:0.78;fill:none;stroke:#FFFFFF;stroke-miterlimit:10;}
	.st54{display:inline;opacity:0.58;fill:none;stroke:#FFFFFF;stroke-miterlimit:10;}
	.st55{display:inline;opacity:0.48;fill:none;stroke:#FFFFFF;stroke-miterlimit:10;}
	.st56{display:inline;opacity:0.93;fill:none;stroke:#FFFFFF;stroke-miterlimit:10;}
	.st57{display:inline;opacity:0.92;fill:none;stroke:#FFFFFF;stroke-miterlimit:10;}
	.st58{display:inline;opacity:0.77;fill:none;stroke:#FFFFFF;stroke-miterlimit:10;}
	.st59{display:inline;opacity:0.45;fill:none;stroke:#FFFFFF;stroke-miterlimit:10;}
	.st60{display:inline;opacity:0.5;fill:none;stroke:#FFFFFF;stroke-miterlimit:10;}
	.st61{display:inline;opacity:0.7;fill:none;stroke:#FFFFFF;stroke-miterlimit:10;}
	.st62{display:inline;opacity:0.15;fill:none;stroke:#FFFFFF;stroke-miterlimit:10;}
	.st63{display:inline;opacity:0.9;fill:none;stroke:#FFFFFF;stroke-miterlimit:10;}
	.st64{display:inline;opacity:0.84;fill:none;stroke:#FFFFFF;stroke-miterlimit:10;}
	.st65{display:inline;opacity:0.25;fill:none;stroke:#FFFFFF;stroke-miterlimit:10;}
	.st66{display:inline;opacity:0.76;fill:none;stroke:#FFFFFF;stroke-miterlimit:10;}
	.st67{display:inline;opacity:0.39;fill:none;stroke:#FFFFFF;stroke-miterlimit:10;}
	.st68{opacity:0.78;}
	.st69{fill:#FFFFFF;}
	.st70{display:none;opacity:0.15;}
	.st71{display:inline;fill:#FFFFFF;}
</style>
<g id="Topogrpahy">
</g>
<g id="swoosh">
</g>
<g id="grid_00000025440360682593285260000004292783832669771684_" class="st6">
	<g>
		<path class="st7" d="M1864.6-1133.2c-292.5,154.4-517.1,430.5-611.9,752.5c-58.6,198.9-68.8,410.3-76.8,619.5
			c-7.9,209.2-14.2,420.5-65.3,621.7c-51.1,201.2-151.9,394.6-316.7,515.2"/>
		<path class="st7" d="M2060.8-923c-286.4,108.2-515.4,344.2-646.6,625.2C1330.8-119.1,1279.5,76.6,1238,276
			c-41.5,199.4-80.4,403.5-161.2,593.4c-80.8,189.9-208.3,367.4-391.6,466.2"/>
		<path class="st7" d="M2257-712.9c-280.4,62-517.2,259.4-681.3,497.9c-110.2,160.2-200.7,338.7-275.7,528.2s-146.7,386.5-257,565.1
			c-110.4,178.6-264.7,340.2-466.5,417.2"/>
		<path class="st7" d="M2453.2-502.8C2179-487,1929.9-328.4,1737.3-132.2C1597.8,10,1470.7,170.7,1362.1,350.4
			c-108.6,179.8-212.9,369.5-352.9,536.7s-321.1,313.1-541.4,368.2"/>
		<path class="st7" d="M2649.4-292.6c-268.2-30.4-533.4,87.4-750.6,243.3c-171.4,123-332.5,267-474.7,437S1145.1,740.1,975.4,896
			S598,1181.9,359.1,1215.2"/>
		<path class="st7" d="M2845.6-82.5c-262.1-76.6-545.5-2.7-785.3,116c-204.9,101.5-398.4,231.2-574.1,391.3
			s-345.3,335.5-544.6,480.1s-433.9,258.7-691.3,270.1"/>
		<path class="st7" d="M3041.8,127.6c-256-122.7-558-95.7-820-11.2c-239,77-464.3,195.4-673.6,345.7s-411.5,318.5-640.4,451.7
			s-490.3,231.5-766.2,221.1"/>
		<path class="st7" d="M3238,337.8c-250-168.9-569.5-190.9-854.6-138.5c-272.5,50.1-530.2,159.5-773.1,300s-477.8,301.5-736.2,423.4
			S327.4,1127,33,1094.8"/>
		<path class="st7" d="M3434.2,547.9c-243.9-215.1-579.5-287.6-889.3-265.8c-304.9,21.4-596.2,123.7-872.6,254.4
			s-544,284.5-832.1,395.1s-603.1,177.2-916,123.1"/>
		<path class="st7" d="M3630.4,758c-237.8-261.3-587.9-384.9-924-393.1s-662.1,87.9-972,208.8s-610.2,267.5-927.9,366.7
			s-659.5,150-990.9,74.1"/>
	</g>
	<g class="st8">
		<path class="st9" d="M-468-482C-35.6-443.3,371.9-261.1,642.4,14.5c167.1,170.3,281,371,390.9,570.4s218.9,401.5,378,576.8
			s375.2,324.3,634.9,378.7"/>
		<path class="st10" d="M-660.5-265.1c402.8-3.7,798.8,139.6,1091.9,360.2C620.7,237.6,776,406.5,922.4,583.7s291.9,360,481.9,513.1
			s431.3,276.7,703.2,302.9"/>
		<path class="st11" d="M-853-48.2C-479.7-94.3-90.7,9,220.4,175.7c214.4,114.9,408.2,251.7,591,406.8S1176.3,901,1397.1,1032
			s487.4,229,771.5,227.1"/>
		<path class="st12" d="M-1045.5,168.7c343.7-88.5,729.5-28,1054.9,87.7c241.8,86,471.8,192.1,691,325s437.9,277,689.6,385.8
			s543.5,181.4,839.8,151.4"/>
		<path class="st13" d="M-1238,385.6C-923.9,254.7-539.1,268.7-201.6,337c270.8,54.7,535.4,132.5,791,243.2s510.9,235.4,793.4,322.1
			s599.5,133.8,908.2,75.6"/>
		<path class="st14" d="M-1430.5,602.4c284.5-173.3,668.6-209,1017.9-184.9c300.2,20.7,599,72.9,891,161.4s583.9,193.9,897.3,258.4
			s655.6,86.1,976.5-0.2"/>
		<path class="st15" d="M-1622.9,819.3c254.9-215.6,641.6-265.4,999.3-321.1c325.4-50.7,662.6,13.3,991.1,79.6
			s656.9,152.4,1001.2,194.8s711.7,38.5,1044.8-76"/>
		<path class="st16" d="M-1815.4,1036.2c225.3-258,605.3-400,980.8-457.4c356.6-54.5,726.2-46.3,1091.1-2.2s729.9,110.9,1105,131.1
			c375.1,20.2,767.8-9.1,1113.1-151.7"/>
		<path class="st17" d="M-2007.9,1253.1c195.8-300.4,571.3-497.3,962.3-593.7c382.9-94.4,789.8-105.9,1191.1-84
			c401.3,21.9,802.9,69.4,1208.9,67.4c406-2,823.9-56.8,1181.4-227.5"/>
		<path class="st18" d="M-2200.4,1470c166.2-342.8,535.9-594.8,943.8-730S-403.2,574.5,34.5,574.2s875.9,27.9,1312.8,3.7
			c436.9-24.2,879.9-104.4,1249.7-303.3"/>
	</g>
</g>
<g id="mountain">
</g>
<g id="range">
</g>
<g id="space" class="st6">
</g>
<g id="Layer_7">
</g>
</svg>
