<?xml version="1.0" encoding="utf-8"?>
<!-- Generator: Adobe Illustrator 28.0.0, SVG Export Plug-In . SVG Version: 6.00 Build 0)  -->
<!DOCTYPE svg PUBLIC "-//W3C//DTD SVG 1.1//EN" "http://www.w3.org/Graphics/SVG/1.1/DTD/svg11.dtd" [
	<!ENTITY st0 "fill:none;stroke:#000000;stroke-width:0.5;stroke-miterlimit:10;">
	<!ENTITY st1 "opacity:0.9474;fill:none;stroke:#000000;stroke-width:0.6316;stroke-miterlimit:10;">
	<!ENTITY st2 "opacity:0.8947;fill:none;stroke:#000000;stroke-width:0.7632;stroke-miterlimit:10;">
	<!ENTITY st3 "opacity:0.8421;fill:none;stroke:#000000;stroke-width:0.8947;stroke-miterlimit:10;">
	<!ENTITY st4 "opacity:0.7895;fill:none;stroke:#000000;stroke-width:1.0263;stroke-miterlimit:10;">
	<!ENTITY st5 "opacity:0.7368;fill:none;stroke:#000000;stroke-width:1.1579;stroke-miterlimit:10;">
	<!ENTITY st6 "opacity:0.6842;fill:none;stroke:#000000;stroke-width:1.2895;stroke-miterlimit:10;">
	<!ENTITY st7 "opacity:0.6316;fill:none;stroke:#000000;stroke-width:1.4211;stroke-miterlimit:10;">
	<!ENTITY st8 "opacity:0.5789;fill:none;stroke:#000000;stroke-width:1.5526;stroke-miterlimit:10;">
	<!ENTITY st9 "opacity:0.5263;fill:none;stroke:#000000;stroke-width:1.6842;stroke-miterlimit:10;">
	<!ENTITY st10 "opacity:0.4737;fill:none;stroke:#000000;stroke-width:1.8158;stroke-miterlimit:10;">
	<!ENTITY st11 "opacity:0.4211;fill:none;stroke:#000000;stroke-width:1.9474;stroke-miterlimit:10;">
	<!ENTITY st12 "opacity:0.3684;fill:none;stroke:#000000;stroke-width:2.0789;stroke-miterlimit:10;">
	<!ENTITY st13 "opacity:0.3158;fill:none;stroke:#000000;stroke-width:2.2105;stroke-miterlimit:10;">
	<!ENTITY st14 "opacity:0.2632;fill:none;stroke:#000000;stroke-width:2.3421;stroke-miterlimit:10;">
	<!ENTITY st15 "opacity:0.2105;fill:none;stroke:#000000;stroke-width:2.4737;stroke-miterlimit:10;">
	<!ENTITY st16 "opacity:0.1579;fill:none;stroke:#000000;stroke-width:2.6053;stroke-miterlimit:10;">
	<!ENTITY st17 "opacity:0.1053;fill:none;stroke:#000000;stroke-width:2.7368;stroke-miterlimit:10;">
	<!ENTITY st18 "opacity:5.263158e-02;fill:none;stroke:#000000;stroke-width:2.8684;stroke-miterlimit:10;">
	<!ENTITY st19 "opacity:0;fill:none;stroke:#000000;stroke-width:3;stroke-miterlimit:10;">
	<!ENTITY st20 "opacity:0.9545;fill:none;stroke:#000000;stroke-width:0.6136;stroke-miterlimit:10;">
	<!ENTITY st21 "opacity:0.9091;fill:none;stroke:#000000;stroke-width:0.7273;stroke-miterlimit:10;">
	<!ENTITY st22 "opacity:0.8636;fill:none;stroke:#000000;stroke-width:0.8409;stroke-miterlimit:10;">
	<!ENTITY st23 "opacity:0.8182;fill:none;stroke:#000000;stroke-width:0.9545;stroke-miterlimit:10;">
	<!ENTITY st24 "opacity:0.7727;fill:none;stroke:#000000;stroke-width:1.0682;stroke-miterlimit:10;">
	<!ENTITY st25 "opacity:0.7273;fill:none;stroke:#000000;stroke-width:1.1818;stroke-miterlimit:10;">
	<!ENTITY st26 "opacity:0.6818;fill:none;stroke:#000000;stroke-width:1.2955;stroke-miterlimit:10;">
	<!ENTITY st27 "opacity:0.6364;fill:none;stroke:#000000;stroke-width:1.4091;stroke-miterlimit:10;">
	<!ENTITY st28 "opacity:0.5909;fill:none;stroke:#000000;stroke-width:1.5227;stroke-miterlimit:10;">
	<!ENTITY st29 "opacity:0.5455;fill:none;stroke:#000000;stroke-width:1.6364;stroke-miterlimit:10;">
	<!ENTITY st30 "opacity:0.5;fill:none;stroke:#000000;stroke-width:1.75;stroke-miterlimit:10;">
	<!ENTITY st31 "opacity:0.4545;fill:none;stroke:#000000;stroke-width:1.8636;stroke-miterlimit:10;">
	<!ENTITY st32 "opacity:0.4091;fill:none;stroke:#000000;stroke-width:1.9773;stroke-miterlimit:10;">
	<!ENTITY st33 "opacity:0.3636;fill:none;stroke:#000000;stroke-width:2.0909;stroke-miterlimit:10;">
	<!ENTITY st34 "opacity:0.3182;fill:none;stroke:#000000;stroke-width:2.2045;stroke-miterlimit:10;">
	<!ENTITY st35 "opacity:0.2727;fill:none;stroke:#000000;stroke-width:2.3182;stroke-miterlimit:10;">
	<!ENTITY st36 "opacity:0.2273;fill:none;stroke:#000000;stroke-width:2.4318;stroke-miterlimit:10;">
	<!ENTITY st37 "opacity:0.1818;fill:none;stroke:#000000;stroke-width:2.5455;stroke-miterlimit:10;">
	<!ENTITY st38 "opacity:0.1364;fill:none;stroke:#000000;stroke-width:2.6591;stroke-miterlimit:10;">
	<!ENTITY st39 "opacity:9.090909e-02;fill:none;stroke:#000000;stroke-width:2.7727;stroke-miterlimit:10;">
	<!ENTITY st40 "opacity:4.545455e-02;fill:none;stroke:#000000;stroke-width:2.8864;stroke-miterlimit:10;">
]>
<svg version="1.1" id="Layer_2" xmlns="http://www.w3.org/2000/svg" xmlns:xlink="http://www.w3.org/1999/xlink" x="0px" y="0px"
	 viewBox="0 0 1080 1920" style="enable-background:new 0 0 1080 1920;" xml:space="preserve">
<g>
	<path style="&st0;" d="M683.5,599.6c0,0,623.6-493.8,439.1-831.5S683.5-585.2,683.5-585.2"/>
	<path style="&st1;" d="M676.3,605.7c0,0,612.2-480.4,443.4-812.3C952.7-534.7,710.5-554.7,708.3-561.5"/>
	<path style="&st2;" d="M669,611.8c0,0,601-466.8,447.7-793c-149.5-318.3-379.1-343-383.6-356.5"/>
	<path style="&st3;" d="M661.7,617.8c0,0,589.7-452.8,452-773.7C981.5-464.1,764.6-493.8,757.9-514"/>
	<path style="&st4;" d="M654.4,623.9c0,0,578.4-438.5,456.3-754.5c-115-297.6-319.1-332.7-328.1-359.6"/>
	<path style="&st5;" d="M647.2,629.9c0,0,567.1-423.8,460.6-735.2c-98.1-286.8-289.1-327.5-300.3-361.2"/>
	<path style="&st6;" d="M639.9,636c0,0,555.6-408.7,464.8-716c-81.4-275.7-259.1-322.3-272.6-362.8"/>
	<path style="&st7;" d="M632.6,642c0,0,544-393.1,469.1-696.7C1036.6-318.8,872.7-371.8,857-419"/>
	<path style="&st8;" d="M625.4,648.1c0,0,532.1-377.1,473.4-677.4c-49.3-252.2-199-312-217-366"/>
	<path style="&st9;" d="M618.1,654.1c0,0,519.8-360.7,477.7-658.2c-34-240-169-306.8-189.3-367.5"/>
	<path style="&st10;" d="M610.8,660.2c0,0,507-343.9,482-638.9c-19.3-227.5-139-301.6-161.5-369.1"/>
	<path style="&st11;" d="M603.6,666.3c0,0,493.5-326.9,486.2-619.7c-5.3-214.7-109-296.5-133.7-370.7"/>
	<path style="&st12;" d="M596.3,672.3c0,0,479-309.6,490.5-600.4c8-201.8-79-291.3-106-372.3"/>
	<path style="&st13;" d="M589,678.4c0,0,463.5-292.4,494.8-581.1c20.5-188.9-49-286.1-78.2-373.9"/>
	<path style="&st14;" d="M581.8,684.4c0,0,446.7-275.4,499.1-561.9c32.2-176.3-18.9-281-50.4-375.4"/>
	<path style="&st15;" d="M574.5,690.5c0,0,428.5-259.1,503.4-542.6c43.3-163.9,11.1-275.8-22.7-377"/>
	<path style="&st16;" d="M567.2,696.5c0,0,408.9-243.8,507.7-523.3C1128.6,21,1116-97.4,1080-205.4"/>
	<path style="&st17;" d="M559.9,702.6c0,0,387.8-229.8,511.9-504.1c63.9-141.2,71.1-265.5,32.9-380.2"/>
	<path style="&st18;" d="M552.7,708.7c0,0,365.6-217.6,516.2-484.8c73.8-131,101.1-260.3,60.6-381.8"/>
	<path style="&st19;" d="M545.4,714.7c0,0,742.2-448.9,608.9-848.9"/>
</g>
<g>
	<path style="&st0;" d="M-110.3,880.8c0,0,505.6-112.7,1294.4,206.6"/>
	<path style="&st1;" d="M-110,882.2c0,0,531.1-116,1294.4,205.2"/>
	<path style="&st2;" d="M-109.7,883.6c0,0,556.7-119.3,1294.4,203.8"/>
	<path style="&st3;" d="M-109.4,885c0,0,582.3-122.7,1294.4,202.4"/>
	<path style="&st4;" d="M-109,886.4c0,0,607.9-126,1294.4,201"/>
	<path style="&st5;" d="M-108.7,887.8c0,0,633.4-129.3,1294.4,199.6"/>
	<path style="&st6;" d="M-108.4,889.2c0,0,659-132.6,1294.4,198.2"/>
	<path style="&st7;" d="M-108,890.6c0,0,684.6-136,1294.4,196.8"/>
	<path style="&st8;" d="M-107.7,892c0,0,710.1-139.3,1294.4,195.4"/>
	<path style="&st9;" d="M-107.4,893.4c0,0,735.7-142.6,1294.4,194"/>
	<path style="&st10;" d="M-107.1,894.8c0,0,761.3-145.9,1294.4,192.6"/>
	<path style="&st11;" d="M-106.7,896.2c0,0,786.8-149.3,1294.4,191.2"/>
	<path style="&st12;" d="M-106.4,897.6c0,0,812.4-152.6,1294.4,189.8"/>
	<path style="&st13;" d="M-106.1,899c0,0,838-155.9,1294.4,188.4"/>
	<path style="&st14;" d="M-105.7,900.4c0,0,863.6-159.2,1294.4,187"/>
	<path style="&st15;" d="M-105.4,901.8c0,0,889.1-162.6,1294.4,185.6"/>
	<path style="&st16;" d="M-105.1,903.2c0,0,914.7-165.9,1294.4,184.2"/>
	<path style="&st17;" d="M-104.7,904.6c0,0,940.3-169.2,1294.4,182.8"/>
	<path style="&st18;" d="M-104.4,906c0,0,965.8-172.5,1294.4,181.4"/>
	<path style="&st19;" d="M-104.1,907.4c0,0,991.4-175.9,1294.4,180"/>
</g>
<g>
	<path style="&st0;" d="M1190.3,1515.4c0,0-505.6-112.7-1294.4,206.6"/>
	<path style="&st20;" d="M1190,1522.9c0,0-526.8-119.3-1294.9,200.5"/>
	<path style="&st21;" d="M1189.7,1530.3c0,0-548.1-125.9-1295.4,194.3"/>
	<path style="&st22;" d="M1189.3,1537.7c0,0-569.4-132.5-1295.9,188.2"/>
	<path style="&st23;" d="M1189,1545.1c0,0-590.6-139.1-1296.3,182.1"/>
	<path style="&st24;" d="M1188.6,1552.5c0,0-611.9-145.7-1296.8,176"/>
	<path style="&st25;" d="M1188.3,1559.9c0,0-633.1-152.2-1297.3,169.8"/>
	<path style="&st26;" d="M1188,1567.3c0,0-654.4-158.8-1297.8,163.7"/>
	<path style="&st27;" d="M1187.6,1574.7c0,0-675.7-165.4-1298.2,157.6"/>
	<path style="&st28;" d="M1187.3,1582.1c0,0-696.9-172-1298.7,151.4"/>
	<path style="&st29;" d="M1186.9,1589.5c0,0-718.2-178.6-1299.2,145.3"/>
	<path style="&st30;" d="M1186.6,1597c0,0-739.5-185.2-1299.7,139.2"/>
	<path style="&st31;" d="M1186.2,1604.4c0,0-760.7-191.8-1300.2,133"/>
	<path style="&st32;" d="M1185.9,1611.8c0,0-782-198.4-1300.6,126.9"/>
	<path style="&st33;" d="M1185.6,1619.2c0,0-803.3-205-1301.1,120.8"/>
	<path style="&st34;" d="M1185.2,1626.6c0,0-824.5-211.6-1301.6,114.6"/>
	<path style="&st35;" d="M1184.9,1634c0,0-845.8-218.2-1302.1,108.5"/>
	<path style="&st36;" d="M1184.5,1641.4c0,0-867-224.7-1302.5,102.4"/>
	<path style="&st37;" d="M1184.2,1648.8c0,0-888.3-231.3-1303,96.3"/>
	<path style="&st38;" d="M1183.9,1656.2c0,0-909.6-237.9-1303.5,90.1"/>
	<path style="&st39;" d="M1183.5,1663.6c0,0-930.8-244.5-1304,84"/>
	<path style="&st40;" d="M1183.2,1671.1c0,0-952.1-251.1-1304.4,77.9"/>
	<path style="&st19;" d="M1182.8,1678.5c0,0-973.4-257.7-1304.9,71.7"/>
</g>
</svg>
