<?xml version="1.0" encoding="utf-8"?>
<!-- Generator: Adobe Illustrator 28.0.0, SVG Export Plug-In . SVG Version: 6.00 Build 0)  -->
<!DOCTYPE svg PUBLIC "-//W3C//DTD SVG 1.1//EN" "http://www.w3.org/Graphics/SVG/1.1/DTD/svg11.dtd" [
	<!ENTITY st0 "clip-path:url(#SVGID_00000065048070869422310260000003681004926671163011_);">
	<!ENTITY st1 "opacity:0;fill:#FFFFFF;">
	<!ENTITY st2 "opacity:4.000000e-02;fill:#F5F5F5;stroke:#FFFFFF;stroke-width:4.000000e-02;stroke-miterlimit:10;">
	<!ENTITY st3 "opacity:8.000000e-02;fill:#EBEBEB;stroke:#FFFFFF;stroke-width:8.000000e-02;stroke-miterlimit:10;">
	<!ENTITY st4 "opacity:0.12;fill:#E0E0E0;stroke:#FFFFFF;stroke-width:0.12;stroke-miterlimit:10;">
	<!ENTITY st5 "opacity:0.16;fill:#D6D6D6;stroke:#FFFFFF;stroke-width:0.16;stroke-miterlimit:10;">
	<!ENTITY st6 "opacity:0.2;fill:#CCCCCC;stroke:#FFFFFF;stroke-width:0.2;stroke-miterlimit:10;">
	<!ENTITY st7 "opacity:0.24;fill:#C2C2C2;stroke:#FFFFFF;stroke-width:0.24;stroke-miterlimit:10;">
	<!ENTITY st8 "opacity:0.28;fill:#B8B8B8;stroke:#FFFFFF;stroke-width:0.28;stroke-miterlimit:10;">
	<!ENTITY st9 "opacity:0.32;fill:#ADADAD;stroke:#FFFFFF;stroke-width:0.32;stroke-miterlimit:10;">
	<!ENTITY st10 "opacity:0.36;fill:#A3A3A3;stroke:#FFFFFF;stroke-width:0.36;stroke-miterlimit:10;">
	<!ENTITY st11 "opacity:0.4;fill:#999999;stroke:#FFFFFF;stroke-width:0.4;stroke-miterlimit:10;">
	<!ENTITY st12 "opacity:0.44;fill:#8F8F8F;stroke:#FFFFFF;stroke-width:0.44;stroke-miterlimit:10;">
	<!ENTITY st13 "opacity:0.48;fill:#858585;stroke:#FFFFFF;stroke-width:0.48;stroke-miterlimit:10;">
	<!ENTITY st14 "opacity:0.52;fill:#7A7A7A;stroke:#FFFFFF;stroke-width:0.52;stroke-miterlimit:10;">
	<!ENTITY st15 "opacity:0.56;fill:#707070;stroke:#FFFFFF;stroke-width:0.56;stroke-miterlimit:10;">
	<!ENTITY st16 "opacity:0.6;fill:#666666;stroke:#FFFFFF;stroke-width:0.6;stroke-miterlimit:10;">
	<!ENTITY st17 "opacity:0.64;fill:#5C5C5C;stroke:#FFFFFF;stroke-width:0.64;stroke-miterlimit:10;">
	<!ENTITY st18 "opacity:0.68;fill:#525252;stroke:#FFFFFF;stroke-width:0.68;stroke-miterlimit:10;">
	<!ENTITY st19 "opacity:0.72;fill:#474747;stroke:#FFFFFF;stroke-width:0.72;stroke-miterlimit:10;">
	<!ENTITY st20 "opacity:0.76;fill:#3D3D3D;stroke:#FFFFFF;stroke-width:0.76;stroke-miterlimit:10;">
	<!ENTITY st21 "opacity:0.8;fill:#333333;stroke:#FFFFFF;stroke-width:0.8;stroke-miterlimit:10;">
	<!ENTITY st22 "opacity:0.84;fill:#292929;stroke:#FFFFFF;stroke-width:0.84;stroke-miterlimit:10;">
	<!ENTITY st23 "opacity:0.88;fill:#1F1F1F;stroke:#FFFFFF;stroke-width:0.88;stroke-miterlimit:10;">
	<!ENTITY st24 "opacity:0.92;fill:#141414;stroke:#FFFFFF;stroke-width:0.92;stroke-miterlimit:10;">
	<!ENTITY st25 "opacity:0.96;fill:#0A0A0A;stroke:#FFFFFF;stroke-width:0.96;stroke-miterlimit:10;">
	<!ENTITY st26 "stroke:#FFFFFF;stroke-miterlimit:10;">
	<!ENTITY st27 "fill:#FAFAFA;stroke:#FFFFFF;stroke-miterlimit:10;">
	<!ENTITY st28 "fill:#FFFFFF;stroke:#FFFFFF;stroke-miterlimit:10;">
]>
<svg version="1.1" id="Layer_1" xmlns="http://www.w3.org/2000/svg" xmlns:xlink="http://www.w3.org/1999/xlink" x="0px" y="0px"
	 viewBox="0 0 1080 1920" style="enable-background:new 0 0 1080 1920;" xml:space="preserve">
<g>
	<defs>
		<rect id="SVGID_1_" width="1080" height="1920"/>
	</defs>
	<clipPath id="SVGID_00000087369889969952459290000004250624700555883938_">
		<use xlink:href="#SVGID_1_"  style="overflow:visible;"/>
	</clipPath>
	<g style="clip-path:url(#SVGID_00000087369889969952459290000004250624700555883938_);">
		<g>
			
				<ellipse transform="matrix(0.7996 -0.6005 0.6005 0.7996 -103.6747 261.0844)" style="&st1;" cx="339.4" cy="285.9" rx="1134.5" ry="456.2"/>
			
				<ellipse transform="matrix(0.7974 -0.6035 0.6035 0.7974 -103.7632 262.7188)" style="&st2;" cx="339.4" cy="285.9" rx="1134.9" ry="455.9"/>
			
				<ellipse transform="matrix(0.7952 -0.6064 0.6064 0.7952 -103.8456 264.3515)" style="&st3;" cx="339.4" cy="285.9" rx="1135.4" ry="455.7"/>
			
				<ellipse transform="matrix(0.7929 -0.6093 0.6093 0.7929 -103.9218 265.9823)" style="&st4;" cx="339.4" cy="285.9" rx="1135.8" ry="455.4"/>
			
				<ellipse transform="matrix(0.7907 -0.6122 0.6122 0.7907 -103.992 267.6111)" style="&st5;" cx="339.4" cy="285.9" rx="1136.3" ry="455.2"/>
			
				<ellipse transform="matrix(0.7884 -0.6151 0.6151 0.7884 -104.056 269.2379)" style="&st6;" cx="339.4" cy="285.9" rx="1136.8" ry="454.9"/>
			
				<ellipse transform="matrix(0.7862 -0.618 0.618 0.7862 -104.1141 270.8627)" style="&st7;" cx="339.4" cy="285.9" rx="1137.3" ry="454.7"/>
			
				<ellipse transform="matrix(0.7839 -0.6209 0.6209 0.7839 -104.1661 272.4853)" style="&st8;" cx="339.4" cy="285.9" rx="1137.8" ry="454.5"/>
			
				<ellipse transform="matrix(0.7816 -0.6237 0.6237 0.7816 -104.2121 274.1056)" style="&st9;" cx="339.4" cy="285.9" rx="1138.3" ry="454.2"/>
			
				<ellipse transform="matrix(0.7794 -0.6266 0.6266 0.7794 -104.2521 275.7237)" style="&st10;" cx="339.4" cy="285.9" rx="1138.9" ry="454"/>
			
				<ellipse transform="matrix(0.7771 -0.6294 0.6294 0.7771 -104.2862 277.3395)" style="&st11;" cx="339.4" cy="285.9" rx="1139.4" ry="453.7"/>
			
				<ellipse transform="matrix(0.7748 -0.6322 0.6322 0.7748 -104.3143 278.9529)" style="&st12;" cx="339.4" cy="285.9" rx="1140" ry="453.5"/>
			
				<ellipse transform="matrix(0.7725 -0.635 0.635 0.7725 -104.3366 280.5638)" style="&st13;" cx="339.4" cy="285.9" rx="1140.6" ry="453.3"/>
			
				<ellipse transform="matrix(0.7702 -0.6378 0.6378 0.7702 -104.353 282.1721)" style="&st14;" cx="339.4" cy="285.9" rx="1141.2" ry="453"/>
			
				<ellipse transform="matrix(0.7679 -0.6406 0.6406 0.7679 -104.3635 283.778)" style="&st15;" cx="339.4" cy="285.9" rx="1141.8" ry="452.8"/>
			
				<ellipse transform="matrix(0.7655 -0.6434 0.6434 0.7655 -104.3682 285.3812)" style="&st16;" cx="339.4" cy="285.9" rx="1142.4" ry="452.6"/>
			
				<ellipse transform="matrix(0.7632 -0.6462 0.6462 0.7632 -104.3672 286.9817)" style="&st17;" cx="339.4" cy="285.9" rx="1143.1" ry="452.3"/>
			
				<ellipse transform="matrix(0.7609 -0.6489 0.6489 0.7609 -104.3604 288.5794)" style="&st18;" cx="339.4" cy="285.9" rx="1143.7" ry="452.1"/>
			
				<ellipse transform="matrix(0.7585 -0.6516 0.6516 0.7585 -104.3478 290.1743)" style="&st19;" cx="339.4" cy="285.9" rx="1144.4" ry="451.8"/>
			
				<ellipse transform="matrix(0.7562 -0.6543 0.6543 0.7562 -104.3296 291.7664)" style="&st20;" cx="339.4" cy="285.9" rx="1145.1" ry="451.6"/>
			
				<ellipse transform="matrix(0.7538 -0.657 0.657 0.7538 -104.3057 293.3556)" style="&st21;" cx="339.4" cy="285.9" rx="1145.8" ry="451.4"/>
			
				<ellipse transform="matrix(0.7515 -0.6597 0.6597 0.7515 -104.2762 294.9417)" style="&st22;" cx="339.4" cy="285.9" rx="1146.5" ry="451.2"/>
			
				<ellipse transform="matrix(0.7491 -0.6624 0.6624 0.7491 -104.2411 296.5249)" style="&st23;" cx="339.4" cy="285.9" rx="1147.2" ry="450.9"/>
			
				<ellipse transform="matrix(0.7468 -0.6651 0.6651 0.7468 -104.2004 298.105)" style="&st24;" cx="339.4" cy="285.9" rx="1147.9" ry="450.7"/>
			
				<ellipse transform="matrix(0.7444 -0.6677 0.6677 0.7444 -104.1541 299.6819)" style="&st25;" cx="339.4" cy="285.9" rx="1148.6" ry="450.5"/>
			
				<ellipse transform="matrix(0.742 -0.6704 0.6704 0.742 -104.1024 301.2557)" style="&st26;" cx="339.4" cy="285.9" rx="1149.4" ry="450.2"/>
		</g>
		
			<ellipse transform="matrix(0.742 -0.6704 0.6704 0.742 -104.1024 301.2557)" style="&st27;" cx="339.4" cy="285.9" rx="1149.4" ry="450.2"/>
	</g>
	<g style="clip-path:url(#SVGID_00000087369889969952459290000004250624700555883938_);">
		<g>
			<path style="&st1;" d="M107.6,2178.7L-152.4,633c0,0,597-159,1090.8-25.8s234.2,1392.3,234.2,1392.3L107.6,2178.7z"/>
			<path style="&st2;" d="M101.9,2176.7L-147.8,630.2c0,0,597.7-155,1090.4-18.5s224.8,1393.1,224.8,1393.1L101.9,2176.7z"/>
			<path style="&st3;" d="M96.1,2174.8L-143.1,627.3c0,0,598.5-150.9,1090-11.3s215.5,1393.9,215.5,1393.9L96.1,2174.8z"/>
			<path style="&st4;" d="M90.4,2172.8L-138.4,624.4c0,0,599.2-146.9,1089.5-4s206.1,1394.7,206.1,1394.7L90.4,2172.8z"/>
			<path style="&st5;" d="M84.6,2170.8L-133.8,621.6c0,0,599.9-142.8,1089.1,3.2s196.7,1395.5,196.7,1395.5L84.6,2170.8z"/>
			<path style="&st6;" d="M78.9,2168.8l-208-1550.1c0,0,600.6-138.8,1088.7,10.5s187.4,1396.2,187.4,1396.2L78.9,2168.8z"/>
			<path style="&st7;" d="M73.1,2166.8L-124.5,615.8c0,0,601.3-134.7,1088.2,17.8s178,1397,178,1397L73.1,2166.8z"/>
			<path style="&st8;" d="M67.4,2164.8L-119.8,613c0,0,602.1-130.7,1087.8,25s168.6,1397.8,168.6,1397.8L67.4,2164.8z"/>
			<path style="&st9;" d="M61.7,2162.8L-115.2,610.1c0,0,602.8-126.6,1087.4,32.3S1131.5,2041,1131.5,2041L61.7,2162.8z"/>
			<path style="&st10;" d="M55.9,2160.8L-110.5,607.2c0,0,603.5-122.6,1086.9,39.5s149.9,1399.4,149.9,1399.4L55.9,2160.8z"/>
			<path style="&st11;" d="M50.2,2158.8l-156-1554.4c0,0,604.2-118.5,1086.5,46.8s140.5,1400.2,140.5,1400.2L50.2,2158.8z"/>
			<path style="&st12;" d="M44.4,2156.8L-101.2,601.5c0,0,605-114.5,1086.1,54S1116,2056.5,1116,2056.5L44.4,2156.8z"/>
			<path style="&st13;" d="M38.7,2154.8L-96.5,598.7c0,0,605.7-110.4,1085.6,61.3s121.8,1401.7,121.8,1401.7L38.7,2154.8z"/>
			<path style="&st14;" d="M32.9,2152.8l-124.8-1557c0,0,606.4-106.4,1085.2,68.5s112.4,1402.5,112.4,1402.5L32.9,2152.8z"/>
			<path style="&st15;" d="M27.2,2150.8L-87.2,592.9c0,0,607.1-102.3,1084.8,75.8S1100.6,2072,1100.6,2072L27.2,2150.8z"/>
			<path style="&st16;" d="M21.4,2148.8l-104-1558.8c0,0,607.9-98.3,1084.3,83s93.7,1404.1,93.7,1404.1L21.4,2148.8z"/>
			<path style="&st17;" d="M15.7,2146.8L-77.9,587.2c0,0,608.6-94.2,1083.9,90.3s84.3,1404.8,84.3,1404.8L15.7,2146.8z"/>
			<path style="&st18;" d="M10,2144.8L-73.3,584.3c0,0,609.3-90.2,1083.5,97.5s74.9,1405.6,74.9,1405.6L10,2144.8z"/>
			<path style="&st19;" d="M4.2,2142.8L-68.6,581.5c0,0,610-86.1,1083,104.8s65.6,1406.4,65.6,1406.4L4.2,2142.8z"/>
			<path style="&st20;" d="M-1.5,2140.9L-63.9,578.6c0,0,610.8-82.1,1082.6,112s56.2,1407.2,56.2,1407.2L-1.5,2140.9z"/>
			<path style="&st21;" d="M-7.3,2138.9l-52-1563.1c0,0,611.5-78,1082.2,119.3s46.8,1408,46.8,1408L-7.3,2138.9z"/>
			<path style="&st22;" d="M-13,2136.9l-41.6-1564c0,0,612.2-74,1081.7,126.5s37.5,1408.8,37.5,1408.8L-13,2136.9z"/>
			<path style="&st23;" d="M-18.8,2134.9L-50,570c0,0,612.9-69.9,1081.3,133.8s28.1,1409.5,28.1,1409.5L-18.8,2134.9z"/>
			<path style="&st24;" d="M-24.5,2132.9L-45.3,567.2c0,0,613.7-65.9,1080.9,141.1s18.7,1410.3,18.7,1410.3L-24.5,2132.9z"/>
			<path style="&st25;" d="M-30.3,2130.9L-40.7,564.3c0,0,614.4-61.8,1080.4,148.3s9.4,1411.1,9.4,1411.1L-30.3,2130.9z"/>
			<path style="&st26;" d="M-36,2128.9V561.4c0,0,615.1-57.8,1080,155.6s0,1411.9,0,1411.9H-36z"/>
		</g>
		<path style="&st28;" d="M-36,2128.9V561.4c0,0,615.1-57.8,1080,155.6s0,1411.9,0,1411.9H-36z"/>
	</g>
	<g style="clip-path:url(#SVGID_00000087369889969952459290000004250624700555883938_);">
		<g>
			<ellipse style="&st1;" cx="540" cy="1781.4" rx="976.7" ry="288.9"/>
			
				<ellipse transform="matrix(1 -2.512381e-03 2.512381e-03 1 -4.474 1.3623)" style="&st2;" cx="540" cy="1781.4" rx="976.6" ry="288.9"/>
			
				<ellipse transform="matrix(1 -5.025112e-03 5.025112e-03 1 -8.9451 2.7361)" style="&st3;" cx="540" cy="1781.4" rx="976.5" ry="288.8"/>
			
				<ellipse transform="matrix(1 -7.538145e-03 7.538145e-03 1 -13.4134 4.1212)" style="&st4;" cx="540" cy="1781.4" rx="976.5" ry="288.8"/>
			
				<ellipse transform="matrix(0.9999 -1.005143e-02 1.005143e-02 0.9999 -17.8788 5.5178)" style="&st5;" cx="540" cy="1781.4" rx="976.4" ry="288.8"/>
			
				<ellipse transform="matrix(0.9999 -1.256492e-02 1.256492e-02 0.9999 -22.3411 6.9257)" style="&st6;" cx="540" cy="1781.4" rx="976.4" ry="288.8"/>
			
				<ellipse transform="matrix(0.9999 -1.507858e-02 1.507858e-02 0.9999 -26.8003 8.345)" style="&st7;" cx="540" cy="1781.4" rx="976.3" ry="288.8"/>
			
				<ellipse transform="matrix(0.9998 -1.759234e-02 1.759234e-02 0.9998 -31.2562 9.7756)" style="&st8;" cx="540" cy="1781.4" rx="976.3" ry="288.8"/>
			
				<ellipse transform="matrix(0.9998 -2.010617e-02 2.010617e-02 0.9998 -35.7089 11.2174)" style="&st9;" cx="540" cy="1781.4" rx="976.2" ry="288.8"/>
			
				<ellipse transform="matrix(0.9997 -2.262001e-02 2.262001e-02 0.9997 -40.1581 12.6706)" style="&st10;" cx="540" cy="1781.4" rx="976.2" ry="288.8"/>
			
				<ellipse transform="matrix(0.9997 -2.513382e-02 2.513382e-02 0.9997 -44.6039 14.135)" style="&st11;" cx="540" cy="1781.4" rx="976.2" ry="288.8"/>
			
				<ellipse transform="matrix(0.9996 -2.764755e-02 2.764755e-02 0.9996 -49.0462 15.6107)" style="&st12;" cx="540" cy="1781.4" rx="976.2" ry="288.7"/>
			
				<ellipse transform="matrix(0.9995 -3.016116e-02 3.016116e-02 0.9995 -53.4848 17.0975)" style="&st13;" cx="540" cy="1781.4" rx="976.2" ry="288.7"/>
			
				<ellipse transform="matrix(0.9995 -3.267459e-02 3.267459e-02 0.9995 -57.9196 18.5955)" style="&st14;" cx="540" cy="1781.4" rx="976.2" ry="288.7"/>
			
				<ellipse transform="matrix(0.9994 -3.518780e-02 3.518780e-02 0.9994 -62.3507 20.1046)" style="&st15;" cx="540" cy="1781.4" rx="976.2" ry="288.7"/>
			
				<ellipse transform="matrix(0.9993 -3.770073e-02 3.770073e-02 0.9993 -66.7779 21.6249)" style="&st16;" cx="540" cy="1781.4" rx="976.2" ry="288.8"/>
			
				<ellipse transform="matrix(0.9992 -4.021335e-02 4.021335e-02 0.9992 -71.2011 23.1562)" style="&st17;" cx="540" cy="1781.4" rx="976.2" ry="288.8"/>
			
				<ellipse transform="matrix(0.9991 -4.272560e-02 4.272560e-02 0.9991 -75.6202 24.6986)" style="&st18;" cx="540" cy="1781.4" rx="976.2" ry="288.8"/>
			
				<ellipse transform="matrix(0.999 -4.523745e-02 4.523745e-02 0.999 -80.0352 26.252)" style="&st19;" cx="540" cy="1781.4" rx="976.3" ry="288.8"/>
			
				<ellipse transform="matrix(0.9989 -4.774883e-02 4.774883e-02 0.9989 -84.4459 27.8163)" style="&st20;" cx="540" cy="1781.4" rx="976.3" ry="288.8"/>
			
				<ellipse transform="matrix(0.9987 -5.025970e-02 5.025970e-02 0.9987 -88.8524 29.3917)" style="&st21;" cx="540" cy="1781.4" rx="976.4" ry="288.8"/>
			
				<ellipse transform="matrix(0.9986 -5.277001e-02 5.277001e-02 0.9986 -93.2545 30.9779)" style="&st22;" cx="540" cy="1781.4" rx="976.4" ry="288.8"/>
			
				<ellipse transform="matrix(0.9985 -5.527973e-02 5.527973e-02 0.9985 -97.6521 32.575)" style="&st23;" cx="540" cy="1781.4" rx="976.5" ry="288.8"/>
			
				<ellipse transform="matrix(0.9983 -5.778879e-02 5.778879e-02 0.9983 -102.0451 34.183)" style="&st24;" cx="540" cy="1781.4" rx="976.5" ry="288.8"/>
			
				<ellipse transform="matrix(0.9982 -6.029716e-02 6.029716e-02 0.9982 -106.4335 35.8019)" style="&st25;" cx="540" cy="1781.4" rx="976.6" ry="288.9"/>
			
				<ellipse transform="matrix(0.998 -6.280477e-02 6.280477e-02 0.998 -110.8172 37.4314)" style="&st26;" cx="540" cy="1781.4" rx="976.7" ry="288.9"/>
		</g>
		
			<ellipse transform="matrix(0.998 -6.280477e-02 6.280477e-02 0.998 -110.8172 37.4314)" style="&st27;" cx="540" cy="1781.4" rx="976.7" ry="288.9"/>
	</g>
</g>
</svg>
