<?xml version="1.0" encoding="utf-8"?>
<!-- Generator: Adobe Illustrator 28.0.0, SVG Export Plug-In . SVG Version: 6.00 Build 0)  -->
<!DOCTYPE svg PUBLIC "-//W3C//DTD SVG 1.1//EN" "http://www.w3.org/Graphics/SVG/1.1/DTD/svg11.dtd" [
	<!ENTITY st0 "filter:url(#AI_GaussianBlur_7);">
	<!ENTITY st1 "fill:none;stroke:#FFFFFF;stroke-miterlimit:10;">
	<!ENTITY st2 "fill:#FAFAFA;stroke:#FFFFFF;stroke-miterlimit:10;">
	<!ENTITY st3 "fill:none;">
]>
<svg version="1.1" xmlns="http://www.w3.org/2000/svg" xmlns:xlink="http://www.w3.org/1999/xlink" x="0px" y="0px"
	 viewBox="0 0 1080 1920" style="enable-background:new 0 0 1080 1920;" xml:space="preserve">
<filter  id="AI_GaussianBlur_7">
	<feGaussianBlur  stdDeviation="14"></feGaussianBlur>
</filter>
<g id="Layer_1">
	<g style="&st0;">
		<path d="M31.6,1963.6L-132.7,404.8c0,0,605.7-121.9,1090.4,41.5s148,1404.1,148,1404.1L31.6,1963.6z"/>
		<path style="&st1;" d="M31.6,1963.6L-132.7,404.8c0,0,605.7-121.9,1090.4,41.5s148,1404.1,148,1404.1L31.6,1963.6z"/>
	</g>
	<path style="&st2;" d="M0,1920V352.6c0,0,615.1-57.8,1080,155.6s0,1411.9,0,1411.9H0z"/>
	<g style="&st0;">
		<ellipse cx="540" cy="1781.4" rx="976.7" ry="288.9"/>
		<ellipse style="&st1;" cx="540" cy="1781.4" rx="976.7" ry="288.9"/>
	</g>
	
		<ellipse transform="matrix(0.998 -6.280477e-02 6.280477e-02 0.998 -110.8172 37.4314)" style="&st2;" cx="540" cy="1781.4" rx="976.7" ry="288.9"/>
	<rect style="&st3;" width="1080" height="1920"/>
</g>
<g id="Layer_2">
</g>
</svg>
