<?xml version="1.0" encoding="UTF-8"?><svg id="uuid-414d6db2-4b5f-47f2-a463-0af8abef4a21" xmlns="http://www.w3.org/2000/svg" viewBox="0 0 1344 448"><path d="M32,32v192c0-53.02,42.98-96,96-96s96,42.98,96,96-42.98,96-96,96-96-42.98-96-96" fill="none" stroke="#fff" stroke-miterlimit="10" stroke-width="64"/><path d="M224,96v128c0,52.66,43.34,96,96,96s96-43.34,96-96V96v320" fill="none" stroke="#fff" stroke-miterlimit="10" stroke-width="64"/><path d="M544,416v-192c0,53.02,42.98,96,96,96s96-42.98,96-96-42.98-96-96-96-96,42.98-96,96" fill="none" stroke="#fff" stroke-miterlimit="10" stroke-width="64"/><path d="M880,307.24c-14.59,8.43-31.15,12.86-48,12.86-52.66,0-96-43.34-96-96s43.34-96,96-96c34.25,0,66.01,18.33,83.14,48l-165.93,95.8,304.23-175.65" fill="none" stroke="#fff" stroke-miterlimit="10" stroke-width="64"/><path d="M928,32s0,112,0,192.3c0,52.66,43.34,96,96,96,16.85,0,33.41-4.44,48-12.86l227.14-131.34" fill="none" stroke="#fff" stroke-miterlimit="10" stroke-width="64"/><path d="M1264,307.24c-14.59,8.43-31.15,12.86-48,12.86-52.66,0-96-43.34-96-96s43.34-96,96-96c34.25,0,66.01,18.33,83.14,48l-165.93,95.8" fill="none" stroke="#fff" stroke-miterlimit="10" stroke-width="64"/></svg>