<?xml version="1.0" encoding="utf-8"?>
<!-- Generator: Adobe Illustrator 28.0.0, SVG Export Plug-In . SVG Version: 6.00 Build 0)  -->
<!DOCTYPE svg PUBLIC "-//W3C//DTD SVG 1.1//EN" "http://www.w3.org/Graphics/SVG/1.1/DTD/svg11.dtd" [
	<!ENTITY st0 "fill:#FFFFFF;">
	<!ENTITY st1 "display:none;">
	<!ENTITY st2 "display:inline;">
	<!ENTITY st3 "display:inline;fill:#FFFFFF;">
	<!ENTITY st4 "fill:none;">
	<!ENTITY st5 "fill:none;stroke:#000000;stroke-miterlimit:10;">
]>
<svg version="1.1" xmlns="http://www.w3.org/2000/svg" xmlns:xlink="http://www.w3.org/1999/xlink" x="0px" y="0px"
	 viewBox="0 0 1920 1080" style="enable-background:new 0 0 1920 1080;" xml:space="preserve">
<symbol  id="New_Symbol" viewBox="-6 -6 12 12">
	<g>
		<circle style="&st0;" cx="0" cy="0" r="5.6"/>
		<path d="M0,5.3c2.9,0,5.2-2.4,5.2-5.2S2.9-5.2,0-5.2S-5.3-2.9-5.3,0S-2.9,5.3,0,5.3 M0,6c-3.3,0-6-2.7-6-6s2.7-6,6-6s6,2.7,6,6
			S3.3,6,0,6L0,6z"/>
	</g>
</symbol>
<g id="Layer_2" style="&st1;">
	<g style="&st2;">
		<rect x="0.5" y="0.5" style="&st0;" width="1919" height="1079"/>
		<path d="M1919,1v1078H1V1H1919 M1920,0H0v1080h1920V0L1920,0z"/>
	</g>
	<g style="&st2;">
		
			<use xlink:href="#New_Symbol"  width="12" height="12" x="-6" y="-6" transform="matrix(-0.2923 -0.956 -0.9561 0.2923 302.168 875.786)" style="overflow:visible;"/>
		
			<use xlink:href="#New_Symbol"  width="12" height="12" x="-6" y="-6" transform="matrix(0.8659 0.4999 0.4999 -0.8659 241.2305 335.918)" style="overflow:visible;"/>
		
			<use xlink:href="#New_Symbol"  width="12" height="12" x="-6" y="-6" transform="matrix(-0.4066 -0.9133 -0.9133 0.4066 118.5351 500.9435)" style="overflow:visible;"/>
		
			<use xlink:href="#New_Symbol"  width="12" height="12" x="-6" y="-6" transform="matrix(-0.9924 0.1219 0.1219 0.9924 1766.8359 957.9858)" style="overflow:visible;"/>
		
			<use xlink:href="#New_Symbol"  width="12" height="12" x="-6" y="-6" transform="matrix(0.2923 -0.9561 -0.9561 -0.2923 1443.8673 852.4512)" style="overflow:visible;"/>
		
			<use xlink:href="#New_Symbol"  width="12" height="12" x="-6" y="-6" transform="matrix(0.8659 0.4999 0.4999 -0.8659 1601.1328 326.4587)" style="overflow:visible;"/>
		
			<use xlink:href="#New_Symbol"  width="12" height="12" x="-6" y="-6" transform="matrix(0.1564 -0.9875 -0.9875 -0.1564 732.129 32.86)" style="overflow:visible;"/>
		
			<use xlink:href="#New_Symbol"  width="12" height="12" x="-6" y="-6" transform="matrix(0.5877 0.809 0.809 -0.5877 1105.7812 170.365)" style="overflow:visible;"/>
		
			<use xlink:href="#New_Symbol"  width="12" height="12" x="-6" y="-6" transform="matrix(0.5446 -0.8386 -0.8386 -0.5446 51.7384 722.7905)" style="overflow:visible;"/>
		
			<use xlink:href="#New_Symbol"  width="12" height="12" x="-6" y="-6" transform="matrix(-0.7547 0.656 0.656 0.7547 509.707 153.0945)" style="overflow:visible;"/>
		
			<use xlink:href="#New_Symbol"  width="12" height="12" x="-6" y="-6" transform="matrix(0.1736 -0.9846 -0.9846 -0.1736 1044.8438 774.3383)" style="overflow:visible;"/>
		
			<use xlink:href="#New_Symbol"  width="12" height="12" x="-6" y="-6" transform="matrix(-0.6293 0.7771 0.7771 0.6293 660.6445 791.7078)" style="overflow:visible;"/>
		
			<use xlink:href="#New_Symbol"  width="12" height="12" x="-6" y="-6" transform="matrix(6.975373e-02 0.9975 0.9975 -6.975382e-02 893.3203 507.8321)" style="overflow:visible;"/>
		
			<use xlink:href="#New_Symbol"  width="12" height="12" x="-6" y="-6" transform="matrix(0.9846 -0.1736 -0.1736 -0.9846 1186.8165 1029.6057)" style="overflow:visible;"/>
		
			<use xlink:href="#New_Symbol"  width="12" height="12" x="-6" y="-6" transform="matrix(0.6691 -0.7431 -0.7431 -0.6691 606.0938 504.7009)" style="overflow:visible;"/>
		
			<use xlink:href="#New_Symbol"  width="12" height="12" x="-6" y="-6" transform="matrix(-0.8191 0.5735 0.5735 0.8191 1810.5468 613.96)" style="overflow:visible;"/>
		
			<use xlink:href="#New_Symbol"  width="12" height="12" x="-6" y="-6" transform="matrix(-0.6156 0.788 0.788 0.6156 1314.1992 384.6313)" style="overflow:visible;"/>
		
			<use xlink:href="#New_Symbol"  width="12" height="12" x="-6" y="-6" transform="matrix(-0.2079 0.9779 0.9779 0.2079 1592.2266 504.2395)" style="overflow:visible;"/>
		
			<use xlink:href="#New_Symbol"  width="12" height="12" x="-6" y="-6" transform="matrix(0.9975 6.975294e-02 6.975342e-02 -0.9975 145.8398 992.0654)" style="overflow:visible;"/>
		
			<use xlink:href="#New_Symbol"  width="12" height="12" x="-6" y="-6" transform="matrix(-0.9701 -0.2419 -0.2419 0.9701 1304.4141 203.9832)" style="overflow:visible;"/>
		
			<use xlink:href="#New_Symbol"  width="12" height="12" x="-6" y="-6" transform="matrix(0.8745 -0.4847 -0.4847 -0.8745 1113.5742 517.2253)" style="overflow:visible;"/>
		
			<use xlink:href="#New_Symbol"  width="12" height="12" x="-6" y="-6" transform="matrix(-0.4383 -0.8986 -0.8986 0.4383 797.6953 998.3276)" style="overflow:visible;"/>
		
			<use xlink:href="#New_Symbol"  width="12" height="12" x="-6" y="-6" transform="matrix(-0.3906 0.9203 0.9203 0.3906 1434.375 48.5816)" style="overflow:visible;"/>
		
			<use xlink:href="#New_Symbol"  width="12" height="12" x="-6" y="-6" transform="matrix(0.788 -0.6156 -0.6156 -0.788 880.6641 213.0469)" style="overflow:visible;"/>
		
			<use xlink:href="#New_Symbol"  width="12" height="12" x="-6" y="-6" transform="matrix(-6.975347e-02 0.9975 0.9975 6.975356e-02 412.6758 472.2693)" style="overflow:visible;"/>
		
			<use xlink:href="#New_Symbol"  width="12" height="12" x="-6" y="-6" transform="matrix(-0.3906 -0.9203 0.9203 -0.3906 1805.3906 407.4719)" style="overflow:visible;"/>
		
			<use xlink:href="#New_Symbol"  width="12" height="12" x="-6" y="-6" transform="matrix(0.3255 0.9453 0.9453 -0.3255 426.8555 711.222)" style="overflow:visible;"/>
		
			<use xlink:href="#New_Symbol"  width="12" height="12" x="-6" y="-6" transform="matrix(-0.1045 0.9944 0.9944 0.1045 143.4375 186.9104)" style="overflow:visible;"/>
		
			<use xlink:href="#New_Symbol"  width="12" height="12" x="-6" y="-6" transform="matrix(-0.9846 0.1736 0.1736 0.9846 1812.5391 46.0107)" style="overflow:visible;"/>
		
			<use xlink:href="#New_Symbol"  width="12" height="12" x="-6" y="-6" transform="matrix(0.6293 -0.7771 -0.7771 -0.6293 1634.9414 840.2893)" style="overflow:visible;"/>
		
			<use xlink:href="#New_Symbol"  width="12" height="12" x="-6" y="-6" transform="matrix(-0.9901 0.1392 0.1392 0.9901 999.3749 344.8169)" style="overflow:visible;"/>
		
			<use xlink:href="#New_Symbol"  width="12" height="12" x="-6" y="-6" transform="matrix(0.2079 -0.9779 -0.9779 -0.2079 1583.4375 144.2615)" style="overflow:visible;"/>
		
			<use xlink:href="#New_Symbol"  width="12" height="12" x="-6" y="-6" transform="matrix(-0.8386 0.5446 0.5446 0.8386 826.2304 703.0151)" style="overflow:visible;"/>
		
			<use xlink:href="#New_Symbol"  width="12" height="12" x="-6" y="-6" transform="matrix(-0.7986 -0.6017 -0.6018 0.7985 997.3242 953.1409)" style="overflow:visible;"/>
		
			<use xlink:href="#New_Symbol"  width="12" height="12" x="-6" y="-6" transform="matrix(-0.4694 0.8828 0.8828 0.4694 1531.6992 1022.124)" style="overflow:visible;"/>
		
			<use xlink:href="#New_Symbol"  width="12" height="12" x="-6" y="-6" transform="matrix(-0.9561 0.2923 0.2923 0.956 343.3593 67.0386)" style="overflow:visible;"/>
		
			<use xlink:href="#New_Symbol"  width="12" height="12" x="-6" y="-6" transform="matrix(-0.9133 -0.4066 -0.4066 0.9133 1390.3711 668.0786)" style="overflow:visible;"/>
		
			<use xlink:href="#New_Symbol"  width="12" height="12" x="-6" y="-6" transform="matrix(-0.9203 0.3906 0.3906 0.9203 1231.1133 777.832)" style="overflow:visible;"/>
		
			<use xlink:href="#New_Symbol"  width="12" height="12" x="-6" y="-6" transform="matrix(0.857 0.515 0.515 -0.857 597.1875 1043.3496)" style="overflow:visible;"/>
		
			<use xlink:href="#New_Symbol"  width="12" height="12" x="-6" y="-6" transform="matrix(-0.8745 -0.4847 -0.4847 0.8745 734.9414 380.3137)" style="overflow:visible;"/>
		
			<use xlink:href="#New_Symbol"  width="12" height="12" x="-6" y="-6" transform="matrix(0.6691 -0.7431 -0.7431 -0.6691 420.9375 1058.0493)" style="overflow:visible;"/>
		
			<use xlink:href="#New_Symbol"  width="12" height="12" x="-6" y="-6" transform="matrix(0.2249 0.9742 0.9742 -0.2249 545.9766 336.1817)" style="overflow:visible;"/>
		
			<use xlink:href="#New_Symbol"  width="12" height="12" x="-6" y="-6" transform="matrix(0.9742 -0.2249 -0.2249 -0.9742 61.0547 22.2473)" style="overflow:visible;"/>
		
			<use xlink:href="#New_Symbol"  width="12" height="12" x="-6" y="-6" transform="matrix(0.9269 0.3745 0.3745 -0.9269 1909.6289 801.4966)" style="overflow:visible;"/>
		
			<use xlink:href="#New_Symbol"  width="12" height="12" x="-6" y="-6" transform="matrix(-0.1219 0.9924 0.9924 0.1219 1874.0625 212.3218)" style="overflow:visible;"/>
		
			<use xlink:href="#New_Symbol"  width="12" height="12" x="-6" y="-6" transform="matrix(0.9814 -0.1908 -0.1908 -0.9814 994.2188 34.7388)" style="overflow:visible;"/>
		
			<use xlink:href="#New_Symbol"  width="12" height="12" x="-6" y="-6" transform="matrix(-0.7313 -0.682 -0.682 0.7314 1904.6484 1070.6067)" style="overflow:visible;"/>
	</g>
</g>
<g id="Layer_1" style="&st1;">
	<g>
		<rect x="0.5" y="0.5" style="&st3;" width="1919" height="1079"/>
		<path style="&st2;" d="M1919,1v1078H1V1H1919 M1920,0H0v1080h1920V0L1920,0z"/>
	</g>
	<g>
		
			<use xlink:href="#New_Symbol"  width="12" height="12" x="-6" y="-6" transform="matrix(-0.2923 -0.956 -0.9561 0.2923 302 875.9999)" style="display:inline;overflow:visible;"/>
		
			<use xlink:href="#New_Symbol"  width="12" height="12" x="-6" y="-6" transform="matrix(0.8659 0.4999 0.4999 -0.8659 241 336)" style="display:inline;overflow:visible;"/>
		
			<use xlink:href="#New_Symbol"  width="12" height="12" x="-6" y="-6" transform="matrix(-0.4066 -0.9133 -0.9133 0.4066 119 501)" style="display:inline;overflow:visible;"/>
		
			<use xlink:href="#New_Symbol"  width="12" height="12" x="-6" y="-6" transform="matrix(-0.9924 0.1219 0.1219 0.9924 1767 958)" style="display:inline;overflow:visible;"/>
		
			<use xlink:href="#New_Symbol"  width="12" height="12" x="-6" y="-6" transform="matrix(0.2923 -0.9561 -0.9561 -0.2923 1444 851.9999)" style="display:inline;overflow:visible;"/>
		
			<use xlink:href="#New_Symbol"  width="12" height="12" x="-6" y="-6" transform="matrix(0.8659 0.4999 0.4999 -0.8659 1601 326)" style="display:inline;overflow:visible;"/>
		
			<use xlink:href="#New_Symbol"  width="12" height="12" x="-6" y="-6" transform="matrix(0.1564 -0.9875 -0.9875 -0.1564 732 33)" style="display:inline;overflow:visible;"/>
		
			<use xlink:href="#New_Symbol"  width="12" height="12" x="-6" y="-6" transform="matrix(0.5877 0.809 0.809 -0.5877 1106 170)" style="display:inline;overflow:visible;"/>
		
			<use xlink:href="#New_Symbol"  width="12" height="12" x="-6" y="-6" transform="matrix(0.5446 -0.8386 -0.8386 -0.5446 52 723)" style="display:inline;overflow:visible;"/>
		
			<use xlink:href="#New_Symbol"  width="12" height="12" x="-6" y="-6" transform="matrix(-0.7547 0.656 0.656 0.7547 510 153)" style="display:inline;overflow:visible;"/>
		
			<use xlink:href="#New_Symbol"  width="12" height="12" x="-6" y="-6" transform="matrix(0.1736 -0.9846 -0.9846 -0.1736 1045 774)" style="display:inline;overflow:visible;"/>
		
			<use xlink:href="#New_Symbol"  width="12" height="12" x="-6" y="-6" transform="matrix(-0.6293 0.7771 0.7771 0.6293 661 792.0001)" style="display:inline;overflow:visible;"/>
		
			<use xlink:href="#New_Symbol"  width="12" height="12" x="-6" y="-6" transform="matrix(6.975368e-02 0.9975 0.9975 -6.975364e-02 893 508)" style="display:inline;overflow:visible;"/>
		
			<use xlink:href="#New_Symbol"  width="12" height="12" x="-6" y="-6" transform="matrix(0.9846 -0.1736 -0.1736 -0.9846 1187 1030)" style="display:inline;overflow:visible;"/>
		
			<use xlink:href="#New_Symbol"  width="12" height="12" x="-6" y="-6" transform="matrix(0.6691 -0.7431 -0.7431 -0.6691 606 505)" style="display:inline;overflow:visible;"/>
		
			<use xlink:href="#New_Symbol"  width="12" height="12" x="-6" y="-6" transform="matrix(-0.8191 0.5735 0.5735 0.8191 1811 614)" style="display:inline;overflow:visible;"/>
		
			<use xlink:href="#New_Symbol"  width="12" height="12" x="-6" y="-6" transform="matrix(-0.6156 0.788 0.788 0.6156 1314 385)" style="display:inline;overflow:visible;"/>
		
			<use xlink:href="#New_Symbol"  width="12" height="12" x="-6" y="-6" transform="matrix(-0.2079 0.9779 0.9779 0.2079 1592 504)" style="display:inline;overflow:visible;"/>
		
			<use xlink:href="#New_Symbol"  width="12" height="12" x="-6" y="-6" transform="matrix(0.9975 6.975294e-02 6.975342e-02 -0.9975 146 992)" style="display:inline;overflow:visible;"/>
		
			<use xlink:href="#New_Symbol"  width="12" height="12" x="-6" y="-6" transform="matrix(-0.9701 -0.2419 -0.2419 0.9701 1304 204)" style="display:inline;overflow:visible;"/>
		
			<use xlink:href="#New_Symbol"  width="12" height="12" x="-6" y="-6" transform="matrix(0.8745 -0.4847 -0.4847 -0.8745 1114 517)" style="display:inline;overflow:visible;"/>
		
			<use xlink:href="#New_Symbol"  width="12" height="12" x="-6" y="-6" transform="matrix(-0.4383 -0.8986 -0.8986 0.4383 798 998)" style="display:inline;overflow:visible;"/>
		
			<use xlink:href="#New_Symbol"  width="12" height="12" x="-6" y="-6" transform="matrix(-0.3906 0.9203 0.9203 0.3906 1434 49)" style="display:inline;overflow:visible;"/>
		
			<use xlink:href="#New_Symbol"  width="12" height="12" x="-6" y="-6" transform="matrix(0.788 -0.6156 -0.6156 -0.788 881 213)" style="display:inline;overflow:visible;"/>
		
			<use xlink:href="#New_Symbol"  width="12" height="12" x="-6" y="-6" transform="matrix(-6.975346e-02 0.9975 0.9975 6.975356e-02 413 472)" style="display:inline;overflow:visible;"/>
		
			<use xlink:href="#New_Symbol"  width="12" height="12" x="-6" y="-6" transform="matrix(-0.3906 -0.9203 0.9203 -0.3906 1805 407)" style="display:inline;overflow:visible;"/>
		
			<use xlink:href="#New_Symbol"  width="12" height="12" x="-6" y="-6" transform="matrix(0.3255 0.9453 0.9453 -0.3255 427 711.0001)" style="display:inline;overflow:visible;"/>
		
			<use xlink:href="#New_Symbol"  width="12" height="12" x="-6" y="-6" transform="matrix(-0.1045 0.9944 0.9944 0.1045 143 187)" style="display:inline;overflow:visible;"/>
		
			<use xlink:href="#New_Symbol"  width="12" height="12" x="-6" y="-6" transform="matrix(-0.9846 0.1736 0.1736 0.9846 1813 46)" style="display:inline;overflow:visible;"/>
		
			<use xlink:href="#New_Symbol"  width="12" height="12" x="-6" y="-6" transform="matrix(0.6293 -0.7771 -0.7771 -0.6293 1635 840)" style="display:inline;overflow:visible;"/>
		
			<use xlink:href="#New_Symbol"  width="12" height="12" x="-6" y="-6" transform="matrix(-0.9901 0.1392 0.1392 0.9901 999 345)" style="display:inline;overflow:visible;"/>
		
			<use xlink:href="#New_Symbol"  width="12" height="12" x="-6" y="-6" transform="matrix(0.2079 -0.9779 -0.9779 -0.2079 1583 144)" style="display:inline;overflow:visible;"/>
		
			<use xlink:href="#New_Symbol"  width="12" height="12" x="-6" y="-6" transform="matrix(-0.8386 0.5446 0.5446 0.8386 825.9999 703)" style="display:inline;overflow:visible;"/>
		
			<use xlink:href="#New_Symbol"  width="12" height="12" x="-6" y="-6" transform="matrix(-0.7986 -0.6018 -0.6018 0.7986 997 953)" style="display:inline;overflow:visible;"/>
		
			<use xlink:href="#New_Symbol"  width="12" height="12" x="-6" y="-6" transform="matrix(-0.4694 0.8828 0.8828 0.4694 1532 1022)" style="display:inline;overflow:visible;"/>
		
			<use xlink:href="#New_Symbol"  width="12" height="12" x="-6" y="-6" transform="matrix(-0.9561 0.2923 0.2923 0.956 343 67)" style="display:inline;overflow:visible;"/>
		
			<use xlink:href="#New_Symbol"  width="12" height="12" x="-6" y="-6" transform="matrix(-0.9133 -0.4066 -0.4066 0.9133 1390 668)" style="display:inline;overflow:visible;"/>
		
			<use xlink:href="#New_Symbol"  width="12" height="12" x="-6" y="-6" transform="matrix(-0.9203 0.3906 0.3906 0.9203 1231 778)" style="display:inline;overflow:visible;"/>
		
			<use xlink:href="#New_Symbol"  width="12" height="12" x="-6" y="-6" transform="matrix(0.857 0.515 0.515 -0.857 597 1043)" style="display:inline;overflow:visible;"/>
		
			<use xlink:href="#New_Symbol"  width="12" height="12" x="-6" y="-6" transform="matrix(-0.8745 -0.4847 -0.4847 0.8745 735 380)" style="display:inline;overflow:visible;"/>
		
			<use xlink:href="#New_Symbol"  width="12" height="12" x="-6" y="-6" transform="matrix(0.6691 -0.7431 -0.7431 -0.6691 421 1058)" style="display:inline;overflow:visible;"/>
		
			<use xlink:href="#New_Symbol"  width="12" height="12" x="-6" y="-6" transform="matrix(0.2249 0.9742 0.9742 -0.2249 546 336)" style="display:inline;overflow:visible;"/>
		
			<use xlink:href="#New_Symbol"  width="12" height="12" x="-6" y="-6" transform="matrix(0.9742 -0.2249 -0.2249 -0.9742 61 22)" style="display:inline;overflow:visible;"/>
		
			<use xlink:href="#New_Symbol"  width="12" height="12" x="-6" y="-6" transform="matrix(0.9269 0.3745 0.3745 -0.9269 1910 801)" style="display:inline;overflow:visible;"/>
		
			<use xlink:href="#New_Symbol"  width="12" height="12" x="-6" y="-6" transform="matrix(-0.1219 0.9924 0.9924 0.1219 1874 212)" style="display:inline;overflow:visible;"/>
		
			<use xlink:href="#New_Symbol"  width="12" height="12" x="-6" y="-6" transform="matrix(0.9814 -0.1908 -0.1908 -0.9814 994 35)" style="display:inline;overflow:visible;"/>
		
			<use xlink:href="#New_Symbol"  width="12" height="12" x="-6" y="-6" transform="matrix(-0.7313 -0.682 -0.682 0.7314 1905 1071)" style="display:inline;overflow:visible;"/>
	</g>
	
		<use xlink:href="#New_Symbol"  width="12" height="12" x="-6" y="-6" transform="matrix(-0.2923 -0.956 -0.9561 0.2923 302 875.9999)" style="display:inline;overflow:visible;"/>
	
		<use xlink:href="#New_Symbol"  width="12" height="12" x="-6" y="-6" transform="matrix(0.8659 0.4999 0.4999 -0.8659 241 336)" style="display:inline;overflow:visible;"/>
	
		<use xlink:href="#New_Symbol"  width="12" height="12" x="-6" y="-6" transform="matrix(-0.4066 -0.9133 -0.9133 0.4066 119 501)" style="display:inline;overflow:visible;"/>
	
		<use xlink:href="#New_Symbol"  width="12" height="12" x="-6" y="-6" transform="matrix(-0.9924 0.1219 0.1219 0.9924 1767 958)" style="display:inline;overflow:visible;"/>
	
		<use xlink:href="#New_Symbol"  width="12" height="12" x="-6" y="-6" transform="matrix(0.2923 -0.9561 -0.9561 -0.2923 1444 851.9999)" style="display:inline;overflow:visible;"/>
	
		<use xlink:href="#New_Symbol"  width="12" height="12" x="-6" y="-6" transform="matrix(0.8659 0.4999 0.4999 -0.8659 1601 326)" style="display:inline;overflow:visible;"/>
	
		<use xlink:href="#New_Symbol"  width="12" height="12" x="-6" y="-6" transform="matrix(0.1564 -0.9875 -0.9875 -0.1564 732 33)" style="display:inline;overflow:visible;"/>
	
		<use xlink:href="#New_Symbol"  width="12" height="12" x="-6" y="-6" transform="matrix(0.5877 0.809 0.809 -0.5877 1106 170)" style="display:inline;overflow:visible;"/>
	
		<use xlink:href="#New_Symbol"  width="12" height="12" x="-6" y="-6" transform="matrix(0.5446 -0.8386 -0.8386 -0.5446 52 723)" style="display:inline;overflow:visible;"/>
	
		<use xlink:href="#New_Symbol"  width="12" height="12" x="-6" y="-6" transform="matrix(-0.7547 0.656 0.656 0.7547 510 153)" style="display:inline;overflow:visible;"/>
	
		<use xlink:href="#New_Symbol"  width="12" height="12" x="-6" y="-6" transform="matrix(0.1736 -0.9846 -0.9846 -0.1736 1045 774)" style="display:inline;overflow:visible;"/>
	
		<use xlink:href="#New_Symbol"  width="12" height="12" x="-6" y="-6" transform="matrix(-0.6293 0.7771 0.7771 0.6293 661 792.0001)" style="display:inline;overflow:visible;"/>
	
		<use xlink:href="#New_Symbol"  width="12" height="12" x="-6" y="-6" transform="matrix(6.975368e-02 0.9975 0.9975 -6.975364e-02 893 508)" style="display:inline;overflow:visible;"/>
	
		<use xlink:href="#New_Symbol"  width="12" height="12" x="-6" y="-6" transform="matrix(0.9846 -0.1736 -0.1736 -0.9846 1187 1030)" style="display:inline;overflow:visible;"/>
	
		<use xlink:href="#New_Symbol"  width="12" height="12" x="-6" y="-6" transform="matrix(0.6691 -0.7431 -0.7431 -0.6691 606 505)" style="display:inline;overflow:visible;"/>
	
		<use xlink:href="#New_Symbol"  width="12" height="12" x="-6" y="-6" transform="matrix(-0.8191 0.5735 0.5735 0.8191 1811 614)" style="display:inline;overflow:visible;"/>
	
		<use xlink:href="#New_Symbol"  width="12" height="12" x="-6" y="-6" transform="matrix(-0.6156 0.788 0.788 0.6156 1314 385)" style="display:inline;overflow:visible;"/>
	
		<use xlink:href="#New_Symbol"  width="12" height="12" x="-6" y="-6" transform="matrix(-0.2079 0.9779 0.9779 0.2079 1592 504)" style="display:inline;overflow:visible;"/>
	
		<use xlink:href="#New_Symbol"  width="12" height="12" x="-6" y="-6" transform="matrix(0.9975 6.975294e-02 6.975342e-02 -0.9975 146 992)" style="display:inline;overflow:visible;"/>
	
		<use xlink:href="#New_Symbol"  width="12" height="12" x="-6" y="-6" transform="matrix(-0.9701 -0.2419 -0.2419 0.9701 1304 204)" style="display:inline;overflow:visible;"/>
	
		<use xlink:href="#New_Symbol"  width="12" height="12" x="-6" y="-6" transform="matrix(0.8745 -0.4847 -0.4847 -0.8745 1114 517)" style="display:inline;overflow:visible;"/>
	
		<use xlink:href="#New_Symbol"  width="12" height="12" x="-6" y="-6" transform="matrix(-0.4383 -0.8986 -0.8986 0.4383 798 998)" style="display:inline;overflow:visible;"/>
	
		<use xlink:href="#New_Symbol"  width="12" height="12" x="-6" y="-6" transform="matrix(-0.3906 0.9203 0.9203 0.3906 1434 49)" style="display:inline;overflow:visible;"/>
	
		<use xlink:href="#New_Symbol"  width="12" height="12" x="-6" y="-6" transform="matrix(0.788 -0.6156 -0.6156 -0.788 881 213)" style="display:inline;overflow:visible;"/>
	
		<use xlink:href="#New_Symbol"  width="12" height="12" x="-6" y="-6" transform="matrix(-6.975346e-02 0.9975 0.9975 6.975356e-02 413 472)" style="display:inline;overflow:visible;"/>
	
		<use xlink:href="#New_Symbol"  width="12" height="12" x="-6" y="-6" transform="matrix(-0.3906 -0.9203 0.9203 -0.3906 1805 407)" style="display:inline;overflow:visible;"/>
	
		<use xlink:href="#New_Symbol"  width="12" height="12" x="-6" y="-6" transform="matrix(0.3255 0.9453 0.9453 -0.3255 427 711.0001)" style="display:inline;overflow:visible;"/>
	
		<use xlink:href="#New_Symbol"  width="12" height="12" x="-6" y="-6" transform="matrix(-0.1045 0.9944 0.9944 0.1045 143 187)" style="display:inline;overflow:visible;"/>
	
		<use xlink:href="#New_Symbol"  width="12" height="12" x="-6" y="-6" transform="matrix(-0.9846 0.1736 0.1736 0.9846 1813 46)" style="display:inline;overflow:visible;"/>
	
		<use xlink:href="#New_Symbol"  width="12" height="12" x="-6" y="-6" transform="matrix(0.6293 -0.7771 -0.7771 -0.6293 1635 840)" style="display:inline;overflow:visible;"/>
	
		<use xlink:href="#New_Symbol"  width="12" height="12" x="-6" y="-6" transform="matrix(-0.9901 0.1392 0.1392 0.9901 999 345)" style="display:inline;overflow:visible;"/>
	
		<use xlink:href="#New_Symbol"  width="12" height="12" x="-6" y="-6" transform="matrix(0.2079 -0.9779 -0.9779 -0.2079 1583 144)" style="display:inline;overflow:visible;"/>
	
		<use xlink:href="#New_Symbol"  width="12" height="12" x="-6" y="-6" transform="matrix(-0.8386 0.5446 0.5446 0.8386 825.9999 703)" style="display:inline;overflow:visible;"/>
	
		<use xlink:href="#New_Symbol"  width="12" height="12" x="-6" y="-6" transform="matrix(-0.7986 -0.6018 -0.6018 0.7986 997 953)" style="display:inline;overflow:visible;"/>
	
		<use xlink:href="#New_Symbol"  width="12" height="12" x="-6" y="-6" transform="matrix(-0.4694 0.8828 0.8828 0.4694 1532 1022)" style="display:inline;overflow:visible;"/>
	
		<use xlink:href="#New_Symbol"  width="12" height="12" x="-6" y="-6" transform="matrix(-0.9561 0.2923 0.2923 0.956 343 67)" style="display:inline;overflow:visible;"/>
	
		<use xlink:href="#New_Symbol"  width="12" height="12" x="-6" y="-6" transform="matrix(-0.9133 -0.4066 -0.4066 0.9133 1390 668)" style="display:inline;overflow:visible;"/>
	
		<use xlink:href="#New_Symbol"  width="12" height="12" x="-6" y="-6" transform="matrix(-0.9203 0.3906 0.3906 0.9203 1231 778)" style="display:inline;overflow:visible;"/>
	
		<use xlink:href="#New_Symbol"  width="12" height="12" x="-6" y="-6" transform="matrix(0.857 0.515 0.515 -0.857 597 1043)" style="display:inline;overflow:visible;"/>
	
		<use xlink:href="#New_Symbol"  width="12" height="12" x="-6" y="-6" transform="matrix(-0.8745 -0.4847 -0.4847 0.8745 735 380)" style="display:inline;overflow:visible;"/>
	
		<use xlink:href="#New_Symbol"  width="12" height="12" x="-6" y="-6" transform="matrix(0.6691 -0.7431 -0.7431 -0.6691 421 1058)" style="display:inline;overflow:visible;"/>
	
		<use xlink:href="#New_Symbol"  width="12" height="12" x="-6" y="-6" transform="matrix(0.9742 -0.2249 -0.2249 -0.9742 61 22)" style="display:inline;overflow:visible;"/>
	
		<use xlink:href="#New_Symbol"  width="12" height="12" x="-6" y="-6" transform="matrix(0.9269 0.3745 0.3745 -0.9269 1910 801)" style="display:inline;overflow:visible;"/>
	
		<use xlink:href="#New_Symbol"  width="12" height="12" x="-6" y="-6" transform="matrix(-0.1219 0.9924 0.9924 0.1219 1874 212)" style="display:inline;overflow:visible;"/>
	
		<use xlink:href="#New_Symbol"  width="12" height="12" x="-6" y="-6" transform="matrix(0.9814 -0.1908 -0.1908 -0.9814 994 35)" style="display:inline;overflow:visible;"/>
	
		<use xlink:href="#New_Symbol"  width="12" height="12" x="-6" y="-6" transform="matrix(-0.7313 -0.682 -0.682 0.7314 1905 1071)" style="display:inline;overflow:visible;"/>
</g>
<g id="Layer_1_copy">
	<g style="&st1;">
		<rect x="0.5" y="0.5" style="&st3;" width="1919" height="1079"/>
		<path style="&st2;" d="M1919,1v1078H1V1H1919 M1920,0H0v1080h1920V0L1920,0z"/>
	</g>
	<g style="&st1;">
		
			<use xlink:href="#New_Symbol"  width="12" height="12" x="-6" y="-6" transform="matrix(-0.2923 -0.956 -0.9561 0.2923 302 875.9999)" style="display:inline;overflow:visible;"/>
		
			<use xlink:href="#New_Symbol"  width="12" height="12" x="-6" y="-6" transform="matrix(0.8659 0.4999 0.4999 -0.8659 241 336)" style="display:inline;overflow:visible;"/>
		
			<use xlink:href="#New_Symbol"  width="12" height="12" x="-6" y="-6" transform="matrix(-0.4066 -0.9133 -0.9133 0.4066 119 501)" style="display:inline;overflow:visible;"/>
		
			<use xlink:href="#New_Symbol"  width="12" height="12" x="-6" y="-6" transform="matrix(-0.9924 0.1219 0.1219 0.9924 1766.9999 958)" style="display:inline;overflow:visible;"/>
		
			<use xlink:href="#New_Symbol"  width="12" height="12" x="-6" y="-6" transform="matrix(0.2923 -0.9561 -0.9561 -0.2923 1444 851.9999)" style="display:inline;overflow:visible;"/>
		
			<use xlink:href="#New_Symbol"  width="12" height="12" x="-6" y="-6" transform="matrix(0.8659 0.4999 0.4999 -0.8659 1601 326)" style="display:inline;overflow:visible;"/>
		
			<use xlink:href="#New_Symbol"  width="12" height="12" x="-6" y="-6" transform="matrix(0.1564 -0.9875 -0.9875 -0.1564 732 33)" style="display:inline;overflow:visible;"/>
		
			<use xlink:href="#New_Symbol"  width="12" height="12" x="-6" y="-6" transform="matrix(0.5877 0.809 0.809 -0.5877 1106 170)" style="display:inline;overflow:visible;"/>
		
			<use xlink:href="#New_Symbol"  width="12" height="12" x="-6" y="-6" transform="matrix(0.5446 -0.8386 -0.8386 -0.5446 52 723)" style="display:inline;overflow:visible;"/>
		
			<use xlink:href="#New_Symbol"  width="12" height="12" x="-6" y="-6" transform="matrix(-0.7547 0.656 0.656 0.7547 510 153)" style="display:inline;overflow:visible;"/>
		
			<use xlink:href="#New_Symbol"  width="12" height="12" x="-6" y="-6" transform="matrix(0.1736 -0.9846 -0.9846 -0.1736 1045 774)" style="display:inline;overflow:visible;"/>
		
			<use xlink:href="#New_Symbol"  width="12" height="12" x="-6" y="-6" transform="matrix(-0.6293 0.7771 0.7771 0.6293 661 792.0001)" style="display:inline;overflow:visible;"/>
		
			<use xlink:href="#New_Symbol"  width="12" height="12" x="-6" y="-6" transform="matrix(6.975368e-02 0.9975 0.9975 -6.975364e-02 893 508)" style="display:inline;overflow:visible;"/>
		
			<use xlink:href="#New_Symbol"  width="12" height="12" x="-6" y="-6" transform="matrix(0.9846 -0.1736 -0.1736 -0.9846 1187 1030)" style="display:inline;overflow:visible;"/>
		
			<use xlink:href="#New_Symbol"  width="12" height="12" x="-6" y="-6" transform="matrix(0.6691 -0.7431 -0.7431 -0.6691 606 505)" style="display:inline;overflow:visible;"/>
		
			<use xlink:href="#New_Symbol"  width="12" height="12" x="-6" y="-6" transform="matrix(-0.8191 0.5735 0.5735 0.8191 1811 614)" style="display:inline;overflow:visible;"/>
		
			<use xlink:href="#New_Symbol"  width="12" height="12" x="-6" y="-6" transform="matrix(-0.6156 0.788 0.788 0.6156 1314 385)" style="display:inline;overflow:visible;"/>
		
			<use xlink:href="#New_Symbol"  width="12" height="12" x="-6" y="-6" transform="matrix(-0.2079 0.9779 0.9779 0.2079 1592 504)" style="display:inline;overflow:visible;"/>
		
			<use xlink:href="#New_Symbol"  width="12" height="12" x="-6" y="-6" transform="matrix(0.9975 6.975294e-02 6.975342e-02 -0.9975 146 992)" style="display:inline;overflow:visible;"/>
		
			<use xlink:href="#New_Symbol"  width="12" height="12" x="-6" y="-6" transform="matrix(-0.9701 -0.2419 -0.2419 0.9701 1304 204)" style="display:inline;overflow:visible;"/>
		
			<use xlink:href="#New_Symbol"  width="12" height="12" x="-6" y="-6" transform="matrix(0.8745 -0.4847 -0.4847 -0.8745 1114 517)" style="display:inline;overflow:visible;"/>
		
			<use xlink:href="#New_Symbol"  width="12" height="12" x="-6" y="-6" transform="matrix(-0.4383 -0.8986 -0.8986 0.4383 798 998)" style="display:inline;overflow:visible;"/>
		
			<use xlink:href="#New_Symbol"  width="12" height="12" x="-6" y="-6" transform="matrix(-0.3906 0.9203 0.9203 0.3906 1434 49)" style="display:inline;overflow:visible;"/>
		
			<use xlink:href="#New_Symbol"  width="12" height="12" x="-6" y="-6" transform="matrix(0.788 -0.6156 -0.6156 -0.788 881 213)" style="display:inline;overflow:visible;"/>
		
			<use xlink:href="#New_Symbol"  width="12" height="12" x="-6" y="-6" transform="matrix(-6.975346e-02 0.9975 0.9975 6.975356e-02 413 472)" style="display:inline;overflow:visible;"/>
		
			<use xlink:href="#New_Symbol"  width="12" height="12" x="-6" y="-6" transform="matrix(-0.3906 -0.9203 0.9203 -0.3906 1805 407)" style="display:inline;overflow:visible;"/>
		
			<use xlink:href="#New_Symbol"  width="12" height="12" x="-6" y="-6" transform="matrix(0.3255 0.9453 0.9453 -0.3255 427 711.0001)" style="display:inline;overflow:visible;"/>
		
			<use xlink:href="#New_Symbol"  width="12" height="12" x="-6" y="-6" transform="matrix(-0.1045 0.9944 0.9944 0.1045 143 187)" style="display:inline;overflow:visible;"/>
		
			<use xlink:href="#New_Symbol"  width="12" height="12" x="-6" y="-6" transform="matrix(-0.9846 0.1736 0.1736 0.9846 1813 46)" style="display:inline;overflow:visible;"/>
		
			<use xlink:href="#New_Symbol"  width="12" height="12" x="-6" y="-6" transform="matrix(0.6293 -0.7771 -0.7771 -0.6293 1635 840)" style="display:inline;overflow:visible;"/>
		
			<use xlink:href="#New_Symbol"  width="12" height="12" x="-6" y="-6" transform="matrix(-0.9901 0.1392 0.1392 0.9901 999 345)" style="display:inline;overflow:visible;"/>
		
			<use xlink:href="#New_Symbol"  width="12" height="12" x="-6" y="-6" transform="matrix(0.2079 -0.9779 -0.9779 -0.2079 1583 144)" style="display:inline;overflow:visible;"/>
		
			<use xlink:href="#New_Symbol"  width="12" height="12" x="-6" y="-6" transform="matrix(-0.8386 0.5446 0.5446 0.8386 825.9999 703)" style="display:inline;overflow:visible;"/>
		
			<use xlink:href="#New_Symbol"  width="12" height="12" x="-6" y="-6" transform="matrix(-0.7986 -0.6018 -0.6018 0.7986 997 953)" style="display:inline;overflow:visible;"/>
		
			<use xlink:href="#New_Symbol"  width="12" height="12" x="-6" y="-6" transform="matrix(-0.4694 0.8828 0.8828 0.4694 1532 1022)" style="display:inline;overflow:visible;"/>
		
			<use xlink:href="#New_Symbol"  width="12" height="12" x="-6" y="-6" transform="matrix(-0.9561 0.2923 0.2923 0.956 343 67)" style="display:inline;overflow:visible;"/>
		
			<use xlink:href="#New_Symbol"  width="12" height="12" x="-6" y="-6" transform="matrix(-0.9133 -0.4066 -0.4066 0.9133 1390 668)" style="display:inline;overflow:visible;"/>
		
			<use xlink:href="#New_Symbol"  width="12" height="12" x="-6" y="-6" transform="matrix(-0.9203 0.3906 0.3906 0.9203 1231 778)" style="display:inline;overflow:visible;"/>
		
			<use xlink:href="#New_Symbol"  width="12" height="12" x="-6" y="-6" transform="matrix(0.857 0.515 0.515 -0.857 597 1043)" style="display:inline;overflow:visible;"/>
		
			<use xlink:href="#New_Symbol"  width="12" height="12" x="-6" y="-6" transform="matrix(-0.8745 -0.4847 -0.4847 0.8745 735 380)" style="display:inline;overflow:visible;"/>
		
			<use xlink:href="#New_Symbol"  width="12" height="12" x="-6" y="-6" transform="matrix(0.6691 -0.7431 -0.7431 -0.6691 421 1058)" style="display:inline;overflow:visible;"/>
		
			<use xlink:href="#New_Symbol"  width="12" height="12" x="-6" y="-6" transform="matrix(0.2249 0.9742 0.9742 -0.2249 546 336)" style="display:inline;overflow:visible;"/>
		
			<use xlink:href="#New_Symbol"  width="12" height="12" x="-6" y="-6" transform="matrix(0.9742 -0.2249 -0.2249 -0.9742 61 22)" style="display:inline;overflow:visible;"/>
		
			<use xlink:href="#New_Symbol"  width="12" height="12" x="-6" y="-6" transform="matrix(0.9269 0.3745 0.3745 -0.9269 1910 801)" style="display:inline;overflow:visible;"/>
		
			<use xlink:href="#New_Symbol"  width="12" height="12" x="-6" y="-6" transform="matrix(-0.1219 0.9924 0.9924 0.1219 1874 212)" style="display:inline;overflow:visible;"/>
		
			<use xlink:href="#New_Symbol"  width="12" height="12" x="-6" y="-6" transform="matrix(0.9814 -0.1908 -0.1908 -0.9814 994.0001 35)" style="display:inline;overflow:visible;"/>
		
			<use xlink:href="#New_Symbol"  width="12" height="12" x="-6" y="-6" transform="matrix(-0.7314 -0.682 -0.682 0.7314 1905 1071)" style="display:inline;overflow:visible;"/>
	</g>
	
		<use xlink:href="#New_Symbol"  width="12" height="12" x="-6" y="-6" transform="matrix(-0.2923 -0.956 -0.9561 0.2923 303.9999 880)" style="overflow:visible;"/>
	<g>
		<g>
			<g>
				<path style="&st0;" d="M232,333.6c-1,0-2-0.3-2.8-0.8c-2.7-1.6-3.6-5-2.1-7.7c1-1.7,2.9-2.8,4.9-2.8c1,0,2,0.3,2.8,0.8
					c2.7,1.6,3.6,5,2.1,7.7C235.9,332.5,234,333.6,232,333.6z"/>
				<path d="M232,322.8L232,322.8c0.9,0,1.8,0.2,2.6,0.7c1.2,0.7,2.1,1.8,2.4,3.2c0.4,1.4,0.2,2.8-0.5,4c-0.9,1.6-2.7,2.6-4.6,2.6
					c-0.9,0-1.8-0.2-2.6-0.7c-2.5-1.4-3.4-4.7-1.9-7.2C228.4,323.8,230.1,322.8,232,322.8 M232,322c-2.1,0-4.1,1.1-5.2,3
					c-1.7,2.9-0.7,6.5,2.2,8.2c0.9,0.5,2,0.8,3,0.8c2.1,0,4.1-1.1,5.2-3c1.7-2.9,0.7-6.5-2.2-8.2C234.1,322.3,233,322,232,322
					L232,322z"/>
			</g>
		</g>
	</g>
	
		<use xlink:href="#New_Symbol"  width="12" height="12" x="-6" y="-6" transform="matrix(-0.4066 -0.9133 -0.9133 0.4066 120 496)" style="overflow:visible;"/>
	
		<use xlink:href="#New_Symbol"  width="12" height="12" x="-6" y="-6" transform="matrix(-0.9924 0.1219 0.1219 0.9924 1807.9958 944)" style="overflow:visible;"/>
	
		<use xlink:href="#New_Symbol"  width="12" height="12" x="-6" y="-6" transform="matrix(0.2923 -0.9561 -0.9561 -0.2923 1439.9989 863.9999)" style="overflow:visible;"/>
	
		<use xlink:href="#New_Symbol"  width="12" height="12" x="-6" y="-6" transform="matrix(0.1564 -0.9875 -0.9875 -0.1564 734.9991 48)" style="overflow:visible;"/>
	
		<use xlink:href="#New_Symbol"  width="12" height="12" x="-6" y="-6" transform="matrix(0.5877 0.809 0.809 -0.5877 1103.9993 183.9998)" style="overflow:visible;"/>
	
		<use xlink:href="#New_Symbol"  width="12" height="12" x="-6" y="-6" transform="matrix(0.5446 -0.8386 -0.8386 -0.5446 56 784)" style="overflow:visible;"/>
	
		<use xlink:href="#New_Symbol"  width="12" height="12" x="-6" y="-6" transform="matrix(-0.7547 0.656 0.656 0.7547 512.0004 152)" style="overflow:visible;"/>
	
		<use xlink:href="#New_Symbol"  width="12" height="12" x="-6" y="-6" transform="matrix(0.1736 -0.9846 -0.9846 -0.1736 1056 761)" style="overflow:visible;"/>
	
		<use xlink:href="#New_Symbol"  width="12" height="12" x="-6" y="-6" transform="matrix(-0.6293 0.7771 0.7771 0.6293 664.0005 800.0001)" style="overflow:visible;"/>
	
		<use xlink:href="#New_Symbol"  width="12" height="12" x="-6" y="-6" transform="matrix(6.975368e-02 0.9975 0.9975 -6.975364e-02 896.0001 512)" style="overflow:visible;"/>
	
		<use xlink:href="#New_Symbol"  width="12" height="12" x="-6" y="-6" transform="matrix(0.9846 -0.1736 -0.1736 -0.9846 1184 1030)" style="overflow:visible;"/>
	
		<use xlink:href="#New_Symbol"  width="12" height="12" x="-6" y="-6" transform="matrix(-0.8191 0.5735 0.5735 0.8191 1720.0078 696)" style="overflow:visible;"/>
	
		<use xlink:href="#New_Symbol"  width="12" height="12" x="-6" y="-6" transform="matrix(-0.2079 0.9779 0.9779 0.2079 1584 512.0001)" style="overflow:visible;"/>
	
		<use xlink:href="#New_Symbol"  width="12" height="12" x="-6" y="-6" transform="matrix(0.9975 6.975294e-02 6.975342e-02 -0.9975 144 1000)" style="overflow:visible;"/>
	
		<use xlink:href="#New_Symbol"  width="12" height="12" x="-6" y="-6" transform="matrix(-0.9701 -0.2419 -0.2419 0.9701 1304.0007 248.2256)" style="overflow:visible;"/>
	
		<use xlink:href="#New_Symbol"  width="12" height="12" x="-6" y="-6" transform="matrix(-0.4383 -0.8986 -0.8986 0.4383 800 896)" style="overflow:visible;"/>
	
		<use xlink:href="#New_Symbol"  width="12" height="12" x="-6" y="-6" transform="matrix(-0.3906 0.9203 0.9203 0.3906 1400.0012 104)" style="overflow:visible;"/>
	
		<use xlink:href="#New_Symbol"  width="12" height="12" x="-6" y="-6" transform="matrix(-0.3906 -0.9203 0.9203 -0.3906 1808.0015 416)" style="overflow:visible;"/>
	
		<use xlink:href="#New_Symbol"  width="12" height="12" x="-6" y="-6" transform="matrix(0.3255 0.9453 0.9453 -0.3255 432 711.0001)" style="overflow:visible;"/>
	
		<use xlink:href="#New_Symbol"  width="12" height="12" x="-6" y="-6" transform="matrix(-0.9846 0.1736 0.1736 0.9846 1807.9927 88)" style="overflow:visible;"/>
	
		<use xlink:href="#New_Symbol"  width="12" height="12" x="-6" y="-6" transform="matrix(0.6293 -0.7771 -0.7771 -0.6293 1632.0006 840)" style="overflow:visible;"/>
	
		<use xlink:href="#New_Symbol"  width="12" height="12" x="-6" y="-6" transform="matrix(0.2079 -0.9779 -0.9779 -0.2079 1584.0007 136)" style="overflow:visible;"/>
	
		<use xlink:href="#New_Symbol"  width="12" height="12" x="-6" y="-6" transform="matrix(-0.7986 -0.6018 -0.6018 0.7986 992 959)" style="overflow:visible;"/>
	
		<use xlink:href="#New_Symbol"  width="12" height="12" x="-6" y="-6" transform="matrix(-0.4694 0.8828 0.8828 0.4694 1528.0033 991)" style="overflow:visible;"/>
	
		<use xlink:href="#New_Symbol"  width="12" height="12" x="-6" y="-6" transform="matrix(-0.9561 0.2923 0.2923 0.956 344 71)" style="overflow:visible;"/>
	
		<use xlink:href="#New_Symbol"  width="12" height="12" x="-6" y="-6" transform="matrix(-0.9133 -0.4066 -0.4066 0.9133 1384.0035 672)" style="overflow:visible;"/>
	
		<use xlink:href="#New_Symbol"  width="12" height="12" x="-6" y="-6" transform="matrix(0.857 0.515 0.515 -0.857 591.9987 1007)" style="overflow:visible;"/>
	
		<use xlink:href="#New_Symbol"  width="12" height="12" x="-6" y="-6" transform="matrix(-0.8745 -0.4847 -0.4847 0.8745 735.9995 376)" style="overflow:visible;"/>
	
		<use xlink:href="#New_Symbol"  width="12" height="12" x="-6" y="-6" transform="matrix(0.6691 -0.7431 -0.7431 -0.6691 384 1039)" style="overflow:visible;"/>
	
		<use xlink:href="#New_Symbol"  width="12" height="12" x="-6" y="-6" transform="matrix(0.9742 -0.2249 -0.2249 -0.9742 56 16)" style="overflow:visible;"/>
	
		<use xlink:href="#New_Symbol"  width="12" height="12" x="-6" y="-6" transform="matrix(-0.1219 0.9924 0.9924 0.1219 1879.996 200)" style="overflow:visible;"/>
	
		<use xlink:href="#New_Symbol"  width="12" height="12" x="-6" y="-6" transform="matrix(0.9814 -0.1908 -0.1908 -0.9814 992.0004 105)" style="overflow:visible;"/>
	
		<use xlink:href="#New_Symbol"  width="12" height="12" x="-6" y="-6" transform="matrix(-0.7313 -0.682 -0.682 0.7314 1878.9927 1048)" style="overflow:visible;"/>
</g>
<g id="lines">
	<polyline style="&st4;" points="120,496 232,325.8 56,16 344,71 736,47 1400,105 1809,89 	"/>
</g>
<g id="Layer_5">
	<polygon style="&st5;" points="511.5,152.5 735.5,47.5 992.5,105.5 735.5,376.5 232.5,327.5 343.5,70.5 	"/>
	<polygon style="&st5;" points="304.5,879.5 432.5,711.5 663.5,800.5 383.5,1039.5 	"/>
	<polyline style="&st5;" points="1809,944 1879.5,1048.5 1527.5,990.5 1440.5,863.5 1631.5,840.5 1719.5,695.5 1808.5,943.5 
		1632,840 1528,991 	"/>
	<polygon style="&st5;" points="1808.5,415.5 1719.5,695.5 1583.5,512.5 1583.5,136.5 1808.5,88.5 1879.5,200.5 	"/>
	<polyline style="&st5;" points="1399.5,104.5 1303.5,248.5 1103.5,183.5 	"/>
	<polyline style="&st5;" points="1583.5,136.5 1808.5,415.5 1879.5,1048.5 	"/>
	<polyline style="&st5;" points="1055.5,761.5 1383.5,672.5 1719.5,695.5 	"/>
	<line style="&st5;" x1="895.5" y1="512.5" x2="1303.5" y2="248.5"/>
	<polyline style="&st5;" points="304.5,879.5 144.5,999.5 55.5,784.5 119.5,495.5 432.5,711.5 232,328 511.5,152.5 735.5,376.5 
		1103.5,183.5 895.5,512.5 1055.5,761.5 799.5,896.5 663.5,800.5 736,376 896,512 799.5,896.5 991.5,959.5 1055.5,761.5 
		1188.5,1029.5 1440.5,863.5 1583.5,512.5 1383.5,672.5 1303.5,248.5 1583.5,136.5 1399.5,104.5 1103.5,183.5 992.5,105.5 	"/>
	<polyline style="&st5;" points="120.5,495.5 232.5,328.5 56.5,16.5 344.5,70.5 	"/>
</g>
</svg>
