<?xml version="1.0" encoding="UTF-8"?><svg id="a" xmlns="http://www.w3.org/2000/svg" viewBox="0 0 150.3 38.73"><path d="M21,20.57c35.5-8.73,85.45-9.89,117.83,8.75-.95,2.87-26.64.33-24.78,7.13,1.63,5.29,15.24-.39,19.96.1,4.82-1.36,14.22-.14,16.3-5.45-2.14-9.54-14.79-16.62-21.52-23.42-2.69-2.21-5.49-4.55-8.29-6.62-2.97-3.21-7.61,1.62-3.96,4.19,3.07,2.37,22.68,17.45,13.67,12.81-19.85-7.46-41.55-9.22-62.61-9.19-18.04.34-36.59,1.96-53.69,8.06-3.79,1.42-7.95,3.38-11.28,5.71-5.68,2.59-1.01,9.53,3.3,4.64,4.46-3.09,9.9-5.15,15.07-6.72Z"/></svg>