<?xml version="1.0" encoding="utf-8"?>
<!-- Generator: Adobe Illustrator 28.0.0, SVG Export Plug-In . SVG Version: 6.00 Build 0)  -->
<!DOCTYPE svg PUBLIC "-//W3C//DTD SVG 1.1//EN" "http://www.w3.org/Graphics/SVG/1.1/DTD/svg11.dtd" [
	<!ENTITY st0 "display:none;">
	<!ENTITY st1 "display:inline;">
	<!ENTITY st2 "display:inline;fill:none;stroke:#000000;stroke-width:0.5;stroke-miterlimit:10;">
]>
<svg version="1.1" xmlns="http://www.w3.org/2000/svg" xmlns:xlink="http://www.w3.org/1999/xlink" x="0px" y="0px"
	 viewBox="0 0 1920 1080" style="enable-background:new 0 0 1920 1080;" xml:space="preserve">
<g id="Layer_1" style="&st0;">
	<g style="&st1;">
		<path d="M197,202.5c1.9,0,3.5,1.6,3.5,3.5s-1.6,3.5-3.5,3.5s-3.5-1.6-3.5-3.5S195.1,202.5,197,202.5 M197,202c-2.2,0-4,1.8-4,4
			s1.8,4,4,4s4-1.8,4-4S199.2,202,197,202L197,202z"/>
	</g>
	<g style="&st1;">
		<path d="M110,429.5c1.9,0,3.5,1.6,3.5,3.5s-1.6,3.5-3.5,3.5s-3.5-1.6-3.5-3.5S108.1,429.5,110,429.5 M110,429c-2.2,0-4,1.8-4,4
			s1.8,4,4,4c2.2,0,4-1.8,4-4S112.2,429,110,429L110,429z"/>
	</g>
	<g style="&st1;">
		<path d="M383,78.5c1.9,0,3.5,1.6,3.5,3.5s-1.6,3.5-3.5,3.5s-3.5-1.6-3.5-3.5S381.1,78.5,383,78.5 M383,78c-2.2,0-4,1.8-4,4
			s1.8,4,4,4c2.2,0,4-1.8,4-4S385.2,78,383,78L383,78z"/>
	</g>
	<polyline style="&st2;" points="383,82 197,206 -101,41 	"/>
	<polyline style="&st2;" points="-211,613.3 110,433 197,206 	"/>
	<g style="&st1;">
		<path d="M1670,675.5c1.9,0,3.5,1.6,3.5,3.5s-1.6,3.5-3.5,3.5s-3.5-1.6-3.5-3.5S1668.1,675.5,1670,675.5 M1670,675
			c-2.2,0-4,1.8-4,4s1.8,4,4,4s4-1.8,4-4S1672.2,675,1670,675L1670,675z"/>
	</g>
	<g style="&st1;">
		<path d="M1570,472.5c1.9,0,3.5,1.6,3.5,3.5s-1.6,3.5-3.5,3.5s-3.5-1.6-3.5-3.5S1568.1,472.5,1570,472.5 M1570,472
			c-2.2,0-4,1.8-4,4s1.8,4,4,4s4-1.8,4-4S1572.2,472,1570,472L1570,472z"/>
	</g>
	<g style="&st1;">
		<path d="M1496.7,1000.5c1.9,0,3.5,1.6,3.5,3.5s-1.6,3.5-3.5,3.5s-3.5-1.6-3.5-3.5S1494.7,1000.5,1496.7,1000.5 M1496.7,1000
			c-2.2,0-4,1.8-4,4s1.8,4,4,4c2.2,0,4-1.8,4-4S1498.9,1000,1496.7,1000L1496.7,1000z"/>
	</g>
	<g style="&st1;">
		<path d="M1529.5,763.2c1.9,0,3.5,1.6,3.5,3.5s-1.6,3.5-3.5,3.5s-3.5-1.6-3.5-3.5S1527.6,763.2,1529.5,763.2 M1529.5,762.7
			c-2.2,0-4,1.8-4,4c0,2.2,1.8,4,4,4s4-1.8,4-4C1533.5,764.5,1531.7,762.7,1529.5,762.7L1529.5,762.7z"/>
	</g>
	<polyline style="&st2;" points="1264,1224 1496.7,1004 1764,1204 	"/>
	<g style="&st1;">
		<path d="M1875.3,790.6c1.9,0,3.5,1.6,3.5,3.5s-1.6,3.5-3.5,3.5s-3.5-1.6-3.5-3.5S1873.4,790.6,1875.3,790.6 M1875.3,790.1
			c-2.2,0-4,1.8-4,4c0,2.2,1.8,4,4,4c2.2,0,4-1.8,4-4C1879.3,791.9,1877.6,790.1,1875.3,790.1L1875.3,790.1z"/>
	</g>
	<g style="&st1;">
		<path d="M1415.3,737.4c1.9,0,3.5,1.6,3.5,3.5s-1.6,3.5-3.5,3.5s-3.5-1.6-3.5-3.5S1413.3,737.4,1415.3,737.4 M1415.3,736.9
			c-2.2,0-4,1.8-4,4c0,2.2,1.8,4,4,4s4-1.8,4-4C1419.3,738.7,1417.5,736.9,1415.3,736.9L1415.3,736.9z"/>
	</g>
	<polyline style="&st2;" points="1570,476 1670,679 1875.3,794.1 	"/>
	<line style="&st2;" x1="1529.5" y1="766.7" x2="1670" y2="679"/>
</g>
<g id="Layer_2">
	<g>
		<g>
			<path d="M1244.7,623.3c1.4,0,2.6,0.8,3.1,2c0.8,1.7,0.1,3.8-1.6,4.7c-0.5,0.2-1,0.4-1.5,0.4c-1.4,0-2.6-0.8-3.1-2
				c-0.4-0.8-0.5-1.8-0.2-2.7c0.3-0.9,0.9-1.6,1.8-2C1243.7,623.4,1244.2,623.3,1244.7,623.3 M1244.7,622.8c-0.6,0-1.2,0.1-1.8,0.4
				c-2,1-2.8,3.4-1.8,5.3c0.7,1.4,2.1,2.2,3.6,2.2c0.6,0,1.2-0.1,1.8-0.4c2-1,2.8-3.4,1.8-5.3
				C1247.6,623.6,1246.2,622.8,1244.7,622.8L1244.7,622.8z"/>
		</g>
		<g>
			<path d="M897,284.6c1.5,0,2.8,0.9,3.3,2.4c0.3,0.9,0.2,1.8-0.2,2.7c-0.4,0.8-1.1,1.5-2,1.8c-0.4,0.1-0.8,0.2-1.1,0.2
				c-1.5,0-2.8-0.9-3.3-2.4c-0.6-1.8,0.3-3.8,2.2-4.4C896.2,284.7,896.6,284.6,897,284.6 M897,284.1c-0.4,0-0.9,0.1-1.3,0.2
				c-2.1,0.7-3.2,3-2.5,5.1c0.6,1.7,2.1,2.7,3.8,2.7c0.4,0,0.9-0.1,1.3-0.2c2.1-0.7,3.2-3,2.5-5.1
				C900.2,285.1,898.6,284.1,897,284.1L897,284.1z"/>
		</g>
		<g>
			<path d="M481.8,641.5L481.8,641.5c1.5,0,2.9,1,3.3,2.5c0.6,1.8-0.5,3.8-2.3,4.4c-0.3,0.1-0.7,0.2-1,0.2c-1.5,0-2.9-1-3.3-2.5
				c-0.6-1.8,0.5-3.8,2.3-4.4C481.1,641.6,481.4,641.5,481.8,641.5 M481.8,641c-0.4,0-0.8,0.1-1.2,0.2c-2.1,0.6-3.3,2.9-2.7,5
				c0.5,1.7,2.1,2.8,3.8,2.8c0.4,0,0.8-0.1,1.2-0.2c2.1-0.6,3.3-2.9,2.7-5C485.1,642.1,483.5,641,481.8,641L481.8,641z"/>
		</g>
		<g>
			<path d="M1404.9,235.9v0.5c0.9,0,1.7,0.3,2.3,0.9c0.7,0.6,1.1,1.5,1.2,2.4c0,0.9-0.3,1.8-0.9,2.5c-0.7,0.7-1.6,1.2-2.6,1.2
				c-0.9,0-1.7-0.3-2.3-0.9c-0.7-0.6-1.1-1.5-1.2-2.4c0-0.9,0.3-1.8,0.9-2.5c0.7-0.7,1.6-1.2,2.6-1.2V235.9 M1404.9,235.9
				c-1.1,0-2.2,0.4-3,1.3c-1.5,1.6-1.3,4.2,0.3,5.6c0.8,0.7,1.7,1,2.7,1c1.1,0,2.2-0.4,3-1.3c1.5-1.6,1.3-4.2-0.3-5.6
				C1406.8,236.3,1405.9,235.9,1404.9,235.9L1404.9,235.9z"/>
		</g>
		<g>
			<path d="M567.1,1035.9L567.1,1035.9c1.4,0,2.8,0.9,3.3,2.2c0.7,1.8-0.2,3.8-2,4.5c-0.4,0.2-0.8,0.2-1.3,0.2
				c-1.4,0-2.8-0.9-3.3-2.2c-0.3-0.9-0.3-1.8,0.1-2.7c0.4-0.9,1.1-1.5,1.9-1.8C566.2,1036,566.7,1035.9,567.1,1035.9 M567.1,1035.4
				c-0.5,0-1,0.1-1.4,0.3c-2.1,0.8-3.1,3.1-2.3,5.2c0.6,1.6,2.1,2.6,3.7,2.6c0.5,0,1-0.1,1.4-0.3c2.1-0.8,3.1-3.1,2.3-5.2
				C570.2,1036.4,568.7,1035.4,567.1,1035.4L567.1,1035.4z"/>
		</g>
		<g>
			<path d="M1497.6,1032.6L1497.6,1032.6c1.6,0,3.1,1.2,3.4,2.8c0.2,0.9,0,1.8-0.5,2.6s-1.3,1.3-2.2,1.5c-0.2,0.1-0.5,0.1-0.7,0.1
				c-1.6,0-3.1-1.2-3.4-2.8c-0.4-1.9,0.8-3.8,2.7-4.2C1497.2,1032.6,1497.4,1032.6,1497.6,1032.6 M1497.6,1032.1
				c-0.3,0-0.6,0-0.8,0.1c-2.2,0.5-3.5,2.6-3.1,4.7c0.4,1.9,2.1,3.2,3.9,3.2c0.3,0,0.6,0,0.8-0.1c2.2-0.5,3.5-2.6,3.1-4.7
				C1501.2,1033.4,1499.5,1032.1,1497.6,1032.1L1497.6,1032.1z"/>
		</g>
		<g>
			<path d="M98.7,598.8c1.8,0,3.3,1.3,3.5,3.1c0.1,0.9-0.1,1.8-0.7,2.6c-0.6,0.7-1.4,1.2-2.3,1.3c-0.1,0-0.3,0-0.4,0
				c-1.8,0-3.3-1.3-3.5-3.1c-0.1-0.9,0.1-1.8,0.7-2.6s1.4-1.2,2.3-1.3C98.4,598.8,98.6,598.8,98.7,598.8 M98.7,598.3
				c-0.2,0-0.3,0-0.5,0c-2.2,0.3-3.8,2.3-3.5,4.5c0.2,2,2,3.5,4,3.5c0.2,0,0.3,0,0.5,0c2.2-0.3,3.8-2.3,3.5-4.5
				C102.4,599.8,100.7,598.3,98.7,598.3L98.7,598.3z"/>
		</g>
		<g>
			<path d="M1867.7,561.3c0.9,0,1.8,0.4,2.5,1s1,1.5,1,2.5s-0.4,1.8-1,2.5c-0.7,0.7-1.5,1-2.5,1s-1.8-0.4-2.5-1
				c-1.4-1.4-1.4-3.6,0-4.9C1865.9,561.7,1866.7,561.3,1867.7,561.3 M1867.7,560.8c-1,0-2,0.4-2.8,1.2c-1.6,1.6-1.6,4.1,0,5.7
				c0.8,0.8,1.8,1.2,2.8,1.2s2-0.4,2.8-1.2c1.6-1.6,1.6-4.1,0-5.7C1869.7,561.2,1868.7,560.8,1867.7,560.8L1867.7,560.8z"/>
		</g>
		<g>
			<path d="M1791.7,152.4v0.5c0.1,0,0.2,0,0.2,0c0.9,0.1,1.8,0.5,2.4,1.2c0.6,0.7,0.9,1.6,0.8,2.5c-0.1,1.8-1.7,3.3-3.5,3.3
				c-0.1,0-0.2,0-0.2,0c-1.9-0.1-3.4-1.8-3.2-3.7c0.1-1.8,1.7-3.3,3.5-3.3V152.4 M1791.7,152.4c-2.1,0-3.8,1.6-4,3.7
				c-0.2,2.2,1.5,4.1,3.7,4.3c0.1,0,0.2,0,0.3,0c2.1,0,3.8-1.6,4-3.7c0.2-2.2-1.5-4.1-3.7-4.3
				C1791.8,152.4,1791.7,152.4,1791.7,152.4L1791.7,152.4z"/>
		</g>
		<g>
			<path d="M65.5,1020.5L65.5,1020.5c0.1,0,0.1,0,0.2,0c1.9,0.1,3.4,1.8,3.3,3.7c-0.1,1.9-1.6,3.3-3.5,3.3c-0.1,0-0.1,0-0.2,0
				c-0.9,0-1.8-0.5-2.4-1.2c-0.6-0.7-0.9-1.6-0.9-2.5C62.1,1022,63.6,1020.5,65.5,1020.5 M65.5,1020c-2.1,0-3.9,1.7-4,3.8
				c-0.1,2.2,1.6,4.1,3.8,4.2c0.1,0,0.1,0,0.2,0c2.1,0,3.9-1.7,4-3.8c0.1-2.2-1.6-4.1-3.8-4.2C65.6,1020,65.5,1020,65.5,1020
				L65.5,1020z"/>
		</g>
		<g>
			<path d="M959.9,942.7c1.9,0,3.4,1.5,3.5,3.4c0.1,1.9-1.4,3.6-3.4,3.6l-0.1,0c-1.9,0-3.4-1.5-3.5-3.4c-0.1-1.9,1.4-3.6,3.4-3.6
				L959.9,942.7 M959.9,942.2c0,0-0.1,0-0.1,0c-2.2,0.1-3.9,1.9-3.9,4.1c0.1,2.2,1.9,3.9,4,3.9c0,0,0.1,0,0.1,0
				c2.2-0.1,3.9-1.9,3.9-4.1C963.8,943.9,962.1,942.2,959.9,942.2L959.9,942.2z"/>
		</g>
		<g>
			<path d="M149.7,91.9L149.7,91.9c1.4,0,2.7,0.8,3.2,2.1c0.8,1.8-0.1,3.8-1.9,4.6c-0.4,0.2-0.9,0.3-1.4,0.3c-1.4,0-2.7-0.8-3.2-2.1
				c-0.8-1.8,0.1-3.8,1.9-4.6C148.8,92,149.3,91.9,149.7,91.9 M149.7,91.4c-0.5,0-1.1,0.1-1.6,0.3c-2,0.9-3,3.2-2.1,5.2
				c0.6,1.5,2.1,2.4,3.7,2.4c0.5,0,1.1-0.1,1.6-0.3c2-0.9,3-3.2,2.1-5.2C152.8,92.3,151.3,91.4,149.7,91.4L149.7,91.4z"/>
		</g>
		<g>
			<path d="M536.1,136.6L536.1,136.6c1.4,0,2.6,0.8,3.2,2.1c0.4,0.9,0.4,1.8,0.1,2.7s-1,1.6-1.8,1.9c-0.5,0.2-0.9,0.3-1.4,0.3
				c-1.4,0-2.6-0.8-3.2-2.1c-0.4-0.9-0.4-1.8-0.1-2.7c0.3-0.9,1-1.6,1.8-1.9C535.1,136.7,535.6,136.6,536.1,136.6 M536.1,136.1
				c-0.5,0-1.1,0.1-1.6,0.3c-2,0.9-2.9,3.3-2,5.3c0.7,1.5,2.1,2.4,3.7,2.4c0.5,0,1.1-0.1,1.6-0.3c2-0.9,2.9-3.3,2-5.3
				C539.1,136.9,537.6,136.1,536.1,136.1L536.1,136.1z"/>
		</g>
		<g>
			<path d="M1888.6,1032.2c1.9,0,3.4,1.5,3.5,3.3c0,0.9-0.3,1.8-0.9,2.5c-0.6,0.7-1.5,1.1-2.4,1.2c-0.1,0-0.1,0-0.2,0
				c-1.9,0-3.4-1.5-3.5-3.3c-0.1-1.9,1.4-3.6,3.3-3.7C1888.5,1032.2,1888.5,1032.2,1888.6,1032.2 M1888.6,1031.7c-0.1,0-0.1,0-0.2,0
				c-2.2,0.1-3.9,2-3.8,4.2c0.1,2.1,1.9,3.8,4,3.8c0.1,0,0.1,0,0.2,0c2.2-0.1,3.9-2,3.8-4.2
				C1892.5,1033.3,1890.7,1031.7,1888.6,1031.7L1888.6,1031.7z"/>
		</g>
	</g>
</g>
</svg>
