<?xml version="1.0" encoding="UTF-8"?><svg id="uuid-eee5e87c-63cf-4bb2-910a-e7342fcaf67c" xmlns="http://www.w3.org/2000/svg" viewBox="0 0 1920 1080"><path d="M1402,616c.62,3.93,1.48,7.3.91,11.42-2.6,18.61-35.23,17.32-31.82-6.83.92-6.49,4.54-7.49,7.91-11.58,13.85-2.12,13.43-1.61,23,7Z" fill="currentColor"/><path d="M863,396c10.1-1.98,15.13-5.26,23.99,4-6.64-34.19,45.17-24.96,27.01,4.99,6.9-.46,12.91-.01,17.99,5.01-2.17-18.55,18.31-26.72,31-14-4.75-15,10.74-27.99,24.35-18.84,7.78,5.23,7.71,15.27,3.67,22.83,5.97-.71,10.95,1.04,15.99,4.01.89-30.26,43.04-21.3,32.01,6.99,5.32-.88,9.22,1.53,13.99,3,.27-15.64,19.75-23.06,31-12-1.55-30.52,41.05-23.56,30.01,4.99,5.44-.39,10.3.09,14.99,3.01,1.41-26.88,39.7-20.68,34.01,5.99l10.38,2.09,7.61-11.07c-24.03,5.01-25.86-30.85-2.47-28.03,11.86,1.43,15.06,16.68,7.47,25.01,7.67-2.13,13.06.07,19.99,3.01.65-26.8,39.2-20.08,31.01,6,4.69-1.4,9.87.58,13.98,3,5.07-25.69,39.81-18.68,36.06,6.95l7.83.93,5.12-8.88c-10.94.26-19.12-9.4-14.39-19.9s20.06-10.47,24.78,0c2.69,5.98,1.04,9.33-1.38,14.89,6.86-.14,13.41-.76,18.98,4.01,2.21-25.32,38.08-18.5,31.01,5.99,5.06-.69,9.02,1.07,13.48,3.02,7.22-25.29,41.31-17.24,36.57,8.93l6.33,1.13,6.62-11.07c-24.82,1.19-15.23-35.48,4.7-24.21,7.25,4.1,7.62,12.34,4.31,19.2,7.42-2.36,13.61.41,19.99,4.01,1.45-24.2,36.72-17.4,29.01,5.99,5.36-.34,11.21.36,15.5,3.99,7.78-22.79,38.78-15.53,33.5,8.01l11.34,1.91c3.97-5.5,4.36-9.03,11.27-11.78,15.72-6.24,28.81,6.98,25.39,22.87l10.94,1.96c2.86-14.48,20.84-18.33,31.58-8.97,1.23,1.07.93,3.1,2.46,3.02-6.28-15.64,15.26-27.86,24.46-13.94,9.76,14.77-10.28,29.9-22.44,16.95l1.13,12.86,9.82,3.13c9.07-25.97,43.95-10.68,32.05,14.01,5.66,0,11.7,1.56,15.5,6-1.93-23.94,33.16-24.1,30.52-.47-1.32,11.78-15.97,16.19-25.01,9.48,1.99,5.11.22,9.03-1.01,13.99l12,4c-.51-18.19,25.03-23.55,30.77-6.27,4.95,14.89-10.7,26.66-23.76,18.27l-2.02,13.99c5.03-.32,8.92,2.71,13,5.01-3.2-23.62,32.37-24.82,30.01-.5-1.16,11.92-15.9,16.32-24.99,9.5.16,5.87.53,12.13-4.01,16.5,17.47.39,26.11,17.6,15,31.48,32.11-2.85,22.77,44.51-5.99,29.01.3,5.76.17,11-3.01,15.99,16.37.41,23.75,18.69,13,31,31.7-1.86,22.5,43.49-5.99,29.01.42,5.93-.11,11.27-4.01,15.99,30.81,1.94,19.93,44.07-7.99,31.01.95,6.3-1.4,10.65-4,15.99,29.32,2.43,19.5,42.69-8,32.01,0,5.17-1.28,10.72-5,14.5,11.79.7,20.78,9.67,16.76,21.77-5.04,15.16-27.15,13.5-30.33-2.22-1.15-5.68,1.05-7.98,2.55-13.05-4.36,2.46-8.59-.26-12.98-1.01l-4,12c22.37-1.46,23.41,32.52.48,32.07-13.78-.27-18.99-13.56-13.49-25.06-5.95.83-10.76-1.86-15.99-4,1.2,7.17-2.66,11.17-7,15.99,26.13-9.14,31.02,31.58,4.5,29.01-13.85-1.34-16.85-19.96-6.5-27.99-8.47,2.28-15.81,1.65-21.99-5.01,5.9,19.29-22.3,29.31-29.49,10.99-6.49-16.53,13.54-28.6,26.47-16.99-.31-6.51-.52-11.86,4.01-16.99-6.03,2.09-11.88-.92-16.99-4.01,1.38,34.58-49.03,18.04-27.01-9.99-18.99,5.64-31.44-17.06-16-30-13.91,4.47-27.17-6.24-23.31-20.83.77-2.91,2.86-4.44,3.31-7.18-9.4,1.5-12.73-2.92-18.99-8.01,1.44,7.28,3.56,12.44-2.6,18.9-17.18,18.03-40.38-15.15-18.09-25.08,10.27-4.58,13.81.6,20.69,6.18-1.84-9.31-4.15-14.24,4-21.99-8.26,2.82-14.28-.17-19.99-6.01,6.5,17.85-18.47,30.59-28.22,14.71-10.7-17.44,12.41-33.41,26.2-18.71-2.82-8.26.17-14.28,6.01-19.99-6.81,1.74-11.95,1.41-17.78-2.73-1.73-1.23-1.67-2.95-3.21-3.27,8.03,19.91-21.15,32.68-29.52,14s14.84-31.41,27.5-17.01c-.44-3.34-1.33-5.86-.91-9.4.46-3.92,2.91-6.13,3.91-9.59-6.77.77-11.82-.7-16.98-5.01,2.24,13.97-8.39,24.92-22.4,19.9-16.84-6.03-10.85-35.15,10.67-30.67,2.99.62,4.8,3.44,7.72,3.76-.68-7.1.32-12.54,5.01-17.98-6.74,2.04-12.85-.48-17.99-5.01,4.95,16.52-15.69,29.54-28.05,16.54-6.88-7.23-5.89-16.15.04-23.53-6.35.53-11.37-.09-16.52-3.99-1.36-1.03-2.18-2.85-3.48-4.02-.33-2.08-1.67-3.65-1.94-5.55-.96-6.69,1.13-11.2,4.94-16.44-6.76,2.43-12.45-.41-17.99-4.01,1.47,9.37-2.88,12.75-8.01,19-2.3.35-4.42,1.69-6.59,1.93-7.49.81-11.31-2.11-16.4-6.93,3.43,8.83-1,20.7-10.73,22.77-16.1,3.42-26.24-13.21-16.62-26.55.96-1.33,2.48-.78,2.34-2.21-7.78,2.35-13.61.46-19.98-4.01,5.02,28.11-37.32,27.35-31.78.73.62-2.99,3.44-4.8,3.76-7.72-7.57.93-13.36-.97-18.98-6.01,4.28,36.84-48.8,23.38-27.01-6.99-7.24,1.24-13.51.23-18.99-5.01,5.44,17.63-18.45,30.31-29.44,14.93-5.18-7.24-4.03-13.74.43-20.92-6,.53-12.01-.76-16.5-5-.39,5.72-.98,10.7-4.62,15.37-1.06,1.36-2.91,1.13-2.87,2.61,18.93-7.56,32.42,18.9,15.35,28.86-17.34,10.12-33.62-13.71-18.35-26.84-7.8,2.34-13.6.48-19.99-4.01,2.26,37.66-51.13,18.65-25.01-8.99-7.7,1.99-15.06,1.95-20.99-4.01,4.2,15.42-12.44,27.87-25.94,18.43-8.46-5.92-8.57-17.94-2.07-25.42-6.78,2.34-13.45-.23-18.5-5-1.03,1.51.67,3.37.56,5.43-.39,7.5-4,9.45-8.06,14.57,2.4-.39,5.32-1.59,7.66-1.63,11.05-.17,18.93,11.37,14.85,21.65-6.03,15.19-29.8,11.01-30.14-5.68-.15-7.49,3.62-9.3,7.62-14.34-4.78.78-6.61,2.4-12.04,1.56-5.99-.92-7.65-4.09-11.96-7.56,1.39,7.29,3.6,12.39-2.6,18.9-17.18,18.03-40.38-15.15-18.09-25.08,10.3-4.59,13.8.63,20.69,6.18-1.58-8.26-3.93-13.91,3-20.99-6.25.34-11.98.2-16.99-4.01,1.65,19.19-20.34,27.25-32,12,6.72,14.45-6.68,29.09-21.38,21.87-10.83-5.32-10.59-19.01-2.63-26.86-16.86,5.67-30.51-10.91-21-26-5.59.51-11.36-1.1-15.5-5-.12,6.8-1.94,11.89-6.49,16.98,16.44-5.46,29.74,15.32,16.34,26.85-16.82,14.49-37.56-12.7-18.34-25.83-8.53,4-16.19,2.13-22.99-4.01,4.98,27.49-36.34,25.74-29.54-.03,3.1-11.77,20.34-13.28,27.52-3.97-2.3-6.85-.76-11.81,2-17.99-5.6.5-10.57-.43-14.99-4.01.01,30.56-43.93,21.56-32.01-7l-13.48-3.02c.05,7.15-3.48,10.07-7.51,15.01,8.34-1.37,17-1.58,20.74,7.76,9.27,23.18-28.24,29.75-28.81,6.73-.21-8.45,3.9-9.37,8.08-14.5-2.08.34-3.68,1.69-5.56,1.94-16.77,2.24-26.24-10.83-19.44-25.93l-13.99-3.01c.86,6.99-4.17,10.56-8.01,15,8.34-1.37,17-1.58,20.74,7.76,7.99,19.96-20.68,29.44-27.47,12.47-4.26-10.64.95-13.55,6.74-20.24-4.96.82-7.2,2.8-13.53,2.02-4.2-.52-5.81-3.02-9.47-4.01.38,29.99-42.32,20.83-29.01-5.99-6.62.74-11.47-.52-16.99-4.01.09,28.4-42.04,21.62-33-5.99l-10-2.01c.57,4.53-2.95,7.48-5.01,10.99,15.75-1.31,23.44,20.11,9.37,27.88-14.62,8.07-29.18-10.21-18.37-22.86-5.87,1.9-11.65.95-16.99-2.01-1.38,17.31-21.58,22.95-33,10,7.06,30.99-40.3,27.86-29.01-1.99l-11.99-1.01c-.06,5.04-2.9,8.48-6,11.99,14.88-2.44,23.84,16.59,11.04,25.55-13.32,9.32-28.99-7.71-19.04-20.53-5.43-.12-11.07.83-15.99-2.01.54,7.36-4.96,11.04-9.01,15.99,22.24-7.84,25.75,26.94,4.62,24.96-12.31-1.15-15.04-16.14-6.62-23.94-7.12,1.63-14.07,1.89-19.99-3.01,1.56,16.29-15.43,25.33-29,17,1.13,16.67-16.53,25.85-30,16,.63,6.08-.36,10.61-4.13,15.38-1.07,1.35-2.91,1.13-2.87,2.61,13.74-4.13,25.55,7.86,18.79,21.33-5.32,10.6-21.99,9.78-26.28-1.33-2.93-7.57-.77-10.25,2.48-16.99-5.09-.27-10.55,1.15-14.98-2-.69,4.97-1.85,10-5.01,13.99,25.44-1.96,24.27,36.25-2.45,31.95-2.97-.48-3.85-2.74-6.55-2.94.55,6.58-.34,12.18-5.01,16.98,32.26-1.03,19.48,45.94-7.99,28.01.45,7.14.06,13.9-6.01,18.5,33.36-3.81,25.55,44.81-4.99,30.5.49,5.6-.43,10.57-4.01,14.99,6.59-.75,11.45,1.54,15.99,6.01-4.03-13.86,8.76-26.62,22.34-19.83,17.44,8.73,5.04,36.55-14.01,28.01l-6.31-5.18c5.74,18.57-10.05,31.41-27,21.99.67,5.79-.5,9.95-3.01,14.99,34.17,4.85,12.52,50.4-12.99,27.01,7.83,33.82-43.29,28-28.01-2.99-7.05.87-12.34-1.11-17.99-5.01-.78,35.51-50.03,15.07-25.01-10.99-8.17,3.42-18.26,1.4-22.56-6.95-8.05-15.62,8.74-31.01,23.55-22.06l2.01-12.99c-4.79.17-8.56-2-11.99-5.01,2.42,22.47-31.55,24.61-32.08,2.52-.34-14.18,14.58-21.18,26.06-13.52-.06-4.86-.5-9.61,2.01-13.99-5.01-.33-9.3-2.88-12.99-6.01,4.34,23.18-30.61,26.28-30.08,3.48.32-13.79,15.98-19.11,26.06-10.48-2.43-7.01-.28-13.25,4.01-18.99-14.09.9-24.99-12.64-17.21-25.72,4.72-7.93,15.5-10.72,23.2-5.29-.33-4.86.35-9.93,4-13.52v-1.48c-32.22-3.66-15.33-47.8,11-29.01-2.25-6.47.15-12.77,4.01-17.99-33.93-1.07-16.43-47.74,9.99-26.01-5.9-18.48,15.19-32.51,29-18-5.09-17.17,13.37-30.85,28-20-1.19-8.49,2.42-13.38,8.01-18.99-26.79,9.19-30.75-32.76-3.59-28.91,13.02,1.84,15.69,20.26,5.59,27.89,6.69-1.54,13.01-1.77,18.99,2.01-1.15-17.29,17.85-26.39,31-15-2.91-18.41,16.54-27.79,30-16-3.92-31.68,42.3-25.81,30.01,3.99,5.1-.45,9.61.36,13.99,3.01-.61-5.4,2.48-9.65,5.01-13.99-7.31.87-15.04-2.98-17.22-10.29-5.11-17.13,17.19-26.99,26.41-13.42,4.71,6.92,2.85,11.74-.19,18.69,5.76-.31,11-.17,15.99,3.01-.43-16.26,17.03-24.55,30-15-.7-31.08,43.37-23.26,32.01,5.99,4.58-.62,7.86.48,11.99,2.01-.17-4.79,2-8.55,5.01-11.99-25.04,1.97-23.38-35.96,1.44-31.94,11.48,1.86,16.42,16.82,9.56,25.92l14,1.02c-.17-4.14,1.61-7.8,4-11-14.79.79-23.99-16.85-12.9-27.41,14.05-13.39,35.43,6.18,22.9,21.39,5.98-1.83,11.61.27,16.99,3.01-1.19-7.17,2.66-11.18,7.01-15.99-13.77,4.45-26.69-9.82-18.01-22.52,12.18-17.8,38.7,5.16,21.01,20.5,7.09-1.78,14.18-2.05,19.99,3.01-.78-30.46,42.68-23.4,32.01,4.99l11.51,3c1.75-4.61,2.82-9.39,6.49-12.98-15.4,4.41-26.59-15.28-14.9-26.41,9.99-9.51,27.16-1.94,26.81,11.81-.1,4.06-2.75,7.04-3.9,10.59,6.4-2.3,12.83.18,17.98,4-.67-31.13,43.39-23.2,32.01,5.99l12.99,3c-.5-4.07,1.67-8.27,4.13-11.38,1.07-1.35,2.91-1.13,2.87-2.61-19.21,6.42-30.74-21.13-12.68-29.19,16.63-7.43,29.58,12.99,17.69,26.17,3.65.28,7.69-.49,11.27.24,2.99.61,4.81,3.46,7.73,3.76-4.47-18.55,22.79-27.73,30.89-10.38,3.21,6.86,1.63,10.75-.89,17.39,5.98-.71,10.56.88,15.49,4.02-.85-7.93,3.08-11.56,7.51-17.01-10.63,2.08-21.76-.68-22.08-13.5-.5-20.15,29.67-20.57,30.16-1,.21,8.46-3.9,9.37-8.08,14.5ZM981,406.01c-6.06.6-11.56-2.16-15.99-6.01,1.62,5.16,1.11,9.82-.01,14.99l10.99,3,5.01-11.99ZM906,410.01c-6.24.59-11.46-.69-15.99-5.01.62,5.28,1.02,10.24-2.01,14.99l11.99,3.01c-.23-5.52,2.58-9.18,6.01-12.99ZM1101,414.01c-4.62.6-8.27-1.8-11.99-4.01l.03,10.96,7.94,2.04,4.01-8.99ZM828,416.01l-12.99-4.01-1.01,11.99,9.99,2.01,4.01-9.99ZM751,420.01l-12-4c2.13,3.87.42,8.2-1,11.98l9.99,2.01,3.01-10ZM1024,419.01c-3.62.16-6.89-1.36-9.99-3.01l-1.02,11,7.06.58,3.94-8.56ZM1220,422.01l-7-2-1,8.98,4.95,1,3.06-7.98ZM675,425.01c-4.14.15-7.8-1.61-10.99-4.01v10.99s7.98,1.01,7.98,1.01l3.01-7.99ZM949,424.01l-10.99-3-1.01,9.98,9,2.02,3.01-9ZM860,436.99c3.11-.16,6.09-.23,8.51,1.99l4.47-9.48-10.97-4.49-2.01,11.99ZM1142,427.01l-5-1.01.17,6.82,2.81,1.18,2.02-6.99ZM1342,430.01l-5.99-2.01c-.12,3.35.61,6.9-1.02,10l3.04.57,3.97-8.55ZM1068,433.01l-5.99-2.01-1.01,7.99,4.89-.11,2.11-5.88ZM795.01,434.01l-6-1.01-2.01,7.99,5.96.96,2.06-7.94ZM1464,436.01l-4.99-1.01-2.01,10.99,3.02-.66,3.98-9.32ZM989.99,446l2-7.45-4.98-2.55-2.02,8.99,5,1.01ZM715.99,448.01l2.99-8.51-5.97-2.5-2.02,10,5,1.01ZM642,443.01l-5.99-2.01-2.01,8.99,6,1.01,2.01-7.99ZM917,443.01l-5.96-1-2.04,7.98,5.06.59,2.95-7.57ZM841,447.01l-6-1.01-1.55,9.04,5.54,1.96,2.01-9.99ZM764.98,453.03l-4.97-1.03-3.01,9c2.66-.28,4.79.7,6.99,2.01l.99-9.97ZM961.99,456.02l-4.04-.61-1.95,7.58,4.94-.05,1.05-6.92ZM691,458.01l-6.98-.99-3.02,9.98,8,2c-.15-4.04-.41-7.56,2-10.98ZM540,463.01c-4.14.15-7.8-1.61-10.99-4.01.81,5.25-.88,9.13-2.01,13.99l8.99,1.01,4.01-10.99ZM614,461.01l-7-1.01-2.01,10,7,1.01,2.01-10ZM886.99,470l.6-8.04-6.59-1.96-2.01,8,8,2ZM813,466.01l-7.04-.6-3.95,9.59c3.4-.33,6.16.1,8.99,2l2.01-10.99ZM738,472.01l-8.99-2.02-4.01,10,11.99,4.01,1.01-11.99ZM1003.12,469.61l-1.24,5.23,5.88,1.4,1.24-5.23-5.88-1.4ZM927.12,472.78l-2.29,8.23,7.15,1.99,2.29-8.23-7.15-1.99ZM1405.01,478.01l-6-2.01-1.02,6,6,1.01,1.02-4.99ZM859,479l-7.51-1.98-4.49,9.97c4.28-.63,7.44.96,10.99,3.01l1.01-11ZM511,481.01c-3.8.58-6.83-1.3-9.99-3.01.49,4.7-.65,8.98-3.01,12.99l9.99,2.01c-.47-4.32.91-8.3,3.01-11.99ZM588,479.01l-9.99-1.02-4.01,11c5.52-.23,9.18,2.58,12.99,6.01-1.48-5.43-1.73-10.93,1.01-15.99ZM436,484.01c-5.11.7-8.87-1.45-12.99-4l-1.01,12.99,10,2.01,4-11ZM1328.97,482.05l-5.92-1-1.06,4.93,6,2.02.98-5.95ZM1055,483.01l-4.96-1-2.04,5.98,5.95.98,1.05-5.97ZM978.99,495l.59-7.05-6.58-1.95c.3,2.68-.72,4.78-2.01,6.99l7.99,2.01ZM1252.97,487.06l-4.34-1-2.56,4.46,5.92,2.49.98-5.95ZM907,490l-10.99-2.01-4,12c5.23-1.06,8.42,1.64,12.99,3l2.01-12.99ZM1653,489.01l-7-1.02-1,6.98,4.93.97,3.08-6.93ZM1178.01,491.01l-5.96-.98-1,5.92,5.95,1.05,1.01-5.99ZM1369.7,491.97l-2.01,7.31,6.29,1.73,2.01-7.31-6.29-1.73ZM1101.94,496.05l-6.85-.98-2.1,5.93,8.99,2-.05-6.94ZM483,499.01l-10.99-2.01-3,11.99,10.99,3c-.49-4.7.65-8.98,3.01-12.99ZM1028,499l-9-2.01-2.01,9,9.99,3.01,1.01-10ZM1298.99,506l.61-7.04-5.65-1.54-1.96,6.58,7,2.01ZM405,502.01c-4.14.16-7.8-1.61-10.99-4.01.02,4.3.64,8.31-2.01,11.99l9.51,1.97,3.49-9.95ZM1226,502.01c-3.19.27-6.18-.58-8.99-2.01l-2.01,8.99,8.99,3.01,2.01-9.99ZM953,504.01l-9.99-3.01-4.01,10.99c4.65-.61,8.14.63,11.99,3.01l2.01-10.99ZM1423,506.01l-8-1.01-.6,6.04,6.64,1.54,1.96-6.58ZM1150,507.01l-8-1.01-2,8c3.09-.36,5.44.4,7.99,2l2.01-8.99ZM1348,510.01l-9-2.01-3.01,8.99c3.62-.16,6.89,1.36,9.99,3.01l2.01-9.99ZM1075,511.01l-9.99-2.01-4.01,9.99,11.99,3.01,2.01-10.99ZM1000,515.01l-10.99-2.01-4.01,10.99c4.87-.47,9.19,1.06,12.99,4.01-.14-4.54-.31-8.93,2.01-12.99ZM1272,515l-8.04-1.59-2.96,8.58c3.93-.79,6.49,1.1,9.99,2l1.01-8.99ZM453,517.01l-9.05-.6-3.95,9.58,10.99,3,2-11.99ZM375,520.01c-3.95.66-6.41-2.55-9.99-3.01l-1.01,9.99,7.98,1.01,3.02-8ZM1197,518l-10-1.01-3,10,10.99,3.01,2.01-12ZM1466.99,526.01l1.6-7.05-6.58-1.96c.31,2.69-.73,4.77-2,6.99l6.98,2.02ZM1122,523l-10.99-2.01-3,11c5.22-.72,8.98.91,12.99,4.01-1.41-4.62.53-8.43,1.01-12.99ZM1394.01,523.01l-8.05-1.61-2.95,7.58,8.99,2.01,2.01-7.99ZM1049,526.01c-5.69.86-9.9-1.24-14.99-3.01.2,2.37-.05,4.52-.69,6.81-1.01,3.63-3.46,4.93-4.31,8.18,6.11-2.69,12.6.67,16.98,5-1.68-6.14-.98-11.96,3.01-16.99ZM1320,526.01l-10.99-2.01c.16,4.14-1.61,7.8-4.01,10.99,4.32-.46,8.3.91,11.99,3.01-.46-4.32.91-8.3,3.01-11.99ZM973,531.01c-5.49.7-10.37-1.37-14.99-4.01.94,6.31-2.19,11.34-6.01,15.99,7.38-2.34,13.44.18,18.99,5.01-1.58-6.17-1.45-11.49,2.01-16.99ZM1245,531.01l-11.99-3.01-3,10.99c4.87.88,9.1,1.77,12.99,5.01.09-4.59-.84-9.04,2.01-12.99ZM1513,537.01l.57-5.03-5.45-.85-1.12,4.87,6,1.01ZM1170,535.01l-11.51-2.98-5.49,12.96c5.54-.88,9.3,2.06,13.99,4-.46-5.1.36-9.61,3-13.98ZM1438.99,545l1.92-9.43-.88-1.1-8.02-2.47-3.01,9.99,9.99,3.01ZM424,535.01l-9.99-2.01-3,10c4.4-.63,7.61,1.65,10.99,4-.62-4.58.48-7.86,2.01-11.99ZM345,537.01l-8.99-3.01-1.02,10,8,1.01,2.01-8ZM1094,539.01c-4.69.5-8.98-.64-12.99-3,.12,5.32-2.28,9.7-5.01,13.99,5.78-2.07,11.32.64,15.99,4.01-.25-5.49-.27-9.95,2.01-14.99ZM1366,539.01l-11-3.01-3,10.99c4.38.11,8.6,1.24,11.99,4.01l2.01-11.99ZM1292,542.01c-4.69.5-8.97-.65-12.99-3.01.84,5.81-1.33,9.81-5.01,13.99,5.93-.92,9.79.95,14.99,3.01-.88-5.32,1.53-9.22,3-13.99ZM1216,547.01l-12.99-3c.45,4.77-1.88,8.95-4.01,12.99,5.57-.58,10.64,1.83,14.99,5.01-1.3-5.52.11-9.87,2.01-14.99ZM1141.99,550c-5.69,1.77-11.08-1.42-15.98-4,1.2,8.01-1.67,12.59-7.01,17.99,6.84-1.99,11.99-1.51,17.78,2.67,1.33.96.78,2.48,2.21,2.34-.48-3.3-1.31-5.92-.91-9.4.45-3.91,2.92-6.13,3.91-9.59ZM1484.99,556l.6-8.05-6.64-1.54-2.96,7.59,8.99,2.01ZM1413,551.01l-10.99-3.01c-.35,4.04-1.43,7.84-4.01,10.99l11.99,3.01,3.01-10.99ZM313.99,563.01l1.59-9.05-10.57-4.95-2.01,12.99,10.99,1.01ZM394,552.01l-9-1.01-2.01,8,9,2c-.33-3.4.11-6.16,2.01-8.99ZM1338,555.01l-12.99-3.01c.45,4.77-1.88,8.95-4,12.99,5.94-.95,9.97,1.75,15,4-2.29-4.56-.08-9.8,2-13.98ZM1265,558.01c-3.05-.18-6.24.38-9.27-.24s-4.81-3.46-7.73-3.76c1.82,6.59-1.56,12.3-6,16.98,9.34-.94,15.37.3,20.99,8.01-3.52-7.61-2.45-14.1,2.01-20.99ZM1531,560.01l-5.99-2.01-2.01,6.99,6.99,2.01,1.01-6.99ZM1458,564.01l-9.99-3.01c-.34,4.04-1.43,7.85-4.01,10.99,4.65-.61,8.13.63,11.99,3.01l2.01-10.99ZM288,570.01c-6.88.41-10.36-4.08-14.99-8.01,3.14,7.24,2.02,12.47-2.01,18.99,5.13-2.01,9.02-.2,13.99,1.01-.47-4.32.91-8.3,3.01-11.99ZM1385,567.01c-5.24.49-9.48-2.01-13.99-4,.5,5.24-2.01,9.48-4,13.99,6.59-.76,11.45,1.54,15.99,6-1.58-5.71-.97-10.83,2.01-15.99ZM1311,571.01c-5.97.7-10.95-1.04-15.99-4.01.92,6.32-1.43,11.05-5.01,15.99,6.37-.5,10.58-.08,15.78,3.67,1.33.96.78,2.48,2.21,2.34-1.72-6.6-1.46-12.53,3.01-17.98ZM363.01,569l-7-1.01-.98,5.96,6.97,2.05,1.01-7ZM1576.96,572.04l-4.94-1.05-2.01,6,6.07.59.89-5.54ZM1504,576.01c-3.62.16-6.9-1.35-9.99-3.01l-2.01,9.99,9.99,3.01,2.01-9.99ZM1431,580.01c-4.69.09-9.34-1.05-12.99-4.01.12,5.32-2.28,9.71-5.01,13.99,5.93-.92,9.78.95,14.99,3.01-.54-4.99.3-8.83,3.01-12.99ZM1705,578.01l-7.99-1.01-.58,7,5.56,3,3.01-8.99ZM1356.99,582c-5.57,2.8-10.99-.91-15.99-3,.87,6.28-1.81,10.95-5,15.99,6.37-.5,10.58-.08,15.78,3.67,1.33.96.78,2.48,2.21,2.34-.48-3.3-1.31-5.92-.91-9.4.45-3.92,2.93-6.13,3.91-9.6ZM331.97,586.03l-6.96-2.03-.61,6.04,6.57,1.96,1-5.97ZM1549,589.01l-6.99-2.01-1.6,8.06,6.58,1.95,2.01-7.99ZM1476,592.01c-4.32.47-8.3-.91-11.99-3.01,1.03,4.83-1.98,7.74-3.01,11.99l11.99,3,3.01-11.99ZM383.99,597c-3.72,2.23-7.16-.55-10.98-1l-3.01,9.99c4.79-.16,8.55,2,11.99,5.01-.38-5.19-.04-9.25,2-14ZM302,602l-6.99-2.01-1.02,7,7,1.01,1.01-6ZM1588.34,601.17l-.84,5.74,5.81.86.84-5.74-5.81-.86ZM1522,605.01l-10.99-3.01-4.01,11.99c4.56-.61,7.87.46,11.99,2.01l3.01-10.99ZM1449,608.01c-5.91.89-10.08-1.22-14.99-4.01.92,6.32-1.43,11.05-5.01,15.99,6.39-2.41,11.83.33,16.99,4.01-1.84-5.88.06-10.86,3.01-15.99ZM1724,607.01l-11.05-.59-1.95,8.56,10,4.02c-.83-4.76,1.47-7.89,3-11.99ZM273.01,617.01c-3.94.41-6.96-1.98-10-4.01l-3.01,12.99,10.99,1.01,2.01-10ZM352,616l-9-1.01-1.01,5.98,9,3.02,1.01-7.99ZM1494,621.01c-4.69.09-9.34-1.05-12.99-4.01-.1,5.72-2.21,10.82-6.01,14.99,3.07.13,6.21-.31,9.27.24,2.8.51,4.16,2.44,6.73,2.76-.44-5.31-.01-9.54,3.01-13.99ZM1566.01,619.01l-8-2.02-1.01,8,7,1.01,2.02-6.99ZM1609.95,636.95l.62-5.01-5.57-1.94-.58,6.03,5.53.92ZM1536.99,646l.6-11.05-10.58-3.95c.61,4.65-.63,8.14-3.01,11.99,4.7-.49,8.98.65,12.99,3.01ZM373,642.01l-13.99-2.01c.47,4.32-.91,8.3-3.01,11.99,5.17-.39,9.28,1.71,12.99,5.01-.56-5.91.15-10.4,4.01-14.99ZM1511,650.01c-5.58.66-9.69-.52-13.99-4.01.7,5.85-.78,10.27-4.01,14.99,5.6-.49,10.57.43,14.99,4.01-.39-5.44.09-10.3,3.01-14.99ZM1580.99,656.01l1.61-8.05-7.59-1.96-2,9,7.98,1.01ZM1708,655l-5.85.14-1.12,4.8c4.78,2.34,6.89.04,6.96-4.94ZM340,661.01l-7.99-1.02-.96,6.96,6.95,2.05,2.01-7.99ZM1556,663.01c-4.77.82-7.89-1.47-11.99-3,.48,4.87-1.06,9.18-4,12.99,5.1-.45,9.61.36,13.99,3.01l2.01-12.99ZM258,665.01l-6.99-3.01-4.01,10.99,8.99,1.01,2.01-8.99ZM1529,679.01c-5.6.49-10.57-.43-14.99-4.01.55,5.23-.94,10.28-4.13,14.38-1.06,1.36-2.91,1.13-2.87,2.61,6.6-1.72,12.53-1.46,17.98,3.01-.43-5.93.11-11.27,4.01-15.99ZM1599.01,677.01l-7-1.01-.99,6.97,6.97,2.04,1.02-7.99ZM1729,683.01l-11.99-1.01-1.97,9.95,9.96,4.05c-.48-4.87,1.06-9.18,4-12.99ZM361,688.01l-12.97-.99-3.03,10.98c4.14-.16,7.8,1.61,10.99,4.01-.11-5.4,1.29-10.1,5.01-13.99ZM1572,693l-11-3c.48,4.32-.91,8.3-3,11.99,4.58-.62,7.86.48,11.99,2.01l2.01-10.99ZM1545,709.01c-5.26.5-9.87-.74-13.99-4.01.75,6.59-1.54,11.45-6.01,15.99,6.21-2.03,11.89-1.04,16.99,3.01-.31-5.62-.3-10.26,3.01-14.99ZM1614.94,707.09l-4.44-2.07-2.49,6.97,5.99,1.01.95-5.92ZM327,708.01l-6.88-.89-1.08,5.83,5.95,2.04,2.01-6.99ZM1589,723.01l-10.99-4.01-2.01,10.99,10.99,3.01c-.26-3.74-.16-6.84,2-9.98ZM287.03,729.95c2.98,1.15,6.25,2.04,5.95-2.43l-4.96-2.53-.99,4.96ZM1715,730.01l-8.99-1-2.01,8.99,8,3.01,3-10.99ZM1561,738c-5.22.72-8.98-.9-12.99-4,.07,2.38.13,4.71-.45,7.06-.98,3.97-3.44,5.46-4.55,8.94,5.42-2.51,11.47-.47,15.98,3-1.73-5.49,1.11-9.79,2.01-14.99ZM346,736.01l-9.99-1.01-2.01,8.99,9.99,4.01,2.01-11.99ZM1630.99,736l-3.83.16-2.16,4.82,4.96.99,1.03-5.97ZM1605.01,752.01c-3.2.27-6-1.17-8.51-2.98l-4.49,10.97,10.99,2.01,2.01-10ZM313.01,756.01l-7.98-.98-1.03,5.96,8,2,1.01-6.99ZM1578,768.01l-12.99-4.01-1.51,8.99-5.49,7c6.14-1.59,11.5-1.44,16.98,2.01l3.01-13.99ZM284,772l-11.99-4c-.79,5.72-3.1,9.89-7.01,13.99,6.62-1.71,12.52-1.47,17.99,3.01l1.01-13ZM1702,777.01l-7.86.13-2.07,7.77,6.92,3.09c.1-3.85,1.11-7.67,3.01-10.99ZM334,782.01c-4.54.15-8.92.31-12.99-2.01.75,5.1-2.36,8.64-4,12.99,7.17-1.2,11.18,2.66,15.99,7-2.67-6.9-1.79-11.37,1-17.99ZM1621.01,782.01l-7.99-2-3.01,8.99,9.99,2.01,1.01-9ZM1595,798.01l-12.99-4.01c.67,6.25-1.93,10.72-6.01,14.99,6.22-1,11.61-.49,16.99,3.01-1.82-4.85.17-9.4,2.01-13.99ZM1668,798l-6.93-.93-1.08,3.91,7,2.02,1.01-5ZM1640,812.01l-10.99-2.01c.37,4.24-2.06,7.54-4.01,11,4.89-.49,8.55.2,12.99,2.01l2-10.99Z" fill="currentColor"/><circle cx="1219" cy="604" r="15.84" fill="currentColor"/><circle cx="1404" cy="653" r="15.84" fill="currentColor"/><circle cx="378" cy="776" r="15.68" fill="currentColor"/><circle cx="1518" cy="783" r="15.37" fill="currentColor"/><circle cx="1265" cy="616" r="15.37" fill="currentColor"/><circle cx="1358" cy="641" r="15.37" fill="currentColor"/><circle cx="1312" cy="628" r="15.28" fill="currentColor"/><circle cx="1097" cy="596" r="15.28" fill="currentColor"/><circle cx="359" cy="472" r="15.28" fill="currentColor"/><circle cx="1535" cy="813" r="15.28" fill="currentColor"/><circle cx="301" cy="506" r="15.19" fill="currentColor"/><circle cx="1421" cy="683" r="15.19" fill="currentColor"/><circle cx="1143" cy="608" r="15.19" fill="currentColor"/><circle cx="1189" cy="620" r="14.87" fill="currentColor"/><circle cx="1438" cy="712" r="14.79" fill="currentColor"/><circle cx="402" cy="683" r="14.79" fill="currentColor"/><circle cx="1375" cy="670" r="14.72" fill="currentColor"/><circle cx="1054" cy="385" r="14.72" fill="currentColor"/><circle cx="1552" cy="842" r="14.72" fill="currentColor"/><circle cx="1236" cy="633" r="14.72" fill="currentColor"/><circle cx="1754" cy="648" r="14.72" fill="currentColor"/><circle cx="389" cy="456" r="14.39" fill="currentColor"/><circle cx="932" cy="377" r="14.39" fill="currentColor"/><circle cx="1282" cy="645" r="14.39" fill="currentColor"/><circle cx="1749" cy="572" r="14.39" fill="currentColor"/><circle cx="1329" cy="658" r="14.39" fill="currentColor"/><circle cx="217" cy="633" r="14.39" fill="currentColor"/><circle cx="1455" cy="741" r="14.39" fill="currentColor"/><circle cx="1021" cy="600" r="14.19" fill="currentColor"/><circle cx="407" cy="759" r="14.09" fill="currentColor"/><circle cx="1067" cy="613" r="14.09" fill="currentColor"/><circle cx="271" cy="523" r="14.09" fill="currentColor"/><circle cx="289" cy="826" r="14.09" fill="currentColor"/><circle cx="415" cy="636" r="14" fill="currentColor"/><circle cx="1114" cy="625" r="14" fill="currentColor"/><circle cx="1472" cy="771" r="14" fill="currentColor"/><circle cx="975" cy="588" r="14" fill="currentColor"/><circle cx="734" cy="374" r="14" fill="currentColor"/><circle cx="1160" cy="637" r="13.91" fill="currentColor"/><circle cx="1616" cy="884" r="13.91" fill="currentColor"/><circle cx="809" cy="370" r="13.91" fill="currentColor"/><circle cx="1392" cy="700" r="13.91" fill="currentColor"/><circle cx="1746" cy="770" r="13.91" fill="currentColor"/><circle cx="229" cy="587" r="13.91" fill="currentColor"/><circle cx="928" cy="575" r="13.91" fill="currentColor"/><circle cx="1569" cy="871" r="13.73" fill="currentColor"/><circle cx="365" cy="822" r="13.73" fill="currentColor"/><circle cx="1733" cy="816" r="13.73" fill="currentColor"/><circle cx="1489" cy="800" r="13.73" fill="currentColor"/><circle cx="419" cy="712" r="13.56" fill="currentColor"/><circle cx="205" cy="679" r="13.56" fill="currentColor"/><circle cx="1007" cy="373" r="13.56" fill="currentColor"/><circle cx="494" cy="434" r="13.56" fill="currentColor"/><circle cx="1206" cy="650" r="13.56" fill="currentColor"/><circle cx="1758" cy="723" r="13.41" fill="currentColor"/><circle cx="1345" cy="687" r="13.41" fill="currentColor"/><circle cx="1253" cy="662" r="13.32" fill="currentColor"/><circle cx="457" cy="573" r="13.32" fill="currentColor"/><circle cx="882" cy="563" r="13.32" fill="currentColor"/><circle cx="1299" cy="675" r="13.32" fill="currentColor"/><circle cx="395" cy="805" r="13.32" fill="currentColor"/><circle cx="1506" cy="830" r="13.22" fill="currentColor"/><circle cx="1409" cy="729" r="13.22" fill="currentColor"/><circle cx="658" cy="379" r="13.22" fill="currentColor"/><circle cx="885" cy="365" r="13.12" fill="currentColor"/><circle cx="1681" cy="454" r="13.02" fill="currentColor"/><circle cx="336" cy="839" r="13.02" fill="currentColor"/><circle cx="1766" cy="601" r="12.91" fill="currentColor"/><circle cx="1589" cy="429" r="12.81" fill="currentColor"/><circle cx="1523" cy="859" r="12.62" fill="currentColor"/><circle cx="1038" cy="630" r="12.62" fill="currentColor"/><circle cx="1131" cy="654" r="12.62" fill="currentColor"/><circle cx="486" cy="556" r="12.62" fill="currentColor"/><circle cx="835" cy="550" r="12.62" fill="currentColor"/><circle cx="242" cy="540" r="12.62" fill="currentColor"/><circle cx="1426" cy="758" r="12.62" fill="currentColor"/><circle cx="1084" cy="642" r="12.62" fill="currentColor"/><circle cx="226" cy="785" r="12.62" fill="currentColor"/><circle cx="418" cy="439" r="12.53" fill="currentColor"/><circle cx="1692" cy="879" r="12.53" fill="currentColor"/><circle cx="1129" cy="381" r="12.53" fill="currentColor"/><circle cx="992" cy="617" r="12.44" fill="currentColor"/><circle cx="523" cy="417" r="12.44" fill="currentColor"/><circle cx="313" cy="460" r="12.44" fill="currentColor"/><circle cx="1362" cy="717" r="12.44" fill="currentColor"/><circle cx="1177" cy="667" r="12.44" fill="currentColor"/><circle cx="763" cy="357" r="12.22" fill="currentColor"/><circle cx="1662" cy="896" r="12.22" fill="currentColor"/><circle cx="436" cy="742" r="12.22" fill="currentColor"/><circle cx="1316" cy="704" r="12.22" fill="currentColor"/><circle cx="1270" cy="692" r="12.22" fill="currentColor"/><circle cx="424" cy="788" r="12.22" fill="currentColor"/><circle cx="209" cy="755" r="12.22" fill="currentColor"/><circle cx="243" cy="814" r="12.22" fill="currentColor"/><circle cx="1443" cy="788" r="12.22" fill="currentColor"/><circle cx="1771" cy="677" r="12.22" fill="currentColor"/><circle cx="1223" cy="679" r="12.22" fill="currentColor"/><circle cx="961" cy="360" r="12.22" fill="currentColor"/><circle cx="342" cy="443" r="12.22" fill="currentColor"/><circle cx="432" cy="666" r="11.94" fill="currentColor"/><circle cx="945" cy="605" r="11.94" fill="currentColor"/><circle cx="696" cy="513" r="11.94" fill="currentColor"/><circle cx="284" cy="477" r="11.94" fill="currentColor"/><circle cx="1586" cy="901" r="11.94" fill="currentColor"/><circle cx="839" cy="353" r="11.73" fill="currentColor"/><circle cx="1460" cy="817" r="11.73" fill="currentColor"/><circle cx="1721" cy="862" r="11.73" fill="currentColor"/><circle cx="789" cy="538" r="11.73" fill="currentColor"/><circle cx="1745" cy="496" r="11.63" fill="currentColor"/><circle cx="1540" cy="888" r="11.63" fill="currentColor"/><circle cx="687" cy="362" r="11.63" fill="currentColor"/><circle cx="1379" cy="746" r="11.43" fill="currentColor"/><circle cx="553" cy="400" r="11.43" fill="currentColor"/><circle cx="899" cy="592" r="11.31" fill="currentColor"/><circle cx="1252" cy="389" r="11.17" fill="currentColor"/><circle cx="1633" cy="913" r="11.17" fill="currentColor"/><circle cx="1542" cy="417" r="11.17" fill="currentColor"/><circle cx="1477" cy="847" r="11.17" fill="currentColor"/><circle cx="1762" cy="525" r="11.17" fill="currentColor"/><circle cx="743" cy="526" r="11.17" fill="currentColor"/><circle cx="1148" cy="684" r="11.17" fill="currentColor"/><circle cx="1101" cy="671" r="11.17" fill="currentColor"/><circle cx="200" cy="604" r="11.17" fill="currentColor"/><circle cx="1083" cy="368" r="11.17" fill="currentColor"/><circle cx="192" cy="726" r="11.06" fill="currentColor"/><circle cx="1055" cy="659" r="11.06" fill="currentColor"/><circle cx="1194" cy="696" r="11.06" fill="currentColor"/><circle cx="372" cy="426" r="11.06" fill="currentColor"/><circle cx="1333" cy="734" r="10.94" fill="currentColor"/><circle cx="188" cy="650" r="10.94" fill="currentColor"/><circle cx="1728" cy="467" r="10.94" fill="currentColor"/><circle cx="306" cy="856" r="10.94" fill="currentColor"/><circle cx="915" cy="348" r="10.94" fill="currentColor"/><circle cx="254" cy="494" r="10.83" fill="currentColor"/><circle cx="1009" cy="647" r="10.83" fill="currentColor"/><circle cx="1287" cy="721" r="10.83" fill="currentColor"/><circle cx="1240" cy="709" r="10.83" fill="currentColor"/><circle cx="1374" cy="397" r="10.83" fill="currentColor"/><circle cx="444" cy="619" r="10.83" fill="currentColor"/><circle cx="1396" cy="775" r="10.73" fill="currentColor"/><circle cx="449" cy="695" r="10.73" fill="currentColor"/><circle cx="453" cy="771" r="10.54" fill="currentColor"/><circle cx="1783" cy="631" r="10.54" fill="currentColor"/><circle cx="621" cy="518" r="10.54" fill="currentColor"/><circle cx="582" cy="383" r="10.54" fill="currentColor"/><circle cx="1775" cy="753" r="10.3" fill="currentColor"/><circle cx="1494" cy="876" r="10.3" fill="currentColor"/><circle cx="412" cy="834" r="10.3" fill="currentColor"/><circle cx="260" cy="843" r="10.3" fill="currentColor"/><circle cx="852" cy="580" r="10.3" fill="currentColor"/><circle cx="962" cy="634" r="10.3" fill="currentColor"/><circle cx="1763" cy="799" r="10.3" fill="currentColor"/><circle cx="212" cy="557" r="10.3" fill="currentColor"/><circle cx="382" cy="851" r="10.3" fill="currentColor"/><circle cx="1037" cy="356" r="10.3" fill="currentColor"/><circle cx="1413" cy="805" r="9.89" fill="currentColor"/><circle cx="1779" cy="555" r="9.89" fill="currentColor"/><circle cx="792" cy="340" r="9.89" fill="currentColor"/><circle cx="1557" cy="918" r="9.89" fill="currentColor"/><circle cx="1350" cy="763" r="9.77" fill="currentColor"/><circle cx="441" cy="817" r="9.77" fill="currentColor"/><circle cx="717" cy="345" r="9.77" fill="currentColor"/><circle cx="1603" cy="930" r="9.52" fill="currentColor"/><circle cx="466" cy="725" r="9.52" fill="currentColor"/><circle cx="1072" cy="688" r="9.52" fill="currentColor"/><circle cx="1165" cy="713" r="9.52" fill="currentColor"/><circle cx="1118" cy="701" r="9.52" fill="currentColor"/><circle cx="1257" cy="738" r="9.4" fill="currentColor"/><circle cx="612" cy="366" r="9.4" fill="currentColor"/><circle cx="1211" cy="726" r="9.4" fill="currentColor"/><circle cx="448" cy="422" r="9.4" fill="currentColor"/><circle cx="868" cy="336" r="9.4" fill="currentColor"/><circle cx="916" cy="622" r="9.4" fill="currentColor"/><circle cx="1511" cy="905" r="9.4" fill="currentColor"/><circle cx="1750" cy="845" r="9.4" fill="currentColor"/><circle cx="1788" cy="706" r="9.29" fill="currentColor"/><circle cx="1304" cy="751" r="9.29" fill="currentColor"/><circle cx="990" cy="343" r="9.29" fill="currentColor"/><circle cx="353" cy="868" r="9.29" fill="currentColor"/><circle cx="1430" cy="834" r="9.29" fill="currentColor"/><circle cx="326" cy="414" r="9.02" fill="currentColor"/><circle cx="225" cy="511" r="9.02" fill="currentColor"/><circle cx="175" cy="696" r="9.02" fill="currentColor"/><circle cx="1205" cy="376" r="9.02" fill="currentColor"/><circle cx="296" cy="431" r="9.02" fill="currentColor"/><circle cx="1025" cy="676" r="9.02" fill="currentColor"/><circle cx="1447" cy="864" r="8.89" fill="currentColor"/><circle cx="1496" cy="404" r="8.75" fill="currentColor"/><circle cx="401" cy="409" r="8.75" fill="currentColor"/><circle cx="806" cy="567" r="8.75" fill="currentColor"/><circle cx="470" cy="800" r="8.75" fill="currentColor"/><circle cx="1367" cy="792" r="8.61" fill="currentColor"/><circle cx="979" cy="663" r="8.61" fill="currentColor"/><circle cx="1711" cy="437" r="8.31" fill="currentColor"/><circle cx="267" cy="448" r="8.31" fill="currentColor"/><circle cx="483" cy="754" r="8.31" fill="currentColor"/><circle cx="1182" cy="743" r="8.14" fill="currentColor"/><circle cx="869" cy="609" r="8.14" fill="currentColor"/><circle cx="944" cy="331" r="8.14" fill="currentColor"/><circle cx="1464" cy="893" r="8.14" fill="currentColor"/><circle cx="1321" cy="780" r="8.14" fill="currentColor"/><circle cx="1679" cy="926" r="8.14" fill="currentColor"/><circle cx="1795" cy="584" r="8.14" fill="currentColor"/><circle cx="1135" cy="730" r="8.14" fill="currentColor"/><circle cx="461" cy="649" r="8.14" fill="currentColor"/><circle cx="1089" cy="718" r="8.14" fill="currentColor"/><circle cx="1228" cy="755" r="8.14" fill="currentColor"/><circle cx="1708" cy="909" r="8.14" fill="currentColor"/><circle cx="1664" cy="425" r="8.14" fill="currentColor"/><circle cx="641" cy="349" r="7.87" fill="currentColor"/><circle cx="1274" cy="767" r="7.87" fill="currentColor"/><circle cx="355" cy="397" r="7.87" fill="currentColor"/><circle cx="1574" cy="946.99" r="7.73" fill="currentColor"/><circle cx="1528" cy="934.99" r="7.73" fill="currentColor"/><circle cx="1159" cy="363.99" r="7.73" fill="currentColor"/><circle cx="1042" cy="704.99" r="7.73" fill="currentColor"/><circle cx="1800" cy="659.99" r="7.73" fill="currentColor"/><circle cx="197" cy="801.99" r="7.73" fill="currentColor"/><circle cx="1650" cy="943" r="7.58" fill="currentColor"/><circle cx="478" cy="678" r="7.58" fill="currentColor"/><circle cx="277" cy="873" r="7.58" fill="currentColor"/><circle cx="1384" cy="822" r="7.44" fill="currentColor"/><circle cx="933" cy="651" r="7.44" fill="currentColor"/><circle cx="822" cy="323" r="7.44" fill="currentColor"/><circle cx="746" cy="328" r="7.44" fill="currentColor"/><circle cx="171" cy="621" r="7.44" fill="currentColor"/><circle cx="183" cy="574" r="7.44" fill="currentColor"/><circle cx="214" cy="831" r="7.24" fill="currentColor"/><circle cx="428" cy="864" r="7.24" fill="currentColor"/><circle cx="180" cy="772" r="7.24" fill="currentColor"/><circle cx="323" cy="885" r="7.24" fill="currentColor"/><circle cx="500" cy="783" r="7.24" fill="currentColor"/><circle cx="458" cy="847" r="7.04" fill="currentColor"/><circle cx="996" cy="693" r="7.04" fill="currentColor"/><circle cx="1481" cy="922" r="7.04" fill="currentColor"/><circle cx="237" cy="465" r="7.04" fill="currentColor"/><circle cx="495" cy="708" r="7.04" fill="currentColor"/><circle cx="591" cy="535" r="6.86" fill="currentColor"/><circle cx="477" cy="405" r="6.86" fill="currentColor"/><circle cx="898" cy="319" r="6.86" fill="currentColor"/><circle cx="760" cy="555" r="6.86" fill="currentColor"/><circle cx="1774" cy="479" r="6.86" fill="currentColor"/><circle cx="1738" cy="892" r="6.86" fill="currentColor"/><circle cx="474" cy="603" r="6.86" fill="currentColor"/><circle cx="1327" cy="384" r="6.86" fill="currentColor"/><circle cx="1401" cy="851" r="6.86" fill="currentColor"/><circle cx="667" cy="530" r="6.86" fill="currentColor"/><circle cx="195" cy="528" r="6.86" fill="currentColor"/><circle cx="1757" cy="450" r="6.68" fill="currentColor"/><circle cx="487" cy="830" r="6.68" fill="currentColor"/><circle cx="1418" cy="881" r="6.68" fill="currentColor"/><circle cx="512" cy="737" r="6.68" fill="currentColor"/><circle cx="399" cy="881" r="6.68" fill="currentColor"/><circle cx="1620" cy="960" r="6.68" fill="currentColor"/><circle cx="1112.01" cy="350.99" r="6.37" fill="currentColor"/><circle cx="1152.01" cy="759.99" r="6.37" fill="currentColor"/><circle cx="158" cy="667" r="6.18" fill="currentColor"/><circle cx="1338" cy="809" r="6.18" fill="currentColor"/><circle cx="1198" cy="772" r="6.18" fill="currentColor"/><circle cx="1066" cy="339" r="6.18" fill="currentColor"/><circle cx="1245" cy="784" r="6.18" fill="currentColor"/><circle cx="1106" cy="747" r="6.18" fill="currentColor"/><circle cx="1791" cy="508" r="6.18" fill="currentColor"/><circle cx="1792" cy="782" r="6.18" fill="currentColor"/><circle cx="1291" cy="797" r="6.18" fill="currentColor"/><circle cx="1780" cy="828" r="5.97" fill="currentColor"/><circle cx="823" cy="597" r="5.97" fill="currentColor"/><circle cx="506" cy="388" r="5.97" fill="currentColor"/><circle cx="670" cy="332" r="5.97" fill="currentColor"/><circle cx="231" cy="860" r="5.97" fill="currentColor"/><circle cx="309" cy="384" r="5.97" fill="currentColor"/><circle cx="384" cy="380" r="5.97" fill="currentColor"/><circle cx="1545" cy="964" r="5.97" fill="currentColor"/><circle cx="950" cy="680" r="5.97" fill="currentColor"/><circle cx="886" cy="639" r="5.97" fill="currentColor"/><circle cx="1812" cy="614" r="5.97" fill="currentColor"/><circle cx="1059" cy="735" r="5.97" fill="currentColor"/><circle cx="1435" cy="910" r="5.97" fill="currentColor"/><circle cx="163" cy="743" r="5.97" fill="currentColor"/><circle cx="529" cy="766" r="5.97" fill="currentColor"/><circle cx="1618" cy="412" r="5.97" fill="currentColor"/><circle cx="1020" cy="326.99" r="5.54" fill="currentColor"/><circle cx="1805" cy="735.99" r="5.54" fill="currentColor"/><circle cx="1013" cy="721.99" r="5.54" fill="currentColor"/><circle cx="713" cy="542.99" r="5.54" fill="currentColor"/><circle cx="279" cy="400.99" r="5.54" fill="currentColor"/><circle cx="1498" cy="951.99" r="5.54" fill="currentColor"/><circle cx="208" cy="482" r="5.31" fill="currentColor"/><circle cx="517" cy="813" r="5.31" fill="currentColor"/><circle cx="1740" cy="420" r="5.31" fill="currentColor"/><circle cx="536" cy="371" r="5.31" fill="currentColor"/><circle cx="1449" cy="392" r="5.31" fill="currentColor"/><circle cx="776.01" cy="310.99" r="5.11" fill="currentColor"/><circle cx="1169.01" cy="788.99" r="5.11" fill="currentColor"/><circle cx="370.01" cy="897.99" r="5.11" fill="currentColor"/><circle cx="1452.01" cy="938.99" r="5.11" fill="currentColor"/><circle cx="338.01" cy="366.99" r="5.11" fill="currentColor"/><circle cx="1591.01" cy="976.99" r="5.11" fill="currentColor"/><circle cx="250" cy="417.99" r="4.91" fill="currentColor"/><circle cx="973" cy="313.99" r="4.91" fill="currentColor"/><circle cx="1215" cy="800.99" r="4.91" fill="currentColor"/><circle cx="1355" cy="838.99" r="4.91" fill="currentColor"/><circle cx="431" cy="391.99" r="4.91" fill="currentColor"/><circle cx="1817" cy="688.99" r="4.91" fill="currentColor"/><circle cx="1808" cy="537.99" r="4.91" fill="currentColor"/><circle cx="1123" cy="776.99" r="4.91" fill="currentColor"/><circle cx="475" cy="875.99" r="4.65" fill="currentColor"/><circle cx="525" cy="690.99" r="4.65" fill="currentColor"/><circle cx="851" cy="305.99" r="4.65" fill="currentColor"/><circle cx="542" cy="719.99" r="4.65" fill="currentColor"/><circle cx="1281" cy="371.99" r="4.65" fill="currentColor"/><circle cx="1262" cy="813.99" r="4.65" fill="currentColor"/><circle cx="1308" cy="825.99" r="4.42" fill="currentColor"/><circle cx="1694" cy="407.99" r="4.42" fill="currentColor"/><circle cx="1767" cy="874.99" r="4.42" fill="currentColor"/><circle cx="562" cy="551.99" r="4.42" fill="currentColor"/><circle cx="1372" cy="867.99" r="4.42" fill="currentColor"/><circle cx="504" cy="858.99" r="4.42" fill="currentColor"/><circle cx="1076" cy="763.99" r="4.42" fill="currentColor"/><circle cx="508" cy="660.99" r="4.42" fill="currentColor"/><circle cx="503" cy="585.99" r="4.42" fill="currentColor"/><circle cx="1388" cy="896.99" r="4.42" fill="currentColor"/><circle cx="565" cy="353.99" r="4.42" fill="currentColor"/><circle cx="546" cy="795.99" r="4.42" fill="currentColor"/><circle cx="903" cy="668" r="4.05" fill="currentColor"/><circle cx="558" cy="749" r="4.05" fill="currentColor"/><circle cx="1696" cy="955" r="4.05" fill="currentColor"/><circle cx="532" cy="569" r="4.05" fill="currentColor"/><circle cx="294" cy="902" r="4.05" fill="currentColor"/><circle cx="700" cy="315" r="4.05" fill="currentColor"/><circle cx="146" cy="713" r="4.05" fill="currentColor"/><circle cx="445" cy="893" r="4.05" fill="currentColor"/><circle cx="367" cy="350" r="4.05" fill="currentColor"/><circle cx="534" cy="842" r="4.05" fill="currentColor"/><circle cx="967" cy="710" r="4.05" fill="currentColor"/><circle cx="1667" cy="972" r="4.05" fill="currentColor"/><circle cx="777" cy="584" r="3.79" fill="currentColor"/><circle cx="840" cy="626" r="3.79" fill="currentColor"/><circle cx="1030" cy="752" r="3.79" fill="currentColor"/><circle cx="248" cy="890" r="3.79" fill="currentColor"/><circle cx="491" cy="632" r="3.79" fill="currentColor"/><circle cx="1405" cy="927" r="3.79" fill="currentColor"/><circle cx="166" cy="545" r="3.79" fill="currentColor"/><circle cx="154" cy="591" r="3.79" fill="currentColor"/><circle cx="927" cy="302" r="3.79" fill="currentColor"/><circle cx="1469" cy="969" r="3.79" fill="currentColor"/><circle cx="1515" cy="981" r="3.79" fill="currentColor"/><circle cx="1637" cy="989" r="3.79" fill="currentColor"/><circle cx="1232" cy="831" r="3.2" fill="currentColor"/><circle cx="292" cy="355" r="3.2" fill="currentColor"/><circle cx="1786" cy="433" r="3.2" fill="currentColor"/><circle cx="220" cy="435" r="3.2" fill="currentColor"/><circle cx="595" cy="337" r="3.2" fill="currentColor"/><circle cx="563" cy="825" r="3.2" fill="currentColor"/><circle cx="1572" cy="400" r="3.2" fill="currentColor"/><circle cx="1186" cy="818" r="3.2" fill="currentColor"/><circle cx="1235" cy="359" r="3.2" fill="currentColor"/><circle cx="1723" cy="391" r="3.2" fill="currentColor"/><circle cx="1140" cy="806" r="3.2" fill="currentColor"/><circle cx="340" cy="915" r="3.2" fill="currentColor"/><circle cx="141" cy="638" r="3.2" fill="currentColor"/><circle cx="1561" cy="994" r="3.2" fill="currentColor"/><circle cx="1829" cy="643" r="3.2" fill="currentColor"/><circle cx="1093" cy="794" r="3.2" fill="currentColor"/><circle cx="1825" cy="567" r="3.2" fill="currentColor"/><circle cx="1725" cy="938" r="3.2" fill="currentColor"/><circle cx="805" cy="294" r="3.2" fill="currentColor"/><circle cx="575" cy="779" r="3.2" fill="currentColor"/><circle cx="1422" cy="956" r="3.2" fill="currentColor"/><circle cx="179" cy="499" r="3.2" fill="currentColor"/><circle cx="1769" cy="403" r="3.2" fill="currentColor"/></svg>