<?xml version="1.0" encoding="UTF-8"?><svg id="a" xmlns="http://www.w3.org/2000/svg" viewBox="0 0 1200 960"><path d="M461.6,428.78c-.42.98.87,2.11,3.14,4.12,3.62,2.74,6.22,7.67,10.58,9.23,4.13.96,10.01-3.87,12.93-7.07,2.56-3.66-.94-7.95-2.43-11.6-5.91-12.12,1.61-27.89,15.4-30.07,18.5-4.25,32.86,18.52,21.61,33.53-2.98,4.86-11.89,7.47-9.47,12.63,1.85,3.19,5.72,7.86,9.92,7.9,3.53-.2,8.14-2.98,9.68-6.19,1.12-2.56.48-5.02-.38-7.76-14.8-28.11,26.72-48.03,38.6-19.27,1.07,2.35,1.7,6.78,3.34,7.91.58.29,1.28-.16,2.23-1.21,1.24-1.41,2.89-3.63,4.33-5.22,7.72-9.25,21.9-10.44,30.15-2.97,8.48,6.93,12.29,19.73,4.52,29.68-1.82,2.45-4.5,4.74-5.89,7.36-2.58,4.74,1.02,10.71,5.11,13.33,4.09,2.64,10.74-1.17,13.18-3.82,2.21-3.63-2.39-7.44-3.64-10.87-8.78-17.71,10.33-36.74,28.19-27.82,13.65,5.88,15.82,25.67,4.85,34.7-3.66,3.06-7.51,5.91-4.14,10.81,8.98,11.36,9.75,28.6-2.16,37.6-4.76,3.62-10.07,5.82-5.52,12.35,16.78,21.2-9.85,48.11-31.53,33.49-5.45-4.31-9.88-9.5-16.98-4.54-6.64,3.67-6.1,7.86-3.31,14.04,1.48,3.63,2.43,7.58,2.19,11.48-1.41,22.14-29.55,28.3-41.45,10.91-4.87-5.61-9.86-.81-14.94,2.7-6.61,4.09-2.39,10.28-.13,15.72,10.2,25.18-27.77,41.59-38.7,16.56-1.24-2.08-2.02-4.32-4.18-5.32-1.1-.42-2.26.02-3.63,1.09-2.91,2.38-5.82,5.72-9.38,7.27-7.42,3.48-17.03,2.82-23.67-2.05-5.16-2.93-8.72-14.02-15.72-8.68-2.06,1.47-4.91,3.29-7.23,4.46-2.07,1.14-4.61,2.55-3.51,5.17,2.08,3.96,7.39,11.25,7.15,17.2,1.5,14-14.01,24.89-26.98,21.32-14.97-4.01-20.92-25.96-8.46-36.02,1.56-1.29,3.55-2.66,4.98-3.89,2.41-1.92,3.13-4.11,1.54-6.53-2.68-3.27-7.42-11.42-12.76-9.48-3.51,1.55-9.85,4.39-11.66,6.68-1.6,3.46,3.06,6.75,4.53,9.84,10.19,15.9-5.91,37.12-24.15,31.69-12.9-3.4-19.3-18.93-13.45-30.53,2.2-5.43,9.06-8.77,11.84-12.3,2.26-3.52-4.83-9.23-6.81-12.07-3.87-4.91-9.12-1.52-13.51.73-13.24,6.59-27.21-.24-32.83-13.05-3.21-4.96-7.66.33-11.25,2.47-2.8,1.86-5.77,3.05-8.8,3.36-15.26,1.97-28.72-14.43-22.38-29,5.73-14.5,23.92-19.16,34.85-8.02,3.98,3.59,5.1,8.87,9.5,8.61,3.68-.86,7.26-4.31,10.2-6.57,4.44-3.79,1.42-7.06-1.4-11.63-1.14-1.73-2.14-3.74-3.59-5.16-2.44-2.23-4.4-.66-7.91,1.58-7.24,5.44-17.68,5.89-25.49,1.39-8.55-4.48-11.71-15.17-9.46-24.22,3.88-19.1,28.66-22.45,39.2-7.38,2.65,3.16,3.77,5.51,6.39,5.53,1.85-.03,3.98-2.26,6.65-4.51,1.6-1.39,3.48-2.71,4.71-4.4,2.45-3.64-.15-6.51-2.32-10.87-1.07-1.92-1.92-4.15-3.2-5.86-2.15-3.03-5.12,1.13-8.17,3.36-11.67,10.28-32.6,3.98-35.35-11.75-5.8-23.25,26.21-37.58,39.26-17.08,1.59,2.19,4.01,8.35,6.35,7.6,2.16-.84,3.61-3.07,5.4-4.61,3.16-3.23,7.01-4.2,8.81-7.38,1.08-2.62-1.7-6.01-3.23-8.91-12.88-23.09,15.63-45.22,34.36-26.91,3.49,3,4.97,9.69,7.14,12.85,1.8,1.71,6.29-6.02,8.74-7.46,3.63-3.03,8.23-4.79,12.88-5.15,18.38-1.2,19.73,15.01,27.86,13.21,3.19-.92,5.99-3.39,9.14-4.67,2.47-1.08,4.91-1.79,6.14-2.61,3.47-1.72-2.17-5.77-3.63-8.03-2.2-2.72-3.54-5.88-4.14-9.34-1.29-7.54,1.21-15.87,7.5-20.49,4.89-3.58,11.88-4.63,17.83-3.33,19.11,3.97,20.73,31.08,4.09,38.48-3.47,1.72-6.49,1.68-8.04,3.65l-.03.08ZM581.82,449.16c.56-3.89-2.97-6.88-4.66-11.39-3.94-10.38-3.14-10.22-11.24-1.17-2.24,2.33-5.33,3.81-7.68,5.89-3.04,2.81.34,6.41,2.48,8.99,1.87,2.11,3.76,4.42,6.35,5.54,2.76,1.19,5.3-.52,8.62-2.47,2.18-1.39,5.19-2.7,6.07-5.21l.05-.18ZM392.08,466.08c1.17-4.11-3.31-8.24-5.08-12.91-1.2-2.49-1.83-5.58-2.9-8-1.29-2.68-3.43.21-4.66,1.68-1.38,1.73-2.89,3.62-4.63,5.08-2.93,2.69-7.83,4.27-10.13,6.36-1.26,1.07-1.67,2.52-.58,3.99,1.79,2.39,4.47,4.49,6.26,6.99,3.81,5.2,5.09,10.34,11.1,5.85,3.17-2.72,8.83-5.22,10.57-8.85l.06-.18ZM434.43,472.59c.58-2.59-2.15-5.59-3.31-8.1-4.05-9.03-5.48-5.28-12.58-.58-1.65,1.06-3.7,1.82-5.28,2.85-1.66,1.2-1.13,2.37.17,4.17,1.41,1.83,3.74,4.24,5.38,6,1.97,2.29,4.55,3.92,7.41,2.28,3.01-1.59,7.13-3.69,8.16-6.44l.06-.19ZM477.7,479.36c.52-1.78-1.18-4.45-1.95-6.43-1.02-1.88-1.65-4.82-3.98-5.2-1.75-.03-4.13,2.9-6.7,4.62-1.39,1.12-3.59,1.8-4.22,3.52-.58,2.09,4.06,8.49,6.26,8.84,2.9.16,5.95-2.19,8.6-3.42.76-.46,1.57-.98,1.93-1.77l.07-.17ZM517.95,479.22c-2.19-.59-5.68,1.97-7.13,3.53-1.25,1.57.18,3.31,1.07,4.75.82,1.13,1.77,3.06,2.89,3.51,1.2.36,2.64-.94,3.81-1.63,1.15-.84,2.65-1.46,3.27-2.7.36-1.96-1.51-3.92-2.4-5.86-.35-.56-.77-1.21-1.33-1.53l-.16-.08ZM556.15,492.26c-.18,1.46,2.7,4.06,3.71,5.59,1.2,1.36,2.92,4.4,4.56,3.49,1.45-.68,3.02-1.95,4.16-3.02.48-.51.71-.97.62-1.48-.08-.46-.37-.91-.68-1.33-1.55-1.82-3.82-4.85-5.75-6.58-1.22-.91-2.47-.02-3.64.69-.97.67-2.53,1.52-2.95,2.48l-.04.15ZM612.32,494.99c-2.64-1.18-10.87,5.39-11.42,8.13-.54,2.09,1.31,4.27,2.81,7.18,1.15,1.91,1.91,4.85,4.2,5.47,2.48.31,4.88-2.48,8.17-4.15,1.1-.61,2.29-1.21,3.33-1.85,5.89-3.35.04-6.5-3.24-10.69-1.16-1.36-2.1-3.2-3.68-4.02l-.17-.07ZM379.62,511.11c.58-2.24-1.5-5.19-2.55-7.59-1.34-2.36-2.19-5.41-4.46-6.88-1.63-.82-3.51,1.52-6.32,3.56-2.24,1.93-6.16,2.81-7.43,5.54-.48,2.32,2.04,4.14,3.34,5.86,2.4,2.75,3.7,5.75,6.17,5.85,2.12.08,4.06-1.1,5.93-2.09,1.83-1.09,4.52-2.33,5.26-4.07l.06-.18ZM421.11,518.3c.14-.37.15-.75.07-1.16-.4-1.75-2.03-4.75-3.73-5.81-1.57-.8-3.18.35-4.65,1.04-1.15.66-2.86,1.29-3.32,2.4-.36,1.21.8,2.88,1.37,4.17.73,1.26,1.15,2.98,2.43,3.61,2.04.15,4.25-1.81,6.26-2.73.56-.36,1.2-.77,1.5-1.35l.08-.17ZM457.82,522.58c-.23.35.2,1,.82,2.04,1.04,1.67,2.46,4.18,3.22,5.21.52.74,1.33.62,2.05.17.89-.57,2.35-1.2,2.44-2.35-.35-1.69-1.98-4.13-2.99-5.38-.55-.57-1.57-.55-2.44-.45-.91.15-2.35.18-3.04.66l-.07.09ZM509.95,530.58c-1.12-.13-2.7.94-3.86,1.47-1.01.59-2.31,1-2.39,2.22.37,2.16,2.15,5.06,3,6.95.24.41.5.81.9.97,1.09.28,2.38-1.02,3.45-1.67,1.1-.88,2.63-1.52,3.1-2.83.14-1.42-.83-2.34-1.57-3.81-.88-1.3-1.2-2.63-2.46-3.27l-.16-.04ZM564.99,547.42c.82-1.83-2.05-5.2-3.23-7.16-1.31-1.76-2.24-4.01-4.25-4.75-2.87-.25-5.3,2.34-8.06,3.89-1.1.79-2.42,1.66-2.64,3.06-.15,1.5.78,2.95,1.45,4.3,1.74,2.95,3.11,6.45,5.06,8.01,1.99,1.16,3.48-1.42,5-2.52,1.66-1.79,5.52-3.14,6.6-4.69l.07-.14ZM364.72,546.73c-3.78-1.34-9.12,2.23-12.8,3.51-3.64,1.52-4.13,3.06-1.86,6.18,2.49,3.39,5.53,8.26,8.45,11.37,1.47,1.31,2.66,1.02,4.51-.33,3.04-2.78,7.77-5.59,9.16-9.69.39-1.94-1.26-3.67-2.97-5.96-1.37-1.69-2.44-3.91-4.31-5l-.17-.08ZM417.43,567.2c.14-2.27-3.15-5.86-4.47-8.14-1.36-2.09-3.16-4.68-5.15-3.67-1.74.67-3.26,1.89-4.84,2.94-1.47,1.06-3.24,2.33-3.74,3.91-.55,2.67,2.13,4.81,3.15,7.13,1.47,2.67,2.05,5.32,3.66,5.49,2.09.03,3.79-1.57,5.59-2.64,1.83-1.34,5.27-3.07,5.76-4.84l.03-.16ZM456.36,566.09c-2.79-.77-6.2,2.17-8.61,3.51-2.66,1.55-1.98,3.86-.74,6.14,1.33,2.55,2.96,6.13,4.28,7.59.68.8,1.63,1.24,2.6.56,1.16-.79,2.26-2.16,3.37-3.15,2.5-2.56,5.98-3.42,5.77-5.89-.26-1.43-1.27-2.55-2.14-3.78-1.28-1.62-2.69-4.07-4.35-4.9l-.18-.08ZM513.73,584.6c.92-2.41-3.2-5.88-5.01-7.92-1.7-1.71-3.28-3.69-5.75-4.03-3.21-.39-7.95,2.14-10.37,4.6-2.03,2.14-.74,5.09.14,7.53,1.42,3.55,3.18,8.72,4.52,10.97.77,1.46,2.1,2.08,3.41.77,2.42-2.31,4.76-5.47,7.7-7.32,2.37-1.6,4.71-2.96,5.3-4.45l.06-.15Z" style="fill:currentColor"/><path d="M903.01,427.13c3.58.81,6.68-3.23,9.79-4.74,8.17-4.93,19.19-4.44,26.44,1.34,9.24,7.22,12.2,21.38,4.02,32.45-2.47,3.47-5.93,7.16-5.16,11.62,1,5.15,5.67,11.34,11.57,9.57,3.61-.78,7.3-2.77,10.99-3.3,3.54-.56,6.91-.16,9.97.95,14.38,5.43,20.81,25.01,7.96,36.75-5.1,4.68-8.39,7.71-3.8,14.26,2.33,3.21,3.83,8.87,5.6,10.36.67.57,1.5.73,2.36.52,2.87-.88,5.3-3.03,8.2-4.38,4.89-2.56,11.22-2.96,16.19-1.35,15.97,5.14,18.57,29.11,2.39,36.88-1.61,1.17-9.15,2.78-8.37,4.82,1.44,2.25,5.84,4.35,7.8,6.67,10.16,10.55,7.03,28.1-5.28,35.24-2.19,1.6-6.71,2.55-7.25,5.23-.24,2.15,2.48,4.5,4.01,6.37,3.35,3.59,5.77,8.09,6.11,12.9,1.57,23.58-28.27,33.44-41.39,13.85-3.03-4.82-5.45-7.86-11.08-3.68-22.22,21.46-54.48-11.07-31.74-32.8,5.58-5.42,5.59-9.59.56-15.37-4.05-5.58-9.65-3.09-14.95-1.13-19.28,6.83-36.59-14.08-26.41-31.39,1.81-3.51,5.47-6.74,8.33-9.27,1.79-1.65,2.82-2.99,2.75-4.41-.18-2.48-2.66-4.53-4.11-6.54-3.32-3.77-4.08-9.65-7.87-10.09-2.27.21-4.05,1.9-6.06,3.15-3.01,2.11-6.63,3.8-10.28,4.16-12.45,1.43-23.83-10.44-22.4-22.74,2.55-18.03,26.09-25.26,36.99-10.13,2.11,2.44,4.23,8.77,8.04,5.72,2.65-2.2,6.98-6.33,7.91-10.31.56-3.08-.97-7.06-3.54-9.12-3.61-2.94-8.29-.37-12.32,1.11-24.15,10.41-44.56-23.41-22.47-39.12,2.37-1.85,6.31-3.99,6.74-6.73.37-1.73-.56-3.58-2.12-5.89-3.49-4.58-6.17-10.53-5.95-16.48-.03-22.42,31.09-31.33,42.51-11.72,1.39,2.17,3.04,5.99,5.15,6.71l.14.05ZM908.35,460.53c.67-2.93-2.38-6.67-3.56-9.68-4.05-12.43-6.18-4.25-14.27.97-2.43,1.67-5.51,2.58-7.96,4.02-2.36,1.51-1.94,3.27-.19,5.66,1.5,2,3.74,4.56,5.53,6.53,1.66,1.69,3.36,3.55,5.75,3.77,2.54.19,4.97-2.54,8.21-4.92,2.27-1.79,5.54-3.35,6.46-6.16l.05-.18ZM948.06,515.84c.95-1.84-1.65-5.18-2.84-7.19-1.6-2.16-2.89-5.57-5.82-5.72-1.95.15-4.22,3.22-6.99,5.23-1.83,1.51-4.49,2.59-5.02,5.08-.37,2.95,2.06,9.35,5,10.55,2.01.63,4.69-2.06,7.83-3.79,2.18-1.48,6.76-2.53,7.77-4.02l.08-.13ZM936.35,561.54c.94-3.02-3.26-10.38-6.46-11.13-2.31-.53-5.15,2.02-8.43,3.73-2.28,1.56-6.23,1.95-7.17,4.78-.53,2.52,5.37,12.48,8.24,12.58,2.92-.08,5.12-3.65,8.67-5.81,1.7-1.22,4.16-2.06,5.09-3.97l.07-.18ZM994.19,570.4c.09-1.15-3.1-2.51-6-4.9-2.75-2.22-4.93-5.28-6.5-8.45-1.1-1.94-1.83-4.17-3.64-5.31-3.03-1.11-6.23,5.15-9.64,7.45-5.56,4.29-7.64,6.51-3.35,13.03,2.07,3.14,3.88,8.29,6.02,9.19,2.64,1.03,4.98-1.15,7.14-2.58,2.74-2.07,5.98-3.91,9.24-5.06,3.46-1.25,6.58-2.13,6.71-3.28v-.1ZM982.56,615.4c-.24-2.41-5.85-5.69-7.56-8.5-1.99-2.27-3.71-5.84-7.1-5.38-3.69,1.03-7.88,5.53-11.99,7.85-6.72,4.12-1.92,9.31.61,14.39,3.75,8.38,3.27,13.09,10.42,4.82,2.59-2.97,5.62-5.54,9.08-7.51,3.35-1.92,6.55-3.73,6.55-5.53v-.15Z" style="fill:currentColor"/><path d="M349.56,619.8c.21,14.38-14.81,25.09-28.36,20.38-21.27-7.04-18.86-38.25,3.33-41.83,12.69-2.33,25.26,8.27,25.03,21.18v.26Z" style="fill:currentColor"/><path d="M335.96,428.33c.21,14.11-14.6,24.59-27.86,19.87-20.62-6.98-18.22-37.27,3.33-40.81,12.42-2.33,24.76,8.03,24.54,20.68v.26Z" style="fill:currentColor"/><path d="M435.63,399.48c.22,12.65-12.11,23.02-24.54,20.68-21.55-3.55-23.94-33.83-3.32-40.81,13.26-4.72,28.08,5.75,27.86,19.87v.26Z" style="fill:currentColor"/><path d="M486.25,643.41c.2,13.72-14.16,23.93-27.08,19.4-20.41-6.83-17.79-36.83,3.59-39.9,11.99-1.98,23.7,8.08,23.49,20.23v.26Z" style="fill:currentColor"/><path d="M273.38,512.27c.19,13.4-13.79,23.4-26.43,19.04-18.1-5.77-18.51-31.89-.5-38.18,12.68-4.77,27.16,5.28,26.93,18.88v.26Z" style="fill:currentColor"/><path d="M302.12,611.93c.22,13.52-14.16,23.51-26.78,18.77-17.91-6.25-17.5-32.24.5-37.96,12.57-4.33,26.48,5.61,26.28,18.94v.26Z" style="fill:currentColor"/><path d="M637.85,576.53c.19,13.32-13.71,23.26-26.28,18.94-18-5.73-18.4-31.71-.5-37.97,12.61-4.74,27,5.25,26.78,18.77v.26Z" style="fill:currentColor"/><path d="M281.13,466.36c.19,13.32-13.71,23.26-26.28,18.94-18-5.73-18.4-31.71-.5-37.97,12.61-4.74,27,5.25,26.78,18.77v.26Z" style="fill:currentColor"/><path d="M906.7,388.99c.19,13.32-13.71,23.26-26.28,18.94-18-5.73-18.4-31.71-.5-37.97,12.61-4.74,27,5.25,26.78,18.77v.26Z" style="fill:currentColor"/><path d="M388.67,391.61c.19,13.32-13.71,23.26-26.28,18.94-18-5.73-18.4-31.71-.5-37.97,12.61-4.74,27,5.25,26.78,18.77v.26Z" style="fill:currentColor"/><path d="M700.57,493.9c.22,13.4-14.09,23.28-26.57,18.51-17.56-6.24-17.15-31.74.5-37.45,12.43-4.35,26.26,5.47,26.07,18.68v.26Z" style="fill:currentColor"/><path d="M911.6,625.05c.22,13.24-13.84,23.06-26.22,18.47-17.6-6.04-17.36-31.54.25-37.29,12.37-4.37,26.17,5.4,25.97,18.56v.26Z" style="fill:currentColor"/><path d="M690.99,538.49c.22,13.18-13.89,22.85-26.13,18.09-17.18-6.21-16.62-31.24.74-36.7,12.16-4.14,25.58,5.47,25.39,18.35v.26Z" style="fill:currentColor"/><path d="M264.76,558.16c.22,13.18-13.89,22.85-26.13,18.09-17.18-6.21-16.62-31.24.74-36.7,12.16-4.14,25.58,5.47,25.39,18.35v.26Z" style="fill:currentColor"/><path d="M288.27,420.46c.19,12.93-13.41,22.52-25.56,18.15-17.33-5.79-17.24-30.84,0-36.57,12.11-4.37,25.77,5.23,25.56,18.15v.26Z" style="fill:currentColor"/><path d="M342.04,383.74c.19,12.93-13.41,22.52-25.56,18.15-17.33-5.79-17.24-30.84,0-36.57,12.11-4.37,25.77,5.23,25.56,18.15v.26Z" style="fill:currentColor"/><path d="M989.57,450.62c.18,12.65-13.06,22.06-24.97,17.89-17.02-5.5-17.26-30.16-.25-35.96,11.92-4.38,25.43,5.07,25.22,17.81v.26Z" style="fill:currentColor"/><path d="M994.71,686.69c.2,12.67-13.23,22.07-25.09,17.71-16.93-5.76-16.68-30.29.25-35.76,11.85-4.15,25.02,5.21,24.84,17.79v.26Z" style="fill:currentColor"/><path d="M584.23,614.56c.18,12.58-12.99,21.94-24.84,17.79-16.93-5.48-17.17-30-.25-35.76,11.85-4.36,25.29,5.04,25.09,17.71v.26Z" style="fill:currentColor"/><path d="M948.56,678.82c.18,12.45-12.9,21.69-24.6,17.52-16.57-5.45-16.81-29.48-.25-35.21,11.71-4.38,25.06,4.89,24.85,17.43v.26Z" style="fill:currentColor"/><path d="M950.93,396.85c.2,12.42-13.05,21.57-24.62,17.16-16.32-5.76-15.92-29.51.5-34.75,11.52-3.99,24.3,5.11,24.12,17.33v.26Z" style="fill:currentColor"/><path d="M851.14,425.71c.2,12.34-12.97,21.43-24.46,17.05-16.22-5.73-15.82-29.32.5-34.53,11.44-3.97,24.15,5.08,23.97,17.22v.26Z" style="fill:currentColor"/><path d="M873.44,571.28c.2,12.34-12.97,21.43-24.46,17.05-16.22-5.73-15.82-29.32.5-34.53,11.44-3.97,24.15,5.08,23.97,17.22v.26Z" style="fill:currentColor"/><path d="M383.8,673.57c.23,11.71-12.21,20.64-23.26,16.81-16.03-5.02-16.42-28.18-.5-33.71,11.19-4.2,23.95,4.66,23.76,16.64v.26Z" style="fill:currentColor"/><path d="M529.37,651.28c.23,11.71-12.21,20.64-23.26,16.81-16.03-5.02-16.42-28.18-.5-33.71,11.19-4.2,23.95,4.66,23.76,16.64v.26Z" style="fill:currentColor"/><path d="M576.39,377.18c.23,11.6-12.12,20.43-23.05,16.6-15.9-5.04-16.13-28.07-.25-33.39,11.03-3.99,23.48,4.75,23.29,16.52v.26Z" style="fill:currentColor"/><path d="M1047.08,648.65c.23,11.54-12.08,20.32-22.94,16.48-15.59-4.89-15.97-27.65-.5-33.05,11-4.21,23.63,4.49,23.44,16.31v.26Z" style="fill:currentColor"/><path d="M531.68,369.31c.23,11.54-12.08,20.32-22.94,16.48-15.59-4.89-15.97-27.65-.5-33.05,11-4.21,23.63,4.49,23.44,16.31v.26Z" style="fill:currentColor"/><path d="M294.3,374.56c.23,11.54-12.08,20.32-22.94,16.48-15.59-4.89-15.97-27.65-.5-33.05,11-4.21,23.63,4.49,23.44,16.31v.26Z" style="fill:currentColor"/><path d="M622.17,386.36c.07,14.34-17,22.51-28.21,13.7-10.95-8.19-7.84-26.51,5.27-30.44,10.86-3.83,23.18,4.93,22.94,16.48v.26Z" style="fill:currentColor"/><path d="M1024.66,504.4c.23,11.47-12.03,20.18-22.82,16.34-15.4-4.88-15.79-27.38-.5-32.76,10.93-4.22,23.51,4.41,23.32,16.17v.26Z" style="fill:currentColor"/><path d="M485.64,361.45c.23,11.47-12.03,20.18-22.82,16.34-15.4-4.88-15.79-27.38-.5-32.76,10.93-4.22,23.51,4.41,23.32,16.17v.26Z" style="fill:currentColor"/><path d="M393.71,345.71c.23,11.39-11.94,20.03-22.64,16.21-15.28-4.84-15.67-27.17-.49-32.51,10.84-4.19,23.32,4.38,23.14,16.04v.26Z" style="fill:currentColor"/><path d="M429.12,681.44c.18,11.66-12.29,20.23-23.14,16.04-15.18-5.34-14.79-27.68.49-32.51,10.7-3.81,22.88,4.82,22.64,16.21v.26Z" style="fill:currentColor"/><path d="M842.23,471.61c.23,11.39-11.94,20.03-22.64,16.21-15.28-4.84-15.67-27.17-.49-32.51,10.84-4.19,23.32,4.38,23.14,16.04v.26Z" style="fill:currentColor"/><path d="M439.61,353.58c.18,11.66-12.29,20.23-23.14,16.04-15.18-5.34-14.79-27.68.49-32.51,10.7-3.81,22.88,4.82,22.64,16.21v.26Z" style="fill:currentColor"/><path d="M337.31,665.7c.18,11.66-12.29,20.23-23.14,16.04-15.18-5.34-14.79-27.68.49-32.51,10.7-3.81,22.88,4.82,22.64,16.21v.26Z" style="fill:currentColor"/><path d="M705.71,448c.15,13.93-16.68,22.01-27.55,13.42-10.71-7.96-7.74-25.85,5.02-29.75,10.63-3.83,22.76,4.75,22.53,16.08v.26Z" style="fill:currentColor"/><path d="M1054.56,602.76c.15,13.93-16.68,22.01-27.55,13.42-10.71-7.96-7.74-25.85,5.02-29.75,10.63-3.83,22.76,4.75,22.53,16.08v.26Z" style="fill:currentColor"/><path d="M254.57,604.07c.15,13.93-16.68,22.01-27.55,13.42-10.71-7.96-7.74-25.85,5.02-29.75,10.63-3.83,22.76,4.75,22.53,16.08v.26Z" style="fill:currentColor"/><path d="M857.84,381.12c.23,11.32-11.89,19.91-22.53,16.07-15.23-4.88-15.45-27.18-.25-32.33,10.73-4,22.96,4.5,22.78,15.99v.26Z" style="fill:currentColor"/><path d="M232.13,458.49c.15,13.86-16.64,21.86-27.4,13.24-10.6-7.99-7.49-25.77,5.26-29.5,10.51-3.64,22.37,4.86,22.14,16v.26Z" style="fill:currentColor"/><path d="M223.87,504.39c.14,13.53-16.22,21.35-26.75,12.96-10.35-7.76-7.4-25.12,5.01-28.83,10.28-3.63,21.96,4.68,21.73,15.61v.26Z" style="fill:currentColor"/><path d="M347.03,337.84c.24,11.07-11.86,19.36-22.12,15.31-14.47-5.11-14.09-26.44.5-31.04,10.22-3.64,21.85,4.6,21.62,15.48v.26Z" style="fill:currentColor"/><path d="M239.38,412.59c.23,10.81-11.4,19.02-21.53,15.35-14.66-4.7-14.72-26.23,0-30.97,10.16-3.66,21.75,4.54,21.53,15.35v.26Z" style="fill:currentColor"/><path d="M666.63,394.23c.22,10.66-11.26,18.72-21.25,15.04-14.2-4.66-14.31-25.42-.25-30.26,10-3.88,21.73,4.19,21.49,14.96v.26Z" style="fill:currentColor"/><path d="M679.63,584.39c.22,10.58-11.17,18.58-21.09,14.93-14.1-4.62-14.2-25.23-.25-30.04,9.92-3.85,21.57,4.16,21.34,14.85v.26Z" style="fill:currentColor"/><path d="M300.22,329.97c.22,10.38-11.05,18.2-20.72,14.51-13.85-4.7-13.57-25.18.5-29.44,9.61-3.28,20.42,4.5,20.22,14.67v.26Z" style="fill:currentColor"/><path d="M473.33,689.31c.22,10.38-11.05,18.2-20.72,14.51-13.85-4.7-13.57-25.18.5-29.44,9.61-3.28,20.42,4.5,20.22,14.67v.26Z" style="fill:currentColor"/><path d="M289.6,657.83c.22,10.29-10.96,18.05-20.55,14.39-13.74-4.66-13.46-24.97.5-29.2,9.53-3.26,20.26,4.46,20.06,14.55v.26Z" style="fill:currentColor"/><path d="M247.63,366.69c.22,10.29-10.96,18.05-20.55,14.39-13.74-4.66-13.46-24.97.5-29.2,9.53-3.26,20.26,4.46,20.06,14.55v.26Z" style="fill:currentColor"/><path d="M214.84,550.29c.22,10.29-10.96,18.05-20.55,14.39-13.74-4.66-13.46-24.97.5-29.2,9.53-3.26,20.26,4.46,20.06,14.55v.26Z" style="fill:currentColor"/><path d="M1037,694.56c.19,11.29-12.8,18.83-22.57,13.3-10.64-5.46-10.41-21.78.23-26.98,9.77-5.31,22.53,2.25,22.34,13.42v.26Z" style="fill:currentColor"/><path d="M898.87,670.95c.18,10.97-12.43,18.3-21.93,12.93-10.46-5.36-10.11-21.45.46-26.36,9.49-4.92,21.64,2.43,21.46,13.17v.26Z" style="fill:currentColor"/><path d="M861.98,617.18c.17,10.65-11.9,17.91-21.28,12.98-10.36-4.88-10.71-20.66-.46-25.98,9.39-5.37,21.92,1.87,21.74,12.74v.26Z" style="fill:currentColor"/><path d="M831.81,517.51c.18,10.87-12.35,18.11-21.74,12.74-10.25-5.32-9.9-21.1.46-25.98,9.38-4.93,21.45,2.34,21.28,12.98v.26Z" style="fill:currentColor"/><path d="M624.45,622.43c.17,10.68-12.07,17.86-21.36,12.69-10.25-5.16-10.04-20.86.23-25.76,9.28-4.94,21.3,2.24,21.13,12.81v.26Z" style="fill:currentColor"/><path d="M731.31,546.36c.16,10.09-11.33,16.93-20.17,12.18-9.81-4.64-9.88-19.91,0-24.62,8.84-4.75,20.33,2.09,20.17,12.18v.26Z" style="fill:currentColor"/><path d="M1059.17,558.16c.16,10.08-11.33,16.93-20.17,12.18-9.81-4.64-9.88-19.91,0-24.62,8.84-4.74,20.33,2.09,20.17,12.18v.26Z" style="fill:currentColor"/><path d="M253.62,322.1c.15,9.92-11.21,16.6-19.85,11.83-9.47-4.65-9.4-19.32,0-23.91,8.64-4.77,20.01,1.9,19.85,11.83v.26Z" style="fill:currentColor"/><path d="M908.04,343.09c.15,9.92-11.21,16.6-19.85,11.83-9.47-4.65-9.4-19.32,0-23.91,8.64-4.77,20.01,1.9,19.85,11.83v.26Z" style="fill:currentColor"/><path d="M779.52,273.58c.15,9.92-11.21,16.6-19.85,11.83-9.4-4.59-9.47-19.26,0-23.91,8.64-4.77,20.01,1.91,19.85,11.83v.26Z" style="fill:currentColor"/><path d="M863.45,335.22c.15,9.92-11.21,16.6-19.85,11.83-9.47-4.65-9.4-19.32,0-23.91,8.64-4.77,20.01,1.91,19.85,11.83v.26Z" style="fill:currentColor"/><path d="M738.86,501.77c.15,9.92-11.21,16.6-19.85,11.83-9.47-4.65-9.4-19.32,0-23.91,8.64-4.77,20.01,1.91,19.85,11.83v.26Z" style="fill:currentColor"/><path d="M351.64,291.94c.15,9.73-11.06,16.23-19.49,11.45-9.18-4.63-8.97-19.09.47-23.39,8.32-4.37,19.24,2.24,19.02,11.69v.26Z" style="fill:currentColor"/><path d="M397.54,299.81c.22,9.44-10.7,16.06-19.03,11.69-9.44-4.31-9.65-18.77-.46-23.39,8.42-4.78,19.64,1.71,19.49,11.45v.26Z" style="fill:currentColor"/><path d="M569.15,660.45c-.55,16.56-24.58,17.2-25.92.66-.54-17.65,25.2-18.44,25.92-.92v.26Z" style="fill:currentColor"/><path d="M991.29,404.72c-.26,15.04-21.87,17.4-25.31,2.75-3.33-18.61,24.24-21.74,25.31-3.01v.26Z" style="fill:currentColor"/><path d="M306.7,284.07c-1.08,18.73-28.64,15.59-25.31-3.01,3.44-14.66,25.05-12.29,25.31,2.75v.26Z" style="fill:currentColor"/><path d="M443.09,307.67c-.26,15.04-21.87,17.4-25.31,2.75-3.33-18.61,24.24-21.74,25.31-3.01v.26Z" style="fill:currentColor"/><path d="M822.11,563.41c-.26,15.04-21.87,17.4-25.31,2.75-3.33-18.61,24.24-21.74,25.31-3.01v.26Z" style="fill:currentColor"/><path d="M709,402.1c-1.2,18.67-28.61,14.88-24.52-3.52,3.9-13.77,24.31-11.05,24.52,3.26v.26Z" style="fill:currentColor"/><path d="M816.54,327.34c-.21,14.31-20.62,17.03-24.52,3.26-4.08-18.41,23.33-22.19,24.52-3.52v.26Z" style="fill:currentColor"/><path d="M204.08,594.88c-.21,14.31-20.62,17.03-24.52,3.26-4.08-18.41,23.33-22.19,24.52-3.52v.26Z" style="fill:currentColor"/><path d="M241.95,648.66c-.21,14.1-20.3,16.81-24.2,3.26-4.1-18.19,23.01-21.98,24.2-3.52v.26Z" style="fill:currentColor"/><path d="M514.74,697.18c-.21,14.1-20.3,16.81-24.2,3.26-4.1-18.19,23.01-21.98,24.2-3.52v.26Z" style="fill:currentColor"/><path d="M980.31,732.59c-1.19,18.46-28.29,14.67-24.2-3.52,3.9-13.55,23.99-10.83,24.2,3.26v.26Z" style="fill:currentColor"/><path d="M488.51,315.55c-.21,14.09-20.3,16.81-24.2,3.26-4.1-18.19,23.01-21.98,24.2-3.52v.26Z" style="fill:currentColor"/><path d="M808.51,371.94c-.21,14.09-20.3,16.81-24.2,3.26-4.1-18.19,23.01-21.98,24.2-3.52v.26Z" style="fill:currentColor"/><path d="M190.66,404.72c-1.24,18.45-28.32,14.3-23.81-3.77,4.12-13.12,23.63-10.23,23.81,3.51v.26Z" style="fill:currentColor"/><path d="M181.48,450.62c-1.24,18.45-28.32,14.3-23.81-3.77,4.12-13.12,23.63-10.23,23.81,3.51v.26Z" style="fill:currentColor"/><path d="M1028.34,458.49c-.2,13.44-19.32,16.14-23.18,3.25-4.14-17.5,22.01-21.32,23.18-3.51v.26Z" style="fill:currentColor"/><path d="M533.91,324.72c-1.14,17.8-27.35,13.96-23.18-3.51,3.86-12.89,22.98-10.19,23.18,3.25v.26Z" style="fill:currentColor"/><path d="M173.08,496.53c-.2,13.21-18.98,15.9-22.82,3.25-4.18-17.24,21.69-21.07,22.82-3.51v.26Z" style="fill:currentColor"/><path d="M259.64,276.2c-.2,13.21-18.98,15.9-22.82,3.25-4.18-17.24,21.69-21.07,22.82-3.51v.26Z" style="fill:currentColor"/><path d="M785.35,227.67c-1.13,17.32-26.63,13.47-22.44-3.5,3.82-12.41,22.25-9.73,22.44,3.24v.26Z" style="fill:currentColor"/><path d="M823.38,281.44c-1.13,17.32-26.63,13.47-22.44-3.5,3.82-12.41,22.25-9.73,22.44,3.24v.26Z" style="fill:currentColor"/><path d="M721.09,592.26c-1.13,17.32-26.63,13.47-22.44-3.5,3.82-12.41,22.25-9.73,22.44,3.24v.26Z" style="fill:currentColor"/><path d="M369.62,719.47c-1.13,17.32-26.63,13.47-22.44-3.5,3.82-12.41,22.25-9.73,22.44,3.24v.26Z" style="fill:currentColor"/><path d="M933.55,724.72c-1.13,17.32-26.63,13.47-22.44-3.5,3.82-12.41,22.25-9.73,22.44,3.24v.26Z" style="fill:currentColor"/><path d="M197.82,358.82c-1.13,17.32-26.63,13.47-22.44-3.5,3.82-12.41,22.25-9.73,22.44,3.24v.26Z" style="fill:currentColor"/><path d="M769.44,318.16c-1.08,16.9-25.97,13.39-22.16-3.25,3.58-12.4,21.96-9.9,22.16,2.99v.26Z" style="fill:currentColor"/><path d="M578.88,332.59c-1.02,16.2-24.86,13.01-21.44-2.98,3.3-12.12,21.23-9.82,21.44,2.72v.26Z" style="fill:currentColor"/><path d="M323.15,710.29c-.22,12.54-18.14,14.83-21.44,2.72-3.42-15.99,20.43-19.17,21.44-2.97v.26Z" style="fill:currentColor"/><path d="M731.01,264.39c-1.02,16.2-24.86,13.01-21.44-2.98,3.3-12.12,21.23-9.82,21.44,2.72v.26Z" style="fill:currentColor"/><path d="M414.95,727.34c-.22,12.54-18.14,14.83-21.44,2.72-3.42-15.99,20.43-19.17,21.44-2.97v.26Z" style="fill:currentColor"/><path d="M738.66,219.81c-.23,12.38-17.96,14.5-21.03,2.49-3.14-15.56,20.12-18.46,21.03-2.75v.26Z" style="fill:currentColor"/><path d="M774.07,555.54c-.23,12.38-17.96,14.5-21.03,2.49-3.14-15.56,20.12-18.46,21.03-2.75v.26Z" style="fill:currentColor"/><path d="M848.82,663.08c-.23,12.38-17.96,14.5-21.03,2.49-3.14-15.56,20.12-18.46,21.03-2.75v.26Z" style="fill:currentColor"/><path d="M951.11,350.95c-.23,12.38-17.96,14.5-21.03,2.49-3.14-15.56,20.12-18.46,21.03-2.75v.26Z" style="fill:currentColor"/><path d="M1024.56,740.46c-.92,15.72-24.18,12.8-21.03-2.75,3.07-12.01,20.8-9.89,21.03,2.49v.26Z" style="fill:currentColor"/><path d="M745.21,455.87c-.92,15.72-24.18,12.8-21.03-2.75,3.07-12.01,20.8-9.89,21.03,2.49v.26Z" style="fill:currentColor"/><path d="M797.33,417.83c-1.01,15.45-23.75,12.21-20.25-2.99,3.28-11.32,20.05-9.03,20.25,2.74v.26Z" style="fill:currentColor"/><path d="M811.75,609.31c-1.01,15.45-23.75,12.21-20.25-2.99,3.28-11.32,20.05-9.03,20.25,2.74v.26Z" style="fill:currentColor"/><path d="M781.59,509.64c-1.01,15.45-23.75,12.21-20.25-2.99,3.28-11.32,20.05-9.03,20.25,2.74v.26Z" style="fill:currentColor"/><path d="M163.69,541.11c-1.05,15.38-23.69,11.8-19.8-3.24,3.49-10.84,19.62-8.39,19.8,2.98v.26Z" style="fill:currentColor"/><path d="M204.35,312.91c-1.05,15.38-23.69,11.8-19.8-3.24,3.49-10.84,19.62-8.39,19.8,2.98v.26Z" style="fill:currentColor"/><path d="M622.71,340.45c-1.05,15.38-23.69,11.8-19.8-3.24,3.49-10.84,19.62-8.39,19.8,2.98v.26Z" style="fill:currentColor"/><path d="M665.79,630.29c-.85,14.56-22.38,11.96-19.6-2.47,2.77-11.26,19.37-9.35,19.6,2.21v.26Z" style="fill:currentColor"/><path d="M1085.27,656.52c-1.28,15.61-24.13,10.62-18.64-4.19,4.16-9.38,18.61-6.33,18.64,3.93v.26Z" style="fill:currentColor"/><path d="M458.39,735.21c-.04,10.26-14.48,13.32-18.64,3.93-5.48-14.82,17.35-19.79,18.64-4.19v.26Z" style="fill:currentColor"/><path d="M1077.14,702.43c-.05,10.04-14.22,12.95-18.19,3.71-5.16-14.37,16.98-19.06,18.19-3.97v.26Z" style="fill:currentColor"/><path d="M759.77,364.07c-.05,10.04-14.22,12.95-18.19,3.71-5.16-14.37,16.98-19.06,18.19-3.97v.26Z" style="fill:currentColor"/><path d="M311.25,238.17c-.05,10.04-14.22,12.95-18.19,3.71-5.16-14.37,16.98-19.06,18.19-3.97v.26Z" style="fill:currentColor"/><path d="M356.89,246.03c-1.2,14.74-22.81,10.07-17.67-3.93,3.91-8.93,17.63-6.06,17.67,3.67v.26Z" style="fill:currentColor"/><path d="M867.05,289.31c-.05,9.74-13.77,12.6-17.67,3.67-5.14-14,16.48-18.67,17.67-3.93v.26Z" style="fill:currentColor"/><path d="M264.85,230.29c-.88,13.51-20.86,10.52-17.61-2.73,2.87-9.74,17.51-7.65,17.61,2.47v.26Z" style="fill:currentColor"/><path d="M1062.22,512.26c-.11,10.13-14.75,12.21-17.61,2.47-3.25-13.26,16.74-16.23,17.61-2.73v.26Z" style="fill:currentColor"/><path d="M667.47,348.33c-.11,10.13-14.75,12.22-17.61,2.47-3.25-13.25,16.74-16.24,17.61-2.73v.26Z" style="fill:currentColor"/><path d="M275.34,702.42c-.11,10.13-14.75,12.22-17.61,2.47-3.25-13.25,16.74-16.24,17.61-2.73v.26Z" style="fill:currentColor"/><path d="M788.12,463.74c-.88,13.51-20.86,10.52-17.61-2.73,2.87-9.74,17.51-7.65,17.61,2.47v.26Z" style="fill:currentColor"/><path d="M751.17,409.97c-1.19,14.13-21.89,9.39-16.68-3.92,3.85-8.28,16.64-5.45,16.68,3.67v.26Z" style="fill:currentColor"/><path d="M764.29,600.13c-.04,9.12-12.83,11.95-16.68,3.67-5.21-13.31,15.49-18.05,16.68-3.92v.26Z" style="fill:currentColor"/><path d="M713.14,356.2c-1.19,14.13-21.89,9.38-16.68-3.92,3.85-8.28,16.64-5.45,16.68,3.67v.26Z" style="fill:currentColor"/><path d="M400.61,253.89c-1.1,13.38-20.76,9-15.95-3.64,3.59-7.99,15.9-5.36,15.95,3.39v.25Z" style="fill:currentColor"/><path d="M1091.5,611.93c-1.05,12.9-20.01,8.82-15.53-3.43,3.4-7.87,15.47-5.37,15.53,3.18v.26Z" style="fill:currentColor"/><path d="M720.35,310.29c-.06,8.55-12.13,11.04-15.53,3.18-4.47-12.26,14.49-16.33,15.53-3.43v.26Z" style="fill:currentColor"/><path d="M884.29,716.85c-.06,8.55-12.13,11.04-15.53,3.18-4.47-12.26,14.49-16.33,15.53-3.43v.26Z" style="fill:currentColor"/><path d="M210.19,268.33c-.06,8.55-12.13,11.04-15.53,3.18-4.47-12.26,14.49-16.33,15.53-3.43v.26Z" style="fill:currentColor"/><path d="M827.61,235.54c-1.05,12.54-19.47,8.4-14.93-3.44,3.38-7.46,14.87-4.98,14.93,3.19v.26Z" style="fill:currentColor"/><path d="M445.97,261.77c-1.05,12.54-19.47,8.4-14.93-3.44,3.38-7.46,14.87-4.98,14.93,3.19v.26Z" style="fill:currentColor"/><path d="M191.55,640.79c-.06,8.17-11.55,10.65-14.93,3.19-4.54-11.85,13.88-15.98,14.93-3.44v.26Z" style="fill:currentColor"/><path d="M556.13,705.05c-1.05,12.54-19.47,8.4-14.93-3.44,3.38-7.46,14.87-4.98,14.93,3.19v.26Z" style="fill:currentColor"/><path d="M1065.73,748.31c-.84,11.22-17.42,8.16-14.07-2.69,2.71-7.44,13.98-5.45,14.07,2.43v.25Z" style="fill:currentColor"/><path d="M609.34,668.31c-.84,11.22-17.42,8.16-14.07-2.69,2.71-7.43,13.98-5.46,14.07,2.43v.25Z" style="fill:currentColor"/><path d="M800.51,653.9c-.89,11.01-17.15,7.54-13.34-2.93,2.89-6.78,13.26-4.67,13.34,2.68v.25Z" style="fill:currentColor"/><path d="M910.68,297.18c-.08,7.34-10.45,9.45-13.34,2.68-3.81-10.48,12.46-13.94,13.34-2.93v.25Z" style="fill:currentColor"/><path d="M690.35,210.62c-.08,7.34-10.45,9.45-13.34,2.68-3.81-10.48,12.46-13.94,13.34-2.93v.25Z" style="fill:currentColor"/><path d="M501.5,743.08c-.89,11.01-17.15,7.54-13.34-2.93,2.89-6.78,13.26-4.67,13.34,2.68v.25Z" style="fill:currentColor"/><path d="M152.65,587.01c-.89,11.02-17.15,7.54-13.34-2.93,2.89-6.78,13.27-4.66,13.34,2.68v.25Z" style="fill:currentColor"/><path d="M490.75,270.94c-.96,10.84-16.86,7.03-12.7-3.12,3.01-6.22,12.64-4.02,12.7,2.87v.25Z" style="fill:currentColor"/><path d="M680.92,256.52c-.06,6.89-9.7,9.09-12.7,2.87-4.15-10.15,11.74-13.95,12.7-3.12v.25Z" style="fill:currentColor"/><path d="M708.46,638.15c-.96,10.84-16.86,7.03-12.7-3.12,3.01-6.22,12.64-4.02,12.7,2.87v.25Z" style="fill:currentColor"/><path d="M131.14,442.75c-.88,10.33-16.11,6.81-12.26-2.91,2.82-6.08,12.19-4.02,12.26,2.65v.25Z" style="fill:currentColor"/><path d="M139.01,396.85c-.88,10.33-16.11,6.81-12.26-2.91,2.82-6.08,12.19-4.02,12.26,2.65v.25Z" style="fill:currentColor"/><path d="M121.31,487.34c0,5.53-7.68,7.79-10.64,3.08-4.76-8.82,9.57-13.22,10.64-3.33v.25Z" style="fill:currentColor"/><path d="M146.23,350.94c0,5.53-7.68,7.79-10.64,3.08-4.76-8.82,9.57-13.22,10.64-3.33v.25Z" style="fill:currentColor"/><path d="M226.23,694.55c-1.07,9.89-15.39,5.49-10.64-3.33,2.96-4.7,10.64-2.46,10.64,3.08v.25Z" style="fill:currentColor"/><path d="M215.74,222.42c0,5.53-7.68,7.79-10.64,3.08-4.76-8.82,9.57-13.22,10.64-3.33v.25Z" style="fill:currentColor"/><path d="M535.27,278.82c-.71,8.32-12.98,5.79-10.23-2.18,2.06-5.26,10.2-3.68,10.23,1.92v.25Z" style="fill:currentColor"/><path d="M991.66,358.82c-.71,8.31-12.98,5.8-10.23-2.18,2.06-5.25,10.19-3.68,10.23,1.92v.25Z" style="fill:currentColor"/><path d="M1029.69,412.59c-.04,5.61-8.18,7.18-10.23,1.92-2.74-7.98,9.53-10.49,10.23-2.18v.25Z" style="fill:currentColor"/><path d="M742.48,173.9c-.04,5.61-8.18,7.18-10.23,1.92-2.74-7.98,9.53-10.49,10.23-2.18v.25Z" style="fill:currentColor"/><path d="M752.97,646.03c-.04,5.61-8.18,7.18-10.23,1.92-2.74-7.98,9.53-10.49,10.23-2.18v.25Z" style="fill:currentColor"/><path d="M835.59,707.67c-.04,5.6-8.18,7.18-10.23,1.92-2.74-7.97,9.52-10.49,10.23-2.18v.25Z" style="fill:currentColor"/><path d="M1096.57,566.03c-.71,8.31-12.98,5.8-10.23-2.18,2.06-5.25,10.19-3.68,10.23,1.92v.25Z" style="fill:currentColor"/><path d="M269.04,184.39c-.04,5.6-8.18,7.18-10.23,1.92-2.74-7.97,9.52-10.49,10.23-2.18v.25Z" style="fill:currentColor"/><path d="M314.94,192.26c-.71,8.31-12.98,5.8-10.23-2.18,2.06-5.25,10.19-3.68,10.23,1.92v.25Z" style="fill:currentColor"/><path d="M965.43,778.49c-.04,5.61-8.18,7.18-10.23,1.92-2.74-7.98,9.53-10.49,10.23-2.18v.25Z" style="fill:currentColor"/><path d="M1010.02,786.36c-.04,5.6-8.18,7.18-10.23,1.92-2.74-7.97,9.52-10.49,10.23-2.18v.25Z" style="fill:currentColor"/><path d="M360.5,200.13c-.04,5.15-7.49,6.7-9.51,1.91-2.77-7.47,8.81-10.01,9.51-2.16v.25Z" style="fill:currentColor"/><path d="M580.05,286.68c.02,3.79-5.27,5.57-7.52,2.48-4.04-6.32,6.61-10.13,7.52-2.73v.24Z" style="fill:currentColor"/><path d="M869.89,243.4c.02,3.79-5.27,5.57-7.52,2.48-4.04-6.32,6.61-10.13,7.52-2.73v.24Z" style="fill:currentColor"/><path d="M111.86,533.24c.02,3.79-5.27,5.57-7.52,2.48-4.04-6.32,6.61-10.13,7.52-2.73v.24Z" style="fill:currentColor"/><path d="M641.69,202.75c.02,3.79-5.27,5.57-7.52,2.48-4.04-6.32,6.61-10.13,7.52-2.73v.24Z" style="fill:currentColor"/><path d="M1065.3,466.35c.02,3.79-5.27,5.57-7.52,2.48-4.04-6.32,6.61-10.13,7.52-2.73v.24Z" style="fill:currentColor"/><path d="M785.95,181.77c-.92,7.41-11.56,3.59-7.52-2.73,2.25-3.09,7.54-1.3,7.52,2.48v.24Z" style="fill:currentColor"/><path d="M695.46,166.03c.02,3.79-5.27,5.57-7.52,2.48-4.04-6.32,6.61-10.13,7.52-2.73v.24Z" style="fill:currentColor"/><path d="M152.51,305.04c.02,3.79-5.27,5.57-7.52,2.48-4.04-6.32,6.61-10.13,7.52-2.73v.24Z" style="fill:currentColor"/><path d="M670.54,302.42c-.92,7.41-11.56,3.59-7.52-2.73,2.25-3.09,7.54-1.3,7.52,2.48v.24Z" style="fill:currentColor"/><path d="M308.58,756.19c.02,3.79-5.27,5.57-7.52,2.48-4.04-6.32,6.61-10.13,7.52-2.73v.24Z" style="fill:currentColor"/><path d="M354.48,764.06c.02,3.79-5.27,5.57-7.52,2.48-4.04-6.32,6.61-10.13,7.52-2.73v.24Z" style="fill:currentColor"/><path d="M918.41,769.3c.02,3.79-5.27,5.57-7.52,2.48-4.04-6.32,6.61-10.13,7.52-2.73v.24Z" style="fill:currentColor"/><path d="M400.38,773.24c.02,3.79-5.27,5.57-7.52,2.48-4.04-6.32,6.61-10.13,7.52-2.73v.24Z" style="fill:currentColor"/><path d="M444.97,781.11c.02,3.79-5.27,5.57-7.52,2.48-4.04-6.32,6.61-10.13,7.52-2.73v.24Z" style="fill:currentColor"/><path d="M1054.8,794.22c.02,3.79-5.27,5.57-7.52,2.48-4.04-6.32,6.61-10.13,7.52-2.73v.24Z" style="fill:currentColor"/></svg>