<?xml version="1.0" encoding="UTF-8"?><svg id="a" xmlns="http://www.w3.org/2000/svg" viewBox="0 0 1200 1200"><g id="b"><circle cx="604.56" cy="701.12" r="21.91" style="fill:currentColor;"/><circle cx="541.84" cy="398.3" r="21.84" style="fill:currentColor;"/><circle cx="640.24" cy="568.1" r="21.84" style="fill:currentColor;"/><circle cx="591.58" cy="482.65" r="21.28" style="fill:currentColor;"/><circle cx="577.52" cy="264.19" r="21.28" style="fill:currentColor;"/><circle cx="615.37" cy="525.91" r="20.94" style="fill:currentColor;"/><circle cx="621.86" cy="635.15" r="20.94" style="fill:currentColor;"/><circle cx="544" cy="793.05" r="20.94" style="fill:currentColor;"/><circle cx="919.24" cy="463.19" r="20.94" style="fill:currentColor;"/><circle cx="620.78" cy="240.39" r="20.94" style="fill:currentColor;"/><circle cx="684.58" cy="937.97" r="20.79" style="fill:currentColor;"/><circle cx="550.49" cy="902.28" r="20.45" style="fill:currentColor;"/><circle cx="518.05" cy="356.12" r="20.45" style="fill:currentColor;"/><circle cx="932.21" cy="681.65" r="20.38" style="fill:currentColor;"/><circle cx="525.62" cy="860.1" r="20.17" style="fill:currentColor;"/><circle cx="561.3" cy="725.99" r="20.17" style="fill:currentColor;"/><circle cx="535.35" cy="289.06" r="19.89" style="fill:currentColor;"/><circle cx="820.83" cy="294.47" r="19.56" style="fill:currentColor;"/><circle cx="853.27" cy="840.63" r="19.56" style="fill:currentColor;"/><circle cx="913.83" cy="748.71" r="19.49" style="fill:currentColor;"/><circle cx="949.52" cy="615.68" r="19.49" style="fill:currentColor;"/><circle cx="943.03" cy="505.37" r="19.33" style="fill:currentColor;"/><circle cx="730" cy="233.9" r="18.99" style="fill:currentColor;"/><circle cx="575.36" cy="944.46" r="18.99" style="fill:currentColor;"/><circle cx="641.33" cy="962.85" r="18.68" style="fill:currentColor;"/><circle cx="579.69" cy="658.94" r="18.68" style="fill:currentColor;"/><circle cx="598.07" cy="591.89" r="18.6" style="fill:currentColor;"/><circle cx="662.95" cy="215.52" r="18.34" style="fill:currentColor;"/><circle cx="501.83" cy="817.92" r="18.34" style="fill:currentColor;"/><circle cx="519.13" cy="750.87" r="18.02" style="fill:currentColor;"/><circle cx="493.18" cy="313.94" r="17.39" style="fill:currentColor;"/><circle cx="499.67" cy="423.17" r="17.39" style="fill:currentColor;"/><circle cx="524.54" cy="465.35" r="17.13" style="fill:currentColor;"/><circle cx="896.53" cy="815.76" r="16.62" style="fill:currentColor;"/><circle cx="573.2" cy="549.71" r="16.52" style="fill:currentColor;"/><circle cx="797.04" cy="251.21" r="16.52" style="fill:currentColor;"/><circle cx="537.51" cy="683.82" r="16.52" style="fill:currentColor;"/><circle cx="483.45" cy="883.9" r="16.43" style="fill:currentColor;"/><circle cx="508.32" cy="927.16" r="16.43" style="fill:currentColor;"/><circle cx="475.88" cy="379.91" r="16.43" style="fill:currentColor;"/><circle cx="548.33" cy="507.53" r="16.33" style="fill:currentColor;"/><circle cx="967.9" cy="548.63" r="16.33" style="fill:currentColor;"/><circle cx="750.54" cy="956.36" r="15.56" style="fill:currentColor;"/><circle cx="476.96" cy="774.66" r="15.56" style="fill:currentColor;"/><circle cx="793.8" cy="931.48" r="15.56" style="fill:currentColor;"/><circle cx="599.15" cy="986.64" r="15.56" style="fill:currentColor;"/><circle cx="459.65" cy="841.72" r="15.24" style="fill:currentColor;"/><circle cx="553.73" cy="222.01" r="15.24" style="fill:currentColor;"/><circle cx="956" cy="724.91" r="15.04" style="fill:currentColor;"/><circle cx="554.82" cy="616.76" r="15.04" style="fill:currentColor;"/><circle cx="532.11" cy="969.34" r="15.04" style="fill:currentColor;"/><circle cx="708.37" cy="980.15" r="15.04" style="fill:currentColor;"/><circle cx="974.39" cy="657.86" r="14.66" style="fill:currentColor;"/><circle cx="835.97" cy="906.61" r="14.66" style="fill:currentColor;"/><circle cx="495.34" cy="708.69" r="14.5" style="fill:currentColor;"/><circle cx="511.56" cy="246.88" r="14.5" style="fill:currentColor;"/><circle cx="595.91" cy="198.22" r="14.29" style="fill:currentColor;"/><circle cx="912.75" cy="353.95" r="14.18" style="fill:currentColor;"/><circle cx="936.54" cy="396.13" r="14.18" style="fill:currentColor;"/><circle cx="451" cy="337.73" r="13.96" style="fill:currentColor;"/><circle cx="705.13" cy="191.73" r="13.96" style="fill:currentColor;"/><circle cx="887.88" cy="311.77" r="13.45" style="fill:currentColor;"/><circle cx="434.78" cy="799.54" r="13.21" style="fill:currentColor;"/><circle cx="938.7" cy="790.89" r="13.21" style="fill:currentColor;"/><circle cx="666.2" cy="1005.03" r="13.12" style="fill:currentColor;"/><circle cx="961.41" cy="439.39" r="13.12" style="fill:currentColor;"/><circle cx="468.31" cy="270.67" r="12.69" style="fill:currentColor;"/><circle cx="878.14" cy="882.81" r="12.69" style="fill:currentColor;"/><circle cx="452.09" cy="732.48" r="12.69" style="fill:currentColor;"/><circle cx="772.17" cy="209.03" r="12.69" style="fill:currentColor;"/><circle cx="457.49" cy="446.96" r="12.58" style="fill:currentColor;"/><circle cx="991.69" cy="590.81" r="12.58" style="fill:currentColor;"/><circle cx="441.27" cy="908.77" r="12.58" style="fill:currentColor;"/><circle cx="512.64" cy="641.64" r="12.08" style="fill:currentColor;"/><circle cx="432.62" cy="404.78" r="12.08" style="fill:currentColor;"/><circle cx="466.14" cy="950.95" r="12.08" style="fill:currentColor;"/><circle cx="556.98" cy="1011.52" r="11.83" style="fill:currentColor;"/><circle cx="416.4" cy="866.59" r="11.83" style="fill:currentColor;"/><circle cx="863.01" cy="269.59" r="11.83" style="fill:currentColor;"/><circle cx="638.08" cy="173.34" r="11.71" style="fill:currentColor;"/><circle cx="482.36" cy="489.14" r="11.51" style="fill:currentColor;"/><circle cx="531.03" cy="574.58" r="11.13" style="fill:currentColor;"/><circle cx="985.2" cy="481.57" r="11.13" style="fill:currentColor;"/><circle cx="624.02" cy="1028.82" r="10.7" style="fill:currentColor;"/><circle cx="409.91" cy="757.36" r="10.7" style="fill:currentColor;"/><circle cx="489.93" cy="993.13" r="10.7" style="fill:currentColor;"/><circle cx="470.47" cy="665.43" r="10.3" style="fill:currentColor;"/><circle cx="392.61" cy="824.41" r="10.3" style="fill:currentColor;"/><circle cx="408.83" cy="362.6" r="10.3" style="fill:currentColor;"/><circle cx="426.13" cy="295.55" r="10.17" style="fill:currentColor;"/><circle cx="920.32" cy="857.94" r="9.76" style="fill:currentColor;"/><circle cx="506.15" cy="532.4" r="9.76" style="fill:currentColor;"/><circle cx="839.21" cy="227.41" r="8.99" style="fill:currentColor;"/><circle cx="428.29" cy="690.3" r="8.99" style="fill:currentColor;"/><circle cx="999.26" cy="700.04" r="8.99" style="fill:currentColor;"/><circle cx="399.1" cy="933.65" r="8.8" style="fill:currentColor;"/><circle cx="775.42" cy="998.53" r="8.51" style="fill:currentColor;"/><circle cx="528.87" cy="179.83" r="8.51" style="fill:currentColor;"/><circle cx="367.74" cy="781.15" r="8.51" style="fill:currentColor;"/><circle cx="980.88" cy="767.09" r="8.51" style="fill:currentColor;"/><circle cx="374.23" cy="890.38" r="8.36" style="fill:currentColor;"/><circle cx="486.69" cy="204.7" r="8.36" style="fill:currentColor;"/><circle cx="817.59" cy="973.66" r="8.36" style="fill:currentColor;"/><circle cx="733.24" cy="1022.33" r="8.04" style="fill:currentColor;"/><circle cx="1010.07" cy="523.75" r="8.04" style="fill:currentColor;"/><circle cx="415.32" cy="471.84" r="7.82" style="fill:currentColor;"/><circle cx="390.45" cy="429.66" r="7.82" style="fill:currentColor;"/><circle cx="747.3" cy="166.85" r="7.82" style="fill:currentColor;"/><circle cx="386.12" cy="715.18" r="7.82" style="fill:currentColor;"/><circle cx="514.81" cy="1036.39" r="7.82" style="fill:currentColor;"/><circle cx="422.89" cy="975.83" r="7.82" style="fill:currentColor;"/><circle cx="1016.56" cy="632.99" r="7.82" style="fill:currentColor;"/><circle cx="581.85" cy="1053.69" r="7.62" style="fill:currentColor;"/><circle cx="680.25" cy="148.46" r="7.42" style="fill:currentColor;"/><circle cx="349.35" cy="848.2" r="7.42" style="fill:currentColor;"/><circle cx="571.04" cy="154.95" r="7.23" style="fill:currentColor;"/><circle cx="859.76" cy="949.87" r="7.23" style="fill:currentColor;"/><circle cx="444.52" cy="228.5" r="7.23" style="fill:currentColor;"/><circle cx="383.96" cy="320.43" r="7.23" style="fill:currentColor;"/><circle cx="366.67" cy="387.47" r="6.89" style="fill:currentColor;"/><circle cx="488.85" cy="598.38" r="6.69" style="fill:currentColor;"/><circle cx="962.49" cy="834.15" r="6.45" style="fill:currentColor;"/><circle cx="691.07" cy="1047.21" r="6.45" style="fill:currentColor;"/><circle cx="447.76" cy="1018.01" r="6.45" style="fill:currentColor;"/><circle cx="342.87" cy="738.97" r="6.45" style="fill:currentColor;"/><circle cx="439.11" cy="514.01" r="5.99" style="fill:currentColor;"/><circle cx="325.56" cy="806.02" r="5.99" style="fill:currentColor;"/><circle cx="954.92" cy="330.16" r="5.74" style="fill:currentColor;"/><circle cx="445.6" cy="623.25" r="5.74" style="fill:currentColor;"/><circle cx="814.34" cy="185.24" r="5.74" style="fill:currentColor;"/><circle cx="403.42" cy="648.13" r="5.74" style="fill:currentColor;"/><circle cx="978.72" cy="372.33" r="5.52" style="fill:currentColor;"/><circle cx="402.35" cy="253.37" r="5.52" style="fill:currentColor;"/><circle cx="903.02" cy="924.99" r="5.52" style="fill:currentColor;"/><circle cx="930.05" cy="286.9" r="5.31" style="fill:currentColor;"/><circle cx="361.25" cy="671.91" r="4.78" style="fill:currentColor;"/><circle cx="356.92" cy="957.43" r="4.78" style="fill:currentColor;"/><circle cx="614.29" cy="131.16" r="4.78" style="fill:currentColor;"/><circle cx="332.05" cy="915.26" r="4.78" style="fill:currentColor;"/><circle cx="348.27" cy="453.45" r="4.78" style="fill:currentColor;"/><circle cx="1034.94" cy="565.93" r="4.78" style="fill:currentColor;"/><circle cx="647.81" cy="1072.08" r="4.78" style="fill:currentColor;"/><circle cx="341.79" cy="344.22" r="4.38" style="fill:currentColor;"/><circle cx="373.15" cy="496.71" r="4.38" style="fill:currentColor;"/><circle cx="538.59" cy="1078.57" r="4.38" style="fill:currentColor;"/><circle cx="307.18" cy="873.08" r="4.38" style="fill:currentColor;"/><circle cx="300.69" cy="763.85" r="4.38" style="fill:currentColor;"/><circle cx="1003.58" cy="414.52" r="4.38" style="fill:currentColor;"/><circle cx="380.71" cy="999.62" r="4.38" style="fill:currentColor;"/><circle cx="319.08" cy="696.79" r="4.38" style="fill:currentColor;"/><circle cx="472.63" cy="1060.18" r="4.38" style="fill:currentColor;"/><circle cx="1023.05" cy="742.21" r="4.1" style="fill:currentColor;"/><circle cx="906.27" cy="244.72" r="4.1" style="fill:currentColor;"/><circle cx="323.41" cy="411.27" r="4.1" style="fill:currentColor;"/><circle cx="463.98" cy="556.19" r="4.1" style="fill:currentColor;"/><circle cx="945.19" cy="900.12" r="3.47" style="fill:currentColor;"/><circle cx="359.09" cy="278.25" r="3.47" style="fill:currentColor;"/><circle cx="1041.43" cy="675.16" r="3.47" style="fill:currentColor;"/><circle cx="283.39" cy="830.9" r="3.47" style="fill:currentColor;"/></g></svg>