<?xml version="1.0" encoding="UTF-8"?><svg id="uuid-816615aa-2680-42dc-afe6-fe9bb6427781" xmlns="http://www.w3.org/2000/svg" viewBox="0 0 1920 1080"><circle cx="1333.95" cy="277.67" r="17.66" fill="aqua"/><circle cx="260.59" cy="765.86" r="17.66" fill="aqua"/><circle cx="612.8" cy="694.53" r="17.48" fill="aqua"/><circle cx="1719.6" cy="492.79" r="17.3" fill="aqua"/><circle cx="1082.05" cy="598.67" r="17.3" fill="aqua"/><circle cx="1605.91" cy="295.5" r="17.13" fill="aqua"/><circle cx="580.48" cy="713.48" r="17.03" fill="aqua"/><circle cx="1502.25" cy="267.64" r="17.03" fill="aqua"/><circle cx="880.31" cy="627.65" r="17.03" fill="aqua"/><circle cx="1391.91" cy="681.15" r="17.03" fill="aqua"/><circle cx="364.25" cy="793.73" r="17.03" fill="aqua"/><circle cx="1527.89" cy="690.07" r="17.03" fill="aqua"/><circle cx="1658.3" cy="614.28" r="17.03" fill="aqua"/><circle cx="1705.11" cy="544.06" r="17.03" fill="aqua"/><circle cx="1047.5" cy="312.22" r="17.03" fill="aqua"/><circle cx="1164.53" cy="287.7" r="17.03" fill="aqua"/><circle cx="729.84" cy="670.01" r="16.94" fill="aqua"/><circle cx="1443.18" cy="695.65" r="16.94" fill="aqua"/><circle cx="1133.32" cy="612.05" r="16.83" fill="aqua"/><circle cx="1732.98" cy="440.4" r="16.83" fill="aqua"/><circle cx="963.9" cy="622.08" r="16.74" fill="aqua"/><circle cx="930.46" cy="335.63" r="16.74" fill="aqua"/><circle cx="547.04" cy="732.42" r="16.74" fill="aqua"/><circle cx="1281.56" cy="264.29" r="16.74" fill="aqua"/><circle cx="1339.52" cy="667.78" r="16.74" fill="aqua"/><circle cx="1657.19" cy="309.99" r="16.57" fill="aqua"/><circle cx="1366.28" cy="258.72" r="16.57" fill="aqua"/><circle cx="846.87" cy="646.6" r="16.49" fill="aqua"/><circle cx="514.72" cy="750.26" r="16.49" fill="aqua"/><circle cx="279.54" cy="798.19" r="16.49" fill="aqua"/><circle cx="1048.61" cy="617.62" r="16.49" fill="aqua"/><circle cx="779.99" cy="379.09" r="16.49" fill="aqua"/><circle cx="1450.98" cy="254.26" r="16.4" fill="aqua"/><circle cx="1184.59" cy="625.42" r="16.4" fill="aqua"/><circle cx="1691.74" cy="595.33" r="16.4" fill="aqua"/><circle cx="697.51" cy="688.95" r="16.4" fill="aqua"/><circle cx="1494.45" cy="709.02" r="16.4" fill="aqua"/><circle cx="1197.97" cy="268.75" r="16.4" fill="aqua"/><circle cx="1288.25" cy="653.29" r="16.4" fill="aqua"/><circle cx="1079.82" cy="293.27" r="16.4" fill="aqua"/><circle cx="1236.98" cy="639.91" r="16.12" fill="aqua"/><circle cx="331.92" cy="812.67" r="16.12" fill="aqua"/><circle cx="481.28" cy="769.21" r="16.04" fill="aqua"/><circle cx="931.58" cy="641.03" r="15.93" fill="aqua"/><circle cx="564.87" cy="459.35" r="15.93" fill="aqua"/><circle cx="448.95" cy="788.15" r="15.93" fill="aqua"/><circle cx="962.79" cy="316.68" r="15.93" fill="aqua"/><circle cx="813.43" cy="360.15" r="15.82" fill="aqua"/><circle cx="814.55" cy="665.55" r="15.82" fill="aqua"/><circle cx="1586.96" cy="263.18" r="15.71" fill="aqua"/><circle cx="1612.6" cy="685.61" r="15.61" fill="aqua"/><circle cx="1315" cy="245.34" r="15.61" fill="aqua"/><circle cx="1101" cy="630.99" r="15.61" fill="aqua"/><circle cx="1738.55" cy="525.11" r="15.61" fill="aqua"/><circle cx="664.07" cy="707.9" r="15.61" fill="aqua"/><circle cx="1579.16" cy="704.56" r="15.51" fill="aqua"/><circle cx="209.32" cy="752.49" r="15.51" fill="aqua"/><circle cx="1751.93" cy="473.84" r="15.51" fill="aqua"/><circle cx="1358.47" cy="700.1" r="15.51" fill="aqua"/><circle cx="1016.29" cy="636.57" r="15.51" fill="aqua"/><circle cx="597.2" cy="440.4" r="15.51" fill="aqua"/><circle cx="1644.92" cy="666.66" r="15.51" fill="aqua"/><circle cx="1113.26" cy="274.32" r="15.51" fill="aqua"/><circle cx="416.63" cy="807.1" r="15.51" fill="aqua"/><circle cx="1410.86" cy="714.59" r="15.51" fill="aqua"/><circle cx="1398.6" cy="239.77" r="15.51" fill="aqua"/><circle cx="1535.69" cy="248.69" r="15.51" fill="aqua"/><circle cx="1230.29" cy="249.8" r="15.51" fill="aqua"/><circle cx="228.26" cy="784.81" r="15.51" fill="aqua"/><circle cx="1638.24" cy="276.55" r="15.31" fill="aqua"/><circle cx="1724.06" cy="576.38" r="15.31" fill="aqua"/><circle cx="1462.13" cy="727.96" r="15.21" fill="aqua"/><circle cx="1546.84" cy="722.39" r="15.21" fill="aqua"/><circle cx="845.75" cy="341.2" r="15.21" fill="aqua"/><circle cx="996.22" cy="297.73" r="15.21" fill="aqua"/><circle cx="1152.27" cy="644.37" r="15.11" fill="aqua"/><circle cx="1677.25" cy="647.71" r="15.11" fill="aqua"/><circle cx="630.64" cy="421.45" r="15.11" fill="aqua"/><circle cx="781.11" cy="684.5" r="15.11" fill="aqua"/><circle cx="631.75" cy="726.85" r="15.11" fill="aqua"/><circle cx="1728.52" cy="355.69" r="15.11" fill="aqua"/><circle cx="1483.31" cy="235.31" r="15.11" fill="aqua"/><circle cx="899.25" cy="659.98" r="15.11" fill="aqua"/><circle cx="298.49" cy="831.62" r="14.94" fill="aqua"/><circle cx="1307.2" cy="686.72" r="14.94" fill="aqua"/><circle cx="1747.47" cy="389.13" r="14.84" fill="aqua"/><circle cx="247.21" cy="817.13" r="14.84" fill="aqua"/><circle cx="383.19" cy="826.05" r="14.84" fill="aqua"/><circle cx="1709.57" cy="323.37" r="14.73" fill="aqua"/><circle cx="1255.93" cy="672.24" r="14.73" fill="aqua"/><circle cx="1203.54" cy="658.86" r="14.62" fill="aqua"/><circle cx="1145.58" cy="255.38" r="14.62" fill="aqua"/><circle cx="1347.32" cy="226.4" r="14.62" fill="aqua"/><circle cx="662.96" cy="402.5" r="14.62" fill="aqua"/><circle cx="598.31" cy="745.8" r="14.62" fill="aqua"/><circle cx="982.85" cy="654.4" r="14.62" fill="aqua"/><circle cx="1067.56" cy="649.94" r="14.62" fill="aqua"/><circle cx="878.08" cy="322.25" r="14.51" fill="aqua"/><circle cx="1262.62" cy="231.97" r="14.51" fill="aqua"/><circle cx="1028.55" cy="279.9" r="14.51" fill="aqua"/><circle cx="748.78" cy="702.33" r="14.51" fill="aqua"/><circle cx="1513.4" cy="741.34" r="14.51" fill="aqua"/><circle cx="1432.03" cy="220.82" r="14.39" fill="aqua"/><circle cx="565.99" cy="764.75" r="14.39" fill="aqua"/><circle cx="204.86" cy="667.78" r="14.39" fill="aqua"/><circle cx="1710.69" cy="628.77" r="14.39" fill="aqua"/><circle cx="865.82" cy="678.92" r="14.27" fill="aqua"/><circle cx="190.37" cy="719.05" r="14.27" fill="aqua"/><circle cx="350.87" cy="845" r="14.27" fill="aqua"/><circle cx="1766.41" cy="421.45" r="14.06" fill="aqua"/><circle cx="1690.62" cy="291.04" r="13.96" fill="aqua"/><circle cx="533.67" cy="783.7" r="13.96" fill="aqua"/><circle cx="696.4" cy="383.55" r="13.96" fill="aqua"/><circle cx="1568.02" cy="229.74" r="13.87" fill="aqua"/><circle cx="1770.87" cy="506.16" r="13.87" fill="aqua"/><circle cx="1757.5" cy="557.43" r="13.87" fill="aqua"/><circle cx="1179.02" cy="236.43" r="13.87" fill="aqua"/><circle cx="1060.87" cy="260.95" r="13.62" fill="aqua"/><circle cx="716.46" cy="721.28" r="13.62" fill="aqua"/><circle cx="1516.74" cy="216.37" r="13.62" fill="aqua"/><circle cx="1326.15" cy="719.05" r="13.62" fill="aqua"/><circle cx="1429.81" cy="746.92" r="13.62" fill="aqua"/><circle cx="1631.55" cy="717.94" r="13.62" fill="aqua"/><circle cx="1619.29" cy="244.23" r="13.62" fill="aqua"/><circle cx="266.16" cy="850.57" r="13.62" fill="aqua"/><circle cx="1118.83" cy="663.32" r="13.62" fill="aqua"/><circle cx="500.23" cy="802.65" r="13.62" fill="aqua"/><circle cx="1598.11" cy="736.89" r="13.62" fill="aqua"/><circle cx="1377.42" cy="733.54" r="13.62" fill="aqua"/><circle cx="911.52" cy="303.3" r="13.62" fill="aqua"/><circle cx="950.53" cy="673.35" r="13.62" fill="aqua"/><circle cx="728.72" cy="364.61" r="13.52" fill="aqua"/><circle cx="1663.87" cy="698.99" r="13.52" fill="aqua"/><circle cx="1296.05" cy="213.02" r="13.31" fill="aqua"/><circle cx="1743.01" cy="609.82" r="13.31" fill="aqua"/><circle cx="1035.24" cy="668.89" r="13.31" fill="aqua"/><circle cx="467.9" cy="821.59" r="13.31" fill="aqua"/><circle cx="1379.65" cy="207.45" r="13.31" fill="aqua"/><circle cx="1481.08" cy="760.29" r="13.31" fill="aqua"/><circle cx="1171.22" cy="677.81" r="13.31" fill="aqua"/><circle cx="833.49" cy="697.87" r="13.31" fill="aqua"/><circle cx="1274.88" cy="705.67" r="13.18" fill="aqua"/><circle cx="1565.79" cy="755.83" r="13.18" fill="aqua"/><circle cx="317.43" cy="863.95" r="13.18" fill="aqua"/><circle cx="195.94" cy="803.76" r="13.18" fill="aqua"/><circle cx="435.58" cy="840.54" r="13.08" fill="aqua"/><circle cx="1696.2" cy="680.04" r="13.08" fill="aqua"/><circle cx="1784.25" cy="454.89" r="13.08" fill="aqua"/><circle cx="683.02" cy="740.23" r="13.08" fill="aqua"/><circle cx="1222.49" cy="691.18" r="13.08" fill="aqua"/><circle cx="943.84" cy="284.35" r="13.08" fill="aqua"/><circle cx="1464.36" cy="201.87" r="12.74" fill="aqua"/><circle cx="214.89" cy="836.08" r="12.74" fill="aqua"/><circle cx="316.32" cy="559.66" r="12.74" fill="aqua"/><circle cx="1671.67" cy="257.6" r="12.74" fill="aqua"/><circle cx="382.08" cy="521.76" r="12.74" fill="aqua"/><circle cx="1094.31" cy="242" r="12.74" fill="aqua"/><circle cx="176.99" cy="771.43" r="12.74" fill="aqua"/><circle cx="1211.34" cy="217.48" r="12.74" fill="aqua"/><circle cx="349.75" cy="540.71" r="12.74" fill="aqua"/><circle cx="761.04" cy="345.66" r="12.74" fill="aqua"/><circle cx="650.7" cy="759.17" r="12.46" fill="aqua"/><circle cx="918.2" cy="692.3" r="12.46" fill="aqua"/><circle cx="447.84" cy="483.87" r="12.46" fill="aqua"/><circle cx="283.99" cy="578.61" r="12.46" fill="aqua"/><circle cx="1532.35" cy="774.78" r="12.46" fill="aqua"/><circle cx="800.05" cy="716.82" r="12.46" fill="aqua"/><circle cx="414.4" cy="502.82" r="12.46" fill="aqua"/><circle cx="1086.51" cy="682.27" r="12.46" fill="aqua"/><circle cx="402.14" cy="859.49" r="12.46" fill="aqua"/><circle cx="1729.63" cy="661.09" r="12.33" fill="aqua"/><circle cx="794.48" cy="327.83" r="12.33" fill="aqua"/><circle cx="1789.82" cy="538.48" r="12.19" fill="aqua"/><circle cx="1001.8" cy="687.84" r="12.19" fill="aqua"/><circle cx="1328.38" cy="194.07" r="12.19" fill="aqua"/><circle cx="977.28" cy="265.41" r="12.19" fill="aqua"/><circle cx="1760.84" cy="336.74" r="12.07" fill="aqua"/><circle cx="1413.09" cy="188.5" r="12.07" fill="aqua"/><circle cx="1448.75" cy="779.24" r="12.07" fill="aqua"/><circle cx="480.16" cy="464.92" r="12.07" fill="aqua"/><circle cx="1396.37" cy="765.86" r="12.07" fill="aqua"/><circle cx="285.11" cy="882.9" r="11.96" fill="aqua"/><circle cx="1776.45" cy="590.87" r="11.96" fill="aqua"/><circle cx="1126.64" cy="223.05" r="11.96" fill="aqua"/><circle cx="617.26" cy="778.12" r="11.96" fill="aqua"/><circle cx="1779.79" cy="370.18" r="11.74" fill="aqua"/><circle cx="1549.07" cy="197.41" r="11.74" fill="aqua"/><circle cx="1243.67" cy="198.53" r="11.74" fill="aqua"/><circle cx="1345.1" cy="752.49" r="11.74" fill="aqua"/><circle cx="1600.34" cy="210.79" r="11.74" fill="aqua"/><circle cx="250.56" cy="597.56" r="11.74" fill="aqua"/><circle cx="369.82" cy="878.44" r="11.74" fill="aqua"/><circle cx="233.84" cy="869.52" r="11.74" fill="aqua"/><circle cx="158.04" cy="738" r="11.48" fill="aqua"/><circle cx="767.73" cy="735.77" r="11.48" fill="aqua"/><circle cx="1497.8" cy="184.04" r="11.48" fill="aqua"/><circle cx="1500.03" cy="793.73" r="11.48" fill="aqua"/><circle cx="584.94" cy="797.07" r="11.48" fill="aqua"/><circle cx="513.6" cy="445.97" r="11.48" fill="aqua"/><circle cx="826.81" cy="308.88" r="11.48" fill="aqua"/><circle cx="1293.82" cy="738" r="11.48" fill="aqua"/><circle cx="1650.5" cy="750.26" r="11.48" fill="aqua"/><circle cx="1137.78" cy="696.76" r="11.48" fill="aqua"/><circle cx="1803.2" cy="487.21" r="11.48" fill="aqua"/><circle cx="884.76" cy="711.25" r="11.48" fill="aqua"/><circle cx="1617.06" cy="769.21" r="11.48" fill="aqua"/><circle cx="1682.82" cy="731.31" r="11.48" fill="aqua"/><circle cx="1741.89" cy="304.42" r="11.48" fill="aqua"/><circle cx="1190.17" cy="710.13" r="11.18" fill="aqua"/><circle cx="1241.44" cy="724.62" r="11.18" fill="aqua"/><circle cx="1584.74" cy="788.16" r="11.18" fill="aqua"/><circle cx="171.42" cy="686.73" r="11.18" fill="aqua"/><circle cx="1652.73" cy="225.28" r="11.18" fill="aqua"/><circle cx="1009.6" cy="246.46" r="11.18" fill="aqua"/><circle cx="1798.74" cy="402.5" r="11.18" fill="aqua"/><circle cx="545.93" cy="427.03" r="11.18" fill="aqua"/><circle cx="1761.96" cy="642.14" r="11.18" fill="aqua"/><circle cx="552.61" cy="816.02" r="11.18" fill="aqua"/><circle cx="1722.94" cy="272.09" r="11.02" fill="aqua"/><circle cx="859.13" cy="289.92" r="11.02" fill="aqua"/><circle cx="1054.18" cy="701.21" r="10.89" fill="aqua"/><circle cx="1160.07" cy="204.1" r="10.89" fill="aqua"/><circle cx="162.5" cy="822.71" r="10.89" fill="aqua"/><circle cx="1361.81" cy="175.12" r="10.89" fill="aqua"/><circle cx="519.18" cy="834.97" r="10.89" fill="aqua"/><circle cx="1715.14" cy="712.36" r="10.89" fill="aqua"/><circle cx="336.38" cy="897.38" r="10.89" fill="aqua"/><circle cx="969.47" cy="706.79" r="10.89" fill="aqua"/><circle cx="578.25" cy="408.07" r="10.89" fill="aqua"/><circle cx="611.69" cy="389.12" r="10.61" fill="aqua"/><circle cx="181.45" cy="855.03" r="10.61" fill="aqua"/><circle cx="1277.1" cy="179.58" r="10.61" fill="aqua"/><circle cx="735.41" cy="754.71" r="10.61" fill="aqua"/><circle cx="852.44" cy="730.2" r="10.48" fill="aqua"/><circle cx="252.79" cy="901.85" r="10.48" fill="aqua"/><circle cx="486.85" cy="853.92" r="10.48" fill="aqua"/><circle cx="1551.3" cy="807.11" r="10.48" fill="aqua"/><circle cx="1445.41" cy="169.55" r="10.48" fill="aqua"/><circle cx="143.56" cy="790.38" r="10.35" fill="aqua"/><circle cx="892.57" cy="270.98" r="10.35" fill="aqua"/><circle cx="218.24" cy="616.51" r="10.35" fill="aqua"/><circle cx="1041.93" cy="227.51" r="10.35" fill="aqua"/><circle cx="1192.39" cy="185.15" r="10.06" fill="aqua"/><circle cx="1467.7" cy="812.68" r="10.06" fill="aqua"/><circle cx="1748.58" cy="693.41" r="10.06" fill="aqua"/><circle cx="1105.46" cy="715.71" r="10.06" fill="aqua"/><circle cx="644.01" cy="370.18" r="10.06" fill="aqua"/><circle cx="1822.14" cy="519.54" r="10.06" fill="aqua"/><circle cx="1415.32" cy="798.19" r="10.06" fill="aqua"/><circle cx="1808.77" cy="571.92" r="10.06" fill="aqua"/><circle cx="453.41" cy="872.86" r="10.06" fill="aqua"/><circle cx="200.4" cy="888.47" r="10.06" fill="aqua"/><circle cx="1364.04" cy="784.81" r="10.06" fill="aqua"/><circle cx="1817.69" cy="435.94" r="10.06" fill="aqua"/><circle cx="304.06" cy="916.34" r="9.91" fill="aqua"/><circle cx="1704" cy="238.66" r="9.91" fill="aqua"/><circle cx="701.97" cy="773.67" r="9.91" fill="aqua"/><circle cx="677.45" cy="351.23" r="9.75" fill="aqua"/><circle cx="1581.39" cy="178.46" r="9.75" fill="aqua"/><circle cx="421.09" cy="891.81" r="9.75" fill="aqua"/><circle cx="937.15" cy="725.73" r="9.75" fill="aqua"/><circle cx="1795.39" cy="623.19" r="9.75" fill="aqua"/><circle cx="1311.66" cy="770.32" r="9.75" fill="aqua"/><circle cx="1020.75" cy="720.16" r="9.6" fill="aqua"/><circle cx="1518.97" cy="826.05" r="9.6" fill="aqua"/><circle cx="1075.36" cy="208.56" r="9.27" fill="aqua"/><circle cx="1530.12" cy="165.09" r="9.27" fill="aqua"/><circle cx="1260.38" cy="756.94" r="9.27" fill="aqua"/><circle cx="1394.14" cy="156.17" r="9.27" fill="aqua"/><circle cx="1309.43" cy="160.63" r="9.27" fill="aqua"/><circle cx="819" cy="749.14" r="9.27" fill="aqua"/><circle cx="1636.01" cy="802.64" r="9.27" fill="aqua"/><circle cx="1156.73" cy="729.08" r="9.27" fill="aqua"/><circle cx="924.89" cy="252.03" r="9.27" fill="aqua"/><circle cx="1633.78" cy="191.84" r="9.27" fill="aqua"/><circle cx="1668.33" cy="783.69" r="9.27" fill="aqua"/><circle cx="388.77" cy="910.76" r="9.07" fill="aqua"/><circle cx="669.65" cy="792.62" r="9.07" fill="aqua"/><circle cx="1478.85" cy="150.6" r="9.07" fill="aqua"/><circle cx="709.77" cy="332.28" r="9.07" fill="aqua"/><circle cx="1701.77" cy="764.75" r="9.07" fill="aqua"/><circle cx="124.61" cy="756.95" r="9.07" fill="aqua"/><circle cx="1209.11" cy="743.57" r="9.07" fill="aqua"/><circle cx="1224.72" cy="166.21" r="9.07" fill="aqua"/><circle cx="1780.91" cy="674.47" r="9.07" fill="aqua"/><circle cx="1603.68" cy="821.6" r="9.07" fill="aqua"/><circle cx="219.35" cy="920.79" r="8.77" fill="aqua"/><circle cx="1836.64" cy="468.26" r="8.77" fill="aqua"/><circle cx="139.1" cy="705.67" r="8.61" fill="aqua"/><circle cx="1734.09" cy="745.79" r="8.61" fill="aqua"/><circle cx="1107.68" cy="189.61" r="8.61" fill="aqua"/><circle cx="636.21" cy="811.56" r="8.61" fill="aqua"/><circle cx="149.13" cy="873.97" r="8.61" fill="aqua"/><circle cx="271.73" cy="935.28" r="8.61" fill="aqua"/><circle cx="1793.17" cy="317.79" r="8.44" fill="aqua"/><circle cx="130.18" cy="841.65" r="8.44" fill="aqua"/><circle cx="1570.25" cy="840.54" r="8.44" fill="aqua"/><circle cx="355.33" cy="929.71" r="8.44" fill="aqua"/><circle cx="958.33" cy="233.08" r="8.44" fill="aqua"/><circle cx="1073.13" cy="734.65" r="8.44" fill="aqua"/><circle cx="1685.05" cy="206.33" r="8.44" fill="aqua"/><circle cx="742.1" cy="313.33" r="8.44" fill="aqua"/><circle cx="903.71" cy="744.68" r="8.44" fill="aqua"/><circle cx="185.91" cy="634.34" r="8.29" fill="aqua"/><circle cx="1434.26" cy="831.62" r="8.29" fill="aqua"/><circle cx="1812.11" cy="351.23" r="8.29" fill="aqua"/><circle cx="786.68" cy="768.09" r="8.29" fill="aqua"/><circle cx="111.23" cy="809.34" r="8.06" fill="aqua"/><circle cx="1426.46" cy="137.23" r="8.06" fill="aqua"/><circle cx="1342.87" cy="141.69" r="8.06" fill="aqua"/><circle cx="1774.22" cy="285.47" r="8.06" fill="aqua"/><circle cx="988.42" cy="739.12" r="8.06" fill="aqua"/><circle cx="603.89" cy="830.51" r="8.06" fill="aqua"/><circle cx="1382.99" cy="817.14" r="8.06" fill="aqua"/><circle cx="1486.65" cy="845" r="8.06" fill="aqua"/><circle cx="1841.09" cy="552.98" r="8.06" fill="aqua"/><circle cx="1827.72" cy="604.25" r="8.06" fill="aqua"/><circle cx="1258.16" cy="147.26" r="7.85" fill="aqua"/><circle cx="1124.4" cy="748.03" r="7.85" fill="aqua"/><circle cx="1831.06" cy="383.55" r="7.85" fill="aqua"/><circle cx="168.07" cy="907.41" r="7.85" fill="aqua"/><circle cx="1330.6" cy="803.76" r="7.85" fill="aqua"/><circle cx="775.53" cy="294.38" r="7.85" fill="aqua"/><circle cx="538.12" cy="868.4" r="7.64" fill="aqua"/><circle cx="1562.44" cy="146.14" r="7.64" fill="aqua"/><circle cx="1537.92" cy="859.49" r="7.64" fill="aqua"/><circle cx="1814.34" cy="656.63" r="7.64" fill="aqua"/><circle cx="571.56" cy="849.46" r="7.64" fill="aqua"/><circle cx="1141.12" cy="170.66" r="7.64" fill="aqua"/><circle cx="323" cy="948.66" r="7.64" fill="aqua"/><circle cx="1755.27" cy="253.14" r="7.64" fill="aqua"/><circle cx="1279.33" cy="789.27" r="7.64" fill="aqua"/><circle cx="1767.53" cy="726.85" r="7.64" fill="aqua"/><circle cx="990.65" cy="214.13" r="7.64" fill="aqua"/><circle cx="807.86" cy="275.44" r="7.45" fill="aqua"/><circle cx="1614.83" cy="159.52" r="7.45" fill="aqua"/><circle cx="754.37" cy="787.03" r="7.1" fill="aqua"/><circle cx="1175.69" cy="762.51" r="7.1" fill="aqua"/><circle cx="871.4" cy="763.62" r="7.1" fill="aqua"/><circle cx="1855.6" cy="500.58" r="7.1" fill="aqua"/><circle cx="1622.64" cy="853.91" r="7.1" fill="aqua"/><circle cx="1654.95" cy="834.97" r="6.89" fill="aqua"/><circle cx="1850.01" cy="416.99" r="6.89" fill="aqua"/><circle cx="1375.19" cy="122.74" r="6.89" fill="aqua"/><circle cx="1511.17" cy="131.65" r="6.89" fill="aqua"/><circle cx="1039.69" cy="753.6" r="6.89" fill="aqua"/><circle cx="472.36" cy="906.3" r="6.89" fill="aqua"/><circle cx="1228.06" cy="775.89" r="6.89" fill="aqua"/><circle cx="505.8" cy="887.35" r="6.89" fill="aqua"/><circle cx="187.02" cy="939.74" r="6.89" fill="aqua"/><circle cx="1687.28" cy="816.02" r="6.89" fill="aqua"/><circle cx="238.3" cy="954.23" r="6.89" fill="aqua"/><circle cx="1799.85" cy="707.9" r="6.65" fill="aqua"/><circle cx="1453.21" cy="863.95" r="6.65" fill="aqua"/><circle cx="1666.1" cy="172.9" r="6.65" fill="aqua"/><circle cx="954.98" cy="758.06" r="6.65" fill="aqua"/><circle cx="1736.32" cy="219.71" r="6.65" fill="aqua"/><circle cx="1290.48" cy="128.31" r="6.65" fill="aqua"/><circle cx="1173.45" cy="151.72" r="6.65" fill="aqua"/><circle cx="289.57" cy="967.61" r="6.65" fill="aqua"/><circle cx="92.28" cy="775.9" r="6.65" fill="aqua"/><circle cx="440.04" cy="925.25" r="6.65" fill="aqua"/><circle cx="1720.72" cy="797.07" r="6.65" fill="aqua"/><circle cx="115.69" cy="892.93" r="6.65" fill="aqua"/><circle cx="1022.98" cy="195.19" r="6.65" fill="aqua"/><circle cx="841.3" cy="256.49" r="6.65" fill="aqua"/><circle cx="1459.9" cy="118.28" r="6.65" fill="aqua"/><circle cx="1589.19" cy="872.87" r="6.65" fill="aqua"/><circle cx="720.92" cy="805.98" r="6.17" fill="aqua"/><circle cx="1753.04" cy="778.11" r="6.17" fill="aqua"/><circle cx="105.66" cy="724.61" r="6.17" fill="aqua"/><circle cx="407.71" cy="943.07" r="6.17" fill="aqua"/><circle cx="1505.6" cy="878.43" r="6.17" fill="aqua"/><circle cx="1349.55" cy="836.08" r="5.91" fill="aqua"/><circle cx="837.95" cy="782.58" r="5.91" fill="aqua"/><circle cx="1846.67" cy="637.68" r="5.91" fill="aqua"/><circle cx="78.91" cy="828.28" r="5.91" fill="aqua"/><circle cx="152.47" cy="653.29" r="5.91" fill="aqua"/><circle cx="134.64" cy="926.37" r="5.91" fill="aqua"/><circle cx="1401.94" cy="850.57" r="5.91" fill="aqua"/><circle cx="1860.04" cy="585.3" r="5.91" fill="aqua"/><circle cx="96.74" cy="860.6" r="5.91" fill="aqua"/><circle cx="873.62" cy="237.54" r="5.91" fill="aqua"/><circle cx="1092.08" cy="766.98" r="5.91" fill="aqua"/><circle cx="1205.77" cy="132.77" r="5.91" fill="aqua"/><circle cx="1407.52" cy="103.78" r="5.69" fill="aqua"/><circle cx="428.9" cy="450.42" r="5.69" fill="aqua"/><circle cx="1868.97" cy="449.31" r="5.69" fill="aqua"/><circle cx="461.22" cy="431.48" r="5.69" fill="aqua"/><circle cx="374.28" cy="962.03" r="5.69" fill="aqua"/><circle cx="1556.88" cy="891.81" r="5.69" fill="aqua"/><circle cx="1143.35" cy="781.46" r="5.47" fill="aqua"/><circle cx="494.65" cy="412.53" r="5.47" fill="aqua"/><circle cx="205.97" cy="973.17" r="5.47" fill="aqua"/><circle cx="363.13" cy="488.32" r="5.47" fill="aqua"/><circle cx="257.24" cy="986.55" r="5.47" fill="aqua"/><circle cx="1298.28" cy="822.7" r="5.47" fill="aqua"/><circle cx="1874.53" cy="534.02" r="5.47" fill="aqua"/><circle cx="395.45" cy="469.37" r="5.47" fill="aqua"/><circle cx="526.98" cy="393.58" r="5.47" fill="aqua"/><circle cx="1786.48" cy="759.17" r="5.47" fill="aqua"/><circle cx="688.59" cy="824.93" r="5.47" fill="aqua"/><circle cx="1056.41" cy="176.23" r="5.47" fill="aqua"/><circle cx="922.66" cy="777" r="5.19" fill="aqua"/><circle cx="1323.92" cy="109.36" r="5.19" fill="aqua"/><circle cx="1543.49" cy="112.7" r="5.19" fill="aqua"/><circle cx="1595.88" cy="127.19" r="5.19" fill="aqua"/><circle cx="592.74" cy="356.8" r="5.19" fill="aqua"/><circle cx="1832.18" cy="688.95" r="5.19" fill="aqua"/><circle cx="330.81" cy="507.27" r="5.19" fill="aqua"/><circle cx="559.3" cy="375.75" r="5.19" fill="aqua"/><circle cx="59.96" cy="794.84" r="4.92" fill="aqua"/><circle cx="1608.14" cy="905.18" r="4.92" fill="aqua"/><circle cx="805.62" cy="801.53" r="4.92" fill="aqua"/><circle cx="1718.48" cy="187.38" r="4.92" fill="aqua"/><circle cx="905.94" cy="218.59" r="4.92" fill="aqua"/><circle cx="1247.01" cy="808.21" r="4.92" fill="aqua"/><circle cx="1641.58" cy="886.24" r="4.92" fill="aqua"/><circle cx="1673.9" cy="867.29" r="4.92" fill="aqua"/><circle cx="655.15" cy="843.88" r="4.92" fill="aqua"/><circle cx="153.58" cy="958.68" r="4.92" fill="aqua"/><circle cx="1492.22" cy="99.33" r="4.92" fill="aqua"/><circle cx="1007.37" cy="772.55" r="4.92" fill="aqua"/><circle cx="341.95" cy="980.98" r="4.92" fill="aqua"/><circle cx="625.06" cy="337.85" r="4.92" fill="aqua"/><circle cx="1818.8" cy="740.23" r="4.52" fill="aqua"/><circle cx="1706.23" cy="849.46" r="4.52" fill="aqua"/><circle cx="622.83" cy="862.83" r="4.52" fill="aqua"/><circle cx="658.5" cy="318.91" r="4.52" fill="aqua"/><circle cx="1826.6" cy="299.96" r="4.52" fill="aqua"/><circle cx="1472.16" cy="897.39" r="4.52" fill="aqua"/><circle cx="1088.74" cy="157.29" r="4.52" fill="aqua"/><circle cx="1523.43" cy="910.76" r="4.52" fill="aqua"/><circle cx="83.37" cy="911.88" r="4.52" fill="aqua"/><circle cx="1647.15" cy="140.57" r="4.52" fill="aqua"/><circle cx="1575.82" cy="924.14" r="4.52" fill="aqua"/><circle cx="1239.21" cy="113.82" r="4.52" fill="aqua"/><circle cx="1194.62" cy="794.84" r="4.52" fill="aqua"/><circle cx="297.37" cy="526.22" r="4.52" fill="aqua"/><circle cx="1845.55" cy="332.28" r="4.52" fill="aqua"/><circle cx="690.83" cy="299.96" r="4.22" fill="aqua"/><circle cx="1420.89" cy="882.89" r="4.22" fill="aqua"/><circle cx="1807.66" cy="266.52" r="4.22" fill="aqua"/><circle cx="939.39" cy="199.64" r="4.22" fill="aqua"/><circle cx="73.34" cy="743.57" r="4.22" fill="aqua"/><circle cx="1122.18" cy="138.34" r="4.22" fill="aqua"/><circle cx="265.05" cy="545.17" r="4.22" fill="aqua"/><circle cx="1739.67" cy="830.51" r="4.22" fill="aqua"/><circle cx="1058.65" cy="785.92" r="4.22" fill="aqua"/><circle cx="102.32" cy="945.31" r="4.22" fill="aqua"/><circle cx="1440.96" cy="84.84" r="4.22" fill="aqua"/><circle cx="120.15" cy="672.23" r="4.22" fill="aqua"/><circle cx="1887.91" cy="481.64" r="4.22" fill="aqua"/><circle cx="64.42" cy="879.55" r="4.22" fill="aqua"/><circle cx="590.51" cy="881.78" r="4.22" fill="aqua"/><circle cx="172.54" cy="991.01" r="4.22" fill="aqua"/><circle cx="308.52" cy="999.93" r="4.22" fill="aqua"/><circle cx="224.93" cy="1005.5" r="4.22" fill="aqua"/><circle cx="890.34" cy="795.96" r="3.57" fill="aqua"/><circle cx="1111.03" cy="800.42" r="3.57" fill="aqua"/><circle cx="524.75" cy="919.68" r="3.57" fill="aqua"/><circle cx="1660.53" cy="919.68" r="3.57" fill="aqua"/><circle cx="1356.24" cy="90.41" r="3.57" fill="aqua"/><circle cx="1771.99" cy="811.56" r="3.57" fill="aqua"/><circle cx="26.52" cy="813.79" r="3.57" fill="aqua"/><circle cx="773.3" cy="820.48" r="3.57" fill="aqua"/><circle cx="723.15" cy="281.01" r="3.57" fill="aqua"/><circle cx="45.47" cy="846.11" r="3.57" fill="aqua"/><circle cx="491.31" cy="938.63" r="3.57" fill="aqua"/><circle cx="1627.09" cy="938.63" r="3.57" fill="aqua"/><circle cx="1542.38" cy="943.08" r="3.57" fill="aqua"/><circle cx="1788.71" cy="234.2" r="3.57" fill="aqua"/><circle cx="1864.5" cy="364.61" r="3.57" fill="aqua"/><circle cx="1893.48" cy="566.35" r="3.57" fill="aqua"/><circle cx="231.61" cy="564.12" r="3.57" fill="aqua"/><circle cx="1594.77" cy="957.57" r="3.57" fill="aqua"/><circle cx="973.93" cy="791.5" r="3.57" fill="aqua"/><circle cx="1271.53" cy="94.87" r="3.57" fill="aqua"/><circle cx="557.07" cy="900.73" r="3.57" fill="aqua"/><circle cx="971.7" cy="180.7" r="3.57" fill="aqua"/><circle cx="1878.99" cy="618.74" r="3.57" fill="aqua"/><circle cx="1865.61" cy="670.01" r="3.57" fill="aqua"/><circle cx="1368.5" cy="869.52" r="3.57" fill="aqua"/><circle cx="1699.54" cy="153.95" r="3.57" fill="aqua"/><circle cx="276.19" cy="1018.88" r="3.57" fill="aqua"/></svg>