<?xml version="1.0" encoding="UTF-8"?><svg id="a" xmlns="http://www.w3.org/2000/svg" viewBox="0 0 1200 1200"><g id="b"><path d="M534.38,426.89c-2.19-1.37-4.16-1.76-5.79-2.96-14.43-10.54-8.29-29.06,8.12-32.05-5.48-4.7-10.82-9.45-10.51-17.48-2.05.91-2.12,3.83-4.01,5.89s-5.59,4.09-8.3,4.53c-27.45,4.37-27.35-36.42-.52-32.59-.55-1.95-3.95-1.25-6.27-2.46-15.94-8.32-7.82-33.41,9.77-32.53l-7-5.23c-12.38-18.41,8.14-36.8,25.14-22.81l5.18,9.38c1.7-5.32,7.42-9.35,12.84-10.5-6.83-6.88-11.19-14.25-5.66-23.72,8.09-13.85,28.59-10.56,31.33,5.07,4.16-4.76,8.23-9.18,15.15-9.34-17.38-11.63-5.36-38.12,14.84-30.57,14.6,5.46,12.42,28.93-3.17,31.76,3.03,3.3,7.36,5.53,8.18,10.48,4.03-2.68,7.56-7,12.81-7.01-23.08-24.28,19.84-47.95,28.01-15.16,2.42-1.88,3.64-5.01,6.4-7,11.95-8.61,26.26.31,27.43,14,2.2-1.4,2.26-4.21,4.6-6.46,8.6-8.26,25.99-4.22,27.97,8.29,1.67,10.56-2.67,16.26-11.56,20.93,3.91,2.56,7.25,6.28,8.16,11.08,4.31-3.67,9.31-6.6,15.14-7.01l-6.82-5.41c-15.45-24.19,25.79-37.03,28.78-11.18,1.11,9.56-7.14,15.38-14.95,18.36,7.46,2.5,10.81,9.49,11.67,16.9l7.72-8c23.87-11.01,37.58,24.63,12.1,31.35.59,1.95,3.06,2.03,4.69,4.04,2.16,2.67,2.64,6.35,5.22,8.75,12.42-14.42,34.6-5.47,32.09,14.01l5.21-9.35c24.92-16.26,40.1,21.97,11.09,28.6,9.4,3.67,13.02,11.74,11.69,21.57l5.21-9.35c25.57-16.91,40.32,24.45,9.95,28.03l8.67,5.89c8.24,10.17,4.02,24.83-8.67,28.5,3.4,3.73,8.34,6.57,8.17,12.25h1.73c23.51-21.68,45.73,19.13,15.76,26.84,5.91,5.3,10.2,10.18,10.51,18.64,2.75-2.21,4.88-7,8.45-8.44,7.76-3.14,19.64.65,21.62,9.28,6.05,26.36-34.78,27.58-30.09.35l-5.35,10.38-8.63,4.79c3.07,4.63,9.15,7.39,8.17,13.99l9.27-6.47c26.39-6.52,31.41,32.13,4.72,32.14l9.85,8.21c7.56,12.15-.63,22.84-12.19,27.36,16.4,8.66,10.47,33.67-8.17,33.25l9.18,8.88c5.56,10.58-1.01,24.37-12.69,26.12,13.03,10.72,10.84,30.86-7,33.83,14.96,10.02,11.52,31.64-6.99,33.83l8.74,9.32c8.18,22.87-24,34.74-32.09,11.68h-1.14c-.98,4.82-6.21,7.17-10.51,8.17v1.71c4.8,4.17,6.61,9.48,5.84,15.77l5.79-7.61c16.09-13.99,37.58,10.26,21.06,24.56-7.65,6.63-17.13,5.13-23.36-2.37l-4.66-11.07c-1.47,6.58-8.35,12.26-15.17,12.84,1.68,2.37,4.45,3.06,6.35,5.88,7.91,11.77.22,28.36-14.51,27.95,1.11,2.28,4.3,2.64,6.3,4.77,14.59,15.59-8.1,38.49-24.27,23.1l-5.35-9.21c-1.69,5.32-7.42,9.35-12.85,10.5,23.82,21.46-12.55,48.94-26.24,19.82-3.67,3.95-7.59,7.98-13.42,8.17,4.9,6.11,8.56,11.67,6.44,19.86-4.32,16.7-29.63,17.23-33.29-.03-4.33,3.3-7.86,8.19-13.98,8.18,6.83,6.56,10.71,14.62,5.68,23.75-7.69,13.94-30.55,10.02-31.35-6.26-4.82,6.74-8.65,6.99-15.16,9.91-2.91,1.31,2.55,3.3,4.12,5.22,14.2,17.27-11.55,37.7-25.11,20.44-8.44-10.74-1.1-24.61,11.65-26.25-1.14-2.25-4.25-2.67-6.29-4.77-1.86-1.91-3.75-5.36-4.21-8.05-4.33,3.3-7.86,8.19-13.98,8.18,24.84,24.3-16.99,49.57-27.42,16.32-9.43,17.43-32.5,11.02-33.25-8.16-1.95-.14-1.07,2.54-2.27,4.13-19.45,25.76-48.95-17.86-15.23-25.14-2.43-2.94-6.71-4.77-8.65-8.25-1.81-3.25-2.05-6.75-1.86-10.4-6.72,9.23-16.64,15.28-26.85,6.45-23.23-20.09,23.78-46.65,26.88-11.12,1.95.14,1.07-2.54,2.27-4.13,2.99-3.96,7.66-7.59,12.88-7.55l-7.49-7.07-3.01-8.08c-1.95.6-2.04,3.05-4.05,4.68-8.63,7.03-24.75,3.77-27.17-7.87-5.09-24.52,28.41-30.12,32.4-7.32l7.04-7.53,4.61-1.81-7.59-13.98c-9.47,15.25-32.3,9.13-30.97-9.97,1.36-19.49,30.68-19.88,32.74-.53,4.08-4.35,7.15-9.2,13.98-9.34-4.54-5.28-9.43-9.66-8.18-17.48l-5.79,7.61c-14.28,12.53-34.82-5.95-23.86-21.53,6.56-9.32,19.12-9.65,26.16-.66l4.66,9.9c1.49-7.2,9.12-12.32,16.34-11.67-2.1-2.58-5.54-3.99-7.52-7.04-14.18-21.85,24.69-40.06,30.87-12.78,4.79-3.86,8.41-8.83,15.14-9.35l-7.23-7.33-2.11-8.98c-2.43,1.65-2.83,4.52-5.42,6.81-9.88,8.73-26.34,2.41-27.29-10.85-1.7-23.55,32.46-24.73,32.74-1.8l7.07-8.66,8.08-3.01c-5.58-4.97-9.88-10.53-9.34-18.65-1.92,1.13-1.75,3.99-3.48,6.42-6.46,9.03-21.13,8.08-26.66-1.35-10.57-18.02,14.58-34.66,27.18-17.85l4.13,11.6c.58-8.33,7.58-12.56,15.17-14.01l-8.74-9.32c-5.12-11.88,3.46-23.38,15.73-24.51-1.4-2.2-4.21-2.26-6.46-4.6-8.29-8.63-4.18-26,8.29-27.97,14.66-2.32,21.42,7.25,20.93,20.93.88-7.66,6.55-15.59,14.58-16.36-3.06-4.63-9.16-7.39-8.17-13.98-3.71.22-5.11,4.4-8.49,6.07-14.81,7.31-30.53-8.43-23.24-23.24,2.97-6.03,8.72-7.68,14.24-10.26-6.86-3.69-11.03-10.17-10.5-18.07-1.98.11-1.31,3.27-2.47,5.1-7.52,11.84-25.82,9.33-29.38-4.15-5.09-19.25,21.12-29.04,30.12-11.46l2.89,9.33c.39-7.96,7.81-11.36,14.01-14.58-5.82-3-10.01-8.97-9.34-15.74-2.21,1.4-2.26,4.21-4.6,6.46-8.59,8.25-25.98,4.23-27.97-8.29-1.88-11.85,4.54-19.99,16.26-20.93-7.34-3.4-12.27-9.64-11.69-18.08-2.21,1.4-2.26,4.21-4.6,6.46-8.23,7.9-25.33,4.49-27.78-7.32s3.29-20.24,14.89-21.89c-5.63-3.74-10.8-8.45-10.51-15.75l-7.73,8c-24.68,11.34-37.68-26.59-10.93-31.35-5.65-4.48-9.31-8.89-10.51-16.31l-8.5,8.39c-3.5,2.5-7.93,1.43-11.32,2.1,2.99,1.87,6.91,2.6,9.36,5.23,9.62,10.32,1.4,27.97-12.17,27.37-17.52-.77-22.09-26.79-2.77-31.8,2.12-.55,3.83-.45,5.58-.8ZM659.19,270.56l-5.84-12.81-10.48,9.91,7.56,7.36,8.76-4.47ZM694.19,277.57c-2.43-5.68-7.31-9.22-5.84-16.32l-11.65,12.25c3.53,1.67,6.06,4.86,7.02,8.74l10.47-4.67ZM582.21,292.72l-4.68-10.48c-3.9,2.51-6.25,7.41-11.65,7.01l7.02,9.32,9.31-5.85ZM611,291.44l-6.08,4.45,3.06,4.18,6.08-4.45-3.06-4.18ZM714.05,307.91c-.02,2.89-2.96,3.58-4.67,5.25l6.18,5.07,4.27-2.74-5.79-7.58ZM532.06,332.4l12.8-11.08c-3.65-3.25-6.77-7.11-6.99-12.24-1.95.6-2.04,3.05-4.05,4.68-4.84,3.94-9.8,3.77-15.77,3.49.55,1.95,3.95,1.25,6.27,2.46,3.76,1.96,8.57,8.17,7.74,12.69ZM757.18,323.06c-4.06-4.24-6.27-7.99-7.01-13.98l-9.32,9.94,6.39,8.58,9.94-4.54ZM570.52,320.74l-8.15,3.51,5.41,5.7,5.16-2.87-2.43-6.33ZM532.04,344.07c-3.7.23-5.11,4.4-8.49,6.08-2.25,1.12-5.38,1.33-7.83,2.1l7.96,6.6,2.54,9.71c2.52-1.8,3.31-5.22,5.78-7.61,1.77-1.72,4.58-3.54,7.04-4.06-3.02-3.87-7.02-7.37-7.01-12.81ZM779.33,353.4c-3.73-.42-3.42,5.99-8.15,5.86l5.25,6.88,7.59-3.42-4.68-9.32ZM827.17,369.75c-9.13-.48-13.08-8.07-14-16.34l-5.19,8.2-6.46,3.47c2.68,4.03,7,7.56,7.01,12.82l8.47-6.1,10.18-2.05ZM564.69,355.73l-8.13,4.08,6.39,7.45,5.25-4.03-3.51-7.51ZM565.87,398.88l-7.01-11.65c-4.24,2.93-8.42,6.27-13.98,5.84,2.1,2.58,5.53,3.99,7.52,7.04,1.59,2.43,2.38,5.3,2.99,8.1,2.38-1.83,2.38-4.67,5.21-7.01,1.52-1.26,3.27-2.18,5.27-2.32ZM807.32,394.23c-3.38-.39-3.05,4.34-7.05,5.3l4.23,7.6,8.67-3.59-5.85-9.31ZM855.16,410.57c-9.13-.48-13.08-8.07-14-16.34l-6.39,8.16-5.25,2.34,8.74,12.79,6.94-4.7,9.97-2.26ZM597.35,404.69l-4.23-6.9-7.4,4.01,5.23,7.56,6.4-4.68ZM620.7,407.08l4.12,5.81,5.09-4.25-2.24-5.09-6.97,3.52ZM663.75,415.09l-2.81-5.67-5.22,4.05,2.34,4.07,5.69-2.45ZM595.03,438.54l-7.58-11.63-12.24,7.57c4.73,2.58,8.72,6.4,8.17,12.25,1.61.3,1.49.24,2.43-.75,2.56-2.71,3.97-7.35,9.23-7.44ZM611.37,439.74l7.58,10.46,8.73-7.56-5.83-8.75-10.48,5.84ZM841.17,444.38l-5.85-9.32-6.71,6.4,3.25,6.42,9.31-3.51ZM660.35,450.2l-5.32-8.13-7.5,3.5,4.68,9.31,8.14-4.69ZM694.19,454.87l-5.24-6.96-7.59,4.66,4.69,6.98,8.14-4.68ZM717.52,458.41l4.09,5.79,3.82-4.05-2.09-4.1-5.81,2.36ZM626.52,477.07c-5.8-1.54-7.88-7.44-11.07-11.66-3.51,3.95-7.82,7.32-13.41,6.99,5.74,4.79,10.52,9.23,9.34,17.48l5.25-6.98,9.89-5.83ZM649.85,473.55c-1.33-.96-9.1,7.27-12.81,5.84,3.3,3.53,8.11,5.97,8.18,11.65l11.65-7.01-7.01-10.48ZM871.49,482.91c-.17-.19-2.76-.61-4.14-2.27-1.91-2.28-2.51-5.02-4.6-7.06l-8.75,7,6.41,9.28c1.91-1.05,3.69-2.79,5.59-3.73,1.2-.59,7.76-.65,5.49-3.22ZM683.67,481.72l-9.31,4.67c1.94,3.17,5.7,5.15,5.84,9.32l8.15-5.85-4.69-8.14ZM721,495.68l-4.05-6.91-6.42,3.47,3.51,6.97,6.96-3.53ZM639.38,528.38l12.8-11.08c-4.53-3.4-6.12-7.51-8.73-12.24-2.59,5.3-8.67,8.23-14.57,8.17l7.5,5.9,3,9.26ZM863.32,516.74c-3.35-.48-5.1-4.07-5.84-7.02l-5.7,5.41,3.4,7.41,7.4-3.5.74-2.31ZM677.09,527.63c2.11-1.64,4.75-2.51,6.6-4.54l-5.85-9.87c-3.41,2.3-5.73,6.24-10.48,5.84l7.58,11.63c.73-.02,1.4-2.48,2.15-3.06ZM704.21,527.62c1.7,2.08,2.58,4.69,4.56,6.57l7.56-6.39-5.23-7.56-8.74,5.82c-.46,1.76,1.25.83,1.84,1.56ZM747.68,535.22l-2.14-5.15-5.85,1.83,2.37,5.79,5.62-2.47ZM677.1,554.81c-2.28-2.69-3.15-6.36-5.66-8.92-3.51,3.96-7.81,7.3-13.41,6.99,2.05,2.57,5.59,4.01,7.53,7.03,1.17,1.83,1.89,3.58,1.81,5.79,3.13.08,3.27-3.37,6.6-5.64,1.76-1.2,4.09-2.22,6.22-2.54.68-.89-2.5-2.02-3.09-2.71ZM895.99,558.72c-5.94-1.17-7.73-6.31-11.07-10.49l-8.73,7.01,4.66,11.63,15.15-8.15ZM702.37,570.37l9.3-7.58c-2.53-2.5-5.56-4.9-5.83-8.75l-9.31,4.68,5.84,11.65ZM744.35,569.18l-4.68-8.14c-2.7,1.67-4.61,4.59-8.15,4.68l4.69,8.14,8.15-4.68ZM667.35,578.54c-5.45,2.05-8.21,7.98-15.15,8.18,2.21,2.75,6.29,4.38,8.01,7.71,1.08,2.08,1.49,3.93,1.32,6.27,5.84-1.49,7.75-9.46,15.16-8.17-4.35-4.09-9.2-7.15-9.34-13.99ZM888.99,592.55c-4.36-1.32-8.55-5.91-9.34-10.51l-8.22,7.64,5.32,9.83,12.24-6.96ZM705.85,598.35c-.87-4.58-6.56-6.2-5.84-11.65-3.5,2.64-6.9,5.86-11.65,5.84l8.75,11.63,8.75-5.83ZM733.84,594.87l-8.13,6.41,5.23,6.4,6.34-5.37-3.43-7.44ZM881.99,626.39c-1.22-1.37-7.71-3.98-8.74-8.17l-7.56,6.39,4.66,8.75c.51.38,3.58-3.18,4.95-3.78,1.46-.65,9.11-.48,6.7-3.19ZM700.02,632.18l-5.84-11.65c-3.9,2.51-6.25,7.41-11.65,7.01l8.75,10.46,8.75-5.83ZM728,629.87l-8.14,3.51,5.24,8.13,6.22-5.21-3.32-6.43ZM761.82,636.86l-5.57,4.06,2.67,4.05,5.06-4.02-2.16-4.09ZM663.86,660.18c.57-.53-6.15-6.35-6.86-7.71-1.56-3-.66-6.27-3.06-8.6-2.63,7.3-9.1,11.39-16.9,10.5l9.87,8.2,3.55,8.12c2.54-5.39,7.16-10.17,13.41-10.51ZM873.83,662.51c.7-.93-7.69-6.67-7.02-9.32l-6.89,4.78,3.43,9.22,10.48-4.68ZM676.69,661.37l8.75,10.46,8.73-7.56-5.83-9.91c-3.9,2.51-6.25,7.41-11.65,7.01ZM722.16,663.7l-8.14,3.51,4.68,8.15,6.93-5.24-3.48-6.42ZM656.86,691.71c-5.5.1-6.74-11.9-8.75-12.85-3.17,6.63-8.36,8.4-14.57,11.08,5.18,2.26,9.02,6.38,9.34,12.24,3.08.76,2.43-2.28,4.59-4.13,3.1-2.65,6.92-3.43,9.4-6.35ZM862.15,688.2l-8.05,5.36,3.42,8.63,11.64-5.84-7.01-8.14ZM688.35,699.83l-5.84-10.48-11.65,5.84c2.5,3.76,6.97,6.64,7.01,11.65l10.48-7.02ZM714.84,697.36l-6.72,5.18,5.23,6.79,6.72-5.18-5.23-6.79ZM649.86,727.84l-8.75-12.79c-2.58,5.17-7.89,5.73-12.24,8.73,5.23,2.25,6.83,6.81,9.91,11.05,2.94-3.32,6.54-6.24,11.08-6.99ZM863.33,731.34l-8.74-10.47-8.75,5.83,6.41,10.46c3.1-3.42,6.03-6.39,11.08-5.82ZM680.13,733.59l-5.19-10.39c-2.73,2.7-5.82,5.73-9.91,5.82l7.58,9.3,7.53-4.74ZM709.57,733.31l-6.43,3.65,3.07,5.41,6.43-3.65-3.07-5.41ZM641.69,761.67c-2.64-3.5-5.86-6.9-5.84-11.65-3.88,3.03-7.38,6.99-12.81,7.01l9.91,10.46,8.75-5.83ZM815.47,752.37l-6.94,4.06,4.06,5.23,6.42-3.49-3.53-5.8ZM669.66,760.53l-8.13,3.5,4.68,6.99,5.91-4.19-2.46-6.3ZM603.2,789.66l-7.58-11.63c-3.71,4.31-7.58,7.36-13.41,8.16l9.91,11.63c3.43-3.03,6.08-7.63,11.08-8.16ZM816.67,792.03l-8.73-6.82-7.59,4.49,5.24,9.29,11.07-6.96ZM630.02,787.35l-9.31,4.68,6.4,6.78,6.33-5.04-3.42-6.42ZM590.36,813.01l-12.81,7.01c1.08,2.09,3.41,2.32,5.2,4.7,1.01,1.34,1.65,2.94,1.8,4.62l10.48-5.85c-.44-3.78-5.33-5.62-4.67-10.48ZM765.36,824.67l6.96-4.08-4.22-3.97-5.09,2.24,2.35,5.81ZM813.17,827.02c-5.1-.89-9.7-5.51-10.5-10.51l-10.48,7.01c-.96,1.33,7.27,9.1,5.84,12.81l5.64-5.43,9.5-3.89ZM617.2,825.86l4.25,4.55,3.8-2.98-2.23-5.09-5.81,3.52ZM730.34,850.31l-3.49-5.31-4.67,1.85,4.08,5.78,4.08-2.32ZM770.01,856.15l-7.02-9.32-9.31,5.85,4.68,10.48c3.9-2.51,6.26-7.41,11.65-7.01ZM578.73,862l8.01-6.39-3.38-7.61c-3.22,2.37-6.27,5.31-10.48,5.84l5.85,8.15ZM723.32,876.02l-9.23,4.74,3.45,10.39c1.89-.23,1.58-2.6,3.51-4.05s4.67-2.51,6.97-2.96l-4.7-8.13ZM576.36,884.16l-10.48,4.68c1.97,3.85,7.35,5.52,7.01,10.49l9.32-5.86-5.85-9.31ZM614.85,900.46l-4.18-6.87-6.3,2.26,5.25,8.13,5.23-3.52ZM652.19,906.31l-5.41-5.63-7.31,3.87,3.41,7.6,9.31-5.85ZM689.52,911.01c-4.41-.79-6.13-5.17-8.74-8.16l-8.75,5.83c1.83,3.88,5.39,6.91,4.68,11.65l12.81-9.32ZM579.87,928.48c-2.73-4.39-8.52-6.84-8.18-12.82-4.69,4.11-8.13,7.9-15.15,7.01l9.06,9,1.44,10.81,3.49-7.58,9.33-6.43ZM606.69,923.83c-4.29.6-6.09,6.53-11.65,5.84v1.72c4.83,3.24,4.98,7.72,7.59,12.26,2.48-4.12,5.97-8.58,11.07-9.34l-7.01-10.48Z" style="fill:aqua;"/><circle cx="598.54" cy="666.02" r="15.82" style="fill:aqua;"/><circle cx="610.2" cy="597.2" r="15.82" style="fill:aqua;"/><circle cx="546.04" cy="761.68" r="15.82" style="fill:aqua;"/><circle cx="504.05" cy="402.39" r="15.82" style="fill:aqua;"/><circle cx="588.04" cy="523.71" r="15.64" style="fill:aqua;"/><circle cx="767.68" cy="906.32" r="15.64" style="fill:aqua;"/><circle cx="560.05" cy="482.88" r="15.64" style="fill:aqua;"/><circle cx="726.86" cy="934.32" r="15.64" style="fill:aqua;"/><circle cx="801.51" cy="314.9" r="15.54" style="fill:aqua;"/><circle cx="604.37" cy="632.19" r="15.54" style="fill:aqua;"/><circle cx="528.54" cy="265.91" r="15.54" style="fill:aqua;"/><circle cx="918.16" cy="652.03" r="15.3" style="fill:aqua;"/><circle cx="885.5" cy="435.06" r="15.3" style="fill:aqua;"/><circle cx="854" cy="816.5" r="15.3" style="fill:aqua;"/><circle cx="551.88" cy="727.85" r="15.3" style="fill:aqua;"/><circle cx="568.21" cy="237.92" r="15.3" style="fill:aqua;"/><circle cx="516.88" cy="933.16" r="15.3" style="fill:aqua;"/><circle cx="807.34" cy="878.33" r="15.3" style="fill:aqua;"/><circle cx="911.16" cy="685.86" r="15.3" style="fill:aqua;"/><circle cx="494.72" cy="858.5" r="15.19" style="fill:aqua;"/><circle cx="687.19" cy="962.32" r="15.19" style="fill:aqua;"/><circle cx="481.89" cy="328.91" r="15.19" style="fill:aqua;"/><circle cx="905.33" cy="719.68" r="15.06" style="fill:aqua;"/><circle cx="923.99" cy="618.2" r="15.06" style="fill:aqua;"/><circle cx="578.71" cy="978.65" r="15.06" style="fill:aqua;"/><circle cx="500.55" cy="824.67" r="15.06" style="fill:aqua;"/><circle cx="582.2" cy="557.53" r="14.72" style="fill:aqua;"/><circle cx="487.72" cy="892.32" r="14.72" style="fill:aqua;"/><circle cx="612.53" cy="984.48" r="14.72" style="fill:aqua;"/><circle cx="544.88" cy="972.81" r="14.72" style="fill:aqua;"/><circle cx="476.05" cy="362.73" r="14.72" style="fill:aqua;"/><circle cx="506.38" cy="790.84" r="14.72" style="fill:aqua;"/><circle cx="487.72" cy="295.07" r="14.61" style="fill:aqua;"/><circle cx="558.87" cy="694.02" r="14.61" style="fill:aqua;"/><circle cx="676.69" cy="222.75" r="14.51" style="fill:aqua;"/><circle cx="899.49" cy="753.51" r="14.51" style="fill:aqua;"/><circle cx="498.22" cy="437.39" r="14.51" style="fill:aqua;"/><circle cx="929.82" cy="583.2" r="14.51" style="fill:aqua;"/><circle cx="773.51" cy="274.08" r="14.51" style="fill:aqua;"/><circle cx="526.21" cy="477.05" r="14.25" style="fill:aqua;"/><circle cx="642.86" cy="215.75" r="14.25" style="fill:aqua;"/><circle cx="576.37" cy="591.37" r="14.25" style="fill:aqua;"/><circle cx="847" cy="850.33" r="14.25" style="fill:aqua;"/><circle cx="564.71" cy="660.19" r="14.25" style="fill:aqua;"/><circle cx="554.21" cy="517.88" r="14.25" style="fill:aqua;"/><circle cx="470.22" cy="396.56" r="14.15" style="fill:aqua;"/><circle cx="913.5" cy="474.72" r="14.15" style="fill:aqua;"/><circle cx="512.22" cy="755.85" r="14.15" style="fill:aqua;"/><circle cx="570.54" cy="625.2" r="13.93" style="fill:aqua;"/><circle cx="481.89" cy="926.16" r="13.93" style="fill:aqua;"/><circle cx="646.36" cy="991.48" r="13.93" style="fill:aqua;"/><circle cx="710.52" cy="228.58" r="13.93" style="fill:aqua;"/><circle cx="609.03" cy="209.92" r="13.8" style="fill:aqua;"/><circle cx="760.68" cy="941.32" r="13.8" style="fill:aqua;"/><circle cx="534.38" cy="232.08" r="13.8" style="fill:aqua;"/><circle cx="509.88" cy="966.98" r="13.8" style="fill:aqua;"/><circle cx="863.33" cy="360.4" r="13.69" style="fill:aqua;"/><circle cx="893.66" cy="788.51" r="13.69" style="fill:aqua;"/><circle cx="935.66" cy="549.37" r="13.69" style="fill:aqua;"/><circle cx="518.05" cy="722.02" r="13.57" style="fill:aqua;"/><circle cx="835.34" cy="320.74" r="13.57" style="fill:aqua;"/><circle cx="801.51" cy="912.16" r="13.57" style="fill:aqua;"/><circle cx="494.72" cy="260.08" r="13.57" style="fill:aqua;"/><circle cx="721.02" cy="969.32" r="13.57" style="fill:aqua;"/><circle cx="459.72" cy="852.66" r="13.33" style="fill:aqua;"/><circle cx="891.33" cy="401.23" r="13.19" style="fill:aqua;"/><circle cx="466.72" cy="818.84" r="13.19" style="fill:aqua;"/><circle cx="548.38" cy="551.71" r="13.04" style="fill:aqua;"/><circle cx="453.89" cy="886.49" r="13.04" style="fill:aqua;"/><circle cx="745.52" cy="234.42" r="12.9" style="fill:aqua;"/><circle cx="472.55" cy="783.84" r="12.9" style="fill:aqua;"/><circle cx="442.22" cy="356.9" r="12.9" style="fill:aqua;"/><circle cx="464.39" cy="431.56" r="12.9" style="fill:aqua;"/><circle cx="492.38" cy="471.22" r="12.9" style="fill:aqua;"/><circle cx="448.06" cy="323.07" r="12.9" style="fill:aqua;"/><circle cx="523.88" cy="688.19" r="12.9" style="fill:aqua;"/><circle cx="807.34" cy="279.91" r="12.76" style="fill:aqua;"/><circle cx="841.17" cy="884.16" r="12.76" style="fill:aqua;"/><circle cx="574.04" cy="204.09" r="12.76" style="fill:aqua;"/><circle cx="572.87" cy="1012.48" r="12.76" style="fill:aqua;"/><circle cx="681.36" cy="997.31" r="12.76" style="fill:aqua;"/><circle cx="476.05" cy="961.15" r="12.76" style="fill:aqua;"/><circle cx="520.38" cy="510.88" r="12.76" style="fill:aqua;"/><circle cx="537.88" cy="1006.64" r="12.52" style="fill:aqua;"/><circle cx="448.06" cy="920.32" r="12.52" style="fill:aqua;"/><circle cx="887.83" cy="822.34" r="12.52" style="fill:aqua;"/><circle cx="941.49" cy="515.54" r="12.29" style="fill:aqua;"/><circle cx="530.88" cy="654.36" r="12.29" style="fill:aqua;"/><circle cx="453.89" cy="288.07" r="12.29" style="fill:aqua;"/><circle cx="478.39" cy="750.01" r="12.29" style="fill:aqua;"/><circle cx="542.54" cy="585.54" r="12.01" style="fill:aqua;"/><circle cx="536.71" cy="619.36" r="12.01" style="fill:aqua;"/><circle cx="436.39" cy="390.73" r="12.01" style="fill:aqua;"/><circle cx="606.7" cy="1019.48" r="12.01" style="fill:aqua;"/><circle cx="504.05" cy="1000.81" r="12.01" style="fill:aqua;"/><circle cx="919.33" cy="440.89" r="12.01" style="fill:aqua;"/><circle cx="951.99" cy="657.86" r="11.71" style="fill:aqua;"/><circle cx="425.89" cy="846.83" r="11.71" style="fill:aqua;"/><circle cx="500.55" cy="226.25" r="11.71" style="fill:aqua;"/><circle cx="484.22" cy="716.19" r="11.71" style="fill:aqua;"/><circle cx="946.16" cy="691.69" r="11.71" style="fill:aqua;"/><circle cx="754.85" cy="975.15" r="11.54" style="fill:aqua;"/><circle cx="431.72" cy="811.83" r="11.54" style="fill:aqua;"/><circle cx="940.32" cy="725.51" r="11.54" style="fill:aqua;"/><circle cx="957.82" cy="624.03" r="11.54" style="fill:aqua;"/><circle cx="442.22" cy="955.32" r="11.4" style="fill:aqua;"/><circle cx="779.34" cy="240.25" r="11.4" style="fill:aqua;"/><circle cx="640.53" cy="1025.31" r="11.4" style="fill:aqua;"/><circle cx="420.06" cy="880.66" r="11.4" style="fill:aqua;"/><circle cx="795.68" cy="947.15" r="11.4" style="fill:aqua;"/><circle cx="459.72" cy="254.24" r="11.11" style="fill:aqua;"/><circle cx="430.56" cy="424.55" r="11.11" style="fill:aqua;"/><circle cx="540.21" cy="198.25" r="11.11" style="fill:aqua;"/><circle cx="458.56" cy="465.38" r="11.11" style="fill:aqua;"/><circle cx="869.17" cy="326.57" r="10.97" style="fill:aqua;"/><circle cx="470.22" cy="994.98" r="10.97" style="fill:aqua;"/><circle cx="648.7" cy="181.93" r="10.97" style="fill:aqua;"/><circle cx="715.19" cy="1003.15" r="10.97" style="fill:aqua;"/><circle cx="682.53" cy="187.76" r="10.97" style="fill:aqua;"/><circle cx="486.55" cy="505.05" r="10.97" style="fill:aqua;"/><circle cx="514.55" cy="545.88" r="10.97" style="fill:aqua;"/><circle cx="933.32" cy="760.51" r="10.97" style="fill:aqua;"/><circle cx="490.05" cy="682.36" r="10.97" style="fill:aqua;"/><circle cx="437.56" cy="778.01" r="10.97" style="fill:aqua;"/><circle cx="882" cy="856.17" r="10.97" style="fill:aqua;"/><circle cx="897.17" cy="366.23" r="10.83" style="fill:aqua;"/><circle cx="963.66" cy="589.03" r="10.83" style="fill:aqua;"/><circle cx="414.23" cy="914.49" r="10.83" style="fill:aqua;"/><circle cx="614.87" cy="176.09" r="10.52" style="fill:aqua;"/><circle cx="841.17" cy="286.91" r="10.52" style="fill:aqua;"/><circle cx="408.39" cy="351.07" r="10.52" style="fill:aqua;"/><circle cx="835.34" cy="919.16" r="10.52" style="fill:aqua;"/><circle cx="444.56" cy="744.18" r="10.52" style="fill:aqua;"/><circle cx="414.23" cy="317.24" r="10.52" style="fill:aqua;"/><circle cx="947.32" cy="481.72" r="10.52" style="fill:aqua;"/><circle cx="717.52" cy="194.76" r="10.37" style="fill:aqua;"/><circle cx="495.88" cy="647.36" r="10.2" style="fill:aqua;"/><circle cx="401.4" cy="384.89" r="10.2" style="fill:aqua;"/><circle cx="927.49" cy="794.34" r="10.2" style="fill:aqua;"/><circle cx="420.06" cy="282.24" r="10.05" style="fill:aqua;"/><circle cx="674.36" cy="1031.14" r="10.05" style="fill:aqua;"/><circle cx="532.05" cy="1041.64" r="10.05" style="fill:aqua;"/><circle cx="925.16" cy="407.06" r="10.05" style="fill:aqua;"/><circle cx="392.06" cy="841" r="10.05" style="fill:aqua;"/><circle cx="408.39" cy="948.32" r="9.7" style="fill:aqua;"/><circle cx="567.04" cy="1047.47" r="9.7" style="fill:aqua;"/><circle cx="397.89" cy="806" r="9.7" style="fill:aqua;"/><circle cx="969.48" cy="555.2" r="9.7" style="fill:aqua;"/><circle cx="450.39" cy="710.35" r="9.7" style="fill:aqua;"/><circle cx="386.23" cy="874.83" r="9.7" style="fill:aqua;"/><circle cx="436.39" cy="989.14" r="9.7" style="fill:aqua;"/><circle cx="508.71" cy="579.7" r="9.7" style="fill:aqua;"/><circle cx="600.87" cy="1053.31" r="9.49" style="fill:aqua;"/><circle cx="875" cy="890" r="9.49" style="fill:aqua;"/><circle cx="465.55" cy="220.42" r="9.49" style="fill:aqua;"/><circle cx="498.22" cy="1034.64" r="9.49" style="fill:aqua;"/><circle cx="380.4" cy="908.66" r="9.49" style="fill:aqua;"/><circle cx="581.04" cy="170.26" r="9.49" style="fill:aqua;"/><circle cx="403.73" cy="772.18" r="9.49" style="fill:aqua;"/><circle cx="423.56" cy="459.55" r="9.49" style="fill:aqua;"/><circle cx="506.38" cy="192.42" r="9.49" style="fill:aqua;"/><circle cx="751.35" cy="200.59" r="9.49" style="fill:aqua;"/><circle cx="813.17" cy="246.08" r="9.49" style="fill:aqua;"/><circle cx="395.56" cy="418.73" r="9.49" style="fill:aqua;"/><circle cx="501.72" cy="613.53" r="9.49" style="fill:aqua;"/><circle cx="464.39" cy="1028.8" r="9.02" style="fill:aqua;"/><circle cx="451.55" cy="499.21" r="9.02" style="fill:aqua;"/><circle cx="921.66" cy="828.16" r="9.02" style="fill:aqua;"/><circle cx="789.84" cy="980.98" r="9.02" style="fill:aqua;"/><circle cx="749.02" cy="1008.97" r="8.84" style="fill:aqua;"/><circle cx="480.72" cy="538.87" r="8.84" style="fill:aqua;"/><circle cx="409.56" cy="738.34" r="8.84" style="fill:aqua;"/><circle cx="425.89" cy="248.41" r="8.84" style="fill:aqua;"/><circle cx="829.5" cy="952.98" r="8.67" style="fill:aqua;"/><circle cx="456.22" cy="675.35" r="8.67" style="fill:aqua;"/><circle cx="373.4" cy="345.24" r="8.44" style="fill:aqua;"/><circle cx="954.32" cy="446.72" r="8.44" style="fill:aqua;"/><circle cx="373.4" cy="942.49" r="8.44" style="fill:aqua;"/><circle cx="379.23" cy="310.24" r="8.44" style="fill:aqua;"/><circle cx="634.7" cy="1059.14" r="8.44" style="fill:aqua;"/><circle cx="401.4" cy="983.32" r="8.44" style="fill:aqua;"/><circle cx="975.32" cy="521.38" r="8.44" style="fill:aqua;"/><circle cx="358.24" cy="834.01" r="8.44" style="fill:aqua;"/><circle cx="709.35" cy="1036.97" r="8.22" style="fill:aqua;"/><circle cx="546.04" cy="164.42" r="8.22" style="fill:aqua;"/><circle cx="367.57" cy="379.06" r="8.22" style="fill:aqua;"/><circle cx="364.07" cy="800.17" r="8.22" style="fill:aqua;"/><circle cx="985.82" cy="663.69" r="8" style="fill:aqua;"/><circle cx="904.16" cy="332.4" r="8" style="fill:aqua;"/><circle cx="416.56" cy="704.52" r="8" style="fill:aqua;"/><circle cx="369.9" cy="766.34" r="8" style="fill:aqua;"/><circle cx="785.18" cy="206.42" r="8" style="fill:aqua;"/><circle cx="430.56" cy="1022.97" r="8" style="fill:aqua;"/><circle cx="389.73" cy="452.55" r="8" style="fill:aqua;"/><circle cx="875" cy="292.74" r="8" style="fill:aqua;"/><circle cx="351.24" cy="868.99" r="8" style="fill:aqua;"/><circle cx="979.98" cy="697.52" r="8" style="fill:aqua;"/><circle cx="974.15" cy="732.52" r="7.8" style="fill:aqua;"/><circle cx="915.83" cy="862" r="7.8" style="fill:aqua;"/><circle cx="345.4" cy="902.83" r="7.8" style="fill:aqua;"/><circle cx="869.17" cy="924.99" r="7.8" style="fill:aqua;"/><circle cx="462.05" cy="641.53" r="7.8" style="fill:aqua;"/><circle cx="386.23" cy="276.41" r="7.8" style="fill:aqua;"/><circle cx="361.75" cy="412.88" r="7.43" style="fill:aqua;"/><circle cx="472.57" cy="186.58" r="7.43" style="fill:aqua;"/><circle cx="991.65" cy="629.86" r="7.21" style="fill:aqua;"/><circle cx="932.16" cy="373.23" r="7.21" style="fill:aqua;"/><circle cx="968.32" cy="766.34" r="7.21" style="fill:aqua;"/><circle cx="375.73" cy="732.51" r="7.21" style="fill:aqua;"/><circle cx="431.72" cy="214.58" r="7.21" style="fill:aqua;"/><circle cx="417.73" cy="493.38" r="7.21" style="fill:aqua;"/><circle cx="847" cy="251.91" r="7.21" style="fill:aqua;"/><circle cx="367.57" cy="977.48" r="7.21" style="fill:aqua;"/><circle cx="668.53" cy="1064.97" r="7.21" style="fill:aqua;"/><circle cx="492.38" cy="1069.64" r="7.21" style="fill:aqua;"/><circle cx="526.21" cy="1075.47" r="7.21" style="fill:aqua;"/><circle cx="560.04" cy="1081.3" r="7.21" style="fill:aqua;"/><circle cx="688.36" cy="153.93" r="6.96" style="fill:aqua;"/><circle cx="512.21" cy="158.59" r="6.96" style="fill:aqua;"/><circle cx="654.53" cy="148.1" r="6.96" style="fill:aqua;"/><circle cx="422.39" cy="669.52" r="6.96" style="fill:aqua;"/><circle cx="395.56" cy="1017.14" r="6.96" style="fill:aqua;"/><circle cx="339.57" cy="936.66" r="6.96" style="fill:aqua;"/><circle cx="473.72" cy="573.87" r="6.96" style="fill:aqua;"/><circle cx="458.56" cy="1062.64" r="6.96" style="fill:aqua;"/><circle cx="620.7" cy="142.26" r="6.96" style="fill:aqua;"/><circle cx="323.24" cy="828.17" r="6.96" style="fill:aqua;"/><circle cx="392.06" cy="242.57" r="6.46" style="fill:aqua;"/><circle cx="782.84" cy="1014.8" r="6.46" style="fill:aqua;"/><circle cx="445.72" cy="533.03" r="6.46" style="fill:aqua;"/><circle cx="997.48" cy="596.02" r="6.46" style="fill:aqua;"/><circle cx="467.89" cy="607.69" r="6.46" style="fill:aqua;"/><circle cx="982.32" cy="487.54" r="6.46" style="fill:aqua;"/><circle cx="317.41" cy="861.99" r="6.46" style="fill:aqua;"/><circle cx="330.24" cy="794.33" r="6.46" style="fill:aqua;"/><circle cx="595.04" cy="1087.12" r="6.46" style="fill:aqua;"/><circle cx="909.99" cy="896.99" r="6.19" style="fill:aqua;"/><circle cx="823.67" cy="986.81" r="6.19" style="fill:aqua;"/><circle cx="723.35" cy="159.76" r="6.19" style="fill:aqua;"/><circle cx="960.15" cy="412.89" r="6.19" style="fill:aqua;"/><circle cx="743.18" cy="1042.81" r="6.19" style="fill:aqua;"/><circle cx="961.32" cy="800.17" r="6.19" style="fill:aqua;"/><circle cx="336.07" cy="760.51" r="6.19" style="fill:aqua;"/><circle cx="333.74" cy="373.23" r="6.19" style="fill:aqua;"/><circle cx="339.57" cy="338.24" r="6.19" style="fill:aqua;"/><circle cx="355.9" cy="446.72" r="6.19" style="fill:aqua;"/><circle cx="381.57" cy="697.52" r="6.19" style="fill:aqua;"/><circle cx="311.57" cy="896.99" r="6.19" style="fill:aqua;"/><circle cx="819.01" cy="212.25" r="5.96" style="fill:aqua;"/><circle cx="586.88" cy="136.42" r="5.96" style="fill:aqua;"/><circle cx="423.57" cy="1056.8" r="5.96" style="fill:aqua;"/><circle cx="383.91" cy="487.54" r="5.96" style="fill:aqua;"/><circle cx="345.41" cy="304.4" r="5.96" style="fill:aqua;"/><circle cx="327.9" cy="407.05" r="5.73" style="fill:aqua;"/><circle cx="361.73" cy="1011.31" r="5.73" style="fill:aqua;"/><circle cx="341.9" cy="725.51" r="5.73" style="fill:aqua;"/><circle cx="863.33" cy="958.81" r="5.73" style="fill:aqua;"/><circle cx="703.52" cy="1070.8" r="5.73" style="fill:aqua;"/><circle cx="333.74" cy="970.48" r="5.73" style="fill:aqua;"/><circle cx="1004.48" cy="561.03" r="5.43" style="fill:aqua;"/><circle cx="305.74" cy="930.82" r="5.43" style="fill:aqua;"/><circle cx="628.87" cy="1092.96" r="5.43" style="fill:aqua;"/><circle cx="289.41" cy="822.33" r="5.43" style="fill:aqua;"/><circle cx="437.56" cy="180.75" r="5.43" style="fill:aqua;"/><circle cx="955.49" cy="834" r="5.43" style="fill:aqua;"/><circle cx="283.57" cy="856.16" r="5.15" style="fill:aqua;"/><circle cx="295.24" cy="788.5" r="5.15" style="fill:aqua;"/><circle cx="757.18" cy="165.59" r="5.15" style="fill:aqua;"/><circle cx="351.23" cy="270.57" r="5.15" style="fill:aqua;"/><circle cx="389.73" cy="1050.97" r="5.15" style="fill:aqua;"/><circle cx="909.99" cy="298.57" r="5.15" style="fill:aqua;"/><circle cx="428.22" cy="635.69" r="5.15" style="fill:aqua;"/><circle cx="478.39" cy="151.59" r="4.73" style="fill:aqua;"/><circle cx="882" cy="258.91" r="4.73" style="fill:aqua;"/><circle cx="397.9" cy="208.75" r="4.73" style="fill:aqua;"/><circle cx="486.55" cy="1103.47" r="4.73" style="fill:aqua;"/><circle cx="301.08" cy="754.68" r="4.73" style="fill:aqua;"/><circle cx="387.4" cy="663.69" r="4.73" style="fill:aqua;"/><circle cx="520.38" cy="1109.3" r="4.73" style="fill:aqua;"/><circle cx="411.89" cy="527.21" r="4.73" style="fill:aqua;"/><circle cx="347.74" cy="691.69" r="4.73" style="fill:aqua;"/><circle cx="350.07" cy="481.72" r="4.73" style="fill:aqua;"/><circle cx="988.15" cy="452.55" r="4.73" style="fill:aqua;"/><circle cx="322.07" cy="440.89" r="4.73" style="fill:aqua;"/><circle cx="551.88" cy="129.43" r="4.73" style="fill:aqua;"/><circle cx="327.91" cy="1005.48" r="4.73" style="fill:aqua;"/><circle cx="937.99" cy="338.24" r="4.73" style="fill:aqua;"/><circle cx="277.75" cy="891.16" r="4.73" style="fill:aqua;"/><circle cx="305.75" cy="332.4" r="4.42" style="fill:aqua;"/><circle cx="355.91" cy="1045.14" r="4.42" style="fill:aqua;"/><circle cx="294.08" cy="401.22" r="4.42" style="fill:aqua;"/><circle cx="299.91" cy="367.39" r="4.42" style="fill:aqua;"/><circle cx="299.91" cy="964.65" r="4.42" style="fill:aqua;"/><circle cx="904.17" cy="930.82" r="4.42" style="fill:aqua;"/><circle cx="554.21" cy="1115.13" r="4.42" style="fill:aqua;"/><circle cx="308.08" cy="719.68" r="4.42" style="fill:aqua;"/><circle cx="452.73" cy="1097.63" r="4.42" style="fill:aqua;"/><circle cx="965.99" cy="379.06" r="3.74" style="fill:aqua;"/><circle cx="1010.31" cy="527.21" r="3.74" style="fill:aqua;"/><circle cx="817.84" cy="1020.64" r="3.74" style="fill:aqua;"/><circle cx="949.65" cy="869" r="3.74" style="fill:aqua;"/><circle cx="791.01" cy="172.59" r="3.74" style="fill:aqua;"/><circle cx="378.07" cy="521.38" r="3.74" style="fill:aqua;"/><circle cx="344.24" cy="515.54" r="3.74" style="fill:aqua;"/><circle cx="271.91" cy="924.99" r="3.74" style="fill:aqua;"/><circle cx="267.25" cy="747.68" r="3.74" style="fill:aqua;"/><circle cx="1007.98" cy="738.35" r="3.74" style="fill:aqua;"/><circle cx="777.01" cy="1048.64" r="3.74" style="fill:aqua;"/><circle cx="255.58" cy="816.5" r="3.74" style="fill:aqua;"/><circle cx="1013.81" cy="703.35" r="3.74" style="fill:aqua;"/><circle cx="311.57" cy="298.57" r="3.74" style="fill:aqua;"/><circle cx="313.91" cy="685.86" r="3.74" style="fill:aqua;"/><circle cx="315.07" cy="474.72" r="3.74" style="fill:aqua;"/><circle cx="358.23" cy="236.75" r="3.74" style="fill:aqua;"/><circle cx="1019.65" cy="669.52" r="3.74" style="fill:aqua;"/><circle cx="737.35" cy="1076.64" r="3.74" style="fill:aqua;"/><circle cx="852.83" cy="218.08" r="3.74" style="fill:aqua;"/><circle cx="287.08" cy="435.06" r="3.74" style="fill:aqua;"/><circle cx="353.57" cy="657.86" r="3.74" style="fill:aqua;"/><circle cx="417.73" cy="1091.8" r="3.74" style="fill:aqua;"/><circle cx="249.75" cy="850.33" r="3.74" style="fill:aqua;"/><circle cx="662.69" cy="1098.8" r="3.74" style="fill:aqua;"/><circle cx="439.89" cy="568.04" r="3.74" style="fill:aqua;"/><circle cx="294.08" cy="998.48" r="3.74" style="fill:aqua;"/><circle cx="261.41" cy="782.68" r="3.74" style="fill:aqua;"/><circle cx="588.04" cy="1120.96" r="3.74" style="fill:aqua;"/></g></svg>