<?xml version="1.0" encoding="UTF-8"?><svg id="b" xmlns="http://www.w3.org/2000/svg" viewBox="0 0 1200 800"><path d="M384.34,507.76c1.91-.49,1.97-3.4,3.47-5.25,29.23-35.92,79.54,3.24,57.29,38.66-20.9,33.28-71.38,11.18-63.11-26.42-5.66,8-12.22,15.53-22.35,17.81-43.64,9.82-58.89-48.81-23.31-64.07,27-11.58,52.77,11.09,48.02,39.27Z" style="fill:aqua;"/><circle cx="440.22" cy="457.7" r="33.89" style="fill:aqua;"/><circle cx="221.32" cy="451.88" r="33.35" style="fill:aqua;"/><circle cx="504.26" cy="480.98" r="31.85" style="fill:aqua;"/><circle cx="244.61" cy="386.67" r="31.85" style="fill:aqua;"/><circle cx="480.97" cy="546.19" r="31.74" style="fill:aqua;"/><circle cx="262.07" cy="540.37" r="31.68" style="fill:aqua;"/><circle cx="327.28" cy="563.66" r="31.45" style="fill:aqua;"/><circle cx="546.18" cy="570.64" r="31.07" style="fill:aqua;"/><circle cx="179.4" cy="363.38" r="30.91" style="fill:aqua;"/><circle cx="286.52" cy="475.16" r="30.51" style="fill:aqua;"/><circle cx="375.02" cy="434.41" r="30.13" style="fill:aqua;"/><circle cx="203.85" cy="298.18" r="29.97" style="fill:aqua;"/><circle cx="676.59" cy="617.22" r="29.69" style="fill:aqua;"/><circle cx="688.23" cy="180.58" r="29.51" style="fill:aqua;"/><circle cx="463.51" cy="392.49" r="28.96" style="fill:aqua;"/><circle cx="392.48" cy="588.11" r="28.65" style="fill:aqua;"/><circle cx="528.71" cy="416.94" r="27.96" style="fill:aqua;"/><circle cx="765.08" cy="576.46" r="27.54" style="fill:aqua;"/><circle cx="989.8" cy="363.38" r="27.54" style="fill:aqua;"/><circle cx="1013.09" cy="298.18" r="27.24" style="fill:aqua;"/><circle cx="599.74" cy="221.33" r="26.87" style="fill:aqua;"/><circle cx="876.86" cy="469.34" r="26.67" style="fill:aqua;"/><circle cx="457.69" cy="611.4" r="25.76" style="fill:aqua;"/><circle cx="575.29" cy="286.54" r="25.05" style="fill:aqua;"/><circle cx="267.89" cy="321.47" r="24.85" style="fill:aqua;"/><circle cx="398.3" cy="369.21" r="24.85" style="fill:aqua;"/><circle cx="552" cy="351.74" r="24.19" style="fill:aqua;"/><circle cx="522.89" cy="634.68" r="24.12" style="fill:aqua;"/><circle cx="907.13" cy="186.4" r="22.98" style="fill:aqua;"/><circle cx="971.17" cy="209.69" r="22.63" style="fill:aqua;"/><circle cx="586.93" cy="659.13" r="22.63" style="fill:aqua;"/><circle cx="486.8" cy="328.45" r="22.33" style="fill:aqua;"/><circle cx="965.35" cy="428.59" r="22.02" style="fill:aqua;"/><circle cx="198.03" cy="517.08" r="22.02" style="fill:aqua;"/><circle cx="853.57" cy="534.54" r="21.72" style="fill:aqua;"/><circle cx="623.03" cy="156.13" r="21.57" style="fill:aqua;"/><circle cx="841.93" cy="163.11" r="21.24" style="fill:aqua;"/><circle cx="156.12" cy="428.59" r="20.37" style="fill:aqua;"/><circle cx="740.63" cy="641.67" r="20.02" style="fill:aqua;"/><circle cx="776.72" cy="138.66" r="19.41" style="fill:aqua;"/><circle cx="421.59" cy="304" r="19.33" style="fill:aqua;"/><circle cx="227.14" cy="232.98" r="19.33" style="fill:aqua;"/><circle cx="652.14" cy="682.42" r="17.79" style="fill:aqua;"/><circle cx="309.81" cy="411.12" r="17.58" style="fill:aqua;"/><circle cx="711.52" cy="115.37" r="16.64" style="fill:aqua;"/><circle cx="138.65" cy="274.89" r="16.3" style="fill:aqua;"/><circle cx="303.99" cy="628.86" r="16.3" style="fill:aqua;"/><circle cx="829.12" cy="599.75" r="16.2" style="fill:aqua;"/><circle cx="1036.38" cy="232.97" r="16.2" style="fill:aqua;"/><circle cx="369.19" cy="653.31" r="16.2" style="fill:aqua;"/><circle cx="942.06" cy="493.79" r="16.2" style="fill:aqua;"/><circle cx="511.25" cy="263.25" r="15.03" style="fill:aqua;"/><circle cx="433.23" cy="676.6" r="15.03" style="fill:aqua;"/><circle cx="292.35" cy="257.42" r="13.66" style="fill:aqua;"/><circle cx="161.94" cy="209.69" r="13.01" style="fill:aqua;"/><circle cx="498.44" cy="699.89" r="13.01" style="fill:aqua;"/><circle cx="238.79" cy="605.57" r="12.74" style="fill:aqua;"/><circle cx="333.1" cy="345.92" r="12.74" style="fill:aqua;"/><circle cx="446.04" cy="238.8" r="11.99" style="fill:aqua;"/><circle cx="534.54" cy="198.04" r="11.99" style="fill:aqua;"/><circle cx="1053.84" cy="386.67" r="11.99" style="fill:aqua;"/><circle cx="115.36" cy="340.1" r="11.99" style="fill:aqua;"/><circle cx="646.31" cy="92.09" r="11.68" style="fill:aqua;"/><circle cx="1078.3" cy="322.63" r="11.09" style="fill:aqua;"/><circle cx="918.78" cy="559" r="10.5" style="fill:aqua;"/><circle cx="557.82" cy="132.84" r="10.5" style="fill:aqua;"/><circle cx="563.64" cy="724.34" r="10.5" style="fill:aqua;"/><circle cx="357.55" cy="280.72" r="9.48" style="fill:aqua;"/><circle cx="717.34" cy="705.71" r="9.48" style="fill:aqua;"/><circle cx="805.84" cy="664.95" r="9.17" style="fill:aqua;"/><circle cx="250.43" cy="167.77" r="9.17" style="fill:aqua;"/><circle cx="1030.56" cy="451.87" r="8.82" style="fill:aqua;"/><circle cx="185.22" cy="144.48" r="7.78" style="fill:aqua;"/><circle cx="380.84" cy="215.51" r="6.95" style="fill:aqua;"/><circle cx="628.86" cy="747.62" r="5.94" style="fill:aqua;"/><circle cx="930.43" cy="121.19" r="5.94" style="fill:aqua;"/><circle cx="582.27" cy="67.63" r="5.42" style="fill:aqua;"/><circle cx="1007.27" cy="517.07" r="5.42" style="fill:aqua;"/><circle cx="132.83" cy="493.79" r="5.42" style="fill:aqua;"/><circle cx="315.63" cy="192.21" r="5.42" style="fill:aqua;"/><circle cx="865.22" cy="97.9" r="5.42" style="fill:aqua;"/><circle cx="1101.58" cy="257.42" r="5.42" style="fill:aqua;"/><circle cx="995.63" cy="144.48" r="5.42" style="fill:aqua;"/><circle cx="894.33" cy="623.03" r="5.42" style="fill:aqua;"/><circle cx="800.01" cy="73.46" r="4.72" style="fill:aqua;"/><circle cx="469.33" cy="174.76" r="4.72" style="fill:aqua;"/><circle cx="734.81" cy="50.17" r="3.73" style="fill:aqua;"/><circle cx="404.13" cy="150.3" r="3.73" style="fill:aqua;"/><circle cx="1060.83" cy="168.93" r="3.73" style="fill:aqua;"/><circle cx="96.73" cy="186.4" r="3.73" style="fill:aqua;"/><circle cx="274.88" cy="103.73" r="3.73" style="fill:aqua;"/><circle cx="209.68" cy="79.28" r="3.73" style="fill:aqua;"/></svg>