<?xml version="1.0" encoding="UTF-8"?><svg id="b" xmlns="http://www.w3.org/2000/svg" viewBox="0 0 1200 1200"><g id="c"><path d="M909.5,677c7.85,1.3,18.89,12.43,20.81,20.19,7.81,31.43-27.76,50.79-50.3,28.81,9.6,30.09-20.17,56.94-49,43,.44,8.97-2.54,17.96-8.01,24.99,60.94,7,23.6,91.77-22.99,51.01,10.23,33.83-26.51,58.54-54,36,6.25,32.17-30.93,53.6-56,32,6.66,36.28-38.4,54.45-60,25,11.8,26.47-13.42,53.39-40.38,40.87-19.47-9.04-21.68-35.59-6.63-49.86-15.52,4.9-29.38-.42-39.99-12.01,10.91,28.09-21.98,54.24-45.53,34.02-33.93-29.13,19.2-75.33,44.51-36.02-.6-3.22-2.59-5.7-3.51-8.98-3.43-12.27.32-23.73,8.52-33.01-28.18,6.26-50.41-26.24-32.41-49.92,11.83-15.57,33-17.25,47.4-4.09-5.57-25.58,16.95-48.93,42.83-41.32,4.1,1.21,7.26,4.02,11.18,5.31-1.43-12.84,3.23-26.81,15-33.01.28-1.62-1.27-1.01-2.26-.77-8.78,2.07-14.95,3.36-23.63-.81-23.9-11.48-18.3-49.88,7.49-53.32,31.94-4.26,45.51,32.93,21.41,51.91,11.85-4.55,25.46-4.82,35.99,3.01-1.25-12.38,3.21-22.58,12.01-30.99-32.27,9.9-53.21-34.91-24.91-52.42,29.95-18.53,59.84,19.5,36.91,45.4,9.56-1.65,19.29-1.89,27.99,3.01,1.01-5.01,1.36-9.38,3.25-14.26,1.58-4.08,4.45-6.76,5.75-10.74-25.49,2.78-42.74-24.33-30.16-46.67,9.28-16.47,31.09-20.6,46.16-9.33-.93-10.83,1.77-21.3,9-29.5-56.91-.77-40.7-82.55,12-60.5-.66-7.32,1.13-14.34,4.01-20.99-3.94.43-7.66-.85-11.26-2.25-4.08-1.58-6.76-4.45-10.74-5.75,2.13,26.02-28.52,42.22-49.02,25.51-23.98-19.55-7.29-56.91,23.52-53.52,4.97.55,9.04,3.16,13.49,5-1.58-8.13.18-16.65,4.01-23.99-3.64.36-6.76-.35-10.21-1.3-5.29-1.46-8.96-4.65-13.78-6.7,1.91,15.26-10.37,30.46-25.52,31.98-32.07,3.22-46.66-33.2-23.49-53.98-29.6,10.69-55.79-17.22-43-46-11.6.3-22.47-4.45-30.99-12.01,4.49,29.34-36.84,42.13-49.41,15.9-12.49-26.06,18.22-49.74,40.39-31.9-4.12-12.19-1.18-24.14,5.01-34.99-62.16-13.51-15.08-96.79,28.99-50.01-10.69-24.93,10.33-51.09,37.03-43.52,19.68,5.58,27.78,29.5,16.98,46.51,8.57-.62,15.67.31,23.32,4.19,2.18,1.1,5.02,4.32,6.19,4.81,2.03.86,1.41-1.39,1.49-2.48,3.17-46.13,65.44-36.8,59.91,4.9-.84,6.38-4.8,11.91-8.92,16.58,24.55-5.96,47.2,12.7,43.74,38.25-.67,4.92-3.33,9.12-4.74,13.75,12.88-.42,23.33,4.84,31.99,14-10.49-32.2,35.81-50.83,50.19-21.68,14.09,28.57-21.54,53.23-44.17,31.68,3.01,11.21,1.71,20.19-2.01,31,10.39-.64,19.82,5.06,26.99,12-6.77-27.25,27.22-46.79,47-26.49,20.09,20.62-1.18,55.31-29.54,45.54-3.87-1.33-5.91-3.73-9.45-5.04,2,10.37,1.9,20.91-4,29.98,13.62-.55,24.4,7.54,31.99,18.01-4.77-9.83-5.15-20.05,1.17-29.34,12.24-17.98,41.01-13.36,47.35,7.32,8.82,28.73-28.76,47.19-47.51,24.02,4.94,13.18,4.12,26.33-4.01,37.99,55.34,1.25,41.65,80.66-10.99,63.01-.21,7.72-2.13,14.91-5.01,21.99,8.67.46,15.93,5.27,21.99,11.01-1.39-11.5.19-22.19,9.54-29.97,18.54-15.44,47.37-2.33,47.09,22.3-.3,26.18-31.39,37.1-49.6,19.67,4.18,13.69.76,27.64-9.01,38,4.47.51,10.24-.71,14.5,0ZM649,296.01c-11.99.04-20.95-5.81-27.99-15.01,4.61,10.38,5.83,20.77,0,30.99,6.87-.38,13.71,1.32,19.99,4.01.39-7.36,3.68-14.2,8.01-19.99ZM717,313v14.5c0,.98-2.98,6.61-2,7.5,6.07-.45,11.76,2.3,16.99,5,.72-8.43,5-15.5,10.01-21.99-4.39-.24-8.89.43-13.26-.25s-7.83-3.36-11.74-4.76ZM674,358.01l-9.99-3.01-6.01,18.99,11.99,2.01c.72-6.16,1.21-12.37,4.01-17.99ZM768,377.01c-5.52.44-10.97-.77-15.99-3-.74,6.16-1.21,12.36-4.01,17.99l12.51,3.98c1.43-.13,2.3-7.88,3.02-9.94,1.15-3.28,3.64-5.77,4.47-9.02ZM707,415c-6.56.76-12.05-3.16-18-5,.17,9.01-5.49,16.43-11,22.99,9.51-2.19,18.25-1.22,26.99,3.01-.45-7.26.21-14,2.01-20.99ZM797,436.01l-16-4-4,16.99c5.67-.59,11.03,1.5,15.99,4.01-.84-6.19,2.01-11.45,4.01-16.99ZM830,491.01c-5.74.37-11.72-.54-16.5-3.98l-4.49,14.97,16.99,4.01,4-15ZM867,545.01c-7.62.81-13.88-.85-21-3.01l-2.01,14c6.08-.06,12.08,2.54,16.99,6,.94-6.08,2.89-11.7,6.01-16.99ZM797.99,595l2.6-15.06-16.58-6.94c.06,7.1-2.72,13.56-7.01,18.99,7.46-.62,14.01.57,20.99,3.01ZM834.99,647c-1.28-2.66,3.27-9.22,1.04-10.53-2.09-1.24-13.54-1.55-17.03-4.46l-3.01,9.99,19,5.01ZM779,664.01c-7.41-1.24-14.04-4.55-19.99-9.01.82,8.7-.65,16.03-6.01,22.99,7.69-1.56,14.52.22,21.99,2.01-.59-5.67,1.5-11.03,4-15.99ZM873,714v-15.5c0-2.96,6.05-10.82,8-13.49-8.78,2.95-16.41,2.06-24.99-1.01l-5.02,19.49c8.69.76,15.34,5.45,22.01,10.51ZM815,724.01l-18-4.01-3.01,10.99,17.99,5.01,3.01-11.99ZM757,752.01c-6.07.45-11.75-2.3-16.99-5.01l-2.01,11.98,15.96,2.98,3.04-9.95ZM700,781.01l-15.99-6.01c.35,5.72.02,10.64-2.01,15.99l13.99,3.01,4.01-12.99ZM646,812.01c-6.69-.24-12.5-3.68-17.99-7.01,1.9,6.5.04,14.1-3.01,19.99l16,2.02,5-15ZM797,809.01c-6.57.6-12.67-.55-18.99-2.01l-6,18c7-.56,15.03,3.81,20.05,8.45,1.38,1.27,1.38,3.37,2.93,3.55-3.15-10.07-2.27-18.44,2-27.99ZM586.99,867c-.12-7.77,1.88-15.89,5.98-22.5-1.62-2.26-4.59-1.18-7.04-1.93-5.57-1.73-10.44-4.95-14.93-8.56,2.56,11.04-.53,21.63-8.01,29.99,8.57-2.12,16.03-.19,23.99,3.01ZM739,843.01l-15.99-3.01-5.01,15c7.23.39,13.72,4.45,18.99,9.01-1.76-7.32-.18-13.94,2.01-20.99ZM682,875.01l-15.99-3.01-5.01,14.48,18.99,8.52c-1.83-6.81-.75-13.57,2.01-19.99ZM629,905.01c-8.56.52-16.31-2.98-23.99-6.01-1.34,10.11-5.76,18.02-13.01,24.99,14.17-5.22,28.32.23,36.99,12.01-4.48-10.29-5.65-20.88,0-30.99Z" style="fill:aqua;"/><circle cx="484" cy="874" r="29.38" style="fill:aqua;"/><circle cx="398" cy="850" r="29.19" style="fill:aqua;"/><circle cx="563" cy="755" r="28.68" style="fill:aqua;"/><circle cx="508" cy="787" r="28.29" style="fill:aqua;"/><circle cx="453" cy="818" r="28.1" style="fill:aqua;"/><circle cx="357" cy="653" r="27.96" style="fill:aqua;"/><circle cx="879" cy="793" r="27.35" style="fill:aqua;"/><circle cx="429" cy="905" r="27.35" style="fill:aqua;"/><circle cx="372" cy="424" r="26.59" style="fill:aqua;"/><circle cx="381" cy="566" r="26.59" style="fill:aqua;"/><circle cx="696" cy="604" r="26.41" style="fill:aqua;"/><circle cx="421" cy="763" r="26.21" style="fill:aqua;"/><circle cx="404" cy="479" r="26.03" style="fill:aqua;"/><circle cx="745" cy="943" r="25.24" style="fill:aqua;"/><circle cx="389" cy="708" r="25.24" style="fill:aqua;"/><circle cx="548" cy="984" r="25.19" style="fill:aqua;"/><circle cx="821" cy="312" r="25.03" style="fill:aqua;"/><circle cx="476" cy="732" r="24.87" style="fill:aqua;"/><circle cx="374" cy="937" r="24.87" style="fill:aqua;"/><circle cx="690" cy="975" r="24.69" style="fill:aqua;"/><circle cx="287" cy="914" r="24.64" style="fill:aqua;"/><circle cx="461" cy="960" r="24.3" style="fill:aqua;"/><circle cx="800" cy="912" r="24.3" style="fill:aqua;"/><circle cx="703" cy="233" r="24.24" style="fill:aqua;"/><circle cx="531" cy="700" r="23.7" style="fill:aqua;"/><circle cx="537" cy="329" r="23.65" style="fill:aqua;"/><circle cx="949" cy="532" r="23.65" style="fill:aqua;"/><circle cx="192" cy="749" r="23.24" style="fill:aqua;"/><circle cx="561" cy="242" r="22.96" style="fill:aqua;"/><circle cx="601" cy="439" r="22.42" style="fill:aqua;"/><circle cx="635" cy="1007" r="22.3" style="fill:aqua;"/><circle cx="665" cy="549" r="21.85" style="fill:aqua;"/><circle cx="856" cy="880" r="21.85" style="fill:aqua;"/><circle cx="957" cy="674" r="21.85" style="fill:aqua;"/><circle cx="616" cy="210" r="21.67" style="fill:aqua;"/><circle cx="444" cy="676" r="21.4" style="fill:aqua;"/><circle cx="934" cy="761" r="21.4" style="fill:aqua;"/><circle cx="207" cy="520" r="21.08" style="fill:aqua;"/><circle cx="641" cy="636" r="21.08" style="fill:aqua;"/><circle cx="285" cy="401" r="21.08" style="fill:aqua;"/><circle cx="586" cy="668" r="21.02" style="fill:aqua;"/><circle cx="183" cy="606" r="20.9" style="fill:aqua;"/><circle cx="790" cy="257" r="20.66" style="fill:aqua;"/><circle cx="412" cy="621" r="20.2" style="fill:aqua;"/><circle cx="633" cy="494" r="20.13" style="fill:aqua;"/><circle cx="493" cy="1016" r="19.37" style="fill:aqua;"/><circle cx="406" cy="992" r="18.91" style="fill:aqua;"/><circle cx="499" cy="645" r="18.39" style="fill:aqua;"/><circle cx="981" cy="587" r="18.39" style="fill:aqua;"/><circle cx="340" cy="369" r="18.24" style="fill:aqua;"/><circle cx="319" cy="969" r="18.02" style="fill:aqua;"/><circle cx="580" cy="1039" r="18.02" style="fill:aqua;"/><circle cx="436" cy="534" r="17.5" style="fill:aqua;"/><circle cx="506" cy="274" r="17.43" style="fill:aqua;"/><circle cx="911" cy="848" r="17.43" style="fill:aqua;"/><circle cx="230" cy="433" r="16.16" style="fill:aqua;"/><circle cx="160" cy="693" r="15.28" style="fill:aqua;"/><circle cx="671" cy="178" r="15.28" style="fill:aqua;"/><circle cx="459" cy="447" r="15.28" style="fill:aqua;"/><circle cx="940" cy="390" r="15.28" style="fill:aqua;"/><circle cx="427" cy="392" r="15.28" style="fill:aqua;"/><circle cx="908" cy="335" r="14.79" style="fill:aqua;"/><circle cx="758" cy="201" r="14.19" style="fill:aqua;"/><circle cx="777" cy="999" r="14.19" style="fill:aqua;"/><circle cx="972" cy="445" r="14" style="fill:aqua;"/><circle cx="722" cy="1030" r="13.91" style="fill:aqua;"/><circle cx="989" cy="729" r="13.12" style="fill:aqua;"/><circle cx="438" cy="1047" r="13.12" style="fill:aqua;"/><circle cx="832" cy="967" r="13.02" style="fill:aqua;"/><circle cx="529" cy="187" r="12.62" style="fill:aqua;"/><circle cx="525" cy="1071" r="12.62" style="fill:aqua;"/><circle cx="467" cy="589" r="12.22" style="fill:aqua;"/><circle cx="877" cy="280" r="12.22" style="fill:aqua;"/><circle cx="554" cy="613" r="12.22" style="fill:aqua;"/><circle cx="667" cy="1062" r="12.22" style="fill:aqua;"/><circle cx="610" cy="581" r="11.94" style="fill:aqua;"/><circle cx="351" cy="1024" r="11.73" style="fill:aqua;"/><circle cx="1012" cy="642" r="11.73" style="fill:aqua;"/><circle cx="966" cy="816" r="11.17" style="fill:aqua;"/><circle cx="1004" cy="500" r="11.17" style="fill:aqua;"/><circle cx="200" cy="891" r="11.06" style="fill:aqua;"/><circle cx="584" cy="155" r="10.83" style="fill:aqua;"/><circle cx="887" cy="935" r="10.54" style="fill:aqua;"/><circle cx="474" cy="218" r="10.03" style="fill:aqua;"/><circle cx="232" cy="946" r="9.77" style="fill:aqua;"/><circle cx="395" cy="337" r="9.77" style="fill:aqua;"/><circle cx="169" cy="835" r="9.52" style="fill:aqua;"/><circle cx="491" cy="503" r="9.52" style="fill:aqua;"/><circle cx="612" cy="1094" r="9.02" style="fill:aqua;"/><circle cx="845" cy="225" r="8.75" style="fill:aqua;"/><circle cx="152" cy="551" r="8.31" style="fill:aqua;"/><circle cx="482" cy="361" r="8.31" style="fill:aqua;"/><circle cx="514" cy="416" r="8.14" style="fill:aqua;"/><circle cx="253" cy="346" r="7.87" style="fill:aqua;"/><circle cx="308" cy="314" r="7.87" style="fill:aqua;"/><circle cx="175" cy="464" r="7.44" style="fill:aqua;"/><circle cx="1036" cy="555" r="7.04" style="fill:aqua;"/><circle cx="450" cy="305" r="7.04" style="fill:aqua;"/><circle cx="578" cy="526" r="6.86" style="fill:aqua;"/><circle cx="942" cy="903" r="6.86" style="fill:aqua;"/><circle cx="264" cy="1001" r="6.86" style="fill:aqua;"/><circle cx="726" cy="146" r="6.86" style="fill:aqua;"/><circle cx="470" cy="1103" r="6.86" style="fill:aqua;"/><circle cx="546" cy="471" r="6.18" style="fill:aqua;"/><circle cx="383" cy="1079" r="6.18" style="fill:aqua;"/><circle cx="523" cy="558" r="5.97" style="fill:aqua;"/><circle cx="639" cy="123" r="5.97" style="fill:aqua;"/><circle cx="557" cy="1126" r="5.31" style="fill:aqua;"/><circle cx="128" cy="638" r="5.31" style="fill:aqua;"/><circle cx="419.01" cy="249.99" r="5.11" style="fill:aqua;"/><circle cx="137.01" cy="779.99" r="5.11" style="fill:aqua;"/><circle cx="1044.01" cy="697.99" r="5.11" style="fill:aqua;"/><circle cx="1021.01" cy="783.99" r="5.11" style="fill:aqua;"/><circle cx="813" cy="169.99" r="4.42" style="fill:aqua;"/><circle cx="442" cy="163" r="4.05" style="fill:aqua;"/><circle cx="995" cy="358" r="4.05" style="fill:aqua;"/><circle cx="364" cy="282" r="4.05" style="fill:aqua;"/><circle cx="809" cy="1054" r="4.05" style="fill:aqua;"/><circle cx="198" cy="378" r="4.05" style="fill:aqua;"/><circle cx="754" cy="1086" r="4.05" style="fill:aqua;"/><circle cx="497" cy="132" r="4.05" style="fill:aqua;"/><circle cx="964" cy="303" r="3.2" style="fill:aqua;"/><circle cx="1027" cy="413" r="3.2" style="fill:aqua;"/><circle cx="864" cy="1022" r="3.2" style="fill:aqua;"/><circle cx="699" cy="1117" r="3.2" style="fill:aqua;"/><circle cx="998" cy="871" r="3.2" style="fill:aqua;"/></g></svg>