<?xml version="1.0" encoding="UTF-8"?><svg id="a" xmlns="http://www.w3.org/2000/svg" viewBox="0 0 1200 800"><path d="M936.83,341.23c3.97.9,7.43-3.59,10.88-5.27,9.08-5.48,21.33-4.93,29.39,1.49,10.27,8.03,13.56,23.77,4.47,36.07-2.74,3.86-6.59,7.96-5.73,12.92,1.12,5.72,6.3,12.61,12.86,10.64,4.01-.86,8.12-3.08,12.22-3.67,3.93-.62,7.69-.18,11.08,1.06,15.98,6.04,23.13,27.8,8.85,40.85-5.67,5.21-9.32,8.57-4.23,15.85,2.6,3.57,4.25,9.87,6.22,11.51.74.64,1.66.81,2.62.58,3.19-.98,5.89-3.37,9.11-4.87,5.44-2.84,12.47-3.29,18-1.5,17.75,5.72,20.64,32.36,2.65,41-1.79,1.3-10.17,3.09-9.3,5.36,1.6,2.5,6.49,4.84,8.67,7.42,11.29,11.73,7.81,31.24-5.86,39.17-2.43,1.78-7.46,2.83-8.06,5.81-.27,2.39,2.76,5,4.46,7.08,3.72,3.99,6.42,8.99,6.79,14.34,1.74,26.21-31.43,37.17-46.01,15.39-3.37-5.36-6.06-8.74-12.31-4.09-24.7,23.86-60.56-12.3-35.28-36.46,6.2-6.02,6.22-10.66.62-17.08-4.5-6.2-10.73-3.43-16.62-1.26-21.43,7.59-40.67-15.65-29.36-34.89,2.01-3.9,6.08-7.49,9.26-10.31,1.99-1.84,3.14-3.33,3.06-4.9-.2-2.76-2.96-5.03-4.56-7.26-3.7-4.19-4.54-10.72-8.74-11.22-2.52.23-4.5,2.11-6.73,3.5-3.34,2.35-7.37,4.23-11.43,4.63-13.84,1.59-26.49-11.61-24.9-25.28,2.84-20.04,29-28.08,41.12-11.27,2.34,2.71,4.7,9.75,8.94,6.36,2.95-2.44,7.76-7.04,8.79-11.46.62-3.42-1.08-7.85-3.93-10.14-4.01-3.26-9.22-.41-13.69,1.23-26.85,11.57-49.54-26.02-24.98-43.49,2.63-2.05,7.01-4.44,7.49-7.48.42-1.92-.62-3.98-2.35-6.54-3.87-5.09-6.85-11.71-6.61-18.31-.03-24.92,34.56-34.83,47.26-13.03,1.54,2.42,3.38,6.66,5.73,7.46l.16.06ZM942.77,378.35c.75-3.25-2.65-7.42-3.96-10.76-4.5-13.82-6.87-4.72-15.86,1.08-2.7,1.85-6.13,2.87-8.85,4.47-2.62,1.67-2.16,3.63-.22,6.29,1.66,2.22,4.16,5.07,6.14,7.26,1.85,1.88,3.74,3.95,6.39,4.19,2.82.21,5.52-2.83,9.12-5.47,2.53-1.99,6.16-3.72,7.18-6.85l.05-.2ZM986.91,439.84c1.06-2.05-1.83-5.75-3.16-8-1.78-2.4-3.21-6.2-6.47-6.36-2.17.17-4.69,3.58-7.78,5.81-2.04,1.68-4.99,2.88-5.58,5.65-.41,3.28,2.29,10.39,5.56,11.73,2.23.7,5.22-2.29,8.7-4.21,2.43-1.65,7.51-2.82,8.64-4.47l.09-.15ZM973.89,490.65c1.04-3.36-3.62-11.53-7.18-12.38-2.57-.58-5.73,2.24-9.37,4.15-2.54,1.74-6.93,2.17-7.97,5.31-.59,2.8,5.97,13.88,9.15,13.99,3.24-.09,5.69-4.06,9.64-6.46,1.89-1.36,4.62-2.29,5.66-4.42l.08-.19ZM1038.19,500.49c.1-1.28-3.44-2.79-6.67-5.44-3.06-2.46-5.48-5.87-7.22-9.39-1.22-2.16-2.03-4.64-4.04-5.91-3.37-1.24-6.93,5.72-10.72,8.28-6.19,4.77-8.5,7.24-3.72,14.48,2.3,3.5,4.31,9.22,6.69,10.22,2.93,1.14,5.53-1.28,7.93-2.86,3.05-2.3,6.65-4.35,10.27-5.63,3.85-1.39,7.32-2.37,7.46-3.65v-.11ZM1025.26,550.52c-.27-2.68-6.51-6.33-8.41-9.45-2.21-2.53-4.13-6.49-7.89-5.98-4.1,1.15-8.76,6.15-13.33,8.73-7.47,4.58-2.13,10.35.68,16,4.17,9.32,3.64,14.55,11.58,5.36,2.88-3.31,6.25-6.15,10.09-8.35,3.73-2.14,7.28-4.15,7.28-6.15v-.17Z" style="fill:aqua;"/><path d="M321.61,555.41c.23,15.99-16.46,27.89-31.53,22.66-23.65-7.83-20.96-42.52,3.7-46.5,14.11-2.59,28.08,9.19,27.83,23.55v.29Z" style="fill:aqua;"/><path d="M306.48,342.56c.23,15.69-16.23,27.33-30.97,22.09-22.92-7.76-20.25-41.43,3.7-45.37,13.81-2.59,27.53,8.93,27.28,22.99v.29Z" style="fill:aqua;"/><path d="M417.28,310.49c.25,14.06-13.47,25.59-27.28,22.99-23.96-3.94-26.61-37.61-3.69-45.37,14.74-5.24,31.21,6.39,30.97,22.09v.29Z" style="fill:aqua;"/><path d="M473.55,581.65c.22,15.25-15.74,26.6-30.1,21.57-22.69-7.59-19.78-40.94,3.99-44.35,13.33-2.2,26.34,8.98,26.11,22.49v.29Z" style="fill:aqua;"/><path d="M236.92,435.87c.22,14.89-15.33,26.01-29.38,21.17-20.12-6.41-20.57-35.45-.55-42.45,14.1-5.3,30.19,5.87,29.94,20.98v.29Z" style="fill:aqua;"/><path d="M268.87,546.66c.25,15.03-15.74,26.13-29.76,20.86-19.91-6.95-19.45-35.84.55-42.2,13.97-4.81,29.43,6.24,29.21,21.05v.29Z" style="fill:aqua;"/><path d="M642.08,507.3c.22,14.81-15.24,25.86-29.21,21.05-20.01-6.37-20.45-35.25-.55-42.2,14.02-5.27,30.02,5.84,29.76,20.86v.29Z" style="fill:aqua;"/><path d="M245.54,384.84c.22,14.81-15.24,25.86-29.21,21.05-20.01-6.37-20.45-35.25-.55-42.2,14.02-5.27,30.02,5.84,29.76,20.86v.29Z" style="fill:aqua;"/><path d="M940.94,298.83c.22,14.81-15.24,25.86-29.21,21.05-20.01-6.37-20.45-35.25-.55-42.2,14.02-5.27,30.02,5.84,29.76,20.86v.29Z" style="fill:aqua;"/><path d="M365.09,301.74c.22,14.81-15.24,25.86-29.21,21.05-20.01-6.37-20.45-35.25-.55-42.2,14.02-5.27,30.02,5.84,29.76,20.86v.29Z" style="fill:aqua;"/><path d="M711.79,415.46c.25,14.9-15.66,25.88-29.53,20.57-19.52-6.93-19.07-35.29.55-41.63,13.82-4.84,29.2,6.08,28.98,20.76v.29Z" style="fill:aqua;"/><path d="M946.38,561.24c.24,14.72-15.39,25.63-29.15,20.53-19.57-6.72-19.29-35.06.28-41.45,13.76-4.86,29.09,6,28.87,20.63v.29Z" style="fill:aqua;"/><path d="M701.14,465.02c.24,14.65-15.44,25.4-29.05,20.11-19.1-6.91-18.48-34.73.83-40.8,13.51-4.61,28.43,6.08,28.22,20.39v.29Z" style="fill:aqua;"/><path d="M227.34,486.89c.24,14.65-15.44,25.4-29.05,20.11-19.1-6.91-18.48-34.73.83-40.8,13.51-4.61,28.43,6.08,28.22,20.39v.29Z" style="fill:aqua;"/><path d="M253.47,333.82c.21,14.38-14.91,25.03-28.41,20.18-19.26-6.44-19.17-34.28,0-40.65,13.46-4.86,28.64,5.82,28.41,20.18v.29Z" style="fill:aqua;"/><path d="M313.24,293c.21,14.38-14.91,25.03-28.41,20.18-19.26-6.44-19.17-34.28,0-40.65,13.46-4.86,28.64,5.82,28.41,20.18v.29Z" style="fill:aqua;"/><path d="M1033.05,367.34c.2,14.06-14.52,24.52-27.76,19.89-18.92-6.12-19.19-33.53-.28-39.97,13.25-4.87,28.27,5.63,28.04,19.79v.29Z" style="fill:aqua;"/><path d="M1038.77,629.76c.23,14.09-14.71,24.53-27.89,19.69-18.81-6.41-18.54-33.68.28-39.76,13.17-4.61,27.82,5.79,27.61,19.78v.29Z" style="fill:aqua;"/><path d="M582.46,549.58c.2,13.98-14.44,24.39-27.61,19.78-18.82-6.09-19.09-33.35-.27-39.76,13.18-4.84,28.12,5.6,27.89,19.69v.29Z" style="fill:aqua;"/><path d="M987.46,621.01c.2,13.84-14.34,24.11-27.35,19.47-18.42-6.06-18.69-32.77-.28-39.14,13.01-4.87,27.85,5.43,27.62,19.38v.29Z" style="fill:aqua;"/><path d="M990.1,307.57c.22,13.81-14.51,23.97-27.37,19.07-18.14-6.41-17.69-32.8.56-38.63,12.8-4.44,27.01,5.68,26.81,19.26v.29Z" style="fill:aqua;"/><path d="M879.17,339.65c.22,13.72-14.42,23.82-27.19,18.95-18.03-6.37-17.58-32.6.55-38.38,12.72-4.41,26.84,5.65,26.64,19.14v.29Z" style="fill:aqua;"/><path d="M903.96,501.47c.22,13.72-14.42,23.82-27.19,18.95-18.03-6.37-17.58-32.6.55-38.38,12.72-4.41,26.84,5.65,26.64,19.14v.29Z" style="fill:aqua;"/><path d="M359.66,615.18c.26,13.02-13.57,22.94-25.86,18.69-17.82-5.58-18.25-31.32-.55-37.48,12.43-4.66,26.62,5.17,26.41,18.5v.29Z" style="fill:aqua;"/><path d="M521.49,590.4c.26,13.02-13.57,22.94-25.86,18.69-17.82-5.58-18.25-31.32-.55-37.48,12.43-4.66,26.62,5.17,26.41,18.5v.29Z" style="fill:aqua;"/><path d="M573.75,285.7c.26,12.89-13.47,22.71-25.62,18.46-17.68-5.6-17.93-31.2-.28-37.11,12.26-4.44,26.1,5.29,25.89,18.37v.29Z" style="fill:aqua;"/><path d="M1096.98,587.48c.26,12.83-13.43,22.58-25.5,18.32-17.33-5.44-17.76-30.74-.55-36.74,12.23-4.68,26.27,4.99,26.06,18.13v.29Z" style="fill:aqua;"/><path d="M524.05,276.96c.26,12.83-13.43,22.58-25.5,18.32-17.33-5.44-17.76-30.74-.55-36.74,12.23-4.68,26.27,4.99,26.06,18.13v.29Z" style="fill:aqua;"/><path d="M260.18,282.79c.26,12.83-13.43,22.58-25.5,18.32-17.33-5.44-17.76-30.74-.55-36.74,12.23-4.68,26.27,4.99,26.06,18.13v.29Z" style="fill:aqua;"/><path d="M624.64,295.91c.08,15.94-18.89,25.02-31.36,15.23-12.18-9.1-8.71-29.47,5.86-33.84,12.07-4.26,25.77,5.48,25.5,18.32v.29Z" style="fill:aqua;"/><path d="M1072.05,427.12c.26,12.76-13.37,22.44-25.37,18.16-17.12-5.42-17.55-30.43-.55-36.42,12.15-4.69,26.13,4.9,25.92,17.97v.29Z" style="fill:aqua;"/><path d="M472.88,268.22c.26,12.76-13.37,22.44-25.37,18.16-17.12-5.42-17.55-30.43-.55-36.42,12.15-4.69,26.13,4.9,25.92,17.97v.29Z" style="fill:aqua;"/><path d="M370.68,250.72c.26,12.66-13.27,22.27-25.17,18.02-16.99-5.38-17.42-30.2-.55-36.14,12.05-4.65,25.93,4.87,25.72,17.83v.29Z" style="fill:aqua;"/><path d="M410.04,623.93c.2,12.97-13.67,22.49-25.72,17.83-16.87-5.94-16.44-30.77.55-36.14,11.9-4.24,25.43,5.36,25.17,18.02v.29Z" style="fill:aqua;"/><path d="M869.26,390.67c.26,12.66-13.27,22.27-25.17,18.02-16.99-5.38-17.42-30.2-.55-36.14,12.05-4.65,25.93,4.87,25.72,17.83v.29Z" style="fill:aqua;"/><path d="M421.71,259.46c.2,12.97-13.67,22.49-25.72,17.83-16.87-5.94-16.44-30.77.55-36.14,11.9-4.24,25.43,5.36,25.17,18.02v.29Z" style="fill:aqua;"/><path d="M307.99,606.43c.2,12.97-13.67,22.49-25.72,17.83-16.87-5.94-16.44-30.77.55-36.14,11.9-4.24,25.43,5.36,25.17,18.02v.29Z" style="fill:aqua;"/><path d="M717.51,364.43c.17,15.49-18.54,24.47-30.62,14.92-11.9-8.85-8.6-28.73,5.58-33.07,11.82-4.25,25.3,5.28,25.04,17.87v.29Z" style="fill:aqua;"/><path d="M1105.3,536.46c.17,15.49-18.54,24.47-30.62,14.92-11.9-8.85-8.6-28.73,5.58-33.07,11.82-4.25,25.3,5.28,25.04,17.87v.29Z" style="fill:aqua;"/><path d="M216.01,537.92c.17,15.49-18.54,24.47-30.62,14.92-11.9-8.85-8.6-28.73,5.58-33.07,11.82-4.25,25.3,5.28,25.04,17.87v.29Z" style="fill:aqua;"/><path d="M886.62,290.08c.26,12.59-13.22,22.13-25.04,17.87-16.92-5.42-17.17-30.21-.27-35.93,11.93-4.44,25.52,5,25.32,17.78v.29Z" style="fill:aqua;"/><path d="M191.07,376.09c.16,15.41-18.5,24.3-30.46,14.72-11.78-8.88-8.32-28.65,5.85-32.8,11.68-4.04,24.86,5.4,24.61,17.79v.29Z" style="fill:aqua;"/><path d="M181.89,427.11c.16,15.04-18.04,23.73-29.73,14.41-11.51-8.63-8.22-27.92,5.57-32.05,11.43-4.03,24.41,5.2,24.16,17.35v.29Z" style="fill:aqua;"/><path d="M318.8,241.97c.27,12.31-13.18,21.52-24.59,17.01-16.09-5.68-15.66-29.39.55-34.51,11.36-4.05,24.28,5.12,24.04,17.2v.29Z" style="fill:aqua;"/><path d="M199.13,325.07c.26,12.01-12.67,21.15-23.93,17.07-16.3-5.22-16.36-29.16,0-34.42,11.29-4.07,24.18,5.04,23.93,17.07v.29Z" style="fill:aqua;"/><path d="M674.07,304.66c.24,11.85-12.51,20.81-23.62,16.72-15.79-5.17-15.91-28.26-.28-33.64,11.11-4.32,24.16,4.66,23.89,16.63v.29Z" style="fill:aqua;"/><path d="M688.52,516.05c.24,11.77-12.42,20.66-23.44,16.6-15.67-5.14-15.79-28.05-.27-33.39,11.03-4.28,23.98,4.63,23.72,16.51v.29Z" style="fill:aqua;"/><path d="M266.76,233.22c.25,11.54-12.29,20.23-23.03,16.13-15.4-5.22-15.08-27.99.56-32.72,10.68-3.65,22.7,5,22.48,16.31v.29Z" style="fill:aqua;"/><path d="M459.19,632.67c.25,11.54-12.29,20.23-23.03,16.13-15.4-5.22-15.08-27.99.56-32.72,10.68-3.65,22.7,5,22.48,16.31v.29Z" style="fill:aqua;"/><path d="M254.95,597.68c.24,11.44-12.19,20.06-22.85,15.99-15.27-5.18-14.96-27.76.55-32.46,10.59-3.62,22.52,4.96,22.29,16.18v.29Z" style="fill:aqua;"/><path d="M208.3,274.04c.24,11.44-12.19,20.06-22.85,15.99-15.27-5.18-14.96-27.76.55-32.46,10.59-3.62,22.52,4.96,22.29,16.18v.29Z" style="fill:aqua;"/><path d="M171.86,478.14c.24,11.44-12.19,20.06-22.85,15.99-15.27-5.18-14.96-27.76.55-32.46,10.59-3.62,22.52,4.96,22.29,16.18v.29Z" style="fill:aqua;"/><path d="M1085.78,638.51c.21,12.55-14.23,20.94-25.09,14.78-11.83-6.07-11.58-24.21.26-29.99,10.86-5.91,25.04,2.5,24.84,14.92v.29Z" style="fill:aqua;"/><path d="M932.23,612.27c.2,12.19-13.82,20.34-24.38,14.38-11.63-5.96-11.24-23.84.52-29.31,10.55-5.47,24.05,2.7,23.86,14.64v.29Z" style="fill:aqua;"/><path d="M891.22,552.49c.19,11.84-13.23,19.91-23.65,14.43-11.52-5.42-11.9-22.97-.51-28.88,10.44-5.97,24.37,2.08,24.17,14.16v.29Z" style="fill:aqua;"/><path d="M857.69,441.69c.2,12.09-13.73,20.13-24.17,14.16-11.39-5.91-11-23.46.52-28.88,10.43-5.48,23.85,2.6,23.65,14.43v.29Z" style="fill:aqua;"/><path d="M627.18,558.33c.19,11.87-13.41,19.85-23.74,14.11-11.39-5.73-11.16-23.19.26-28.64,10.32-5.49,23.68,2.49,23.48,14.24v.29Z" style="fill:aqua;"/><path d="M745.96,473.77c.18,11.21-12.59,18.81-22.42,13.54-10.9-5.16-10.98-22.14,0-27.36,9.83-5.28,22.6,2.33,22.42,13.54v.29Z" style="fill:aqua;"/><path d="M1110.42,486.89c.18,11.21-12.59,18.82-22.42,13.54-10.9-5.16-10.98-22.14,0-27.36,9.83-5.27,22.6,2.33,22.42,13.54v.29Z" style="fill:aqua;"/><path d="M214.96,224.48c.17,11.02-12.46,18.45-22.07,13.14-10.52-5.16-10.45-21.48,0-26.58,9.6-5.3,22.24,2.12,22.07,13.15v.29Z" style="fill:aqua;"/><path d="M942.42,247.8c.17,11.02-12.46,18.45-22.07,13.14-10.52-5.16-10.45-21.48,0-26.58,9.6-5.3,22.24,2.12,22.07,13.15v.29Z" style="fill:aqua;"/><path d="M799.55,170.54c.17,11.03-12.46,18.45-22.07,13.14-10.45-5.1-10.52-21.41,0-26.58,9.61-5.3,22.24,2.12,22.07,13.15v.29Z" style="fill:aqua;"/><path d="M892.85,239.06c.17,11.03-12.46,18.45-22.07,13.14-10.52-5.16-10.45-21.48,0-26.58,9.61-5.3,22.24,2.12,22.07,13.15v.29Z" style="fill:aqua;"/><path d="M754.36,424.2c.17,11.03-12.46,18.45-22.07,13.14-10.52-5.16-10.45-21.48,0-26.58,9.61-5.3,22.24,2.12,22.07,13.15v.29Z" style="fill:aqua;"/><path d="M323.92,190.95c.17,10.82-12.3,18.05-21.67,12.73-10.21-5.14-9.98-21.22.52-26.01,9.25-4.86,21.39,2.49,21.15,12.99v.29Z" style="fill:aqua;"/><path d="M374.94,199.69c.24,10.49-11.9,17.86-21.15,12.99-10.49-4.79-10.72-20.87-.52-26.01,9.36-5.32,21.84,1.9,21.66,12.73v.29Z" style="fill:aqua;"/><path d="M565.71,600.6c-.61,18.41-27.32,19.12-28.81.73-.6-19.62,28.02-20.5,28.81-1.02v.29Z" style="fill:aqua;"/><path d="M1034.96,316.32c-.29,16.72-24.31,19.35-28.14,3.05-3.7-20.68,26.94-24.16,28.14-3.34v.29Z" style="fill:aqua;"/><path d="M273.96,182.2c-1.2,20.82-31.84,17.33-28.14-3.34,3.83-16.29,27.85-13.66,28.14,3.05v.29Z" style="fill:aqua;"/><path d="M425.58,208.44c-.29,16.72-24.31,19.35-28.14,3.05-3.7-20.68,26.94-24.16,28.14-3.34v.29Z" style="fill:aqua;"/><path d="M846.9,492.72c-.29,16.72-24.31,19.35-28.14,3.05-3.7-20.68,26.94-24.16,28.14-3.34v.29Z" style="fill:aqua;"/><path d="M721.16,313.4c-1.33,20.76-31.8,16.55-27.26-3.91,4.34-15.31,27.03-12.28,27.26,3.62v.29Z" style="fill:aqua;"/><path d="M840.71,230.3c-.24,15.9-22.92,18.93-27.26,3.62-4.54-20.46,25.93-24.66,27.26-3.91v.29Z" style="fill:aqua;"/><path d="M159.89,527.7c-.24,15.9-22.92,18.93-27.26,3.62-4.54-20.46,25.93-24.66,27.26-3.91v.29Z" style="fill:aqua;"/><path d="M201.99,587.48c-.24,15.67-22.57,18.69-26.9,3.62-4.55-20.22,25.58-24.43,26.9-3.91v.29Z" style="fill:aqua;"/><path d="M505.22,641.42c-.24,15.67-22.57,18.69-26.9,3.62-4.55-20.22,25.58-24.43,26.9-3.91v.29Z" style="fill:aqua;"/><path d="M1022.76,680.79c-1.33,20.52-31.45,16.3-26.9-3.91,4.33-15.07,26.66-12.04,26.9,3.62v.29Z" style="fill:aqua;"/><path d="M476.07,217.19c-.24,15.67-22.57,18.69-26.9,3.62-4.55-20.22,25.58-24.43,26.9-3.91v.29Z" style="fill:aqua;"/><path d="M831.78,279.88c-.24,15.67-22.57,18.69-26.9,3.62-4.55-20.22,25.58-24.43,26.9-3.91v.29Z" style="fill:aqua;"/><path d="M144.97,316.32c-1.37,20.51-31.49,15.89-26.47-4.19,4.58-14.58,26.26-11.37,26.47,3.91v.29Z" style="fill:aqua;"/><path d="M134.77,367.34c-1.37,20.51-31.49,15.89-26.47-4.19,4.58-14.58,26.26-11.37,26.47,3.91v.29Z" style="fill:aqua;"/><path d="M1076.15,376.09c-.22,14.94-21.48,17.94-25.77,3.62-4.6-19.46,24.47-23.7,25.77-3.91v.29Z" style="fill:aqua;"/><path d="M526.54,227.39c-1.27,19.79-30.41,15.52-25.77-3.91,4.29-14.32,25.55-11.32,25.77,3.62v.29Z" style="fill:aqua;"/><path d="M125.43,418.37c-.22,14.69-21.1,17.68-25.37,3.61-4.65-19.16,24.12-23.42,25.37-3.9v.29Z" style="fill:aqua;"/><path d="M221.65,173.45c-.22,14.69-21.1,17.68-25.37,3.61-4.65-19.16,24.11-23.42,25.37-3.9v.29Z" style="fill:aqua;"/><path d="M806.04,119.51c-1.25,19.25-29.6,14.97-24.95-3.89,4.25-13.79,24.74-10.81,24.95,3.61v.29Z" style="fill:aqua;"/><path d="M848.32,179.28c-1.25,19.25-29.6,14.97-24.95-3.89,4.25-13.79,24.74-10.81,24.95,3.61v.29Z" style="fill:aqua;"/><path d="M734.61,524.79c-1.25,19.25-29.6,14.97-24.95-3.89,4.25-13.79,24.74-10.81,24.95,3.61v.29Z" style="fill:aqua;"/><path d="M343.9,666.2c-1.25,19.25-29.6,14.97-24.95-3.89,4.25-13.79,24.74-10.81,24.95,3.61v.29Z" style="fill:aqua;"/><path d="M970.78,672.03c-1.25,19.25-29.6,14.97-24.95-3.89,4.25-13.79,24.74-10.81,24.95,3.61v.29Z" style="fill:aqua;"/><path d="M152.93,265.29c-1.25,19.25-29.6,14.97-24.95-3.89,4.25-13.79,24.74-10.81,24.95,3.61v.29Z" style="fill:aqua;"/><path d="M788.35,220.1c-1.2,18.79-28.86,14.88-24.63-3.61,3.98-13.78,24.41-11.01,24.63,3.32v.29Z" style="fill:aqua;"/><path d="M576.53,236.13c-1.13,18.01-27.64,14.47-23.83-3.31,3.67-13.47,23.59-10.92,23.83,3.02v.29Z" style="fill:aqua;"/><path d="M292.25,655.99c-.24,13.94-20.16,16.49-23.83,3.02-3.81-17.78,22.71-21.31,23.83-3.31v.29Z" style="fill:aqua;"/><path d="M745.64,160.33c-1.13,18.01-27.64,14.47-23.83-3.31,3.67-13.47,23.59-10.92,23.83,3.02v.29Z" style="fill:aqua;"/><path d="M394.3,674.95c-.24,13.94-20.16,16.49-23.83,3.02-3.81-17.78,22.71-21.31,23.83-3.31v.29Z" style="fill:aqua;"/><path d="M754.13,110.77c-.26,13.76-19.96,16.11-23.38,2.76-3.5-17.29,22.36-20.52,23.38-3.05v.29Z" style="fill:aqua;"/><path d="M793.49,483.98c-.26,13.76-19.96,16.11-23.38,2.76-3.5-17.29,22.36-20.52,23.38-3.05v.29Z" style="fill:aqua;"/><path d="M876.59,603.52c-.26,13.76-19.96,16.11-23.38,2.76-3.5-17.29,22.36-20.52,23.38-3.05v.29Z" style="fill:aqua;"/><path d="M990.3,256.55c-.26,13.76-19.96,16.11-23.38,2.76-3.5-17.29,22.36-20.52,23.38-3.05v.29Z" style="fill:aqua;"/><path d="M1071.94,689.53c-1.02,17.48-26.88,14.23-23.38-3.05,3.42-13.35,23.13-10.99,23.38,2.76v.29Z" style="fill:aqua;"/><path d="M761.42,373.18c-1.02,17.48-26.88,14.23-23.38-3.05,3.42-13.35,23.13-10.99,23.38,2.76v.29Z" style="fill:aqua;"/><path d="M819.35,330.89c-1.12,17.18-26.4,13.57-22.51-3.33,3.65-12.58,22.29-10.04,22.51,3.04v.29Z" style="fill:aqua;"/><path d="M835.39,543.74c-1.12,17.18-26.4,13.57-22.51-3.33,3.65-12.58,22.29-10.04,22.51,3.04v.29Z" style="fill:aqua;"/><path d="M801.86,432.94c-1.12,17.18-26.4,13.57-22.51-3.33,3.65-12.58,22.29-10.04,22.51,3.04v.29Z" style="fill:aqua;"/><path d="M115,467.93c-1.16,17.1-26.34,13.12-22.01-3.6,3.88-12.05,21.81-9.33,22.01,3.31v.29Z" style="fill:aqua;"/><path d="M160.19,214.26c-1.16,17.1-26.34,13.12-22.01-3.6,3.88-12.05,21.81-9.33,22.01,3.31v.29Z" style="fill:aqua;"/><path d="M625.24,244.88c-1.16,17.1-26.34,13.12-22.01-3.6,3.88-12.05,21.81-9.33,22.01,3.31v.29Z" style="fill:aqua;"/><path d="M673.13,567.06c-.95,16.18-24.88,13.29-21.78-2.74,3.08-12.52,21.53-10.4,21.78,2.46v.29Z" style="fill:aqua;"/><path d="M1139.44,596.22c-1.43,17.35-26.83,11.8-20.72-4.65,4.63-10.43,20.68-7.04,20.72,4.37v.28Z" style="fill:aqua;"/><path d="M442.58,683.69c-.04,11.41-16.1,14.8-20.72,4.37-6.09-16.48,19.29-22,20.72-4.65v.28Z" style="fill:aqua;"/><path d="M1130.4,647.26c-.05,11.16-15.81,14.4-20.22,4.12-5.74-15.97,18.87-21.19,20.22-4.41v.29Z" style="fill:aqua;"/><path d="M777.6,271.13c-.05,11.16-15.81,14.4-20.22,4.12-5.74-15.97,18.87-21.19,20.22-4.41v.29Z" style="fill:aqua;"/><path d="M279.02,131.18c-.05,11.16-15.81,14.4-20.22,4.12-5.74-15.97,18.87-21.19,20.22-4.41v.29Z" style="fill:aqua;"/><path d="M329.76,139.91c-1.33,16.39-25.36,11.19-19.65-4.37,4.34-9.93,19.6-6.74,19.65,4.08v.28Z" style="fill:aqua;"/><path d="M896.86,188.02c-.05,10.82-15.3,14.01-19.65,4.08-5.71-15.56,18.32-20.75,19.65-4.37v.28Z" style="fill:aqua;"/><path d="M227.44,122.42c-.98,15.02-23.19,11.69-19.58-3.04,3.19-10.83,19.46-8.51,19.58,2.75v.29Z" style="fill:aqua;"/><path d="M1113.81,435.86c-.12,11.26-16.39,13.58-19.58,2.75-3.61-14.74,18.61-18.05,19.58-3.03v.29Z" style="fill:aqua;"/><path d="M675,253.63c-.12,11.26-16.39,13.58-19.58,2.75-3.61-14.73,18.61-18.05,19.58-3.03v.29Z" style="fill:aqua;"/><path d="M239.1,647.25c-.12,11.26-16.39,13.58-19.58,2.75-3.61-14.73,18.61-18.05,19.58-3.03v.29Z" style="fill:aqua;"/><path d="M809.12,381.92c-.98,15.02-23.19,11.69-19.58-3.04,3.19-10.83,19.46-8.51,19.58,2.75v.29Z" style="fill:aqua;"/><path d="M768.05,322.15c-1.33,15.71-24.34,10.43-18.55-4.36,4.28-9.2,18.5-6.06,18.55,4.08v.28Z" style="fill:aqua;"/><path d="M782.62,533.54c-.05,10.14-14.26,13.28-18.55,4.08-5.79-14.8,17.22-20.07,18.55-4.36v.28Z" style="fill:aqua;"/><path d="M725.77,262.38c-1.33,15.71-24.34,10.43-18.55-4.36,4.28-9.2,18.5-6.06,18.55,4.08v.28Z" style="fill:aqua;"/><path d="M378.36,148.65c-1.22,14.88-23.08,10.01-17.73-4.05,3.99-8.89,17.68-5.96,17.73,3.77v.28Z" style="fill:aqua;"/><path d="M1146.36,546.66c-1.17,14.34-22.24,9.8-17.26-3.82,3.78-8.74,17.2-5.97,17.26,3.53v.28Z" style="fill:aqua;"/><path d="M733.79,211.35c-.07,9.51-13.48,12.28-17.27,3.53-4.97-13.62,16.1-18.15,17.27-3.82v.28Z" style="fill:aqua;"/><path d="M916.02,663.29c-.07,9.51-13.48,12.28-17.27,3.53-4.97-13.62,16.1-18.15,17.27-3.82v.28Z" style="fill:aqua;"/><path d="M166.68,164.7c-.07,9.51-13.48,12.28-17.27,3.53-4.97-13.62,16.1-18.15,17.27-3.82v.28Z" style="fill:aqua;"/><path d="M853.01,128.26c-1.17,13.94-21.64,9.33-16.59-3.83,3.76-8.29,16.53-5.54,16.59,3.54v.29Z" style="fill:aqua;"/><path d="M428.78,157.42c-1.17,13.94-21.64,9.33-16.59-3.83,3.76-8.29,16.53-5.54,16.59,3.54v.29Z" style="fill:aqua;"/><path d="M145.96,578.73c-.07,9.08-12.84,11.84-16.59,3.54-5.05-13.17,15.43-17.76,16.59-3.83v.29Z" style="fill:aqua;"/><path d="M551.24,650.17c-1.17,13.94-21.64,9.33-16.59-3.83,3.76-8.29,16.53-5.54,16.59,3.54v.29Z" style="fill:aqua;"/><path d="M1117.72,698.26c-.93,12.47-19.37,9.07-15.64-2.98,3.02-8.27,15.54-6.06,15.64,2.7v.28Z" style="fill:aqua;"/><path d="M610.39,609.33c-.93,12.47-19.37,9.07-15.64-2.98,3.02-8.26,15.54-6.06,15.64,2.7v.28Z" style="fill:aqua;"/><path d="M822.89,593.31c-.99,12.24-19.06,8.38-14.83-3.26,3.21-7.53,14.74-5.19,14.83,2.98v.28Z" style="fill:aqua;"/><path d="M945.35,196.78c-.09,8.16-11.62,10.51-14.83,2.97-4.23-11.65,13.85-15.5,14.83-3.26v.28Z" style="fill:aqua;"/><path d="M700.43,100.56c-.09,8.16-11.62,10.51-14.83,2.97-4.23-11.65,13.85-15.5,14.83-3.26v.28Z" style="fill:aqua;"/><path d="M490.5,692.44c-.99,12.24-19.06,8.38-14.83-3.26,3.21-7.53,14.74-5.19,14.83,2.98v.28Z" style="fill:aqua;"/><path d="M102.72,518.96c-.99,12.25-19.06,8.38-14.83-3.26,3.21-7.54,14.75-5.18,14.83,2.98v.28Z" style="fill:aqua;"/><path d="M478.56,167.61c-1.07,12.05-18.74,7.82-14.12-3.46,3.34-6.92,14.05-4.47,14.12,3.19v.28Z" style="fill:aqua;"/><path d="M689.95,151.57c-.07,7.66-10.78,10.1-14.12,3.19-4.62-11.29,13.05-15.51,14.12-3.46v.28Z" style="fill:aqua;"/><path d="M720.56,575.8c-1.07,12.05-18.74,7.82-14.12-3.46,3.34-6.92,14.05-4.47,14.12,3.19v.28Z" style="fill:aqua;"/><path d="M78.81,358.59c-.98,11.48-17.9,7.57-13.63-3.23,3.13-6.76,13.55-4.47,13.63,2.95v.28Z" style="fill:aqua;"/><path d="M87.56,307.56c-.98,11.48-17.9,7.57-13.63-3.23,3.13-6.76,13.55-4.47,13.63,2.95v.28Z" style="fill:aqua;"/><path d="M67.89,408.15c0,6.15-8.53,8.65-11.82,3.43-5.29-9.81,10.63-14.7,11.82-3.71v.28Z" style="fill:aqua;"/><path d="M95.58,256.54c0,6.15-8.53,8.65-11.82,3.43-5.29-9.8,10.64-14.7,11.82-3.71v.28Z" style="fill:aqua;"/><path d="M184.51,638.49c-1.19,10.99-17.11,6.1-11.82-3.71,3.29-5.22,11.82-2.73,11.82,3.43v.28Z" style="fill:aqua;"/><path d="M172.85,113.67c0,6.15-8.53,8.65-11.82,3.43-5.29-9.8,10.64-14.7,11.82-3.71v.28Z" style="fill:aqua;"/><path d="M528.04,176.36c-.79,9.24-14.42,6.44-11.38-2.42,2.29-5.84,11.34-4.09,11.38,2.14v.28Z" style="fill:aqua;"/><path d="M1035.37,265.29c-.79,9.24-14.42,6.44-11.38-2.42,2.29-5.84,11.33-4.09,11.38,2.14v.28Z" style="fill:aqua;"/><path d="M1077.65,325.06c-.05,6.23-9.09,7.98-11.38,2.14-3.05-8.87,10.59-11.66,11.38-2.42v.28Z" style="fill:aqua;"/><path d="M758.38,59.74c-.05,6.23-9.09,7.98-11.38,2.14-3.05-8.87,10.59-11.66,11.38-2.42v.28Z" style="fill:aqua;"/><path d="M770.04,584.56c-.05,6.23-9.09,7.98-11.38,2.14-3.05-8.87,10.59-11.66,11.38-2.42v.28Z" style="fill:aqua;"/><path d="M861.89,653.08c-.04,6.23-9.09,7.98-11.38,2.14-3.05-8.86,10.59-11.66,11.38-2.42v.28Z" style="fill:aqua;"/><path d="M1152,495.63c-.79,9.24-14.42,6.44-11.38-2.42,2.29-5.84,11.33-4.09,11.38,2.14v.28Z" style="fill:aqua;"/><path d="M232.1,71.4c-.04,6.23-9.09,7.98-11.38,2.14-3.05-8.86,10.59-11.66,11.38-2.42v.28Z" style="fill:aqua;"/><path d="M283.12,80.15c-.79,9.24-14.42,6.44-11.38-2.42,2.29-5.84,11.33-4.09,11.38,2.14v.28Z" style="fill:aqua;"/><path d="M1006.22,731.8c-.05,6.23-9.09,7.98-11.38,2.14-3.05-8.87,10.59-11.66,11.38-2.42v.28Z" style="fill:aqua;"/><path d="M1055.78,740.55c-.04,6.23-9.09,7.98-11.38,2.14-3.05-8.86,10.59-11.66,11.38-2.42v.28Z" style="fill:aqua;"/><path d="M333.77,88.89c-.04,5.73-8.33,7.45-10.57,2.12-3.07-8.3,9.79-11.13,10.57-2.4v.28Z" style="fill:aqua;"/><path d="M577.83,185.11c.02,4.21-5.86,6.19-8.36,2.76-4.49-7.03,7.34-11.26,8.36-3.03v.27Z" style="fill:aqua;"/><path d="M900.01,137c.02,4.21-5.86,6.19-8.36,2.76-4.49-7.03,7.34-11.26,8.36-3.03v.27Z" style="fill:aqua;"/><path d="M57.38,459.18c.02,4.21-5.86,6.19-8.36,2.76-4.49-7.03,7.35-11.26,8.36-3.03v.27Z" style="fill:aqua;"/><path d="M646.35,91.8c.02,4.21-5.86,6.19-8.36,2.76-4.49-7.03,7.35-11.26,8.36-3.03v.27Z" style="fill:aqua;"/><path d="M1117.23,384.83c.02,4.21-5.86,6.19-8.36,2.76-4.49-7.03,7.34-11.26,8.36-3.03v.27Z" style="fill:aqua;"/><path d="M806.71,68.48c-1.02,8.23-12.85,3.99-8.36-3.03,2.5-3.43,8.39-1.45,8.36,2.76v.27Z" style="fill:aqua;"/><path d="M706.12,50.98c.02,4.21-5.86,6.19-8.36,2.76-4.49-7.03,7.34-11.26,8.36-3.03v.27Z" style="fill:aqua;"/><path d="M102.57,205.52c.02,4.21-5.86,6.19-8.36,2.76-4.49-7.03,7.35-11.26,8.36-3.03v.27Z" style="fill:aqua;"/><path d="M678.42,202.6c-1.02,8.23-12.85,3.99-8.36-3.03,2.5-3.43,8.39-1.45,8.36,2.76v.27Z" style="fill:aqua;"/><path d="M276.05,707.01c.02,4.21-5.86,6.19-8.36,2.76-4.49-7.03,7.34-11.26,8.36-3.03v.27Z" style="fill:aqua;"/><path d="M327.08,715.76c.02,4.21-5.86,6.19-8.36,2.76-4.49-7.03,7.34-11.26,8.36-3.03v.27Z" style="fill:aqua;"/><path d="M953.95,721.59c.02,4.21-5.86,6.19-8.36,2.76-4.49-7.03,7.35-11.26,8.36-3.03v.27Z" style="fill:aqua;"/><path d="M378.1,725.97c.02,4.21-5.86,6.19-8.36,2.76-4.49-7.03,7.34-11.26,8.36-3.03v.27Z" style="fill:aqua;"/><path d="M427.67,734.71c.02,4.21-5.86,6.19-8.36,2.76-4.49-7.03,7.35-11.26,8.36-3.03v.27Z" style="fill:aqua;"/><path d="M1105.57,749.29c.02,4.21-5.86,6.19-8.36,2.76-4.49-7.03,7.34-11.26,8.36-3.03v.27Z" style="fill:aqua;"/></svg>