<?xml version="1.0" encoding="UTF-8"?><svg id="uuid-44f63073-a841-4887-9fb7-be91259d1700" xmlns="http://www.w3.org/2000/svg" viewBox="0 0 1920 768"><path d="M546.52,379.5c.17,9.37-10.3,16.58-18.96,12.86-10.66-4.07-11.98-19.05-2.12-24.86,8.92-5.67,21.17,1.31,21.09,11.81v.2Z" fill="currentColor"/><path d="M506.19,402.59c.13,8.53-8.79,15.5-17.03,13.16-11.7-2.98-14.07-18.79-3.64-24.99,8.77-5.52,20.75,1.35,20.67,11.63v.2Z" fill="currentColor"/><path d="M1611.92,234.58c.07,10.06-11.62,16.81-20.23,11.45-10.26-6.04-8.01-21.56,3.46-24.54,8.1-2.34,16.9,4.5,16.77,12.89v.2Z" fill="currentColor"/><path d="M1588.96,195.62c.07,10.06-11.62,16.81-20.23,11.45-10.26-6.04-8.01-21.56,3.46-24.54,8.1-2.34,16.9,4.5,16.77,12.89v.2Z" fill="currentColor"/><path d="M647.01,373.77c.08,10.02-11.59,16.7-20.13,11.32-10.44-6.22-7.62-22.11,4.23-24.48,7.87-1.78,16.02,4.92,15.9,12.96v.2Z" fill="currentColor"/><path d="M1673.01,251.77c.08,10.02-11.59,16.7-20.13,11.32-10.44-6.22-7.62-22.11,4.23-24.48,7.87-1.78,16.02,4.92,15.9,12.96v.2Z" fill="currentColor"/><path d="M607.01,396.42c.08,10.02-11.59,16.7-20.13,11.32-10.44-6.22-7.62-22.11,4.23-24.48,7.87-1.78,16.02,4.92,15.9,12.96v.2Z" fill="currentColor"/><path d="M1651.01,211.77c.12,8.04-8.03,14.74-15.9,12.96-11.85-2.37-14.67-18.26-4.23-24.48,8.54-5.38,20.21,1.3,20.13,11.32v.2Z" fill="currentColor"/><path d="M567.67,418.42c.12,8.04-8.03,14.75-15.91,12.97-11.85-2.37-14.67-18.27-4.23-24.49,8.54-5.38,20.22,1.3,20.14,11.32v.2Z" fill="currentColor"/><path d="M584.74,356.49c.12,8.08-8.23,14.73-16.08,12.68-11.46-2.67-13.87-18.15-3.65-24.1,8.41-5.19,19.8,1.41,19.72,11.22v.2Z" fill="currentColor"/><path d="M1633.54,273.71c.12,8.08-8.24,14.73-16.09,12.66-11.4-2.68-13.82-18.06-3.67-24.04,8.4-5.24,19.83,1.35,19.76,11.18v.2Z" fill="currentColor"/><path d="M1656.74,312.49c.07,9.81-11.31,16.41-19.72,11.22-10.22-5.95-7.82-21.43,3.65-24.1,7.85-2.05,16.2,4.6,16.08,12.68v.2Z" fill="currentColor"/><path d="M1526.74,178.49c.07,9.81-11.31,16.41-19.72,11.22-10.22-5.95-7.82-21.43,3.65-24.1,7.85-2.05,16.2,4.6,16.08,12.68v.2Z" fill="currentColor"/><path d="M1425.54,184.5c.07,9.8-11.31,16.4-19.72,11.22-10.22-5.95-7.81-21.42,3.65-24.09,7.85-2.05,16.19,4.6,16.07,12.68v.2Z" fill="currentColor"/><path d="M685.54,350.5c.07,9.8-11.31,16.4-19.72,11.22-10.22-5.95-7.81-21.42,3.65-24.09,7.85-2.05,16.19,4.6,16.07,12.68v.2Z" fill="currentColor"/><path d="M1549.54,217.71c.07,9.82-11.36,16.42-19.76,11.18-10.15-5.98-7.73-21.35,3.67-24.04,7.85-2.07,16.21,4.58,16.09,12.66v.2Z" fill="currentColor"/><path d="M1487.51,201.64c.12,8.03-8.18,14.63-15.98,12.58-11.32-2.66-13.73-17.94-3.65-23.87,8.34-5.2,19.7,1.34,19.63,11.1v.2Z" fill="currentColor"/><path d="M1285.51,213.64c.12,8.03-8.18,14.63-15.98,12.58-11.32-2.66-13.73-17.94-3.65-23.87,8.34-5.2,19.7,1.34,19.63,11.1v.2Z" fill="currentColor"/><path d="M528.53,441.6c.07,9.67-11.13,16.21-19.46,11.13-10.23-5.9-7.78-21.36,3.69-23.91,7.73-1.93,15.88,4.64,15.77,12.58v.2Z" fill="currentColor"/><path d="M1695.5,290.58c.11,7.94-8.03,14.5-15.77,12.58-11.46-2.55-13.92-18.01-3.69-23.91,8.32-5.07,19.53,1.46,19.46,11.13v.2Z" fill="currentColor"/><path d="M1324.53,190.6c.11,7.94-8.03,14.5-15.77,12.58-11.46-2.55-13.92-18.01-3.69-23.91,8.32-5.07,19.53,1.46,19.46,11.13v.2Z" fill="currentColor"/><path d="M724.53,328.6c.07,9.67-11.13,16.21-19.46,11.13-10.23-5.9-7.78-21.36,3.69-23.91,7.73-1.93,15.88,4.64,15.77,12.58v.2Z" fill="currentColor"/><path d="M1386.53,207.6c.11,7.94-8.03,14.5-15.77,12.58-11.46-2.55-13.92-18.01-3.69-23.91,8.32-5.07,19.53,1.46,19.46,11.13v.2Z" fill="currentColor"/><path d="M466.2,424.52c.12,9.41-11.01,15.82-19.03,10.75-9.73-5.73-7.46-20.48,3.46-23.12,7.57-2.05,15.69,4.35,15.57,12.17v.2Z" fill="currentColor"/><path d="M1678.2,352.52c.11,7.81-8,14.22-15.57,12.17-10.92-2.64-13.18-17.39-3.45-23.12,8.09-5.05,19.1,1.29,19.03,10.75v.2Z" fill="currentColor"/><path d="M864.04,299.59c.07,9.43-10.92,15.71-18.95,10.64-9.75-5.82-7.2-20.66,3.84-23,7.44-1.78,15.22,4.54,15.11,12.16v.2Z" fill="currentColor"/><path d="M1617.06,335.58c.11,7.62-7.67,13.94-15.11,12.16-11.05-2.34-13.6-17.19-3.85-23.01,8.03-5.07,19.03,1.21,18.96,10.64v.2Z" fill="currentColor"/><path d="M1639.06,374.6c.11,7.62-7.67,13.94-15.11,12.16-11.05-2.34-13.59-17.18-3.84-23,8.03-5.07,19.02,1.21,18.95,10.64v.2Z" fill="currentColor"/><path d="M825.06,322.6c.11,7.62-7.67,13.94-15.11,12.16-11.05-2.34-13.59-17.18-3.84-23,8.03-5.07,19.02,1.21,18.95,10.64v.2Z" fill="currentColor"/><path d="M623.06,334.69c.06,9.39-10.91,15.63-18.88,10.53-9.7-5.86-7-20.66,4.05-22.84,7.34-1.64,14.94,4.61,14.84,12.11v.2Z" fill="currentColor"/><path d="M1661.86,413.5c.1,7.5-7.49,13.75-14.83,12.1-11.04-2.18-13.73-16.97-4.04-22.83,7.97-5.09,18.93,1.14,18.87,10.53v.2Z" fill="currentColor"/><path d="M1571.06,257.48c.06,9.39-10.9,15.63-18.88,10.53-9.7-5.86-7-20.66,4.04-22.84,7.34-1.64,14.94,4.61,14.83,12.11v.2Z" fill="currentColor"/><path d="M763.06,305.48c.06,9.39-10.9,15.63-18.88,10.53-9.7-5.86-7-20.66,4.04-22.84,7.34-1.64,14.94,4.61,14.83,12.11v.2Z" fill="currentColor"/><path d="M1627.06,172.69c.06,9.39-10.91,15.63-18.88,10.53-9.7-5.86-7-20.66,4.05-22.84,7.34-1.64,14.94,4.61,14.84,12.11v.2Z" fill="currentColor"/><path d="M1593.86,296.71c.06,9.38-10.9,15.61-18.86,10.52-9.69-5.86-7-20.64,4.04-22.82,7.34-1.64,14.93,4.61,14.82,12.1v.2Z" fill="currentColor"/><path d="M1003.64,270.74c.1,7.4-7.4,13.56-14.64,11.93-10.93-2.19-13.5-16.86-3.85-22.56,7.78-4.93,18.61,1.3,18.49,10.44v.2Z" fill="currentColor"/><path d="M902.93,276.74c.12,9.14-10.7,15.37-18.49,10.44-9.65-5.7-7.08-20.38,3.85-22.56,7.24-1.64,14.74,4.53,14.64,11.93v.2Z" fill="currentColor"/><path d="M1622.93,436.74c.1,7.4-7.4,13.56-14.64,11.93-10.93-2.19-13.5-16.86-3.85-22.56,7.78-4.93,18.61,1.3,18.49,10.44v.2Z" fill="currentColor"/><path d="M785.64,344.74c.1,7.4-7.4,13.56-14.64,11.93-10.93-2.19-13.5-16.86-3.85-22.56,7.78-4.93,18.61,1.3,18.49,10.44v.2Z" fill="currentColor"/><path d="M1043.64,248.74c.1,7.4-7.4,13.56-14.64,11.93-10.93-2.19-13.5-16.86-3.85-22.56,7.78-4.93,18.61,1.3,18.49,10.44v.2Z" fill="currentColor"/><path d="M1605.44,498.61c.11,8.91-10.44,14.97-18.02,10.17-10.13-6.04-6.25-21.52,5.45-22.2,6.56-.47,12.64,5.26,12.57,11.83v.2Z" fill="currentColor"/><path d="M1144.49,242.63c.07,6.56-6.01,12.3-12.56,11.82-11.69-.68-15.57-16.15-5.45-22.18,7.58-4.8,18.13,1.26,18.01,10.16v.2Z" fill="currentColor"/><path d="M482.49,362.63c.11,8.91-10.43,14.96-18.01,10.16-10.12-6.03-6.24-21.51,5.45-22.18,6.55-.47,12.63,5.26,12.56,11.82v.2Z" fill="currentColor"/><path d="M1599.44,397.56c.11,8.91-10.43,14.97-18.02,10.17-10.13-6.04-6.24-21.52,5.45-22.2,6.56-.47,12.64,5.26,12.57,11.83v.2Z" fill="currentColor"/><path d="M1183.44,219.56c.11,8.91-10.43,14.97-18.02,10.17-10.13-6.04-6.24-21.52,5.45-22.2,6.56-.47,12.64,5.26,12.57,11.83v.2Z" fill="currentColor"/><path d="M521.27,340.68c.11,8.84-10.39,14.84-17.89,10.03-9.12-5.39-6.8-19.4,3.48-21.66,7.05-1.79,14.51,4.19,14.41,11.43v.2Z" fill="currentColor"/><path d="M1700.43,391.5c.11,8.85-10.4,14.86-17.91,10.04-9.13-5.39-6.81-19.42,3.49-21.69,7.06-1.79,14.52,4.19,14.42,11.45v.2Z" fill="currentColor"/><path d="M1644.43,475.5c.11,8.85-10.4,14.86-17.91,10.04-9.13-5.39-6.81-19.42,3.49-21.69,7.06-1.79,14.52,4.19,14.42,11.45v.2Z" fill="currentColor"/><path d="M1564.26,156.6c.11,8.78-10.31,14.73-17.76,9.96-9.05-5.35-6.75-19.26,3.46-21.5,7-1.77,14.4,4.16,14.3,11.35v.2Z" fill="currentColor"/><path d="M1566.27,521.58c.11,8.78-10.31,14.74-17.76,9.96-9.05-5.35-6.75-19.26,3.46-21.51,7-1.77,14.4,4.16,14.3,11.35v.2Z" fill="currentColor"/><path d="M1717.25,329.58c.11,8.78-10.31,14.74-17.77,9.96-9.05-5.35-6.75-19.26,3.46-21.51,7-1.77,14.41,4.16,14.31,11.35v.2Z" fill="currentColor"/><path d="M1582.27,459.58c.11,8.78-10.31,14.74-17.76,9.96-9.05-5.35-6.75-19.26,3.46-21.51,7-1.77,14.4,4.16,14.3,11.35v.2Z" fill="currentColor"/><path d="M1463.25,162.61c.1,7.19-7.3,13.12-14.29,11.35-10.2-2.24-12.5-16.15-3.46-21.49,7.44-4.77,17.86,1.17,17.75,9.95v.2Z" fill="currentColor"/><path d="M1711.25,228.61c.1,7.19-7.3,13.12-14.29,11.35-10.2-2.24-12.5-16.15-3.46-21.49,7.44-4.77,17.86,1.17,17.75,9.95v.2Z" fill="currentColor"/><path d="M1688.27,189.58c.1,7.19-7.3,13.13-14.3,11.35-10.21-2.25-12.51-16.16-3.46-21.51,7.45-4.78,17.87,1.17,17.76,9.96v.2Z" fill="currentColor"/><path d="M443.25,385.58c.11,8.78-10.31,14.74-17.77,9.96-9.05-5.35-6.75-19.26,3.46-21.51,7-1.77,14.41,4.16,14.31,11.35v.2Z" fill="currentColor"/><path d="M488.27,463.58c.11,8.78-10.31,14.74-17.76,9.96-9.05-5.35-6.75-19.26,3.46-21.51,7-1.77,14.4,4.16,14.3,11.35v.2Z" fill="currentColor"/><path d="M1588.07,560.5c.11,8.66-10.12,14.57-17.51,9.94-9.08-5.23-6.88-19.13,3.29-21.4,6.95-1.78,14.32,4.11,14.22,11.26v.2Z" fill="currentColor"/><path d="M746.07,367.7c.1,7.15-7.27,13.04-14.22,11.26-10.17-2.26-12.37-16.17-3.29-21.4,7.39-4.62,17.62,1.29,17.51,9.94v.2Z" fill="currentColor"/><path d="M661.27,311.7c.11,8.66-10.12,14.57-17.51,9.94-9.08-5.23-6.88-19.13,3.29-21.4,6.95-1.78,14.32,4.11,14.22,11.26v.2Z" fill="currentColor"/><path d="M1549.26,582.51c.11,8.65-10.11,14.56-17.5,9.94-9.08-5.23-6.88-19.12,3.29-21.39,6.95-1.78,14.31,4.1,14.21,11.25v.2Z" fill="currentColor"/><path d="M1527.02,543.67c.11,8.43-9.83,14.21-17.06,9.75-9.75-5.67-6.13-20.54,5.06-21.21,6.26-.47,12.07,5,12,11.27v.2Z" fill="currentColor"/><path d="M1575.83,358.48c.11,8.43-9.83,14.21-17.06,9.75-9.75-5.67-6.13-20.54,5.06-21.21,6.26-.47,12.07,5,12,11.27v.2Z" fill="currentColor"/><path d="M1683.02,453.67c.11,8.43-9.83,14.21-17.06,9.75-9.75-5.67-6.13-20.54,5.06-21.21,6.26-.47,12.07,5,12,11.27v.2Z" fill="currentColor"/><path d="M963.83,293.71c.11,8.43-9.83,14.21-17.06,9.75-9.75-5.67-6.13-20.54,5.06-21.21,6.26-.47,12.07,5,12,11.27v.2Z" fill="currentColor"/><path d="M1542.78,481.68c.1,8.34-9.77,14.01-16.87,9.51-8.69-5.08-6.49-18.43,3.3-20.53,6.65-1.65,13.66,3.99,13.57,10.82v.2Z" fill="currentColor"/><path d="M1627.61,537.7c.1,8.33-9.77,13.99-16.85,9.5-8.69-5.08-6.48-18.41,3.3-20.51,6.64-1.64,13.64,3.99,13.55,10.81v.2Z" fill="currentColor"/><path d="M941.61,254.51c.1,8.33-9.77,14-16.86,9.5-8.69-5.08-6.48-18.42,3.3-20.52,6.65-1.65,13.65,3.99,13.56,10.82v.2Z" fill="currentColor"/><path d="M1345.61,230.51c.1,8.33-9.77,14-16.86,9.5-8.69-5.08-6.48-18.42,3.3-20.52,6.65-1.65,13.65,3.99,13.56,10.82v.2Z" fill="currentColor"/><path d="M800.79,282.5c.09,6.83-6.91,12.47-13.57,10.82-9.79-2.1-12-15.45-3.3-20.53,7.1-4.5,16.97,1.17,16.87,9.51v.2Z" fill="currentColor"/><path d="M1509.61,605.7c.1,8.33-9.77,13.99-16.85,9.5-8.69-5.08-6.48-18.41,3.3-20.51,6.64-1.64,13.64,3.99,13.55,10.81v.2Z" fill="currentColor"/><path d="M1244.6,236.57c.1,8.28-9.73,13.88-16.75,9.37-10.15-6.22-4.71-21.78,7.04-20.44,5.34.6,9.74,5.5,9.71,10.88v.2Z" fill="currentColor"/><path d="M1732.6,267.61c-.12,10.8-14.4,15.07-20.32,5.94-3.47-5.02-1.71-12.48,3.56-15.51,7.02-4.51,16.86,1.08,16.76,9.37v.2Z" fill="currentColor"/><path d="M1559.57,420.57c.1,8.29-9.74,13.89-16.76,9.37-10.15-6.22-4.72-21.79,7.05-20.45,5.34.6,9.74,5.5,9.71,10.88v.2Z" fill="currentColor"/><path d="M1503.37,504.47c.03,5.34-4.34,10.2-9.63,10.79-11.67,1.33-17.06-14.11-6.99-20.29,6.96-4.48,16.72,1.07,16.62,9.3v.2Z" fill="currentColor"/><path d="M1446.62,224.47c.03,5.34-4.34,10.2-9.63,10.79-11.67,1.33-17.06-14.11-6.99-20.29,6.96-4.48,16.72,1.07,16.62,9.3v.2Z" fill="currentColor"/><path d="M1486.62,566.47c.03,5.34-4.34,10.2-9.63,10.79-11.67,1.33-17.06-14.11-6.99-20.29,6.96-4.48,16.72,1.07,16.62,9.3v.2Z" fill="currentColor"/><path d="M1081.37,225.72c.1,8.22-9.66,13.77-16.62,9.3-10.07-6.17-4.68-21.61,6.99-20.28,5.3.59,9.66,5.46,9.63,10.79v.2Z" fill="currentColor"/><path d="M1508.62,240.47c.1,8.22-9.66,13.77-16.62,9.3-10.07-6.17-4.68-21.61,6.99-20.28,5.3.59,9.66,5.46,9.63,10.79v.2Z" fill="currentColor"/><path d="M425.37,447.72c.1,8.22-9.66,13.77-16.62,9.3-10.07-6.17-4.68-21.61,6.99-20.28,5.3.59,9.66,5.46,9.63,10.79v.2Z" fill="currentColor"/><path d="M705.37,389.72c.1,8.22-9.66,13.77-16.62,9.3-10.07-6.17-4.68-21.61,6.99-20.28,5.3.59,9.66,5.46,9.63,10.79v.2Z" fill="currentColor"/><path d="M1666.62,514.47c.1,8.22-9.66,13.77-16.62,9.3-10.07-6.17-4.68-21.61,6.99-20.28,5.3.59,9.66,5.46,9.63,10.79v.2Z" fill="currentColor"/><path d="M559.37,317.72c.1,8.22-9.66,13.77-16.62,9.3-10.07-6.17-4.68-21.61,6.99-20.28,5.3.59,9.66,5.46,9.63,10.79v.2Z" fill="currentColor"/><path d="M1361.16,168.68c-.12,10.34-13.84,14.38-19.43,5.57-3.22-4.76-1.55-11.77,3.39-14.66,6.69-4.37,16.13.96,16.04,8.89v.2Z" fill="currentColor"/><path d="M1103.16,264.68c-.12,10.34-13.84,14.38-19.43,5.57-3.22-4.76-1.55-11.77,3.39-14.66,6.69-4.37,16.13.96,16.04,8.89v.2Z" fill="currentColor"/><path d="M1737.98,368.68c-.12,10.34-13.84,14.38-19.43,5.57-3.22-4.76-1.55-11.77,3.39-14.66,6.69-4.37,16.13.96,16.04,8.89v.2Z" fill="currentColor"/><path d="M1721.98,430.68c.09,7.93-9.35,13.26-16.04,8.89-9.63-6-4.35-20.8,6.84-19.45,5.06.6,9.22,5.26,9.2,10.36v.2Z" fill="currentColor"/><path d="M1571.16,622.68c-.12,10.34-13.84,14.38-19.43,5.57-3.22-4.76-1.55-11.77,3.39-14.66,6.69-4.37,16.13.96,16.04,8.89v.2Z" fill="currentColor"/><path d="M1531.98,644.68c-.12,10.34-13.84,14.38-19.43,5.57-3.22-4.76-1.55-11.77,3.39-14.66,6.69-4.37,16.13.96,16.04,8.89v.2Z" fill="currentColor"/><path d="M1519.64,442.76c.02,4.97-4.02,9.51-8.95,10.11-10.98,1.35-16.14-13.19-6.66-19.02,6.53-4.21,15.7,1,15.61,8.71v.2Z" fill="currentColor"/><path d="M665.64,412.76c.02,4.97-4.02,9.51-8.95,10.11-10.98,1.35-16.14-13.19-6.66-19.02,6.53-4.21,15.7,1,15.61,8.71v.2Z" fill="currentColor"/><path d="M401.64,408.76c.02,4.97-4.02,9.51-8.95,10.11-10.98,1.35-16.14-13.19-6.66-19.02,6.53-4.21,15.7,1,15.61,8.71v.2Z" fill="currentColor"/><path d="M1704.99,492.78c.09,7.71-9.07,12.91-15.6,8.7-9.47-5.83-4.31-20.35,6.66-19,4.92.6,8.96,5.13,8.94,10.1v.2Z" fill="currentColor"/><path d="M698.99,288.78c.02,4.97-4.02,9.5-8.94,10.1-10.97,1.35-16.13-13.18-6.66-19,6.53-4.2,15.68,1,15.6,8.7v.2Z" fill="currentColor"/><path d="M1552.99,318.78c.09,7.71-9.07,12.91-15.6,8.7-9.47-5.83-4.31-20.35,6.66-19,4.92.6,8.96,5.13,8.94,10.1v.2Z" fill="currentColor"/><path d="M1609.64,599.42c.02,4.97-4.02,9.5-8.94,10.11-10.98,1.35-16.13-13.18-6.66-19.01,6.53-4.21,15.69,1,15.6,8.71v.2Z" fill="currentColor"/><path d="M1663.64,150.76c.09,7.71-9.08,12.92-15.61,8.71-9.48-5.83-4.32-20.37,6.66-19.02,4.93.6,8.97,5.14,8.95,10.11v.2Z" fill="currentColor"/><path d="M1220.99,196.78c.09,7.71-9.07,12.91-15.6,8.7-9.47-5.83-4.31-20.35,6.66-19,4.92.6,8.96,5.13,8.94,10.1v.2Z" fill="currentColor"/><path d="M1754.71,306.65c-.63,13.15-19.46,13.28-20.21.1.26-13.44,19.53-13.7,20.21-.3v.2Z" fill="currentColor"/><path d="M1535.57,380.68c-.68,13.4-19.94,13.15-20.21-.3.75-13.19,19.58-13.04,20.21.1v.2Z" fill="currentColor"/><path d="M1463.57,527.51c-.68,13.4-19.94,13.15-20.21-.3.75-13.19,19.58-13.04,20.21.1v.2Z" fill="currentColor"/><path d="M923.57,316.68c-.68,13.4-19.94,13.15-20.21-.3.75-13.19,19.58-13.04,20.21.1v.2Z" fill="currentColor"/><path d="M1529.57,279.51c-.63,13.15-19.46,13.28-20.21.1.26-13.44,19.53-13.7,20.21-.3v.2Z" fill="currentColor"/><path d="M1648.71,576.65c-.63,13.15-19.46,13.28-20.21.1.26-13.44,19.53-13.7,20.21-.3v.2Z" fill="currentColor"/><path d="M1469.57,628.68c-.63,13.15-19.46,13.28-20.21.1.26-13.44,19.53-13.7,20.21-.3v.2Z" fill="currentColor"/><path d="M447.35,486.67c-.62,12.86-19.04,13-19.77.1.25-13.16,19.12-13.42,19.77-.3v.2Z" fill="currentColor"/><path d="M1446.48,588.65c-.62,12.88-19.06,13.01-19.79.1.25-13.17,19.14-13.43,19.79-.3v.2Z" fill="currentColor"/><path d="M626.28,435.6c-.62,12.71-18.82,12.85-19.55.1.25-13.02,18.89-13.27,19.55-.3v.2Z" fill="currentColor"/><path d="M839.31,260.58c-.67,12.96-19.29,12.7-19.53-.3.74-12.74,18.92-12.6,19.53.1v.2Z" fill="currentColor"/><path d="M1479.32,465.6c-.62,12.72-18.82,12.86-19.56.1.25-13.02,18.89-13.27,19.56-.3v.2Z" fill="currentColor"/><path d="M597.32,295.6c-.62,12.72-18.82,12.86-19.56.1.25-13.02,18.89-13.27,19.56-.3v.2Z" fill="currentColor"/><path d="M1601.83,133.72c-.63,12.52-18.64,12.26-18.87-.3.71-12.3,18.28-12.16,18.87.1v.2Z" fill="currentColor"/><path d="M1687.08,554.47c-.59,12.27-18.16,12.4-18.87.1.23-12.56,18.23-12.81,18.87-.3v.2Z" fill="currentColor"/><path d="M417.83,346.47c-.59,12.27-18.16,12.4-18.87.1.23-12.56,18.23-12.81,18.87-.3v.2Z" fill="currentColor"/><path d="M587.08,457.72c-.63,12.52-18.64,12.26-18.87-.3.71-12.3,18.28-12.16,18.87.1v.2Z" fill="currentColor"/><path d="M1759.42,407.96c-.48,11.64-17.13,12.31-18.48.7-.54-12.7,17.77-13.56,18.48-.89v.2Z" fill="currentColor"/><path d="M457.14,323.96c-.48,11.64-17.13,12.31-18.48.7-.54-12.7,17.77-13.56,18.48-.89v.2Z" fill="currentColor"/><path d="M1775.4,346.44c-.47,11.33-16.68,12.01-18.02.7-.56-12.4,17.33-13.26,18.02-.9v.2Z" fill="currentColor"/><path d="M547.4,480.44c-.7,12.37-18.58,11.5-18.02-.9,1.34-11.32,17.55-10.63,18.02.7v.2Z" fill="currentColor"/><path d="M1439.4,487.73c-.7,12.37-18.58,11.5-18.02-.9,1.34-11.32,17.55-10.63,18.02.7v.2Z" fill="currentColor"/><path d="M978.69,231.75c-.47,11.32-16.66,12-18,.7-.56-12.38,17.31-13.25,18-.9v.2Z" fill="currentColor"/><path d="M378.69,368.45c-.47,11.33-16.68,12.01-18.02.7-.56-12.39,17.32-13.26,18.02-.9v.2Z" fill="currentColor"/><path d="M1724.69,166.45c-.47,11.33-16.68,12.01-18.02.7-.56-12.39,17.32-13.26,18.02-.9v.2Z" fill="currentColor"/><path d="M1499.4,139.73c-.47,11.34-16.68,12.01-18.02.7-.56-12.4,17.33-13.26,18.02-.9v.2Z" fill="currentColor"/><path d="M361.4,430.44c-.7,12.37-18.58,11.5-18.02-.9,1.34-11.32,17.55-10.63,18.02.7v.2Z" fill="currentColor"/><path d="M1747.4,205.73c-.47,11.34-16.68,12.01-18.02.7-.56-12.4,17.33-13.26,18.02-.9v.2Z" fill="currentColor"/><path d="M384.69,469.75c-.47,11.32-16.66,12-18,.7-.56-12.38,17.31-13.25,18-.9v.2Z" fill="currentColor"/><path d="M1742.69,469.75c-.47,11.32-16.66,12-18,.7-.56-12.38,17.31-13.25,18-.9v.2Z" fill="currentColor"/><path d="M1491.4,667.73c-.47,11.34-16.68,12.01-18.02.7-.56-12.4,17.33-13.26,18.02-.9v.2Z" fill="currentColor"/><path d="M1423.4,549.73c-.7,12.37-18.58,11.5-18.02-.9,1.34-11.32,17.55-10.63,18.02.7v.2Z" fill="currentColor"/><path d="M1495.3,403.66c-.68,12.07-18.14,11.21-17.58-.89,1.32-11.03,17.12-10.35,17.58.69v.2Z" fill="currentColor"/><path d="M1203.3,258.54c-.46,11.05-16.26,11.72-17.58.69-.56-12.1,16.9-12.96,17.58-.89v.2Z" fill="currentColor"/><path d="M1118.39,202.57c-.68,12.07-18.14,11.21-17.58-.89,1.32-11.03,17.12-10.35,17.58.69v.2Z" fill="currentColor"/><path d="M1258.19,174.66c-.45,10.9-16.05,11.57-17.36.69-.57-11.95,16.69-12.81,17.36-.89v.2Z" fill="currentColor"/><path d="M883.28,338.62c-.67,11.92-17.93,11.06-17.36-.89,1.31-10.88,16.91-10.21,17.36.69v.2Z" fill="currentColor"/><path d="M1062.19,287.53c-.45,10.9-16.05,11.57-17.36.69-.57-11.95,16.69-12.81,17.36-.89v.2Z" fill="currentColor"/><path d="M1769.28,245.57c-.45,10.9-16.05,11.57-17.36.69-.57-11.95,16.69-12.81,17.36-.89v.2Z" fill="currentColor"/><path d="M495.28,301.57c-.45,10.9-16.05,11.57-17.36.69-.57-11.95,16.69-12.81,17.36-.89v.2Z" fill="currentColor"/><path d="M737.05,266.81c-.44,10.51-15.53,11-16.59.49-.38-11.3,16.02-11.95,16.59-.69v.2Z" fill="currentColor"/><path d="M1639.57,110.86c-.58,11.23-16.92,10.57-16.54-.69,1.06-10.48,16.1-9.98,16.54.49v.2Z" fill="currentColor"/><path d="M1725.58,531.35c-.44,10.5-15.51,10.99-16.57.49-.38-11.28,16-11.94,16.57-.69v.2Z" fill="currentColor"/><path d="M1511.58,341.35c-.44,10.5-15.51,10.99-16.57.49-.38-11.28,16-11.94,16.57-.69v.2Z" fill="currentColor"/><path d="M1405.58,611.35c-.58,11.26-16.95,10.59-16.57-.69,1.06-10.5,16.13-10,16.57.49v.2Z" fill="currentColor"/><path d="M1631.05,638.81c-.44,10.51-15.53,11-16.59.49-.38-11.3,16.02-11.95,16.59-.69v.2Z" fill="currentColor"/><path d="M1303.57,252.86c-.58,11.23-16.92,10.57-16.54-.69,1.06-10.48,16.1-9.98,16.54.49v.2Z" fill="currentColor"/><path d="M1591.58,661.35c-.44,10.5-15.51,10.99-16.57.49-.38-11.28,16-11.94,16.57-.69v.2Z" fill="currentColor"/><path d="M338.78,391.51c-.58,11.08-16.7,10.43-16.32-.69,1.06-10.34,15.87-9.83,16.32.49v.2Z" fill="currentColor"/><path d="M1669.6,615.51c-.58,11.08-16.7,10.43-16.32-.69,1.06-10.34,15.87-9.83,16.32.49v.2Z" fill="currentColor"/><path d="M1382.78,572.68c-.58,11.08-16.7,10.43-16.32-.69,1.06-10.34,15.87-9.83,16.32.49v.2Z" fill="currentColor"/><path d="M1455.6,426.68c-.58,11.08-16.7,10.43-16.32-.69,1.06-10.34,15.87-9.83,16.32.49v.2Z" fill="currentColor"/><path d="M1701.6,127.51c-.58,11.08-16.7,10.43-16.32-.69,1.06-10.34,15.87-9.83,16.32.49v.2Z" fill="currentColor"/><path d="M1399.6,510.68c-.58,11.08-16.7,10.43-16.32-.69,1.06-10.34,15.87-9.83,16.32.49v.2Z" fill="currentColor"/><path d="M1428.78,650.68c-.58,11.08-16.7,10.43-16.32-.69,1.06-10.34,15.87-9.83,16.32.49v.2Z" fill="currentColor"/><path d="M406.78,509.51c-.58,11.08-16.7,10.43-16.32-.69,1.06-10.34,15.87-9.83,16.32.49v.2Z" fill="currentColor"/><path d="M507.6,503.51c-.58,11.08-16.7,10.43-16.32-.69,1.06-10.34,15.87-9.83,16.32.49v.2Z" fill="currentColor"/><path d="M1551.6,683.51c-.58,11.08-16.7,10.43-16.32-.69,1.06-10.34,15.87-9.83,16.32.49v.2Z" fill="currentColor"/><path d="M1404.62,246.86c-.41,9.76-14.36,10.44-15.63.7-.66-10.8,15.04-11.67,15.63-.89v.2Z" fill="currentColor"/><path d="M635.09,272.86c-.41,9.76-14.36,10.44-15.63.7-.66-10.8,15.04-11.67,15.63-.89v.2Z" fill="currentColor"/><path d="M1397.09,145.34c-.59,10.78-16.3,9.9-15.63-.89,1.27-9.75,15.22-9.06,15.63.7v.2Z" fill="currentColor"/><path d="M1780.06,447.65c-.57,10.47-15.84,9.58-15.16-.89,1.25-9.43,14.77-8.76,15.16.7v.2Z" fill="currentColor"/><path d="M1791.19,284.51c-.57,10.47-15.85,9.59-15.16-.89,1.25-9.43,14.78-8.76,15.16.7v.2Z" fill="currentColor"/><path d="M344.05,492.54c-.39,9.44-13.89,10.1-15.13.69-.68-10.46,14.57-11.34,15.13-.89v.2Z" fill="currentColor"/><path d="M1708.06,593.65c-.57,10.47-15.84,9.58-15.16-.89,1.25-9.43,14.77-8.76,15.16.7v.2Z" fill="currentColor"/><path d="M321.18,453.83c-.41,9.35-13.8,9.84-14.83.5-.42-10.14,14.28-10.79,14.83-.69v.2Z" fill="currentColor"/><path d="M1797.18,385.83c-.55,10.1-15.25,9.44-14.83-.69,1.03-9.35,14.42-8.85,14.83.5v.2Z" fill="currentColor"/><path d="M1359.78,533.76c-.33,9.1-13.47,9.77-14.65.7-.69-10.15,14.09-11.02,14.65-.89v.2Z" fill="currentColor"/><path d="M875.78,237.76c-.33,9.1-13.47,9.77-14.65.7-.69-10.15,14.09-11.02,14.65-.89v.2Z" fill="currentColor"/><path d="M533.78,278.44c-.33,9.1-13.47,9.77-14.65.7-.69-10.15,14.09-11.02,14.65-.89v.2Z" fill="currentColor"/><path d="M467.03,525.69c-.57,10.13-15.35,9.25-14.65-.89,1.19-9.08,14.32-8.4,14.65.7v.2Z" fill="currentColor"/><path d="M843.03,361.69c-.33,9.1-13.47,9.77-14.65.7-.69-10.15,14.09-11.02,14.65-.89v.2Z" fill="currentColor"/><path d="M1415.78,448.44c-.57,10.13-15.35,9.25-14.65-.89,1.19-9.08,14.32-8.4,14.65.7v.2Z" fill="currentColor"/><path d="M1763.78,508.44c-.57,10.13-15.35,9.25-14.65-.89,1.19-9.08,14.32-8.4,14.65.7v.2Z" fill="currentColor"/><path d="M1511.37,706.56c-.35,8.75-13.05,9.05-13.76.3-.19-9.31,13.28-9.75,13.76-.49v.19Z" fill="currentColor"/><path d="M353.37,329.64c-.35,8.75-13.05,9.05-13.76.3-.19-9.31,13.28-9.75,13.76-.49v.19Z" fill="currentColor"/><path d="M297.37,414.56c-.35,8.75-13.05,9.05-13.76.3-.19-9.31,13.28-9.75,13.76-.49v.19Z" fill="currentColor"/><path d="M392.45,307.64c-.35,8.75-13.05,9.05-13.76.3-.19-9.31,13.28-9.75,13.76-.49v.19Z" fill="currentColor"/><path d="M1449.37,689.64c-.35,8.75-13.05,9.05-13.76.3-.19-9.31,13.28-9.75,13.76-.49v.19Z" fill="currentColor"/><path d="M1375.37,471.64c-.35,8.75-13.05,9.05-13.76.3-.19-9.31,13.28-9.75,13.76-.49v.19Z" fill="currentColor"/><path d="M1015.37,209.64c-.48,9.26-13.95,8.81-13.76-.49.71-8.75,13.42-8.45,13.76.3v.19Z" fill="currentColor"/><path d="M1470.25,364.63c-.56,9.48-14.43,8.4-13.45-1.08,1.35-8.15,13.16-7.34,13.45.88v.19Z" fill="currentColor"/><path d="M1365.32,634.63c-.56,9.48-14.43,8.4-13.45-1.08,1.35-8.15,13.16-7.34,13.45.88v.19Z" fill="currentColor"/><path d="M1746.25,570.63c-.56,9.48-14.43,8.4-13.45-1.08,1.35-8.15,13.16-7.34,13.45.88v.19Z" fill="currentColor"/><path d="M314.25,352.63c-.53,9.36-14.19,8.48-13.48-.88,1.15-8.31,13.17-7.64,13.48.69v.19Z" fill="currentColor"/><path d="M365.32,531.56c-.56,9.48-14.43,8.4-13.45-1.08,1.35-8.15,13.16-7.34,13.45.88v.19Z" fill="currentColor"/><path d="M1342.25,594.63c-.53,9.36-14.19,8.48-13.48-.88,1.15-8.31,13.17-7.64,13.48.69v.19Z" fill="currentColor"/><path d="M1676.92,88.82c-.28,7.57-11.19,8.23-12.31.69-.75-8.6,11.81-9.48,12.31-.89v.2Z" fill="currentColor"/><path d="M1463.5,263.4c-.28,7.57-11.19,8.23-12.31.69-.75-8.6,11.81-9.48,12.31-.89v.2Z" fill="currentColor"/><path d="M1650.92,677.34c-.28,7.6-11.24,8.26-12.37.7-.76-8.63,11.86-9.53,12.37-.89v.2Z" fill="currentColor"/><path d="M1611.5,700.8c-.28,7.58-11.21,8.24-12.33.69-.76-8.61,11.83-9.5,12.33-.89v.2Z" fill="currentColor"/><path d="M280.92,475.34c-.28,7.6-11.24,8.26-12.37.7-.76-8.63,11.86-9.53,12.37-.89v.2Z" fill="currentColor"/><path d="M1486.92,302.82c-.28,7.57-11.19,8.23-12.31.69-.75-8.6,11.81-9.48,12.31-.89v.2Z" fill="currentColor"/><path d="M773.5,243.4c-.28,7.57-11.19,8.23-12.31.69-.75-8.6,11.81-9.48,12.31-.89v.2Z" fill="currentColor"/><path d="M1812.92,323.34c-.28,7.6-11.24,8.26-12.37.7-.76-8.63,11.86-9.53,12.37-.89v.2Z" fill="currentColor"/><path d="M302.92,515.34c-.28,7.6-11.24,8.26-12.37.7-.76-8.63,11.86-9.53,12.37-.89v.2Z" fill="currentColor"/><path d="M1020.92,310.82c-.51,8.6-13.07,7.7-12.31-.89,1.12-7.53,12.03-6.87,12.31.69v.2Z" fill="currentColor"/><path d="M431.5,284.8c-.28,7.58-11.21,8.24-12.33.69-.76-8.61,11.83-9.5,12.33-.89v.2Z" fill="currentColor"/><path d="M1160.92,281.34c-.28,7.6-11.24,8.26-12.37.7-.76-8.63,11.86-9.53,12.37-.89v.2Z" fill="currentColor"/><path d="M257.59,436.7c-.5,8.47-12.89,7.58-12.12-.89,1.12-7.4,11.85-6.75,12.12.7v.2Z" fill="currentColor"/><path d="M802.71,383.58c-.27,7.45-11,8.1-12.12.7-.77-8.47,11.62-9.37,12.12-.89v.2Z" fill="currentColor"/><path d="M274.71,374.61c-.5,8.47-12.89,7.58-12.12-.89,1.12-7.4,11.85-6.75,12.12.7v.2Z" fill="currentColor"/><path d="M1760.71,144.61c-.5,8.47-12.89,7.58-12.12-.89,1.12-7.4,11.85-6.75,12.12.7v.2Z" fill="currentColor"/><path d="M1783.59,183.5c-.5,8.47-12.89,7.58-12.12-.89,1.12-7.4,11.85-6.75,12.12.7v.2Z" fill="currentColor"/><path d="M1818.71,424.61c-.5,8.47-12.89,7.58-12.12-.89,1.12-7.4,11.85-6.75,12.12.7v.2Z" fill="currentColor"/><path d="M1335.59,493.5c-.27,7.45-11,8.1-12.12.7-.77-8.47,11.62-9.37,12.12-.89v.2Z" fill="currentColor"/><path d="M1801.59,486.7c-.5,8.47-12.89,7.58-12.12-.89,1.12-7.4,11.85-6.75,12.12.7v.2Z" fill="currentColor"/><path d="M1690.71,655.58c-.5,8.47-12.89,7.58-12.12-.89,1.12-7.4,11.85-6.75,12.12.7v.2Z" fill="currentColor"/><path d="M1387.59,673.5c-.5,8.47-12.89,7.58-12.12-.89,1.12-7.4,11.85-6.75,12.12.7v.2Z" fill="currentColor"/><path d="M426.71,548.61c-.5,8.47-12.89,7.58-12.12-.89,1.12-7.4,11.85-6.75,12.12.7v.2Z" fill="currentColor"/><path d="M1319.59,555.5c-.27,7.45-11,8.1-12.12.7-.77-8.47,11.62-9.37,12.12-.89v.2Z" fill="currentColor"/><path d="M1536.71,116.61c-.27,7.45-11,8.1-12.12.7-.77-8.47,11.62-9.37,12.12-.89v.2Z" fill="currentColor"/><path d="M1154.71,180.61c-.5,8.47-12.89,7.58-12.12-.89,1.12-7.4,11.85-6.75,12.12.7v.2Z" fill="currentColor"/><path d="M315.34,557.38c-2.33-2.59.59-6.67,2.79-8.48,2.2-1.48,5.46.87,6.38,2.86,1.42,4.61-5.56,9.17-9.05,5.74l-.12-.12Z" fill="currentColor"/><path d="M1832.55,365.5c-3.5,3.44-10.48-1.16-9.05-5.74.92-1.99,4.18-4.34,6.38-2.86,2.2,1.8,5.12,5.9,2.79,8.48l-.12.12Z" fill="currentColor"/><path d="M1720.5,636.55c-3.44-3.5,1.16-10.48,5.74-9.05,1.99.92,4.34,4.18,2.86,6.38-1.8,2.2-5.9,5.12-8.48,2.79l-.12-.12Z" fill="currentColor"/><path d="M1428.55,389.5c-3.5,3.44-10.48-1.16-9.05-5.74.92-1.99,4.18-4.34,6.38-2.86,2.2,1.8,5.12,5.9,2.79,8.48l-.12.12Z" fill="currentColor"/><path d="M1381.45,406.5c3.5-3.44,10.48,1.16,9.05,5.74-.92,1.99-4.18,4.34-6.38,2.86-2.2-1.8-5.12-5.9-2.79-8.48l.12-.12Z" fill="currentColor"/><path d="M670.66,246.62c2.33,2.59-.59,6.67-2.79,8.48-2.2,1.48-5.46-.87-6.38-2.86-1.42-4.61,5.56-9.17,9.05-5.74l.12.12Z" fill="currentColor"/><path d="M1804.55,225.5c-3.5,3.44-10.48-1.16-9.05-5.74.92-1.99,4.18-4.34,6.38-2.86,2.2,1.8,5.12,5.9,2.79,8.48l-.12.12Z" fill="currentColor"/><path d="M1292.66,148.62c2.33,2.59-.59,6.67-2.79,8.48-2.2,1.48-5.46-.87-6.38-2.86-1.42-4.61,5.56-9.17,9.05-5.74l.12.12Z" fill="currentColor"/><path d="M1294.55,519.5c-3.5,3.44-10.48-1.16-9.05-5.74.92-1.99,4.18-4.34,6.38-2.86,2.2,1.8,5.12,5.9,2.79,8.48l-.12.12Z" fill="currentColor"/><path d="M1612.66,68.62c2.33,2.59-.59,6.67-2.79,8.48-2.2,1.48-5.46-.87-6.38-2.86-1.42-4.61,5.56-9.17,9.05-5.74l.12.12Z" fill="currentColor"/><path d="M1775.34,551.38c-2.33-2.59.59-6.67,2.79-8.48,2.2-1.48,5.46.87,6.38,2.86,1.42,4.61-5.56,9.17-9.05,5.74l-.12-.12Z" fill="currentColor"/><path d="M1570.66,720.62c2.33,2.59-.59,6.67-2.79,8.48-2.2,1.48-5.46-.87-6.38-2.86-1.42-4.61,5.56-9.17,9.05-5.74l.12.12Z" fill="currentColor"/><path d="M761.92,406.81c-.41,7.01-10.63,6.55-10.35-.5.64-6.5,10.06-6.19,10.35.3v.2Z" fill="currentColor"/><path d="M240.48,498.81c-.29,6.5-9.7,6.8-10.35.3-.28-7.05,9.94-7.5,10.35-.5v.2Z" fill="currentColor"/><path d="M570.48,255.38c-.41,7.01-10.63,6.55-10.35-.5.64-6.5,10.06-6.19,10.35.3v.2Z" fill="currentColor"/><path d="M1301.92,617.38c-.41,7.01-10.63,6.55-10.35-.5.64-6.5,10.06-6.19,10.35.3v.2Z" fill="currentColor"/><path d="M262.48,537.38c-.41,7.01-10.63,6.55-10.35-.5.64-6.5,10.06-6.19,10.35.3v.2Z" fill="currentColor"/><path d="M386.48,570.81c-.41,7.01-10.63,6.55-10.35-.5.64-6.5,10.06-6.19,10.35.3v.2Z" fill="currentColor"/><path d="M1324.48,656.81c-.41,7.01-10.63,6.55-10.35-.5.64-6.5,10.06-6.19,10.35.3v.2Z" fill="currentColor"/><path d="M234.48,397.38c-.29,6.5-9.7,6.8-10.35.3-.28-7.05,9.94-7.5,10.35-.5v.2Z" fill="currentColor"/><path d="M1351.92,432.81c-.41,7.01-10.63,6.55-10.35-.5.64-6.5,10.06-6.19,10.35.3v.2Z" fill="currentColor"/><path d="M912.64,215.79c-.31,6.41-9.67,6.33-9.84-.1.17-6.44,9.54-6.5,9.84-.1v.2Z" fill="currentColor"/><path d="M217.24,459.78c-.31,6.42-9.69,6.34-9.86-.1.17-6.45,9.56-6.51,9.86-.1v.2Z" fill="currentColor"/><path d="M1827.24,261.78c-.3,6.41-9.69,6.35-9.86-.1.17-6.44,9.55-6.52,9.86-.1v.2Z" fill="currentColor"/><path d="M289.24,313.78c-.31,6.42-9.69,6.34-9.86-.1.17-6.45,9.56-6.51,9.86-.1v.2Z" fill="currentColor"/><path d="M1260.64,275.79c-.31,6.41-9.67,6.33-9.84-.1.17-6.44,9.54-6.5,9.84-.1v.2Z" fill="currentColor"/><path d="M1272.09,572.97c4.47-.7,8.92,6.28,4.8,9.46-2.63,2.09-7.37-.18-7.96-3.64-.56-2.29.59-5.26,3-5.79l.16-.03Z" fill="currentColor"/><path d="M1402.09,706.97c4.47-.7,8.92,6.28,4.8,9.46-2.63,2.09-7.37-.18-7.96-3.64-.56-2.29.59-5.26,3-5.79l.16-.03Z" fill="currentColor"/><path d="M1306.09,448.97c4.47-.7,8.92,6.28,4.8,9.46-2.63,2.09-7.37-.18-7.96-3.64-.56-2.29.59-5.26,3-5.79l.16-.03Z" fill="currentColor"/><path d="M1431.6,120.14c.82.82,1.62,1.88,1.63,3.09.06,1.69-1.99,3.83-3.69,3.97-1.48.17-3.11-1.19-4-2.4-1.3-1.59.51-3.18,1.63-4.28,1.4-1.41,2.77-2.11,4.31-.49l.12.11Z" fill="currentColor"/><path d="M1765.86,611.6c-.82.82-1.88,1.62-3.09,1.63-1.69.06-3.83-1.99-3.97-3.69-.17-1.48,1.19-3.11,2.4-4,1.59-1.3,3.18.51,4.28,1.63,1.41,1.4,2.11,2.77.49,4.31l-.11.12Z" fill="currentColor"/><path d="M467.8,263.74c-1,.93-2.37,1.96-3.79,1.43-1.34-.51-3.04-2.36-3.2-3.75-.2-1.51,1.31-3.31,2.6-3.92,1.55-.67,2.83.98,3.87,1.93,1.35,1.38,2.44,2.67.63,4.19l-.12.12Z" fill="currentColor"/><path d="M1253.6,536.14c.82.82,1.62,1.88,1.63,3.09.06,1.69-1.99,3.83-3.69,3.97-1.48.17-3.11-1.19-4-2.4-1.3-1.59.51-3.18,1.63-4.28,1.4-1.41,2.77-2.11,4.31-.49l.12.11Z" fill="currentColor"/><path d="M328,287.92c2.26,2.8-1.31,6.42-4.01,7.24-1.3.24-2.77-1.11-3.35-2.45-1.08-3.45,4.34-8.09,7.25-4.91l.1.12Z" fill="currentColor"/><path d="M247.74,332.2c.93,1,1.96,2.37,1.43,3.79-.51,1.34-2.36,3.04-3.75,3.2-1.51.2-3.31-1.31-3.92-2.6-.67-1.55.98-2.83,1.93-3.87,1.38-1.35,2.67-2.44,4.19-.63l.12.12Z" fill="currentColor"/><path d="M1572.11,91.85c3.76,4.52-2.8,9.78-6.31,4.9-.82-1.03-1.5-2.41-.89-3.67,1.34-2.79,4.89-3.88,7.07-1.37l.12.14Z" fill="currentColor"/><path d="M978.11,329.85c3.76,4.52-2.8,9.78-6.31,4.9-.82-1.03-1.5-2.41-.89-3.67,1.34-2.79,4.89-3.88,7.07-1.37l.12.14Z" fill="currentColor"/><path d="M1736,101.92c2.26,2.8-1.31,6.42-4.01,7.24-1.3.24-2.77-1.11-3.35-2.45-1.08-3.45,4.34-8.09,7.25-4.91l.1.12Z" fill="currentColor"/><path d="M1467.74,726.2c.93,1,1.96,2.37,1.43,3.79-.51,1.34-2.36,3.04-3.75,3.2-1.51.2-3.31-1.31-3.92-2.6-.67-1.55.98-2.83,1.93-3.87,1.38-1.35,2.67-2.44,4.19-.63l.12.12Z" fill="currentColor"/><path d="M1261.68,640.63c-.3,5.57-8.5,5.31-8.38-.3.33-5.32,8.17-5.2,8.38.1v.2Z" fill="currentColor"/><path d="M1651.68,49.56c-.21,5.3-8.06,5.43-8.38.1-.11-5.61,8.08-5.87,8.38-.3v.2Z" fill="currentColor"/><path d="M346.75,593.56c-.21,5.3-8.06,5.43-8.38.1-.11-5.61,8.08-5.87,8.38-.3v.2Z" fill="currentColor"/><path d="M1445.68,325.56c-.3,5.57-8.5,5.31-8.38-.3.33-5.32,8.17-5.2,8.38.1v.2Z" fill="currentColor"/><path d="M193.68,420.63c-.21,5.3-8.06,5.43-8.38.1-.11-5.61,8.08-5.87,8.38-.3v.2Z" fill="currentColor"/><path d="M222.75,560.63c-.3,5.57-8.5,5.31-8.38-.3.33-5.32,8.17-5.2,8.38.1v.2Z" fill="currentColor"/><path d="M210.75,358.63c-.21,5.3-8.06,5.43-8.38.1-.11-5.61,8.08-5.87,8.38-.3v.2Z" fill="currentColor"/><path d="M721.68,429.56c-.21,5.3-8.06,5.43-8.38.1-.11-5.61,8.08-5.87,8.38-.3v.2Z" fill="currentColor"/><path d="M1838.75,463.56c-.21,5.3-8.06,5.43-8.38.1-.11-5.61,8.08-5.87,8.38-.3v.2Z" fill="currentColor"/><path d="M199.68,521.56c-.21,5.3-8.06,5.43-8.38.1-.11-5.61,8.08-5.87,8.38-.3v.2Z" fill="currentColor"/><path d="M1345.68,695.56c-.21,5.3-8.06,5.43-8.38.1-.11-5.61,8.08-5.87,8.38-.3v.2Z" fill="currentColor"/><path d="M1271.68,477.56c-.21,5.3-8.06,5.43-8.38.1-.11-5.61,8.08-5.87,8.38-.3v.2Z" fill="currentColor"/><path d="M284.75,576.63c-.21,5.3-8.06,5.43-8.38.1-.11-5.61,8.08-5.87,8.38-.3v.2Z" fill="currentColor"/><path d="M367.68,267.56c-.21,5.3-8.06,5.43-8.38.1-.11-5.61,8.08-5.87,8.38-.3v.2Z" fill="currentColor"/><path d="M1238.75,600.63c-.3,5.57-8.5,5.31-8.38-.3.33-5.32,8.17-5.2,8.38.1v.2Z" fill="currentColor"/><path d="M1360.75,269.56c-.21,5.3-8.06,5.43-8.38.1-.11-5.61,8.08-5.87,8.38-.3v.2Z" fill="currentColor"/><path d="M1531.68,745.56c-.21,5.3-8.06,5.43-8.38.1-.11-5.61,8.08-5.87,8.38-.3v.2Z" fill="currentColor"/><path d="M1364.18,367.82c1.93,1.73.99,4.45-1.3,5.27-1.44.52-3.2-.74-3.65-2.01-.2-1.17,1.05-2.06,1.79-2.84.97-.91,2-1.63,3.05-.53l.11.11Z" fill="currentColor"/><path d="M176.18,484.15c-1.72,1.95-4.45,1.02-5.28-1.27-.52-1.43.72-3.19,1.97-3.66,1.17-.22,2.06,1.03,2.84,1.76.91.96,1.65,2,.57,3.06l-.11.11Z" fill="currentColor"/><path d="M1404.2,345.71c1.88,1.7,1.66,5.46-1.33,5.45-1.81.05-3.69-2.36-3.51-4.22.18-2.65,2.97-3.19,4.71-1.37l.13.13Z" fill="currentColor"/><path d="M602.2,495.71c1.88,1.7,1.66,5.46-1.33,5.45-1.81.05-3.69-2.36-3.51-4.22.18-2.65,2.97-3.19,4.71-1.37l.13.13Z" fill="currentColor"/><path d="M1230.2,497.71c1.88,1.7,1.66,5.46-1.33,5.45-1.81.05-3.69-2.36-3.51-4.22.18-2.65,2.97-3.19,4.71-1.37l.13.13Z" fill="currentColor"/><path d="M1854.59,398.79c1.29,2.55-1.19,7.09-4.3,6.55-1.42-.37-2.07-2.89-1.05-4.94.77-1.98,3.73-4.05,5.27-1.76l.08.14Z" fill="currentColor"/><path d="M1282.59,676.79c1.29,2.55-1.19,7.09-4.3,6.55-1.42-.37-2.07-2.89-1.05-4.94.77-1.98,3.73-4.05,5.27-1.76l.08.14Z" fill="currentColor"/><path d="M186.59,316.79c1.29,2.55-1.19,7.09-4.3,6.55-1.42-.37-2.07-2.89-1.05-4.94.77-1.98,3.73-4.05,5.27-1.76l.08.14Z" fill="currentColor"/><path d="M1708.15,691.82c1.95,1.72,1.02,4.45-1.27,5.28-1.43.52-3.19-.72-3.66-1.97-.22-1.17,1.03-2.06,1.76-2.84.96-.91,2-1.65,3.06-.57l.11.11Z" fill="currentColor"/><path d="M1248.18,440.15c-1.72,1.95-4.45,1.02-5.28-1.27-.52-1.43.72-3.19,1.97-3.66,1.17-.22,2.06,1.03,2.84,1.76.91.96,1.65,2,.57,3.06l-.11.11Z" fill="currentColor"/><path d="M1326.18,394.15c-1.72,1.95-4.45,1.02-5.28-1.27-.52-1.43.72-3.19,1.97-3.66,1.17-.22,2.06,1.03,2.84,1.76.91.96,1.65,2,.57,3.06l-.11.11Z" fill="currentColor"/><path d="M680.2,449.71c1.88,1.7,1.66,5.46-1.33,5.45-1.81.05-3.69-2.36-3.51-4.22.18-2.65,2.97-3.19,4.71-1.37l.13.13Z" fill="currentColor"/><path d="M1804.59,584.79c1.29,2.55-1.19,7.09-4.3,6.55-1.42-.37-2.07-2.89-1.05-4.94.77-1.98,3.73-4.05,5.27-1.76l.08.14Z" fill="currentColor"/><path d="M1118.66,300.73c1.74,2.63-1.76,7.17-4.76,6.38-.91-.3-1.4-1.77-1.28-2.94.15-2.74,3.65-5.91,5.94-3.57l.1.13Z" fill="currentColor"/><path d="M1848.18,302.18c-1.73,1.93-4.45.99-5.27-1.3-.52-1.44.74-3.2,2.01-3.65,1.17-.2,2.06,1.05,2.84,1.79.91.97,1.63,2,.53,3.05l-.11.11Z" fill="currentColor"/><path d="M226.18,298.15c-1.72,1.95-4.45,1.02-5.28-1.27-.52-1.43.72-3.19,1.97-3.66,1.17-.22,2.06,1.03,2.84,1.76.91.96,1.65,2,.57,3.06l-.11.11Z" fill="currentColor"/><path d="M264.2,271.71c1.88,1.7,1.66,5.46-1.33,5.45-1.81.05-3.69-2.36-3.51-4.22.18-2.65,2.97-3.19,4.71-1.37l.13.13Z" fill="currentColor"/><path d="M244.59,596.79c1.29,2.55-1.19,7.09-4.3,6.55-1.42-.37-2.07-2.89-1.05-4.94.77-1.98,3.73-4.05,5.27-1.76l.08.14Z" fill="currentColor"/><path d="M1192.18,524.15c-1.72,1.95-4.45,1.02-5.28-1.27-.52-1.43.72-3.19,1.97-3.66,1.17-.22,2.06,1.03,2.84,1.76.91.96,1.65,2,.57,3.06l-.11.11Z" fill="currentColor"/><path d="M1208.18,457.82c1.93,1.73.99,4.45-1.3,5.27-1.44.52-3.2-.74-3.65-2.01-.2-1.17,1.05-2.06,1.79-2.84.97-.91,2-1.63,3.05-.53l.11.11Z" fill="currentColor"/><path d="M562.2,517.71c1.88,1.7,1.66,5.46-1.33,5.45-1.81.05-3.69-2.36-3.51-4.22.18-2.65,2.97-3.19,4.71-1.37l.13.13Z" fill="currentColor"/><path d="M152.15,439.82c1.95,1.72,1.02,4.45-1.27,5.28-1.43.52-3.19-.72-3.66-1.97-.22-1.17,1.03-2.06,1.76-2.84.96-.91,2-1.65,3.06-.57l.11.11Z" fill="currentColor"/><path d="M1286.2,413.71c1.88,1.7,1.66,5.46-1.33,5.45-1.81.05-3.69-2.36-3.51-4.22.18-2.65,2.97-3.19,4.71-1.37l.13.13Z" fill="currentColor"/><path d="M524.18,544.15c-1.72,1.95-4.45,1.02-5.28-1.27-.52-1.43.72-3.19,1.97-3.66,1.17-.22,2.06,1.03,2.84,1.76.91.96,1.65,2,.57,3.06l-.11.11Z" fill="currentColor"/><path d="M306.18,618.18c-1.73,1.93-4.45.99-5.27-1.3-.52-1.44.74-3.2,2.01-3.65,1.17-.2,2.06,1.05,2.84,1.79.91.97,1.63,2,.53,3.05l-.11.11Z" fill="currentColor"/><path d="M1214.2,559.71c1.88,1.7,1.66,5.46-1.33,5.45-1.81.05-3.69-2.36-3.51-4.22.18-2.65,2.97-3.19,4.71-1.37l.13.13Z" fill="currentColor"/><path d="M1630.2,737.71c1.88,1.7,1.66,5.46-1.33,5.45-1.81.05-3.69-2.36-3.51-4.22.18-2.65,2.97-3.19,4.71-1.37l.13.13Z" fill="currentColor"/><path d="M484.15,561.82c1.95,1.72,1.02,4.45-1.27,5.28-1.43.52-3.19-.72-3.66-1.97-.22-1.17,1.03-2.06,1.76-2.84.96-.91,2-1.65,3.06-.57l.11.11Z" fill="currentColor"/><path d="M1820.2,523.71c1.88,1.7,1.66,5.46-1.33,5.45-1.81.05-3.69-2.36-3.51-4.22.18-2.65,2.97-3.19,4.71-1.37l.13.13Z" fill="currentColor"/><path d="M708.66,224.73c1.74,2.63-1.76,7.17-4.76,6.38-.91-.3-1.4-1.77-1.28-2.94.15-2.74,3.65-5.91,5.94-3.57l.1.13Z" fill="currentColor"/><path d="M1670.18,718.18c-1.73,1.93-4.45.99-5.27-1.3-.52-1.44.74-3.2,2.01-3.65,1.17-.2,2.06,1.05,2.84,1.79.91.97,1.63,2,.53,3.05l-.11.11Z" fill="currentColor"/><path d="M808.2,219.71c1.88,1.7,1.66,5.46-1.33,5.45-1.81.05-3.69-2.36-3.51-4.22.18-2.65,2.97-3.19,4.71-1.37l.13.13Z" fill="currentColor"/><path d="M1050.18,188.15c-1.72,1.95-4.45,1.02-5.28-1.27-.52-1.43.72-3.19,1.97-3.66,1.17-.22,2.06,1.03,2.84,1.76.91.96,1.65,2,.57,3.06l-.11.11Z" fill="currentColor"/><path d="M642.18,476.15c-1.72,1.95-4.45,1.02-5.28-1.27-.52-1.43.72-3.19,1.97-3.66,1.17-.22,2.06,1.03,2.84,1.76.91.96,1.65,2,.57,3.06l-.11.11Z" fill="currentColor"/><path d="M1712.59,62.79c1.29,2.55-1.19,7.09-4.3,6.55-1.42-.37-2.07-2.89-1.05-4.94.77-1.98,3.73-4.05,5.27-1.76l.08.14Z" fill="currentColor"/><path d="M170.59,378.79c1.29,2.55-1.19,7.09-4.3,6.55-1.42-.37-2.07-2.89-1.05-4.94.77-1.98,3.73-4.05,5.27-1.76l.08.14Z" fill="currentColor"/><path d="M939.18,353.21c1.21,1.17-.1,3.13-1.13,4.06-1.59,1.46-4.12,1.4-4.75.22-1.09-2.79,3.45-5.81,5.76-4.36l.12.09Z" fill="currentColor"/><path d="M136.79,507.18c-1.17,1.21-3.13-.1-4.06-1.13-1.46-1.59-1.4-4.12-.22-4.75,2.79-1.09,5.81,3.45,4.36,5.76l-.09.12Z" fill="currentColor"/><path d="M147.18,339.21c1.21,1.17-.1,3.13-1.13,4.06-1.59,1.46-4.12,1.4-4.75.22-1.09-2.79,3.45-5.81,5.76-4.36l.12.09Z" fill="currentColor"/><path d="M177.21,580.82c1.17-1.21,3.13.1,4.06,1.13,1.46,1.59,1.4,4.12.22,4.75-2.79,1.09-5.81-3.45-4.36-5.76l.09-.12Z" fill="currentColor"/><path d="M1174.79,587.18c-1.17,1.21-3.13-.1-4.06-1.13-1.46-1.59-1.4-4.12-.22-4.75,2.79-1.09,5.81,3.45,4.36,5.76l-.09.12Z" fill="currentColor"/><path d="M441.21,584.82c1.17-1.21,3.13.1,4.06,1.13,1.46,1.59,1.4,4.12.22,4.75-2.79,1.09-5.81-3.45-4.36-5.76l.09-.12Z" fill="currentColor"/><path d="M406.79,613.18c-1.17,1.21-3.13-.1-4.06-1.13-1.46-1.59-1.4-4.12-.22-4.75,2.79-1.09,5.81,3.45,4.36,5.76l-.09.12Z" fill="currentColor"/><path d="M501.21,236.82c1.17-1.21,3.13.1,4.06,1.13,1.46,1.59,1.4,4.12.22,4.75-2.79,1.09-5.81-3.45-4.36-5.76l.09-.12Z" fill="currentColor"/><path d="M607.18,231.21c1.21,1.17-.1,3.13-1.13,4.06-1.59,1.46-4.12,1.4-4.75.22-1.09-2.79,3.45-5.81,5.76-4.36l.12.09Z" fill="currentColor"/><path d="M1193.21,620.82c1.17-1.21,3.13.1,4.06,1.13,1.46,1.59,1.4,4.12.22,4.75-2.79,1.09-5.81-3.45-4.36-5.76l.09-.12Z" fill="currentColor"/><path d="M1169.18,481.21c1.21,1.17-.1,3.13-1.13,4.06-1.59,1.46-4.12,1.4-4.75.22-1.09-2.79,3.45-5.81,5.76-4.36l.12.09Z" fill="currentColor"/><path d="M1224.79,401.18c-1.17,1.21-3.13-.1-4.06-1.13-1.46-1.59-1.4-4.12-.22-4.75,2.79-1.09,5.81,3.45,4.36,5.76l-.09.12Z" fill="currentColor"/><path d="M1220.79,665.18c-1.17,1.21-3.13-.1-4.06-1.13-1.46-1.59-1.4-4.12-.22-4.75,2.79-1.09,5.81,3.45,4.36,5.76l-.09.12Z" fill="currentColor"/><path d="M260.82,640.79c-1.21-1.17.1-3.13,1.13-4.06,1.59-1.46,4.12-1.4,4.75-.22,1.09,2.79-3.45,5.81-5.76,4.36l-.12-.09Z" fill="currentColor"/><path d="M131.18,401.21c1.21,1.17-.1,3.13-1.13,4.06-1.59,1.46-4.12,1.4-4.75.22-1.09-2.79,3.45-5.81,5.76-4.36l.12.09Z" fill="currentColor"/><path d="M1743.21,668.82c1.17-1.21,3.13.1,4.06,1.13,1.46,1.59,1.4,4.12.22,4.75-2.79,1.09-5.81-3.45-4.36-5.76l.09-.12Z" fill="currentColor"/><path d="M405.18,243.21c1.21,1.17-.1,3.13-1.13,4.06-1.59,1.46-4.12,1.4-4.75.22-1.09-2.79,3.45-5.81,5.76-4.36l.12.09Z" fill="currentColor"/><path d="M1304.79,721.18c-1.17,1.21-3.13-.1-4.06-1.13-1.46-1.59-1.4-4.12-.22-4.75,2.79-1.09,5.81,3.45,4.36,5.76l-.09.12Z" fill="currentColor"/><path d="M1258.82,378.79c-1.21-1.17.1-3.13,1.13-4.06,1.59-1.46,4.12-1.4,4.75-.22,1.09,2.79-3.45,5.81-5.76,4.36l-.12-.09Z" fill="currentColor"/><path d="M1153.18,543.21c1.21,1.17-.1,3.13-1.13,4.06-1.59,1.46-4.12,1.4-4.75.22-1.09-2.79,3.45-5.81,5.76-4.36l.12.09Z" fill="currentColor"/><path d="M1367.18,733.21c1.21,1.17-.1,3.13-1.13,4.06-1.59,1.46-4.12,1.4-4.75.22-1.09-2.79,3.45-5.81,5.76-4.36l.12.09Z" fill="currentColor"/><path d="M366.79,635.18c-1.17,1.21-3.13-.1-4.06-1.13-1.46-1.59-1.4-4.12-.22-4.75,2.79-1.09,5.81,3.45,4.36,5.76l-.09.12Z" fill="currentColor"/><path d="M159.18,541.21c1.21,1.17-.1,3.13-1.13,4.06-1.59,1.46-4.12,1.4-4.75.22-1.09-2.79,3.45-5.81,5.76-4.36l.12.09Z" fill="currentColor"/><path d="M1429.18,749.21c1.21,1.17-.1,3.13-1.13,4.06-1.59,1.46-4.12,1.4-4.75.22-1.09-2.79,3.45-5.81,5.76-4.36l.12.09Z" fill="currentColor"/></svg>