<?xml version="1.0" encoding="UTF-8"?><svg id="uuid-4b629ae2-7c03-4fda-8d48-111970dbb014" xmlns="http://www.w3.org/2000/svg" viewBox="0 0 560 560"><g opacity=".5"><polygon points="86.55 296.01 93.69 318.56 71.13 325.7 79.7 352.76 102.25 345.63 109.38 368.18 136.45 359.62 129.31 337.07 151.87 329.93 143.3 302.87 120.75 310 113.62 287.45 86.55 296.01" fill="#fff"/><polygon points="129.53 370.72 112.66 385.66 97.72 368.79 77.47 386.71 92.41 403.58 75.55 418.52 93.47 438.77 110.34 423.83 125.28 440.69 145.53 422.77 130.59 405.9 147.45 390.96 129.53 370.72" fill="#fff"/><polygon points="87.22 398.42 93.78 421.39 70.81 427.95 78.68 455.52 101.65 448.96 108.21 471.93 135.78 464.06 129.22 441.09 152.19 434.53 144.32 406.96 121.35 413.52 114.79 390.55 87.22 398.42" fill="#fff"/><polygon points="110.73 426.57 103.65 446.73 83.49 439.65 75 463.84 95.16 470.92 88.08 491.08 112.27 499.57 119.35 479.41 139.51 486.49 148 462.3 127.84 455.22 134.92 435.06 110.73 426.57" fill="#fff"/><polygon points="97.37 505.25 97.93 527.32 75.86 527.87 76.53 554.35 98.59 553.8 99.15 575.86 125.63 575.2 125.07 553.13 147.14 552.58 146.47 526.1 124.41 526.65 123.85 504.58 97.37 505.25" fill="#fff"/><polygon points="104.26 523.58 100.68 545.2 79.06 541.62 74.75 567.56 96.38 571.15 92.79 592.77 118.74 597.07 122.32 575.45 143.94 579.04 148.25 553.09 126.62 549.51 130.21 527.88 104.26 523.58" fill="#fff"/><polygon points="134.11 559.59 114.98 572.93 101.64 553.79 78.67 569.8 92.01 588.94 72.88 602.28 88.89 625.24 108.02 611.9 121.36 631.03 144.33 615.03 130.99 595.89 150.12 582.55 134.11 559.59" fill="#fff"/></g><g opacity=".5"><polygon points="138.55 219.01 145.69 241.56 123.13 248.7 131.7 275.76 154.25 268.63 161.38 291.18 188.45 282.62 181.31 260.07 203.87 252.93 195.3 225.87 172.75 233 165.62 210.45 138.55 219.01" fill="#fff"/><polygon points="181.53 293.72 164.66 308.66 149.72 291.79 129.47 309.71 144.41 326.58 127.55 341.52 145.47 361.77 162.34 346.83 177.28 363.69 197.53 345.77 182.59 328.9 199.45 313.96 181.53 293.72" fill="#fff"/><polygon points="139.22 321.42 145.78 344.39 122.81 350.95 130.68 378.52 153.65 371.96 160.21 394.93 187.78 387.06 181.22 364.09 204.19 357.53 196.32 329.96 173.35 336.52 166.79 313.55 139.22 321.42" fill="#fff"/><polygon points="162.73 349.57 155.65 369.73 135.49 362.65 127 386.84 147.16 393.92 140.08 414.08 164.27 422.57 171.35 402.41 191.51 409.49 200 385.3 179.84 378.22 186.92 358.06 162.73 349.57" fill="#fff"/><polygon points="149.37 428.25 149.93 450.32 127.86 450.87 128.53 477.35 150.59 476.8 151.15 498.86 177.63 498.2 177.07 476.13 199.14 475.58 198.47 449.1 176.41 449.65 175.85 427.58 149.37 428.25" fill="#fff"/><polygon points="156.26 446.58 152.68 468.2 131.06 464.62 126.75 490.56 148.38 494.15 144.79 515.77 170.74 520.07 174.32 498.45 195.94 502.04 200.25 476.09 178.62 472.51 182.21 450.88 156.26 446.58" fill="#fff"/><polygon points="186.11 482.59 166.98 495.93 153.64 476.79 130.67 492.8 144.01 511.94 124.88 525.28 140.89 548.24 160.02 534.9 173.36 554.03 196.33 538.03 182.99 518.89 202.12 505.55 186.11 482.59" fill="#fff"/><polygon points="165.92 541.36 157.27 560.39 138.24 551.74 127.86 574.58 146.89 583.23 138.24 602.26 161.08 612.64 169.73 593.61 188.76 602.26 199.14 579.42 180.11 570.77 188.76 551.74 165.92 541.36" fill="#fff"/></g><g opacity=".5"><polygon points="466.55 235.01 473.69 257.56 451.13 264.7 459.7 291.76 482.25 284.63 489.38 307.18 516.45 298.62 509.31 276.07 531.87 268.93 523.3 241.87 500.75 249 493.62 226.45 466.55 235.01" fill="#fff"/><polygon points="509.53 309.72 492.66 324.66 477.72 307.79 457.47 325.71 472.41 342.58 455.55 357.52 473.47 377.77 490.34 362.83 505.28 379.69 525.53 361.77 510.59 344.9 527.45 329.96 509.53 309.72" fill="#fff"/><polygon points="467.22 337.42 473.78 360.39 450.81 366.95 458.68 394.52 481.65 387.96 488.21 410.93 515.78 403.06 509.22 380.09 532.19 373.53 524.32 345.96 501.35 352.52 494.79 329.55 467.22 337.42" fill="#fff"/><polygon points="490.73 365.57 483.65 385.73 463.49 378.65 455 402.84 475.16 409.92 468.08 430.08 492.27 438.57 499.35 418.41 519.51 425.49 528 401.3 507.84 394.22 514.92 374.06 490.73 365.57" fill="#fff"/><polygon points="477.37 444.25 477.93 466.32 455.86 466.87 456.53 493.35 478.59 492.8 479.15 514.86 505.63 514.2 505.07 492.13 527.14 491.58 526.47 465.1 504.41 465.65 503.85 443.58 477.37 444.25" fill="#fff"/><polygon points="484.26 462.58 480.68 484.2 459.06 480.62 454.75 506.56 476.38 510.15 472.79 531.77 498.74 536.07 502.32 514.45 523.94 518.04 528.25 492.09 506.62 488.51 510.21 466.88 484.26 462.58" fill="#fff"/><polygon points="514.11 498.59 494.98 511.93 481.64 492.79 458.67 508.8 472.01 527.94 452.88 541.28 468.89 564.24 488.02 550.9 501.36 570.03 524.33 554.03 510.99 534.89 530.12 521.55 514.11 498.59" fill="#fff"/><polygon points="493.92 557.36 485.27 576.39 466.24 567.74 455.86 590.58 474.89 599.23 466.24 618.26 489.08 628.64 497.73 609.61 516.76 618.26 527.14 595.42 508.11 586.77 516.76 567.74 493.92 557.36" fill="#fff"/></g><polygon points="210.01 354.05 199.28 371.82 181.51 361.09 168.63 382.41 186.4 393.14 175.67 410.91 196.99 423.78 207.72 406.02 225.49 416.75 238.37 395.42 220.6 384.69 231.33 366.93 210.01 354.05" fill="#fff"/><polygon points="180.69 440.55 187.63 460.07 168.11 467 176.43 490.43 195.95 483.49 202.89 503.01 226.31 494.69 219.37 475.17 238.89 468.23 230.57 444.81 211.05 451.74 204.11 432.22 180.69 440.55" fill="#fff"/><polygon points="182.57 487.66 188.39 507.04 169.01 512.85 175.98 536.1 195.36 530.29 201.17 549.67 224.43 542.7 218.61 523.32 237.99 517.51 231.02 494.25 211.64 500.06 205.83 480.68 182.57 487.66" fill="#fff"/><polygon points="203.78 515.14 195.55 536.63 174.05 528.4 164.17 554.19 185.66 562.42 177.43 583.92 203.22 593.8 211.45 572.3 232.95 580.54 242.83 554.75 221.34 546.51 229.57 525.02 203.78 515.14" fill="#fff"/><polygon points="279.33 330.78 271.53 351.87 250.45 344.06 241.09 369.36 262.17 377.16 254.37 398.25 279.67 407.61 287.47 386.53 308.55 394.33 317.91 369.03 296.83 361.23 304.63 340.15 279.33 330.78" fill="#fff"/><polygon points="260.89 403.54 265 423.6 244.94 427.71 249.87 451.78 269.93 447.67 274.04 467.73 298.11 462.8 294 442.74 314.06 438.63 309.13 414.55 289.07 418.67 284.96 398.61 260.89 403.54" fill="#fff"/><polygon points="279.03 411.88 271.27 433.34 249.81 425.59 240.5 451.34 261.97 459.1 254.21 480.56 279.97 489.87 287.73 468.4 309.19 476.16 318.5 450.4 297.03 442.65 304.79 421.18 279.03 411.88" fill="#fff"/><polygon points="262.72 465.55 265.45 486.23 244.77 488.96 248.05 513.78 268.73 511.05 271.46 531.73 296.28 528.45 293.55 507.77 314.23 505.04 310.95 480.22 290.27 482.95 287.54 462.27 262.72 465.55" fill="#fff"/><polygon points="268.92 486.09 267.5 507.5 246.09 506.09 244.39 531.78 265.81 533.2 264.39 554.61 290.08 556.3 291.5 534.89 312.91 536.31 314.61 510.62 293.19 509.2 294.61 487.79 268.92 486.09" fill="#fff"/><g opacity=".5"><polygon points="409.13 235.21 403.9 256.43 382.68 251.21 376.41 276.67 397.63 281.9 392.4 303.12 417.87 309.39 423.1 288.17 444.32 293.4 450.59 267.94 429.37 262.71 434.6 241.49 409.13 235.21" fill="#fff"/><polygon points="387.85 262.62 395.62 284.63 373.61 292.41 382.95 318.83 404.96 311.05 412.74 333.06 439.15 323.73 431.38 301.71 453.39 293.93 444.05 267.52 422.04 275.3 414.26 253.29 387.85 262.62" fill="#fff"/><polygon points="425.03 295.52 410.64 314.66 391.5 300.28 374.24 323.25 393.39 337.63 379 356.78 401.97 374.03 416.36 354.89 435.5 369.27 452.76 346.3 433.61 331.92 448 312.78 425.03 295.52" fill="#fff"/><polygon points="395.58 377.79 399.3 397.74 379.35 401.46 383.81 425.39 403.76 421.68 407.48 441.62 431.42 437.16 427.7 417.21 447.65 413.5 443.19 389.56 423.24 393.28 419.52 373.33 395.58 377.79" fill="#fff"/><polygon points="418.24 429.66 407.94 449.22 388.39 438.92 376.04 462.39 395.59 472.68 385.3 492.23 408.76 504.58 419.06 485.03 438.61 495.32 450.96 471.86 431.41 461.57 441.7 442.01 418.24 429.66" fill="#fff"/><polygon points="388.85 520.01 397.23 538.73 378.51 547.12 388.57 569.59 407.29 561.21 415.68 579.93 438.15 569.87 429.77 551.15 448.49 542.76 438.43 520.29 419.71 528.67 411.32 509.95 388.85 520.01" fill="#fff"/><polygon points="416.59 554.65 407.12 574.75 387.01 565.28 375.65 589.41 395.75 598.88 386.28 618.99 410.41 630.35 419.88 610.25 439.99 619.72 451.35 595.59 431.25 586.12 440.72 566.01 416.59 554.65" fill="#fff"/></g><polygon points="323.15 278.98 330.27 300.58 308.66 307.7 317.2 333.62 338.81 326.51 345.92 348.11 371.85 339.57 364.73 317.97 386.34 310.85 377.8 284.93 356.19 292.04 349.08 270.44 323.15 278.98" fill="#fff"/><polygon points="364.18 306.64 347.37 323.66 330.36 306.85 310.2 327.27 327.21 344.07 310.41 361.09 330.82 381.25 347.63 364.24 364.64 381.04 384.8 360.62 367.79 343.82 384.59 326.8 364.18 306.64" fill="#fff"/><polygon points="345.44 395.81 338.75 417.07 317.48 410.39 309.46 435.91 330.73 442.6 324.04 463.87 349.56 471.89 356.25 450.62 377.52 457.31 385.54 431.78 364.27 425.1 370.96 403.83 345.44 395.81" fill="#fff"/><polygon points="320.15 438.28 329.16 459.85 307.59 468.85 318.39 494.74 339.96 485.73 348.96 507.3 374.85 496.5 365.84 474.93 387.41 465.93 376.61 440.04 355.04 449.05 346.04 427.48 320.15 438.28" fill="#fff"/><polygon points="319.88 469.56 330.18 488.13 311.61 498.43 323.97 520.71 342.54 510.41 352.84 528.98 375.12 516.62 364.82 498.05 383.39 487.75 371.03 465.47 352.46 475.77 342.16 457.2 319.88 469.56" fill="#fff"/><polygon points="351.67 529.21 341.76 548.68 322.3 538.77 310.41 562.14 329.87 572.04 319.97 591.51 343.33 603.4 353.24 583.93 372.7 593.84 384.59 570.48 365.13 560.57 375.03 541.1 351.67 529.21" fill="#fff"/><polygon points="31.15 295.98 38.27 317.58 16.66 324.7 25.2 350.62 46.81 343.51 53.92 365.11 79.85 356.57 72.73 334.97 94.34 327.85 85.8 301.93 64.19 309.04 57.08 287.44 31.15 295.98" fill="#fff"/><polygon points="72.18 323.64 55.37 340.66 38.36 323.85 18.2 344.27 35.21 361.07 18.41 378.09 38.82 398.25 55.63 381.24 72.64 398.04 92.8 377.62 75.79 360.82 92.59 343.8 72.18 323.64" fill="#fff"/><polygon points="53.44 412.81 46.75 434.07 25.48 427.39 17.46 452.91 38.73 459.6 32.04 480.87 57.56 488.89 64.25 467.62 85.52 474.31 93.54 448.78 72.27 442.1 78.96 420.83 53.44 412.81" fill="#fff"/><polygon points="28.15 455.28 37.16 476.85 15.59 485.85 26.39 511.74 47.96 502.73 56.96 524.3 82.85 513.5 73.84 491.93 95.41 482.93 84.61 457.04 63.04 466.05 54.04 444.48 28.15 455.28" fill="#fff"/><polygon points="27.88 486.56 38.18 505.13 19.61 515.43 31.97 537.71 50.54 527.41 60.84 545.98 83.12 533.62 72.82 515.05 91.39 504.75 79.03 482.47 60.46 492.77 50.16 474.2 27.88 486.56" fill="#fff"/><polygon points="59.67 546.21 49.76 565.68 30.3 555.77 18.41 579.14 37.87 589.04 27.97 608.51 51.33 620.4 61.24 600.93 80.7 610.84 92.59 587.48 73.13 577.57 83.03 558.1 59.67 546.21" fill="#fff"/><polygon points="577.11 273.16 560.68 287.63 546.21 271.2 526.48 288.57 540.96 305 524.52 319.47 541.89 339.2 558.32 324.72 572.79 341.16 592.52 323.79 578.04 307.36 594.48 292.88 577.11 273.16" fill="#fff"/><polygon points="567.75 357.2 555.48 376.18 536.5 363.91 521.77 386.68 540.75 398.96 528.47 417.94 551.25 432.67 563.52 413.69 582.5 425.97 597.23 403.19 578.25 390.91 590.53 371.93 567.75 357.2" fill="#fff"/><polygon points="555.61 424.58 549.66 446.94 527.3 440.99 520.15 467.82 542.51 473.77 536.56 496.13 563.39 503.28 569.34 480.92 591.7 486.87 598.85 460.04 576.49 454.09 582.44 431.73 555.61 424.58" fill="#fff"/><polygon points="550.66 474.75 547.87 496.92 525.69 494.13 522.35 520.74 544.52 523.53 541.73 545.71 568.34 549.05 571.13 526.88 593.31 529.67 596.65 503.06 574.48 500.27 577.27 478.1 550.66 474.75" fill="#fff"/><polygon points="534.97 518.65 541.85 541.18 519.32 548.06 527.58 575.1 550.11 568.22 556.99 590.75 584.03 582.49 577.15 559.96 599.68 553.08 591.42 526.04 568.89 532.92 562.01 510.39 534.97 518.65" fill="#fff"/><polygon points="17.11 273.16 .68 287.63 -13.79 271.2 -33.52 288.57 -19.04 305 -35.48 319.47 -18.11 339.2 -1.68 324.72 12.79 341.16 32.52 323.79 18.04 307.36 34.48 292.88 17.11 273.16" fill="#fff"/><polygon points="7.75 357.2 -4.52 376.18 -23.5 363.91 -38.23 386.68 -19.25 398.96 -31.53 417.94 -8.75 432.67 3.52 413.69 22.5 425.97 37.23 403.19 18.25 390.91 30.53 371.93 7.75 357.2" fill="#fff"/><polygon points="-4.39 424.58 -10.34 446.94 -32.7 440.99 -39.85 467.82 -17.49 473.77 -23.44 496.13 3.39 503.28 9.34 480.92 31.7 486.87 38.85 460.04 16.49 454.09 22.44 431.73 -4.39 424.58" fill="#fff"/><polygon points="-9.34 474.75 -12.13 496.92 -34.31 494.13 -37.65 520.74 -15.48 523.53 -18.27 545.71 8.34 549.05 11.13 526.88 33.31 529.67 36.65 503.06 14.48 500.27 17.27 478.1 -9.34 474.75" fill="#fff"/><polygon points="-25.03 518.65 -18.15 541.18 -40.68 548.06 -32.42 575.1 -9.89 568.22 -3.01 590.75 24.03 582.49 17.15 559.96 39.68 553.08 31.42 526.04 8.89 532.92 2.01 510.39 -25.03 518.65" fill="#fff"/><polygon points="152.32 288.46 149.24 308.65 129.05 305.56 125.35 329.79 145.54 332.87 142.45 353.06 166.68 356.76 169.76 336.57 189.95 339.66 193.65 315.43 173.46 312.35 176.55 292.16 152.32 288.46" fill="#fff"/><polygon points="163.24 345.18 153.02 366.2 132 355.98 119.73 381.21 140.76 391.42 130.54 412.45 155.76 424.71 165.98 403.69 187 413.91 199.27 388.68 178.24 378.46 188.46 357.44 163.24 345.18" fill="#fff"/><polygon points="134.44 434.37 143.41 452.22 125.55 461.19 136.31 482.62 154.16 473.65 163.13 491.51 184.56 480.75 175.59 462.89 193.45 453.93 182.69 432.5 164.84 441.46 155.87 423.61 134.44 434.37" fill="#fff"/><polygon points="135.11 503.57 141.98 525.91 119.64 532.78 127.88 559.58 150.22 552.71 157.09 575.05 183.89 566.81 177.02 544.47 199.36 537.6 191.12 510.79 168.78 517.66 161.91 495.32 135.11 503.57" fill="#fff"/><polygon points="173.47 537.11 159.39 551.37 145.13 537.29 128.24 554.4 142.5 568.48 128.42 582.74 145.53 599.63 159.61 585.37 173.87 599.45 190.76 582.34 176.5 568.26 190.58 554 173.47 537.11" fill="#fff"/><g opacity=".5"><polygon points="203.79 262.94 210.67 285.78 187.83 292.66 196.09 320.06 218.93 313.18 225.81 336.02 253.21 327.76 246.33 304.93 269.17 298.05 260.91 270.64 238.07 277.52 231.19 254.69 203.79 262.94" fill="#fff"/><polygon points="216.83 331.94 216.24 352.96 195.21 352.37 194.5 377.61 215.53 378.2 214.94 399.22 240.17 399.93 240.76 378.9 261.79 379.49 262.5 354.26 241.47 353.67 242.06 332.64 216.83 331.94" fill="#fff"/><polygon points="215.69 380.89 214.91 404.32 191.48 403.54 190.54 431.65 213.97 432.44 213.19 455.87 241.31 456.81 242.09 433.37 265.52 434.16 266.46 406.04 243.03 405.26 243.81 381.82 215.69 380.89" fill="#fff"/><polygon points="203.12 426.62 210.99 447.93 189.68 455.8 199.12 481.38 220.43 473.51 228.3 494.82 253.88 485.38 246.01 464.07 267.32 456.2 257.88 430.62 236.57 438.49 228.7 417.18 203.12 426.62" fill="#fff"/><polygon points="229.39 481.85 220.88 503.06 199.67 494.55 189.46 520.01 210.67 528.51 202.16 549.72 227.61 559.93 236.12 538.72 257.33 547.23 267.54 521.78 246.33 513.27 254.84 492.06 229.39 481.85" fill="#fff"/><polygon points="206.57 543.83 211.67 566.78 188.71 571.88 194.83 599.43 217.78 594.33 222.88 617.29 250.43 611.17 245.33 588.22 268.29 583.12 262.17 555.57 239.22 560.67 234.12 537.71 206.57 543.83" fill="#fff"/></g><polygon points="291.01 285.99 288.48 308.55 265.92 306.02 262.89 333.1 285.45 335.62 282.92 358.18 309.99 361.21 312.52 338.65 335.08 341.18 338.11 314.11 315.55 311.58 318.08 289.02 291.01 285.99" fill="#fff"/><polygon points="317.56 345.34 301.44 359.9 286.88 343.78 267.53 361.25 282.09 377.38 265.96 391.94 283.44 411.29 299.56 396.73 314.12 412.85 333.47 395.38 318.91 379.25 335.04 364.69 317.56 345.34" fill="#fff"/><polygon points="275.87 367.22 283.3 388.46 262.06 395.89 270.98 421.38 292.21 413.95 299.65 435.19 325.13 426.27 317.7 405.03 338.94 397.6 330.02 372.12 308.79 379.55 301.35 358.31 275.87 367.22" fill="#fff"/><polygon points="297.12 405.35 291.94 424.8 272.5 419.62 266.28 442.95 285.72 448.13 280.54 467.58 303.88 473.79 309.06 454.35 328.5 459.53 334.72 436.19 315.28 431.01 320.46 411.57 297.12 405.35" fill="#fff"/><polygon points="319.43 469.95 301.66 485.78 285.83 468.02 264.51 487.01 280.34 504.78 262.57 520.61 281.57 541.93 299.34 526.1 315.17 543.87 336.49 524.87 320.66 507.1 338.43 491.27 319.43 469.95" fill="#fff"/><polygon points="320.04 503.42 301.93 519.15 286.19 501.04 264.45 519.92 280.19 538.04 262.07 553.78 280.96 575.51 299.07 559.78 314.81 577.89 336.55 559.01 320.81 540.89 338.93 525.15 320.04 503.42" fill="#fff"/><polygon points="312.16 552.78 298.64 569.41 282.01 555.88 265.78 575.84 282.41 589.36 268.88 605.99 288.84 622.22 302.36 605.59 318.99 619.12 335.22 599.16 318.59 585.64 332.12 569.01 312.16 552.78" fill="#fff"/><polygon points="547.05 352.6 547.25 372.83 527.02 373.03 527.25 397.3 547.48 397.11 547.67 417.34 571.95 417.11 571.75 396.88 591.98 396.68 591.75 372.41 571.52 372.6 571.33 352.37 547.05 352.6" fill="#fff"/><polygon points="542.85 421.35 544.63 444.35 521.63 446.13 523.76 473.74 546.77 471.96 548.54 494.96 576.15 492.82 574.37 469.82 597.37 468.04 595.24 440.44 572.23 442.22 570.46 419.22 542.85 421.35" fill="#fff"/><polygon points="539.67 494.2 543.42 517.26 520.36 521.01 524.86 548.67 547.92 544.92 551.66 567.98 579.33 563.48 575.58 540.43 598.64 536.68 594.14 509.01 571.08 512.76 567.34 489.7 539.67 494.2" fill="#fff"/><polygon points="563.63 555.26 543.36 550 548.62 529.74 524.31 523.43 519.05 543.69 498.79 538.43 492.48 562.74 512.74 568 507.48 588.26 531.8 594.57 537.05 574.31 557.32 579.57 563.63 555.26" fill="#fff"/><polygon points="524.35 556.52 503.63 550.3 509.85 529.58 484.98 522.12 478.77 542.84 458.05 536.62 450.58 561.48 471.3 567.7 465.09 588.42 489.95 595.88 496.17 575.16 516.89 581.38 524.35 556.52" fill="#fff"/><polygon points="432.47 560.39 413.19 552.29 421.29 533.01 398.16 523.29 390.06 542.57 370.78 534.47 361.06 557.61 380.34 565.71 372.24 584.99 395.37 594.71 403.47 575.43 422.75 583.53 432.47 560.39" fill="#fff"/><polygon points="343.66 540.3 321.37 543.63 318.04 521.35 291.3 525.35 294.63 547.63 272.35 550.96 276.35 577.7 298.63 574.37 301.97 596.65 328.71 592.65 325.37 570.37 347.66 567.04 343.66 540.3" fill="#fff"/><polygon points="282.73 567.68 266.59 556.2 278.07 540.06 258.7 526.29 247.22 542.43 231.08 530.95 217.31 550.32 233.45 561.8 221.97 577.94 241.34 591.71 252.82 575.57 268.96 587.05 282.73 567.68" fill="#fff"/><polygon points="246.79 546.2 224.27 545.76 224.72 523.24 197.69 522.71 197.25 545.22 174.73 544.78 174.2 571.8 196.72 572.24 196.27 594.76 223.29 595.29 223.74 572.78 246.25 573.22 246.79 546.2" fill="#fff"/><polygon points="193.54 560.65 173.5 552.1 182.04 532.06 157.99 521.81 149.45 541.85 129.41 533.31 119.16 557.35 139.2 565.9 130.66 585.94 154.7 596.19 163.25 576.15 183.28 584.69 193.54 560.65" fill="#fff"/><polygon points="125.64 572.46 111.09 558.59 124.96 544.05 107.5 527.41 93.64 541.95 79.09 528.09 62.45 545.54 77 559.41 63.13 573.95 80.59 590.59 94.45 576.05 109 589.91 125.64 572.46" fill="#fff"/><polygon points="52.24 530.22 32.85 540.93 22.13 521.54 -1.14 534.4 9.57 553.79 -9.82 564.51 3.04 587.78 22.43 577.07 33.15 596.46 56.42 583.6 45.7 564.21 65.1 553.49 52.24 530.22" fill="#fff"/><polygon points="45.05 564.02 26.56 553.95 36.63 535.46 14.44 523.37 4.37 541.86 -14.12 531.79 -26.21 553.98 -7.72 564.05 -17.79 582.54 4.4 594.63 14.47 576.14 32.96 586.21 45.05 564.02" fill="#fff"/><polygon points="11.13 584.72 12.2 562.48 34.44 563.55 35.72 536.87 13.49 535.8 14.56 513.56 -12.13 512.27 -13.2 534.51 -35.44 533.44 -36.72 560.13 -14.49 561.2 -15.56 583.44 11.13 584.72" fill="#fff"/><polygon points="18.48 544.99 15.03 522.56 37.47 519.1 33.32 492.18 10.89 495.64 7.44 473.2 -19.48 477.34 -16.03 499.78 -38.47 503.23 -34.32 530.15 -11.89 526.7 -8.44 549.13 18.48 544.99" fill="#fff"/><polygon points="20.89 492.23 16.3 468.81 39.72 464.22 34.21 436.12 10.8 440.71 6.21 417.3 -21.89 422.8 -17.3 446.22 -40.72 450.81 -35.21 478.91 -11.8 474.32 -7.21 497.74 20.89 492.23" fill="#fff"/><polygon points="4.51 442.66 9.99 419.7 32.96 425.17 39.54 397.61 16.57 392.13 22.05 369.16 -5.51 362.59 -10.99 385.56 -33.96 380.08 -40.54 407.64 -17.57 413.12 -23.05 436.09 4.51 442.66" fill="#fff"/><polygon points="-20.42 379.85 -.48 377.11 2.26 397.05 26.19 393.76 23.45 373.82 43.39 371.08 40.1 347.15 20.16 349.89 17.41 329.95 -6.52 333.24 -3.77 353.18 -23.71 355.92 -20.42 379.85" fill="#fff"/><polygon points="52.9 368.64 73.71 373.23 69.12 394.05 94.09 399.56 98.69 378.74 119.5 383.34 125.01 358.36 104.2 353.77 108.79 332.95 83.81 327.44 79.22 348.26 58.41 343.66 52.9 368.64" fill="#fff"/><polygon points="119.01 383.4 138.34 378.21 143.53 397.54 166.72 391.31 161.53 371.98 180.86 366.79 174.63 343.6 155.3 348.79 150.11 329.46 126.92 335.69 132.11 355.02 112.78 360.21 119.01 383.4" fill="#fff"/><polygon points="200.1 389.87 219.37 380.62 228.63 399.89 251.75 388.79 242.5 369.51 261.78 360.26 250.68 337.13 231.4 346.38 222.15 327.11 199.02 338.21 208.27 357.49 189 366.74 200.1 389.87" fill="#fff"/><polygon points="271.22 373.12 292.7 375.16 290.66 396.64 316.44 399.09 318.48 377.61 339.96 379.65 342.41 353.88 320.93 351.84 322.97 330.36 297.19 327.91 295.15 349.39 273.67 347.35 271.22 373.12" fill="#fff"/><polygon points="291.69 359.72 309.39 368.72 300.39 386.42 321.63 397.22 330.63 379.52 348.33 388.52 359.12 367.28 341.42 358.28 350.42 340.58 329.18 329.78 320.18 347.48 302.48 338.48 291.69 359.72" fill="#fff"/><polygon points="343.26 365.16 365.62 372.5 358.27 394.86 385.1 403.68 392.45 381.32 414.8 388.67 423.62 361.84 401.27 354.5 408.61 332.14 381.79 323.32 374.44 345.68 352.08 338.33 343.26 365.16" fill="#fff"/><polygon points="444 393.8 464.82 382.67 475.95 403.49 500.93 390.13 489.8 369.31 510.62 358.18 497.26 333.2 476.45 344.33 465.31 323.51 440.33 336.87 451.46 357.69 430.64 368.82 444 393.8" fill="#fff"/><polygon points="526.59 375.18 547.02 375.54 546.66 395.98 571.18 396.41 571.54 375.98 591.98 376.34 592.41 351.82 571.98 351.46 572.34 331.02 547.82 330.59 547.46 351.02 527.02 350.66 526.59 375.18" fill="#fff"/><rect x="-.5" y="363.5" width="560" height="195.5" fill="#fff"/><g opacity=".5"><polygon points="335.04 225.48 350.39 241.4 334.47 256.76 352.89 275.87 368.82 260.51 384.17 276.43 403.28 258.01 387.93 242.08 403.85 226.73 385.42 207.62 369.5 222.98 354.14 207.05 335.04 225.48" fill="#fff"/><polygon points="381.95 255.6 382.21 277.93 359.88 278.19 360.19 304.99 382.52 304.73 382.78 327.06 409.58 326.75 409.32 304.42 431.65 304.16 431.34 277.36 409.01 277.62 408.75 255.29 381.95 255.6" fill="#fff"/><polygon points="392.99 342.83 410.39 353.9 399.32 371.3 420.21 384.59 431.28 367.19 448.68 378.26 461.97 357.37 444.56 346.3 455.64 328.89 434.75 315.61 423.68 333.01 406.27 321.94 392.99 342.83" fill="#fff"/><polygon points="412.86 347.05 422.36 367.36 402.05 376.87 413.46 401.25 433.78 391.74 443.29 412.06 467.66 400.65 458.15 380.33 478.47 370.82 467.06 346.44 446.74 355.95 437.23 335.64 412.86 347.05" fill="#fff"/><polygon points="454.42 415.52 461.52 436.13 440.91 443.23 449.43 467.96 470.04 460.86 477.14 481.46 501.87 472.94 494.77 452.34 515.37 445.24 506.85 420.51 486.25 427.61 479.15 407 454.42 415.52" fill="#fff"/><polygon points="475.72 439.88 478.77 462.06 456.6 465.11 460.26 491.72 482.44 488.67 485.49 510.84 512.1 507.18 509.05 485 531.22 481.95 527.56 455.34 505.38 458.39 502.33 436.22 475.72 439.88" fill="#fff"/><polygon points="504.08 460.34 498.2 483.18 475.37 477.3 468.32 504.7 491.15 510.58 485.27 533.41 512.67 540.47 518.55 517.63 541.38 523.51 548.44 496.11 525.6 490.23 531.48 467.4 504.08 460.34" fill="#fff"/><polygon points="517.64 477.66 509.24 498.16 488.74 489.76 478.66 514.36 499.16 522.76 490.76 543.26 515.36 553.34 523.76 532.84 544.26 541.24 554.34 516.64 533.84 508.24 542.24 487.74 517.64 477.66" fill="#fff"/></g><g opacity=".5"><polygon points="251.26 202.3 233.47 216.01 219.76 198.22 198.42 214.67 212.13 232.46 194.34 246.17 210.79 267.52 228.57 253.81 242.28 271.6 263.63 255.15 249.92 237.36 267.71 223.65 251.26 202.3" fill="#fff"/><polygon points="214.73 246.18 211.2 266.72 190.65 263.2 186.42 287.85 206.96 291.38 203.44 311.93 228.09 316.16 231.62 295.61 252.17 299.14 256.4 274.49 235.85 270.96 239.38 250.41 214.73 246.18" fill="#fff"/><polygon points="202.23 317.73 197.16 338.17 176.72 333.1 170.64 357.63 191.08 362.7 186.01 383.14 210.54 389.22 215.61 368.78 236.05 373.84 242.13 349.31 221.69 344.25 226.76 323.81 202.23 317.73" fill="#fff"/><polygon points="200.59 379.75 189.36 397.87 171.23 386.64 157.76 408.39 175.88 419.62 164.65 437.75 186.4 451.22 197.63 433.1 215.75 444.33 229.23 422.58 211.11 411.35 222.34 393.23 200.59 379.75" fill="#fff"/><polygon points="171.77 408.43 174.59 428.83 154.18 431.65 157.57 456.14 177.97 453.32 180.79 473.73 205.28 470.35 202.46 449.94 222.87 447.12 219.49 422.63 199.08 425.45 196.26 405.05 171.77 408.43" fill="#fff"/><polygon points="152.17 484.88 156.81 506.38 135.31 511.03 140.88 536.83 162.38 532.19 167.03 553.69 192.83 548.12 188.19 526.62 209.69 521.97 204.12 496.17 182.62 500.81 177.97 479.31 152.17 484.88" fill="#fff"/></g><g opacity=".5"><polygon points="29.44 228.1 39.66 247.44 20.32 257.66 32.58 280.87 51.93 270.65 62.15 289.99 85.36 277.72 75.14 258.38 94.48 248.16 82.21 224.95 62.87 235.17 52.65 215.83 29.44 228.1" fill="#fff"/><polygon points="101.46 276.68 100.51 298.48 78.7 297.53 77.56 323.69 99.37 324.65 98.41 346.45 124.58 347.6 125.53 325.79 147.34 326.75 148.48 300.58 126.68 299.63 127.63 277.82 101.46 276.68" fill="#fff"/><polygon points="106.51 307.29 115.29 326.17 96.41 334.96 106.95 357.62 125.83 348.84 134.61 367.72 157.28 357.19 148.5 338.3 167.38 329.52 156.84 306.85 137.96 315.63 129.18 296.75 106.51 307.29" fill="#fff"/><polygon points="126.49 358.23 145.45 370.64 133.05 389.59 155.79 404.48 168.2 385.52 187.15 397.92 202.04 375.18 183.08 362.77 195.49 343.82 172.74 328.93 160.33 347.89 141.38 335.48 126.49 358.23" fill="#fff"/><polygon points="187.34 419.69 205.78 434.32 191.14 452.76 213.27 470.32 227.91 451.88 246.35 466.52 263.91 444.39 245.47 429.75 260.1 411.31 237.97 393.75 223.34 412.19 204.9 397.56 187.34 419.69" fill="#fff"/><polygon points="246.56 438.73 249.59 462.22 226.1 465.24 229.73 493.44 253.22 490.41 256.24 513.9 284.44 510.27 281.41 486.78 304.9 483.76 301.27 455.56 277.78 458.59 274.76 435.1 246.56 438.73" fill="#fff"/></g><g opacity=".82"><polygon points="299.98 255.59 292.61 277.6 270.6 270.23 261.76 296.64 283.76 304.01 276.39 326.01 302.8 334.86 310.17 312.85 332.18 320.22 341.02 293.81 319.01 286.44 326.38 264.44 299.98 255.59" fill="#fff"/><polygon points="282.99 356.92 288.15 376.2 268.87 381.36 275.07 404.49 294.35 399.33 299.51 418.61 322.64 412.41 317.48 393.13 336.75 387.97 330.56 364.84 311.28 370 306.12 350.72 282.99 356.92" fill="#fff"/><polygon points="292.65 412.07 291.92 432.56 271.44 431.83 270.56 456.41 291.05 457.14 290.32 477.63 314.91 478.5 315.64 458.02 336.12 458.74 337 434.16 316.51 433.43 317.24 412.94 292.65 412.07" fill="#fff"/><polygon points="276.41 433.88 285.78 454.94 264.73 464.32 275.98 489.59 297.04 480.21 306.41 501.27 331.68 490.02 322.31 468.96 343.36 459.58 332.11 434.31 311.05 443.69 301.68 422.63 276.41 433.88" fill="#fff"/><polygon points="289.85 459.53 291.51 479.51 271.54 481.17 273.53 505.15 293.51 503.49 295.17 523.46 319.15 521.47 317.49 501.49 337.46 499.83 335.47 475.85 315.49 477.51 313.83 457.54 289.85 459.53" fill="#fff"/></g><g opacity=".82"><polygon points="92.02 220.19 91.11 243.9 67.41 242.99 66.32 271.44 90.03 272.34 89.12 296.05 117.57 297.14 118.48 273.43 142.18 274.34 143.27 245.89 119.56 244.98 120.47 221.28 92.02 220.19" fill="#fff"/><polygon points="76.81 263.79 87.7 282.95 68.53 293.83 81.6 316.83 100.76 305.94 111.64 325.11 134.64 312.04 123.75 292.88 142.92 282 129.85 259 110.69 269.89 99.81 250.72 76.81 263.79" fill="#fff"/><polygon points="74.89 304.86 87.34 325.3 66.91 337.74 81.84 362.26 102.27 349.81 114.72 370.25 139.24 355.31 126.79 334.88 147.23 322.43 132.29 297.91 111.86 310.36 99.41 289.93 74.89 304.86" fill="#fff"/><polygon points="117.45 349.38 105 368.29 86.1 355.84 71.17 378.53 90.07 390.97 77.63 409.87 100.31 424.81 112.75 405.9 131.66 418.35 146.59 395.66 127.69 383.22 140.13 364.32 117.45 349.38" fill="#fff"/><polygon points="126.52 407.42 110.8 422.83 95.38 407.11 76.52 425.6 91.93 441.33 76.21 456.74 94.7 475.6 110.42 460.19 125.84 475.91 144.7 457.42 129.29 441.7 145.01 426.29 126.52 407.42" fill="#fff"/><polygon points="114.45 431.46 105.02 451.69 84.78 442.26 73.46 466.55 93.69 475.98 84.26 496.22 108.55 507.54 117.98 487.31 138.22 496.74 149.54 472.45 129.31 463.02 138.74 442.78 114.45 431.46" fill="#fff"/></g><g opacity=".82"><polygon points="201.19 164.56 209.26 185.41 188.41 193.49 198.1 218.51 218.95 210.44 227.02 231.29 252.05 221.6 243.98 200.75 264.83 192.68 255.14 167.65 234.29 175.73 226.22 154.87 201.19 164.56" fill="#fff"/><polygon points="221.28 238.85 223.64 259.16 203.33 261.52 206.16 285.89 226.47 283.53 228.82 303.84 253.19 301.02 250.84 280.71 271.15 278.35 268.32 253.98 248.01 256.34 245.66 236.03 221.28 238.85" fill="#fff"/><polygon points="256.59 258.24 240.94 272.41 226.76 256.76 207.98 273.77 222.15 289.43 206.5 303.6 223.51 322.39 239.17 308.21 253.34 323.86 272.13 306.85 257.95 291.2 273.61 277.02 256.59 258.24" fill="#fff"/><polygon points="240.24 329.12 238.8 349.18 218.73 347.74 217 371.81 237.06 373.26 235.62 393.32 259.7 395.06 261.14 374.99 281.21 376.44 282.94 352.36 262.87 350.92 264.32 330.85 240.24 329.12" fill="#fff"/><polygon points="269.24 366.83 254.75 382.05 239.53 367.56 222.15 385.82 237.37 400.3 222.88 415.52 241.14 432.9 255.63 417.69 270.84 432.17 288.23 413.91 273.01 399.43 287.5 384.21 269.24 366.83" fill="#fff"/><polygon points="277.47 440.26 263.88 456.56 247.58 442.97 231.26 462.53 247.56 476.12 233.97 492.42 253.53 508.74 267.12 492.44 283.42 506.03 299.74 486.47 283.44 472.88 297.03 456.58 277.47 440.26" fill="#fff"/></g><g opacity=".82"><polygon points="409.72 274.89 402.46 296.68 380.68 289.42 371.97 315.57 393.75 322.83 386.5 344.61 412.64 353.32 419.9 331.54 441.69 338.79 450.4 312.65 428.61 305.39 435.87 283.6 409.72 274.89" fill="#fff"/><polygon points="407.45 325.03 393.94 344.82 374.15 331.31 357.93 355.06 377.72 368.57 364.2 388.36 387.95 404.58 401.47 384.79 421.26 398.31 437.48 374.56 417.69 361.04 431.2 341.25 407.45 325.03" fill="#fff"/><polygon points="394.76 374.44 381.63 393.25 362.82 380.13 347.07 402.7 365.88 415.83 352.75 434.64 375.33 450.39 388.45 431.58 407.27 444.71 423.02 422.13 404.2 409.01 417.33 390.19 394.76 374.44" fill="#fff"/><polygon points="368.5 391.61 367.29 414.84 344.07 413.63 342.61 441.5 365.84 442.71 364.63 465.93 392.5 467.39 393.71 444.16 416.93 445.37 418.39 417.5 395.16 416.29 396.37 393.07 368.5 391.61" fill="#fff"/></g><g opacity=".82"><polygon points="309.45 189.77 316.68 211.69 294.75 218.91 303.42 245.22 325.34 237.99 332.56 259.92 358.87 251.25 351.65 229.33 373.57 222.11 364.9 195.8 342.98 203.02 335.76 181.1 309.45 189.77" fill="#fff"/><polygon points="319.01 202.39 318.18 226.07 294.5 225.23 293.5 253.64 317.17 254.47 316.34 278.14 344.74 279.15 345.58 255.48 369.25 256.31 370.25 227.91 346.58 227.07 347.42 203.4 319.01 202.39" fill="#fff"/><polygon points="305.81 246.8 312.96 265.31 294.45 272.45 303.03 294.66 321.53 287.51 328.68 306.01 350.88 297.44 343.74 278.93 362.24 271.79 353.66 249.58 335.16 256.73 328.01 238.23 305.81 246.8" fill="#fff"/><polygon points="347.97 274.92 329.89 284.88 319.93 266.79 298.23 278.75 308.19 296.83 290.1 306.79 302.05 328.49 320.14 318.53 330.1 336.61 351.8 324.66 341.84 306.58 359.92 296.62 347.97 274.92" fill="#fff"/><polygon points="329.44 343.65 314.97 360.34 298.27 345.87 280.89 365.9 297.59 380.38 283.11 397.08 303.15 414.45 317.63 397.76 334.33 412.24 351.7 392.2 335 377.72 349.48 361.02 329.44 343.65" fill="#fff"/><polygon points="317.59 392.46 305.89 411.85 286.51 400.15 272.46 423.41 291.85 435.11 280.15 454.49 303.41 468.54 315.11 449.15 334.49 460.85 348.54 437.59 329.15 425.89 340.85 406.51 317.59 392.46" fill="#fff"/></g><g opacity=".82"><polygon points="196.02 204.07 177.83 218.24 163.66 200.04 141.82 217.05 155.99 235.24 137.8 249.41 154.8 271.25 172.99 257.08 187.16 275.28 209 258.27 194.83 240.08 213.03 225.91 196.02 204.07" fill="#fff"/><polygon points="173.22 236.74 166.76 256.4 147.1 249.94 139.35 273.53 159.01 279.99 152.55 299.65 176.14 307.4 182.6 287.74 202.26 294.2 210.01 270.61 190.35 264.15 196.81 244.49 173.22 236.74" fill="#fff"/><polygon points="153.45 269.23 157.83 291.84 135.21 296.22 140.47 323.36 163.09 318.98 167.47 341.6 194.6 336.34 190.22 313.72 212.84 309.34 207.58 282.21 184.97 286.59 180.59 263.97 153.45 269.23" fill="#fff"/><polygon points="185.3 304.76 171.47 321.53 154.7 307.7 138.1 327.82 154.88 341.65 141.05 358.43 161.17 375.02 175 358.25 191.77 372.08 208.37 351.95 191.6 338.12 205.43 321.35 185.3 304.76" fill="#fff"/><polygon points="167.89 382.76 161.91 404.73 139.94 398.75 132.76 425.11 154.73 431.09 148.75 453.06 175.11 460.24 181.09 438.27 203.06 444.25 210.24 417.89 188.27 411.91 194.25 389.94 167.89 382.76" fill="#fff"/></g><g opacity=".82"><polygon points="220.67 294.15 223.52 316.82 200.86 319.67 204.28 346.87 226.94 344.02 229.79 366.68 256.99 363.26 254.14 340.6 276.81 337.75 273.39 310.55 250.72 313.4 247.87 290.73 220.67 294.15" fill="#fff"/><polygon points="218.78 344.83 231.15 360.57 215.42 372.93 230.26 391.82 245.99 379.45 258.36 395.18 277.24 380.34 264.88 364.61 280.61 352.24 265.77 333.36 250.03 345.73 237.67 329.99 218.78 344.83" fill="#fff"/><polygon points="230.63 386.09 242.32 404.97 223.44 416.67 237.48 439.33 256.36 427.63 268.05 446.51 290.71 432.48 279.01 413.6 297.89 401.9 283.86 379.25 264.98 390.94 253.29 372.06 230.63 386.09" fill="#fff"/><polygon points="271.38 397.82 261.72 417.12 242.42 407.46 230.82 430.62 250.12 440.28 240.46 459.58 263.62 471.18 273.28 451.88 292.58 461.54 304.18 438.38 284.88 428.72 294.54 409.42 271.38 397.82" fill="#fff"/></g><g opacity=".82"><polygon points="500.88 256.71 486.93 272.98 470.66 259.02 453.92 278.55 470.19 292.5 456.24 308.77 475.76 325.51 489.71 309.24 505.98 323.19 522.72 303.67 506.45 289.72 520.4 273.45 500.88 256.71" fill="#fff"/><polygon points="460.97 305.14 469.43 323.91 450.65 332.37 460.81 354.9 479.58 346.44 488.04 365.22 510.57 355.06 502.11 336.29 520.89 327.83 510.73 305.3 491.96 313.76 483.5 294.98 460.97 305.14" fill="#fff"/><polygon points="475.05 321.87 472.46 343.59 450.75 340.99 447.64 367.05 469.35 369.64 466.76 391.35 492.81 394.46 495.4 372.75 517.12 375.35 520.23 349.29 498.52 346.7 501.11 324.98 475.05 321.87" fill="#fff"/><polygon points="492.62 353.68 479.2 371.48 461.39 358.07 445.3 379.44 463.1 392.85 449.69 410.66 471.06 426.76 484.47 408.95 502.28 422.36 518.38 401 500.57 387.58 513.98 369.77 492.62 353.68" fill="#fff"/><polygon points="478.92 416.96 470.01 438.33 448.64 429.43 437.96 455.08 459.33 463.99 450.43 485.36 476.08 496.04 484.99 474.67 506.36 483.57 517.04 457.92 495.67 449.01 504.57 427.64 478.92 416.96" fill="#fff"/></g><g opacity=".82"><polygon points="422.64 208.39 424.13 228.57 403.96 230.06 405.75 254.28 425.93 252.78 427.43 272.96 451.64 271.16 450.14 250.99 470.32 249.49 468.53 225.28 448.35 226.77 446.85 206.6 422.64 208.39" fill="#fff"/><polygon points="415.69 294.96 422.01 317.71 399.27 324.03 406.86 351.32 429.6 345 435.92 367.74 463.21 360.15 456.89 337.41 479.63 331.08 472.04 303.79 449.3 310.12 442.98 287.38 415.69 294.96" fill="#fff"/><polygon points="437.32 369.09 432.13 389.9 411.32 384.71 405.09 409.68 425.9 414.87 420.71 435.68 445.68 441.91 450.87 421.1 471.68 426.29 477.91 401.32 457.1 396.13 462.29 375.32 437.32 369.09" fill="#fff"/></g></svg>