<?xml version="1.0" encoding="utf-8"?>
<!-- Generator: Adobe Illustrator 28.0.0, SVG Export Plug-In . SVG Version: 6.00 Build 0)  -->
<!DOCTYPE svg PUBLIC "-//W3C//DTD SVG 1.1//EN" "http://www.w3.org/Graphics/SVG/1.1/DTD/svg11.dtd" [
	<!ENTITY st0 "display:none;fill:#FFED00;">
	<!ENTITY st1 "fill:#FFFFFF;">
]>
<svg version="1.1" xmlns="http://www.w3.org/2000/svg" xmlns:xlink="http://www.w3.org/1999/xlink" x="0px" y="0px"
	 viewBox="0 0 1920 1080" style="enable-background:new 0 0 1920 1080;" xml:space="preserve">
<g id="Layer_2">
	<path style="&st0;" d="M-202.9,978.7c-8.9,88.2,17.6,185.1,88.5,238.3c66.7,50.1,156.7,52,240.1,52c560.7-0.5,1121.4-1,1682.2-1.5
		c59.2-0.1,120.5-0.5,174.5-24.9c83.7-37.8,135.3-132.4,130.4-224.1c-4.9-91.7-62-176.9-140.5-224.5
		c-83.5-50.5-186.2-60.4-283.1-49.6c-97,10.9-190.6,40.9-285,65.4c-233,60.5-474.6,87.3-715.3,80.8c-242.5-6.6-483.9-47.1-715-120.8
		C-69.8,756-115.5,734.1-143,783C-175.2,840.4-196.4,913.5-202.9,978.7z"/>
	<g>
		<polygon style="&st1;" points="455.7,1011.7 498,1044.8 464.9,1087.2 507.3,1120.2 540.4,1077.9 582.7,1111 615.8,1068.6 
			573.4,1035.6 606.5,993.2 564.2,960.1 531.1,1002.5 488.8,969.4 		"/>
		<polygon style="&st1;" points="1310.6,833.4 1258.2,838 1253.7,785.7 1201.3,790.2 1205.9,842.6 1153.5,847.2 1158.1,899.6 
			1210.5,895 1215,947.3 1267.4,942.8 1262.8,890.4 1315.2,885.8 		"/>
		<polygon style="&st1;" points="-21.9,886.2 34.2,895.1 25.3,951.2 81.4,960 90.2,904 146.3,912.9 155.2,856.8 99.1,847.9 
			108,791.9 51.9,783 43.1,839 -13,830.2 		"/>
		<polygon style="&st1;" points="1840,1038.2 1874.7,998.3 1914.5,1033 1949.1,993.1 1909.3,958.5 1943.9,918.7 1904.1,884.1 
			1869.5,923.9 1829.6,889.3 1795,929.1 1834.8,963.7 1800.2,1003.5 		"/>
		<polygon style="&st1;" points="203.2,957.6 255.2,957.6 255.2,1009.6 307.2,1009.6 307.2,957.6 359.2,957.6 359.2,905.6 
			307.2,905.6 307.2,853.6 255.2,853.6 255.2,905.6 203.2,905.6 		"/>
		<polygon style="&st1;" points="1484.4,779.9 1466.8,828.5 1418.1,810.8 1400.4,859.4 1449.1,877.1 1431.4,925.7 1480,943.4 
			1497.7,894.8 1546.3,912.5 1564,863.9 1515.4,846.2 1533.1,797.6 		"/>
		<polygon style="&st1;" points="498.3,935.4 451.4,903.8 483,857 436.2,825.4 404.6,872.2 357.7,840.6 326.1,887.5 373,919.1 
			341.4,965.9 388.2,997.5 419.8,950.7 466.7,982.3 		"/>
		<polygon style="&st1;" points="897.3,953.1 849.4,972.4 830,924.5 782.2,943.9 801.5,991.8 753.6,1011.1 773,1059 820.9,1039.6 
			840.2,1087.5 888.1,1068.2 868.7,1020.3 916.6,1000.9 		"/>
		<polygon style="&st1;" points="-148.1,878.3 -183.6,925.3 -230.6,889.9 -266,936.9 -219,972.3 -254.5,1019.4 -207.4,1054.8 
			-172,1007.8 -125,1043.2 -89.5,996.2 -136.5,960.7 -101.1,913.7 		"/>
		<polygon style="&st1;" points="1392.3,899.3 1351.2,940.5 1310,899.3 1268.8,940.5 1310,981.7 1268.8,1022.9 1310,1064.1 
			1351.2,1022.9 1392.3,1064.1 1433.5,1022.9 1392.3,981.7 1433.5,940.5 		"/>
		<polygon style="&st1;" points="105.5,908.9 115.1,962.9 61.1,972.4 70.6,1026.3 124.6,1016.8 134.1,1070.7 188,1061.2 
			178.5,1007.3 232.4,997.8 222.9,943.8 169,953.3 159.5,899.4 		"/>
		<polygon style="&st1;" points="665.1,920.2 646.5,968.5 598.2,950 579.6,998.3 628,1016.9 609.4,1065.3 657.8,1083.9 
			676.3,1035.5 724.7,1054 743.3,1005.7 694.9,987.1 713.5,938.7 		"/>
		<polygon style="&st1;" points="1114.9,1063.5 1112.1,1010.6 1165,1007.8 1162.2,955 1109.3,957.7 1106.6,904.9 1053.7,907.6 
			1056.5,960.5 1003.6,963.3 1006.4,1016.1 1059.2,1013.4 1062,1066.2 		"/>
		<polygon style="&st1;" points="-61.1,1055.9 -25.5,1013.5 17,1049.1 52.6,1006.6 10.1,971 45.8,928.5 3.3,892.9 -32.3,935.4 
			-74.8,899.7 -110.4,942.2 -68,977.8 -103.6,1020.3 		"/>
		<polygon style="&st1;" points="750.2,995.3 763.6,945.5 813.5,958.8 826.8,908.9 776.9,895.6 790.3,845.7 740.4,832.3 727,882.2 
			677.2,868.8 663.8,918.7 713.7,932.1 700.3,982 		"/>
		<polygon style="&st1;" points="1510.2,1108.9 1506.5,1056.7 1558.8,1053 1555.2,1000.7 1502.9,1004.4 1499.2,952.1 1447,955.8 
			1450.6,1008 1398.3,1011.7 1402,1064 1454.3,1060.3 1457.9,1112.6 		"/>
		<polygon style="&st1;" points="1605.7,738.9 1583.9,785.7 1537.1,763.9 1515.3,810.7 1562.1,832.5 1540.2,879.3 1587.1,901.1 
			1608.9,854.3 1655.7,876.1 1677.5,829.3 1630.7,807.5 1652.5,760.7 		"/>
		<polygon style="&st1;" points="1632,1106 1651.4,1057.9 1699.4,1077.3 1718.8,1029.3 1670.8,1009.9 1690.2,961.9 1642.2,942.5 
			1622.8,990.5 1574.7,971.1 1555.3,1019.1 1603.4,1038.5 1584,1086.6 		"/>
		<polygon style="&st1;" points="944.7,1021.3 960.7,969.1 1012.9,985.1 1028.9,932.8 976.6,916.8 992.6,864.5 940.4,848.6 
			924.4,900.8 872.1,884.9 856.1,937.1 908.4,953.1 892.4,1005.4 		"/>
		<polygon style="&st1;" points="1720.2,747.2 1735.8,801.5 1681.4,817.1 1697,871.5 1751.4,855.9 1767,910.3 1821.4,894.7 
			1805.8,840.3 1860.2,824.7 1844.6,770.4 1790.2,786 1774.6,731.6 		"/>
		<polygon style="&st1;" points="-199,888.5 -164.6,841.1 -117.3,875.5 -82.9,828.2 -130.2,793.8 -95.8,746.5 -143.1,712.1 
			-177.5,759.4 -224.9,725 -259.2,772.4 -211.9,806.8 -246.3,854.1 		"/>
		<polygon style="&st1;" points="629.5,882.9 577.9,876.5 584.3,825 532.7,818.6 526.4,870.2 474.8,863.9 468.5,915.4 520,921.8 
			513.7,973.3 565.3,979.7 571.6,928.1 623.2,934.4 		"/>
		<polygon style="&st1;" points="1348.1,927.6 1369.1,880.4 1416.3,901.4 1437.3,854.2 1390.1,833.2 1411.1,786 1363.9,765 
			1342.9,812.2 1295.7,791.2 1274.7,838.4 1321.9,859.4 1300.9,906.5 		"/>
		<polygon style="&st1;" points="1812.3,1105.2 1800.4,1053.6 1851.9,1041.8 1840,990.2 1788.5,1002.1 1776.6,950.6 1725.1,962.5 
			1737,1014 1685.5,1025.9 1697.4,1077.4 1748.9,1065.5 1760.8,1117 		"/>
		<polygon style="&st1;" points="455.3,1077.7 419.4,1040.5 456.6,1004.7 420.7,967.5 383.5,1003.4 347.7,966.2 310.5,1002.1 
			346.4,1039.3 309.2,1075.1 345.1,1112.3 382.3,1076.4 418.2,1113.6 		"/>
		<polygon style="&st1;" points="254.3,1133.4 274.5,1085.9 322,1106.1 342.2,1058.5 294.7,1038.3 314.9,990.8 267.3,970.6 
			247.1,1018.2 199.6,998 179.4,1045.5 227,1065.7 206.8,1113.2 		"/>
		<polygon style="&st1;" points="1170,1098.8 1204.7,1060.3 1243.2,1094.9 1277.8,1056.4 1239.3,1021.8 1274,983.3 1235.5,948.6 
			1200.8,987.1 1162.3,952.4 1127.7,990.9 1166.2,1025.6 1131.5,1064.1 		"/>
		<polygon style="&st1;" points="-163.1,1058.6 -128.7,1058.6 -128.7,1093.1 -94.2,1093.1 -94.2,1058.6 -59.8,1058.6 -59.8,1024.2 
			-94.2,1024.2 -94.2,989.7 -128.7,989.7 -128.7,1024.2 -163.1,1024.2 		"/>
		<polygon style="&st1;" points="1512.5,680.5 1508.2,714.8 1474,710.6 1469.7,744.9 1504,749.1 1499.8,783.4 1534.1,787.6 
			1538.3,753.3 1572.6,757.5 1576.8,723.2 1542.5,719 1546.7,684.7 		"/>
		<polygon style="&st1;" points="-70.8,1041.9 -53.1,1075.3 -86.4,1093 -68.7,1126.3 -35.3,1108.6 -17.6,1141.9 15.7,1124.2 
			-2,1090.9 31.3,1073.2 13.6,1039.8 -19.7,1057.5 -37.4,1024.2 		"/>
		<polygon style="&st1;" points="1755.1,978.2 1732.9,950.8 1760.3,928.6 1738.1,901.2 1710.7,923.4 1688.5,896 1661.1,918.2 
			1683.3,945.6 1655.9,967.8 1678.1,995.1 1705.5,973 1727.7,1000.4 		"/>
		<polygon style="&st1;" points="1734.1,882.7 1703.8,859.9 1726.6,829.6 1696.4,806.8 1673.5,837.1 1643.3,814.3 1620.5,844.5 
			1650.7,867.3 1627.9,897.6 1658.2,920.4 1681,890.2 1711.3,913 		"/>
		<polygon style="&st1;" points="663.1,865.6 636.6,889.4 612.8,862.9 586.3,886.8 610.2,913.2 583.7,937.1 607.5,963.6 634,939.7 
			657.8,966.2 684.3,942.4 660.5,915.9 687,892 		"/>
		<polygon style="&st1;" points="86.5,1092.8 85.2,1055.8 122.1,1054.5 120.8,1017.6 83.9,1018.9 82.6,982 45.7,983.3 47,1020.2 
			10,1021.5 11.3,1058.4 48.3,1057.1 49.5,1094 		"/>
		<polygon style="&st1;" points="-26.1,789.7 -52.4,767.6 -30.3,741.2 -56.7,719 -78.8,745.4 -105.2,723.3 -127.4,749.7 -101,771.8 
			-123.1,798.2 -96.7,820.3 -74.6,793.9 -48.2,816.1 		"/>
		<polygon style="&st1;" points="208.1,922.3 224.5,887.3 259.5,903.6 275.8,868.6 240.8,852.3 257.1,817.3 222.1,801 205.8,836 
			170.8,819.6 154.5,854.6 189.5,871 173.1,906 		"/>
		<polygon style="&st1;" points="1086.7,896.3 1113.1,918.4 1091,944.8 1117.4,967 1139.5,940.6 1165.9,962.7 1188.1,936.3 
			1161.7,914.2 1183.8,887.8 1157.4,865.7 1135.3,892 1108.9,869.9 		"/>
		<polygon style="&st1;" points="1404.9,735.3 1406.8,772.3 1369.8,774.2 1371.7,811.3 1408.7,809.3 1410.7,846.4 1447.7,844.4 
			1445.8,807.4 1482.8,805.4 1480.9,768.4 1443.8,770.3 1441.9,733.3 		"/>
		<polygon style="&st1;" points="-294.2,885.1 -259.6,887.5 -262,922.2 -227.4,924.6 -224.9,890 -190.3,892.4 -187.9,857.7 
			-222.5,855.3 -220.1,820.7 -254.7,818.2 -257.2,852.9 -291.8,850.5 		"/>
		<polygon style="&st1;" points="1636.9,908.1 1602.3,903.8 1606.5,869.2 1571.9,864.9 1567.6,899.6 1533,895.3 1528.7,930 
			1563.4,934.2 1559.1,968.9 1593.8,973.1 1598,938.5 1632.7,942.7 		"/>
		<polygon style="&st1;" points="1122.6,1072.9 1088.2,1063.7 1097.4,1029.4 1063,1020.1 1053.8,1054.5 1019.4,1045.3 
			1010.2,1079.7 1044.6,1088.9 1035.4,1123.3 1069.8,1132.5 1079,1098.1 1113.4,1107.3 		"/>
		<polygon style="&st1;" points="1350.2,1121.5 1335.1,1087.5 1369.1,1072.3 1354,1038.3 1319.9,1053.5 1304.8,1019.5 
			1270.8,1034.6 1285.9,1068.6 1251.9,1083.8 1267.1,1117.8 1301.1,1102.6 1316.2,1136.6 		"/>
		<polygon style="&st1;" points="1031.7,1066.1 1014.9,1031.6 1049.4,1014.8 1032.6,980.2 998,997.1 981.2,962.5 946.7,979.4 
			963.5,1013.9 929,1030.8 945.8,1065.3 980.4,1048.4 997.2,1083 		"/>
		<polygon style="&st1;" points="1640.9,993.6 1662.1,966.5 1689.2,987.7 1710.4,960.5 1683.3,939.3 1704.5,912.2 1677.4,891 
			1656.1,918.1 1629,896.9 1607.8,924.1 1634.9,945.3 1613.7,972.4 		"/>
		<polygon style="&st1;" points="1335.5,1083.5 1370.1,1088.4 1365.2,1123 1399.8,1127.9 1404.7,1093.3 1439.2,1098.1 
			1444.1,1063.5 1409.5,1058.7 1414.4,1024.1 1379.8,1019.2 1374.9,1053.8 1340.3,1049 		"/>
		<polygon style="&st1;" points="1822.7,847.7 1860.6,860.7 1847.5,898.5 1885.4,911.6 1898.4,873.7 1936.2,886.8 1949.2,848.9 
			1911.4,835.9 1924.4,798.1 1886.6,785.1 1873.6,822.9 1835.7,809.9 		"/>
		<polygon style="&st1;" points="1535.3,989.2 1547.1,956.8 1579.5,968.6 1591.2,936.2 1558.9,924.4 1570.7,892 1538.3,880.3 
			1526.5,912.6 1494.1,900.8 1482.4,933.2 1514.7,945 1502.9,977.4 		"/>
		<polygon style="&st1;" points="813.2,930 829,899.1 860,914.9 875.7,883.9 844.8,868.1 860.5,837.2 829.6,821.4 813.8,852.4 
			782.9,836.6 767.1,867.6 798.1,883.3 782.3,914.3 		"/>
		<polygon style="&st1;" points="280.4,783.2 269.1,818 234.3,806.7 223,841.5 257.8,852.8 246.5,887.6 281.3,898.9 292.6,864.1 
			327.4,875.4 338.7,840.6 303.9,829.3 315.2,794.5 		"/>
		<polygon style="&st1;" points="1013.8,904.8 1025.1,867.8 1062.1,879.1 1073.4,842.1 1036.4,830.8 1047.7,793.8 1010.7,782.5 
			999.4,819.5 962.4,808.2 951.1,845.2 988.1,856.5 976.8,893.5 		"/>
		<polygon style="&st1;" points="1346.4,775 1310.7,768.7 1317,733 1281.2,726.7 1274.9,762.4 1239.2,756.1 1232.9,791.8 
			1268.6,798.1 1262.3,833.9 1298.1,840.2 1304.4,804.4 1340.1,810.7 		"/>
		<polygon style="&st1;" points="-7.2,853.7 -11.1,816.5 26.1,812.6 22.2,775.3 -15.1,779.2 -19,741.9 -56.3,745.8 -52.3,783.1 
			-89.6,787 -85.7,824.3 -48.4,820.4 -44.5,857.7 		"/>
		<polygon style="&st1;" points="1079.3,909.6 1049.4,892.4 1066.7,862.6 1036.8,845.4 1019.6,875.2 989.8,858 972.6,887.8 
			1002.4,905 985.2,934.9 1015,952.1 1032.2,922.2 1062.1,939.5 		"/>
		<polygon style="&st1;" points="132.1,803.4 139.3,837 105.6,844.2 112.7,877.9 146.4,870.7 153.6,904.4 187.3,897.3 180.1,863.6 
			213.8,856.4 206.7,822.7 173,829.9 165.8,796.2 		"/>
		<polygon style="&st1;" points="1179.3,793.8 1142.4,814.2 1122,777.4 1085.2,797.8 1105.6,834.6 1068.8,855 1089.2,891.9 
			1126,871.5 1146.4,908.3 1183.3,887.9 1162.9,851 1199.7,830.6 		"/>
		<polygon style="&st1;" points="22.9,848.9 -13.2,847 -11.3,810.9 -47.5,809 -49.4,845.1 -85.5,843.2 -87.4,879.4 -51.2,881.3 
			-53.1,917.4 -17,919.3 -15.1,883.2 21,885.1 		"/>
		<polygon style="&st1;" points="1737.8,734.2 1704.8,744.3 1694.8,711.4 1661.8,721.4 1671.9,754.4 1639,764.4 1649,797.4 
			1682,787.3 1692,820.3 1725,810.2 1714.9,777.2 1747.9,767.2 		"/>
		<polygon style="&st1;" points="932.2,1098.6 926.8,1064.6 960.8,1059.2 955.4,1025.2 921.4,1030.6 916,996.6 882,1001.9 
			887.4,1036 853.4,1041.4 858.8,1075.4 892.8,1070 898.2,1104 		"/>
		<polygon style="&st1;" points="1603.2,767.6 1620.4,736.7 1651.3,753.8 1668.4,722.9 1637.5,705.8 1654.6,674.9 1623.7,657.7 
			1606.6,688.7 1575.7,671.5 1558.5,702.4 1589.5,719.6 1572.3,750.5 		"/>
		<polygon style="&st1;" points="1445.5,783.7 1472.7,762.5 1493.9,789.7 1521,768.4 1499.8,741.3 1527,720.1 1505.7,692.9 
			1478.6,714.2 1457.4,687 1430.2,708.2 1451.5,735.4 1424.3,756.6 		"/>
		<polygon style="&st1;" points="920.1,888.8 901.1,858.5 931.5,839.5 912.5,809.1 882.1,828.1 863.1,797.7 832.7,816.7 
			851.7,847.1 821.3,866.1 840.3,896.4 870.7,877.5 889.7,907.8 		"/>
		<polygon style="&st1;" points="1016.6,893.3 1052.6,891.4 1054.5,927.3 1090.4,925.4 1088.5,889.5 1124.5,887.6 1122.6,851.6 
			1086.6,853.5 1084.8,817.6 1048.8,819.5 1050.7,855.4 1014.7,857.3 		"/>
		<polygon style="&st1;" points="-124.5,810.9 -101.3,836.7 -127.1,859.8 -103.9,885.6 -78.2,862.4 -55,888.1 -29.2,865 
			-52.4,839.2 -26.7,816 -49.9,790.3 -75.6,813.5 -98.8,787.7 		"/>
		<polygon style="&st1;" points="795.4,1041.9 761.2,1031.5 771.7,997.2 737.4,986.7 727,1021 692.7,1010.5 682.3,1044.8 
			716.5,1055.2 706,1089.5 740.3,1099.9 750.7,1065.7 785,1076.2 		"/>
		<polygon style="&st1;" points="-99.2,949.6 -90.3,913.6 -54.3,922.6 -45.3,886.6 -81.3,877.6 -72.3,841.6 -108.3,832.6 
			-117.3,868.6 -153.3,859.7 -162.2,895.6 -126.3,904.6 -135.2,940.6 		"/>
		<polygon style="&st1;" points="973.7,1111 1006,1099.2 1017.8,1131.6 1050.2,1119.8 1038.4,1087.4 1070.8,1075.7 1059,1043.3 
			1026.6,1055.1 1014.8,1022.7 982.5,1034.5 994.2,1066.9 961.9,1078.6 		"/>
		<polygon style="&st1;" points="761.8,1143.4 777.7,1112.3 808.8,1128.2 824.7,1097 793.6,1081.2 809.4,1050 778.3,1034.2 
			762.4,1065.3 731.3,1049.4 715.4,1080.6 746.6,1096.4 730.7,1127.6 		"/>
		<polygon style="&st1;" points="916.9,1110.9 951.9,1101.5 961.3,1136.5 996.4,1127.1 987,1092.1 1022.1,1082.7 1012.7,1047.6 
			977.6,1057 968.2,1022 933.1,1031.4 942.5,1066.4 907.5,1075.8 		"/>
		<polygon style="&st1;" points="145.6,1133.4 155.3,1099.6 189.2,1109.3 198.9,1075.4 165,1065.7 174.7,1031.9 140.9,1022.2 
			131.2,1056 97.4,1046.3 87.7,1080.2 121.5,1089.9 111.8,1123.7 		"/>
		<polygon style="&st1;" points="658.5,1111.5 640.8,1082 670.3,1064.2 652.6,1034.7 623,1052.4 605.3,1022.9 575.8,1040.6 
			593.5,1070.2 564,1087.9 581.7,1117.4 611.3,1099.7 629,1129.2 		"/>
		<polygon style="&st1;" points="676,841.9 641.6,842.5 641,808.1 606.5,808.7 607.1,843.1 572.7,843.7 573.3,878.2 607.7,877.6 
			608.3,912 642.8,911.4 642.2,877 676.6,876.4 		"/>
		<polygon style="&st1;" points="1794.7,858.2 1784.6,891.3 1751.5,881.2 1741.3,914.3 1774.4,924.4 1764.3,957.6 1797.4,967.7 
			1807.6,934.6 1840.7,944.7 1850.8,911.6 1817.7,901.5 1827.8,868.3 		"/>
	</g>
	<g>
		<polygon style="&st1;" points="578.7,1012.7 621,1045.8 587.9,1088.2 630.3,1121.2 663.4,1078.9 705.7,1112 738.8,1069.6 
			696.4,1036.6 729.5,994.2 687.2,961.1 654.1,1003.5 611.8,970.4 		"/>
		<polygon style="&st1;" points="1433.6,834.4 1381.2,839 1376.7,786.7 1324.3,791.2 1328.9,843.6 1276.5,848.2 1281.1,900.6 
			1333.5,896 1338,948.3 1390.4,943.8 1385.8,891.4 1438.2,886.8 		"/>
		<polygon style="&st1;" points="101.1,887.2 157.2,896.1 148.3,952.2 204.4,961 213.2,905 269.3,913.9 278.2,857.8 222.1,848.9 
			231,792.9 174.9,784 166.1,840 110,831.2 		"/>
		<polygon style="&st1;" points="1963,1039.2 1997.7,999.3 2037.5,1034 2072.1,994.1 2032.3,959.5 2066.9,919.7 2027.1,885.1 
			1992.5,924.9 1952.6,890.3 1918,930.1 1957.8,964.7 1923.2,1004.5 		"/>
		<polygon style="&st1;" points="326.2,958.6 378.2,958.6 378.2,1010.6 430.2,1010.6 430.2,958.6 482.2,958.6 482.2,906.6 
			430.2,906.6 430.2,854.6 378.2,854.6 378.2,906.6 326.2,906.6 		"/>
		<polygon style="&st1;" points="1607.4,780.9 1589.8,829.5 1541.1,811.8 1523.4,860.4 1572.1,878.1 1554.4,926.7 1603,944.4 
			1620.7,895.8 1669.3,913.5 1687,864.9 1638.4,847.2 1656.1,798.6 		"/>
		<polygon style="&st1;" points="621.3,936.4 574.4,904.8 606,858 559.2,826.4 527.6,873.2 480.7,841.6 449.1,888.5 496,920.1 
			464.4,966.9 511.2,998.5 542.8,951.7 589.7,983.3 		"/>
		<polygon style="&st1;" points="1020.3,954.1 972.4,973.4 953,925.5 905.2,944.9 924.5,992.8 876.6,1012.1 896,1060 943.9,1040.6 
			963.2,1088.5 1011.1,1069.2 991.7,1021.3 1039.6,1001.9 		"/>
		<polygon style="&st1;" points="-25.1,879.3 -60.6,926.3 -107.6,890.9 -143,937.9 -96,973.3 -131.5,1020.4 -84.4,1055.8 
			-49,1008.8 -2,1044.2 33.5,997.2 -13.5,961.7 21.9,914.7 		"/>
		<polygon style="&st1;" points="1515.3,900.3 1474.2,941.5 1433,900.3 1391.8,941.5 1433,982.7 1391.8,1023.9 1433,1065.1 
			1474.2,1023.9 1515.3,1065.1 1556.5,1023.9 1515.3,982.7 1556.5,941.5 		"/>
		<polygon style="&st1;" points="228.5,909.9 238.1,963.9 184.1,973.4 193.6,1027.3 247.6,1017.8 257.1,1071.7 311,1062.2 
			301.5,1008.3 355.4,998.8 345.9,944.8 292,954.3 282.5,900.4 		"/>
		<polygon style="&st1;" points="788.1,921.2 769.5,969.5 721.2,951 702.6,999.3 751,1017.9 732.4,1066.3 780.8,1084.9 
			799.3,1036.5 847.7,1055 866.3,1006.7 817.9,988.1 836.5,939.7 		"/>
		<polygon style="&st1;" points="1237.9,1064.5 1235.1,1011.6 1288,1008.8 1285.2,956 1232.3,958.7 1229.6,905.9 1176.7,908.6 
			1179.5,961.5 1126.6,964.3 1129.4,1017.1 1182.2,1014.4 1185,1067.2 		"/>
		<polygon style="&st1;" points="61.9,1056.9 97.5,1014.5 140,1050.1 175.6,1007.6 133.1,972 168.8,929.5 126.3,893.9 90.7,936.4 
			48.2,900.7 12.6,943.2 55,978.8 19.4,1021.3 		"/>
		<polygon style="&st1;" points="873.2,996.3 886.6,946.5 936.5,959.8 949.8,909.9 899.9,896.6 913.3,846.7 863.4,833.3 850,883.2 
			800.2,869.8 786.8,919.7 836.7,933.1 823.3,983 		"/>
		<polygon style="&st1;" points="1633.2,1109.9 1629.5,1057.7 1681.8,1054 1678.2,1001.7 1625.9,1005.4 1622.2,953.1 1570,956.8 
			1573.6,1009 1521.3,1012.7 1525,1065 1577.3,1061.3 1580.9,1113.6 		"/>
		<polygon style="&st1;" points="1728.7,739.9 1706.9,786.7 1660.1,764.9 1638.3,811.7 1685.1,833.5 1663.2,880.3 1710.1,902.1 
			1731.9,855.3 1778.7,877.1 1800.5,830.3 1753.7,808.5 1775.5,761.7 		"/>
		<polygon style="&st1;" points="1755,1107 1774.4,1058.9 1822.4,1078.3 1841.8,1030.3 1793.8,1010.9 1813.2,962.9 1765.2,943.5 
			1745.8,991.5 1697.7,972.1 1678.3,1020.1 1726.4,1039.5 1707,1087.6 		"/>
		<polygon style="&st1;" points="1067.7,1022.3 1083.7,970.1 1135.9,986.1 1151.9,933.8 1099.6,917.8 1115.6,865.5 1063.4,849.6 
			1047.4,901.8 995.1,885.9 979.1,938.1 1031.4,954.1 1015.4,1006.4 		"/>
		<polygon style="&st1;" points="1843.2,748.2 1858.8,802.5 1804.4,818.1 1820,872.5 1874.4,856.9 1890,911.3 1944.4,895.7 
			1928.8,841.3 1983.2,825.7 1967.6,771.4 1913.2,787 1897.6,732.6 		"/>
		<polygon style="&st1;" points="-76,889.5 -41.6,842.1 5.7,876.5 40.1,829.2 -7.2,794.8 27.2,747.5 -20.1,713.1 -54.5,760.4 
			-101.9,726 -136.2,773.4 -88.9,807.8 -123.3,855.1 		"/>
		<polygon style="&st1;" points="752.5,883.9 700.9,877.5 707.3,826 655.7,819.6 649.4,871.2 597.8,864.9 591.5,916.4 643,922.8 
			636.7,974.3 688.3,980.7 694.6,929.1 746.2,935.4 		"/>
		<polygon style="&st1;" points="1471.1,928.6 1492.1,881.4 1539.3,902.4 1560.3,855.2 1513.1,834.2 1534.1,787 1486.9,766 
			1465.9,813.2 1418.7,792.2 1397.7,839.4 1444.9,860.4 1423.9,907.5 		"/>
		<polygon style="&st1;" points="1935.3,1106.2 1923.4,1054.6 1974.9,1042.8 1963,991.2 1911.5,1003.1 1899.6,951.6 1848.1,963.5 
			1860,1015 1808.5,1026.9 1820.4,1078.4 1871.9,1066.5 1883.8,1118 		"/>
		<polygon style="&st1;" points="578.3,1078.7 542.4,1041.5 579.6,1005.7 543.7,968.5 506.5,1004.4 470.7,967.2 433.5,1003.1 
			469.4,1040.3 432.2,1076.1 468.1,1113.3 505.3,1077.4 541.2,1114.6 		"/>
		<polygon style="&st1;" points="377.3,1134.4 397.5,1086.9 445,1107.1 465.2,1059.5 417.7,1039.3 437.9,991.8 390.3,971.6 
			370.1,1019.2 322.6,999 302.4,1046.5 350,1066.7 329.8,1114.2 		"/>
		<polygon style="&st1;" points="1293,1099.8 1327.7,1061.3 1366.2,1095.9 1400.8,1057.4 1362.3,1022.8 1397,984.3 1358.5,949.6 
			1323.8,988.1 1285.3,953.4 1250.7,991.9 1289.2,1026.6 1254.5,1065.1 		"/>
		<polygon style="&st1;" points="-40.1,1059.6 -5.7,1059.6 -5.7,1094.1 28.8,1094.1 28.8,1059.6 63.2,1059.6 63.2,1025.2 
			28.8,1025.2 28.8,990.7 -5.7,990.7 -5.7,1025.2 -40.1,1025.2 		"/>
		<polygon style="&st1;" points="1635.5,681.5 1631.2,715.8 1597,711.6 1592.7,745.9 1627,750.1 1622.8,784.4 1657.1,788.6 
			1661.3,754.3 1695.6,758.5 1699.8,724.2 1665.5,720 1669.7,685.7 		"/>
		<polygon style="&st1;" points="52.2,1042.9 69.9,1076.3 36.6,1094 54.3,1127.3 87.7,1109.6 105.4,1142.9 138.7,1125.2 121,1091.9 
			154.3,1074.2 136.6,1040.8 103.3,1058.5 85.6,1025.2 		"/>
		<polygon style="&st1;" points="1878.1,979.2 1855.9,951.8 1883.3,929.6 1861.1,902.2 1833.7,924.4 1811.5,897 1784.1,919.2 
			1806.3,946.6 1778.9,968.8 1801.1,996.1 1828.5,974 1850.7,1001.4 		"/>
		<polygon style="&st1;" points="1857.1,883.7 1826.8,860.9 1849.6,830.6 1819.4,807.8 1796.5,838.1 1766.3,815.3 1743.5,845.5 
			1773.7,868.3 1750.9,898.6 1781.2,921.4 1804,891.2 1834.3,914 		"/>
		<polygon style="&st1;" points="786.1,866.6 759.6,890.4 735.8,863.9 709.3,887.8 733.2,914.2 706.7,938.1 730.5,964.6 757,940.7 
			780.8,967.2 807.3,943.4 783.5,916.9 810,893 		"/>
		<polygon style="&st1;" points="209.5,1093.8 208.2,1056.8 245.1,1055.5 243.8,1018.6 206.9,1019.9 205.6,983 168.7,984.3 
			170,1021.2 133,1022.5 134.3,1059.4 171.3,1058.1 172.5,1095 		"/>
		<polygon style="&st1;" points="96.9,790.7 70.6,768.6 92.7,742.2 66.3,720 44.2,746.4 17.8,724.3 -4.4,750.7 22,772.8 -0.1,799.2 
			26.3,821.3 48.4,794.9 74.8,817.1 		"/>
		<polygon style="&st1;" points="331.1,923.3 347.5,888.3 382.5,904.6 398.8,869.6 363.8,853.3 380.1,818.3 345.1,802 328.8,837 
			293.8,820.6 277.5,855.6 312.5,872 296.1,907 		"/>
		<polygon style="&st1;" points="1209.7,897.3 1236.1,919.4 1214,945.8 1240.4,968 1262.5,941.6 1288.9,963.7 1311.1,937.3 
			1284.7,915.2 1306.8,888.8 1280.4,866.7 1258.3,893 1231.9,870.9 		"/>
		<polygon style="&st1;" points="1527.9,736.3 1529.8,773.3 1492.8,775.2 1494.7,812.3 1531.7,810.3 1533.7,847.4 1570.7,845.4 
			1568.8,808.4 1605.8,806.4 1603.9,769.4 1566.8,771.3 1564.9,734.3 		"/>
		<polygon style="&st1;" points="-171.2,886.1 -136.6,888.5 -139,923.2 -104.4,925.6 -101.9,891 -67.3,893.4 -64.9,858.7 
			-99.5,856.3 -97.1,821.7 -131.7,819.2 -134.2,853.9 -168.8,851.5 		"/>
		<polygon style="&st1;" points="1759.9,909.1 1725.3,904.8 1729.5,870.2 1694.9,865.9 1690.6,900.6 1656,896.3 1651.7,931 
			1686.4,935.2 1682.1,969.9 1716.8,974.1 1721,939.5 1755.7,943.7 		"/>
		<polygon style="&st1;" points="1245.6,1073.9 1211.2,1064.7 1220.4,1030.4 1186,1021.1 1176.8,1055.5 1142.4,1046.3 
			1133.2,1080.7 1167.6,1089.9 1158.4,1124.3 1192.8,1133.5 1202,1099.1 1236.4,1108.3 		"/>
		<polygon style="&st1;" points="1473.2,1122.5 1458.1,1088.5 1492.1,1073.3 1477,1039.3 1442.9,1054.5 1427.8,1020.5 
			1393.8,1035.6 1408.9,1069.6 1374.9,1084.8 1390.1,1118.8 1424.1,1103.6 1439.2,1137.6 		"/>
		<polygon style="&st1;" points="1154.7,1067.1 1137.9,1032.6 1172.4,1015.8 1155.6,981.2 1121,998.1 1104.2,963.5 1069.7,980.4 
			1086.5,1014.9 1052,1031.8 1068.8,1066.3 1103.4,1049.4 1120.2,1084 		"/>
		<polygon style="&st1;" points="1763.9,994.6 1785.1,967.5 1812.2,988.7 1833.4,961.5 1806.3,940.3 1827.5,913.2 1800.4,892 
			1779.1,919.1 1752,897.9 1730.8,925.1 1757.9,946.3 1736.7,973.4 		"/>
		<polygon style="&st1;" points="1458.5,1084.5 1493.1,1089.4 1488.2,1124 1522.8,1128.9 1527.7,1094.3 1562.2,1099.1 
			1567.1,1064.5 1532.5,1059.7 1537.4,1025.1 1502.8,1020.2 1497.9,1054.8 1463.3,1050 		"/>
		<polygon style="&st1;" points="1945.7,848.7 1983.6,861.7 1970.5,899.5 2008.4,912.6 2021.4,874.7 2059.2,887.8 2072.2,849.9 
			2034.4,836.9 2047.4,799.1 2009.6,786.1 1996.6,823.9 1958.7,810.9 		"/>
		<polygon style="&st1;" points="1658.3,990.2 1670.1,957.8 1702.5,969.6 1714.2,937.2 1681.9,925.4 1693.7,893 1661.3,881.3 
			1649.5,913.6 1617.1,901.8 1605.4,934.2 1637.7,946 1625.9,978.4 		"/>
		<polygon style="&st1;" points="936.2,931 952,900.1 983,915.9 998.7,884.9 967.8,869.1 983.5,838.2 952.6,822.4 936.8,853.4 
			905.9,837.6 890.1,868.6 921.1,884.3 905.3,915.3 		"/>
		<polygon style="&st1;" points="403.4,784.2 392.1,819 357.3,807.7 346,842.5 380.8,853.8 369.5,888.6 404.3,899.9 415.6,865.1 
			450.4,876.4 461.7,841.6 426.9,830.3 438.2,795.5 		"/>
		<polygon style="&st1;" points="1136.8,905.8 1148.1,868.8 1185.1,880.1 1196.4,843.1 1159.4,831.8 1170.7,794.8 1133.7,783.5 
			1122.4,820.5 1085.4,809.2 1074.1,846.2 1111.1,857.5 1099.8,894.5 		"/>
		<polygon style="&st1;" points="1469.4,776 1433.7,769.7 1440,734 1404.2,727.7 1397.9,763.4 1362.2,757.1 1355.9,792.8 
			1391.6,799.1 1385.3,834.9 1421.1,841.2 1427.4,805.4 1463.1,811.7 		"/>
		<polygon style="&st1;" points="115.8,854.7 111.9,817.5 149.1,813.6 145.2,776.3 107.9,780.2 104,742.9 66.7,746.8 70.7,784.1 
			33.4,788 37.3,825.3 74.6,821.4 78.5,858.7 		"/>
		<polygon style="&st1;" points="1202.3,910.6 1172.4,893.4 1189.7,863.6 1159.8,846.4 1142.6,876.2 1112.8,859 1095.6,888.8 
			1125.4,906 1108.2,935.9 1138,953.1 1155.2,923.2 1185.1,940.5 		"/>
		<polygon style="&st1;" points="255.1,804.4 262.3,838 228.6,845.2 235.7,878.9 269.4,871.7 276.6,905.4 310.3,898.3 303.1,864.6 
			336.8,857.4 329.7,823.7 296,830.9 288.8,797.2 		"/>
		<polygon style="&st1;" points="1302.3,794.8 1265.4,815.2 1245,778.4 1208.2,798.8 1228.6,835.6 1191.8,856 1212.2,892.9 
			1249,872.5 1269.4,909.3 1306.3,888.9 1285.9,852 1322.7,831.6 		"/>
		<polygon style="&st1;" points="145.9,849.9 109.8,848 111.7,811.9 75.5,810 73.6,846.1 37.5,844.2 35.6,880.4 71.8,882.3 
			69.9,918.4 106,920.3 107.9,884.2 144,886.1 		"/>
		<polygon style="&st1;" points="1860.8,735.2 1827.8,745.3 1817.8,712.4 1784.8,722.4 1794.9,755.4 1762,765.4 1772,798.4 
			1805,788.3 1815,821.3 1848,811.2 1837.9,778.2 1870.9,768.2 		"/>
		<polygon style="&st1;" points="1055.2,1099.6 1049.8,1065.6 1083.8,1060.2 1078.4,1026.2 1044.4,1031.6 1039,997.6 1005,1002.9 
			1010.4,1037 976.4,1042.4 981.8,1076.4 1015.8,1071 1021.2,1105 		"/>
		<polygon style="&st1;" points="1726.2,768.6 1743.4,737.7 1774.3,754.8 1791.4,723.9 1760.5,706.8 1777.6,675.9 1746.7,658.7 
			1729.6,689.7 1698.7,672.5 1681.5,703.4 1712.5,720.6 1695.3,751.5 		"/>
		<polygon style="&st1;" points="1568.5,784.7 1595.7,763.5 1616.9,790.7 1644,769.4 1622.8,742.3 1650,721.1 1628.7,693.9 
			1601.6,715.2 1580.4,688 1553.2,709.2 1574.5,736.4 1547.3,757.6 		"/>
		<polygon style="&st1;" points="1043.1,889.8 1024.1,859.5 1054.5,840.5 1035.5,810.1 1005.1,829.1 986.1,798.7 955.7,817.7 
			974.7,848.1 944.3,867.1 963.3,897.4 993.7,878.5 1012.7,908.8 		"/>
		<polygon style="&st1;" points="1139.6,894.3 1175.6,892.4 1177.5,928.3 1213.4,926.4 1211.5,890.5 1247.5,888.6 1245.6,852.6 
			1209.6,854.5 1207.8,818.6 1171.8,820.5 1173.7,856.4 1137.7,858.3 		"/>
		<polygon style="&st1;" points="-1.5,811.9 21.7,837.7 -4.1,860.8 19.1,886.6 44.8,863.4 68,889.1 93.8,866 70.6,840.2 96.3,817 
			73.1,791.3 47.4,814.5 24.2,788.7 		"/>
		<polygon style="&st1;" points="918.4,1042.9 884.2,1032.5 894.7,998.2 860.4,987.7 850,1022 815.7,1011.5 805.3,1045.8 
			839.5,1056.2 829,1090.5 863.3,1100.9 873.7,1066.7 908,1077.2 		"/>
		<polygon style="&st1;" points="23.8,950.6 32.7,914.6 68.7,923.6 77.7,887.6 41.7,878.6 50.7,842.6 14.7,833.6 5.7,869.6 
			-30.3,860.7 -39.2,896.6 -3.3,905.6 -12.2,941.6 		"/>
		<polygon style="&st1;" points="1096.7,1112 1129,1100.2 1140.8,1132.6 1173.2,1120.8 1161.4,1088.4 1193.8,1076.7 1182,1044.3 
			1149.6,1056.1 1137.8,1023.7 1105.5,1035.5 1117.2,1067.9 1084.9,1079.6 		"/>
		<polygon style="&st1;" points="884.8,1144.4 900.7,1113.3 931.8,1129.2 947.7,1098 916.6,1082.2 932.4,1051 901.3,1035.2 
			885.4,1066.3 854.3,1050.4 838.4,1081.6 869.6,1097.4 853.7,1128.6 		"/>
		<polygon style="&st1;" points="1039.9,1111.9 1074.9,1102.5 1084.3,1137.5 1119.4,1128.1 1110,1093.1 1145.1,1083.7 
			1135.7,1048.6 1100.6,1058 1091.2,1023 1056.1,1032.4 1065.5,1067.4 1030.5,1076.8 		"/>
		<polygon style="&st1;" points="268.6,1134.4 278.3,1100.6 312.2,1110.3 321.9,1076.4 288,1066.7 297.7,1032.9 263.9,1023.2 
			254.2,1057 220.4,1047.3 210.7,1081.2 244.5,1090.9 234.8,1124.7 		"/>
		<polygon style="&st1;" points="781.5,1112.5 763.8,1083 793.3,1065.2 775.6,1035.7 746,1053.4 728.3,1023.9 698.8,1041.6 
			716.5,1071.2 687,1088.9 704.7,1118.4 734.3,1100.7 752,1130.2 		"/>
		<polygon style="&st1;" points="799,842.9 764.6,843.5 764,809.1 729.5,809.7 730.1,844.1 695.7,844.7 696.3,879.2 730.7,878.6 
			731.3,913 765.8,912.4 765.2,878 799.6,877.4 		"/>
		<polygon style="&st1;" points="1917.7,859.2 1907.6,892.3 1874.5,882.2 1864.3,915.3 1897.4,925.4 1887.3,958.6 1920.4,968.7 
			1930.6,935.6 1963.7,945.7 1973.8,912.6 1940.7,902.5 1950.8,869.3 		"/>
	</g>
	<g>
		<polygon style="&st1;" points="1088.3,798.7 1145.7,821.9 1122.5,879.3 1180,902.5 1203.2,845.1 1260.6,868.3 1283.8,810.9 
			1226.4,787.7 1249.6,730.2 1192.1,707 1168.9,764.5 1111.5,741.2 		"/>
		<polygon style="&st1;" points="1883,785.5 1827.4,783.6 1829.3,727.9 1773.7,726 1771.8,781.6 1716.2,779.7 1714.2,835.3 
			1769.8,837.2 1767.9,892.8 1823.5,894.8 1825.4,839.2 1881.1,841.1 		"/>
		<polygon style="&st1;" points="1560.7,889.9 1525.3,850.6 1564.6,815.2 1529.2,775.9 1489.9,811.3 1454.5,772 1415.1,807.4 
			1450.5,846.7 1411.2,882.1 1446.6,921.4 1485.9,886 1521.4,925.4 		"/>
		<polygon style="&st1;" points="1545.8,717.5 1581.7,680.3 1618.9,716.2 1654.8,679 1617.6,643.2 1653.5,606 1616.3,570.1 
			1580.5,607.3 1543.3,571.4 1507.4,608.6 1544.6,644.4 1508.7,681.6 		"/>
		<polygon style="&st1;" points="577.4,892.7 578.3,840.4 630.6,841.3 631.5,789 579.2,788.1 580.1,735.8 527.8,734.9 526.9,787.2 
			474.6,786.3 473.7,838.6 526,839.5 525.1,891.8 		"/>
		<polygon style="&st1;" points="432.8,641 382.9,656.3 367.6,606.4 317.7,621.6 333,671.6 283,686.8 298.3,736.7 348.2,721.5 
			363.5,771.4 413.4,756.1 398.1,706.2 448,690.9 		"/>
		<polygon style="&st1;" points="-61.6,770.6 -42.1,821.4 -93,840.9 -73.4,891.8 -22.6,872.3 -3.1,923.1 47.8,903.6 28.2,852.8 
			79.1,833.2 59.6,782.4 8.7,801.9 -10.8,751.1 		"/>
		<polygon style="&st1;" points="979.7,712.9 926.8,747.3 892.4,694.4 839.5,728.7 873.9,781.6 821,816 855.3,868.9 908.2,834.5 
			942.6,887.4 995.5,853.1 961.1,800.2 1014,765.8 		"/>
		<polygon style="&st1;" points="2035.5,607.4 1985.8,621.6 1971.6,572 1921.9,586.2 1936.2,635.9 1886.5,650.1 1900.8,699.8 
			1950.4,685.5 1964.6,735.2 2014.3,720.9 2000.1,671.3 2049.7,657.1 		"/>
		<polygon style="&st1;" points="52.9,602.8 1.2,587 17,535.4 -34.6,519.6 -50.4,571.3 -102,555.5 -117.8,607.1 -66.2,622.9 
			-82,674.5 -30.3,690.3 -14.5,638.7 37.1,654.5 		"/>
		<polygon style="&st1;" points="201,783.2 196.5,834.6 145.1,830.1 140.6,881.6 192,886.1 187.5,937.5 239,942 243.5,890.6 
			294.9,895.1 299.4,843.6 248,839.1 252.5,787.7 		"/>
		<polygon style="&st1;" points="1814,504.4 1774.3,518.1 1760.6,478.4 1720.9,492.1 1734.6,531.8 1694.9,545.5 1708.6,585.2 
			1748.3,571.5 1762,611.2 1801.7,597.5 1788,557.8 1827.7,544.1 		"/>
		<polygon style="&st1;" points="199.2,559.3 171.1,579.7 150.7,551.6 122.5,572 143,600.2 114.9,620.6 135.3,648.7 163.4,628.3 
			183.8,656.4 212,636 191.5,607.8 219.7,587.4 		"/>
		<polygon style="&st1;" points="1322.1,695.3 1328.1,661.4 1362,667.4 1368,633.4 1334.1,627.5 1340.1,593.5 1306.1,587.6 
			1300.2,621.5 1266.2,615.5 1260.3,649.4 1294.2,655.4 1288.2,689.3 		"/>
		<polygon style="&st1;" points="2066.4,846.3 2028,844.3 2030,805.8 1991.5,803.8 1989.5,842.3 1951,840.3 1949,878.7 
			1987.5,880.7 1985.5,919.2 2023.9,921.2 2025.9,882.8 2064.4,884.8 		"/>
		<polygon style="&st1;" points="698.4,844.7 703.4,879.8 668.2,884.8 673.2,919.9 708.3,915 713.3,950.1 748.4,945.2 743.5,910 
			778.6,905.1 773.7,869.9 738.5,874.9 733.6,839.7 		"/>
		<polygon style="&st1;" points="646,719.9 676.7,704.3 692.3,735 723,719.3 707.4,688.7 738.1,673 722.4,642.3 691.7,658 
			676.1,627.3 645.4,642.9 661,673.6 630.3,689.2 		"/>
	</g>
	<rect y="888" style="&st1;" width="1921" height="192"/>
</g>
<g id="Layer_1">
	<polygon style="&st1;" points="9.1,1355.8 -30.9,1355.8 -30.9,1315.8 -70.9,1315.8 -70.9,1355.8 -110.9,1355.8 -110.9,1395.8 
		-70.9,1395.8 -70.9,1435.8 -30.9,1435.8 -30.9,1395.8 9.1,1395.8 	"/>
</g>
</svg>
