<?xml version="1.0" encoding="UTF-8"?><svg id="uuid-748afc55-7510-4e5b-be04-6ebe75570d19" xmlns="http://www.w3.org/2000/svg" viewBox="0 0 630 630"><path d="M341.99,605.23c-48.32,0-91.75-10.71-129.09-31.83-42.08-23.8-78.24-61.8-107.46-112.93-32.36-56.62-57.3-131.19-74.14-221.63C13.01,140.54,3.73,20.51,3.73-117.91c0-45.94,60.34-99.3,161.42-142.74,49.16-21.13,105.71-38.75,163.54-50.95,62.03-13.08,123.19-19.72,181.79-19.72,80.06,0,150.09,12.37,208.17,36.77,65.18,27.39,113.11,69.33,142.46,124.68,59.22,111.66,95.83,204.94,111.93,285.16,15.02,74.85,11.82,137-9.77,189.99-26.3,64.54-79.96,115.74-168.87,161.14-81.05,41.39-185.11,74.62-295.27,109.81l-7.09,2.27c-56.31,17.99-105.39,26.73-150.04,26.73h0Z" opacity=".97"/><path d="M510.48-326.32c38.15,0,74.59,2.92,108.3,8.67,35.7,6.09,68.64,15.41,97.93,27.72,64.09,26.93,111.19,68.11,139.98,122.41,29.61,55.83,54.01,108.19,72.54,155.64,18.01,46.13,31.1,89.25,38.91,128.16,14.82,73.86,11.71,135.07-9.5,187.12-25.82,63.36-78.73,113.75-166.51,158.58-80.69,41.21-184.55,74.38-294.52,109.5l-7.1,2.27c-55.81,17.83-104.39,26.49-148.52,26.49-23.04,0-45.07-2.46-65.46-7.3-21.69-5.16-42.27-13.19-61.16-23.87-20.06-11.35-38.88-26.06-55.95-43.72-18.11-18.74-34.81-41.4-49.63-67.33-32.08-56.13-56.83-130.17-73.56-220.07C17.98,139.92,8.73,20.2,8.73-117.91c0-21.34,14.61-45.37,42.25-69.49,27.69-24.16,67.85-47.9,116.14-68.66,48.86-21,105.09-38.51,162.6-50.65,61.69-13.01,122.5-19.61,180.75-19.61M510.48-336.32C266.67-336.32-1.27-219.6-1.27-117.91c0,578.13,158.58,728.14,343.26,728.14,49.5,0,100.87-10.77,151.56-26.97,390.98-124.89,662.49-207.71,371.97-755.48-63.49-119.7-204.68-164.11-355.05-164.11h0Z"/><path d="M24.03-160.88c17.56-171.54,480.98-242,673.51,73.97,395.27,648.69-148.89,679.74-447.17,672.73C17.73,580.36-.64,80.07,24.03-160.88Z" opacity=".15"/><path d="M31.14-227.45c36.81-172.77,572.67-204.06,761.56,133.75,387.8,693.52-236.37,677.75-576.16,644.68C-48.48,525.2-20.57,15.25,31.14-227.45Z" opacity=".05"/></svg>