<?xml version="1.0" encoding="UTF-8"?><svg id="b" xmlns="http://www.w3.org/2000/svg" viewBox="0 0 1280 1080"><path d="M505.21,1075.23c-71.6,0-135.97-15.88-191.34-47.19-62.38-35.28-115.94-91.55-159.2-167.26-47.8-83.64-84.64-193.75-109.49-327.26C18.18,388.55,4.5,211.57,4.5,7.5c0-68.65,89.44-148.08,239.24-212.47,72.56-31.19,156.03-57.19,241.38-75.2,91.54-19.31,181.81-29.1,268.3-29.1,118.26,0,221.75,18.29,307.6,54.36,96.54,40.57,167.56,102.72,211.06,184.75,87.35,164.71,141.37,302.34,165.13,420.75,22.22,110.75,17.47,202.75-14.53,281.26-38.97,95.63-118.38,171.45-249.9,238.62-119.58,61.07-272.97,110.06-435.36,161.92l-10.45,3.34c-83.19,26.58-155.73,39.49-221.76,39.49h0Z" style="opacity:.97;"/><path d="M753.43-304.27c56.47,0,110.42,4.32,160.35,12.83,52.95,9.03,101.84,22.87,145.31,41.14,95.45,40.11,165.63,101.5,208.58,182.48,43.71,82.41,79.74,159.72,107.09,229.79,26.63,68.21,45.99,132,57.55,189.6,11.16,55.61,15.45,107.5,12.76,154.24-2.58,44.73-11.67,86.5-27.01,124.16-38.5,94.46-117.16,169.46-247.55,236.05-119.22,60.88-272.41,109.81-434.6,161.61l-10.45,3.34c-82.69,26.42-154.74,39.26-220.25,39.26-34.32,0-67.13-3.66-97.54-10.89-32.39-7.7-63.12-19.69-91.34-35.66-29.95-16.94-58.04-38.89-83.51-65.25-26.95-27.9-51.79-61.59-73.82-100.14-23.21-40.61-43.99-87.82-61.77-140.3-18.62-54.99-34.49-117.36-47.15-185.4-13.21-70.95-23.32-150.1-30.05-235.26C13.05,208.86,9.5,111.34,9.5,7.5c0-16.46,5.46-33.84,16.22-51.67,10.76-17.81,26.78-36.07,47.64-54.27,41.15-35.91,100.75-71.16,172.35-101.93,72.26-31.06,155.41-56.96,240.44-74.9,91.2-19.24,181.12-28.99,267.27-28.99M753.43-314.27C394.23-314.27-.5-142.32-.5,7.5c0,851.73,233.63,1072.73,505.71,1072.73,72.92,0,148.6-15.87,223.29-39.73,576-184,976-306,548-1113-93.53-176.35-301.55-241.77-523.07-241.77h0Z"/><path d="M36.77-55.8c25.88-252.71,708.6-356.52,992.25,108.98,582.32,955.67-219.36,1001.41-658.79,991.1C27.5,1036.22.42,299.18,36.77-55.8Z" style="opacity:.15;"/><path d="M47.24-153.87c54.23-254.54,843.68-300.64,1121.96,197.04,571.32,1021.73-348.23,998.48-848.82,949.77C-70.04,954.96-28.93,203.68,47.24-153.87Z" style="opacity:.05;"/></svg>