<?xml version="1.0" encoding="utf-8"?>
<!-- Generator: Adobe Illustrator 28.0.0, SVG Export Plug-In . SVG Version: 6.00 Build 0)  -->
<!DOCTYPE svg PUBLIC "-//W3C//DTD SVG 1.1//EN" "http://www.w3.org/Graphics/SVG/1.1/DTD/svg11.dtd" [
	<!ENTITY st0 "display:none;">
	<!ENTITY st1 "display:inline;fill:#00FF00;">
	<!ENTITY st2 "opacity:0.39;fill:#FFFFFF;">
	<!ENTITY st3 "opacity:0.49;fill:#FFFFFF;">
	<!ENTITY st4 "opacity:0.55;fill:#FFFFFF;">
	<!ENTITY st5 "opacity:0.87;fill:#FFFFFF;">
	<!ENTITY st6 "opacity:0.27;fill:#FFFFFF;">
	<!ENTITY st7 "opacity:0.94;fill:#FFFFFF;">
	<!ENTITY st8 "fill:#00FF00;">
	<!ENTITY st9 "opacity:0.52;fill:#FFFFFF;">
	<!ENTITY st10 "opacity:0.71;fill:#FFFFFF;">
	<!ENTITY st11 "opacity:0.61;fill:#FFFFFF;">
	<!ENTITY st12 "opacity:0.32;fill:#FFFFFF;">
	<!ENTITY st13 "opacity:0.34;fill:#FFFFFF;">
	<!ENTITY st14 "opacity:0.35;fill:#FFFFFF;">
	<!ENTITY st15 "opacity:0.8;fill:#FFFFFF;">
	<!ENTITY st16 "fill:#FFFFFF;">
]>
<svg version="1.1" xmlns="http://www.w3.org/2000/svg" xmlns:xlink="http://www.w3.org/1999/xlink" x="0px" y="0px"
	 viewBox="0 0 640 320" style="enable-background:new 0 0 640 320;" xml:space="preserve">
<g id="grid" style="&st0;">
	<rect style="&st1;" width="64" height="64"/>
	<rect x="64" style="&st1;" width="64" height="64"/>
	<rect x="128" style="&st1;" width="64" height="64"/>
	<rect x="192" style="&st1;" width="64" height="64"/>
	<rect x="256" style="&st1;" width="64" height="64"/>
	<rect x="320" style="&st1;" width="64" height="64"/>
	<rect x="384" style="&st1;" width="64" height="64"/>
	<rect x="448" style="&st1;" width="64" height="64"/>
	<rect x="512" style="&st1;" width="64" height="64"/>
	<rect x="576" style="&st1;" width="64" height="64"/>
	<rect y="64" style="&st1;" width="64" height="64"/>
	<rect x="64" y="64" style="&st1;" width="64" height="64"/>
	<rect x="128" y="64" style="&st1;" width="64" height="64"/>
	<rect x="192" y="64" style="&st1;" width="64" height="64"/>
	<rect x="256" y="64" style="&st1;" width="64" height="64"/>
	<rect x="320" y="64" style="&st1;" width="64" height="64"/>
	<rect x="384" y="64" style="&st1;" width="64" height="64"/>
	<rect x="448" y="64" style="&st1;" width="64" height="64"/>
	<rect x="512" y="64" style="&st1;" width="64" height="64"/>
	<rect x="576" y="64" style="&st1;" width="64" height="64"/>
	<rect y="128" style="&st1;" width="64" height="64"/>
	<rect x="64" y="128" style="&st1;" width="64" height="64"/>
	<rect x="128" y="128" style="&st1;" width="64" height="64"/>
	<rect x="192" y="128" style="&st1;" width="64" height="64"/>
	<rect x="256" y="128" style="&st1;" width="64" height="64"/>
	<rect x="320" y="128" style="&st1;" width="64" height="64"/>
	<rect x="384" y="128" style="&st1;" width="64" height="64"/>
	<rect x="448" y="128" style="&st1;" width="64" height="64"/>
	<rect x="512" y="128" style="&st1;" width="64" height="64"/>
	<rect x="576" y="128" style="&st1;" width="64" height="64"/>
	<rect y="192" style="&st1;" width="64" height="64"/>
	<rect x="64" y="192" style="&st1;" width="64" height="64"/>
	<rect x="128" y="192" style="&st1;" width="64" height="64"/>
	<rect x="192" y="192" style="&st1;" width="64" height="64"/>
	<rect x="256" y="192" style="&st1;" width="64" height="64"/>
	<rect x="320" y="192" style="&st1;" width="64" height="64"/>
	<rect x="384" y="192" style="&st1;" width="64" height="64"/>
	<rect x="448" y="192" style="&st1;" width="64" height="64"/>
	<rect x="512" y="192" style="&st1;" width="64" height="64"/>
	<rect x="576" y="192" style="&st1;" width="64" height="64"/>
	<rect y="256" style="&st1;" width="64" height="64"/>
	<rect x="64" y="256" style="&st1;" width="64" height="64"/>
	<rect x="128" y="256" style="&st1;" width="64" height="64"/>
	<rect x="192" y="256" style="&st1;" width="64" height="64"/>
	<rect x="256" y="256" style="&st1;" width="64" height="64"/>
	<rect x="320" y="256" style="&st1;" width="64" height="64"/>
	<rect x="384" y="256" style="&st1;" width="64" height="64"/>
	<rect x="448" y="256" style="&st1;" width="64" height="64"/>
	<rect x="512" y="256" style="&st1;" width="64" height="64"/>
	<rect x="576" y="256" style="&st1;" width="64" height="64"/>
</g>
<g id="grid_copy">
	<path style="&st2;" d="M96,60c-7.5,0-14.5-2.9-19.8-8.2C70.9,46.5,68,39.5,68,32s2.9-14.5,8.2-19.8C81.5,6.9,88.5,4,96,4
		c15.4,0,28,12.6,28,28c0,7.5-2.9,14.5-8.2,19.8C110.5,57.1,103.5,60,96,60z"/>
	<circle style="&st3;" cx="160" cy="32" r="28"/>
	<path style="&st4;" d="M352,56c-6.4,0-12.4-2.5-17-7c-4.5-4.5-7-10.6-7-17s2.5-12.4,7-17c4.5-4.5,10.6-7,17-7c13.2,0,24,10.8,24,24
		c0,6.4-2.5,12.4-7,17C364.4,53.5,358.4,56,352,56z"/>
	<path style="&st5;" d="M480,124c-7.5,0-14.5-2.9-19.8-8.2c-5.3-5.3-8.2-12.3-8.2-19.8s2.9-14.5,8.2-19.8c5.3-5.3,12.3-8.2,19.8-8.2
		s14.5,2.9,19.8,8.2c5.3,5.3,8.2,12.3,8.2,19.8C508,111.4,495.4,124,480,124z"/>
	<path style="&st6;" d="M416,124c-15.4,0-28-12.6-28-28c0-5.7,1.7-11.2,4.9-15.8c0.2-0.3,0.4-0.6,0.6-0.9c0.3-0.4,0.6-0.7,0.8-1.1
		l0.1-0.1c0.3-0.3,0.6-0.7,0.9-1c0.3-0.3,0.6-0.6,0.9-0.9c0.3-0.3,0.7-0.6,1-0.9c0.3-0.3,0.6-0.5,1-0.8l0.1-0.1
		c0.3-0.3,0.7-0.5,1-0.8c0.3-0.3,0.6-0.5,0.9-0.7c4.7-3.2,10.1-4.9,15.8-4.9c19.9,0,36-16.1,36-36c0-7.5,2.9-14.5,8.2-19.8
		C465.5,6.9,472.5,4,480,4s14.5,2.9,19.8,8.2c5.3,5.3,8.2,12.3,8.2,19.8c0,15.4-12.6,28-28,28c-9.6,0-18.7,3.7-25.5,10.5
		C447.7,77.3,444,86.4,444,96C444,111.4,431.4,124,416,124z"/>
	<path style="&st2;" d="M96,124c-7.5,0-14.5-2.9-19.8-8.2C70.9,110.5,68,103.5,68,96c0-9.6-3.7-18.7-10.5-25.5
		c-5.8-5.8-13.5-9.5-21.7-10.3C34.5,60.1,33.2,60,32,60c-0.3,0-0.6,0-0.9,0c0,0-0.4,0-0.5,0c-0.5,0-1-0.1-1.5-0.1l-0.2,0l-0.2,0
		l-0.2,0c-0.3,0-0.5-0.1-0.8-0.1l-0.3,0c-0.3,0-0.6-0.1-0.8-0.2c-0.4-0.1-0.7-0.1-1-0.2c-0.3-0.1-0.7-0.2-1.1-0.3l-0.9-0.2
		c-0.1,0-0.2-0.1-0.3-0.1c-0.3-0.1-0.6-0.2-0.9-0.3l-1-0.4c-0.2-0.1-0.5-0.2-0.7-0.3l-0.1-0.1c-0.6-0.3-1.2-0.6-1.9-0.9l-0.1-0.1
		c-0.1-0.1-0.3-0.1-0.4-0.2l-0.2-0.1L18,56.3c-0.3-0.2-0.6-0.4-0.9-0.6c-0.2-0.1-0.4-0.3-0.6-0.4l0,0L16.1,55
		c-0.3-0.2-0.6-0.4-0.8-0.6c-0.4-0.3-0.7-0.5-1-0.8l-0.1-0.1c-0.3-0.3-0.7-0.6-1-0.9c-0.3-0.3-0.6-0.6-0.9-0.9
		c-0.3-0.3-0.6-0.6-0.9-1c-0.3-0.4-0.7-0.8-1-1.2l-0.1-0.1c-0.2-0.2-0.3-0.4-0.5-0.6l-0.2-0.3c-0.2-0.3-0.5-0.6-0.7-1l-0.1-0.1
		c-0.2-0.3-0.4-0.6-0.6-0.9L7.8,46l-0.3-0.5c-0.1-0.2-0.3-0.5-0.4-0.7c0-0.1-0.3-0.5-0.3-0.5c-0.1-0.2-0.2-0.4-0.3-0.7l-0.2-0.4
		L6,42.4c0-0.1-0.1-0.2-0.1-0.3L5.8,42c-0.1-0.3-0.2-0.6-0.3-0.9l0-0.1c0-0.1-0.1-0.2-0.1-0.3c0-0.1-0.2-0.6-0.2-0.6
		c0-0.1-0.1-0.2-0.1-0.3L5,39.4c-0.1-0.4-0.2-0.8-0.3-1.2l0-0.1c0-0.1-0.1-0.3-0.1-0.4l0-0.2l0-0.1c0-0.1-0.1-0.3-0.1-0.4l0-0.1
		c-0.1-0.3-0.1-0.7-0.2-1v0l0-0.3c-0.1-0.4-0.1-0.8-0.1-1.1l0-0.2C4,33.7,4,33.2,4,32.8c0-0.3,0-0.5,0-0.8c0-7.5,2.9-14.5,8.2-19.8
		C17.5,6.9,24.5,4,32,4s14.5,2.9,19.8,8.2C57.1,17.5,60,24.5,60,32c0,9.6,3.7,18.7,10.5,25.5C77.3,64.3,86.4,68,96,68
		c7.5,0,14.5,2.9,19.8,8.2c5.3,5.3,8.2,12.3,8.2,19.8C124,111.4,111.4,124,96,124z"/>
	<path style="&st7;" d="M608,124c-7.5,0-14.5-2.9-19.8-8.2c-5.3-5.3-8.2-12.3-8.2-19.8c0-9.6-3.7-18.7-10.5-25.5
		C562.7,63.7,553.6,60,544,60c-7.5,0-14.5-2.9-19.8-8.2c-5.3-5.3-8.2-12.3-8.2-19.8s2.9-14.5,8.2-19.8C529.5,6.9,536.5,4,544,4
		c15.4,0,28,12.6,28,28c0,9.6,3.7,18.7,10.5,25.5C589.3,64.3,598.4,68,608,68c5.7,0,11.2,1.7,15.8,4.9c0.3,0.2,0.6,0.4,0.9,0.6
		c0.4,0.3,0.7,0.6,1.1,0.8l0.1,0.1c0.3,0.3,0.7,0.6,1,0.9c0.3,0.3,0.6,0.6,1,0.9c0.3,0.3,0.6,0.7,0.9,1c0.2,0.3,0.5,0.6,0.8,0.9
		l0.1,0.1c0.3,0.3,0.5,0.7,0.8,1c0.3,0.4,0.5,0.6,0.7,0.9c3.2,4.7,4.9,10.2,4.9,15.9c0,7.5-2.9,14.5-8.2,19.8
		C622.5,121.1,615.5,124,608,124z"/>
	<path style="&st9;" d="M288,252c-7.5,0-14.5-2.9-19.8-8.2c-5.3-5.3-8.2-12.3-8.2-19.8c0-9.6-3.7-18.7-10.5-25.5
		c-6.8-6.8-15.8-10.5-25.5-10.5c-7.5,0-14.5-2.9-19.8-8.2c-5.3-5.3-8.2-12.3-8.2-19.8s2.9-14.5,8.2-19.8c5.3-5.3,12.3-8.2,19.8-8.2
		s14.5,2.9,19.8,8.2c5.3,5.3,8.2,12.3,8.2,19.8c0,9.6,3.7,18.7,10.5,25.5c6.8,6.8,15.8,10.5,25.5,10.5c7.5,0,14.5,2.9,19.8,8.2
		c5.3,5.3,8.2,12.3,8.2,19.8C316,239.4,303.4,252,288,252z"/>
	<path style="&st6;" d="M416,188c-7.5,0-14.5-2.9-19.8-8.2c-5.3-5.3-8.2-12.3-8.2-19.8c0-19.9-16.1-36-36-36
		c-7.5,0-14.5-2.9-19.8-8.2c-5.3-5.3-8.2-12.3-8.2-19.8s2.9-14.5,8.2-19.8c5.3-5.3,12.3-8.2,19.8-8.2c9.6,0,18.7-3.7,25.5-10.5
		C384.3,50.7,388,41.6,388,32c0-7.5,2.9-14.5,8.2-19.8C401.5,6.9,408.5,4,416,4s14.5,2.9,19.8,8.2c5.3,5.3,8.2,12.3,8.2,19.8
		c0,15.4-12.6,28-28,28c-7.3,0-14.4,2.2-20.4,6.3c-0.4,0.3-0.8,0.6-1.2,0.9c-0.4,0.3-0.9,0.7-1.3,1c-0.4,0.4-0.9,0.7-1.3,1.1
		c-0.5,0.4-0.9,0.8-1.3,1.2c-0.4,0.4-0.8,0.8-1.2,1.2c-0.4,0.5-0.8,0.9-1.1,1.3c-0.4,0.4-0.7,0.9-1.1,1.4c-0.2,0.3-0.5,0.7-0.8,1.1
		c-4.1,6-6.3,13-6.3,20.4c0,19.9,16.1,36,36,36c7.5,0,14.5,2.9,19.8,8.2c5.3,5.3,8.2,12.3,8.2,19.8C444,175.4,431.4,188,416,188z"/>
	<path style="&st10;" d="M608,188c-7.5,0-14.5-2.9-19.8-8.2c-5.3-5.3-8.2-12.3-8.2-19.8c0-9.6-3.7-18.7-10.5-25.5
		c-6.8-6.8-15.8-10.5-25.5-10.5s-18.7,3.7-25.5,10.5c-6.8,6.8-10.5,15.8-10.5,25.5c0,15.4-12.6,28-28,28c-7.5,0-14.5-2.9-19.8-8.2
		c-5.3-5.3-8.2-12.3-8.2-19.8s2.9-14.5,8.2-19.8c5.3-5.3,12.3-8.2,19.8-8.2c19.9,0,36-16.1,36-36c0-7.5,2.9-14.5,8.2-19.8
		c5.3-5.3,12.3-8.2,19.8-8.2s14.5,2.9,19.8,8.2c5.3,5.3,8.2,12.3,8.2,19.8c0,9.6,3.7,18.7,10.5,25.5c6.8,6.8,15.8,10.5,25.5,10.5
		c7.5,0,14.5,2.9,19.8,8.2c5.3,5.3,8.2,12.3,8.2,19.8C636,175.4,623.4,188,608,188z"/>
	<path style="&st3;" d="M160,252c-7.5,0-14.5-2.9-19.8-8.2c-5.3-5.3-8.2-12.3-8.2-19.8c0-9.6-3.7-18.7-10.5-25.5
		c-6.8-6.8-15.8-10.5-25.5-10.5c-19.9,0-36,16.1-36,36c0,15.4-12.6,28-28,28c-7.5,0-14.5-2.9-19.8-8.2C6.9,238.5,4,231.5,4,224
		s2.9-14.5,8.2-19.8c5.3-5.3,12.3-8.2,19.8-8.2c19.6,0,35.8-16,36-35.6v-0.7c0.1-7.3,3-14.2,8.2-19.5c5.3-5.3,12.3-8.2,19.8-8.2
		s14.5,2.9,19.8,8.2c5.3,5.3,8.2,12.3,8.2,19.8c0,9.6,3.7,18.7,10.5,25.5c6.8,6.8,15.8,10.5,25.5,10.5c7.5,0,14.5,2.9,19.8,8.2
		c5.3,5.3,8.2,12.3,8.2,19.8C188,239.4,175.4,252,160,252z"/>
	<path style="&st11;" d="M480,252c-7.5,0-14.5-2.9-19.8-8.2c-5.3-5.3-8.2-12.3-8.2-19.8s2.9-14.5,8.2-19.8
		c5.3-5.3,12.3-8.2,19.8-8.2c19.9,0,36-16.1,36-36c0-7.5,2.9-14.5,8.2-19.8c5.3-5.3,12.3-8.2,19.8-8.2s14.5,2.9,19.8,8.2
		c5.3,5.3,8.2,12.3,8.2,19.8c0,15.4-12.6,28-28,28c-9.6,0-18.7,3.7-25.5,10.5S508,214.4,508,224C508,239.4,495.4,252,480,252z"/>
	<path style="&st11;" d="M160,316c-7.5,0-14.5-2.9-19.8-8.2c-5.3-5.3-8.2-12.3-8.2-19.8s2.9-14.5,8.2-19.8
		c5.3-5.3,12.3-8.2,19.8-8.2c19.9,0,36-16.1,36-36c0-9.6-3.7-18.7-10.5-25.5c-6.8-6.8-15.8-10.5-25.5-10.5c-7.5,0-14.5-2.9-19.8-8.2
		c-5.3-5.3-8.2-12.3-8.2-19.8s2.9-14.5,8.2-19.8c5.3-5.3,12.3-8.2,19.8-8.2c15.4,0,28,12.6,28,28c0,9.6,3.7,18.7,10.5,25.5
		c6.8,6.8,15.8,10.5,25.5,10.5c7.5,0,14.5,2.9,19.8,8.2c5.3,5.3,8.2,12.3,8.2,19.8c0,15.4-12.6,28-28,28c-9.6,0-18.7,3.7-25.5,10.5
		c-6.8,6.8-10.5,15.8-10.5,25.5C188,303.4,175.4,316,160,316z"/>
	<path style="&st12;" d="M672,188c-7.5,0-14.5-2.9-19.8-8.2c-5.3-5.3-8.2-12.3-8.2-19.8V96c0-7.3-2.2-14.4-6.3-20.4
		c-0.3-0.4-0.6-0.8-0.9-1.2c-0.3-0.4-0.7-0.9-1-1.3c-0.4-0.4-0.7-0.9-1.1-1.3c-0.4-0.5-0.8-0.9-1.2-1.3c-0.4-0.4-0.8-0.8-1.2-1.2
		c-0.5-0.4-0.9-0.8-1.3-1.1c-0.4-0.4-0.9-0.7-1.4-1.1c-0.3-0.3-0.7-0.5-1.1-0.8c-6-4.1-13.1-6.3-20.4-6.3c-7.5,0-14.5-2.9-19.8-8.2
		c-5.3-5.3-8.2-12.3-8.2-19.8s2.9-14.5,8.2-19.8C593.5,6.9,600.5,4,608,4s14.5,2.9,19.8,8.2c5.3,5.3,8.2,12.3,8.2,19.8
		c0,9.6,3.7,18.7,10.5,25.5C653.3,64.3,662.4,68,672,68c7.5,0,14.5,2.9,19.8,8.2c5.3,5.3,8.2,12.3,8.2,19.8v64
		C700,175.4,687.4,188,672,188z"/>
	<path style="&st13;" d="M32,188c-7.5,0-14.5-2.9-19.8-8.2C6.9,174.5,4,167.5,4,160V96c0-9.6-3.7-18.7-10.5-25.5
		C-13.3,63.7-22.4,60-32,60c-7.5,0-14.5-2.9-19.8-8.2C-57.1,46.5-60,39.5-60,32s2.9-14.5,8.2-19.8C-46.5,6.9-39.5,4-32,4
		s14.5,2.9,19.8,8.2C-6.9,17.5-4,24.5-4,32c0,0.3,0,0.6,0,1c0,0.5,0,1,0.1,1.6l0,0.2c0,0.5,0.1,1.1,0.2,1.6c0,0.1,0,0.2,0,0.3
		c0.1,0.5,0.1,1,0.2,1.5c0,0.3,0.1,0.6,0.2,0.9c0,0.3,0.1,0.5,0.2,0.8c0.1,0.6,0.3,1.1,0.4,1.7l0.1,0.2c0.1,0.2,0.1,0.4,0.2,0.6
		c0,0.1,0,0.1,0.1,0.2v0.1l0.5,1.4l0,0c0.1,0.2,0.2,0.5,0.3,0.7c0.1,0.2,0.2,0.4,0.3,0.7l0.1,0.1c0,0.1,0.1,0.3,0.2,0.5l0.3,0.7
		c0.2,0.4,0.3,0.8,0.5,1.1c0,0.1,0.2,0.5,0.2,0.5c0.2,0.4,0.4,0.7,0.6,1.1c0,0,0.2,0.3,0.3,0.5C0.8,50,0.9,50.2,1,50.3l0.1,0.1
		c0.1,0.1,0.2,0.3,0.3,0.5c0.2,0.4,0.5,0.8,0.8,1.2c0.1,0.1,0.1,0.2,0.2,0.3c0.3,0.4,0.6,0.8,0.8,1.1c0,0.1,0.1,0.1,0.2,0.2
		c0.2,0.3,0.5,0.6,0.7,0.9c0.5,0.6,0.9,1.1,1.4,1.6c0.4,0.4,0.8,0.8,1.2,1.2c0.4,0.4,0.8,0.8,1.2,1.2c0.5,0.4,0.9,0.8,1.3,1.1
		c0.4,0.4,0.9,0.7,1.4,1.1c0.2,0.2,0.5,0.4,0.7,0.5l0,0l0.3,0.2c0.4,0.3,0.8,0.6,1.3,0.8c0.4,0.2,0.7,0.5,1.1,0.7l0.1,0.1
		c0,0,0.1,0.1,0.2,0.1c0.3,0.1,0.5,0.3,0.8,0.4c0.9,0.5,1.7,0.9,2.5,1.2c0.3,0.1,0.6,0.3,1,0.4c0.1,0.1,0.3,0.1,0.4,0.2
		c0.3,0.1,0.6,0.2,1,0.4c0.4,0.1,0.7,0.3,1.1,0.4l0.1,0l1.4,0.4c0.5,0.1,1,0.3,1.4,0.4l0.1,0c0.4,0.1,0.8,0.2,1.1,0.2
		c0.4,0.1,0.8,0.2,1.2,0.2l0.1,0c0.4,0.1,0.8,0.1,1.2,0.2c0.2,0,0.4,0.1,0.6,0.1c0.6,0.1,1.2,0.1,2,0.2c0,0,0.5,0,0.6,0
		c0.4,0,0.7,0,1.1,0c1,0,2,0.1,3,0.1c6.3,0.7,12.3,3.5,16.8,8C57.1,81.5,60,88.5,60,96v64.4C59.8,175.6,47.3,188,32,188z"/>
	<path style="&st14;" d="M352,316c-7.5,0-14.5-2.9-19.8-8.2c-5.3-5.3-8.2-12.3-8.2-19.8v-64c0-9.6-3.7-18.7-10.5-25.5
		c-6.8-6.8-15.8-10.5-25.5-10.5c-7.5,0-14.5-2.9-19.8-8.2c-5.3-5.3-8.2-12.3-8.2-19.8s2.9-14.5,8.2-19.8c5.3-5.3,12.3-8.2,19.8-8.2
		s14.5,2.9,19.8,8.2c5.3,5.3,8.2,12.3,8.2,19.8c0,0.5,0,1,0,1.5c0,0.5,0,1,0.1,1.5l0.1,0.6c0,0.4,0.1,0.7,0.1,1
		c0.1,0.9,0.3,1.9,0.5,2.9c0.1,0.4,0.2,0.7,0.2,1c0.1,0.5,0.2,0.9,0.3,1.4l0.2,0.7c0.1,0.2,0.1,0.4,0.2,0.6l0.1,0.2
		c0.2,0.5,0.3,0.9,0.5,1.4c0.1,0.3,0.2,0.5,0.3,0.8c0.1,0.2,0.3,0.6,0.3,0.6c0.1,0.2,0.2,0.4,0.3,0.6c0.2,0.4,0.3,0.7,0.5,1.1
		c0.4,0.8,0.8,1.6,1.3,2.5c0.1,0.1,0.2,0.3,0.3,0.5c0.2,0.3,0.3,0.5,0.5,0.8l0.1,0.2c0.2,0.3,0.4,0.6,0.6,0.8
		c0.2,0.3,0.5,0.7,0.8,1.1c0.2,0.3,0.5,0.6,0.7,0.9c0.8,1,1.7,2,2.5,2.8c0.4,0.4,0.8,0.8,1.2,1.2c0.5,0.4,0.9,0.8,1.4,1.2
		c0.4,0.3,0.9,0.7,1.3,1.1c0.3,0.3,0.8,0.6,1.2,0.9l0.3,0.2c0.3,0.2,0.6,0.4,0.9,0.6c0.3,0.2,0.6,0.4,1,0.6c0.2,0.1,0.4,0.3,0.6,0.4
		l0,0c0.2,0.1,0.3,0.2,0.5,0.3c0.8,0.4,1.7,0.9,2.5,1.2c0.3,0.2,0.7,0.3,1,0.4c0.1,0,0.2,0.1,0.2,0.1c0.4,0.2,0.7,0.3,1.1,0.4
		c0.4,0.1,0.8,0.3,1.1,0.4c0.2,0.1,0.3,0.1,0.4,0.1l1,0.3c0.5,0.1,1,0.3,1.4,0.4c0.5,0.1,0.9,0.2,1.3,0.3c0.5,0.1,0.9,0.2,1.4,0.2
		l0,0c0.4,0.1,0.8,0.1,1.2,0.2c0.5,0.1,1.1,0.1,1.6,0.2c0.5,0,1,0.1,1.5,0.1c0.4,0,0.7,0,1.1,0c1,0,2,0.1,3,0.2
		c6.3,0.7,12.3,3.5,16.8,8c5.3,5.3,8.2,12.3,8.2,19.8v64.3c0,0.4,0,0.9-0.1,1.3c-0.1,1.2-0.2,2.4-0.4,3.5c-0.1,0.4-0.1,0.7-0.2,1
		c-0.3,1.5-0.8,2.9-1.3,4.3l0,0.1c-0.1,0.1-0.1,0.3-0.2,0.4l0,0.1c-0.5,1.1-1,2.1-1.5,3c-0.4,0.6-0.7,1.2-1.1,1.7
		c-0.2,0.4-0.5,0.7-0.8,1.1l-0.4,0.5c-0.3,0.3-0.6,0.7-0.9,1c-0.1,0.1-0.2,0.2-0.3,0.3l-0.2,0.2c-0.3,0.3-0.6,0.6-0.9,0.9
		c-0.3,0.3-0.6,0.6-0.9,0.9c-1.1,1-2.4,2-3.7,2.8c-0.3,0.2-0.7,0.4-1.1,0.7c-0.3,0.2-0.6,0.4-0.9,0.5l0,0l-0.3,0.1
		c-0.2,0.1-0.3,0.2-0.5,0.2l-0.1,0c-1,0.5-2.1,0.9-3.2,1.3c-0.3,0.1-0.6,0.2-0.9,0.3l-0.2,0.1c-0.2,0.1-0.5,0.1-0.7,0.2l-0.2,0
		c-0.1,0-0.3,0.1-0.4,0.1c-0.4,0.1-0.7,0.2-1,0.2c-0.4,0.1-0.8,0.1-1.2,0.2c-0.3,0-0.6,0.1-0.9,0.1l-0.2,0c-0.3,0-0.6,0.1-0.9,0.1
		c-0.3,0-0.6,0-0.9,0.1l-0.1,0c-0.1,0-0.2,0-0.3,0h-0.1l-0.1,0c-0.2,0-0.4,0-0.5,0C352.1,316,352.1,316,352,316z"/>
	<path style="&st5;" d="M544,252c-7.5,0-14.5-2.9-19.8-8.2c-5.3-5.3-8.2-12.3-8.2-19.8s2.9-14.5,8.2-19.8c5.3-5.3,12.3-8.2,19.8-8.2
		s14.5,2.9,19.8,8.2c5.3,5.3,8.2,12.3,8.2,19.8C572,239.4,559.4,252,544,252z"/>
	<path style="&st12;" d="M672,188c-7.5,0-14.5-2.9-19.8-8.2c-5.3-5.3-8.2-12.3-8.2-19.8V96c0-7.3-2.2-14.4-6.3-20.4
		c-0.3-0.4-0.6-0.8-0.9-1.2c-0.3-0.4-0.7-0.9-1-1.3c-0.4-0.4-0.7-0.9-1.1-1.3c-0.4-0.5-0.8-0.9-1.2-1.3c-0.4-0.4-0.8-0.8-1.2-1.2
		c-0.5-0.4-0.9-0.8-1.3-1.1c-0.4-0.4-0.9-0.7-1.4-1.1c-0.3-0.3-0.7-0.5-1.1-0.8c-6-4.1-13.1-6.3-20.4-6.3c-7.5,0-14.5-2.9-19.8-8.2
		c-5.3-5.3-8.2-12.3-8.2-19.8s2.9-14.5,8.2-19.8C593.5,6.9,600.5,4,608,4s14.5,2.9,19.8,8.2c5.3,5.3,8.2,12.3,8.2,19.8
		c0,9.6,3.7,18.7,10.5,25.5C653.3,64.3,662.4,68,672,68c7.5,0,14.5,2.9,19.8,8.2c5.3,5.3,8.2,12.3,8.2,19.8v64
		C700,175.4,687.4,188,672,188z"/>
	<path style="&st12;" d="M316,32c0,7.5-2.9,14.5-8.2,19.8c-5.3,5.3-12.3,8.2-19.8,8.2h-64c-7.3,0-14.4,2.2-20.4,6.3
		c-0.4,0.3-0.8,0.6-1.2,0.9c-0.4,0.3-0.9,0.7-1.3,1c-0.4,0.4-0.9,0.7-1.3,1.1c-0.5,0.4-0.9,0.8-1.3,1.2c-0.4,0.4-0.8,0.8-1.2,1.2
		c-0.4,0.5-0.8,0.9-1.1,1.3c-0.4,0.4-0.7,0.9-1.1,1.4c-0.3,0.3-0.5,0.7-0.8,1.1c-4.1,6-6.3,13.1-6.3,20.4c0,7.5-2.9,14.5-8.2,19.8
		c-5.3,5.3-12.3,8.2-19.8,8.2s-14.5-2.9-19.8-8.2c-5.3-5.3-8.2-12.3-8.2-19.8s2.9-14.5,8.2-19.8c5.3-5.3,12.3-8.2,19.8-8.2
		c9.6,0,18.7-3.7,25.5-10.5C192.3,50.7,196,41.6,196,32c0-7.5,2.9-14.5,8.2-19.8C209.5,6.9,216.5,4,224,4h64
		C303.4,4,316,16.6,316,32z"/>
	<path style="&st12;" d="M196,96c0,7.5,2.9,14.5,8.2,19.8c5.3,5.3,12.3,8.2,19.8,8.2h64c7.3,0,14.4,2.2,20.4,6.3
		c0.4,0.3,0.8,0.6,1.2,0.9c0.4,0.3,0.9,0.7,1.3,1c0.4,0.4,0.9,0.7,1.3,1.1c0.5,0.4,0.9,0.8,1.3,1.2c0.4,0.4,0.8,0.8,1.2,1.2
		c0.4,0.5,0.8,0.9,1.1,1.3c0.4,0.4,0.7,0.9,1.1,1.4c0.3,0.3,0.5,0.7,0.8,1.1c4.1,6,6.3,13.1,6.3,20.4c0,7.5,2.9,14.5,8.2,19.8
		c5.3,5.3,12.3,8.2,19.8,8.2s14.5-2.9,19.8-8.2c5.3-5.3,8.2-12.3,8.2-19.8s-2.9-14.5-8.2-19.8c-5.3-5.3-12.3-8.2-19.8-8.2
		c-9.6,0-18.7-3.7-25.5-10.5c-6.8-6.8-10.5-15.8-10.5-25.5c0-7.5-2.9-14.5-8.2-19.8c-5.3-5.3-12.3-8.2-19.8-8.2h-64
		C208.6,68,196,80.6,196,96z"/>
</g>
<g id="Layer_3" style="&st0;">
</g>
<g id="Layer_3_copy">
	<path style="&st8;" d="M704,320v64H-64v-64h32c-8.8,0-16.8-3.6-22.6-9.4c-5.8-5.8-9.4-13.8-9.4-22.6c0-8.8,3.6-16.8,9.4-22.6
		c5.8-5.8,13.8-9.4,22.6-9.4c8.8,0,16.8,3.6,22.6,9.4C-3.6,271.2,0,279.2,0,288c0,8.8,3.6,16.8,9.4,22.6c5.8,5.8,13.8,9.4,22.6,9.4
		c17.7,0,32-14.3,32-32c0-8.8,3.6-16.8,9.4-22.6c5.8-5.8,13.8-9.4,22.6-9.4s16.8,3.6,22.6,9.4c5.8,5.8,9.4,13.8,9.4,22.6
		c0,17.7-14.3,32-32,32h320c17.7,0,32-14.3,32-32c0-8.8,3.6-16.8,9.4-22.6c5.8-5.8,13.8-9.4,22.6-9.4h128c8.8,0,16.8,3.6,22.6,9.4
		c5.8,5.8,9.4,13.8,9.4,22.6c0,8.8,3.6,16.8,9.4,22.6c5.8,5.8,13.8,9.4,22.6,9.4H704z"/>
</g>
</svg>
