<?xml version="1.0" encoding="utf-8"?>
<!-- Generator: Adobe Illustrator 28.0.0, SVG Export Plug-In . SVG Version: 6.00 Build 0)  -->
<!DOCTYPE svg PUBLIC "-//W3C//DTD SVG 1.1//EN" "http://www.w3.org/Graphics/SVG/1.1/DTD/svg11.dtd" [
	<!ENTITY st0 "display:none;">
	<!ENTITY st1 "display:inline;fill:#00FF00;">
	<!ENTITY st2 "display:inline;fill:#334155;">
	<!ENTITY st3 "display:inline;fill:#0284C7;">
	<!ENTITY st4 "fill:#FFFFFF;">
	<!ENTITY st5 "fill:#334155;">
	<!ENTITY st6 "fill:#0284C7;">
	<!ENTITY st7 "fill:none;">
	<!ENTITY st8 "display:none;fill:#334155;">
	<!ENTITY st9 "display:none;fill:#FFFFFF;">
	<!ENTITY st10 "display:none;fill:#00FF00;">
	<!ENTITY st11 "display:none;fill:#FFBB00;">
	<!ENTITY st12 "display:inline;opacity:0.39;fill:#FFFFFF;">
	<!ENTITY st13 "display:inline;opacity:0.49;fill:#FFFFFF;">
	<!ENTITY st14 "display:inline;opacity:0.55;fill:#FFFFFF;">
	<!ENTITY st15 "display:inline;opacity:0.87;fill:#FFFFFF;">
	<!ENTITY st16 "display:inline;opacity:0.27;fill:#FFFFFF;">
	<!ENTITY st17 "display:inline;opacity:0.94;fill:#FFFFFF;">
	<!ENTITY st18 "display:inline;opacity:0.52;fill:#FFFFFF;">
	<!ENTITY st19 "display:inline;opacity:0.71;fill:#FFFFFF;">
	<!ENTITY st20 "display:inline;opacity:0.61;fill:#FFFFFF;">
	<!ENTITY st21 "display:inline;opacity:0.32;fill:#FFFFFF;">
	<!ENTITY st22 "display:inline;opacity:0.34;fill:#FFFFFF;">
	<!ENTITY st23 "display:inline;opacity:0.35;fill:#FFFFFF;">
	<!ENTITY st24 "display:inline;opacity:0.8;fill:#FFFFFF;">
	<!ENTITY st25 "display:inline;fill:#FFFFFF;">
	<!ENTITY st26 "display:inline;fill:#FFBB00;">
]>
<svg version="1.1" xmlns="http://www.w3.org/2000/svg" xmlns:xlink="http://www.w3.org/1999/xlink" x="0px" y="0px"
	 viewBox="0 0 640 448" style="enable-background:new 0 0 640 448;" xml:space="preserve">
<g id="grid" style="&st0;">
	<rect y="64" style="&st1;" width="64" height="64"/>
	<rect x="64" y="64" style="&st1;" width="64" height="64"/>
	<rect x="128" y="64" style="&st1;" width="64" height="64"/>
	<rect x="192" y="64" style="&st1;" width="64" height="64"/>
	<rect x="256" y="64" style="&st1;" width="64" height="64"/>
	<rect x="320" y="64" style="&st1;" width="64" height="64"/>
	<rect x="384" y="64" style="&st1;" width="64" height="64"/>
	<rect x="448" y="64" style="&st1;" width="64" height="64"/>
	<rect x="512" y="64" style="&st1;" width="64" height="64"/>
	<rect y="128" style="&st1;" width="64" height="64"/>
	<rect x="64" y="128" style="&st1;" width="64" height="64"/>
	<rect x="128" y="128" style="&st1;" width="64" height="64"/>
	<rect x="192" y="128" style="&st1;" width="64" height="64"/>
	<rect x="320" y="128" style="&st1;" width="64" height="64"/>
	<rect x="384" y="128" style="&st1;" width="64" height="64"/>
	<rect x="448" y="128" style="&st1;" width="64" height="64"/>
	<rect x="512" y="128" style="&st1;" width="64" height="64"/>
	<rect y="192" style="&st1;" width="64" height="64"/>
	<rect x="64" y="192" style="&st2;" width="128" height="64"/>
	<rect x="192" y="192" style="&st1;" width="64" height="64"/>
	<rect x="256" y="128" style="&st2;" width="64" height="128"/>
	<rect x="320" y="192" style="&st1;" width="64" height="64"/>
	<rect x="384" y="192" style="&st1;" width="64" height="64"/>
	<rect x="448" y="192" style="&st1;" width="64" height="64"/>
	<rect x="512" y="192" style="&st1;" width="64" height="64"/>
	<rect x="576" y="192" style="&st1;" width="64" height="64"/>
	<rect y="256" style="&st1;" width="64" height="64"/>
	<rect x="64" y="256" style="&st1;" width="64" height="64"/>
	<rect x="128" y="256" style="&st1;" width="64" height="64"/>
	<rect x="192" y="256" style="&st1;" width="64" height="64"/>
	<rect x="256" y="256" style="&st1;" width="64" height="64"/>
	<rect x="320" y="256" style="&st1;" width="64" height="64"/>
	<rect x="384" y="256" style="&st2;" width="128" height="64"/>
	<rect x="512" y="256" style="&st1;" width="64" height="64"/>
	<rect x="576" y="256" style="&st1;" width="64" height="64"/>
	<rect y="320" style="&st1;" width="64" height="64"/>
	<rect x="64" y="320" style="&st1;" width="64" height="64"/>
	<rect x="128" y="320" style="&st1;" width="64" height="64"/>
	<rect x="192" y="320" style="&st1;" width="64" height="64"/>
	<rect x="256" y="320" style="&st1;" width="64" height="64"/>
	<rect x="320" y="320" style="&st1;" width="64" height="64"/>
	<rect x="384" y="320" style="&st1;" width="64" height="64"/>
	<rect x="448" y="320" style="&st1;" width="64" height="64"/>
	<rect x="512" y="320" style="&st1;" width="64" height="64"/>
	<rect x="576" y="320" style="&st1;" width="64" height="64"/>
	<rect style="&st1;" width="64" height="64"/>
	<rect x="64" style="&st1;" width="64" height="64"/>
	<rect x="128" style="&st1;" width="64" height="64"/>
	<rect x="192" style="&st1;" width="64" height="64"/>
	<rect x="256" style="&st1;" width="64" height="64"/>
	<rect x="320" style="&st1;" width="64" height="64"/>
	<rect x="384" style="&st1;" width="64" height="64"/>
	<rect x="448" style="&st1;" width="64" height="64"/>
	<rect x="512" style="&st1;" width="64" height="64"/>
	<rect x="576" style="&st1;" width="64" height="64"/>
	<rect x="576" y="64" style="&st1;" width="64" height="64"/>
	<rect x="576" y="128" style="&st1;" width="64" height="64"/>
	<rect y="384" style="&st1;" width="640" height="64"/>
</g>
<g id="grid_copy_3" style="&st0;">
	<path style="&st1;" d="M256,96c0,8.8-3.6,16.8-9.4,22.6c-5.8,5.8-13.8,9.4-22.6,9.4s-16.8-3.6-22.6-9.4c-5.8-5.8-9.4-13.8-9.4-22.6
		c0-8.8,3.6-16.8,9.4-22.6c5.8-5.8,13.8-9.4,22.6-9.4C241.7,64,256,78.3,256,96z"/>
	<path style="&st2;" d="M384,32c0,8.8-3.6,16.8-9.4,22.6S360.8,64,352,64s-16.8,3.6-22.6,9.4c-5.8,5.8-9.4,13.8-9.4,22.6
		c0,17.7-14.3,32-32,32c-8.8,0-16.8-3.6-22.6-9.4c-5.8-5.8-9.4-13.8-9.4-22.6c0-8.8,3.6-16.8,9.4-22.6c5.8-5.8,13.8-9.4,22.6-9.4
		s16.8-3.6,22.6-9.4S320,40.8,320,32s3.6-16.8,9.4-22.6S343.2,0,352,0C369.7,0,384,14.3,384,32z"/>
	<path style="&st2;" d="M640,32c0,17.7-14.3,32-32,32c-8.8,0-16.8,3.6-22.6,9.4c-5.8,5.8-9.4,13.8-9.4,22.6c0,17.7-14.3,32-32,32
		c-8.8,0-16.8-3.6-22.6-9.4c-5.8-5.8-9.4-13.8-9.4-22.6c0-8.8,3.6-16.8,9.4-22.6c5.8-5.8,13.8-9.4,22.6-9.4s16.8-3.6,22.6-9.4
		S576,40.8,576,32s3.6-16.8,9.4-22.6S599.2,0,608,0s16.8,3.6,22.6,9.4S640,23.2,640,32z"/>
	<path style="&st2;" d="M128,96c0,8.8-3.6,16.8-9.4,22.6c-5.8,5.8-13.8,9.4-22.6,9.4s-16.8,3.6-22.6,9.4c-5.8,5.8-9.4,13.8-9.4,22.6
		c0,8.8-3.6,16.8-9.4,22.6c-5.8,5.8-13.8,9.4-22.6,9.4s-16.8-3.6-22.6-9.4C3.6,176.8,0,168.8,0,160c0-17.7,14.3-32,32-32
		c8.8,0,16.8-3.6,22.6-9.4c5.8-5.8,9.4-13.8,9.4-22.6c0-8.8,3.6-16.8,9.4-22.6C79.2,67.6,87.2,64,96,64C113.7,64,128,78.3,128,96z"
		/>
	<path style="&st2;" d="M246.6,137.4c5.8,5.8,9.4,13.8,9.4,22.6c0,17.7-14.3,32-32,32c-8.8,0-16.8-3.6-22.6-9.4
		c-5.8-5.8-9.4-13.8-9.4-22.6c0-8.8-3.6-16.8-9.4-22.6c-5.8-5.8-13.8-9.4-22.6-9.4s-16.8-3.6-22.6-9.4c-5.8-5.8-9.4-13.8-9.4-22.6
		c0-8.8,3.6-16.8,9.4-22.6c5.8-5.8,13.8-9.4,22.6-9.4s16.8-3.6,22.6-9.4S192,40.8,192,32s3.6-16.8,9.4-22.6S215.2,0,224,0
		c17.7,0,32,14.3,32,32c0,8.8-3.6,16.8-9.4,22.6S232.8,64,224,64s-16.8,3.6-22.6,9.4c-5.8,5.8-9.4,13.8-9.4,22.6
		c0,8.8,3.6,16.8,9.4,22.6c5.8,5.8,13.8,9.4,22.6,9.4S240.8,131.6,246.6,137.4z"/>
	<path style="&st2;" d="M448,160c0,8.8-3.6,16.8-9.4,22.6c-5.8,5.8-13.8,9.4-22.6,9.4s-16.8-3.6-22.6-9.4
		c-5.8-5.8-9.4-13.8-9.4-22.6c0-8.8-3.6-16.8-9.4-22.6c-5.8-5.8-13.8-9.4-22.6-9.4s-16.8-3.6-22.6-9.4c-5.8-5.8-9.4-13.8-9.4-22.6
		c0-8.8,3.6-16.8,9.4-22.6c5.8-5.8,13.8-9.4,22.6-9.4c17.7,0,32,14.3,32,32c0,8.8,3.6,16.8,9.4,22.6c5.8,5.8,13.8,9.4,22.6,9.4
		C433.7,128,448,142.3,448,160z"/>
	<path style="&st2;" d="M512,160c0,8.8-3.6,16.8-9.4,22.6c-5.8,5.8-13.8,9.4-22.6,9.4s-16.8-3.6-22.6-9.4
		c-5.8-5.8-9.4-13.8-9.4-22.6c0-17.7-14.3-32-32-32c-8.8,0-16.8-3.6-22.6-9.4c-5.8-5.8-9.4-13.8-9.4-22.6c0-8.8,3.6-16.8,9.4-22.6
		c5.8-5.8,13.8-9.4,22.6-9.4s16.8-3.6,22.6-9.4S448,40.8,448,32s3.6-16.8,9.4-22.6S471.2,0,480,0c17.7,0,32,14.3,32,32
		c0,8.8-3.6,16.8-9.4,22.6S488.8,64,480,64s-16.8,3.6-22.6,9.4c-5.8,5.8-9.4,13.8-9.4,22.6c0,8.8,3.6,16.8,9.4,22.6
		c5.8,5.8,13.8,9.4,22.6,9.4C497.7,128,512,142.3,512,160z"/>
	<path style="&st2;" d="M128,160c0,17.7-14.3,32-32,32c-8.8,0-16.8,3.6-22.6,9.4c-5.8,5.8-9.4,13.8-9.4,22.6c0,17.7-14.3,32-32,32
		c-8.8,0-16.8-3.6-22.6-9.4C3.6,240.8,0,232.8,0,224c0-8.8,3.6-16.8,9.4-22.6c5.8-5.8,13.8-9.4,22.6-9.4s16.8-3.6,22.6-9.4
		c5.8-5.8,9.4-13.8,9.4-22.6c0-8.8,3.6-16.8,9.4-22.6c5.8-5.8,13.8-9.4,22.6-9.4s16.8,3.6,22.6,9.4C124.4,143.2,128,151.2,128,160z"
		/>
	<path style="&st2;" d="M192,224c0,17.7-14.3,32-32,32H96c-8.8,0-16.8,3.6-22.6,9.4c-5.8,5.8-9.4,13.8-9.4,22.6
		c0,8.8-3.6,16.8-9.4,22.6c-5.8,5.8-13.8,9.4-22.6,9.4s-16.8-3.6-22.6-9.4C3.6,304.8,0,296.8,0,288c0-8.8,3.6-16.8,9.4-22.6
		c5.8-5.8,13.8-9.4,22.6-9.4c17.7,0,32-14.3,32-32c0-8.8,3.6-16.8,9.4-22.6c5.8-5.8,13.8-9.4,22.6-9.4h64
		C177.7,192,192,206.3,192,224z"/>
	<path style="&st2;" d="M256,224c0,17.7-14.3,32-32,32c-8.8,0-16.8-3.6-22.6-9.4c-5.8-5.8-9.4-13.8-9.4-22.6c0-17.7-14.3-32-32-32
		c-8.8,0-16.8-3.6-22.6-9.4c-5.8-5.8-9.4-13.8-9.4-22.6c0-8.8,3.6-16.8,9.4-22.6c5.8-5.8,13.8-9.4,22.6-9.4s16.8,3.6,22.6,9.4
		c5.8,5.8,9.4,13.8,9.4,22.6c0,8.8,3.6,16.8,9.4,22.6c5.8,5.8,13.8,9.4,22.6,9.4s16.8,3.6,22.6,9.4C252.4,207.2,256,215.2,256,224z"
		/>
	<path style="&st2;" d="M320,160v64c0,17.7-14.3,32-32,32c-8.8,0-16.8,3.6-22.6,9.4c-5.8,5.8-9.4,13.8-9.4,22.6
		c0,8.8-3.6,16.8-9.4,22.6c-5.8,5.8-13.8,9.4-22.6,9.4s-16.8-3.6-22.6-9.4c-5.8-5.8-9.4-13.8-9.4-22.6c0-8.8,3.6-16.8,9.4-22.6
		c5.8-5.8,13.8-9.4,22.6-9.4c17.7,0,32-14.3,32-32v-64c0-17.7,14.3-32,32-32c8.8,0,16.8,3.6,22.6,9.4C316.4,143.2,320,151.2,320,160
		z"/>
	<path style="&st2;" d="M448,224c0,17.7-14.3,32-32,32c-8.8,0-16.8-3.6-22.6-9.4c-5.8-5.8-9.4-13.8-9.4-22.6
		c0-8.8-3.6-16.8-9.4-22.6c-5.8-5.8-13.8-9.4-22.6-9.4s-16.8-3.6-22.6-9.4c-5.8-5.8-9.4-13.8-9.4-22.6c0-8.8,3.6-16.8,9.4-22.6
		c5.8-5.8,13.8-9.4,22.6-9.4s16.8,3.6,22.6,9.4c5.8,5.8,9.4,13.8,9.4,22.6c0,8.8,3.6,16.8,9.4,22.6c5.8,5.8,13.8,9.4,22.6,9.4
		s16.8,3.6,22.6,9.4C444.4,207.2,448,215.2,448,224z"/>
	<path style="&st2;" d="M576,160c0,17.7-14.3,32-32,32c-8.8,0-16.8,3.6-22.6,9.4c-5.8,5.8-9.4,13.8-9.4,22.6c0,17.7-14.3,32-32,32
		c-8.8,0-16.8-3.6-22.6-9.4c-5.8-5.8-9.4-13.8-9.4-22.6c0-8.8,3.6-16.8,9.4-22.6c5.8-5.8,13.8-9.4,22.6-9.4s16.8-3.6,22.6-9.4
		c5.8-5.8,9.4-13.8,9.4-22.6c0-17.7-14.3-32-32-32c-8.8,0-16.8-3.6-22.6-9.4c-5.8-5.8-9.4-13.8-9.4-22.6c0-8.8,3.6-16.8,9.4-22.6
		c5.8-5.8,13.8-9.4,22.6-9.4c17.7,0,32,14.3,32,32c0,8.8,3.6,16.8,9.4,22.6c5.8,5.8,13.8,9.4,22.6,9.4s16.8,3.6,22.6,9.4
		C572.4,143.2,576,151.2,576,160z"/>
	<path style="&st1;" d="M192,288L192,288c0,17.7-14.3,32-32,32h0c-17.7,0-32-14.3-32-32v0c0-17.7,14.3-32,32-32h0
		C177.7,256,192,270.3,192,288z"/>
	<path style="&st2;" d="M576,224c0,8.8-3.6,16.8-9.4,22.6c-5.8,5.8-13.8,9.4-22.6,9.4s-16.8,3.6-22.6,9.4
		c-5.8,5.8-9.4,13.8-9.4,22.6c0,17.7-14.3,32-32,32h-64c-17.7,0-32-14.3-32-32c0-8.8,3.6-16.8,9.4-22.6c5.8-5.8,13.8-9.4,22.6-9.4
		h64c17.7,0,32-14.3,32-32c0-8.8,3.6-16.8,9.4-22.6c5.8-5.8,13.8-9.4,22.6-9.4C561.7,192,576,206.3,576,224z"/>
	<path style="&st2;" d="M64,32c0,8.8-3.6,16.8-9.4,22.6S40.8,64,32,64s-16.8,3.6-22.6,9.4C3.6,79.2,0,87.2,0,96c0,0.3,0,0.7,0,1
		c0,0.2,0,0.3,0,0.5c0,0.6-0.1,1.2-0.1,1.8c0,0.2,0,0.3-0.1,0.5c0,0.4-0.1,0.7-0.1,1.1c0,0.1,0,0.1,0,0.2c-0.1,0.4-0.1,0.7-0.2,1.1
		c-0.2,0.8-0.3,1.6-0.6,2.4c-0.1,0.3-0.2,0.7-0.3,1c0,0,0,0.1,0,0.1c-0.1,0.4-0.2,0.8-0.4,1.1c-0.1,0.3-0.2,0.7-0.4,1
		c0,0.1,0,0.1-0.1,0.2c-0.1,0.3-0.2,0.6-0.4,0.9c-0.3,0.8-0.7,1.5-1.1,2.3c-0.1,0.3-0.3,0.5-0.4,0.8c-0.4,0.8-0.9,1.5-1.4,2.2
		c0,0,0,0,0,0c-0.2,0.3-0.5,0.7-0.7,1c-0.3,0.4-0.6,0.8-1,1.2c-0.3,0.4-0.7,0.8-1,1.2c-0.3,0.4-0.7,0.8-1.1,1.1
		c-0.4,0.4-0.7,0.7-1.1,1.1c-0.4,0.3-0.8,0.7-1.2,1c-0.4,0.3-0.8,0.6-1.2,1c-0.3,0.2-0.7,0.5-1,0.7c0,0,0,0,0,0
		c-0.7,0.5-1.5,1-2.2,1.4c-0.2,0.2-0.5,0.3-0.8,0.4c-0.7,0.4-1.5,0.8-2.3,1.1c-0.3,0.1-0.6,0.3-0.9,0.4c-0.1,0-0.1,0.1-0.2,0.1
		c-0.3,0.1-0.6,0.2-1,0.4c-0.4,0.1-0.8,0.3-1.1,0.4c0,0-0.1,0-0.1,0c-0.3,0.1-0.7,0.2-1,0.3c-0.8,0.2-1.6,0.4-2.4,0.5
		c-0.3,0.1-0.7,0.1-1.1,0.2l-0.2,0c-0.4,0.1-0.7,0.1-1.1,0.1c-0.2,0-0.3,0.1-0.5,0.1c-0.6,0.1-1.2,0.1-1.8,0.1c-0.2,0-0.3,0-0.5,0
		c-0.3,0-0.7,0-1,0c-8.8,0-16.8-3.6-22.6-9.4c-5.8-5.8-9.4-13.8-9.4-22.6c0-8.8,3.6-16.8,9.4-22.6C-48.8,67.6-40.8,64-32,64
		c8.8,0,16.8-3.6,22.6-9.4C-3.6,48.8,0,40.8,0,32S3.6,15.2,9.4,9.4S23.2,0,32,0C49.7,0,64,14.3,64,32z"/>
	<path style="&st1;" d="M384,352c0,8.8-3.6,16.8-9.4,22.6c-5.8,5.8-13.8,9.4-22.6,9.4s-16.8-3.6-22.6-9.4
		c-5.8-5.8-9.4-13.8-9.4-22.6c0-8.8,3.6-16.8,9.4-22.6c5.8-5.8,13.8-9.4,22.6-9.4C369.7,320,384,334.3,384,352z"/>
	<path style="&st1;" d="M576,352c0,8.8-3.6,16.8-9.4,22.6c-5.8,5.8-13.8,9.4-22.6,9.4s-16.8-3.6-22.6-9.4
		c-5.8-5.8-9.4-13.8-9.4-22.6c0-8.8,3.6-16.8,9.4-22.6c5.8-5.8,13.8-9.4,22.6-9.4C561.7,320,576,334.3,576,352z"/>
	<path style="&st1;" d="M96,0L96,0c17.7,0,32,14.3,32,32v0c0,17.7-14.3,32-32,32h0c-17.7,0-32-14.3-32-32v0C64,14.3,78.3,0,96,0z"/>
	<path style="&st1;" d="M192,32c0,8.8-3.6,16.8-9.4,22.6S168.8,64,160,64s-16.8-3.6-22.6-9.4S128,40.8,128,32s3.6-16.8,9.4-22.6
		S151.2,0,160,0C177.7,0,192,14.3,192,32z"/>
	<path style="&st1;" d="M320,32c0,8.8-3.6,16.8-9.4,22.6S296.8,64,288,64s-16.8-3.6-22.6-9.4S256,40.8,256,32s3.6-16.8,9.4-22.6
		S279.2,0,288,0C305.7,0,320,14.3,320,32z"/>
	<path style="&st1;" d="M448,32c0,8.8-3.6,16.8-9.4,22.6S424.8,64,416,64s-16.8-3.6-22.6-9.4S384,40.8,384,32s3.6-16.8,9.4-22.6
		S407.2,0,416,0C433.7,0,448,14.3,448,32z"/>
	<path style="&st1;" d="M576,32c0,8.8-3.6,16.8-9.4,22.6S552.8,64,544,64s-16.8-3.6-22.6-9.4S512,40.8,512,32s3.6-16.8,9.4-22.6
		S535.2,0,544,0C561.7,0,576,14.3,576,32z"/>
	<path style="&st2;" d="M704,32c0,8.8-3.6,16.8-9.4,22.6S680.8,64,672,64s-16.8,3.6-22.6,9.4c-5.8,5.8-9.4,13.8-9.4,22.6
		c0,6.7-2.1,13-5.6,18.1c-0.2,0.3-0.5,0.7-0.8,1c-0.3,0.4-0.6,0.8-1,1.2c-0.3,0.4-0.7,0.8-1,1.2c-0.3,0.4-0.7,0.8-1.1,1.1
		c-0.4,0.4-0.7,0.7-1.1,1.1c-0.4,0.3-0.8,0.7-1.2,1c-0.4,0.3-0.8,0.6-1.2,1c-0.3,0.3-0.7,0.5-1,0.8c-5.1,3.5-11.4,5.6-18.1,5.6
		c-8.8,0-16.8-3.6-22.6-9.4c-5.8-5.8-9.4-13.8-9.4-22.6c0-8.8,3.6-16.8,9.4-22.6c5.8-5.8,13.8-9.4,22.6-9.4c17.7,0,32-14.3,32-32
		c0-8.8,3.6-16.8,9.4-22.6S663.2,0,672,0C689.7,0,704,14.3,704,32z"/>
	<rect y="384" style="&st1;" width="640" height="64"/>
	<path style="&st2;" d="M704,96c0,8.8-3.6,16.8-9.4,22.6c-5.8,5.8-13.8,9.4-22.6,9.4c-17.7,0-32,14.3-32,32v64c0,17.7-14.3,32-32,32
		c-8.8,0-16.8-3.6-22.6-9.4c-5.8-5.8-9.4-13.8-9.4-22.6v-64c0-17.7,14.3-32,32-32c6.7,0,13-2.1,18.1-5.6c0.4-0.2,0.7-0.5,1-0.8
		c0.4-0.3,0.8-0.6,1.2-1c0.4-0.3,0.8-0.7,1.2-1c0.4-0.4,0.8-0.7,1.1-1.1c0.4-0.4,0.7-0.7,1.1-1.1c0.3-0.4,0.7-0.8,1-1.2
		c0.3-0.4,0.7-0.8,1-1.2c0.3-0.3,0.5-0.7,0.8-1c3.5-5.2,5.6-11.4,5.6-18.1c0-8.8,3.6-16.8,9.4-22.6c5.8-5.8,13.8-9.4,22.6-9.4
		s16.8,3.6,22.6,9.4C700.4,79.2,704,87.2,704,96z"/>
	<path style="&st2;" d="M64,96c0,8.8-3.6,16.8-9.4,22.6c-5.8,5.8-13.8,9.4-22.6,9.4c-17.7,0-32,14.3-32,32v64c0,17.7-14.3,32-32,32
		c-8.8,0-16.8-3.6-22.6-9.4c-5.8-5.8-9.4-13.8-9.4-22.6v-64c0-17.7,14.3-32,32-32c0.3,0,0.7,0,1,0c0.2,0,0.3,0,0.5,0
		c0.6,0,1.2-0.1,1.8-0.1c0.2,0,0.3,0,0.5-0.1c0.4,0,0.7-0.1,1.1-0.1l0.2,0c0.4,0,0.7-0.1,1.1-0.2c0.8-0.1,1.6-0.3,2.4-0.5
		c0.4-0.1,0.7-0.2,1-0.3c0,0,0.1,0,0.1,0c0.4-0.1,0.8-0.2,1.1-0.4c0.3-0.1,0.7-0.2,1-0.4c0.1,0,0.1,0,0.2-0.1
		c0.3-0.1,0.6-0.2,0.9-0.4c0.8-0.3,1.5-0.7,2.3-1.1c0.3-0.1,0.5-0.3,0.8-0.4c0.8-0.4,1.5-0.9,2.2-1.4c0,0,0,0,0,0
		c0.3-0.2,0.7-0.5,1-0.7c0.4-0.3,0.8-0.6,1.2-1c0.4-0.3,0.8-0.7,1.2-1c0.4-0.4,0.8-0.7,1.1-1.1c0.4-0.4,0.7-0.7,1.1-1.1
		c0.3-0.4,0.7-0.8,1-1.2c0.3-0.4,0.7-0.8,1-1.2c0.2-0.3,0.5-0.7,0.7-1c0,0,0,0,0,0c0.5-0.7,1-1.5,1.4-2.2c0.1-0.2,0.3-0.5,0.4-0.8
		c0.4-0.7,0.8-1.5,1.1-2.3c0.1-0.3,0.3-0.6,0.4-0.9c0-0.1,0-0.1,0.1-0.2c0.1-0.3,0.2-0.6,0.4-1c0.1-0.4,0.3-0.8,0.4-1.1
		c0,0,0-0.1,0-0.1c0.1-0.3,0.2-0.7,0.3-1c0.2-0.8,0.4-1.6,0.6-2.4c0.1-0.4,0.1-0.7,0.2-1.1c0-0.1,0-0.1,0-0.2
		c0.1-0.4,0.1-0.7,0.1-1.1c0-0.2,0-0.3,0.1-0.5c0.1-0.6,0.1-1.2,0.1-1.8c0-0.2,0-0.3,0-0.5c0-0.3,0-0.7,0-1c0-8.8,3.6-16.8,9.4-22.6
		C15.2,67.6,23.2,64,32,64s16.8,3.6,22.6,9.4C60.4,79.2,64,87.2,64,96z"/>
	<path style="&st3;" d="M384,224c0,8.8-3.6,16.8-9.4,22.6c-5.8,5.8-13.8,9.4-22.6,9.4c-17.7,0-32,14.3-32,32v64
		c0,17.7-14.3,32-32,32c-8.8,0-16.8-3.6-22.6-9.4c-5.8-5.8-9.4-13.8-9.4-22.6v-64c0-17.7,14.3-32,32-32c6.7,0,13-2.1,18.1-5.6
		c0.4-0.2,0.7-0.5,1-0.8c0.4-0.3,0.8-0.6,1.2-1c0.4-0.3,0.8-0.7,1.2-1c0.4-0.4,0.8-0.7,1.1-1.1c0.4-0.4,0.7-0.7,1.1-1.1
		c0.3-0.4,0.7-0.8,1-1.2c0.3-0.4,0.7-0.8,1-1.2c0.3-0.3,0.5-0.7,0.8-1c3.5-5.2,5.6-11.4,5.6-18.1c0-8.8,3.6-16.8,9.4-22.6
		c5.8-5.8,13.8-9.4,22.6-9.4s16.8,3.6,22.6,9.4C380.4,207.2,384,215.2,384,224z"/>
	<path style="&st3;" d="M576,288c0,8.8-3.6,16.8-9.4,22.6c-5.8,5.8-13.8,9.4-22.6,9.4c-17.7,0-32,14.3-32,32v64
		c0,17.7-14.3,32-32,32c-8.8,0-16.8-3.6-22.6-9.4c-5.8-5.8-9.4-13.8-9.4-22.6v-64c0-17.7,14.3-32,32-32c6.7,0,13-2.1,18.1-5.6
		c0.4-0.2,0.7-0.5,1-0.8c0.4-0.3,0.8-0.6,1.2-1c0.4-0.3,0.8-0.7,1.2-1c0.4-0.4,0.8-0.7,1.1-1.1c0.4-0.4,0.7-0.7,1.1-1.1
		c0.3-0.4,0.7-0.8,1-1.2c0.3-0.4,0.7-0.8,1-1.2c0.3-0.3,0.5-0.7,0.8-1c3.5-5.2,5.6-11.4,5.6-18.1c0-8.8,3.6-16.8,9.4-22.6
		c5.8-5.8,13.8-9.4,22.6-9.4s16.8,3.6,22.6,9.4C572.4,271.2,576,279.2,576,288z"/>
	<path style="&st2;" d="M96,256c8.8,0,16.8,3.6,22.6,9.4c5.8,5.8,9.4,13.8,9.4,22.6c0,17.7,14.3,32,32,32h64c17.7,0,32,14.3,32,32
		c0,8.8-3.6,16.8-9.4,22.6c-5.8,5.8-13.8,9.4-22.6,9.4h-64c-17.7,0-32-14.3-32-32c0-0.3,0-0.7,0-1c0-0.2,0-0.3,0-0.5
		c0-0.6-0.1-1.2-0.1-1.8c0-0.2,0-0.3-0.1-0.5c0-0.4-0.1-0.7-0.1-1.1l0-0.2c0-0.4-0.1-0.7-0.2-1.1c-0.1-0.8-0.3-1.6-0.5-2.4
		c-0.1-0.4-0.2-0.7-0.3-1c0,0,0-0.1,0-0.1c-0.1-0.4-0.2-0.8-0.4-1.1c-0.1-0.3-0.2-0.7-0.4-1c0-0.1,0-0.1-0.1-0.2
		c-0.1-0.3-0.2-0.6-0.4-0.9c-0.3-0.8-0.7-1.5-1.1-2.3c-0.1-0.3-0.3-0.5-0.4-0.8c-0.4-0.8-0.9-1.5-1.4-2.2c0,0,0,0,0,0
		c-0.2-0.3-0.5-0.7-0.7-1c-0.3-0.4-0.6-0.8-1-1.2c-0.3-0.4-0.7-0.8-1-1.2c-0.4-0.4-0.7-0.8-1.1-1.1c-0.4-0.4-0.7-0.7-1.1-1.1
		c-0.4-0.3-0.8-0.7-1.2-1c-0.4-0.3-0.8-0.7-1.2-1c-0.3-0.2-0.7-0.5-1-0.7c0,0,0,0,0,0c-0.7-0.5-1.5-1-2.2-1.4
		c-0.2-0.1-0.5-0.3-0.8-0.4c-0.7-0.4-1.5-0.8-2.3-1.1c-0.3-0.1-0.6-0.3-0.9-0.4c-0.1,0-0.1,0-0.2-0.1c-0.3-0.1-0.6-0.2-1-0.4
		c-0.4-0.1-0.8-0.3-1.1-0.4c0,0-0.1,0-0.1,0c-0.3-0.1-0.7-0.2-1-0.3c-0.8-0.2-1.6-0.4-2.4-0.6c-0.4-0.1-0.7-0.1-1.1-0.2
		c-0.1,0-0.1,0-0.2,0c-0.4-0.1-0.7-0.1-1.1-0.1c-0.2,0-0.3,0-0.5-0.1c-0.6-0.1-1.2-0.1-1.8-0.1c-0.2,0-0.3,0-0.5,0c-0.3,0-0.7,0-1,0
		c-8.8,0-16.8-3.6-22.6-9.4c-5.8-5.8-9.4-13.8-9.4-22.6s3.6-16.8,9.4-22.6C79.2,259.6,87.2,256,96,256z"/>
	<path style="&st2;" d="M448.3,352.3c0,17.7-14.3,32-32,32c-8.8,0-16.8,3.6-22.6,9.4c-5.8,5.8-9.4,13.8-9.4,22.6
		c0,17.7-14.3,32-32,32c-8.8,0-16.8-3.6-22.6-9.4c-5.8-5.8-9.4-13.8-9.4-22.6c0-8.8,3.6-16.8,9.4-22.6c5.8-5.8,13.8-9.4,22.6-9.4
		s16.8-3.6,22.6-9.4c5.8-5.8,9.4-13.8,9.4-22.6c0-17.7-14.3-32-32-32c-8.8,0-16.8-3.6-22.6-9.4c-5.8-5.8-9.4-13.8-9.4-22.6
		c0-8.8,3.6-16.8,9.4-22.6c5.8-5.8,13.8-9.4,22.6-9.4c17.7,0,32,14.3,32,32c0,8.8,3.6,16.8,9.4,22.6c5.8,5.8,13.8,9.4,22.6,9.4
		s16.8,3.6,22.6,9.4C444.7,335.5,448.3,343.5,448.3,352.3z"/>
	<path style="&st2;" d="M192,416c0,17.7-14.3,32-32,32c-8.8,0-16.8-3.6-22.6-9.4c-5.8-5.8-9.4-13.8-9.4-22.6c0-17.7-14.3-32-32-32
		c-8.8,0-16.8-3.6-22.6-9.4c-5.8-5.8-9.4-13.8-9.4-22.6c0-8.8,3.6-16.8,9.4-22.6c5.8-5.8,13.8-9.4,22.6-9.4s16.8,3.6,22.6,9.4
		c5.8,5.8,9.4,13.8,9.4,22.6c0,17.7,14.3,32,32,32c8.8,0,16.8,3.6,22.6,9.4C188.4,399.2,192,407.2,192,416z"/>
	<path style="&st2;" d="M-31.7,448.3c-8.8,0-16.8-3.6-22.6-9.4c-5.8-5.8-9.4-13.8-9.4-22.6s3.6-16.8,9.4-22.6
		c5.8-5.8,13.8-9.4,22.6-9.4c17.7,0,32-14.3,32-32c0-8.8-3.6-16.8-9.4-22.6c-5.8-5.8-13.8-9.4-22.6-9.4c-17.7,0-32-14.3-32-32
		c0-8.8,3.6-16.8,9.4-22.6c5.8-5.8,13.8-9.4,22.6-9.4c8.8,0,16.8,3.6,22.6,9.4c5.8,5.8,9.4,13.8,9.4,22.6c0,17.7,14.3,32,32,32
		c8.8,0,16.8,3.6,22.6,9.4c5.8,5.8,9.4,13.8,9.4,22.6s-3.6,16.8-9.4,22.6c-5.8,5.8-13.8,9.4-22.6,9.4c-8.8,0-16.8,3.6-22.6,9.4
		c-5.8,5.8-9.4,13.8-9.4,22.6C0.3,434-14.1,448.3-31.7,448.3z"/>
	<path style="&st2;" d="M608.3,448.3c-8.8,0-16.8-3.6-22.6-9.4c-5.8-5.8-9.4-13.8-9.4-22.6s3.6-16.8,9.4-22.6
		c5.8-5.8,13.8-9.4,22.6-9.4c17.7,0,32-14.3,32-32c0-8.8-3.6-16.8-9.4-22.6c-5.8-5.8-13.8-9.4-22.6-9.4c-17.7,0-32-14.3-32-32
		c0-8.8,3.6-16.8,9.4-22.6c5.8-5.8,13.8-9.4,22.6-9.4c8.8,0,16.8,3.6,22.6,9.4c5.8,5.8,9.4,13.8,9.4,22.6c0,17.7,14.3,32,32,32
		c8.8,0,16.8,3.6,22.6,9.4c5.8,5.8,9.4,13.8,9.4,22.6s-3.6,16.8-9.4,22.6c-5.8,5.8-13.8,9.4-22.6,9.4c-8.8,0-16.8,3.6-22.6,9.4
		c-5.8,5.8-9.4,13.8-9.4,22.6C640.3,434,625.9,448.3,608.3,448.3z"/>
	<path style="&st2;" d="M640,352c0,17.7-14.3,32-32,32c-8.8,0-16.8,3.6-22.6,9.4c-5.8,5.8-9.4,13.8-9.4,22.6c0,17.7-14.3,32-32,32
		c-8.8,0-16.8-3.6-22.6-9.4c-5.8-5.8-9.4-13.8-9.4-22.6c0-8.8,3.6-16.8,9.4-22.6c5.8-5.8,13.8-9.4,22.6-9.4s16.8-3.6,22.6-9.4
		c5.8-5.8,9.4-13.8,9.4-22.6c0-8.8,3.6-16.8,9.4-22.6c5.8-5.8,13.8-9.4,22.6-9.4s16.8,3.6,22.6,9.4C636.4,335.2,640,343.2,640,352z"
		/>
</g>
<g id="Layer_9">
</g>
<g id="grid_copy_4">
	<path style="&st4;" d="M224,124c-7.5,0-14.5-2.9-19.8-8.2c-5.3-5.3-8.2-12.3-8.2-19.8s2.9-14.5,8.2-19.8c5.3-5.3,12.3-8.2,19.8-8.2
		c15.4,0,28,12.6,28,28c0,7.5-2.9,14.5-8.2,19.8C238.5,121.1,231.5,124,224,124z"/>
	<path style="&st4;" d="M288,124c-7.5,0-14.5-2.9-19.8-8.2c-5.3-5.3-8.2-12.3-8.2-19.8s2.9-14.5,8.2-19.8c5.3-5.3,12.3-8.2,19.8-8.2
		c9.6,0,18.7-3.7,25.5-10.5C320.3,50.7,324,41.6,324,32c0-7.5,2.9-14.5,8.2-19.8C337.5,6.9,344.5,4,352,4c15.4,0,28,12.6,28,28
		c0,7.5-2.9,14.5-8.2,19.8c-5.3,5.3-12.3,8.2-19.8,8.2c-9.6,0-18.7,3.7-25.5,10.5C319.7,77.3,316,86.4,316,96
		C316,111.4,303.4,124,288,124z"/>
	<path style="&st4;" d="M544,124c-7.5,0-14.5-2.9-19.8-8.2c-5.3-5.3-8.2-12.3-8.2-19.8s2.9-14.5,8.2-19.8c5.3-5.3,12.3-8.2,19.8-8.2
		c9.6,0,18.7-3.7,25.5-10.5C576.3,50.7,580,41.6,580,32c0-7.5,2.9-14.5,8.2-19.8C593.5,6.9,600.5,4,608,4s14.5,2.9,19.8,8.2
		c5.3,5.3,8.2,12.3,8.2,19.8c0,15.4-12.6,28-28,28c-9.6,0-18.7,3.7-25.5,10.5C575.7,77.3,572,86.4,572,96
		C572,111.4,559.4,124,544,124z"/>
	<path style="&st4;" d="M224,188c-7.5,0-14.5-2.9-19.8-8.2c-5.3-5.3-8.2-12.3-8.2-19.8c0-9.6-3.7-18.7-10.5-25.5
		c-6.8-6.8-15.8-10.5-25.5-10.5c-7.5,0-14.5-2.9-19.8-8.2c-5.3-5.3-8.2-12.3-8.2-19.8s2.9-14.5,8.2-19.8c5.3-5.3,12.3-8.2,19.8-8.2
		c9.6,0,18.7-3.7,25.5-10.5C192.3,50.7,196,41.6,196,32c0-7.5,2.9-14.5,8.2-19.8C209.5,6.9,216.5,4,224,4c15.4,0,28,12.6,28,28
		c0,7.5-2.9,14.5-8.2,19.8c-5.3,5.3-12.3,8.2-19.8,8.2c-9.6,0-18.7,3.7-25.5,10.5C191.7,77.3,188,86.4,188,96s3.7,18.7,10.5,25.5
		c6.8,6.8,15.8,10.5,25.5,10.5c7.5,0,14.5,2.9,19.8,8.2c5.3,5.3,8.2,12.3,8.2,19.8C252,175.4,239.4,188,224,188z"/>
	<path style="&st4;" d="M416,188c-7.5,0-14.5-2.9-19.8-8.2c-5.3-5.3-8.2-12.3-8.2-19.8c0-9.6-3.7-18.7-10.5-25.5
		c-6.8-6.8-15.8-10.5-25.5-10.5c-7.5,0-14.5-2.9-19.8-8.2c-5.3-5.3-8.2-12.3-8.2-19.8s2.9-14.5,8.2-19.8c5.3-5.3,12.3-8.2,19.8-8.2
		c15.4,0,28,12.6,28,28c0,9.6,3.7,18.7,10.5,25.5c6.8,6.8,15.8,10.5,25.5,10.5c15.4,0,28,12.6,28,28c0,7.5-2.9,14.5-8.2,19.8
		C430.5,185.1,423.5,188,416,188z"/>
	<path style="&st4;" d="M480,188c-7.5,0-14.5-2.9-19.8-8.2c-5.3-5.3-8.2-12.3-8.2-19.8c0-19.9-16.1-36-36-36
		c-7.5,0-14.5-2.9-19.8-8.2c-5.3-5.3-8.2-12.3-8.2-19.8s2.9-14.5,8.2-19.8c5.3-5.3,12.3-8.2,19.8-8.2c9.6,0,18.7-3.7,25.5-10.5
		C448.3,50.7,452,41.6,452,32c0-7.5,2.9-14.5,8.2-19.8C465.5,6.9,472.5,4,480,4c15.4,0,28,12.6,28,28c0,7.5-2.9,14.5-8.2,19.8
		c-5.3,5.3-12.3,8.2-19.8,8.2c-9.6,0-18.7,3.7-25.5,10.5C447.7,77.3,444,86.4,444,96s3.7,18.7,10.5,25.5
		c6.8,6.8,15.8,10.5,25.5,10.5c15.4,0,28,12.6,28,28c0,7.5-2.9,14.5-8.2,19.8C494.5,185.1,487.5,188,480,188z"/>
	<path style="&st4;" d="M32,252c-7.5,0-14.5-2.9-19.8-8.2C6.9,238.5,4,231.5,4,224s2.9-14.5,8.2-19.8c5.3-5.3,12.3-8.2,19.8-8.2
		c9.6,0,18.7-3.7,25.5-10.5C64.3,178.7,68,169.6,68,160c0-7.5,2.9-14.5,8.2-19.8c5.3-5.3,12.3-8.2,19.8-8.2s14.5,2.9,19.8,8.2
		c5.3,5.3,8.2,12.3,8.2,19.8c0,15.4-12.6,28-28,28c-9.6,0-18.7,3.7-25.5,10.5C63.7,205.3,60,214.4,60,224C60,239.4,47.4,252,32,252z
		"/>
	<path style="&st4;" d="M224,252c-7.5,0-14.5-2.9-19.8-8.2c-5.3-5.3-8.2-12.3-8.2-19.8c0-19.9-16.1-36-36-36
		c-7.5,0-14.5-2.9-19.8-8.2c-5.3-5.3-8.2-12.3-8.2-19.8s2.9-14.5,8.2-19.8c5.3-5.3,12.3-8.2,19.8-8.2s14.5,2.9,19.8,8.2
		c5.3,5.3,8.2,12.3,8.2,19.8c0,9.6,3.7,18.7,10.5,25.5c6.8,6.8,15.8,10.5,25.5,10.5c7.5,0,14.5,2.9,19.8,8.2
		c5.3,5.3,8.2,12.3,8.2,19.8C252,239.4,239.4,252,224,252z"/>
	<path style="&st4;" d="M416,252c-7.5,0-14.5-2.9-19.8-8.2c-5.3-5.3-8.2-12.3-8.2-19.8c0-9.6-3.7-18.7-10.5-25.5
		c-6.8-6.8-15.8-10.5-25.5-10.5c-7.5,0-14.5-2.9-19.8-8.2c-5.3-5.3-8.2-12.3-8.2-19.8s2.9-14.5,8.2-19.8c5.3-5.3,12.3-8.2,19.8-8.2
		s14.5,2.9,19.8,8.2c5.3,5.3,8.2,12.3,8.2,19.8c0,9.6,3.7,18.7,10.5,25.5c6.8,6.8,15.8,10.5,25.5,10.5c7.5,0,14.5,2.9,19.8,8.2
		c5.3,5.3,8.2,12.3,8.2,19.8C444,239.4,431.4,252,416,252z"/>
	<path style="&st4;" d="M480,252c-7.5,0-14.5-2.9-19.8-8.2c-5.3-5.3-8.2-12.3-8.2-19.8s2.9-14.5,8.2-19.8c5.3-5.3,12.3-8.2,19.8-8.2
		c9.6,0,18.7-3.7,25.5-10.5c6.8-6.8,10.5-15.8,10.5-25.5c0-19.9-16.1-36-36-36c-7.5,0-14.5-2.9-19.8-8.2c-5.3-5.3-8.2-12.3-8.2-19.8
		s2.9-14.5,8.2-19.8c5.3-5.3,12.3-8.2,19.8-8.2c15.4,0,28,12.6,28,28c0,9.6,3.7,18.7,10.5,25.5c6.8,6.8,15.8,10.5,25.5,10.5
		c7.5,0,14.5,2.9,19.8,8.2c5.3,5.3,8.2,12.3,8.2,19.8c0,15.4-12.6,28-28,28c-9.6,0-18.7,3.7-25.5,10.5c-6.8,6.8-10.5,15.8-10.5,25.5
		C508,239.4,495.4,252,480,252z"/>
	<path style="&st4;" d="M-32,124c-7.5,0-14.5-2.9-19.8-8.2c-5.3-5.3-8.2-12.3-8.2-19.8s2.9-14.5,8.2-19.8C-46.5,70.9-39.5,68-32,68
		c9.6,0,18.7-3.7,25.5-10.5C0.3,50.7,4,41.6,4,32c0-7.5,2.9-14.5,8.2-19.8C17.5,6.9,24.5,4,32,4c15.4,0,28,12.6,28,28
		c0,7.5-2.9,14.5-8.2,19.8C46.5,57.1,39.5,60,32,60c-9.6,0-18.7,3.7-25.5,10.5C-0.3,77.3-4,86.4-4,96c0,0.3,0,0.6,0,0.9
		c0,0,0,0.4,0,0.5c0,0.5-0.1,1-0.1,1.5l0,0.2l0,0.2l0,0.2c0,0.3-0.1,0.5-0.1,0.8l0,0.3c0,0.3-0.1,0.6-0.2,0.8
		c-0.1,0.8-0.3,1.4-0.5,2.1l-0.2,0.8c0,0.1-0.1,0.2-0.1,0.3c-0.1,0.3-0.2,0.6-0.3,0.9l-0.3,0.8l-0.1,0.2c-0.1,0.2-0.2,0.5-0.3,0.7
		l-0.1,0.1c-0.3,0.6-0.6,1.2-0.9,1.9c-0.1,0.3-0.2,0.4-0.3,0.6c-0.4,0.7-0.7,1.2-1.1,1.7l0,0l-0.2,0.4c-0.2,0.3-0.4,0.6-0.6,0.8
		c-0.3,0.4-0.5,0.7-0.8,1l-0.1,0.1c-0.3,0.3-0.6,0.7-0.9,1c-0.3,0.3-0.6,0.6-0.9,0.9c-0.3,0.3-0.7,0.6-1,0.9
		c-0.3,0.3-0.6,0.5-0.9,0.8l-0.1,0.1c-0.3,0.3-0.7,0.5-1,0.8c-0.3,0.2-0.6,0.4-0.9,0.6l-0.4,0.2l0,0c-0.5,0.3-1,0.7-1.7,1
		c-0.2,0.1-0.4,0.2-0.6,0.3c-0.8,0.4-1.4,0.7-2,1l-0.1,0.1c-0.2,0.1-0.4,0.2-0.7,0.3l-0.2,0.1l-0.9,0.3c-0.3,0.1-0.6,0.2-0.9,0.3
		c-0.1,0-0.2,0.1-0.3,0.1l-0.9,0.2c-0.6,0.2-1.3,0.3-2,0.5c-0.3,0.1-0.6,0.1-0.9,0.2l-0.3,0c-0.3,0-0.5,0.1-0.8,0.1l-0.2,0l-0.2,0
		l-0.1,0l-0.2,0c-0.5,0.1-1,0.1-1.5,0.1c-0.1,0-0.5,0-0.5,0C-31.4,124-31.7,124-32,124z"/>
	<path style="&st4;" d="M160,60c-7.5,0-14.5-2.9-19.8-8.2c-5.3-5.3-8.2-12.3-8.2-19.8s2.9-14.5,8.2-19.8C145.5,6.9,152.5,4,160,4
		c15.4,0,28,12.6,28,28c0,7.5-2.9,14.5-8.2,19.8C174.5,57.1,167.5,60,160,60z"/>
	<path style="&st4;" d="M288,60c-7.5,0-14.5-2.9-19.8-8.2c-5.3-5.3-8.2-12.3-8.2-19.8s2.9-14.5,8.2-19.8C273.5,6.9,280.5,4,288,4
		c15.4,0,28,12.6,28,28c0,7.5-2.9,14.5-8.2,19.8C302.5,57.1,295.5,60,288,60z"/>
	<path style="&st4;" d="M416,60c-7.5,0-14.5-2.9-19.8-8.2c-5.3-5.3-8.2-12.3-8.2-19.8s2.9-14.5,8.2-19.8C401.5,6.9,408.5,4,416,4
		c15.4,0,28,12.6,28,28c0,7.5-2.9,14.5-8.2,19.8C430.5,57.1,423.5,60,416,60z"/>
	<path style="&st4;" d="M544,60c-7.5,0-14.5-2.9-19.8-8.2c-5.3-5.3-8.2-12.3-8.2-19.8s2.9-14.5,8.2-19.8C529.5,6.9,536.5,4,544,4
		c15.4,0,28,12.6,28,28c0,7.5-2.9,14.5-8.2,19.8C558.5,57.1,551.5,60,544,60z"/>
	<path style="&st4;" d="M608,124c-7.5,0-14.5-2.9-19.8-8.2c-5.3-5.3-8.2-12.3-8.2-19.8s2.9-14.5,8.2-19.8c5.3-5.3,12.3-8.2,19.8-8.2
		c19.9,0,36-16.1,36-36c0-7.5,2.9-14.5,8.2-19.8C657.5,6.9,664.5,4,672,4c15.4,0,28,12.6,28,28c0,7.5-2.9,14.5-8.2,19.8
		c-5.3,5.3-12.3,8.2-19.8,8.2c-9.6,0-18.7,3.7-25.5,10.5C639.7,77.3,636,86.4,636,96c0,5.7-1.7,11.2-4.9,15.8
		c-0.2,0.3-0.4,0.6-0.6,0.9c-0.3,0.4-0.6,0.7-0.8,1.1l-0.1,0.1c-0.3,0.3-0.6,0.7-0.9,1c-0.3,0.3-0.6,0.6-0.9,0.9
		c-0.3,0.3-0.7,0.6-1,0.9c-0.3,0.3-0.6,0.6-1,0.8l-0.1,0.1c-0.3,0.3-0.7,0.5-1,0.8c-0.3,0.3-0.6,0.5-0.9,0.7
		C619.2,122.3,613.7,124,608,124z"/>
	<path style="&st4;" d="M608,252c-7.5,0-14.5-2.9-19.8-8.2c-5.3-5.3-8.2-12.3-8.2-19.8v-64c0-15.4,12.6-28,28-28
		c7.3,0,14.4-2.2,20.4-6.3c0.4-0.3,0.8-0.6,1.2-0.9c0.4-0.3,0.9-0.7,1.3-1c0.4-0.4,0.9-0.7,1.3-1.1c0.5-0.4,0.9-0.8,1.3-1.2
		c0.4-0.4,0.8-0.8,1.2-1.2c0.4-0.5,0.8-0.9,1.2-1.3c0.4-0.4,0.7-0.9,1.1-1.4c0.2-0.3,0.5-0.7,0.8-1.1c4.1-6,6.3-13,6.3-20.4
		c0-7.5,2.9-14.5,8.2-19.8c5.3-5.3,12.3-8.2,19.8-8.2s14.5,2.9,19.8,8.2c5.3,5.3,8.2,12.3,8.2,19.8s-2.9,14.5-8.2,19.8
		c-5.3,5.3-12.3,8.2-19.8,8.2c-19.9,0-36,16.1-36,36v64C636,239.4,623.4,252,608,252z"/>
	<path style="&st4;" d="M-32,252c-7.5,0-14.5-2.9-19.8-8.2c-5.3-5.3-8.2-12.3-8.2-19.8v-64c0-15.4,12.6-28,28-28c0.4,0,0.7,0,1.1,0
		c0.1,0,0.6,0,0.6,0c0.8,0,1.4-0.1,2-0.2c0.2,0,0.4,0,0.6-0.1c0.4,0,0.8-0.1,1.2-0.2l0.1,0c0.4-0.1,0.8-0.1,1.2-0.2
		c0.9-0.2,1.8-0.4,2.7-0.6l1.4-0.4l0.1,0c0.4-0.1,0.7-0.2,1.1-0.4c0.4-0.1,0.7-0.3,1-0.4c0.1,0,0.2-0.1,0.4-0.2
		c0.3-0.1,0.6-0.3,1-0.4c0.8-0.4,1.7-0.8,2.5-1.2c0.3-0.1,0.6-0.3,0.9-0.5c0.9-0.5,1.7-1,2.5-1.5l0.3-0.2l0,0
		c0.3-0.2,0.5-0.4,0.8-0.6c0.4-0.3,0.9-0.7,1.3-1.1c0.4-0.4,0.9-0.7,1.3-1.1c0.5-0.4,0.9-0.8,1.3-1.2c0.4-0.4,0.8-0.8,1.2-1.2
		c0.4-0.5,0.8-0.9,1.1-1.3c0.4-0.4,0.7-0.9,1.1-1.4c0.2-0.2,0.4-0.5,0.5-0.7l0,0l0.2-0.3c0.5-0.7,1-1.5,1.6-2.5
		c0.2-0.3,0.3-0.6,0.5-0.9c0.5-0.8,0.9-1.7,1.2-2.5c0.1-0.3,0.3-0.6,0.4-1c0.1-0.1,0.1-0.3,0.2-0.4l0.4-1c0.1-0.4,0.3-0.7,0.4-1.1
		l0-0.1l0.4-1.4c0.2-0.9,0.5-1.8,0.6-2.7c0.1-0.4,0.2-0.8,0.2-1.3l0-0.1c0.1-0.4,0.1-0.8,0.2-1.2c0-0.2,0.1-0.4,0.1-0.6
		c0.1-0.7,0.1-1.4,0.2-2c0,0,0-0.5,0-0.6c0-0.4,0-0.7,0-1.1c0-7.5,2.9-14.5,8.2-19.8C17.5,70.9,24.5,68,32,68s14.5,2.9,19.8,8.2
		C57.1,81.5,60,88.5,60,96s-2.9,14.5-8.2,19.8c-5.3,5.3-12.3,8.2-19.8,8.2c-19.9,0-36,16.1-36,36v64C-4,239.4-16.6,252-32,252z"/>
	<path style="&st4;" d="M32,188c-7.5,0-14.5-2.9-19.8-8.2C6.9,174.5,4,167.5,4,160s2.9-14.5,8.2-19.8c5.3-5.3,12.3-8.2,19.8-8.2
		c19.9,0,36-16.1,36-36V32C68,16.6,80.6,4,96,4c7.5,0,14.5,2.9,19.8,8.2c5.3,5.3,8.2,12.3,8.2,19.8v64c0,15.4-12.6,28-28,28
		c-9.6,0-18.7,3.7-25.5,10.5C63.7,141.3,60,150.4,60,160c0,7.5-2.9,14.5-8.2,19.8C46.5,185.1,39.5,188,32,188z"/>
	<g style="&st0;">
		<path style="&st1;" d="M608,384h-64c8.8,0,16.8,3.6,22.6,9.4c5.8,5.8,9.4,13.8,9.4,22.6c0-8.8,3.6-16.8,9.4-22.6
			C591.2,387.6,599.2,384,608,384z"/>
		<path style="&st1;" d="M320.4,411c0.9-5.8,3.4-11,6.9-15.3C323.6,400.1,321.3,405.3,320.4,411z"/>
		<path style="&st1;" d="M224,384h-64c17.6,0,32,14.4,32,32c0-8.5,3.3-16.6,9.4-22.6C207.4,387.3,215.5,384,224,384z"/>
		<path style="&st1;" d="M415.8,384c-8.8,0-16.7,3.6-22.5,9.4c-5.8,5.8-9.3,13.7-9.4,22.5C384.1,398.3,398.3,384.1,415.8,384z"/>
		<path style="&st1;" d="M448,416c0-17.7,14.3-32,32-32h-64C433.7,384,448,398.3,448,416z"/>
		<path style="&st1;" d="M127.6,411.1c0.1,0.5,0.1,0.9,0.2,1.4C127.8,412.1,127.7,411.6,127.6,411.1z"/>
		<path style="&st1;" d="M99.5,384.2c0.5,0.1,0.9,0.1,1.4,0.2C100.4,384.3,99.9,384.2,99.5,384.2z"/>
		<path style="&st1;" d="M98,384.1c0.4,0,0.9,0.1,1.3,0.1C98.8,384.1,98.4,384.1,98,384.1z"/>
		<path style="&st1;" d="M128,414.4c0,0.5,0,1.1,0,1.6C128,415.5,128,414.9,128,414.4z"/>
		<path style="&st1;" d="M127.8,412.7c0,0.4,0.1,0.9,0.1,1.3C127.9,413.6,127.9,413.2,127.8,412.7z"/>
		<path style="&st1;" d="M96,384H32c17.7,0,32,14.3,32,32C64,398.3,78.3,384,96,384z"/>
		<path style="&st1;" d="M672,384c-8.8,0-16.8,3.6-22.6,9.4c-5.8,5.8-9.4,13.8-9.4,22.6c0,17.7-14.3,32-32,32
			c-8.8,0-16.8-3.6-22.6-9.4c-5.8-5.8-9.4-13.8-9.4-22.6c0,17.7-14.3,32-32,32c-8.8,0-16.8-3.6-22.6-9.4c-5.8-5.8-9.4-13.8-9.4-22.6
			c0,17.7-14.3,32-32,32h0c-17.7,0-32-14.3-32-32c0,17.7-14.3,32-32,32h0c-17.7,0-32-14.3-32-32c0,17.7-14.3,32-32,32
			c-8.8,0-16.8-3.6-22.6-9.4c-5.8-5.8-9.4-13.8-9.4-22.6c0,17.6-14.4,32-32,32h-64c-17.6,0-32-14.4-32-32c0,8.6-3.3,16.6-9.4,22.6
			c-6,6-14.1,9.4-22.6,9.4s-16.6-3.3-22.6-9.4c-6-6-9.4-14.1-9.4-22.6c0,17.7-14.3,32-32,32h0c-17.7,0-32-14.3-32-32
			c0,17.7-14.3,32-32,32h0c-17.7,0-32-14.3-32-32c0,17.7-14.3,32-32,32c-8.8,0-16.8-3.6-22.6-9.4c-5.8-5.8-9.4-13.8-9.4-22.6v96h768
			V384H672z"/>
		<path style="&st1;" d="M127.6,411.1c-1-6.7-4.1-12.8-9-17.7c-4.9-4.9-11-8-17.7-9C114.6,386.5,125.5,397.3,127.6,411.1z"/>
		<path style="&st1;" d="M96,384c0.5,0,1.1,0,1.6,0C97.1,384,96.5,384,96,384z"/>
		<path style="&st1;" d="M31.8,384c-8.8,0-16.7,3.6-22.5,9.4C3.6,399.1,0,407.1,0,415.8C0.1,398.3,14.3,384.1,31.8,384z"/>
		<path style="&st1;" d="M331.7,391.3c4.3-3.6,9.6-6,15.3-6.9C341.3,385.3,336.1,387.6,331.7,391.3z"/>
	</g>
	<g>
		<path style="&st4;" d="M0,335.5v33c2.6-4.9,4-10.5,4-16.5C4,346.2,2.6,340.5,0,335.5z"/>
		<path style="&st4;" d="M608,444c-7.5,0-14.5-2.9-19.8-8.2c-5.3-5.3-8.2-12.3-8.2-19.8s2.9-14.5,8.2-19.8
			c5.3-5.3,12.3-8.2,19.8-8.2c13.9,0,26-7.9,32-19.5v-33c-1.7-3.3-3.9-6.3-6.5-8.9c-6.8-6.8-15.8-10.5-25.5-10.5
			c-15.4,0-28-12.6-28-28c0-7.5,2.9-14.5,8.2-19.8c5.3-5.3,12.3-8.2,19.8-8.2s14.5,2.9,19.8,8.2c5.3,5.3,8.2,12.3,8.2,19.8
			c0,5.9,1.4,11.5,4,16.5V225h-68c-0.2,7.1-3.1,13.8-8.2,18.8c-5.3,5.3-12.3,8.2-19.8,8.2c-9.6,0-18.7,3.7-25.5,10.5
			S508,278.4,508,288c0,15.4-12.6,28-28,28h-64c-15.4,0-28-12.6-28-28c0-7.5,2.9-14.5,8.2-19.8c5.3-5.3,12.3-8.2,19.8-8.2h64
			c19.5,0,35.4-15.6,36-35H380c-0.2,7.1-3.1,13.8-8.2,18.8c-5.3,5.3-12.3,8.2-19.8,8.2c-19.9,0-36,16.1-36,36v64
			c0,15.4-12.6,28-28,28c-7.5,0-14.5-2.9-19.8-8.2c-5.3-5.3-8.2-12.3-8.2-19.8v-64c0-15.4,12.6-28,28-28c7.3,0,14.4-2.2,20.4-6.3
			c0.4-0.3,0.8-0.6,1.2-0.9c0.4-0.3,0.9-0.7,1.3-1c0.4-0.4,0.9-0.7,1.3-1.1c0.5-0.4,0.9-0.8,1.3-1.2c0.4-0.4,0.8-0.8,1.2-1.2
			c0.4-0.5,0.8-0.9,1.1-1.3c0.4-0.4,0.7-0.9,1.1-1.4c0.3-0.3,0.5-0.7,0.8-1.1c3.9-5.7,6.1-12.4,6.3-19.4h-8c-0.5,15-12.9,27-28,27
			c-9.6,0-18.7,3.7-25.5,10.5c-6.8,6.8-10.5,15.8-10.5,25.5c0,7.5-2.9,14.5-8.2,19.8c-5.3,5.3-12.3,8.2-19.8,8.2s-14.5-2.9-19.8-8.2
			c-5.3-5.3-8.2-12.3-8.2-19.8s2.9-14.5,8.2-19.8c5.3-5.3,12.3-8.2,19.8-8.2c19.5,0,35.4-15.6,36-35h-72c-0.5,15-12.9,27-28,27H96
			c-9.6,0-18.7,3.7-25.5,10.5C63.7,269.3,60,278.4,60,288c0,7.5-2.9,14.5-8.2,19.8c-5.3,5.3-12.3,8.2-19.8,8.2s-14.5-2.9-19.8-8.2
			C6.9,302.5,4,295.5,4,288s2.9-14.5,8.2-19.8c5.3-5.3,12.3-8.2,19.8-8.2c19.5,0,35.4-15.6,36-35H0v79.5C6,316.1,18.1,324,32,324
			c7.5,0,14.5,2.9,19.8,8.2c5.3,5.3,8.2,12.3,8.2,19.8s-2.9,14.5-8.2,19.8c-5.3,5.3-12.3,8.2-19.8,8.2c-9.6,0-18.7,3.7-25.5,10.5
			c-2.7,2.7-4.9,5.7-6.5,8.9V448h640v-48.5c-2.6,5-4,10.7-4,16.5C636,431.4,623.4,444,608,444z M32,444c-15.4,0-28-12.6-28-28
			s12.6-28,28-28s28,12.6,28,28S47.4,444,32,444z M524.2,268.2c5.3-5.3,12.3-8.2,19.8-8.2s14.5,2.9,19.8,8.2
			c5.3,5.3,8.2,12.3,8.2,19.8c0,9.6,3.7,18.7,10.5,25.5c6.8,6.8,15.8,10.5,25.5,10.5c7.5,0,14.5,2.9,19.8,8.2
			c5.3,5.3,8.2,12.3,8.2,19.8c0,15.4-12.6,28-28,28c-7.5,0-14.5-2.9-19.8-8.2c-5.3-5.3-8.2-12.3-8.2-19.8c0-9.6-3.7-18.7-10.5-25.5
			c-6.8-6.8-15.8-10.5-25.5-10.5c-7.5,0-14.5-2.9-19.8-8.2c-5.3-5.3-8.2-12.3-8.2-19.8S518.9,273.5,524.2,268.2z M160,260
			c15.4,0,28,12.6,28,28s-12.6,28-28,28s-28-12.6-28-28S144.6,260,160,260z M76.2,268.2c5.3-5.3,12.3-8.2,19.8-8.2
			s14.5,2.9,19.8,8.2c5.3,5.3,8.2,12.3,8.2,19.8c0,19.9,16.1,36,36,36h64c15.4,0,28,12.6,28,28c0,7.5-2.9,14.5-8.2,19.8
			c-5.3,5.3-12.3,8.2-19.8,8.2h-64c-15.4,0-28-12.6-28-28c0-0.4,0-0.7,0-1.1c0-0.1,0-0.6,0-0.6c0-0.8-0.1-1.4-0.2-2
			c0-0.2,0-0.4-0.1-0.6c0-0.4-0.1-0.8-0.2-1.2l0-0.1c-0.1-0.4-0.1-0.8-0.2-1.2c-0.2-0.9-0.4-1.8-0.6-2.7l-0.4-1.4l0-0.1
			c-0.1-0.4-0.2-0.7-0.4-1.1c-0.1-0.4-0.3-0.7-0.4-1c0-0.1-0.1-0.3-0.2-0.4c-0.1-0.3-0.3-0.6-0.4-1c-0.4-0.8-0.8-1.7-1.2-2.6
			c-0.1-0.3-0.3-0.6-0.5-0.9c-0.5-0.9-1-1.7-1.5-2.5l-0.2-0.3l-0.1-0.1c-0.2-0.3-0.4-0.6-0.6-0.8c-0.3-0.4-0.7-0.9-1-1.3
			c-0.4-0.4-0.7-0.9-1.1-1.3c-0.4-0.5-0.8-0.9-1.2-1.3c-0.4-0.4-0.8-0.8-1.2-1.2c-0.5-0.4-0.9-0.8-1.3-1.2c-0.4-0.4-0.9-0.7-1.4-1.1
			c-0.2-0.2-0.5-0.4-0.8-0.6l0,0l-0.3-0.2c-0.7-0.5-1.5-1-2.5-1.6c-0.3-0.2-0.6-0.3-0.9-0.5c-0.8-0.4-1.7-0.9-2.5-1.2
			c-0.3-0.1-0.6-0.3-1-0.4c-0.1-0.1-0.3-0.1-0.4-0.2c-0.3-0.1-0.6-0.2-1-0.4c-0.4-0.1-0.8-0.3-1.1-0.4l0,0l-1.4-0.4
			c-0.9-0.2-1.8-0.5-2.7-0.6c-0.4-0.1-0.8-0.2-1.2-0.2l-0.1,0c-0.4-0.1-0.8-0.1-1.2-0.2c-0.2,0-0.4-0.1-0.6-0.1
			c-0.6-0.1-1.2-0.1-2-0.2c0,0-0.5,0-0.6,0c-0.4,0-0.7,0-1.1,0c-7.5,0-14.5-2.9-19.8-8.2c-5.3-5.3-8.2-12.3-8.2-19.8
			S70.9,273.5,76.2,268.2z M96,444c-15.4,0-28-12.6-28-28s12.6-28,28-28s28,12.6,28,28S111.4,444,96,444z M179.8,435.8
			c-4.9,4.9-11.3,7.8-18.2,8.1c-0.1,0-0.1,0-0.2,0c-0.5,0-0.9,0-1.4,0c-0.9,0-1.9,0-2.8-0.1c-5.5-0.5-10.6-2.7-14.9-6.1
			c0,0-0.1,0-0.1-0.1c-0.6-0.5-1.2-1-1.7-1.5c-0.1-0.1-0.2-0.2-0.4-0.3c0,0,0,0,0,0s0,0,0,0c-0.1-0.1-0.2-0.2-0.3-0.4
			c-0.5-0.6-1.1-1.1-1.5-1.7c0,0,0-0.1-0.1-0.1c-3.5-4.3-5.6-9.4-6.1-14.9c-0.1-0.9-0.1-1.8-0.1-2.8c0-0.6,0-1.2,0-1.8
			c0-0.1,0-0.2,0-0.2c0-0.5-0.1-1.1-0.1-1.6c0,0,0,0,0,0c-1.7-16.9-15.2-30.4-32.1-32.1c0,0,0,0,0,0c-0.5-0.1-1.1-0.1-1.6-0.1
			c-0.1,0-0.2,0-0.2,0c-0.6,0-1.2,0-1.8,0c-0.9,0-1.9,0-2.8-0.1c-5.5-0.5-10.6-2.7-14.9-6.1c0,0-0.1,0-0.1-0.1
			c-0.6-0.5-1.2-1-1.7-1.5c-0.1-0.1-0.2-0.2-0.4-0.3c0,0,0,0,0,0s0,0,0,0c-0.1-0.1-0.2-0.2-0.3-0.4c-0.5-0.6-1.1-1.1-1.5-1.7
			c0,0,0-0.1-0.1-0.1c-3.5-4.3-5.6-9.4-6.1-14.9c-0.1-0.9-0.1-1.8-0.1-2.8s0-1.9,0.1-2.8c0.5-5.5,2.7-10.6,6.1-14.9
			c0,0,0-0.1,0.1-0.1c0.5-0.6,1-1.2,1.5-1.7c0.1-0.1,0.2-0.2,0.3-0.4c0,0,0,0,0,0s0,0,0,0c0.1-0.1,0.2-0.2,0.4-0.3
			c0.6-0.5,1.1-1.1,1.7-1.5c0,0,0.1,0,0.1-0.1c4.3-3.5,9.4-5.6,14.9-6.1c0.9-0.1,1.8-0.1,2.8-0.1c0.5,0,1,0,1.4,0c0.1,0,0.1,0,0.2,0
			c6.9,0.4,13.3,3.2,18.2,8.1c4.9,4.9,7.8,11.3,8.1,18.2c0,0.1,0,0.1,0,0.2c0,0.5,0,0.9,0,1.4c0,0.6,0,1.2,0,1.8c0,0.1,0,0.2,0,0.2
			c0,0.5,0.1,1.1,0.1,1.6c0,0,0,0,0,0c1.7,16.9,15.2,30.4,32.1,32.1c0,0,0,0,0,0c0.5,0.1,1.1,0.1,1.6,0.1c0.1,0,0.2,0,0.2,0
			c0.6,0,1.2,0,1.8,0c0.5,0,1,0,1.4,0c0.1,0,0.1,0,0.2,0c6.9,0.4,13.3,3.2,18.2,8.1c4.9,4.9,7.8,11.3,8.1,18.2c0,0.1,0,0.1,0,0.2
			c0,0.5,0,0.9,0,1.4s0,1,0,1.4c0,0.1,0,0.1,0,0.2C187.6,424.5,184.7,430.9,179.8,435.8z M288,444h-64c-15.4,0-28-12.6-28-28
			c0-7.5,2.9-14.5,8.2-19.8c5.3-5.3,12.3-8.2,19.8-8.2h64c19.9,0,36-16.1,36-36c0-1.4,0.1-2.8,0.3-4.2c0.2-1.4,0.5-2.7,0.9-4
			c1.3-4.4,3.7-8.3,7-11.6c1.3-1.3,2.8-2.5,4.3-3.5c3.8-2.5,8.2-4.1,12.7-4.6c0.9-0.1,1.8-0.1,2.8-0.1c15.4,0,28,12.6,28,28
			c0,7.5-2.9,14.5-8.2,19.8c-5.3,5.3-12.3,8.2-19.8,8.2c-9.6,0-18.7,3.7-25.5,10.5S316,406.4,316,416C316,431.4,303.4,444,288,444z
			 M416,444c-15.4,0-28-12.6-28-28s12.6-28,28-28s28,12.6,28,28S431.4,444,416,444z M416,380c-9.6,0-18.7,3.7-25.5,10.5
			S380,406.4,380,416c0,15.4-12.6,28-28,28c-7.5,0-14.5-2.9-19.8-8.2c-5.3-5.3-8.2-12.3-8.2-19.8s2.9-14.5,8.2-19.8
			c5.3-5.3,12.3-8.2,19.8-8.2c9.6,0,18.7-3.7,25.5-10.5S388,361.6,388,352c0-19.9-16.1-36-36-36c-7.5,0-14.5-2.9-19.8-8.2
			c-5.3-5.3-8.2-12.3-8.2-19.8s2.9-14.5,8.2-19.8c5.3-5.3,12.3-8.2,19.8-8.2c15.4,0,28,12.6,28,28c0,9.6,3.7,18.7,10.5,25.5
			S406.4,324,416,324c7.5,0,14.5,2.9,19.8,8.2c5.3,5.3,8.2,12.3,8.2,19.8C444,367.4,431.4,380,416,380z M480,444
			c-15.4,0-28-12.6-28-28s12.6-28,28-28s28,12.6,28,28S495.4,444,480,444z M544,444c-7.5,0-14.5-2.9-19.8-8.2
			c-5.3-5.3-8.2-12.3-8.2-19.8c0-19.9-16.1-36-36-36c-7.5,0-14.5-2.9-19.8-8.2c-5.3-5.3-8.2-12.3-8.2-19.8s2.9-14.5,8.2-19.8
			c5.3-5.3,12.3-8.2,19.8-8.2s14.5,2.9,19.8,8.2c5.3,5.3,8.2,12.3,8.2,19.8c0,19.9,16.1,36,36,36c7.5,0,14.5,2.9,19.8,8.2
			c5.3,5.3,8.2,12.3,8.2,19.8C572,431.4,559.4,444,544,444z M563.8,371.8c-5.3,5.3-12.3,8.2-19.8,8.2s-14.5-2.9-19.8-8.2
			c-5.3-5.3-8.2-12.3-8.2-19.8s2.9-14.5,8.2-19.8c5.3-5.3,12.3-8.2,19.8-8.2c15.4,0,28,12.6,28,28
			C572,359.5,569.1,366.5,563.8,371.8z"/>
		<path style="&st5;" d="M76.6,331.9c0.6-0.5,1.1-1.1,1.7-1.5C77.7,330.8,77.1,331.3,76.6,331.9z"/>
		<path style="&st5;" d="M74.3,369.7C74.3,369.7,74.3,369.7,74.3,369.7C74.3,369.7,74.3,369.7,74.3,369.7z"/>
		<path style="&st5;" d="M76.2,332.2c-0.1,0.1-0.2,0.2-0.3,0.4C76,332.4,76.1,332.3,76.2,332.2C76.2,332.2,76.2,332.2,76.2,332.2z"
			/>
		<path style="&st5;" d="M78.3,373.7c-0.6-0.5-1.2-1-1.7-1.5C77.1,372.7,77.7,373.2,78.3,373.7z"/>
		<path style="&st5;" d="M74.3,334.3C74.3,334.3,74.3,334.3,74.3,334.3C74.3,334.3,74.3,334.3,74.3,334.3z"/>
		<path style="&st5;" d="M76.2,371.8C76.2,371.8,76.2,371.8,76.2,371.8c-0.1-0.1-0.2-0.2-0.3-0.4C76,371.6,76.1,371.7,76.2,371.8z"
			/>
		<path style="&st5;" d="M99.7,380.2C99.7,380.2,99.7,380.2,99.7,380.2C99.7,380.2,99.7,380.2,99.7,380.2z"/>
		<path style="&st5;" d="M131.8,412.3C131.8,412.3,131.8,412.3,131.8,412.3C131.8,412.3,131.8,412.3,131.8,412.3z"/>
		<path style="&st5;" d="M98.1,380.1c-0.1,0-0.2,0-0.2,0C97.9,380.1,98,380.1,98.1,380.1z"/>
		<path style="&st5;" d="M93.2,379.9c-5.5-0.5-10.6-2.7-14.9-6.1C82.6,377.2,87.7,379.3,93.2,379.9z"/>
		<path style="&st5;" d="M132,414.2c0-0.1,0-0.2,0-0.2C131.9,414,131.9,414.1,132,414.2z"/>
		<path style="&st5;" d="M157.9,387.9c0.1,0,0.2,0,0.2,0C158.1,387.9,158,387.9,157.9,387.9z"/>
		<path style="&st5;" d="M188,414.4c0,0.1,0,0.1,0,0.2C188,414.5,188,414.4,188,414.4z"/>
		<path style="&st5;" d="M188,416c0,0.5,0,1,0,1.4C188,417,188,416.5,188,416z"/>
		<path style="&st5;" d="M156.3,387.8C156.3,387.8,156.3,387.8,156.3,387.8C156.3,387.8,156.3,387.8,156.3,387.8z"/>
		<path style="&st5;" d="M161.6,444c6.9-0.4,13.3-3.2,18.2-8.1c4.9-4.9,7.8-11.3,8.1-18.2C187.1,431.8,175.8,443.1,161.6,444z"/>
		<path style="&st5;" d="M124.2,355.7C124.2,355.7,124.2,355.7,124.2,355.7C124.2,355.7,124.2,355.7,124.2,355.7z"/>
		<path style="&st5;" d="M124,350.4c0,0.1,0,0.1,0,0.2C124,350.5,124,350.4,124,350.4z"/>
		<path style="&st5;" d="M97.4,324c0.1,0,0.1,0,0.2,0C97.6,324,97.5,324,97.4,324z"/>
		<path style="&st8;" d="M78.3,330.3c4.3-3.5,9.4-5.6,14.9-6.1C87.7,324.7,82.6,326.8,78.3,330.3z"/>
		<path style="&st8;" d="M124,353.8c0,0.1,0,0.2,0,0.2C124.1,354,124.1,353.9,124,353.8z"/>
		<path style="&st8;" d="M161.4,388c0.1,0,0.1,0,0.2,0C161.6,388,161.5,388,161.4,388z"/>
		<path style="&st8;" d="M142.3,437.7c-0.6-0.5-1.2-1-1.7-1.5C141.1,436.7,141.7,437.2,142.3,437.7z"/>
		<path style="&st8;" d="M138.3,433.7C138.3,433.7,138.3,433.7,138.3,433.7C138.3,433.7,138.3,433.7,138.3,433.7z"/>
		<path style="&st8;" d="M140.2,435.8C140.2,435.8,140.2,435.8,140.2,435.8c-0.1-0.1-0.2-0.2-0.3-0.4
			C140,435.6,140.1,435.7,140.2,435.8z"/>
		<path style="&st8;" d="M157.2,443.9c-5.5-0.5-10.6-2.7-14.9-6.1C146.6,441.2,151.7,443.3,157.2,443.9z"/>
		<path style="&st8;" d="M161.4,444c-0.5,0-0.9,0-1.4,0C160.5,444,161,444,161.4,444z"/>
		<path style="&st9;" d="M32,260c-7.5,0-14.5,2.9-19.8,8.2C6.9,273.5,4,280.5,4,288s2.9,14.5,8.2,19.8c5.3,5.3,12.3,8.2,19.8,8.2
			s14.5-2.9,19.8-8.2c5.3-5.3,8.2-12.3,8.2-19.8c0-9.6,3.7-18.7,10.5-25.5C77.3,255.7,86.4,252,96,252h64c15.1,0,27.4-12,28-27
			c0-0.3,0-0.7,0-1c0-15.4-12.6-28-28-28H96c-7.5,0-14.5,2.9-19.8,8.2c-5.3,5.3-8.2,12.3-8.2,19.8c0,0.3,0,0.7,0,1
			C67.4,244.4,51.5,260,32,260z"/>
		<path style="&st9;" d="M224,260c-7.5,0-14.5,2.9-19.8,8.2c-5.3,5.3-8.2,12.3-8.2,19.8s2.9,14.5,8.2,19.8
			c5.3,5.3,12.3,8.2,19.8,8.2s14.5-2.9,19.8-8.2c5.3-5.3,8.2-12.3,8.2-19.8c0-9.6,3.7-18.7,10.5-25.5c6.8-6.8,15.8-10.5,25.5-10.5
			c15.1,0,27.4-12,28-27c0-0.3,0-0.7,0-1v-64c0-7.5-2.9-14.5-8.2-19.8c-5.3-5.3-12.3-8.2-19.8-8.2c-15.4,0-28,12.6-28,28v64
			c0,0.3,0,0.7,0,1C259.4,244.4,243.5,260,224,260z"/>
		<circle style="&st10;" cx="160" cy="288" r="28"/>
		<path style="&st9;" d="M480,260h-64c-7.5,0-14.5,2.9-19.8,8.2c-5.3,5.3-8.2,12.3-8.2,19.8c0,15.4,12.6,28,28,28h64
			c15.4,0,28-12.6,28-28c0-9.6,3.7-18.7,10.5-25.5S534.4,252,544,252c7.5,0,14.5-2.9,19.8-8.2c5-5.1,7.9-11.7,8.2-18.8
			c0-0.3,0-0.7,0-1c0-15.4-12.6-28-28-28c-7.5,0-14.5,2.9-19.8,8.2c-5.3,5.3-8.2,12.3-8.2,19.8c0,0.3,0,0.7,0,1
			C515.4,244.4,499.5,260,480,260z"/>
		<path style="&st10;" d="M336.5,328.7c-1.5,1-3,2.2-4.3,3.5c-3.3,3.3-5.7,7.3-7,11.6c1.3-4.4,3.7-8.3,7-11.6
			C333.5,330.9,335,329.7,336.5,328.7z"/>
		<path style="&st10;" d="M324.3,347.8c0.2-1.4,0.5-2.7,0.9-4C324.8,345.1,324.5,346.5,324.3,347.8z"/>
		<path style="&st10;" d="M544,324c-7.5,0-14.5,2.9-19.8,8.2c-5.3,5.3-8.2,12.3-8.2,19.8s2.9,14.5,8.2,19.8
			c5.3,5.3,12.3,8.2,19.8,8.2s14.5-2.9,19.8-8.2c5.3-5.3,8.2-12.3,8.2-19.8C572,336.6,559.4,324,544,324z"/>
		<path style="&st9;" d="M316.9,245.5c-0.3,0.5-0.7,0.9-1.1,1.4c-0.4,0.4-0.7,0.9-1.1,1.3c-0.4,0.4-0.8,0.8-1.2,1.2
			c-0.4,0.4-0.8,0.8-1.3,1.2c-0.4,0.4-0.8,0.8-1.3,1.1c-0.4,0.4-0.9,0.7-1.3,1c-0.4,0.3-0.8,0.6-1.2,0.9c-6,4.1-13.1,6.3-20.4,6.3
			c-15.4,0-28,12.6-28,28v64c0,7.5,2.9,14.5,8.2,19.8c5.3,5.3,12.3,8.2,19.8,8.2c15.4,0,28-12.6,28-28v-64c0-19.9,16.1-36,36-36
			c7.5,0,14.5-2.9,19.8-8.2c5-5.1,7.9-11.7,8.2-18.8c0-0.3,0-0.7,0-1c0-7.5-2.9-14.5-8.2-19.8c-5.3-5.3-12.3-8.2-19.8-8.2
			s-14.5,2.9-19.8,8.2c-5.3,5.3-8.2,12.3-8.2,19.8c0,0.3,0,0.7,0,1c-0.2,7-2.3,13.6-6.3,19.4C317.4,244.8,317.1,245.2,316.9,245.5z"
			/>
		<path style="&st8;" d="M96,316c0.4,0,0.7,0,1.1,0c0.1,0,0.6,0,0.6,0c0.8,0,1.4,0.1,2,0.2c0.2,0,0.4,0,0.6,0.1
			c0.4,0,0.8,0.1,1.2,0.2l0.1,0c0.4,0.1,0.8,0.1,1.2,0.2c1,0.2,1.9,0.4,2.7,0.6l1.4,0.4l0,0c0.4,0.1,0.7,0.2,1.1,0.4
			c0.3,0.1,0.6,0.2,1,0.4c0.1,0,0.3,0.1,0.4,0.2c0.3,0.1,0.6,0.3,1,0.4c0.8,0.4,1.7,0.8,2.5,1.2c0.3,0.2,0.7,0.4,0.9,0.5
			c1,0.6,1.8,1.1,2.5,1.6l0.3,0.2l0,0c0.3,0.2,0.5,0.4,0.8,0.6c0.5,0.3,0.9,0.7,1.4,1.1c0.4,0.4,0.9,0.7,1.3,1.2
			c0.4,0.4,0.8,0.8,1.2,1.2c0.4,0.4,0.8,0.8,1.2,1.3c0.4,0.4,0.7,0.8,1.1,1.3c0.4,0.4,0.7,0.9,1,1.3c0.2,0.3,0.4,0.6,0.6,0.8
			l0.1,0.1l0.2,0.3c0.5,0.7,1,1.5,1.5,2.5c0.2,0.3,0.4,0.7,0.5,0.9c0.5,0.9,0.9,1.7,1.2,2.6c0.1,0.3,0.3,0.6,0.4,1
			c0.1,0.1,0.1,0.3,0.2,0.4c0.1,0.3,0.2,0.6,0.4,1c0.1,0.3,0.2,0.7,0.4,1.1l0,0.1l0.4,1.4c0.2,0.9,0.5,1.8,0.6,2.7
			c0.1,0.4,0.2,0.8,0.2,1.2l0,0.1c0.1,0.4,0.1,0.8,0.2,1.2c0,0.2,0.1,0.4,0.1,0.6c0.1,0.6,0.1,1.2,0.2,2c0,0,0,0.5,0,0.6
			c0,0.4,0,0.7,0,1.1c0,15.4,12.6,28,28,28h64c7.5,0,14.5-2.9,19.8-8.2c5.3-5.3,8.2-12.3,8.2-19.8c0-15.4-12.6-28-28-28h-64
			c-19.9,0-36-16.1-36-36c0-7.5-2.9-14.5-8.2-19.8c-5.3-5.3-12.3-8.2-19.8-8.2s-14.5,2.9-19.8,8.2c-5.3,5.3-8.2,12.3-8.2,19.8
			s2.9,14.5,8.2,19.8C81.5,313.1,88.5,316,96,316z"/>
		<path style="&st8;" d="M416,324c-9.6,0-18.7-3.7-25.5-10.5S380,297.6,380,288c0-15.4-12.6-28-28-28c-7.5,0-14.5,2.9-19.8,8.2
			c-5.3,5.3-8.2,12.3-8.2,19.8s2.9,14.5,8.2,19.8c5.3,5.3,12.3,8.2,19.8,8.2c19.9,0,36,16.1,36,36c0,9.6-3.7,18.7-10.5,25.5
			S361.6,388,352,388c-7.5,0-14.5,2.9-19.8,8.2c-5.3,5.3-8.2,12.3-8.2,19.8s2.9,14.5,8.2,19.8c5.3,5.3,12.3,8.2,19.8,8.2
			c15.4,0,28-12.6,28-28c0-9.6,3.7-18.7,10.5-25.5S406.4,380,416,380c15.4,0,28-12.6,28-28c0-7.5-2.9-14.5-8.2-19.8
			C430.5,326.9,423.5,324,416,324z"/>
		<path style="&st8;" d="M544,388c-19.9,0-36-16.1-36-36c0-7.5-2.9-14.5-8.2-19.8c-5.3-5.3-12.3-8.2-19.8-8.2s-14.5,2.9-19.8,8.2
			c-5.3,5.3-8.2,12.3-8.2,19.8s2.9,14.5,8.2,19.8c5.3,5.3,12.3,8.2,19.8,8.2c19.9,0,36,16.1,36,36c0,7.5,2.9,14.5,8.2,19.8
			c5.3,5.3,12.3,8.2,19.8,8.2c15.4,0,28-12.6,28-28c0-7.5-2.9-14.5-8.2-19.8C558.5,390.9,551.5,388,544,388z"/>
		<path style="&st8;" d="M672,324c-13.9,0-26-7.9-32-19.5c-2.6-4.9-4-10.5-4-16.5c0-7.5-2.9-14.5-8.2-19.8
			c-5.3-5.3-12.3-8.2-19.8-8.2s-14.5,2.9-19.8,8.2c-5.3,5.3-8.2,12.3-8.2,19.8c0,15.4,12.6,28,28,28c9.6,0,18.7,3.7,25.5,10.5
			c2.7,2.7,4.9,5.7,6.5,8.9c2.6,5,4,10.7,4,16.5c0,5.9-1.4,11.5-4,16.5c-6,11.6-18.1,19.5-32,19.5c-7.5,0-14.5,2.9-19.8,8.2
			c-5.3,5.3-8.2,12.3-8.2,19.8s2.9,14.5,8.2,19.8c5.3,5.3,12.3,8.2,19.8,8.2c15.4,0,28-12.6,28-28c0-5.8,1.4-11.5,4-16.5
			c1.7-3.3,3.9-6.3,6.5-8.9c6.8-6.8,15.8-10.5,25.5-10.5c7.5,0,14.5-2.9,19.8-8.2c5.3-5.3,8.2-12.3,8.2-19.8s-2.9-14.5-8.2-19.8
			C686.5,326.9,679.5,324,672,324z"/>
		<path style="&st8;" d="M188,416c0-0.5,0-1,0-1.4c0-0.1,0-0.1,0-0.2c-0.4-6.9-3.2-13.3-8.1-18.2c-4.9-4.9-11.3-7.8-18.2-8.1
			c-0.1,0-0.1,0-0.2,0c-0.5,0-0.9,0-1.4,0c-0.6,0-1.2,0-1.8,0c-0.1,0-0.2,0-0.2,0c-0.5,0-1.1-0.1-1.6-0.1c0,0,0,0,0,0
			c-16.9-1.7-30.4-15.2-32.1-32.1c0,0,0,0,0,0c-0.1-0.5-0.1-1.1-0.1-1.6c0-0.1,0-0.2,0-0.2c0-0.6,0-1.2,0-1.8c0-0.5,0-1,0-1.4
			c0-0.1,0-0.1,0-0.2c-0.4-6.9-3.2-13.3-8.1-18.2c-4.9-4.9-11.3-7.8-18.2-8.1c-0.1,0-0.1,0-0.2,0c-0.5,0-0.9,0-1.4,0
			c-0.9,0-1.9,0-2.8,0.1c-5.5,0.5-10.6,2.7-14.9,6.1c0,0-0.1,0-0.1,0.1c-0.6,0.5-1.2,1-1.7,1.5c-0.1,0.1-0.2,0.2-0.4,0.3
			c0,0,0,0,0,0c-0.1,0.1-0.2,0.2-0.3,0.4c-0.5,0.6-1.1,1.1-1.5,1.7c0,0,0,0.1-0.1,0.1c-3.5,4.3-5.6,9.4-6.1,14.9
			c-0.1,0.9-0.1,1.8-0.1,2.8s0,1.9,0.1,2.8c0.5,5.5,2.7,10.6,6.1,14.9c0,0,0,0.1,0.1,0.1c0.5,0.6,1,1.2,1.5,1.7
			c0.1,0.1,0.2,0.2,0.3,0.4c0,0,0,0,0,0c0.1,0.1,0.2,0.2,0.4,0.3c0.6,0.5,1.1,1.1,1.7,1.5c0,0,0.1,0,0.1,0.1
			c4.3,3.5,9.4,5.6,14.9,6.1c0.9,0.1,1.8,0.1,2.8,0.1c0.6,0,1.2,0,1.8,0c0.1,0,0.2,0,0.2,0c0.5,0,1.1,0.1,1.6,0.1c0,0,0,0,0,0
			c16.9,1.7,30.4,15.2,32.1,32.1c0,0,0,0,0,0c0.1,0.5,0.1,1.1,0.1,1.6c0,0.1,0,0.2,0,0.2c0,0.6,0,1.2,0,1.8c0,0.9,0,1.9,0.1,2.8
			c0.5,5.5,2.7,10.6,6.1,14.9c0,0,0,0.1,0.1,0.1c0.5,0.6,1,1.2,1.5,1.7c0.1,0.1,0.2,0.2,0.3,0.4c0,0,0,0,0,0
			c0.1,0.1,0.2,0.2,0.4,0.3c0.6,0.5,1.1,1.1,1.7,1.5c0,0,0.1,0,0.1,0.1c4.3,3.5,9.4,5.6,14.9,6.1c0.9,0.1,1.8,0.1,2.8,0.1
			c0.5,0,1,0,1.4,0c0.1,0,0.1,0,0.2,0c14.2-0.8,25.5-12.2,26.3-26.3c0-0.1,0-0.1,0-0.2C188,417,188,416.5,188,416z"/>
		<path style="&st8;" d="M32,380c7.5,0,14.5-2.9,19.8-8.2c5.3-5.3,8.2-12.3,8.2-19.8s-2.9-14.5-8.2-19.8c-5.3-5.3-12.3-8.2-19.8-8.2
			c-13.9,0-26-7.9-32-19.5c-2.6-4.9-4-10.5-4-16.5c0-7.5-2.9-14.5-8.2-19.8c-5.3-5.3-12.3-8.2-19.8-8.2s-14.5,2.9-19.8,8.2
			c-5.3,5.3-8.2,12.3-8.2,19.8c0,15.4,12.6,28,28,28c9.6,0,18.7,3.7,25.5,10.5c2.7,2.7,4.9,5.7,6.5,8.9c2.6,5,4,10.7,4,16.5
			c0,5.9-1.4,11.5-4,16.5C-6,380.1-18.1,388-32,388c-7.5,0-14.5,2.9-19.8,8.2c-5.3,5.3-8.2,12.3-8.2,19.8s2.9,14.5,8.2,19.8
			c5.3,5.3,12.3,8.2,19.8,8.2c15.4,0,28-12.6,28-28c0-5.8,1.4-11.5,4-16.5c1.7-3.3,3.9-6.3,6.5-8.9C13.3,383.7,22.4,380,32,380z"/>
		<path style="&st8;" d="M352,380c7.5,0,14.5-2.9,19.8-8.2c5.3-5.3,8.2-12.3,8.2-19.8c0-15.4-12.6-28-28-28c-0.9,0-1.9,0-2.8,0.1
			c-4.6,0.4-8.9,2-12.7,4.6c-1.5,1-3,2.2-4.3,3.5c-3.3,3.3-5.7,7.3-7,11.6c-0.4,1.3-0.7,2.6-0.9,4c-0.2,1.4-0.3,2.7-0.3,4.2
			c0,19.9-16.1,36-36,36h-64c-7.5,0-14.5,2.9-19.8,8.2c-5.3,5.3-8.2,12.3-8.2,19.8c0,15.4,12.6,28,28,28h64c15.4,0,28-12.6,28-28
			c0-9.6,3.7-18.7,10.5-25.5S342.4,380,352,380z"/>
		<circle style="&st11;" cx="32" cy="416" r="28"/>
		<circle style="&st11;" cx="96" cy="416" r="28"/>
		<circle style="&st11;" cx="416" cy="416" r="28"/>
		<circle style="&st11;" cx="480" cy="416" r="28"/>
		<path style="&st8;" d="M544,316c9.6,0,18.7,3.7,25.5,10.5c6.8,6.8,10.5,15.8,10.5,25.5c0,7.5,2.9,14.5,8.2,19.8
			c5.3,5.3,12.3,8.2,19.8,8.2c15.4,0,28-12.6,28-28c0-7.5-2.9-14.5-8.2-19.8c-5.3-5.3-12.3-8.2-19.8-8.2c-9.6,0-18.7-3.7-25.5-10.5
			c-6.8-6.8-10.5-15.8-10.5-25.5c0-7.5-2.9-14.5-8.2-19.8c-5.3-5.3-12.3-8.2-19.8-8.2s-14.5,2.9-19.8,8.2
			c-5.3,5.3-8.2,12.3-8.2,19.8s2.9,14.5,8.2,19.8C529.5,313.1,536.5,316,544,316z"/>
	</g>
</g>
<g id="grid_copy_2" style="&st0;">
	<rect y="64" style="&st1;" width="64" height="64"/>
	<rect x="64" y="64" style="&st1;" width="64" height="64"/>
	<rect x="128" y="64" style="&st1;" width="64" height="64"/>
	<rect x="192" y="64" style="&st1;" width="64" height="64"/>
	<rect x="256" y="64" style="&st1;" width="64" height="64"/>
	<rect x="320" y="64" style="&st1;" width="64" height="64"/>
	<rect x="384" y="64" style="&st1;" width="64" height="64"/>
	<rect x="448" y="64" style="&st1;" width="64" height="64"/>
	<rect x="512" y="64" style="&st1;" width="64" height="64"/>
	<rect x="576" y="64" style="&st1;" width="64" height="64"/>
	<rect y="128" style="&st1;" width="64" height="64"/>
	<rect x="64" y="128" style="&st1;" width="64" height="64"/>
	<rect x="128" y="128" style="&st1;" width="64" height="64"/>
	<rect x="192" y="128" style="&st1;" width="64" height="64"/>
	<rect x="256" y="128" style="&st1;" width="64" height="64"/>
	<rect x="320" y="128" style="&st1;" width="64" height="64"/>
	<rect x="384" y="128" style="&st1;" width="64" height="64"/>
	<rect x="448" y="128" style="&st1;" width="64" height="64"/>
	<rect x="512" y="128" style="&st1;" width="64" height="64"/>
	<rect x="576" y="128" style="&st1;" width="64" height="64"/>
	<rect y="192" style="&st1;" width="64" height="64"/>
	<rect x="64" y="192" style="&st1;" width="64" height="64"/>
	<rect x="128" y="192" style="&st1;" width="64" height="64"/>
	<rect x="192" y="192" style="&st1;" width="64" height="64"/>
	<rect x="256" y="192" style="&st1;" width="64" height="64"/>
	<rect x="320" y="192" style="&st1;" width="64" height="64"/>
	<rect x="384" y="192" style="&st1;" width="64" height="64"/>
	<rect x="448" y="192" style="&st1;" width="64" height="64"/>
	<rect x="512" y="192" style="&st1;" width="64" height="64"/>
	<rect x="576" y="192" style="&st1;" width="64" height="64"/>
	<rect y="256" style="&st1;" width="64" height="64"/>
	<rect x="64" y="256" style="&st1;" width="64" height="64"/>
	<rect x="128" y="256" style="&st1;" width="64" height="64"/>
	<rect x="192" y="256" style="&st1;" width="64" height="64"/>
	<rect x="256" y="256" style="&st1;" width="64" height="64"/>
	<rect x="320" y="256" style="&st1;" width="64" height="64"/>
	<rect x="384" y="256" style="&st1;" width="64" height="64"/>
	<rect x="448" y="256" style="&st1;" width="64" height="64"/>
	<rect x="512" y="256" style="&st1;" width="64" height="64"/>
	<rect x="576" y="256" style="&st1;" width="64" height="64"/>
	<rect y="320" style="&st1;" width="64" height="64"/>
	<rect x="64" y="320" style="&st1;" width="64" height="64"/>
	<rect x="128" y="320" style="&st1;" width="64" height="64"/>
	<rect x="192" y="320" style="&st1;" width="64" height="64"/>
	<rect x="256" y="320" style="&st1;" width="64" height="64"/>
	<rect x="320" y="320" style="&st1;" width="64" height="64"/>
	<rect x="384" y="320" style="&st1;" width="64" height="64"/>
	<rect x="448" y="320" style="&st1;" width="64" height="64"/>
	<rect x="512" y="320" style="&st1;" width="64" height="64"/>
	<rect x="576" y="320" style="&st1;" width="64" height="64"/>
</g>
<g id="grid_copy" style="&st0;">
	<path style="&st12;" d="M96,124c-7.5,0-14.5-2.9-19.8-8.2C70.9,110.5,68,103.5,68,96s2.9-14.5,8.2-19.8C81.5,70.9,88.5,68,96,68
		c15.4,0,28,12.6,28,28c0,7.5-2.9,14.5-8.2,19.8C110.5,121.1,103.5,124,96,124z"/>
	<circle style="&st13;" cx="160" cy="96" r="28"/>
	<path style="&st14;" d="M352,120c-6.4,0-12.4-2.5-17-7c-4.5-4.5-7-10.6-7-17s2.5-12.4,7-17c4.5-4.5,10.6-7,17-7
		c13.2,0,24,10.8,24,24c0,6.4-2.5,12.4-7,17C364.4,117.5,358.4,120,352,120z"/>
	<path style="&st15;" d="M480,188c-7.5,0-14.5-2.9-19.8-8.2c-5.3-5.3-8.2-12.3-8.2-19.8s2.9-14.5,8.2-19.8
		c5.3-5.3,12.3-8.2,19.8-8.2s14.5,2.9,19.8,8.2c5.3,5.3,8.2,12.3,8.2,19.8C508,175.4,495.4,188,480,188z"/>
	<path style="&st16;" d="M416,188c-15.4,0-28-12.6-28-28c0-5.7,1.7-11.2,4.9-15.8c0.2-0.3,0.4-0.6,0.6-0.9c0.3-0.4,0.6-0.7,0.8-1.1
		l0.1-0.1c0.3-0.3,0.6-0.7,0.9-1c0.3-0.3,0.6-0.6,0.9-0.9c0.3-0.3,0.7-0.6,1-0.9c0.3-0.3,0.6-0.5,1-0.8l0.1-0.1
		c0.3-0.3,0.7-0.5,1-0.8c0.3-0.3,0.6-0.5,0.9-0.7c4.7-3.2,10.1-4.9,15.8-4.9c19.9,0,36-16.1,36-36c0-7.5,2.9-14.5,8.2-19.8
		c5.3-5.3,12.3-8.2,19.8-8.2s14.5,2.9,19.8,8.2c5.3,5.3,8.2,12.3,8.2,19.8c0,15.4-12.6,28-28,28c-9.6,0-18.7,3.7-25.5,10.5
		c-6.8,6.8-10.5,15.8-10.5,25.5C444,175.4,431.4,188,416,188z"/>
	<path style="&st12;" d="M96,188c-7.5,0-14.5-2.9-19.8-8.2c-5.3-5.3-8.2-12.3-8.2-19.8c0-9.6-3.7-18.7-10.5-25.5
		c-5.8-5.8-13.5-9.5-21.7-10.3c-1.3-0.1-2.5-0.2-3.8-0.2c-0.3,0-0.6,0-0.9,0c0,0-0.4,0-0.5,0c-0.5,0-1-0.1-1.5-0.1l-0.2,0l-0.2,0
		l-0.2,0c-0.3,0-0.5-0.1-0.8-0.1l-0.3,0c-0.3,0-0.6-0.1-0.8-0.2c-0.4-0.1-0.7-0.1-1-0.2c-0.3-0.1-0.7-0.2-1.1-0.3l-0.9-0.2
		c-0.1,0-0.2-0.1-0.3-0.1c-0.3-0.1-0.6-0.2-0.9-0.3l-1-0.4c-0.2-0.1-0.5-0.2-0.7-0.3l-0.1-0.1c-0.6-0.3-1.2-0.6-1.9-0.9l-0.1-0.1
		c-0.1-0.1-0.3-0.1-0.4-0.2l-0.2-0.1l-0.1-0.1c-0.3-0.2-0.6-0.4-0.9-0.6c-0.2-0.1-0.4-0.3-0.6-0.4l0,0l-0.4-0.2
		c-0.3-0.2-0.6-0.4-0.8-0.6c-0.4-0.3-0.7-0.5-1-0.8l-0.1-0.1c-0.3-0.3-0.7-0.6-1-0.9c-0.3-0.3-0.6-0.6-0.9-0.9
		c-0.3-0.3-0.6-0.6-0.9-1c-0.3-0.4-0.7-0.8-1-1.2l-0.1-0.1c-0.2-0.2-0.3-0.4-0.5-0.6l-0.2-0.3c-0.2-0.3-0.5-0.6-0.7-1l-0.1-0.1
		c-0.2-0.3-0.4-0.6-0.6-0.9L7.8,110l-0.3-0.5c-0.1-0.2-0.3-0.5-0.4-0.7c0-0.1-0.3-0.5-0.3-0.5c-0.1-0.2-0.2-0.4-0.3-0.7l-0.2-0.4
		L6,106.4c0-0.1-0.1-0.2-0.1-0.3L5.8,106c-0.1-0.3-0.2-0.6-0.3-0.9l0-0.1c0-0.1-0.1-0.2-0.1-0.3c0-0.1-0.2-0.6-0.2-0.6
		c0-0.1-0.1-0.2-0.1-0.3L5,103.4c-0.1-0.4-0.2-0.8-0.3-1.2l0-0.1c0-0.1-0.1-0.3-0.1-0.4l0-0.2l0-0.1c0-0.1-0.1-0.3-0.1-0.4l0-0.1
		c-0.1-0.3-0.1-0.7-0.2-1v0l0-0.3c-0.1-0.4-0.1-0.8-0.1-1.1l0-0.2C4,97.7,4,97.2,4,96.8c0-0.3,0-0.5,0-0.8c0-7.5,2.9-14.5,8.2-19.8
		C17.5,70.9,24.5,68,32,68s14.5,2.9,19.8,8.2C57.1,81.5,60,88.5,60,96c0,9.6,3.7,18.7,10.5,25.5C77.3,128.3,86.4,132,96,132
		c7.5,0,14.5,2.9,19.8,8.2c5.3,5.3,8.2,12.3,8.2,19.8C124,175.4,111.4,188,96,188z"/>
	<path style="&st17;" d="M608,188c-7.5,0-14.5-2.9-19.8-8.2c-5.3-5.3-8.2-12.3-8.2-19.8c0-9.6-3.7-18.7-10.5-25.5
		c-6.8-6.8-15.8-10.5-25.5-10.5c-7.5,0-14.5-2.9-19.8-8.2c-5.3-5.3-8.2-12.3-8.2-19.8s2.9-14.5,8.2-19.8c5.3-5.3,12.3-8.2,19.8-8.2
		c15.4,0,28,12.6,28,28c0,9.6,3.7,18.7,10.5,25.5c6.8,6.8,15.8,10.5,25.5,10.5c5.7,0,11.2,1.7,15.8,4.9c0.3,0.2,0.6,0.4,0.9,0.6
		c0.4,0.3,0.7,0.6,1.1,0.8l0.1,0.1c0.3,0.3,0.7,0.6,1,0.9c0.3,0.3,0.6,0.6,1,0.9c0.3,0.3,0.6,0.7,0.9,1c0.2,0.3,0.5,0.6,0.8,0.9
		l0.1,0.1c0.3,0.3,0.5,0.7,0.8,1c0.3,0.4,0.5,0.6,0.7,0.9c3.2,4.7,4.9,10.2,4.9,15.9c0,7.5-2.9,14.5-8.2,19.8
		C622.5,185.1,615.5,188,608,188z"/>
	<path style="&st18;" d="M288,316c-7.5,0-14.5-2.9-19.8-8.2c-5.3-5.3-8.2-12.3-8.2-19.8c0-9.6-3.7-18.7-10.5-25.5
		c-6.8-6.8-15.8-10.5-25.5-10.5c-7.5,0-14.5-2.9-19.8-8.2c-5.3-5.3-8.2-12.3-8.2-19.8s2.9-14.5,8.2-19.8c5.3-5.3,12.3-8.2,19.8-8.2
		s14.5,2.9,19.8,8.2c5.3,5.3,8.2,12.3,8.2,19.8c0,9.6,3.7,18.7,10.5,25.5c6.8,6.8,15.8,10.5,25.5,10.5c7.5,0,14.5,2.9,19.8,8.2
		c5.3,5.3,8.2,12.3,8.2,19.8C316,303.4,303.4,316,288,316z"/>
	<path style="&st16;" d="M416,252c-7.5,0-14.5-2.9-19.8-8.2c-5.3-5.3-8.2-12.3-8.2-19.8c0-19.9-16.1-36-36-36
		c-7.5,0-14.5-2.9-19.8-8.2c-5.3-5.3-8.2-12.3-8.2-19.8s2.9-14.5,8.2-19.8c5.3-5.3,12.3-8.2,19.8-8.2c9.6,0,18.7-3.7,25.5-10.5
		c6.8-6.8,10.5-15.8,10.5-25.5c0-7.5,2.9-14.5,8.2-19.8c5.3-5.3,12.3-8.2,19.8-8.2s14.5,2.9,19.8,8.2c5.3,5.3,8.2,12.3,8.2,19.8
		c0,15.4-12.6,28-28,28c-7.3,0-14.4,2.2-20.4,6.3c-0.4,0.3-0.8,0.6-1.2,0.9c-0.4,0.3-0.9,0.7-1.3,1c-0.4,0.4-0.9,0.7-1.3,1.1
		c-0.5,0.4-0.9,0.8-1.3,1.2c-0.4,0.4-0.8,0.8-1.2,1.2c-0.4,0.5-0.8,0.9-1.1,1.3c-0.4,0.4-0.7,0.9-1.1,1.4c-0.2,0.3-0.5,0.7-0.8,1.1
		c-4.1,6-6.3,13-6.3,20.4c0,19.9,16.1,36,36,36c7.5,0,14.5,2.9,19.8,8.2c5.3,5.3,8.2,12.3,8.2,19.8C444,239.4,431.4,252,416,252z"/>
	<path style="&st19;" d="M608,252c-7.5,0-14.5-2.9-19.8-8.2c-5.3-5.3-8.2-12.3-8.2-19.8c0-9.6-3.7-18.7-10.5-25.5
		c-6.8-6.8-15.8-10.5-25.5-10.5s-18.7,3.7-25.5,10.5c-6.8,6.8-10.5,15.8-10.5,25.5c0,15.4-12.6,28-28,28c-7.5,0-14.5-2.9-19.8-8.2
		c-5.3-5.3-8.2-12.3-8.2-19.8s2.9-14.5,8.2-19.8c5.3-5.3,12.3-8.2,19.8-8.2c19.9,0,36-16.1,36-36c0-7.5,2.9-14.5,8.2-19.8
		c5.3-5.3,12.3-8.2,19.8-8.2s14.5,2.9,19.8,8.2c5.3,5.3,8.2,12.3,8.2,19.8c0,9.6,3.7,18.7,10.5,25.5c6.8,6.8,15.8,10.5,25.5,10.5
		c7.5,0,14.5,2.9,19.8,8.2c5.3,5.3,8.2,12.3,8.2,19.8C636,239.4,623.4,252,608,252z"/>
	<path style="&st13;" d="M160,316c-7.5,0-14.5-2.9-19.8-8.2c-5.3-5.3-8.2-12.3-8.2-19.8c0-9.6-3.7-18.7-10.5-25.5
		c-6.8-6.8-15.8-10.5-25.5-10.5c-19.9,0-36,16.1-36,36c0,15.4-12.6,28-28,28c-7.5,0-14.5-2.9-19.8-8.2C6.9,302.5,4,295.5,4,288
		s2.9-14.5,8.2-19.8c5.3-5.3,12.3-8.2,19.8-8.2c19.6,0,35.8-16,36-35.6v-0.7c0.1-7.3,3-14.2,8.2-19.5c5.3-5.3,12.3-8.2,19.8-8.2
		s14.5,2.9,19.8,8.2c5.3,5.3,8.2,12.3,8.2,19.8c0,9.6,3.7,18.7,10.5,25.5c6.8,6.8,15.8,10.5,25.5,10.5c7.5,0,14.5,2.9,19.8,8.2
		c5.3,5.3,8.2,12.3,8.2,19.8C188,303.4,175.4,316,160,316z"/>
	<path style="&st20;" d="M480,316c-7.5,0-14.5-2.9-19.8-8.2c-5.3-5.3-8.2-12.3-8.2-19.8s2.9-14.5,8.2-19.8
		c5.3-5.3,12.3-8.2,19.8-8.2c19.9,0,36-16.1,36-36c0-7.5,2.9-14.5,8.2-19.8c5.3-5.3,12.3-8.2,19.8-8.2s14.5,2.9,19.8,8.2
		c5.3,5.3,8.2,12.3,8.2,19.8c0,15.4-12.6,28-28,28c-9.6,0-18.7,3.7-25.5,10.5S508,278.4,508,288C508,303.4,495.4,316,480,316z"/>
	<path style="&st20;" d="M160,380c-7.5,0-14.5-2.9-19.8-8.2c-5.3-5.3-8.2-12.3-8.2-19.8s2.9-14.5,8.2-19.8
		c5.3-5.3,12.3-8.2,19.8-8.2c19.9,0,36-16.1,36-36c0-9.6-3.7-18.7-10.5-25.5c-6.8-6.8-15.8-10.5-25.5-10.5c-7.5,0-14.5-2.9-19.8-8.2
		c-5.3-5.3-8.2-12.3-8.2-19.8s2.9-14.5,8.2-19.8c5.3-5.3,12.3-8.2,19.8-8.2c15.4,0,28,12.6,28,28c0,9.6,3.7,18.7,10.5,25.5
		c6.8,6.8,15.8,10.5,25.5,10.5c7.5,0,14.5,2.9,19.8,8.2c5.3,5.3,8.2,12.3,8.2,19.8c0,15.4-12.6,28-28,28c-9.6,0-18.7,3.7-25.5,10.5
		c-6.8,6.8-10.5,15.8-10.5,25.5C188,367.4,175.4,380,160,380z"/>
	<path style="&st21;" d="M672,252c-7.5,0-14.5-2.9-19.8-8.2c-5.3-5.3-8.2-12.3-8.2-19.8v-64c0-7.3-2.2-14.4-6.3-20.4
		c-0.3-0.4-0.6-0.8-0.9-1.2c-0.3-0.4-0.7-0.9-1-1.3c-0.4-0.4-0.7-0.9-1.1-1.3c-0.4-0.5-0.8-0.9-1.2-1.3c-0.4-0.4-0.8-0.8-1.2-1.2
		c-0.5-0.4-0.9-0.8-1.3-1.1c-0.4-0.4-0.9-0.7-1.4-1.1c-0.3-0.3-0.7-0.5-1.1-0.8c-6-4.1-13.1-6.3-20.4-6.3c-7.5,0-14.5-2.9-19.8-8.2
		c-5.3-5.3-8.2-12.3-8.2-19.8s2.9-14.5,8.2-19.8c5.3-5.3,12.3-8.2,19.8-8.2s14.5,2.9,19.8,8.2c5.3,5.3,8.2,12.3,8.2,19.8
		c0,9.6,3.7,18.7,10.5,25.5c6.8,6.8,15.8,10.5,25.5,10.5c7.5,0,14.5,2.9,19.8,8.2c5.3,5.3,8.2,12.3,8.2,19.8v64
		C700,239.4,687.4,252,672,252z"/>
	<path style="&st22;" d="M32,252c-7.5,0-14.5-2.9-19.8-8.2C6.9,238.5,4,231.5,4,224v-64c0-9.6-3.7-18.7-10.5-25.5
		C-13.3,127.7-22.4,124-32,124c-7.5,0-14.5-2.9-19.8-8.2c-5.3-5.3-8.2-12.3-8.2-19.8s2.9-14.5,8.2-19.8C-46.5,70.9-39.5,68-32,68
		s14.5,2.9,19.8,8.2C-6.9,81.5-4,88.5-4,96c0,0.3,0,0.6,0,1c0,0.5,0,1,0.1,1.6l0,0.2c0,0.5,0.1,1.1,0.2,1.6c0,0.1,0,0.2,0,0.3
		c0.1,0.5,0.1,1,0.2,1.5c0,0.3,0.1,0.6,0.2,0.9c0,0.3,0.1,0.5,0.2,0.8c0.1,0.6,0.3,1.1,0.4,1.7l0.1,0.2c0.1,0.2,0.1,0.4,0.2,0.6
		c0,0.1,0,0.1,0.1,0.2v0.1l0.5,1.4l0,0c0.1,0.2,0.2,0.5,0.3,0.7c0.1,0.2,0.2,0.4,0.3,0.7l0.1,0.1c0,0.1,0.1,0.3,0.2,0.5l0.3,0.7
		c0.2,0.4,0.3,0.8,0.5,1.1c0,0.1,0.2,0.5,0.2,0.5c0.2,0.4,0.4,0.7,0.6,1.1c0,0,0.2,0.3,0.3,0.5c0.1,0.1,0.2,0.3,0.2,0.4l0.1,0.1
		c0.1,0.1,0.2,0.3,0.3,0.5c0.2,0.4,0.5,0.8,0.8,1.2c0.1,0.1,0.1,0.2,0.2,0.3c0.3,0.4,0.6,0.8,0.8,1.1c0,0.1,0.1,0.1,0.2,0.2
		c0.2,0.3,0.5,0.6,0.7,0.9c0.5,0.6,0.9,1.1,1.4,1.6c0.4,0.4,0.8,0.8,1.2,1.2c0.4,0.4,0.8,0.8,1.2,1.2c0.5,0.4,0.9,0.8,1.3,1.1
		c0.4,0.4,0.9,0.7,1.4,1.1c0.2,0.2,0.5,0.4,0.7,0.5l0,0l0.3,0.2c0.4,0.3,0.8,0.6,1.3,0.8c0.4,0.2,0.7,0.5,1.1,0.7l0.1,0.1
		c0,0,0.1,0.1,0.2,0.1c0.3,0.1,0.5,0.3,0.8,0.4c0.9,0.5,1.7,0.9,2.5,1.2c0.3,0.1,0.6,0.3,1,0.4c0.1,0.1,0.3,0.1,0.4,0.2
		c0.3,0.1,0.6,0.2,1,0.4c0.4,0.1,0.7,0.3,1.1,0.4l0.1,0l1.4,0.4c0.5,0.1,1,0.3,1.4,0.4l0.1,0c0.4,0.1,0.8,0.2,1.1,0.2
		c0.4,0.1,0.8,0.2,1.2,0.2l0.1,0c0.4,0.1,0.8,0.1,1.2,0.2c0.2,0,0.4,0.1,0.6,0.1c0.6,0.1,1.2,0.1,2,0.2c0,0,0.5,0,0.6,0
		c0.4,0,0.7,0,1.1,0c1,0,2,0.1,3,0.1c6.3,0.7,12.3,3.5,16.8,8c5.3,5.3,8.2,12.3,8.2,19.8v64.4C59.8,239.6,47.3,252,32,252z"/>
	<path style="&st23;" d="M352,380c-7.5,0-14.5-2.9-19.8-8.2c-5.3-5.3-8.2-12.3-8.2-19.8v-64c0-9.6-3.7-18.7-10.5-25.5
		c-6.8-6.8-15.8-10.5-25.5-10.5c-7.5,0-14.5-2.9-19.8-8.2c-5.3-5.3-8.2-12.3-8.2-19.8s2.9-14.5,8.2-19.8c5.3-5.3,12.3-8.2,19.8-8.2
		s14.5,2.9,19.8,8.2c5.3,5.3,8.2,12.3,8.2,19.8c0,0.5,0,1,0,1.5c0,0.5,0,1,0.1,1.5l0.1,0.6c0,0.4,0.1,0.7,0.1,1
		c0.1,0.9,0.3,1.9,0.5,2.9c0.1,0.4,0.2,0.7,0.2,1c0.1,0.5,0.2,0.9,0.3,1.4l0.2,0.7c0.1,0.2,0.1,0.4,0.2,0.6l0.1,0.2
		c0.2,0.5,0.3,0.9,0.5,1.4c0.1,0.3,0.2,0.5,0.3,0.8c0.1,0.2,0.3,0.6,0.3,0.6c0.1,0.2,0.2,0.4,0.3,0.6c0.2,0.4,0.3,0.7,0.5,1.1
		c0.4,0.8,0.8,1.6,1.3,2.5c0.1,0.1,0.2,0.3,0.3,0.5c0.2,0.3,0.3,0.5,0.5,0.8l0.1,0.2c0.2,0.3,0.4,0.6,0.6,0.8
		c0.2,0.3,0.5,0.7,0.8,1.1c0.2,0.3,0.5,0.6,0.7,0.9c0.8,1,1.7,2,2.5,2.8c0.4,0.4,0.8,0.8,1.2,1.2c0.5,0.4,0.9,0.8,1.4,1.2
		c0.4,0.3,0.9,0.7,1.3,1.1c0.3,0.3,0.8,0.6,1.2,0.9l0.3,0.2c0.3,0.2,0.6,0.4,0.9,0.6c0.3,0.2,0.6,0.4,1,0.6c0.2,0.1,0.4,0.3,0.6,0.4
		l0,0c0.2,0.1,0.3,0.2,0.5,0.3c0.8,0.4,1.7,0.9,2.5,1.2c0.3,0.2,0.7,0.3,1,0.4c0.1,0,0.2,0.1,0.2,0.1c0.4,0.2,0.7,0.3,1.1,0.4
		c0.4,0.1,0.8,0.3,1.1,0.4c0.2,0.1,0.3,0.1,0.4,0.1l1,0.3c0.5,0.1,1,0.3,1.4,0.4c0.5,0.1,0.9,0.2,1.3,0.3c0.5,0.1,0.9,0.2,1.4,0.2
		l0,0c0.4,0.1,0.8,0.1,1.2,0.2c0.5,0.1,1.1,0.1,1.6,0.2c0.5,0,1,0.1,1.5,0.1c0.4,0,0.7,0,1.1,0c1,0,2,0.1,3,0.2
		c6.3,0.7,12.3,3.5,16.8,8c5.3,5.3,8.2,12.3,8.2,19.8v64.3c0,0.4,0,0.9-0.1,1.3c-0.1,1.2-0.2,2.4-0.4,3.5c-0.1,0.4-0.1,0.7-0.2,1
		c-0.3,1.5-0.8,2.9-1.3,4.3l0,0.1c-0.1,0.1-0.1,0.3-0.2,0.4l0,0.1c-0.5,1.1-1,2.1-1.5,3c-0.4,0.6-0.7,1.2-1.1,1.7
		c-0.2,0.4-0.5,0.7-0.8,1.1l-0.4,0.5c-0.3,0.3-0.6,0.7-0.9,1c-0.1,0.1-0.2,0.2-0.3,0.3l-0.2,0.2c-0.3,0.3-0.6,0.6-0.9,0.9
		c-0.3,0.3-0.6,0.6-0.9,0.9c-1.1,1-2.4,2-3.7,2.8c-0.3,0.2-0.7,0.4-1.1,0.7c-0.3,0.2-0.6,0.4-0.9,0.5l0,0l-0.3,0.1
		c-0.2,0.1-0.3,0.2-0.5,0.2l-0.1,0c-1,0.5-2.1,0.9-3.2,1.3c-0.3,0.1-0.6,0.2-0.9,0.3l-0.2,0.1c-0.2,0.1-0.5,0.1-0.7,0.2l-0.2,0
		c-0.1,0-0.3,0.1-0.4,0.1c-0.4,0.1-0.7,0.2-1,0.2c-0.4,0.1-0.8,0.1-1.2,0.2c-0.3,0-0.6,0.1-0.9,0.1l-0.2,0c-0.3,0-0.6,0.1-0.9,0.1
		c-0.3,0-0.6,0-0.9,0.1l-0.1,0c-0.1,0-0.2,0-0.3,0h-0.1l-0.1,0c-0.2,0-0.4,0-0.5,0C352.1,380,352.1,380,352,380z"/>
	<path style="&st15;" d="M544,316c-7.5,0-14.5-2.9-19.8-8.2c-5.3-5.3-8.2-12.3-8.2-19.8s2.9-14.5,8.2-19.8
		c5.3-5.3,12.3-8.2,19.8-8.2s14.5,2.9,19.8,8.2c5.3,5.3,8.2,12.3,8.2,19.8C572,303.4,559.4,316,544,316z"/>
	<path style="&st21;" d="M672,252c-7.5,0-14.5-2.9-19.8-8.2c-5.3-5.3-8.2-12.3-8.2-19.8v-64c0-7.3-2.2-14.4-6.3-20.4
		c-0.3-0.4-0.6-0.8-0.9-1.2c-0.3-0.4-0.7-0.9-1-1.3c-0.4-0.4-0.7-0.9-1.1-1.3c-0.4-0.5-0.8-0.9-1.2-1.3c-0.4-0.4-0.8-0.8-1.2-1.2
		c-0.5-0.4-0.9-0.8-1.3-1.1c-0.4-0.4-0.9-0.7-1.4-1.1c-0.3-0.3-0.7-0.5-1.1-0.8c-6-4.1-13.1-6.3-20.4-6.3c-7.5,0-14.5-2.9-19.8-8.2
		c-5.3-5.3-8.2-12.3-8.2-19.8s2.9-14.5,8.2-19.8c5.3-5.3,12.3-8.2,19.8-8.2s14.5,2.9,19.8,8.2c5.3,5.3,8.2,12.3,8.2,19.8
		c0,9.6,3.7,18.7,10.5,25.5c6.8,6.8,15.8,10.5,25.5,10.5c7.5,0,14.5,2.9,19.8,8.2c5.3,5.3,8.2,12.3,8.2,19.8v64
		C700,239.4,687.4,252,672,252z"/>
	<path style="&st21;" d="M316,96c0,7.5-2.9,14.5-8.2,19.8c-5.3,5.3-12.3,8.2-19.8,8.2h-64c-7.3,0-14.4,2.2-20.4,6.3
		c-0.4,0.3-0.8,0.6-1.2,0.9c-0.4,0.3-0.9,0.7-1.3,1c-0.4,0.4-0.9,0.7-1.3,1.1c-0.5,0.4-0.9,0.8-1.3,1.2c-0.4,0.4-0.8,0.8-1.2,1.2
		c-0.4,0.5-0.8,0.9-1.1,1.3c-0.4,0.4-0.7,0.9-1.1,1.4c-0.3,0.3-0.5,0.7-0.8,1.1c-4.1,6-6.3,13.1-6.3,20.4c0,7.5-2.9,14.5-8.2,19.8
		c-5.3,5.3-12.3,8.2-19.8,8.2s-14.5-2.9-19.8-8.2c-5.3-5.3-8.2-12.3-8.2-19.8s2.9-14.5,8.2-19.8c5.3-5.3,12.3-8.2,19.8-8.2
		c9.6,0,18.7-3.7,25.5-10.5c6.8-6.8,10.5-15.8,10.5-25.5c0-7.5,2.9-14.5,8.2-19.8c5.3-5.3,12.3-8.2,19.8-8.2h64
		C303.4,68,316,80.6,316,96z"/>
	<path style="&st21;" d="M196,160c0,7.5,2.9,14.5,8.2,19.8c5.3,5.3,12.3,8.2,19.8,8.2h64c7.3,0,14.4,2.2,20.4,6.3
		c0.4,0.3,0.8,0.6,1.2,0.9c0.4,0.3,0.9,0.7,1.3,1c0.4,0.4,0.9,0.7,1.3,1.1c0.5,0.4,0.9,0.8,1.3,1.2c0.4,0.4,0.8,0.8,1.2,1.2
		c0.4,0.5,0.8,0.9,1.1,1.3c0.4,0.4,0.7,0.9,1.1,1.4c0.3,0.3,0.5,0.7,0.8,1.1c4.1,6,6.3,13.1,6.3,20.4c0,7.5,2.9,14.5,8.2,19.8
		c5.3,5.3,12.3,8.2,19.8,8.2s14.5-2.9,19.8-8.2c5.3-5.3,8.2-12.3,8.2-19.8s-2.9-14.5-8.2-19.8c-5.3-5.3-12.3-8.2-19.8-8.2
		c-9.6,0-18.7-3.7-25.5-10.5c-6.8-6.8-10.5-15.8-10.5-25.5c0-7.5-2.9-14.5-8.2-19.8c-5.3-5.3-12.3-8.2-19.8-8.2h-64
		C208.6,132,196,144.6,196,160z"/>
</g>
<g id="Layer_3" style="&st0;">
</g>
<g id="Layer_3_copy" style="&st0;">
	<path style="&st26;" d="M64,416L64,416c0,17.7-14.3,32-32,32h0c-17.7,0-32-14.3-32-32v0c0-17.7,14.3-32,32-32h0
		C49.7,384,64,398.3,64,416z"/>
	<path style="&st26;" d="M128,416L128,416c0,17.7-14.3,32-32,32h0c-17.7,0-32-14.3-32-32v0c0-17.7,14.3-32,32-32h0
		C113.7,384,128,398.3,128,416z"/>
	<path style="&st26;" d="M192,416L192,416c0,17.7-14.3,32-32,32h0c-17.7,0-32-14.3-32-32v0c0-17.7,14.3-32,32-32h0
		C177.7,384,192,398.3,192,416z"/>
	<path style="&st26;" d="M256,416L256,416c0,17.7-14.3,32-32,32h0c-17.7,0-32-14.3-32-32v0c0-17.7,14.3-32,32-32h0
		C241.7,384,256,398.3,256,416z"/>
	<path style="&st26;" d="M320,416c0,17.7-14.3,32-32,32c-8.8,0-16.8-3.6-22.6-9.4c-5.8-5.8-9.4-13.8-9.4-22.6
		c0-8.8,3.6-16.8,9.4-22.6c5.8-5.8,13.8-9.4,22.6-9.4s16.8,3.6,22.6,9.4C316.4,399.2,320,407.2,320,416z"/>
	<path style="&st26;" d="M384,416L384,416c0,17.7-14.3,32-32,32h0c-17.7,0-32-14.3-32-32v0c0-17.7,14.3-32,32-32h0
		C369.7,384,384,398.3,384,416z"/>
	<path style="&st26;" d="M448,416L448,416c0,17.7-14.3,32-32,32h0c-17.7,0-32-14.3-32-32v0c0-17.7,14.3-32,32-32h0
		C433.7,384,448,398.3,448,416z"/>
	<path style="&st26;" d="M512,416L512,416c0,17.7-14.3,32-32,32h0c-17.7,0-32-14.3-32-32v0c0-17.7,14.3-32,32-32h0
		C497.7,384,512,398.3,512,416z"/>
	<path style="&st26;" d="M576,416L576,416c0,17.7-14.3,32-32,32h0c-17.7,0-32-14.3-32-32v0c0-17.7,14.3-32,32-32h0
		C561.7,384,576,398.3,576,416z"/>
	<path style="&st26;" d="M576,288L576,288c0,17.7-14.3,32-32,32h0c-17.7,0-32-14.3-32-32v0c0-17.7,14.3-32,32-32h0
		C561.7,256,576,270.3,576,288z"/>
	<path style="&st26;" d="M640,416c0,17.7-14.3,32-32,32c-8.8,0-16.8-3.6-22.6-9.4c-5.8-5.8-9.4-13.8-9.4-22.6
		c0-8.8,3.6-16.8,9.4-22.6c5.8-5.8,13.8-9.4,22.6-9.4s16.8,3.6,22.6,9.4C636.4,399.2,640,407.2,640,416z"/>
	<path style="&st26;" d="M640,352c0,17.7-14.3,32-32,32c-8.8,0-16.8-3.6-22.6-9.4c-5.8-5.8-9.4-13.8-9.4-22.6
		c0-8.8,3.6-16.8,9.4-22.6c5.8-5.8,13.8-9.4,22.6-9.4s16.8,3.6,22.6,9.4C636.4,335.2,640,343.2,640,352z"/>
</g>
<g id="Layer_8" style="&st0;">
	<path style="&st26;" d="M64,416L64,416c0,17.7-14.3,32-32,32h0c-17.7,0-32-14.3-32-32v0c0-17.7,14.3-32,32-32h0
		C49.7,384,64,398.3,64,416z"/>
	<path style="&st26;" d="M128,416L128,416c0,17.7-14.3,32-32,32h0c-17.7,0-32-14.3-32-32v0c0-17.7,14.3-32,32-32h0
		C113.7,384,128,398.3,128,416z"/>
	<path style="&st26;" d="M192,416L192,416c0,17.7-14.3,32-32,32h0c-17.7,0-32-14.3-32-32v0c0-17.7,14.3-32,32-32h0
		C177.7,384,192,398.3,192,416z"/>
	<path style="&st26;" d="M256,416L256,416c0,17.7-14.3,32-32,32h0c-17.7,0-32-14.3-32-32v0c0-17.7,14.3-32,32-32h0
		C241.7,384,256,398.3,256,416z"/>
	<path style="&st26;" d="M320,416c0,17.7-14.3,32-32,32c-8.8,0-16.8-3.6-22.6-9.4c-5.8-5.8-9.4-13.8-9.4-22.6
		c0-8.8,3.6-16.8,9.4-22.6c5.8-5.8,13.8-9.4,22.6-9.4s16.8,3.6,22.6,9.4C316.4,399.2,320,407.2,320,416z"/>
	<path style="&st26;" d="M384,416L384,416c0,17.7-14.3,32-32,32h0c-17.7,0-32-14.3-32-32v0c0-17.7,14.3-32,32-32h0
		C369.7,384,384,398.3,384,416z"/>
	<path style="&st26;" d="M448,416L448,416c0,17.7-14.3,32-32,32h0c-17.7,0-32-14.3-32-32v0c0-17.7,14.3-32,32-32h0
		C433.7,384,448,398.3,448,416z"/>
	<path style="&st26;" d="M512,416L512,416c0,17.7-14.3,32-32,32h0c-17.7,0-32-14.3-32-32v0c0-17.7,14.3-32,32-32h0
		C497.7,384,512,398.3,512,416z"/>
	<path style="&st26;" d="M576,416L576,416c0,17.7-14.3,32-32,32h0c-17.7,0-32-14.3-32-32v0c0-17.7,14.3-32,32-32h0
		C561.7,384,576,398.3,576,416z"/>
	<path style="&st26;" d="M640,416c0,17.7-14.3,32-32,32c-8.8,0-16.8-3.6-22.6-9.4c-5.8-5.8-9.4-13.8-9.4-22.6
		c0-8.8,3.6-16.8,9.4-22.6c5.8-5.8,13.8-9.4,22.6-9.4s16.8,3.6,22.6,9.4C636.4,399.2,640,407.2,640,416z"/>
</g>
</svg>
