<?xml version="1.0" encoding="utf-8"?>
<!-- Generator: Adobe Illustrator 28.0.0, SVG Export Plug-In . SVG Version: 6.00 Build 0)  -->
<!DOCTYPE svg PUBLIC "-//W3C//DTD SVG 1.1//EN" "http://www.w3.org/Graphics/SVG/1.1/DTD/svg11.dtd" [
	<!ENTITY st0 "display:none;">
	<!ENTITY st1 "display:inline;fill:#00FF00;">
	<!ENTITY st2 "display:inline;fill:#334155;">
	<!ENTITY st3 "display:inline;fill:#0284C7;">
	<!ENTITY st4 "fill:#00FF00;">
	<!ENTITY st5 "fill:#334155;">
	<!ENTITY st6 "fill:#0284C7;">
	<!ENTITY st7 "fill:#FFBB00;">
	<!ENTITY st8 "display:inline;opacity:0.39;fill:#FFFFFF;">
	<!ENTITY st9 "display:inline;opacity:0.49;fill:#FFFFFF;">
	<!ENTITY st10 "display:inline;opacity:0.55;fill:#FFFFFF;">
	<!ENTITY st11 "display:inline;opacity:0.87;fill:#FFFFFF;">
	<!ENTITY st12 "display:inline;opacity:0.27;fill:#FFFFFF;">
	<!ENTITY st13 "display:inline;opacity:0.94;fill:#FFFFFF;">
	<!ENTITY st14 "display:inline;opacity:0.52;fill:#FFFFFF;">
	<!ENTITY st15 "display:inline;opacity:0.71;fill:#FFFFFF;">
	<!ENTITY st16 "display:inline;opacity:0.61;fill:#FFFFFF;">
	<!ENTITY st17 "display:inline;opacity:0.32;fill:#FFFFFF;">
	<!ENTITY st18 "display:inline;opacity:0.34;fill:#FFFFFF;">
	<!ENTITY st19 "display:inline;opacity:0.35;fill:#FFFFFF;">
	<!ENTITY st20 "display:inline;opacity:0.8;fill:#FFFFFF;">
	<!ENTITY st21 "display:inline;fill:#FFFFFF;">
	<!ENTITY st22 "display:inline;fill:#FFBB00;">
]>
<svg version="1.1" xmlns="http://www.w3.org/2000/svg" xmlns:xlink="http://www.w3.org/1999/xlink" x="0px" y="0px"
	 viewBox="0 0 640 320" style="enable-background:new 0 0 640 320;" xml:space="preserve">
<g id="grid" style="&st0;">
	<rect style="&st1;" width="64" height="64"/>
	<rect x="64" style="&st1;" width="64" height="64"/>
	<rect x="128" style="&st1;" width="64" height="64"/>
	<rect x="192" style="&st1;" width="64" height="64"/>
	<rect x="256" style="&st1;" width="64" height="64"/>
	<rect x="320" style="&st1;" width="64" height="64"/>
	<rect x="384" style="&st1;" width="64" height="64"/>
	<rect x="448" style="&st1;" width="64" height="64"/>
	<rect x="512" style="&st1;" width="64" height="64"/>
	<rect y="64" style="&st1;" width="64" height="64"/>
	<rect x="64" y="64" style="&st1;" width="64" height="64"/>
	<rect x="128" y="64" style="&st1;" width="64" height="64"/>
	<rect x="192" y="64" style="&st1;" width="64" height="64"/>
	<rect x="320" y="64" style="&st1;" width="64" height="64"/>
	<rect x="384" y="64" style="&st1;" width="64" height="64"/>
	<rect x="448" y="64" style="&st1;" width="64" height="64"/>
	<rect x="512" y="64" style="&st1;" width="64" height="64"/>
	<rect y="128" style="&st1;" width="64" height="64"/>
	<rect x="64" y="128" style="&st2;" width="128" height="64"/>
	<rect x="192" y="128" style="&st1;" width="64" height="64"/>
	<rect x="256" y="64" style="&st2;" width="64" height="128"/>
	<rect x="320" y="128" style="&st1;" width="64" height="64"/>
	<rect x="384" y="128" style="&st1;" width="64" height="64"/>
	<rect x="448" y="128" style="&st1;" width="64" height="64"/>
	<rect x="512" y="128" style="&st1;" width="64" height="64"/>
	<rect x="576" y="128" style="&st1;" width="64" height="64"/>
	<rect y="192" style="&st1;" width="64" height="64"/>
	<rect x="64" y="192" style="&st1;" width="64" height="64"/>
	<rect x="128" y="192" style="&st1;" width="64" height="64"/>
	<rect x="192" y="192" style="&st1;" width="64" height="64"/>
	<rect x="256" y="192" style="&st1;" width="64" height="64"/>
	<rect x="320" y="192" style="&st1;" width="64" height="64"/>
	<rect x="384" y="192" style="&st2;" width="128" height="64"/>
	<rect x="512" y="192" style="&st1;" width="64" height="64"/>
	<rect x="576" y="192" style="&st1;" width="64" height="64"/>
	<rect y="256" style="&st1;" width="64" height="64"/>
	<rect x="64" y="256" style="&st1;" width="64" height="64"/>
	<rect x="128" y="256" style="&st1;" width="64" height="64"/>
	<rect x="192" y="256" style="&st1;" width="64" height="64"/>
	<rect x="256" y="256" style="&st1;" width="64" height="64"/>
	<rect x="320" y="256" style="&st1;" width="64" height="64"/>
	<rect x="384" y="256" style="&st1;" width="64" height="64"/>
	<rect x="448" y="256" style="&st1;" width="64" height="64"/>
	<rect x="512" y="256" style="&st1;" width="64" height="64"/>
	<rect x="576" y="256" style="&st1;" width="64" height="64"/>
	<rect x="576" style="&st1;" width="64" height="64"/>
	<rect x="576" y="64" style="&st1;" width="64" height="64"/>
</g>
<g id="grid_copy_3" style="&st0;">
	<path style="&st1;" d="M256,32c0,8.8-3.6,16.8-9.4,22.6c-5.8,5.8-13.8,9.4-22.6,9.4s-16.8-3.6-22.6-9.4c-5.8-5.8-9.4-13.8-9.4-22.6
		c0-8.8,3.6-16.8,9.4-22.6C207.2,3.6,215.2,0,224,0C241.7,0,256,14.3,256,32z"/>
	<path style="&st2;" d="M384-32c0,8.8-3.6,16.8-9.4,22.6S360.8,0,352,0s-16.8,3.6-22.6,9.4c-5.8,5.8-9.4,13.8-9.4,22.6
		c0,17.7-14.3,32-32,32c-8.8,0-16.8-3.6-22.6-9.4c-5.8-5.8-9.4-13.8-9.4-22.6c0-8.8,3.6-16.8,9.4-22.6C271.2,3.6,279.2,0,288,0
		s16.8-3.6,22.6-9.4S320-23.2,320-32s3.6-16.8,9.4-22.6S343.2-64,352-64C369.7-64,384-49.7,384-32z"/>
	<path style="&st2;" d="M640-32c0,17.7-14.3,32-32,32c-8.8,0-16.8,3.6-22.6,9.4c-5.8,5.8-9.4,13.8-9.4,22.6c0,17.7-14.3,32-32,32
		c-8.8,0-16.8-3.6-22.6-9.4c-5.8-5.8-9.4-13.8-9.4-22.6c0-8.8,3.6-16.8,9.4-22.6C527.2,3.6,535.2,0,544,0s16.8-3.6,22.6-9.4
		S576-23.2,576-32s3.6-16.8,9.4-22.6S599.2-64,608-64s16.8,3.6,22.6,9.4S640-40.8,640-32z"/>
	<path style="&st2;" d="M128,32c0,8.8-3.6,16.8-9.4,22.6C112.8,60.4,104.8,64,96,64s-16.8,3.6-22.6,9.4C67.6,79.2,64,87.2,64,96
		c0,8.8-3.6,16.8-9.4,22.6c-5.8,5.8-13.8,9.4-22.6,9.4s-16.8-3.6-22.6-9.4C3.6,112.8,0,104.8,0,96c0-17.7,14.3-32,32-32
		c8.8,0,16.8-3.6,22.6-9.4C60.4,48.8,64,40.8,64,32c0-8.8,3.6-16.8,9.4-22.6C79.2,3.6,87.2,0,96,0C113.7,0,128,14.3,128,32z"/>
	<path style="&st2;" d="M246.6,73.4c5.8,5.8,9.4,13.8,9.4,22.6c0,17.7-14.3,32-32,32c-8.8,0-16.8-3.6-22.6-9.4
		c-5.8-5.8-9.4-13.8-9.4-22.6c0-8.8-3.6-16.8-9.4-22.6c-5.8-5.8-13.8-9.4-22.6-9.4s-16.8-3.6-22.6-9.4c-5.8-5.8-9.4-13.8-9.4-22.6
		c0-8.8,3.6-16.8,9.4-22.6C143.2,3.6,151.2,0,160,0s16.8-3.6,22.6-9.4S192-23.2,192-32s3.6-16.8,9.4-22.6S215.2-64,224-64
		c17.7,0,32,14.3,32,32c0,8.8-3.6,16.8-9.4,22.6S232.8,0,224,0s-16.8,3.6-22.6,9.4c-5.8,5.8-9.4,13.8-9.4,22.6
		c0,8.8,3.6,16.8,9.4,22.6c5.8,5.8,13.8,9.4,22.6,9.4S240.8,67.6,246.6,73.4z"/>
	<path style="&st2;" d="M448,96c0,8.8-3.6,16.8-9.4,22.6c-5.8,5.8-13.8,9.4-22.6,9.4s-16.8-3.6-22.6-9.4c-5.8-5.8-9.4-13.8-9.4-22.6
		c0-8.8-3.6-16.8-9.4-22.6c-5.8-5.8-13.8-9.4-22.6-9.4s-16.8-3.6-22.6-9.4c-5.8-5.8-9.4-13.8-9.4-22.6c0-8.8,3.6-16.8,9.4-22.6
		C335.2,3.6,343.2,0,352,0c17.7,0,32,14.3,32,32c0,8.8,3.6,16.8,9.4,22.6c5.8,5.8,13.8,9.4,22.6,9.4C433.7,64,448,78.3,448,96z"/>
	<path style="&st2;" d="M512,96c0,8.8-3.6,16.8-9.4,22.6c-5.8,5.8-13.8,9.4-22.6,9.4s-16.8-3.6-22.6-9.4c-5.8-5.8-9.4-13.8-9.4-22.6
		c0-17.7-14.3-32-32-32c-8.8,0-16.8-3.6-22.6-9.4c-5.8-5.8-9.4-13.8-9.4-22.6c0-8.8,3.6-16.8,9.4-22.6C399.2,3.6,407.2,0,416,0
		s16.8-3.6,22.6-9.4S448-23.2,448-32s3.6-16.8,9.4-22.6S471.2-64,480-64c17.7,0,32,14.3,32,32c0,8.8-3.6,16.8-9.4,22.6
		S488.8,0,480,0s-16.8,3.6-22.6,9.4c-5.8,5.8-9.4,13.8-9.4,22.6c0,8.8,3.6,16.8,9.4,22.6c5.8,5.8,13.8,9.4,22.6,9.4
		C497.7,64,512,78.3,512,96z"/>
	<path style="&st2;" d="M128,96c0,17.7-14.3,32-32,32c-8.8,0-16.8,3.6-22.6,9.4c-5.8,5.8-9.4,13.8-9.4,22.6c0,17.7-14.3,32-32,32
		c-8.8,0-16.8-3.6-22.6-9.4C3.6,176.8,0,168.8,0,160c0-8.8,3.6-16.8,9.4-22.6c5.8-5.8,13.8-9.4,22.6-9.4s16.8-3.6,22.6-9.4
		c5.8-5.8,9.4-13.8,9.4-22.6c0-8.8,3.6-16.8,9.4-22.6C79.2,67.6,87.2,64,96,64s16.8,3.6,22.6,9.4C124.4,79.2,128,87.2,128,96z"/>
	<path style="&st2;" d="M192,160c0,17.7-14.3,32-32,32H96c-8.8,0-16.8,3.6-22.6,9.4c-5.8,5.8-9.4,13.8-9.4,22.6
		c0,8.8-3.6,16.8-9.4,22.6c-5.8,5.8-13.8,9.4-22.6,9.4s-16.8-3.6-22.6-9.4C3.6,240.8,0,232.8,0,224c0-8.8,3.6-16.8,9.4-22.6
		c5.8-5.8,13.8-9.4,22.6-9.4c17.7,0,32-14.3,32-32c0-8.8,3.6-16.8,9.4-22.6c5.8-5.8,13.8-9.4,22.6-9.4h64
		C177.7,128,192,142.3,192,160z"/>
	<path style="&st2;" d="M256,160c0,17.7-14.3,32-32,32c-8.8,0-16.8-3.6-22.6-9.4c-5.8-5.8-9.4-13.8-9.4-22.6c0-17.7-14.3-32-32-32
		c-8.8,0-16.8-3.6-22.6-9.4c-5.8-5.8-9.4-13.8-9.4-22.6c0-8.8,3.6-16.8,9.4-22.6c5.8-5.8,13.8-9.4,22.6-9.4s16.8,3.6,22.6,9.4
		c5.8,5.8,9.4,13.8,9.4,22.6c0,8.8,3.6,16.8,9.4,22.6c5.8,5.8,13.8,9.4,22.6,9.4s16.8,3.6,22.6,9.4C252.4,143.2,256,151.2,256,160z"
		/>
	<path style="&st2;" d="M320,96v64c0,17.7-14.3,32-32,32c-8.8,0-16.8,3.6-22.6,9.4c-5.8,5.8-9.4,13.8-9.4,22.6
		c0,8.8-3.6,16.8-9.4,22.6c-5.8,5.8-13.8,9.4-22.6,9.4s-16.8-3.6-22.6-9.4c-5.8-5.8-9.4-13.8-9.4-22.6c0-8.8,3.6-16.8,9.4-22.6
		c5.8-5.8,13.8-9.4,22.6-9.4c17.7,0,32-14.3,32-32V96c0-17.7,14.3-32,32-32c8.8,0,16.8,3.6,22.6,9.4C316.4,79.2,320,87.2,320,96z"/>
	<path style="&st2;" d="M448,160c0,17.7-14.3,32-32,32c-8.8,0-16.8-3.6-22.6-9.4c-5.8-5.8-9.4-13.8-9.4-22.6
		c0-8.8-3.6-16.8-9.4-22.6c-5.8-5.8-13.8-9.4-22.6-9.4s-16.8-3.6-22.6-9.4c-5.8-5.8-9.4-13.8-9.4-22.6c0-8.8,3.6-16.8,9.4-22.6
		c5.8-5.8,13.8-9.4,22.6-9.4s16.8,3.6,22.6,9.4c5.8,5.8,9.4,13.8,9.4,22.6c0,8.8,3.6,16.8,9.4,22.6c5.8,5.8,13.8,9.4,22.6,9.4
		s16.8,3.6,22.6,9.4C444.4,143.2,448,151.2,448,160z"/>
	<path style="&st2;" d="M576,96c0,17.7-14.3,32-32,32c-8.8,0-16.8,3.6-22.6,9.4c-5.8,5.8-9.4,13.8-9.4,22.6c0,17.7-14.3,32-32,32
		c-8.8,0-16.8-3.6-22.6-9.4c-5.8-5.8-9.4-13.8-9.4-22.6c0-8.8,3.6-16.8,9.4-22.6c5.8-5.8,13.8-9.4,22.6-9.4s16.8-3.6,22.6-9.4
		c5.8-5.8,9.4-13.8,9.4-22.6c0-17.7-14.3-32-32-32c-8.8,0-16.8-3.6-22.6-9.4c-5.8-5.8-9.4-13.8-9.4-22.6c0-8.8,3.6-16.8,9.4-22.6
		C463.2,3.6,471.2,0,480,0c17.7,0,32,14.3,32,32c0,8.8,3.6,16.8,9.4,22.6c5.8,5.8,13.8,9.4,22.6,9.4s16.8,3.6,22.6,9.4
		C572.4,79.2,576,87.2,576,96z"/>
	<path style="&st1;" d="M192,224L192,224c0,17.7-14.3,32-32,32h0c-17.7,0-32-14.3-32-32v0c0-17.7,14.3-32,32-32h0
		C177.7,192,192,206.3,192,224z"/>
	<path style="&st2;" d="M576,160c0,8.8-3.6,16.8-9.4,22.6c-5.8,5.8-13.8,9.4-22.6,9.4s-16.8,3.6-22.6,9.4
		c-5.8,5.8-9.4,13.8-9.4,22.6c0,17.7-14.3,32-32,32h-64c-17.7,0-32-14.3-32-32c0-8.8,3.6-16.8,9.4-22.6c5.8-5.8,13.8-9.4,22.6-9.4
		h64c17.7,0,32-14.3,32-32c0-8.8,3.6-16.8,9.4-22.6c5.8-5.8,13.8-9.4,22.6-9.4C561.7,128,576,142.3,576,160z"/>
	<path style="&st2;" d="M64-32c0,8.8-3.6,16.8-9.4,22.6S40.8,0,32,0S15.2,3.6,9.4,9.4C3.6,15.2,0,23.2,0,32c0,0.3,0,0.7,0,1
		c0,0.2,0,0.3,0,0.5c0,0.6-0.1,1.2-0.1,1.8c0,0.2,0,0.3-0.1,0.5c0,0.4-0.1,0.7-0.1,1.1c0,0.1,0,0.1,0,0.2c-0.1,0.4-0.1,0.7-0.2,1.1
		c-0.2,0.8-0.3,1.6-0.6,2.4c-0.1,0.3-0.2,0.7-0.3,1c0,0,0,0.1,0,0.1c-0.1,0.4-0.2,0.8-0.4,1.1c-0.1,0.3-0.2,0.7-0.4,1
		c0,0.1,0,0.1-0.1,0.2c-0.1,0.3-0.2,0.6-0.4,0.9c-0.3,0.8-0.7,1.5-1.1,2.3c-0.1,0.3-0.3,0.5-0.4,0.8c-0.4,0.8-0.9,1.5-1.4,2.2
		c0,0,0,0,0,0c-0.2,0.3-0.5,0.7-0.7,1c-0.3,0.4-0.6,0.8-1,1.2c-0.3,0.4-0.7,0.8-1,1.2c-0.3,0.4-0.7,0.8-1.1,1.1
		c-0.4,0.4-0.7,0.7-1.1,1.1c-0.4,0.3-0.8,0.7-1.2,1c-0.4,0.3-0.8,0.6-1.2,1c-0.3,0.2-0.7,0.5-1,0.7c0,0,0,0,0,0
		c-0.7,0.5-1.5,1-2.2,1.4c-0.2,0.2-0.5,0.3-0.8,0.4c-0.7,0.4-1.5,0.8-2.3,1.1c-0.3,0.1-0.6,0.3-0.9,0.4c-0.1,0-0.1,0.1-0.2,0.1
		c-0.3,0.1-0.6,0.2-1,0.4c-0.4,0.1-0.8,0.3-1.1,0.4c0,0-0.1,0-0.1,0c-0.3,0.1-0.7,0.2-1,0.3c-0.8,0.2-1.6,0.4-2.4,0.5
		c-0.3,0.1-0.7,0.1-1.1,0.2l-0.2,0c-0.4,0.1-0.7,0.1-1.1,0.1c-0.2,0-0.3,0.1-0.5,0.1c-0.6,0.1-1.2,0.1-1.8,0.1c-0.2,0-0.3,0-0.5,0
		c-0.3,0-0.7,0-1,0c-8.8,0-16.8-3.6-22.6-9.4C-60.4,48.8-64,40.8-64,32c0-8.8,3.6-16.8,9.4-22.6C-48.8,3.6-40.8,0-32,0
		c8.8,0,16.8-3.6,22.6-9.4C-3.6-15.2,0-23.2,0-32s3.6-16.8,9.4-22.6S23.2-64,32-64C49.7-64,64-49.7,64-32z"/>
	<path style="&st1;" d="M384,288c0,8.8-3.6,16.8-9.4,22.6c-5.8,5.8-13.8,9.4-22.6,9.4s-16.8-3.6-22.6-9.4
		c-5.8-5.8-9.4-13.8-9.4-22.6c0-8.8,3.6-16.8,9.4-22.6c5.8-5.8,13.8-9.4,22.6-9.4C369.7,256,384,270.3,384,288z"/>
	<path style="&st1;" d="M576,288c0,8.8-3.6,16.8-9.4,22.6c-5.8,5.8-13.8,9.4-22.6,9.4s-16.8-3.6-22.6-9.4
		c-5.8-5.8-9.4-13.8-9.4-22.6c0-8.8,3.6-16.8,9.4-22.6c5.8-5.8,13.8-9.4,22.6-9.4C561.7,256,576,270.3,576,288z"/>
	<path style="&st2;" d="M704-32c0,8.8-3.6,16.8-9.4,22.6S680.8,0,672,0s-16.8,3.6-22.6,9.4c-5.8,5.8-9.4,13.8-9.4,22.6
		c0,6.7-2.1,13-5.6,18.1c-0.2,0.3-0.5,0.7-0.8,1c-0.3,0.4-0.6,0.8-1,1.2c-0.3,0.4-0.7,0.8-1,1.2c-0.3,0.4-0.7,0.8-1.1,1.1
		c-0.4,0.4-0.7,0.7-1.1,1.1c-0.4,0.3-0.8,0.7-1.2,1c-0.4,0.3-0.8,0.6-1.2,1c-0.3,0.3-0.7,0.5-1,0.8C621,61.9,614.7,64,608,64
		c-8.8,0-16.8-3.6-22.6-9.4c-5.8-5.8-9.4-13.8-9.4-22.6c0-8.8,3.6-16.8,9.4-22.6C591.2,3.6,599.2,0,608,0c17.7,0,32-14.3,32-32
		c0-8.8,3.6-16.8,9.4-22.6S663.2-64,672-64C689.7-64,704-49.7,704-32z"/>
	<path style="&st2;" d="M704,32c0,8.8-3.6,16.8-9.4,22.6c-5.8,5.8-13.8,9.4-22.6,9.4c-17.7,0-32,14.3-32,32v64c0,17.7-14.3,32-32,32
		c-8.8,0-16.8-3.6-22.6-9.4c-5.8-5.8-9.4-13.8-9.4-22.6V96c0-17.7,14.3-32,32-32c6.7,0,13-2.1,18.1-5.6c0.4-0.2,0.7-0.5,1-0.8
		c0.4-0.3,0.8-0.6,1.2-1c0.4-0.3,0.8-0.7,1.2-1c0.4-0.4,0.8-0.7,1.1-1.1c0.4-0.4,0.7-0.7,1.1-1.1c0.3-0.4,0.7-0.8,1-1.2
		c0.3-0.4,0.7-0.8,1-1.2c0.3-0.3,0.5-0.7,0.8-1C637.9,45,640,38.7,640,32c0-8.8,3.6-16.8,9.4-22.6C655.2,3.6,663.2,0,672,0
		s16.8,3.6,22.6,9.4C700.4,15.2,704,23.2,704,32z"/>
	<path style="&st2;" d="M64,32c0,8.8-3.6,16.8-9.4,22.6C48.8,60.4,40.8,64,32,64C14.3,64,0,78.3,0,96v64c0,17.7-14.3,32-32,32
		c-8.8,0-16.8-3.6-22.6-9.4c-5.8-5.8-9.4-13.8-9.4-22.6V96c0-17.7,14.3-32,32-32c0.3,0,0.7,0,1,0c0.2,0,0.3,0,0.5,0
		c0.6,0,1.2-0.1,1.8-0.1c0.2,0,0.3,0,0.5-0.1c0.4,0,0.7-0.1,1.1-0.1l0.2,0c0.4,0,0.7-0.1,1.1-0.2c0.8-0.1,1.6-0.3,2.4-0.5
		c0.4-0.1,0.7-0.2,1-0.3c0,0,0.1,0,0.1,0c0.4-0.1,0.8-0.2,1.1-0.4c0.3-0.1,0.7-0.2,1-0.4c0.1,0,0.1,0,0.2-0.1
		c0.3-0.1,0.6-0.2,0.9-0.4c0.8-0.3,1.5-0.7,2.3-1.1c0.3-0.1,0.5-0.3,0.8-0.4c0.8-0.4,1.5-0.9,2.2-1.4c0,0,0,0,0,0
		c0.3-0.2,0.7-0.5,1-0.7c0.4-0.3,0.8-0.6,1.2-1c0.4-0.3,0.8-0.7,1.2-1c0.4-0.4,0.8-0.7,1.1-1.1c0.4-0.4,0.7-0.7,1.1-1.1
		c0.3-0.4,0.7-0.8,1-1.2c0.3-0.4,0.7-0.8,1-1.2c0.2-0.3,0.5-0.7,0.7-1c0,0,0,0,0,0c0.5-0.7,1-1.5,1.4-2.2c0.1-0.2,0.3-0.5,0.4-0.8
		c0.4-0.7,0.8-1.5,1.1-2.3c0.1-0.3,0.3-0.6,0.4-0.9c0-0.1,0-0.1,0.1-0.2c0.1-0.3,0.2-0.6,0.4-1c0.1-0.4,0.3-0.8,0.4-1.1
		c0,0,0-0.1,0-0.1c0.1-0.3,0.2-0.7,0.3-1c0.2-0.8,0.4-1.6,0.6-2.4c0.1-0.4,0.1-0.7,0.2-1.1c0-0.1,0-0.1,0-0.2
		c0.1-0.4,0.1-0.7,0.1-1.1c0-0.2,0-0.3,0.1-0.5c0.1-0.6,0.1-1.2,0.1-1.8c0-0.2,0-0.3,0-0.5c0-0.3,0-0.7,0-1c0-8.8,3.6-16.8,9.4-22.6
		C15.2,3.6,23.2,0,32,0s16.8,3.6,22.6,9.4C60.4,15.2,64,23.2,64,32z"/>
	<path style="&st3;" d="M384,160c0,8.8-3.6,16.8-9.4,22.6c-5.8,5.8-13.8,9.4-22.6,9.4c-17.7,0-32,14.3-32,32v64
		c0,17.7-14.3,32-32,32c-8.8,0-16.8-3.6-22.6-9.4c-5.8-5.8-9.4-13.8-9.4-22.6v-64c0-17.7,14.3-32,32-32c6.7,0,13-2.1,18.1-5.6
		c0.4-0.2,0.7-0.5,1-0.8c0.4-0.3,0.8-0.6,1.2-1c0.4-0.3,0.8-0.7,1.2-1c0.4-0.4,0.8-0.7,1.1-1.1c0.4-0.4,0.7-0.7,1.1-1.1
		c0.3-0.4,0.7-0.8,1-1.2c0.3-0.4,0.7-0.8,1-1.2c0.3-0.3,0.5-0.7,0.8-1c3.5-5.2,5.6-11.4,5.6-18.1c0-8.8,3.6-16.8,9.4-22.6
		c5.8-5.8,13.8-9.4,22.6-9.4s16.8,3.6,22.6,9.4C380.4,143.2,384,151.2,384,160z"/>
	<path style="&st3;" d="M576,224c0,8.8-3.6,16.8-9.4,22.6c-5.8,5.8-13.8,9.4-22.6,9.4c-17.7,0-32,14.3-32,32v64
		c0,17.7-14.3,32-32,32c-8.8,0-16.8-3.6-22.6-9.4c-5.8-5.8-9.4-13.8-9.4-22.6v-64c0-17.7,14.3-32,32-32c6.7,0,13-2.1,18.1-5.6
		c0.4-0.2,0.7-0.5,1-0.8c0.4-0.3,0.8-0.6,1.2-1c0.4-0.3,0.8-0.7,1.2-1c0.4-0.4,0.8-0.7,1.1-1.1c0.4-0.4,0.7-0.7,1.1-1.1
		c0.3-0.4,0.7-0.8,1-1.2c0.3-0.4,0.7-0.8,1-1.2c0.3-0.3,0.5-0.7,0.8-1c3.5-5.2,5.6-11.4,5.6-18.1c0-8.8,3.6-16.8,9.4-22.6
		c5.8-5.8,13.8-9.4,22.6-9.4s16.8,3.6,22.6,9.4C572.4,207.2,576,215.2,576,224z"/>
	<path style="&st2;" d="M96,192c8.8,0,16.8,3.6,22.6,9.4c5.8,5.8,9.4,13.8,9.4,22.6c0,17.7,14.3,32,32,32h64c17.7,0,32,14.3,32,32
		c0,8.8-3.6,16.8-9.4,22.6c-5.8,5.8-13.8,9.4-22.6,9.4h-64c-17.7,0-32-14.3-32-32c0-0.3,0-0.7,0-1c0-0.2,0-0.3,0-0.5
		c0-0.6-0.1-1.2-0.1-1.8c0-0.2,0-0.3-0.1-0.5c0-0.4-0.1-0.7-0.1-1.1l0-0.2c0-0.4-0.1-0.7-0.2-1.1c-0.1-0.8-0.3-1.6-0.5-2.4
		c-0.1-0.4-0.2-0.7-0.3-1c0,0,0-0.1,0-0.1c-0.1-0.4-0.2-0.8-0.4-1.1c-0.1-0.3-0.2-0.7-0.4-1c0-0.1,0-0.1-0.1-0.2
		c-0.1-0.3-0.2-0.6-0.4-0.9c-0.3-0.8-0.7-1.5-1.1-2.3c-0.1-0.3-0.3-0.5-0.4-0.8c-0.4-0.8-0.9-1.5-1.4-2.2c0,0,0,0,0,0
		c-0.2-0.3-0.5-0.7-0.7-1c-0.3-0.4-0.6-0.8-1-1.2c-0.3-0.4-0.7-0.8-1-1.2c-0.4-0.4-0.7-0.8-1.1-1.1c-0.4-0.4-0.7-0.7-1.1-1.1
		c-0.4-0.3-0.8-0.7-1.2-1c-0.4-0.3-0.8-0.7-1.2-1c-0.3-0.2-0.7-0.5-1-0.7c0,0,0,0,0,0c-0.7-0.5-1.5-1-2.2-1.4
		c-0.2-0.1-0.5-0.3-0.8-0.4c-0.7-0.4-1.5-0.8-2.3-1.1c-0.3-0.1-0.6-0.3-0.9-0.4c-0.1,0-0.1,0-0.2-0.1c-0.3-0.1-0.6-0.2-1-0.4
		c-0.4-0.1-0.8-0.3-1.1-0.4c0,0-0.1,0-0.1,0c-0.3-0.1-0.7-0.2-1-0.3c-0.8-0.2-1.6-0.4-2.4-0.6c-0.4-0.1-0.7-0.1-1.1-0.2
		c-0.1,0-0.1,0-0.2,0c-0.4-0.1-0.7-0.1-1.1-0.1c-0.2,0-0.3,0-0.5-0.1c-0.6-0.1-1.2-0.1-1.8-0.1c-0.2,0-0.3,0-0.5,0c-0.3,0-0.7,0-1,0
		c-8.8,0-16.8-3.6-22.6-9.4c-5.8-5.8-9.4-13.8-9.4-22.6s3.6-16.8,9.4-22.6C79.2,195.6,87.2,192,96,192z"/>
	<path style="&st2;" d="M448.3,288.3c0,17.7-14.3,32-32,32c-8.8,0-16.8,3.6-22.6,9.4c-5.8,5.8-9.4,13.8-9.4,22.6
		c0,17.7-14.3,32-32,32c-8.8,0-16.8-3.6-22.6-9.4c-5.8-5.8-9.4-13.8-9.4-22.6c0-8.8,3.6-16.8,9.4-22.6c5.8-5.8,13.8-9.4,22.6-9.4
		s16.8-3.6,22.6-9.4c5.8-5.8,9.4-13.8,9.4-22.6c0-17.7-14.3-32-32-32c-8.8,0-16.8-3.6-22.6-9.4c-5.8-5.8-9.4-13.8-9.4-22.6
		c0-8.8,3.6-16.8,9.4-22.6c5.8-5.8,13.8-9.4,22.6-9.4c17.7,0,32,14.3,32,32c0,8.8,3.6,16.8,9.4,22.6c5.8,5.8,13.8,9.4,22.6,9.4
		s16.8,3.6,22.6,9.4C444.7,271.5,448.3,279.5,448.3,288.3z"/>
	<path style="&st2;" d="M192,352c0,17.7-14.3,32-32,32c-8.8,0-16.8-3.6-22.6-9.4c-5.8-5.8-9.4-13.8-9.4-22.6c0-17.7-14.3-32-32-32
		c-8.8,0-16.8-3.6-22.6-9.4c-5.8-5.8-9.4-13.8-9.4-22.6c0-8.8,3.6-16.8,9.4-22.6c5.8-5.8,13.8-9.4,22.6-9.4s16.8,3.6,22.6,9.4
		c5.8,5.8,9.4,13.8,9.4,22.6c0,17.7,14.3,32,32,32c8.8,0,16.8,3.6,22.6,9.4C188.4,335.2,192,343.2,192,352z"/>
	<path style="&st2;" d="M-31.7,384.3c-8.8,0-16.8-3.6-22.6-9.4c-5.8-5.8-9.4-13.8-9.4-22.6s3.6-16.8,9.4-22.6
		c5.8-5.8,13.8-9.4,22.6-9.4c17.7,0,32-14.3,32-32c0-8.8-3.6-16.8-9.4-22.6c-5.8-5.8-13.8-9.4-22.6-9.4c-17.7,0-32-14.3-32-32
		c0-8.8,3.6-16.8,9.4-22.6c5.8-5.8,13.8-9.4,22.6-9.4c8.8,0,16.8,3.6,22.6,9.4c5.8,5.8,9.4,13.8,9.4,22.6c0,17.7,14.3,32,32,32
		c8.8,0,16.8,3.6,22.6,9.4c5.8,5.8,9.4,13.8,9.4,22.6s-3.6,16.8-9.4,22.6c-5.8,5.8-13.8,9.4-22.6,9.4c-8.8,0-16.8,3.6-22.6,9.4
		c-5.8,5.8-9.4,13.8-9.4,22.6C0.3,370-14.1,384.3-31.7,384.3z"/>
	<path style="&st2;" d="M608.3,384.3c-8.8,0-16.8-3.6-22.6-9.4c-5.8-5.8-9.4-13.8-9.4-22.6s3.6-16.8,9.4-22.6
		c5.8-5.8,13.8-9.4,22.6-9.4c17.7,0,32-14.3,32-32c0-8.8-3.6-16.8-9.4-22.6c-5.8-5.8-13.8-9.4-22.6-9.4c-17.7,0-32-14.3-32-32
		c0-8.8,3.6-16.8,9.4-22.6c5.8-5.8,13.8-9.4,22.6-9.4c8.8,0,16.8,3.6,22.6,9.4c5.8,5.8,9.4,13.8,9.4,22.6c0,17.7,14.3,32,32,32
		c8.8,0,16.8,3.6,22.6,9.4c5.8,5.8,9.4,13.8,9.4,22.6s-3.6,16.8-9.4,22.6c-5.8,5.8-13.8,9.4-22.6,9.4c-8.8,0-16.8,3.6-22.6,9.4
		c-5.8,5.8-9.4,13.8-9.4,22.6C640.3,370,625.9,384.3,608.3,384.3z"/>
	<path style="&st2;" d="M640,288c0,17.7-14.3,32-32,32c-8.8,0-16.8,3.6-22.6,9.4c-5.8,5.8-9.4,13.8-9.4,22.6c0,17.7-14.3,32-32,32
		c-8.8,0-16.8-3.6-22.6-9.4c-5.8-5.8-9.4-13.8-9.4-22.6c0-8.8,3.6-16.8,9.4-22.6c5.8-5.8,13.8-9.4,22.6-9.4s16.8-3.6,22.6-9.4
		c5.8-5.8,9.4-13.8,9.4-22.6c0-8.8,3.6-16.8,9.4-22.6c5.8-5.8,13.8-9.4,22.6-9.4s16.8,3.6,22.6,9.4C636.4,271.2,640,279.2,640,288z"
		/>
</g>
<g id="grid_copy_4">
	<path style="&st4;" d="M224,60c-7.5,0-14.5-2.9-19.8-8.2c-5.3-5.3-8.2-12.3-8.2-19.8s2.9-14.5,8.2-19.8C209.5,6.9,216.5,4,224,4
		c15.4,0,28,12.6,28,28c0,7.5-2.9,14.5-8.2,19.8C238.5,57.1,231.5,60,224,60z"/>
	<path style="&st5;" d="M288,60c-7.5,0-14.5-2.9-19.8-8.2c-5.3-5.3-8.2-12.3-8.2-19.8s2.9-14.5,8.2-19.8C273.5,6.9,280.5,4,288,4
		c9.6,0,18.7-3.7,25.5-10.5C320.3-13.3,324-22.4,324-32c0-7.5,2.9-14.5,8.2-19.8c5.3-5.3,12.3-8.2,19.8-8.2c15.4,0,28,12.6,28,28
		c0,7.5-2.9,14.5-8.2,19.8C366.5-6.9,359.5-4,352-4c-9.6,0-18.7,3.7-25.5,10.5C319.7,13.3,316,22.4,316,32C316,47.4,303.4,60,288,60
		z"/>
	<path style="&st5;" d="M544,60c-7.5,0-14.5-2.9-19.8-8.2c-5.3-5.3-8.2-12.3-8.2-19.8s2.9-14.5,8.2-19.8C529.5,6.9,536.5,4,544,4
		c9.6,0,18.7-3.7,25.5-10.5C576.3-13.3,580-22.4,580-32c0-7.5,2.9-14.5,8.2-19.8c5.3-5.3,12.3-8.2,19.8-8.2s14.5,2.9,19.8,8.2
		c5.3,5.3,8.2,12.3,8.2,19.8c0,15.4-12.6,28-28,28c-9.6,0-18.7,3.7-25.5,10.5C575.7,13.3,572,22.4,572,32C572,47.4,559.4,60,544,60z
		"/>
	<path style="&st5;" d="M224,124c-7.5,0-14.5-2.9-19.8-8.2c-5.3-5.3-8.2-12.3-8.2-19.8c0-9.6-3.7-18.7-10.5-25.5
		C178.7,63.7,169.6,60,160,60c-7.5,0-14.5-2.9-19.8-8.2c-5.3-5.3-8.2-12.3-8.2-19.8s2.9-14.5,8.2-19.8C145.5,6.9,152.5,4,160,4
		c9.6,0,18.7-3.7,25.5-10.5C192.3-13.3,196-22.4,196-32c0-7.5,2.9-14.5,8.2-19.8c5.3-5.3,12.3-8.2,19.8-8.2c15.4,0,28,12.6,28,28
		c0,7.5-2.9,14.5-8.2,19.8C238.5-6.9,231.5-4,224-4c-9.6,0-18.7,3.7-25.5,10.5C191.7,13.3,188,22.4,188,32s3.7,18.7,10.5,25.5
		C205.3,64.3,214.4,68,224,68c7.5,0,14.5,2.9,19.8,8.2c5.3,5.3,8.2,12.3,8.2,19.8C252,111.4,239.4,124,224,124z"/>
	<path style="&st5;" d="M416,124c-7.5,0-14.5-2.9-19.8-8.2c-5.3-5.3-8.2-12.3-8.2-19.8c0-9.6-3.7-18.7-10.5-25.5
		C370.7,63.7,361.6,60,352,60c-7.5,0-14.5-2.9-19.8-8.2c-5.3-5.3-8.2-12.3-8.2-19.8s2.9-14.5,8.2-19.8C337.5,6.9,344.5,4,352,4
		c15.4,0,28,12.6,28,28c0,9.6,3.7,18.7,10.5,25.5C397.3,64.3,406.4,68,416,68c15.4,0,28,12.6,28,28c0,7.5-2.9,14.5-8.2,19.8
		C430.5,121.1,423.5,124,416,124z"/>
	<path style="&st5;" d="M160,380c-7.5,0-14.5-2.9-19.8-8.2c-5.3-5.3-8.2-12.3-8.2-19.8c0-9.6-3.7-18.7-10.5-25.5
		c-6.8-6.8-15.8-10.5-25.5-10.5c-7.5,0-14.5-2.9-19.8-8.2c-5.3-5.3-8.2-12.3-8.2-19.8s2.9-14.5,8.2-19.8c5.3-5.3,12.3-8.2,19.8-8.2
		c15.4,0,28,12.6,28,28c0,9.6,3.7,18.7,10.5,25.5c6.8,6.8,15.8,10.5,25.5,10.5c15.4,0,28,12.6,28,28c0,7.5-2.9,14.5-8.2,19.8
		C174.5,377.1,167.5,380,160,380z"/>
	<path style="&st5;" d="M480,124c-7.5,0-14.5-2.9-19.8-8.2c-5.3-5.3-8.2-12.3-8.2-19.8c0-19.9-16.1-36-36-36
		c-7.5,0-14.5-2.9-19.8-8.2c-5.3-5.3-8.2-12.3-8.2-19.8s2.9-14.5,8.2-19.8C401.5,6.9,408.5,4,416,4c9.6,0,18.7-3.7,25.5-10.5
		C448.3-13.3,452-22.4,452-32c0-7.5,2.9-14.5,8.2-19.8c5.3-5.3,12.3-8.2,19.8-8.2c15.4,0,28,12.6,28,28c0,7.5-2.9,14.5-8.2,19.8
		C494.5-6.9,487.5-4,480-4c-9.6,0-18.7,3.7-25.5,10.5C447.7,13.3,444,22.4,444,32s3.7,18.7,10.5,25.5C461.3,64.3,470.4,68,480,68
		c15.4,0,28,12.6,28,28c0,7.5-2.9,14.5-8.2,19.8C494.5,121.1,487.5,124,480,124z"/>
	<path style="&st5;" d="M32,188c-7.5,0-14.5-2.9-19.8-8.2C6.9,174.5,4,167.5,4,160s2.9-14.5,8.2-19.8c5.3-5.3,12.3-8.2,19.8-8.2
		c9.6,0,18.7-3.7,25.5-10.5C64.3,114.7,68,105.6,68,96c0-7.5,2.9-14.5,8.2-19.8C81.5,70.9,88.5,68,96,68s14.5,2.9,19.8,8.2
		c5.3,5.3,8.2,12.3,8.2,19.8c0,15.4-12.6,28-28,28c-9.6,0-18.7,3.7-25.5,10.5C63.7,141.3,60,150.4,60,160C60,175.4,47.4,188,32,188z
		"/>
	<path style="&st5;" d="M32,252c-7.5,0-14.5-2.9-19.8-8.2C6.9,238.5,4,231.5,4,224s2.9-14.5,8.2-19.8c5.3-5.3,12.3-8.2,19.8-8.2
		c19.9,0,36-16.1,36-36c0-7.5,2.9-14.5,8.2-19.8c5.3-5.3,12.3-8.2,19.8-8.2h64c15.4,0,28,12.6,28,28s-12.6,28-28,28H96
		c-9.6,0-18.7,3.7-25.5,10.5C63.7,205.3,60,214.4,60,224c0,7.5-2.9,14.5-8.2,19.8C46.5,249.1,39.5,252,32,252z"/>
	<path style="&st5;" d="M224,188c-7.5,0-14.5-2.9-19.8-8.2c-5.3-5.3-8.2-12.3-8.2-19.8c0-19.9-16.1-36-36-36
		c-7.5,0-14.5-2.9-19.8-8.2c-5.3-5.3-8.2-12.3-8.2-19.8s2.9-14.5,8.2-19.8c5.3-5.3,12.3-8.2,19.8-8.2s14.5,2.9,19.8,8.2
		c5.3,5.3,8.2,12.3,8.2,19.8c0,9.6,3.7,18.7,10.5,25.5c6.8,6.8,15.8,10.5,25.5,10.5c7.5,0,14.5,2.9,19.8,8.2
		c5.3,5.3,8.2,12.3,8.2,19.8C252,175.4,239.4,188,224,188z"/>
	<path style="&st5;" d="M224,252c-7.5,0-14.5-2.9-19.8-8.2c-5.3-5.3-8.2-12.3-8.2-19.8s2.9-14.5,8.2-19.8c5.3-5.3,12.3-8.2,19.8-8.2
		c19.9,0,36-16.1,36-36V96c0-15.4,12.6-28,28-28c7.5,0,14.5,2.9,19.8,8.2c5.3,5.3,8.2,12.3,8.2,19.8v64c0,15.4-12.6,28-28,28
		c-9.6,0-18.7,3.7-25.5,10.5c-6.8,6.8-10.5,15.8-10.5,25.5c0,7.5-2.9,14.5-8.2,19.8C238.5,249.1,231.5,252,224,252z"/>
	<path style="&st5;" d="M416,188c-7.5,0-14.5-2.9-19.8-8.2c-5.3-5.3-8.2-12.3-8.2-19.8c0-9.6-3.7-18.7-10.5-25.5
		c-6.8-6.8-15.8-10.5-25.5-10.5c-7.5,0-14.5-2.9-19.8-8.2c-5.3-5.3-8.2-12.3-8.2-19.8s2.9-14.5,8.2-19.8c5.3-5.3,12.3-8.2,19.8-8.2
		s14.5,2.9,19.8,8.2c5.3,5.3,8.2,12.3,8.2,19.8c0,9.6,3.7,18.7,10.5,25.5c6.8,6.8,15.8,10.5,25.5,10.5c7.5,0,14.5,2.9,19.8,8.2
		c5.3,5.3,8.2,12.3,8.2,19.8C444,175.4,431.4,188,416,188z"/>
	<path style="&st5;" d="M480,188c-7.5,0-14.5-2.9-19.8-8.2c-5.3-5.3-8.2-12.3-8.2-19.8s2.9-14.5,8.2-19.8c5.3-5.3,12.3-8.2,19.8-8.2
		c9.6,0,18.7-3.7,25.5-10.5c6.8-6.8,10.5-15.8,10.5-25.5c0-19.9-16.1-36-36-36c-7.5,0-14.5-2.9-19.8-8.2c-5.3-5.3-8.2-12.3-8.2-19.8
		s2.9-14.5,8.2-19.8C465.5,6.9,472.5,4,480,4c15.4,0,28,12.6,28,28c0,9.6,3.7,18.7,10.5,25.5C525.3,64.3,534.4,68,544,68
		c7.5,0,14.5,2.9,19.8,8.2c5.3,5.3,8.2,12.3,8.2,19.8c0,15.4-12.6,28-28,28c-9.6,0-18.7,3.7-25.5,10.5c-6.8,6.8-10.5,15.8-10.5,25.5
		C508,175.4,495.4,188,480,188z"/>
	<circle style="&st4;" cx="160" cy="224" r="28"/>
	<path style="&st5;" d="M416,252c-15.4,0-28-12.6-28-28c0-7.5,2.9-14.5,8.2-19.8c5.3-5.3,12.3-8.2,19.8-8.2h64c19.9,0,36-16.1,36-36
		c0-7.5,2.9-14.5,8.2-19.8c5.3-5.3,12.3-8.2,19.8-8.2c15.4,0,28,12.6,28,28c0,7.5-2.9,14.5-8.2,19.8c-5.3,5.3-12.3,8.2-19.8,8.2
		c-9.6,0-18.7,3.7-25.5,10.5S508,214.4,508,224c0,15.4-12.6,28-28,28H416z"/>
	<path style="&st5;" d="M-32,60c-7.5,0-14.5-2.9-19.8-8.2C-57.1,46.5-60,39.5-60,32s2.9-14.5,8.2-19.8C-46.5,6.9-39.5,4-32,4
		c9.6,0,18.7-3.7,25.5-10.5C0.3-13.3,4-22.4,4-32c0-7.5,2.9-14.5,8.2-19.8C17.5-57.1,24.5-60,32-60c15.4,0,28,12.6,28,28
		c0,7.5-2.9,14.5-8.2,19.8C46.5-6.9,39.5-4,32-4C22.4-4,13.3-0.3,6.5,6.5C-0.3,13.3-4,22.4-4,32c0,0.3,0,0.6,0,0.9c0,0,0,0.4,0,0.5
		c0,0.5-0.1,1-0.1,1.5l0,0.2l0,0.2l0,0.2c0,0.3-0.1,0.5-0.1,0.8l0,0.3c0,0.3-0.1,0.6-0.2,0.8c-0.1,0.8-0.3,1.4-0.5,2.1l-0.2,0.8
		c0,0.1-0.1,0.2-0.1,0.3c-0.1,0.3-0.2,0.6-0.3,0.9l-0.3,0.8L-6,42.5c-0.1,0.2-0.2,0.5-0.3,0.7l-0.1,0.1c-0.3,0.6-0.6,1.2-0.9,1.9
		c-0.1,0.3-0.2,0.4-0.3,0.6c-0.4,0.7-0.7,1.2-1.1,1.7l0,0L-9,47.9c-0.2,0.3-0.4,0.6-0.6,0.8c-0.3,0.4-0.5,0.7-0.8,1l-0.1,0.1
		c-0.3,0.3-0.6,0.7-0.9,1c-0.3,0.3-0.6,0.6-0.9,0.9c-0.3,0.3-0.7,0.6-1,0.9c-0.3,0.3-0.6,0.5-0.9,0.8l-0.1,0.1
		c-0.3,0.3-0.7,0.5-1,0.8c-0.3,0.2-0.6,0.4-0.9,0.6l-0.4,0.2l0,0c-0.5,0.3-1,0.7-1.7,1c-0.2,0.1-0.4,0.2-0.6,0.3
		c-0.8,0.4-1.4,0.7-2,1l-0.1,0.1c-0.2,0.1-0.4,0.2-0.7,0.3l-0.2,0.1l-0.9,0.3c-0.3,0.1-0.6,0.2-0.9,0.3c-0.1,0-0.2,0.1-0.3,0.1
		l-0.9,0.2c-0.6,0.2-1.3,0.3-2,0.5c-0.3,0.1-0.6,0.1-0.9,0.2l-0.3,0c-0.3,0-0.5,0.1-0.8,0.1l-0.2,0l-0.2,0l-0.1,0l-0.2,0
		c-0.5,0.1-1,0.1-1.5,0.1c-0.1,0-0.5,0-0.5,0C-31.4,60-31.7,60-32,60z"/>
	<path style="&st4;" d="M352,316c-7.5,0-14.5-2.9-19.8-8.2c-5.3-5.3-8.2-12.3-8.2-19.8s2.9-14.5,8.2-19.8c5.3-5.3,12.3-8.2,19.8-8.2
		c15.4,0,28,12.6,28,28c0,7.5-2.9,14.5-8.2,19.8C366.5,313.1,359.5,316,352,316z"/>
	<path style="&st4;" d="M576,288c0,8.8-3.6,16.8-9.4,22.6c-5.8,5.8-13.8,9.4-22.6,9.4s-16.8-3.6-22.6-9.4
		c-5.8-5.8-9.4-13.8-9.4-22.6c0-8.8,3.6-16.8,9.4-22.6c5.8-5.8,13.8-9.4,22.6-9.4C561.7,256,576,270.3,576,288z"/>
	<path style="&st4;" d="M544,316c-7.5,0-14.5-2.9-19.8-8.2c-5.3-5.3-8.2-12.3-8.2-19.8s2.9-14.5,8.2-19.8c5.3-5.3,12.3-8.2,19.8-8.2
		c15.4,0,28,12.6,28,28c0,7.5-2.9,14.5-8.2,19.8C558.5,313.1,551.5,316,544,316z"/>
	<path style="&st5;" d="M608,60c-7.5,0-14.5-2.9-19.8-8.2c-5.3-5.3-8.2-12.3-8.2-19.8s2.9-14.5,8.2-19.8C593.5,6.9,600.5,4,608,4
		c19.9,0,36-16.1,36-36c0-7.5,2.9-14.5,8.2-19.8c5.3-5.3,12.3-8.2,19.8-8.2c15.4,0,28,12.6,28,28c0,7.5-2.9,14.5-8.2,19.8
		C686.5-6.9,679.5-4,672-4c-9.6,0-18.7,3.7-25.5,10.5C639.7,13.3,636,22.4,636,32c0,5.7-1.7,11.2-4.9,15.8c-0.2,0.3-0.4,0.6-0.6,0.9
		c-0.3,0.4-0.6,0.7-0.8,1.1l-0.1,0.1c-0.3,0.3-0.6,0.7-0.9,1c-0.3,0.3-0.6,0.6-0.9,0.9c-0.3,0.3-0.7,0.6-1,0.9
		c-0.3,0.3-0.6,0.6-1,0.8l-0.1,0.1c-0.3,0.3-0.7,0.5-1,0.8c-0.3,0.3-0.6,0.5-0.9,0.7C619.2,58.3,613.7,60,608,60z"/>
	<path style="&st5;" d="M608,188c-7.5,0-14.5-2.9-19.8-8.2c-5.3-5.3-8.2-12.3-8.2-19.8V96c0-15.4,12.6-28,28-28
		c7.3,0,14.4-2.2,20.4-6.3c0.4-0.3,0.8-0.6,1.2-0.9c0.4-0.3,0.9-0.7,1.3-1c0.4-0.4,0.9-0.7,1.3-1.1c0.5-0.4,0.9-0.8,1.3-1.2
		c0.4-0.4,0.8-0.8,1.2-1.2c0.4-0.5,0.8-0.9,1.2-1.3c0.4-0.4,0.7-0.9,1.1-1.4c0.2-0.3,0.5-0.7,0.8-1.1c4.1-6,6.3-13,6.3-20.4
		c0-7.5,2.9-14.5,8.2-19.8C657.5,6.9,664.5,4,672,4s14.5,2.9,19.8,8.2c5.3,5.3,8.2,12.3,8.2,19.8s-2.9,14.5-8.2,19.8
		c-5.3,5.3-12.3,8.2-19.8,8.2c-19.9,0-36,16.1-36,36v64C636,175.4,623.4,188,608,188z"/>
	<path style="&st5;" d="M-32,188c-7.5,0-14.5-2.9-19.8-8.2c-5.3-5.3-8.2-12.3-8.2-19.8V96c0-15.4,12.6-28,28-28c0.4,0,0.7,0,1.1,0
		c0.1,0,0.6,0,0.6,0c0.8,0,1.4-0.1,2-0.2c0.2,0,0.4,0,0.6-0.1c0.4,0,0.8-0.1,1.2-0.2l0.1,0c0.4-0.1,0.8-0.1,1.2-0.2
		c0.9-0.2,1.8-0.4,2.7-0.6l1.4-0.4l0.1,0c0.4-0.1,0.7-0.2,1.1-0.4c0.4-0.1,0.7-0.3,1-0.4c0.1,0,0.2-0.1,0.4-0.2
		c0.3-0.1,0.6-0.3,1-0.4c0.8-0.4,1.7-0.8,2.5-1.2c0.3-0.1,0.6-0.3,0.9-0.5c0.9-0.5,1.7-1,2.5-1.5l0.3-0.2l0,0
		c0.3-0.2,0.5-0.4,0.8-0.6c0.4-0.3,0.9-0.7,1.3-1.1c0.4-0.4,0.9-0.7,1.3-1.1c0.5-0.4,0.9-0.8,1.3-1.2c0.4-0.4,0.8-0.8,1.2-1.2
		c0.4-0.5,0.8-0.9,1.1-1.3c0.4-0.4,0.7-0.9,1.1-1.4c0.2-0.2,0.4-0.5,0.5-0.7l0,0l0.2-0.3c0.5-0.7,1-1.5,1.6-2.5
		c0.2-0.3,0.3-0.6,0.5-0.9c0.5-0.8,0.9-1.7,1.2-2.5c0.1-0.3,0.3-0.6,0.4-1c0.1-0.1,0.1-0.3,0.2-0.4l0.4-1C2,43.8,2.2,43.4,2.3,43
		l0-0.1l0.4-1.4c0.2-0.9,0.5-1.8,0.6-2.7c0.1-0.4,0.2-0.8,0.2-1.3l0-0.1c0.1-0.4,0.1-0.8,0.2-1.2c0-0.2,0.1-0.4,0.1-0.6
		c0.1-0.7,0.1-1.4,0.2-2c0,0,0-0.5,0-0.6c0-0.4,0-0.7,0-1.1c0-7.5,2.9-14.5,8.2-19.8C17.5,6.9,24.5,4,32,4s14.5,2.9,19.8,8.2
		C57.1,17.5,60,24.5,60,32s-2.9,14.5-8.2,19.8C46.5,57.1,39.5,60,32,60C12.1,60-4,76.1-4,96v64C-4,175.4-16.6,188-32,188z"/>
	<path style="&st6;" d="M288,316c-7.5,0-14.5-2.9-19.8-8.2c-5.3-5.3-8.2-12.3-8.2-19.8v-64c0-15.4,12.6-28,28-28
		c7.3,0,14.4-2.2,20.4-6.3c0.4-0.3,0.8-0.6,1.2-0.9c0.4-0.3,0.9-0.7,1.3-1c0.4-0.4,0.9-0.7,1.3-1.1c0.5-0.4,0.9-0.8,1.3-1.2
		c0.4-0.4,0.8-0.8,1.2-1.2c0.4-0.5,0.8-0.9,1.1-1.3c0.4-0.4,0.7-0.9,1.1-1.4c0.3-0.3,0.5-0.7,0.8-1.1c4.1-6,6.3-13.1,6.3-20.4
		c0-7.5,2.9-14.5,8.2-19.8c5.3-5.3,12.3-8.2,19.8-8.2s14.5,2.9,19.8,8.2c5.3,5.3,8.2,12.3,8.2,19.8s-2.9,14.5-8.2,19.8
		c-5.3,5.3-12.3,8.2-19.8,8.2c-19.9,0-36,16.1-36,36v64C316,303.4,303.4,316,288,316z"/>
	<path style="&st5;" d="M160,316c-15.4,0-28-12.6-28-28c0-0.4,0-0.7,0-1.1c0-0.1,0-0.6,0-0.6c0-0.8-0.1-1.4-0.2-2
		c0-0.2,0-0.4-0.1-0.6c0-0.4-0.1-0.8-0.2-1.2l0-0.1c-0.1-0.4-0.1-0.8-0.2-1.2c-0.2-0.9-0.4-1.8-0.6-2.7l-0.4-1.4l0-0.1
		c-0.1-0.4-0.2-0.7-0.4-1.1c-0.1-0.4-0.3-0.7-0.4-1c0-0.1-0.1-0.3-0.2-0.4c-0.1-0.3-0.3-0.6-0.4-1c-0.4-0.8-0.8-1.7-1.2-2.6
		c-0.1-0.3-0.3-0.6-0.5-0.9c-0.5-0.9-1-1.7-1.5-2.5l-0.2-0.3l-0.1-0.1c-0.2-0.3-0.4-0.6-0.6-0.8c-0.3-0.4-0.7-0.9-1-1.3
		c-0.4-0.4-0.7-0.9-1.1-1.3c-0.4-0.5-0.8-0.9-1.2-1.3c-0.4-0.4-0.8-0.8-1.2-1.2c-0.5-0.4-0.9-0.8-1.3-1.2c-0.4-0.4-0.9-0.7-1.4-1.1
		c-0.2-0.2-0.5-0.4-0.8-0.6l0,0l-0.3-0.2c-0.7-0.5-1.5-1-2.5-1.6c-0.3-0.2-0.6-0.3-0.9-0.5c-0.8-0.4-1.7-0.9-2.5-1.2
		c-0.3-0.1-0.6-0.3-1-0.4c-0.1-0.1-0.3-0.1-0.4-0.2c-0.3-0.1-0.6-0.2-1-0.4c-0.4-0.1-0.8-0.3-1.1-0.4l0,0l-1.4-0.4
		c-0.9-0.2-1.8-0.5-2.7-0.6c-0.4-0.1-0.8-0.2-1.2-0.2l-0.1,0c-0.4-0.1-0.8-0.1-1.2-0.2c-0.2,0-0.4-0.1-0.6-0.1
		c-0.6-0.1-1.2-0.1-2-0.2c0,0-0.5,0-0.6,0c-0.4,0-0.7,0-1.1,0c-7.5,0-14.5-2.9-19.8-8.2c-5.3-5.3-8.2-12.3-8.2-19.8
		s2.9-14.5,8.2-19.8c5.3-5.3,12.3-8.2,19.8-8.2s14.5,2.9,19.8,8.2c5.3,5.3,8.2,12.3,8.2,19.8c0,19.9,16.1,36,36,36h64
		c15.4,0,28,12.6,28,28c0,7.5-2.9,14.5-8.2,19.8c-5.3,5.3-12.3,8.2-19.8,8.2H160z"/>
	<path style="&st5;" d="M352,380c-7.5,0-14.5-2.9-19.8-8.2c-5.3-5.3-8.2-12.3-8.2-19.8s2.9-14.5,8.2-19.8c5.3-5.3,12.3-8.2,19.8-8.2
		c9.6,0,18.7-3.7,25.5-10.5S388,297.6,388,288c0-19.9-16.1-36-36-36c-7.5,0-14.5-2.9-19.8-8.2c-5.3-5.3-8.2-12.3-8.2-19.8
		s2.9-14.5,8.2-19.8c5.3-5.3,12.3-8.2,19.8-8.2c15.4,0,28,12.6,28,28c0,9.6,3.7,18.7,10.5,25.5S406.4,260,416,260
		c7.5,0,14.5,2.9,19.8,8.2c5.3,5.3,8.2,12.3,8.2,19.8c0,15.4-12.6,28-28,28c-9.6,0-18.7,3.7-25.5,10.5S380,342.4,380,352
		C380,367.4,367.4,380,352,380z"/>
	<path style="&st5;" d="M32,124c-7.5,0-14.5-2.9-19.8-8.2C6.9,110.5,4,103.5,4,96s2.9-14.5,8.2-19.8C17.5,70.9,24.5,68,32,68
		c19.9,0,36-16.1,36-36v-64c0-15.4,12.6-28,28-28c7.5,0,14.5,2.9,19.8,8.2c5.3,5.3,8.2,12.3,8.2,19.8v64c0,15.4-12.6,28-28,28
		c-9.6,0-18.7,3.7-25.5,10.5C63.7,77.3,60,86.4,60,96c0,7.5-2.9,14.5-8.2,19.8C46.5,121.1,39.5,124,32,124z"/>
	<path style="&st5;" d="M544,380c-7.5,0-14.5-2.9-19.8-8.2c-5.3-5.3-8.2-12.3-8.2-19.8c0-19.9-16.1-36-36-36
		c-7.5,0-14.5-2.9-19.8-8.2c-5.3-5.3-8.2-12.3-8.2-19.8s2.9-14.5,8.2-19.8c5.3-5.3,12.3-8.2,19.8-8.2s14.5,2.9,19.8,8.2
		c5.3,5.3,8.2,12.3,8.2,19.8c0,19.9,16.1,36,36,36c7.5,0,14.5,2.9,19.8,8.2c5.3,5.3,8.2,12.3,8.2,19.8C572,367.4,559.4,380,544,380z
		"/>
	<path style="&st5;" d="M608,380c-7.5,0-14.5-2.9-19.8-8.2c-5.3-5.3-8.2-12.3-8.2-19.8s2.9-14.5,8.2-19.8c5.3-5.3,12.3-8.2,19.8-8.2
		c19.9,0,36-16.1,36-36c0-9.6-3.7-18.7-10.5-25.5S617.6,252,608,252c-15.4,0-28-12.6-28-28c0-7.5,2.9-14.5,8.2-19.8
		c5.3-5.3,12.3-8.2,19.8-8.2s14.5,2.9,19.8,8.2c5.3,5.3,8.2,12.3,8.2,19.8c0,19.9,16.1,36,36,36c7.5,0,14.5,2.9,19.8,8.2
		c5.3,5.3,8.2,12.3,8.2,19.8s-2.9,14.5-8.2,19.8c-5.3,5.3-12.3,8.2-19.8,8.2c-9.6,0-18.7,3.7-25.5,10.5S636,342.4,636,352
		C636,367.4,623.4,380,608,380z"/>
	<path style="&st5;" d="M160,380c-7.5,0-14.5-2.9-19.8-8.2c-5.3-5.3-8.2-12.3-8.2-19.8c0-19.9-16.1-36-36-36
		c-7.5,0-14.5-2.9-19.8-8.2c-5.3-5.3-8.2-12.3-8.2-19.8s2.9-14.5,8.2-19.8c5.3-5.3,12.3-8.2,19.8-8.2s14.5,2.9,19.8,8.2
		c5.3,5.3,8.2,12.3,8.2,19.8c0,19.9,16.1,36,36,36c7.5,0,14.5,2.9,19.8,8.2c5.3,5.3,8.2,12.3,8.2,19.8C188,367.4,175.4,380,160,380z
		"/>
	<path style="&st5;" d="M-32,380c-7.5,0-14.5-2.9-19.8-8.2c-5.3-5.3-8.2-12.3-8.2-19.8s2.9-14.5,8.2-19.8c5.3-5.3,12.3-8.2,19.8-8.2
		c19.9,0,36-16.1,36-36c0-9.6-3.7-18.7-10.5-25.5C-13.3,255.7-22.4,252-32,252c-15.4,0-28-12.6-28-28c0-7.5,2.9-14.5,8.2-19.8
		c5.3-5.3,12.3-8.2,19.8-8.2s14.5,2.9,19.8,8.2C-6.9,209.5-4,216.5-4,224c0,19.9,16.1,36,36,36c7.5,0,14.5,2.9,19.8,8.2
		c5.3,5.3,8.2,12.3,8.2,19.8s-2.9,14.5-8.2,19.8c-5.3,5.3-12.3,8.2-19.8,8.2c-9.6,0-18.7,3.7-25.5,10.5C-0.3,333.3-4,342.4-4,352
		C-4,367.4-16.6,380-32,380z"/>
	<path style="&st5;" d="M224,380c-15.4,0-28-12.6-28-28c0-7.5,2.9-14.5,8.2-19.8c5.3-5.3,12.3-8.2,19.8-8.2h64c19.9,0,36-16.1,36-36
		c0-7.5,2.9-14.5,8.2-19.8c5.3-5.3,12.3-8.2,19.8-8.2c15.4,0,28,12.6,28,28c0,7.5-2.9,14.5-8.2,19.8c-5.3,5.3-12.3,8.2-19.8,8.2
		c-9.6,0-18.7,3.7-25.5,10.5S316,342.4,316,352c0,15.4-12.6,28-28,28H224z"/>
</g>
<g id="grid_copy_2" style="&st0;">
	<rect style="&st1;" width="64" height="64"/>
	<rect x="64" style="&st1;" width="64" height="64"/>
	<rect x="128" style="&st1;" width="64" height="64"/>
	<rect x="192" style="&st1;" width="64" height="64"/>
	<rect x="256" style="&st1;" width="64" height="64"/>
	<rect x="320" style="&st1;" width="64" height="64"/>
	<rect x="384" style="&st1;" width="64" height="64"/>
	<rect x="448" style="&st1;" width="64" height="64"/>
	<rect x="512" style="&st1;" width="64" height="64"/>
	<rect x="576" style="&st1;" width="64" height="64"/>
	<rect y="64" style="&st1;" width="64" height="64"/>
	<rect x="64" y="64" style="&st1;" width="64" height="64"/>
	<rect x="128" y="64" style="&st1;" width="64" height="64"/>
	<rect x="192" y="64" style="&st1;" width="64" height="64"/>
	<rect x="256" y="64" style="&st1;" width="64" height="64"/>
	<rect x="320" y="64" style="&st1;" width="64" height="64"/>
	<rect x="384" y="64" style="&st1;" width="64" height="64"/>
	<rect x="448" y="64" style="&st1;" width="64" height="64"/>
	<rect x="512" y="64" style="&st1;" width="64" height="64"/>
	<rect x="576" y="64" style="&st1;" width="64" height="64"/>
	<rect y="128" style="&st1;" width="64" height="64"/>
	<rect x="64" y="128" style="&st1;" width="64" height="64"/>
	<rect x="128" y="128" style="&st1;" width="64" height="64"/>
	<rect x="192" y="128" style="&st1;" width="64" height="64"/>
	<rect x="256" y="128" style="&st1;" width="64" height="64"/>
	<rect x="320" y="128" style="&st1;" width="64" height="64"/>
	<rect x="384" y="128" style="&st1;" width="64" height="64"/>
	<rect x="448" y="128" style="&st1;" width="64" height="64"/>
	<rect x="512" y="128" style="&st1;" width="64" height="64"/>
	<rect x="576" y="128" style="&st1;" width="64" height="64"/>
	<rect y="192" style="&st1;" width="64" height="64"/>
	<rect x="64" y="192" style="&st1;" width="64" height="64"/>
	<rect x="128" y="192" style="&st1;" width="64" height="64"/>
	<rect x="192" y="192" style="&st1;" width="64" height="64"/>
	<rect x="256" y="192" style="&st1;" width="64" height="64"/>
	<rect x="320" y="192" style="&st1;" width="64" height="64"/>
	<rect x="384" y="192" style="&st1;" width="64" height="64"/>
	<rect x="448" y="192" style="&st1;" width="64" height="64"/>
	<rect x="512" y="192" style="&st1;" width="64" height="64"/>
	<rect x="576" y="192" style="&st1;" width="64" height="64"/>
	<rect y="256" style="&st1;" width="64" height="64"/>
	<rect x="64" y="256" style="&st1;" width="64" height="64"/>
	<rect x="128" y="256" style="&st1;" width="64" height="64"/>
	<rect x="192" y="256" style="&st1;" width="64" height="64"/>
	<rect x="256" y="256" style="&st1;" width="64" height="64"/>
	<rect x="320" y="256" style="&st1;" width="64" height="64"/>
	<rect x="384" y="256" style="&st1;" width="64" height="64"/>
	<rect x="448" y="256" style="&st1;" width="64" height="64"/>
	<rect x="512" y="256" style="&st1;" width="64" height="64"/>
	<rect x="576" y="256" style="&st1;" width="64" height="64"/>
</g>
<g id="grid_copy" style="&st0;">
	<path style="&st8;" d="M96,60c-7.5,0-14.5-2.9-19.8-8.2C70.9,46.5,68,39.5,68,32s2.9-14.5,8.2-19.8C81.5,6.9,88.5,4,96,4
		c15.4,0,28,12.6,28,28c0,7.5-2.9,14.5-8.2,19.8C110.5,57.1,103.5,60,96,60z"/>
	<circle style="&st9;" cx="160" cy="32" r="28"/>
	<path style="&st10;" d="M352,56c-6.4,0-12.4-2.5-17-7c-4.5-4.5-7-10.6-7-17s2.5-12.4,7-17c4.5-4.5,10.6-7,17-7
		c13.2,0,24,10.8,24,24c0,6.4-2.5,12.4-7,17C364.4,53.5,358.4,56,352,56z"/>
	<path style="&st11;" d="M480,124c-7.5,0-14.5-2.9-19.8-8.2c-5.3-5.3-8.2-12.3-8.2-19.8s2.9-14.5,8.2-19.8
		c5.3-5.3,12.3-8.2,19.8-8.2s14.5,2.9,19.8,8.2c5.3,5.3,8.2,12.3,8.2,19.8C508,111.4,495.4,124,480,124z"/>
	<path style="&st12;" d="M416,124c-15.4,0-28-12.6-28-28c0-5.7,1.7-11.2,4.9-15.8c0.2-0.3,0.4-0.6,0.6-0.9c0.3-0.4,0.6-0.7,0.8-1.1
		l0.1-0.1c0.3-0.3,0.6-0.7,0.9-1c0.3-0.3,0.6-0.6,0.9-0.9c0.3-0.3,0.7-0.6,1-0.9c0.3-0.3,0.6-0.5,1-0.8l0.1-0.1
		c0.3-0.3,0.7-0.5,1-0.8c0.3-0.3,0.6-0.5,0.9-0.7c4.7-3.2,10.1-4.9,15.8-4.9c19.9,0,36-16.1,36-36c0-7.5,2.9-14.5,8.2-19.8
		C465.5,6.9,472.5,4,480,4s14.5,2.9,19.8,8.2c5.3,5.3,8.2,12.3,8.2,19.8c0,15.4-12.6,28-28,28c-9.6,0-18.7,3.7-25.5,10.5
		C447.7,77.3,444,86.4,444,96C444,111.4,431.4,124,416,124z"/>
	<path style="&st8;" d="M96,124c-7.5,0-14.5-2.9-19.8-8.2C70.9,110.5,68,103.5,68,96c0-9.6-3.7-18.7-10.5-25.5
		c-5.8-5.8-13.5-9.5-21.7-10.3C34.5,60.1,33.2,60,32,60c-0.3,0-0.6,0-0.9,0c0,0-0.4,0-0.5,0c-0.5,0-1-0.1-1.5-0.1l-0.2,0l-0.2,0
		l-0.2,0c-0.3,0-0.5-0.1-0.8-0.1l-0.3,0c-0.3,0-0.6-0.1-0.8-0.2c-0.4-0.1-0.7-0.1-1-0.2c-0.3-0.1-0.7-0.2-1.1-0.3l-0.9-0.2
		c-0.1,0-0.2-0.1-0.3-0.1c-0.3-0.1-0.6-0.2-0.9-0.3l-1-0.4c-0.2-0.1-0.5-0.2-0.7-0.3l-0.1-0.1c-0.6-0.3-1.2-0.6-1.9-0.9l-0.1-0.1
		c-0.1-0.1-0.3-0.1-0.4-0.2l-0.2-0.1L18,56.3c-0.3-0.2-0.6-0.4-0.9-0.6c-0.2-0.1-0.4-0.3-0.6-0.4l0,0L16.1,55
		c-0.3-0.2-0.6-0.4-0.8-0.6c-0.4-0.3-0.7-0.5-1-0.8l-0.1-0.1c-0.3-0.3-0.7-0.6-1-0.9c-0.3-0.3-0.6-0.6-0.9-0.9
		c-0.3-0.3-0.6-0.6-0.9-1c-0.3-0.4-0.7-0.8-1-1.2l-0.1-0.1c-0.2-0.2-0.3-0.4-0.5-0.6l-0.2-0.3c-0.2-0.3-0.5-0.6-0.7-1l-0.1-0.1
		c-0.2-0.3-0.4-0.6-0.6-0.9L7.8,46l-0.3-0.5c-0.1-0.2-0.3-0.5-0.4-0.7c0-0.1-0.3-0.5-0.3-0.5c-0.1-0.2-0.2-0.4-0.3-0.7l-0.2-0.4
		L6,42.4c0-0.1-0.1-0.2-0.1-0.3L5.8,42c-0.1-0.3-0.2-0.6-0.3-0.9l0-0.1c0-0.1-0.1-0.2-0.1-0.3c0-0.1-0.2-0.6-0.2-0.6
		c0-0.1-0.1-0.2-0.1-0.3L5,39.4c-0.1-0.4-0.2-0.8-0.3-1.2l0-0.1c0-0.1-0.1-0.3-0.1-0.4l0-0.2l0-0.1c0-0.1-0.1-0.3-0.1-0.4l0-0.1
		c-0.1-0.3-0.1-0.7-0.2-1v0l0-0.3c-0.1-0.4-0.1-0.8-0.1-1.1l0-0.2C4,33.7,4,33.2,4,32.8c0-0.3,0-0.5,0-0.8c0-7.5,2.9-14.5,8.2-19.8
		C17.5,6.9,24.5,4,32,4s14.5,2.9,19.8,8.2C57.1,17.5,60,24.5,60,32c0,9.6,3.7,18.7,10.5,25.5C77.3,64.3,86.4,68,96,68
		c7.5,0,14.5,2.9,19.8,8.2c5.3,5.3,8.2,12.3,8.2,19.8C124,111.4,111.4,124,96,124z"/>
	<path style="&st13;" d="M608,124c-7.5,0-14.5-2.9-19.8-8.2c-5.3-5.3-8.2-12.3-8.2-19.8c0-9.6-3.7-18.7-10.5-25.5
		C562.7,63.7,553.6,60,544,60c-7.5,0-14.5-2.9-19.8-8.2c-5.3-5.3-8.2-12.3-8.2-19.8s2.9-14.5,8.2-19.8C529.5,6.9,536.5,4,544,4
		c15.4,0,28,12.6,28,28c0,9.6,3.7,18.7,10.5,25.5C589.3,64.3,598.4,68,608,68c5.7,0,11.2,1.7,15.8,4.9c0.3,0.2,0.6,0.4,0.9,0.6
		c0.4,0.3,0.7,0.6,1.1,0.8l0.1,0.1c0.3,0.3,0.7,0.6,1,0.9c0.3,0.3,0.6,0.6,1,0.9c0.3,0.3,0.6,0.7,0.9,1c0.2,0.3,0.5,0.6,0.8,0.9
		l0.1,0.1c0.3,0.3,0.5,0.7,0.8,1c0.3,0.4,0.5,0.6,0.7,0.9c3.2,4.7,4.9,10.2,4.9,15.9c0,7.5-2.9,14.5-8.2,19.8
		C622.5,121.1,615.5,124,608,124z"/>
	<path style="&st14;" d="M288,252c-7.5,0-14.5-2.9-19.8-8.2c-5.3-5.3-8.2-12.3-8.2-19.8c0-9.6-3.7-18.7-10.5-25.5
		c-6.8-6.8-15.8-10.5-25.5-10.5c-7.5,0-14.5-2.9-19.8-8.2c-5.3-5.3-8.2-12.3-8.2-19.8s2.9-14.5,8.2-19.8c5.3-5.3,12.3-8.2,19.8-8.2
		s14.5,2.9,19.8,8.2c5.3,5.3,8.2,12.3,8.2,19.8c0,9.6,3.7,18.7,10.5,25.5c6.8,6.8,15.8,10.5,25.5,10.5c7.5,0,14.5,2.9,19.8,8.2
		c5.3,5.3,8.2,12.3,8.2,19.8C316,239.4,303.4,252,288,252z"/>
	<path style="&st12;" d="M416,188c-7.5,0-14.5-2.9-19.8-8.2c-5.3-5.3-8.2-12.3-8.2-19.8c0-19.9-16.1-36-36-36
		c-7.5,0-14.5-2.9-19.8-8.2c-5.3-5.3-8.2-12.3-8.2-19.8s2.9-14.5,8.2-19.8c5.3-5.3,12.3-8.2,19.8-8.2c9.6,0,18.7-3.7,25.5-10.5
		C384.3,50.7,388,41.6,388,32c0-7.5,2.9-14.5,8.2-19.8C401.5,6.9,408.5,4,416,4s14.5,2.9,19.8,8.2c5.3,5.3,8.2,12.3,8.2,19.8
		c0,15.4-12.6,28-28,28c-7.3,0-14.4,2.2-20.4,6.3c-0.4,0.3-0.8,0.6-1.2,0.9c-0.4,0.3-0.9,0.7-1.3,1c-0.4,0.4-0.9,0.7-1.3,1.1
		c-0.5,0.4-0.9,0.8-1.3,1.2c-0.4,0.4-0.8,0.8-1.2,1.2c-0.4,0.5-0.8,0.9-1.1,1.3c-0.4,0.4-0.7,0.9-1.1,1.4c-0.2,0.3-0.5,0.7-0.8,1.1
		c-4.1,6-6.3,13-6.3,20.4c0,19.9,16.1,36,36,36c7.5,0,14.5,2.9,19.8,8.2c5.3,5.3,8.2,12.3,8.2,19.8C444,175.4,431.4,188,416,188z"/>
	<path style="&st15;" d="M608,188c-7.5,0-14.5-2.9-19.8-8.2c-5.3-5.3-8.2-12.3-8.2-19.8c0-9.6-3.7-18.7-10.5-25.5
		c-6.8-6.8-15.8-10.5-25.5-10.5s-18.7,3.7-25.5,10.5c-6.8,6.8-10.5,15.8-10.5,25.5c0,15.4-12.6,28-28,28c-7.5,0-14.5-2.9-19.8-8.2
		c-5.3-5.3-8.2-12.3-8.2-19.8s2.9-14.5,8.2-19.8c5.3-5.3,12.3-8.2,19.8-8.2c19.9,0,36-16.1,36-36c0-7.5,2.9-14.5,8.2-19.8
		c5.3-5.3,12.3-8.2,19.8-8.2s14.5,2.9,19.8,8.2c5.3,5.3,8.2,12.3,8.2,19.8c0,9.6,3.7,18.7,10.5,25.5c6.8,6.8,15.8,10.5,25.5,10.5
		c7.5,0,14.5,2.9,19.8,8.2c5.3,5.3,8.2,12.3,8.2,19.8C636,175.4,623.4,188,608,188z"/>
	<path style="&st9;" d="M160,252c-7.5,0-14.5-2.9-19.8-8.2c-5.3-5.3-8.2-12.3-8.2-19.8c0-9.6-3.7-18.7-10.5-25.5
		c-6.8-6.8-15.8-10.5-25.5-10.5c-19.9,0-36,16.1-36,36c0,15.4-12.6,28-28,28c-7.5,0-14.5-2.9-19.8-8.2C6.9,238.5,4,231.5,4,224
		s2.9-14.5,8.2-19.8c5.3-5.3,12.3-8.2,19.8-8.2c19.6,0,35.8-16,36-35.6v-0.7c0.1-7.3,3-14.2,8.2-19.5c5.3-5.3,12.3-8.2,19.8-8.2
		s14.5,2.9,19.8,8.2c5.3,5.3,8.2,12.3,8.2,19.8c0,9.6,3.7,18.7,10.5,25.5c6.8,6.8,15.8,10.5,25.5,10.5c7.5,0,14.5,2.9,19.8,8.2
		c5.3,5.3,8.2,12.3,8.2,19.8C188,239.4,175.4,252,160,252z"/>
	<path style="&st16;" d="M480,252c-7.5,0-14.5-2.9-19.8-8.2c-5.3-5.3-8.2-12.3-8.2-19.8s2.9-14.5,8.2-19.8
		c5.3-5.3,12.3-8.2,19.8-8.2c19.9,0,36-16.1,36-36c0-7.5,2.9-14.5,8.2-19.8c5.3-5.3,12.3-8.2,19.8-8.2s14.5,2.9,19.8,8.2
		c5.3,5.3,8.2,12.3,8.2,19.8c0,15.4-12.6,28-28,28c-9.6,0-18.7,3.7-25.5,10.5S508,214.4,508,224C508,239.4,495.4,252,480,252z"/>
	<path style="&st16;" d="M160,316c-7.5,0-14.5-2.9-19.8-8.2c-5.3-5.3-8.2-12.3-8.2-19.8s2.9-14.5,8.2-19.8
		c5.3-5.3,12.3-8.2,19.8-8.2c19.9,0,36-16.1,36-36c0-9.6-3.7-18.7-10.5-25.5c-6.8-6.8-15.8-10.5-25.5-10.5c-7.5,0-14.5-2.9-19.8-8.2
		c-5.3-5.3-8.2-12.3-8.2-19.8s2.9-14.5,8.2-19.8c5.3-5.3,12.3-8.2,19.8-8.2c15.4,0,28,12.6,28,28c0,9.6,3.7,18.7,10.5,25.5
		c6.8,6.8,15.8,10.5,25.5,10.5c7.5,0,14.5,2.9,19.8,8.2c5.3,5.3,8.2,12.3,8.2,19.8c0,15.4-12.6,28-28,28c-9.6,0-18.7,3.7-25.5,10.5
		c-6.8,6.8-10.5,15.8-10.5,25.5C188,303.4,175.4,316,160,316z"/>
	<path style="&st17;" d="M672,188c-7.5,0-14.5-2.9-19.8-8.2c-5.3-5.3-8.2-12.3-8.2-19.8V96c0-7.3-2.2-14.4-6.3-20.4
		c-0.3-0.4-0.6-0.8-0.9-1.2c-0.3-0.4-0.7-0.9-1-1.3c-0.4-0.4-0.7-0.9-1.1-1.3c-0.4-0.5-0.8-0.9-1.2-1.3c-0.4-0.4-0.8-0.8-1.2-1.2
		c-0.5-0.4-0.9-0.8-1.3-1.1c-0.4-0.4-0.9-0.7-1.4-1.1c-0.3-0.3-0.7-0.5-1.1-0.8c-6-4.1-13.1-6.3-20.4-6.3c-7.5,0-14.5-2.9-19.8-8.2
		c-5.3-5.3-8.2-12.3-8.2-19.8s2.9-14.5,8.2-19.8C593.5,6.9,600.5,4,608,4s14.5,2.9,19.8,8.2c5.3,5.3,8.2,12.3,8.2,19.8
		c0,9.6,3.7,18.7,10.5,25.5C653.3,64.3,662.4,68,672,68c7.5,0,14.5,2.9,19.8,8.2c5.3,5.3,8.2,12.3,8.2,19.8v64
		C700,175.4,687.4,188,672,188z"/>
	<path style="&st18;" d="M32,188c-7.5,0-14.5-2.9-19.8-8.2C6.9,174.5,4,167.5,4,160V96c0-9.6-3.7-18.7-10.5-25.5
		C-13.3,63.7-22.4,60-32,60c-7.5,0-14.5-2.9-19.8-8.2C-57.1,46.5-60,39.5-60,32s2.9-14.5,8.2-19.8C-46.5,6.9-39.5,4-32,4
		s14.5,2.9,19.8,8.2C-6.9,17.5-4,24.5-4,32c0,0.3,0,0.6,0,1c0,0.5,0,1,0.1,1.6l0,0.2c0,0.5,0.1,1.1,0.2,1.6c0,0.1,0,0.2,0,0.3
		c0.1,0.5,0.1,1,0.2,1.5c0,0.3,0.1,0.6,0.2,0.9c0,0.3,0.1,0.5,0.2,0.8c0.1,0.6,0.3,1.1,0.4,1.7l0.1,0.2c0.1,0.2,0.1,0.4,0.2,0.6
		c0,0.1,0,0.1,0.1,0.2v0.1l0.5,1.4l0,0c0.1,0.2,0.2,0.5,0.3,0.7c0.1,0.2,0.2,0.4,0.3,0.7l0.1,0.1c0,0.1,0.1,0.3,0.2,0.5l0.3,0.7
		c0.2,0.4,0.3,0.8,0.5,1.1c0,0.1,0.2,0.5,0.2,0.5c0.2,0.4,0.4,0.7,0.6,1.1c0,0,0.2,0.3,0.3,0.5C0.8,50,0.9,50.2,1,50.3l0.1,0.1
		c0.1,0.1,0.2,0.3,0.3,0.5c0.2,0.4,0.5,0.8,0.8,1.2c0.1,0.1,0.1,0.2,0.2,0.3c0.3,0.4,0.6,0.8,0.8,1.1c0,0.1,0.1,0.1,0.2,0.2
		c0.2,0.3,0.5,0.6,0.7,0.9c0.5,0.6,0.9,1.1,1.4,1.6c0.4,0.4,0.8,0.8,1.2,1.2c0.4,0.4,0.8,0.8,1.2,1.2c0.5,0.4,0.9,0.8,1.3,1.1
		c0.4,0.4,0.9,0.7,1.4,1.1c0.2,0.2,0.5,0.4,0.7,0.5l0,0l0.3,0.2c0.4,0.3,0.8,0.6,1.3,0.8c0.4,0.2,0.7,0.5,1.1,0.7l0.1,0.1
		c0,0,0.1,0.1,0.2,0.1c0.3,0.1,0.5,0.3,0.8,0.4c0.9,0.5,1.7,0.9,2.5,1.2c0.3,0.1,0.6,0.3,1,0.4c0.1,0.1,0.3,0.1,0.4,0.2
		c0.3,0.1,0.6,0.2,1,0.4c0.4,0.1,0.7,0.3,1.1,0.4l0.1,0l1.4,0.4c0.5,0.1,1,0.3,1.4,0.4l0.1,0c0.4,0.1,0.8,0.2,1.1,0.2
		c0.4,0.1,0.8,0.2,1.2,0.2l0.1,0c0.4,0.1,0.8,0.1,1.2,0.2c0.2,0,0.4,0.1,0.6,0.1c0.6,0.1,1.2,0.1,2,0.2c0,0,0.5,0,0.6,0
		c0.4,0,0.7,0,1.1,0c1,0,2,0.1,3,0.1c6.3,0.7,12.3,3.5,16.8,8C57.1,81.5,60,88.5,60,96v64.4C59.8,175.6,47.3,188,32,188z"/>
	<path style="&st19;" d="M352,316c-7.5,0-14.5-2.9-19.8-8.2c-5.3-5.3-8.2-12.3-8.2-19.8v-64c0-9.6-3.7-18.7-10.5-25.5
		c-6.8-6.8-15.8-10.5-25.5-10.5c-7.5,0-14.5-2.9-19.8-8.2c-5.3-5.3-8.2-12.3-8.2-19.8s2.9-14.5,8.2-19.8c5.3-5.3,12.3-8.2,19.8-8.2
		s14.5,2.9,19.8,8.2c5.3,5.3,8.2,12.3,8.2,19.8c0,0.5,0,1,0,1.5c0,0.5,0,1,0.1,1.5l0.1,0.6c0,0.4,0.1,0.7,0.1,1
		c0.1,0.9,0.3,1.9,0.5,2.9c0.1,0.4,0.2,0.7,0.2,1c0.1,0.5,0.2,0.9,0.3,1.4l0.2,0.7c0.1,0.2,0.1,0.4,0.2,0.6l0.1,0.2
		c0.2,0.5,0.3,0.9,0.5,1.4c0.1,0.3,0.2,0.5,0.3,0.8c0.1,0.2,0.3,0.6,0.3,0.6c0.1,0.2,0.2,0.4,0.3,0.6c0.2,0.4,0.3,0.7,0.5,1.1
		c0.4,0.8,0.8,1.6,1.3,2.5c0.1,0.1,0.2,0.3,0.3,0.5c0.2,0.3,0.3,0.5,0.5,0.8l0.1,0.2c0.2,0.3,0.4,0.6,0.6,0.8
		c0.2,0.3,0.5,0.7,0.8,1.1c0.2,0.3,0.5,0.6,0.7,0.9c0.8,1,1.7,2,2.5,2.8c0.4,0.4,0.8,0.8,1.2,1.2c0.5,0.4,0.9,0.8,1.4,1.2
		c0.4,0.3,0.9,0.7,1.3,1.1c0.3,0.3,0.8,0.6,1.2,0.9l0.3,0.2c0.3,0.2,0.6,0.4,0.9,0.6c0.3,0.2,0.6,0.4,1,0.6c0.2,0.1,0.4,0.3,0.6,0.4
		l0,0c0.2,0.1,0.3,0.2,0.5,0.3c0.8,0.4,1.7,0.9,2.5,1.2c0.3,0.2,0.7,0.3,1,0.4c0.1,0,0.2,0.1,0.2,0.1c0.4,0.2,0.7,0.3,1.1,0.4
		c0.4,0.1,0.8,0.3,1.1,0.4c0.2,0.1,0.3,0.1,0.4,0.1l1,0.3c0.5,0.1,1,0.3,1.4,0.4c0.5,0.1,0.9,0.2,1.3,0.3c0.5,0.1,0.9,0.2,1.4,0.2
		l0,0c0.4,0.1,0.8,0.1,1.2,0.2c0.5,0.1,1.1,0.1,1.6,0.2c0.5,0,1,0.1,1.5,0.1c0.4,0,0.7,0,1.1,0c1,0,2,0.1,3,0.2
		c6.3,0.7,12.3,3.5,16.8,8c5.3,5.3,8.2,12.3,8.2,19.8v64.3c0,0.4,0,0.9-0.1,1.3c-0.1,1.2-0.2,2.4-0.4,3.5c-0.1,0.4-0.1,0.7-0.2,1
		c-0.3,1.5-0.8,2.9-1.3,4.3l0,0.1c-0.1,0.1-0.1,0.3-0.2,0.4l0,0.1c-0.5,1.1-1,2.1-1.5,3c-0.4,0.6-0.7,1.2-1.1,1.7
		c-0.2,0.4-0.5,0.7-0.8,1.1l-0.4,0.5c-0.3,0.3-0.6,0.7-0.9,1c-0.1,0.1-0.2,0.2-0.3,0.3l-0.2,0.2c-0.3,0.3-0.6,0.6-0.9,0.9
		c-0.3,0.3-0.6,0.6-0.9,0.9c-1.1,1-2.4,2-3.7,2.8c-0.3,0.2-0.7,0.4-1.1,0.7c-0.3,0.2-0.6,0.4-0.9,0.5l0,0l-0.3,0.1
		c-0.2,0.1-0.3,0.2-0.5,0.2l-0.1,0c-1,0.5-2.1,0.9-3.2,1.3c-0.3,0.1-0.6,0.2-0.9,0.3l-0.2,0.1c-0.2,0.1-0.5,0.1-0.7,0.2l-0.2,0
		c-0.1,0-0.3,0.1-0.4,0.1c-0.4,0.1-0.7,0.2-1,0.2c-0.4,0.1-0.8,0.1-1.2,0.2c-0.3,0-0.6,0.1-0.9,0.1l-0.2,0c-0.3,0-0.6,0.1-0.9,0.1
		c-0.3,0-0.6,0-0.9,0.1l-0.1,0c-0.1,0-0.2,0-0.3,0h-0.1l-0.1,0c-0.2,0-0.4,0-0.5,0C352.1,316,352.1,316,352,316z"/>
	<path style="&st11;" d="M544,252c-7.5,0-14.5-2.9-19.8-8.2c-5.3-5.3-8.2-12.3-8.2-19.8s2.9-14.5,8.2-19.8
		c5.3-5.3,12.3-8.2,19.8-8.2s14.5,2.9,19.8,8.2c5.3,5.3,8.2,12.3,8.2,19.8C572,239.4,559.4,252,544,252z"/>
	<path style="&st17;" d="M672,188c-7.5,0-14.5-2.9-19.8-8.2c-5.3-5.3-8.2-12.3-8.2-19.8V96c0-7.3-2.2-14.4-6.3-20.4
		c-0.3-0.4-0.6-0.8-0.9-1.2c-0.3-0.4-0.7-0.9-1-1.3c-0.4-0.4-0.7-0.9-1.1-1.3c-0.4-0.5-0.8-0.9-1.2-1.3c-0.4-0.4-0.8-0.8-1.2-1.2
		c-0.5-0.4-0.9-0.8-1.3-1.1c-0.4-0.4-0.9-0.7-1.4-1.1c-0.3-0.3-0.7-0.5-1.1-0.8c-6-4.1-13.1-6.3-20.4-6.3c-7.5,0-14.5-2.9-19.8-8.2
		c-5.3-5.3-8.2-12.3-8.2-19.8s2.9-14.5,8.2-19.8C593.5,6.9,600.5,4,608,4s14.5,2.9,19.8,8.2c5.3,5.3,8.2,12.3,8.2,19.8
		c0,9.6,3.7,18.7,10.5,25.5C653.3,64.3,662.4,68,672,68c7.5,0,14.5,2.9,19.8,8.2c5.3,5.3,8.2,12.3,8.2,19.8v64
		C700,175.4,687.4,188,672,188z"/>
	<path style="&st17;" d="M316,32c0,7.5-2.9,14.5-8.2,19.8c-5.3,5.3-12.3,8.2-19.8,8.2h-64c-7.3,0-14.4,2.2-20.4,6.3
		c-0.4,0.3-0.8,0.6-1.2,0.9c-0.4,0.3-0.9,0.7-1.3,1c-0.4,0.4-0.9,0.7-1.3,1.1c-0.5,0.4-0.9,0.8-1.3,1.2c-0.4,0.4-0.8,0.8-1.2,1.2
		c-0.4,0.5-0.8,0.9-1.1,1.3c-0.4,0.4-0.7,0.9-1.1,1.4c-0.3,0.3-0.5,0.7-0.8,1.1c-4.1,6-6.3,13.1-6.3,20.4c0,7.5-2.9,14.5-8.2,19.8
		c-5.3,5.3-12.3,8.2-19.8,8.2s-14.5-2.9-19.8-8.2c-5.3-5.3-8.2-12.3-8.2-19.8s2.9-14.5,8.2-19.8c5.3-5.3,12.3-8.2,19.8-8.2
		c9.6,0,18.7-3.7,25.5-10.5C192.3,50.7,196,41.6,196,32c0-7.5,2.9-14.5,8.2-19.8C209.5,6.9,216.5,4,224,4h64
		C303.4,4,316,16.6,316,32z"/>
	<path style="&st17;" d="M196,96c0,7.5,2.9,14.5,8.2,19.8c5.3,5.3,12.3,8.2,19.8,8.2h64c7.3,0,14.4,2.2,20.4,6.3
		c0.4,0.3,0.8,0.6,1.2,0.9c0.4,0.3,0.9,0.7,1.3,1c0.4,0.4,0.9,0.7,1.3,1.1c0.5,0.4,0.9,0.8,1.3,1.2c0.4,0.4,0.8,0.8,1.2,1.2
		c0.4,0.5,0.8,0.9,1.1,1.3c0.4,0.4,0.7,0.9,1.1,1.4c0.3,0.3,0.5,0.7,0.8,1.1c4.1,6,6.3,13.1,6.3,20.4c0,7.5,2.9,14.5,8.2,19.8
		c5.3,5.3,12.3,8.2,19.8,8.2s14.5-2.9,19.8-8.2c5.3-5.3,8.2-12.3,8.2-19.8s-2.9-14.5-8.2-19.8c-5.3-5.3-12.3-8.2-19.8-8.2
		c-9.6,0-18.7-3.7-25.5-10.5c-6.8-6.8-10.5-15.8-10.5-25.5c0-7.5-2.9-14.5-8.2-19.8c-5.3-5.3-12.3-8.2-19.8-8.2h-64
		C208.6,68,196,80.6,196,96z"/>
</g>
<g id="Layer_3" style="&st0;">
</g>
<g id="Layer_3_copy" style="&st0;">
	<path style="&st22;" d="M576,224L576,224c0,17.7-14.3,32-32,32h0c-17.7,0-32-14.3-32-32v0c0-17.7,14.3-32,32-32h0
		C561.7,192,576,206.3,576,224z"/>
	<path style="&st22;" d="M640,288c0,17.7-14.3,32-32,32c-8.8,0-16.8-3.6-22.6-9.4c-5.8-5.8-9.4-13.8-9.4-22.6
		c0-8.8,3.6-16.8,9.4-22.6c5.8-5.8,13.8-9.4,22.6-9.4s16.8,3.6,22.6,9.4C636.4,271.2,640,279.2,640,288z"/>
</g>
<g id="Layer_8" style="&st0;">
</g>
</svg>
