<?xml version="1.0" encoding="utf-8"?>
<!-- Generator: Adobe Illustrator 28.0.0, SVG Export Plug-In . SVG Version: 6.00 Build 0)  -->
<!DOCTYPE svg PUBLIC "-//W3C//DTD SVG 1.1//EN" "http://www.w3.org/Graphics/SVG/1.1/DTD/svg11.dtd" [
	<!ENTITY st0 "display:none;">
	<!ENTITY st1 "display:inline;">
	<!ENTITY st2 "display:inline;fill:none;stroke:#000000;stroke-width:0.5;stroke-miterlimit:10;">
	<!ENTITY st3 "fill:none;stroke:#000000;stroke-width:0.5;stroke-miterlimit:10;">
]>
<svg version="1.1" xmlns="http://www.w3.org/2000/svg" xmlns:xlink="http://www.w3.org/1999/xlink" x="0px" y="0px"
	 viewBox="0 0 1920 1080" style="enable-background:new 0 0 1920 1080;" xml:space="preserve">
<g id="Layer_1" style="&st0;">
	<g style="&st1;">
		<path d="M117.1,226.9L117.1,226.9c1.9,0,3.5,1.6,3.5,3.5c0,1.9-1.6,3.5-3.5,3.5c-1.9,0-3.5-1.6-3.5-3.5S115.2,226.9,117.1,226.9
			 M117.1,226.4c-2.2,0-4,1.8-4,4c0,2.2,1.8,4,4,4c2.2,0,4-1.8,4-4S119.3,226.4,117.1,226.4L117.1,226.4z"/>
	</g>
	<g style="&st1;">
		<path d="M30.1,453.9c1.9,0,3.5,1.6,3.5,3.5c0,0.9-0.4,1.8-1,2.5c-0.7,0.7-1.5,1-2.5,1c-1.9,0-3.5-1.6-3.5-3.5c0-0.9,0.4-1.8,1-2.5
			C28.3,454.2,29.2,453.9,30.1,453.9 M30.1,453.4c-2.2,0-4,1.8-4,4c0,2.2,1.8,4,4,4c2.2,0,4-1.8,4-4S32.3,453.4,30.1,453.4
			L30.1,453.4z"/>
	</g>
	<g style="&st1;">
		<path d="M303.1,104.9c0.9,0,1.8,0.4,2.5,1c0.7,0.7,1,1.5,1,2.5c0,0.9-0.4,1.8-1,2.5s-1.5,1-2.5,1c-1.9,0-3.5-1.6-3.5-3.5
			C299.6,106.4,301.2,104.9,303.1,104.9 M303.1,104.4c-2.2,0-4,1.8-4,4c0,2.2,1.8,4,4,4c2.2,0,4-1.8,4-4
			C307.1,106.2,305.3,104.4,303.1,104.4L303.1,104.4z"/>
	</g>
	<polyline style="&st2;" points="-290.9,637.7 30.1,457.4 117.1,230.4 	"/>
	<g style="&st1;">
		<path d="M1716.7,1000.5c1.9,0,3.5,1.6,3.5,3.5s-1.6,3.5-3.5,3.5s-3.5-1.6-3.5-3.5S1714.7,1000.5,1716.7,1000.5 M1716.7,1000
			c-2.2,0-4,1.8-4,4s1.8,4,4,4c2.2,0,4-1.8,4-4S1718.9,1000,1716.7,1000L1716.7,1000z"/>
	</g>
	<polyline style="&st2;" points="1480,1110 1716.7,1004 1984,1204 	"/>
	<polyline style="&st2;" points="361.1,-92.2 303.1,107.8 117.1,230.4 -180.9,65.4 	"/>
	<g style="&st1;">
		<path d="M1818,630.5c1.9,0,3.5,1.6,3.5,3.5s-1.6,3.5-3.5,3.5s-3.5-1.6-3.5-3.5S1816.1,630.5,1818,630.5 M1818,630
			c-2.2,0-4,1.8-4,4s1.8,4,4,4s4-1.8,4-4S1820.2,630,1818,630L1818,630z"/>
	</g>
	<polyline style="&st2;" points="1716.7,1004 1946.7,766.7 1818,634 	"/>
	<g style="&st1;">
		<path d="M1480,26.5c1.9,0,3.5,1.6,3.5,3.5s-1.6,3.5-3.5,3.5s-3.5-1.6-3.5-3.5S1478.1,26.5,1480,26.5 M1480,26c-2.2,0-4,1.8-4,4
			s1.8,4,4,4s4-1.8,4-4S1482.2,26,1480,26L1480,26z"/>
	</g>
	<polyline style="&st2;" points="1480,30 1716.7,-76 1984,124 	"/>
</g>
<g id="Layer_3">
	<g>
		<polygon style="&st3;" points="33,558.2 -245.7,514 -373.8,765.4 -174.3,964.9 77.1,836.8 		"/>
		<polygon style="&st3;" points="77.1,836.8 -174.3,964.9 -130.2,1243.6 148.5,1287.7 276.6,1036.3 		"/>
		<circle style="&st3;" cx="276.6" cy="1036.3" r="4"/>
		<circle style="&st3;" cx="77.1" cy="836.8" r="4"/>
		<circle style="&st3;" cx="33" cy="558.2" r="4"/>
	</g>
	<g>
		<polygon style="&st3;" points="77.1,-243.2 -174.3,-115.1 -130.2,163.6 148.5,207.7 276.6,-43.7 		"/>
		<polygon style="&st3;" points="-130.2,163.6 -258.2,415 -58.7,614.5 192.6,486.4 148.5,207.7 		"/>
		<circle style="&st3;" cx="192.6" cy="486.4" r="4"/>
		<circle style="&st3;" cx="148.5" cy="207.7" r="4"/>
	</g>
	<g>
		<polygon style="&st3;" points="2158.4,-239.6 2158.4,42.5 1890.1,129.7 1724.3,-98.6 1890.1,-326.8 		"/>
		<circle style="&st3;" cx="1889.5" cy="129.8" r="4"/>
	</g>
	<g>
		<polygon style="&st3;" points="2158.4,383.9 2324.3,612.1 2158.4,840.4 1890.1,753.2 1890.1,471 		"/>
		<polygon style="&st3;" points="2158.4,840.4 2158.4,1122.5 1890.1,1209.7 1724.3,981.4 1890.1,753.2 		"/>
		<circle style="&st3;" cx="1724" cy="981.8" r="4"/>
		<circle style="&st3;" cx="1889.9" cy="753.2" r="4"/>
		<circle style="&st3;" cx="1889.8" cy="471.4" r="4"/>
	</g>
</g>
</svg>
