<?xml version="1.0" encoding="utf-8"?>
<!-- Generator: Adobe Illustrator 28.0.0, SVG Export Plug-In . SVG Version: 6.00 Build 0)  -->
<!DOCTYPE svg PUBLIC "-//W3C//DTD SVG 1.1//EN" "http://www.w3.org/Graphics/SVG/1.1/DTD/svg11.dtd" [
	<!ENTITY st0 "fill:#FFFFFF;">
	<!ENTITY st1 "display:none;">
	<!ENTITY st2 "fill:none;stroke:#009640;stroke-width:0.1;">
]>
<svg version="1.1" xmlns="http://www.w3.org/2000/svg" xmlns:xlink="http://www.w3.org/1999/xlink" x="0px" y="0px"
	 viewBox="0 0 768 384" style="enable-background:new 0 0 768 384;" xml:space="preserve">
<symbol  id="New_Symbol" viewBox="-24 -24 48 48">
	<circle style="&st0;" cx="0" cy="0" r="24"/>
</symbol>
<g id="square_copy_2" style="&st1;">
	
		<use xlink:href="#New_Symbol"  width="48" height="48" x="-24" y="-24" transform="matrix(1 0 0 -1 24 360)" style="display:inline;overflow:visible;"/>
	
		<use xlink:href="#New_Symbol"  width="48" height="48" x="-24" y="-24" transform="matrix(1 0 0 -1 72 360)" style="display:inline;overflow:visible;"/>
	
		<use xlink:href="#New_Symbol"  width="48" height="48" x="-24" y="-24" transform="matrix(1 0 0 -1 744 360)" style="display:inline;overflow:visible;"/>
	
		<use xlink:href="#New_Symbol"  width="48" height="48" x="-24" y="-24" transform="matrix(1 0 0 -1 696 360)" style="display:inline;overflow:visible;"/>
	
		<use xlink:href="#New_Symbol"  width="48" height="48" x="-24" y="-24" transform="matrix(1 0 0 -1 648 360)" style="display:inline;overflow:visible;"/>
	
		<use xlink:href="#New_Symbol"  width="48" height="48" x="-24" y="-24" transform="matrix(1 0 0 -1 600 360)" style="display:inline;overflow:visible;"/>
	
		<use xlink:href="#New_Symbol"  width="48" height="48" x="-24" y="-24" transform="matrix(1 0 0 -1 552 360)" style="display:inline;overflow:visible;"/>
	
		<use xlink:href="#New_Symbol"  width="48" height="48" x="-24" y="-24" transform="matrix(1 0 0 -1 504 360)" style="display:inline;overflow:visible;"/>
	
		<use xlink:href="#New_Symbol"  width="48" height="48" x="-24" y="-24" transform="matrix(1 0 0 -1 456 360)" style="display:inline;overflow:visible;"/>
	
		<use xlink:href="#New_Symbol"  width="48" height="48" x="-24" y="-24" transform="matrix(1 0 0 -1 408 360)" style="display:inline;overflow:visible;"/>
	
		<use xlink:href="#New_Symbol"  width="48" height="48" x="-24" y="-24" transform="matrix(1 0 0 -1 360 360)" style="display:inline;overflow:visible;"/>
	
		<use xlink:href="#New_Symbol"  width="48" height="48" x="-24" y="-24" transform="matrix(1 0 0 -1 312 360)" style="display:inline;overflow:visible;"/>
	
		<use xlink:href="#New_Symbol"  width="48" height="48" x="-24" y="-24" transform="matrix(1 0 0 -1 264 360)" style="display:inline;overflow:visible;"/>
	
		<use xlink:href="#New_Symbol"  width="48" height="48" x="-24" y="-24" transform="matrix(1 0 0 -1 216 360)" style="display:inline;overflow:visible;"/>
	
		<use xlink:href="#New_Symbol"  width="48" height="48" x="-24" y="-24" transform="matrix(1 0 0 -1 168 360)" style="display:inline;overflow:visible;"/>
	
		<use xlink:href="#New_Symbol"  width="48" height="48" x="-24" y="-24" transform="matrix(1 0 0 -1 120 360)" style="display:inline;overflow:visible;"/>
	
		<use xlink:href="#New_Symbol"  width="48" height="48" x="-24" y="-24" transform="matrix(1 0 0 -1 24 312)" style="display:inline;overflow:visible;opacity:0.84;"/>
	
		<use xlink:href="#New_Symbol"  width="48" height="48" x="-24" y="-24" transform="matrix(1 0 0 -1 72 312)" style="display:inline;overflow:visible;opacity:0.98;"/>
	
		<use xlink:href="#New_Symbol"  width="48" height="48" x="-24" y="-24" transform="matrix(1 0 0 -1 744 312)" style="display:inline;overflow:visible;opacity:0.9;"/>
	
		<use xlink:href="#New_Symbol"  width="48" height="48" x="-24" y="-24" transform="matrix(1 0 0 -1 696 312)" style="display:inline;overflow:visible;opacity:0.82;"/>
	
		<use xlink:href="#New_Symbol"  width="48" height="48" x="-24" y="-24" transform="matrix(1 0 0 -1 648 312)" style="display:inline;overflow:visible;opacity:0.93;"/>
	
		<use xlink:href="#New_Symbol"  width="48" height="48" x="-24" y="-24" transform="matrix(1 0 0 -1 600 312)" style="display:inline;overflow:visible;opacity:0.97;"/>
	
		<use xlink:href="#New_Symbol"  width="48" height="48" x="-24" y="-24" transform="matrix(1 0 0 -1 552 312)" style="display:inline;overflow:visible;opacity:0.84;"/>
	
		<use xlink:href="#New_Symbol"  width="48" height="48" x="-24" y="-24" transform="matrix(1 0 0 -1 504 312)" style="display:inline;overflow:visible;opacity:0.83;"/>
	
		<use xlink:href="#New_Symbol"  width="48" height="48" x="-24" y="-24" transform="matrix(1 0 0 -1 456 312)" style="display:inline;overflow:visible;opacity:0.85;"/>
	
		<use xlink:href="#New_Symbol"  width="48" height="48" x="-24" y="-24" transform="matrix(1 0 0 -1 408 312)" style="display:inline;overflow:visible;opacity:0.79;"/>
	
		<use xlink:href="#New_Symbol"  width="48" height="48" x="-24" y="-24" transform="matrix(1 0 0 -1 360 312)" style="display:inline;overflow:visible;opacity:0.98;"/>
	
		<use xlink:href="#New_Symbol"  width="48" height="48" x="-24" y="-24" transform="matrix(1 0 0 -1 312 312)" style="display:inline;overflow:visible;opacity:0.87;"/>
	
		<use xlink:href="#New_Symbol"  width="48" height="48" x="-24" y="-24" transform="matrix(1 0 0 -1 264 312)" style="display:inline;overflow:visible;opacity:0.75;"/>
	
		<use xlink:href="#New_Symbol"  width="48" height="48" x="-24" y="-24" transform="matrix(1 0 0 -1 216 312)" style="display:inline;overflow:visible;opacity:0.81;"/>
	
		<use xlink:href="#New_Symbol"  width="48" height="48" x="-24" y="-24" transform="matrix(1 0 0 -1 168 312)" style="display:inline;overflow:visible;opacity:0.94;"/>
	
		<use xlink:href="#New_Symbol"  width="48" height="48" x="-24" y="-24" transform="matrix(1 0 0 -1 120 312)" style="display:inline;overflow:visible;opacity:0.86;"/>
	
		<use xlink:href="#New_Symbol"  width="48" height="48" x="-24" y="-24" transform="matrix(1 0 0 -1 24 264)" style="display:inline;overflow:visible;opacity:0.73;"/>
	
		<use xlink:href="#New_Symbol"  width="48" height="48" x="-24" y="-24" transform="matrix(1 0 0 -1 72 264)" style="display:inline;overflow:visible;opacity:0.81;"/>
	
		<use xlink:href="#New_Symbol"  width="48" height="48" x="-24" y="-24" transform="matrix(1 0 0 -1 744 264)" style="display:inline;overflow:visible;opacity:0.69;"/>
	
		<use xlink:href="#New_Symbol"  width="48" height="48" x="-24" y="-24" transform="matrix(1 0 0 -1 696 264)" style="display:inline;overflow:visible;opacity:0.54;"/>
	
		<use xlink:href="#New_Symbol"  width="48" height="48" x="-24" y="-24" transform="matrix(1 0 0 -1 648 264)" style="display:inline;overflow:visible;opacity:0.52;"/>
	
		<use xlink:href="#New_Symbol"  width="48" height="48" x="-24" y="-24" transform="matrix(1 0 0 -1 600 264)" style="display:inline;overflow:visible;opacity:0.68;"/>
	
		<use xlink:href="#New_Symbol"  width="48" height="48" x="-24" y="-24" transform="matrix(1 0 0 -1 552 264)" style="display:inline;overflow:visible;opacity:0.98;"/>
	
		<use xlink:href="#New_Symbol"  width="48" height="48" x="-24" y="-24" transform="matrix(1 0 0 -1 504 264)" style="display:inline;overflow:visible;opacity:0.91;"/>
	
		<use xlink:href="#New_Symbol"  width="48" height="48" x="-24" y="-24" transform="matrix(1 0 0 -1 456 264)" style="display:inline;overflow:visible;opacity:0.98;"/>
	
		<use xlink:href="#New_Symbol"  width="48" height="48" x="-24" y="-24" transform="matrix(1 0 0 -1 408 264)" style="display:inline;overflow:visible;opacity:0.99;"/>
	
		<use xlink:href="#New_Symbol"  width="48" height="48" x="-24" y="-24" transform="matrix(1 0 0 -1 360 264)" style="display:inline;overflow:visible;opacity:0.75;"/>
	
		<use xlink:href="#New_Symbol"  width="48" height="48" x="-24" y="-24" transform="matrix(1 0 0 -1 312 264)" style="display:inline;overflow:visible;opacity:0.55;"/>
	
		<use xlink:href="#New_Symbol"  width="48" height="48" x="-24" y="-24" transform="matrix(1 0 0 -1 264 264)" style="display:inline;overflow:visible;opacity:0.82;"/>
	
		<use xlink:href="#New_Symbol"  width="48" height="48" x="-24" y="-24" transform="matrix(1 0 0 -1 216 264)" style="display:inline;overflow:visible;opacity:0.69;"/>
	
		<use xlink:href="#New_Symbol"  width="48" height="48" x="-24" y="-24" transform="matrix(1 0 0 -1 168 264)" style="display:inline;overflow:visible;opacity:0.58;"/>
	
		<use xlink:href="#New_Symbol"  width="48" height="48" x="-24" y="-24" transform="matrix(1 0 0 -1 120 264)" style="display:inline;overflow:visible;opacity:0.75;"/>
	
		<use xlink:href="#New_Symbol"  width="48" height="48" x="-24" y="-24" transform="matrix(1 0 0 -1 24 216)" style="display:inline;overflow:visible;opacity:0.7;"/>
	
		<use xlink:href="#New_Symbol"  width="48" height="48" x="-24" y="-24" transform="matrix(1 0 0 -1 72 216)" style="display:inline;overflow:visible;opacity:0.48;"/>
	
		<use xlink:href="#New_Symbol"  width="48" height="48" x="-24" y="-24" transform="matrix(1 0 0 -1 744 216)" style="display:inline;overflow:visible;opacity:0.43;"/>
	
		<use xlink:href="#New_Symbol"  width="48" height="48" x="-24" y="-24" transform="matrix(1 0 0 -1 696 216)" style="display:inline;overflow:visible;opacity:0.87;"/>
	
		<use xlink:href="#New_Symbol"  width="48" height="48" x="-24" y="-24" transform="matrix(1 0 0 -1 648 216)" style="display:inline;overflow:visible;opacity:0.91;"/>
	
		<use xlink:href="#New_Symbol"  width="48" height="48" x="-24" y="-24" transform="matrix(1 0 0 -1 600 216)" style="display:inline;overflow:visible;opacity:0.51;"/>
	
		<use xlink:href="#New_Symbol"  width="48" height="48" x="-24" y="-24" transform="matrix(1 0 0 -1 552 216)" style="display:inline;overflow:visible;opacity:0.28;"/>
	
		<use xlink:href="#New_Symbol"  width="48" height="48" x="-24" y="-24" transform="matrix(1 0 0 -1 504 216)" style="display:inline;overflow:visible;opacity:0.63;"/>
	
		<use xlink:href="#New_Symbol"  width="48" height="48" x="-24" y="-24" transform="matrix(1 0 0 -1 456 216)" style="display:inline;overflow:visible;opacity:0.92;"/>
	
		<use xlink:href="#New_Symbol"  width="48" height="48" x="-24" y="-24" transform="matrix(1 0 0 -1 408 216)" style="display:inline;overflow:visible;opacity:0.87;"/>
	
		<use xlink:href="#New_Symbol"  width="48" height="48" x="-24" y="-24" transform="matrix(1 0 0 -1 360 216)" style="display:inline;overflow:visible;opacity:0.96;"/>
	
		<use xlink:href="#New_Symbol"  width="48" height="48" x="-24" y="-24" transform="matrix(1 0 0 -1 312 216)" style="display:inline;overflow:visible;opacity:0.33;"/>
	
		<use xlink:href="#New_Symbol"  width="48" height="48" x="-24" y="-24" transform="matrix(1 0 0 -1 264 216)" style="display:inline;overflow:visible;opacity:0.61;"/>
	
		<use xlink:href="#New_Symbol"  width="48" height="48" x="-24" y="-24" transform="matrix(1 0 0 -1 216 216)" style="display:inline;overflow:visible;opacity:0.86;"/>
	
		<use xlink:href="#New_Symbol"  width="48" height="48" x="-24" y="-24" transform="matrix(1 0 0 -1 168 216)" style="display:inline;overflow:visible;opacity:0.72;"/>
	
		<use xlink:href="#New_Symbol"  width="48" height="48" x="-24" y="-24" transform="matrix(1 0 0 -1 120 216)" style="display:inline;overflow:visible;opacity:0.5;"/>
	
		<use xlink:href="#New_Symbol"  width="48" height="48" x="-24" y="-24" transform="matrix(1 0 0 -1 24 168)" style="display:inline;overflow:visible;opacity:0.21;"/>
	
		<use xlink:href="#New_Symbol"  width="48" height="48" x="-24" y="-24" transform="matrix(1 0 0 -1 72 168)" style="display:inline;overflow:visible;opacity:0.22;"/>
	
		<use xlink:href="#New_Symbol"  width="48" height="48" x="-24" y="-24" transform="matrix(1 0 0 -1 744 168)" style="display:inline;overflow:visible;opacity:0.37;"/>
	
		<use xlink:href="#New_Symbol"  width="48" height="48" x="-24" y="-24" transform="matrix(1 0 0 -1 696 168)" style="display:inline;overflow:visible;opacity:0.26;"/>
	
		<use xlink:href="#New_Symbol"  width="48" height="48" x="-24" y="-24" transform="matrix(1 0 0 -1 648 168)" style="display:inline;overflow:visible;opacity:0.22;"/>
	
		<use xlink:href="#New_Symbol"  width="48" height="48" x="-24" y="-24" transform="matrix(1 0 0 -1 600 168)" style="display:inline;overflow:visible;opacity:0.39;"/>
	
		<use xlink:href="#New_Symbol"  width="48" height="48" x="-24" y="-24" transform="matrix(1 0 0 -1 552 168)" style="display:inline;overflow:visible;opacity:0.35;"/>
	
		<use xlink:href="#New_Symbol"  width="48" height="48" x="-24" y="-24" transform="matrix(1 0 0 -1 504 168)" style="display:inline;overflow:visible;opacity:0.24;"/>
	
		<use xlink:href="#New_Symbol"  width="48" height="48" x="-24" y="-24" transform="matrix(1 0 0 -1 456 168)" style="display:inline;overflow:visible;opacity:0.21;"/>
	
		<use xlink:href="#New_Symbol"  width="48" height="48" x="-24" y="-24" transform="matrix(1 0 0 -1 408 168)" style="display:inline;overflow:visible;opacity:0.33;"/>
	
		<use xlink:href="#New_Symbol"  width="48" height="48" x="-24" y="-24" transform="matrix(1 0 0 -1 360 168)" style="display:inline;overflow:visible;opacity:0.44;"/>
	
		<use xlink:href="#New_Symbol"  width="48" height="48" x="-24" y="-24" transform="matrix(1 0 0 -1 312 168)" style="display:inline;overflow:visible;opacity:0.36;"/>
	
		<use xlink:href="#New_Symbol"  width="48" height="48" x="-24" y="-24" transform="matrix(1 0 0 -1 264 168)" style="display:inline;overflow:visible;opacity:0.3;"/>
	
		<use xlink:href="#New_Symbol"  width="48" height="48" x="-24" y="-24" transform="matrix(1 0 0 -1 216 168)" style="display:inline;overflow:visible;opacity:0.33;"/>
	
		<use xlink:href="#New_Symbol"  width="48" height="48" x="-24" y="-24" transform="matrix(1 0 0 -1 168 168)" style="display:inline;overflow:visible;opacity:0.3;"/>
	
		<use xlink:href="#New_Symbol"  width="48" height="48" x="-24" y="-24" transform="matrix(1 0 0 -1 120 168)" style="display:inline;overflow:visible;opacity:0.36;"/>
	
		<use xlink:href="#New_Symbol"  width="48" height="48" x="-24" y="-24" transform="matrix(1 0 0 -1 24 120)" style="display:inline;overflow:visible;opacity:0.12;"/>
	
		<use xlink:href="#New_Symbol"  width="48" height="48" x="-24" y="-24" transform="matrix(1 0 0 -1 72 120)" style="display:inline;overflow:visible;opacity:0.11;"/>
	
		<use xlink:href="#New_Symbol"  width="48" height="48" x="-24" y="-24" transform="matrix(1 0 0 -1 744 120)" style="display:inline;overflow:visible;opacity:0.14;"/>
	
		<use xlink:href="#New_Symbol"  width="48" height="48" x="-24" y="-24" transform="matrix(1 0 0 -1 696 120)" style="display:inline;overflow:visible;opacity:0.3;"/>
	
		<use xlink:href="#New_Symbol"  width="48" height="48" x="-24" y="-24" transform="matrix(1 0 0 -1 648 120)" style="display:inline;overflow:visible;opacity:0.19;"/>
	
		<use xlink:href="#New_Symbol"  width="48" height="48" x="-24" y="-24" transform="matrix(1 0 0 -1 600 120)" style="display:inline;overflow:visible;opacity:0.13;"/>
	
		<use xlink:href="#New_Symbol"  width="48" height="48" x="-24" y="-24" transform="matrix(1 0 0 -1 552 120)" style="display:inline;overflow:visible;opacity:0.13;"/>
	
		<use xlink:href="#New_Symbol"  width="48" height="48" x="-24" y="-24" transform="matrix(1 0 0 -1 504 120)" style="display:inline;overflow:visible;opacity:5.000000e-02;"/>
	
		<use xlink:href="#New_Symbol"  width="48" height="48" x="-24" y="-24" transform="matrix(1 0 0 -1 456 120)" style="display:inline;overflow:visible;opacity:0.22;"/>
	
		<use xlink:href="#New_Symbol"  width="48" height="48" x="-24" y="-24" transform="matrix(1 0 0 -1 408 120)" style="display:inline;overflow:visible;opacity:3.000000e-02;"/>
	
		<use xlink:href="#New_Symbol"  width="48" height="48" x="-24" y="-24" transform="matrix(1 0 0 -1 360 120)" style="display:inline;overflow:visible;opacity:0.26;"/>
	
		<use xlink:href="#New_Symbol"  width="48" height="48" x="-24" y="-24" transform="matrix(1 0 0 -1 312 120)" style="display:inline;overflow:visible;opacity:3.000000e-02;"/>
	
		<use xlink:href="#New_Symbol"  width="48" height="48" x="-24" y="-24" transform="matrix(1 0 0 -1 264 120)" style="display:inline;overflow:visible;opacity:0.33;"/>
	
		<use xlink:href="#New_Symbol"  width="48" height="48" x="-24" y="-24" transform="matrix(1 0 0 -1 216 120)" style="display:inline;overflow:visible;opacity:1.000000e-02;"/>
	
		<use xlink:href="#New_Symbol"  width="48" height="48" x="-24" y="-24" transform="matrix(1 0 0 -1 168 120)" style="display:inline;overflow:visible;opacity:0.32;"/>
	
		<use xlink:href="#New_Symbol"  width="48" height="48" x="-24" y="-24" transform="matrix(1 0 0 -1 120 120)" style="display:inline;overflow:visible;opacity:0.25;"/>
	
		<use xlink:href="#New_Symbol"  width="48" height="48" x="-24" y="-24" transform="matrix(1 0 0 -1 24 72)" style="display:inline;overflow:visible;opacity:9.000000e-02;"/>
	
		<use xlink:href="#New_Symbol"  width="48" height="48" x="-24" y="-24" transform="matrix(1 0 0 -1 72 72)" style="display:inline;overflow:visible;opacity:3.000000e-02;"/>
	
		<use xlink:href="#New_Symbol"  width="48" height="48" x="-24" y="-24" transform="matrix(1 0 0 -1 744 72)" style="display:inline;overflow:visible;opacity:0.17;"/>
	
		<use xlink:href="#New_Symbol"  width="48" height="48" x="-24" y="-24" transform="matrix(1 0 0 -1 696 72)" style="display:inline;overflow:visible;opacity:6.000000e-02;"/>
	
		<use xlink:href="#New_Symbol"  width="48" height="48" x="-24" y="-24" transform="matrix(1 0 0 -1 648 72)" style="display:inline;overflow:visible;opacity:0.16;"/>
	
		<use xlink:href="#New_Symbol"  width="48" height="48" x="-24" y="-24" transform="matrix(1 0 0 -1 600 72)" style="display:inline;overflow:visible;opacity:4.000000e-02;"/>
	
		<use xlink:href="#New_Symbol"  width="48" height="48" x="-24" y="-24" transform="matrix(1 0 0 -1 552 72)" style="display:inline;overflow:visible;opacity:0.15;"/>
	
		<use xlink:href="#New_Symbol"  width="48" height="48" x="-24" y="-24" transform="matrix(1 0 0 -1 504 72)" style="display:inline;overflow:visible;opacity:4.000000e-02;"/>
	
		<use xlink:href="#New_Symbol"  width="48" height="48" x="-24" y="-24" transform="matrix(1 0 0 -1 456 72)" style="display:inline;overflow:visible;opacity:6.000000e-02;"/>
	
		<use xlink:href="#New_Symbol"  width="48" height="48" x="-24" y="-24" transform="matrix(1 0 0 -1 408 72)" style="display:inline;overflow:visible;opacity:0.11;"/>
	
		<use xlink:href="#New_Symbol"  width="48" height="48" x="-24" y="-24" transform="matrix(1 0 0 -1 360 72)" style="display:inline;overflow:visible;opacity:9.000000e-02;"/>
	
		<use xlink:href="#New_Symbol"  width="48" height="48" x="-24" y="-24" transform="matrix(1 0 0 -1 312 72)" style="display:inline;overflow:visible;opacity:6.000000e-02;"/>
	
		<use xlink:href="#New_Symbol"  width="48" height="48" x="-24" y="-24" transform="matrix(1 0 0 -1 264 72)" style="display:inline;overflow:visible;opacity:2.000000e-02;"/>
	
		<use xlink:href="#New_Symbol"  width="48" height="48" x="-24" y="-24" transform="matrix(1 0 0 -1 216 72)" style="display:inline;overflow:visible;opacity:5.000000e-02;"/>
	
		<use xlink:href="#New_Symbol"  width="48" height="48" x="-24" y="-24" transform="matrix(1 0 0 -1 168 72)" style="display:inline;overflow:visible;opacity:0.1;"/>
	
		<use xlink:href="#New_Symbol"  width="48" height="48" x="-24" y="-24" transform="matrix(1 0 0 -1 120 72)" style="display:inline;overflow:visible;opacity:9.000000e-02;"/>
	
		<use xlink:href="#New_Symbol"  width="48" height="48" x="-24" y="-24" transform="matrix(1 0 0 -1 24 24)" style="display:inline;overflow:visible;opacity:0.14;"/>
	
		<use xlink:href="#New_Symbol"  width="48" height="48" x="-24" y="-24" transform="matrix(1 0 0 -1 72 24)" style="display:inline;overflow:visible;opacity:0.12;"/>
	
		<use xlink:href="#New_Symbol"  width="48" height="48" x="-24" y="-24" transform="matrix(1 0 0 -1 744 24)" style="display:inline;overflow:visible;opacity:0.1;"/>
	
		<use xlink:href="#New_Symbol"  width="48" height="48" x="-24" y="-24" transform="matrix(1 0 0 -1 696 24)" style="display:inline;overflow:visible;opacity:6.000000e-02;"/>
	
		<use xlink:href="#New_Symbol"  width="48" height="48" x="-24" y="-24" transform="matrix(1 0 0 -1 648 24)" style="display:inline;overflow:visible;opacity:8.000000e-02;"/>
	
		<use xlink:href="#New_Symbol"  width="48" height="48" x="-24" y="-24" transform="matrix(1 0 0 -1 600 24)" style="display:inline;overflow:visible;opacity:6.000000e-02;"/>
	
		<use xlink:href="#New_Symbol"  width="48" height="48" x="-24" y="-24" transform="matrix(1 0 0 -1 552 24)" style="display:inline;overflow:visible;opacity:0.1;"/>
	
		<use xlink:href="#New_Symbol"  width="48" height="48" x="-24" y="-24" transform="matrix(1 0 0 -1 504 24)" style="display:inline;overflow:visible;opacity:2.000000e-02;"/>
	
		<use xlink:href="#New_Symbol"  width="48" height="48" x="-24" y="-24" transform="matrix(1 0 0 -1 456 24)" style="display:inline;overflow:visible;opacity:9.000000e-02;"/>
	
		<use xlink:href="#New_Symbol"  width="48" height="48" x="-24" y="-24" transform="matrix(1 0 0 -1 408 24)" style="display:inline;overflow:visible;opacity:0;"/>
	
		<use xlink:href="#New_Symbol"  width="48" height="48" x="-24" y="-24" transform="matrix(1 0 0 -1 360 24)" style="display:inline;overflow:visible;opacity:6.000000e-02;"/>
	
		<use xlink:href="#New_Symbol"  width="48" height="48" x="-24" y="-24" transform="matrix(1 0 0 -1 312 24)" style="display:inline;overflow:visible;opacity:0.12;"/>
	
		<use xlink:href="#New_Symbol"  width="48" height="48" x="-24" y="-24" transform="matrix(1 0 0 -1 264 24)" style="display:inline;overflow:visible;opacity:1.000000e-02;"/>
	
		<use xlink:href="#New_Symbol"  width="48" height="48" x="-24" y="-24" transform="matrix(1 0 0 -1 216 24)" style="display:inline;overflow:visible;opacity:0.11;"/>
	
		<use xlink:href="#New_Symbol"  width="48" height="48" x="-24" y="-24" transform="matrix(1 0 0 -1 168 24)" style="display:inline;overflow:visible;opacity:0.11;"/>
	
		<use xlink:href="#New_Symbol"  width="48" height="48" x="-24" y="-24" transform="matrix(1 0 0 -1 120 24)" style="display:inline;overflow:visible;opacity:8.000000e-02;"/>
</g>
<g id="Layer_2">
	<rect style="&st0;" width="48" height="48"/>
	<rect x="48" style="&st0;" width="48" height="48"/>
	<rect x="96" style="&st0;" width="48" height="48"/>
	<rect x="144" style="&st0;" width="48" height="48"/>
	<rect x="192" style="&st0;" width="48" height="48"/>
	<rect x="240" style="&st0;" width="48" height="48"/>
	<rect x="288" style="&st0;" width="48" height="48"/>
	<rect x="336" style="&st0;" width="48" height="48"/>
	<rect x="384" style="&st0;" width="48" height="48"/>
	<rect x="432" style="&st0;" width="48" height="48"/>
	<rect x="480" style="&st0;" width="48" height="48"/>
	<rect x="528" style="&st0;" width="48" height="48"/>
	<rect x="576" style="&st0;" width="48" height="48"/>
	<rect x="624" style="&st0;" width="48" height="48"/>
	<rect x="672" style="&st0;" width="48" height="48"/>
	<rect x="720" style="&st0;" width="48" height="48"/>
	<rect y="48" style="&st0;" width="48" height="48"/>
	<rect x="48" y="48" style="&st0;" width="48" height="48"/>
	<rect x="96" y="48" style="&st0;" width="48" height="48"/>
	<rect x="144" y="48" style="&st0;" width="48" height="48"/>
	<rect x="192" y="48" style="&st0;" width="48" height="48"/>
	<rect x="240" y="48" style="&st0;" width="48" height="48"/>
	<rect x="288" y="48" style="&st0;" width="48" height="48"/>
	<rect x="336" y="48" style="&st0;" width="48" height="48"/>
	<rect x="384" y="48" style="&st0;" width="48" height="48"/>
	<rect x="432" y="48" style="&st0;" width="48" height="48"/>
	<rect x="480" y="48" style="&st0;" width="48" height="48"/>
	<rect x="528" y="48" style="&st0;" width="48" height="48"/>
	<rect x="576" y="48" style="&st0;" width="48" height="48"/>
	<rect x="624" y="48" style="&st0;" width="48" height="48"/>
	<rect x="672" y="48" style="&st0;" width="48" height="48"/>
	<rect x="720" y="48" style="&st0;" width="48" height="48"/>
	<rect y="96" style="&st0;" width="48" height="48"/>
	<rect x="48" y="96" style="&st0;" width="48" height="48"/>
	<rect x="96" y="96" style="&st0;" width="48" height="48"/>
	<rect x="144" y="96" style="&st0;" width="48" height="48"/>
	<rect x="192" y="96" style="&st0;" width="48" height="48"/>
	<rect x="240" y="96" style="&st0;" width="48" height="48"/>
	<rect x="288" y="96" style="&st0;" width="48" height="48"/>
	<rect x="336" y="96" style="&st0;" width="48" height="48"/>
	<rect x="384" y="96" style="&st0;" width="48" height="48"/>
	<rect x="432" y="96" style="&st0;" width="48" height="48"/>
	<rect x="480" y="96" style="&st0;" width="48" height="48"/>
	<rect x="528" y="96" style="&st0;" width="48" height="48"/>
	<rect x="576" y="96" style="&st0;" width="48" height="48"/>
	<rect x="624" y="96" style="&st0;" width="48" height="48"/>
	<rect x="672" y="96" style="&st0;" width="48" height="48"/>
	<rect x="720" y="96" style="&st0;" width="48" height="48"/>
	<rect y="144" style="&st0;" width="48" height="48"/>
	<rect x="48" y="144" style="&st0;" width="48" height="48"/>
	<rect x="96" y="144" style="&st0;" width="48" height="48"/>
	<rect x="144" y="144" style="&st0;" width="48" height="48"/>
	<rect x="192" y="144" style="&st0;" width="48" height="48"/>
	<rect x="240" y="144" style="&st0;" width="48" height="48"/>
	<rect x="288" y="144" style="&st0;" width="48" height="48"/>
	<rect x="336" y="144" style="&st0;" width="48" height="48"/>
	<rect x="384" y="144" style="&st0;" width="48" height="48"/>
	<rect x="432" y="144" style="&st0;" width="48" height="48"/>
	<rect x="480" y="144" style="&st0;" width="48" height="48"/>
	<rect x="528" y="144" style="&st0;" width="48" height="48"/>
	<rect x="576" y="144" style="&st0;" width="48" height="48"/>
	<rect x="624" y="144" style="&st0;" width="48" height="48"/>
	<rect x="672" y="144" style="&st0;" width="48" height="48"/>
	<rect x="720" y="144" style="&st0;" width="48" height="48"/>
	<rect y="192" style="&st0;" width="48" height="48"/>
	<rect x="48" y="192" style="&st0;" width="48" height="48"/>
	<rect x="96" y="192" style="&st0;" width="48" height="48"/>
	<rect x="144" y="192" style="&st0;" width="48" height="48"/>
	<rect x="192" y="192" style="&st0;" width="48" height="48"/>
	<rect x="240" y="192" style="&st0;" width="48" height="48"/>
	<rect x="288" y="192" style="&st0;" width="48" height="48"/>
	<rect x="336" y="192" style="&st0;" width="48" height="48"/>
	<rect x="384" y="192" style="&st0;" width="48" height="48"/>
	<rect x="432" y="192" style="&st0;" width="48" height="48"/>
	<rect x="480" y="192" style="&st0;" width="48" height="48"/>
	<rect x="528" y="192" style="&st0;" width="48" height="48"/>
	<rect x="576" y="192" style="&st0;" width="48" height="48"/>
	<rect x="624" y="192" style="&st0;" width="48" height="48"/>
	<rect x="672" y="192" style="&st0;" width="48" height="48"/>
	<rect x="720" y="192" style="&st0;" width="48" height="48"/>
	<rect y="240" style="&st0;" width="48" height="48"/>
	<rect x="48" y="240" style="&st0;" width="48" height="48"/>
	<rect x="96" y="240" style="&st0;" width="48" height="48"/>
	<rect x="144" y="240" style="&st0;" width="48" height="48"/>
	<rect x="192" y="240" style="&st0;" width="48" height="48"/>
	<rect x="240" y="240" style="&st0;" width="48" height="48"/>
	<rect x="288" y="240" style="&st0;" width="48" height="48"/>
	<rect x="336" y="240" style="&st0;" width="48" height="48"/>
	<rect x="384" y="240" style="&st0;" width="48" height="48"/>
	<rect x="432" y="240" style="&st0;" width="48" height="48"/>
	<rect x="480" y="240" style="&st0;" width="48" height="48"/>
	<rect x="528" y="240" style="&st0;" width="48" height="48"/>
	<rect x="576" y="240" style="&st0;" width="48" height="48"/>
	<rect x="624" y="240" style="&st0;" width="48" height="48"/>
	<rect x="672" y="240" style="&st0;" width="48" height="48"/>
	<rect x="720" y="240" style="&st0;" width="48" height="48"/>
	<rect y="288" style="&st0;" width="48" height="48"/>
	<rect x="48" y="288" style="&st0;" width="48" height="48"/>
	<rect x="96" y="288" style="&st0;" width="48" height="48"/>
	<rect x="144" y="288" style="&st0;" width="48" height="48"/>
	<rect x="192" y="288" style="&st0;" width="48" height="48"/>
	<rect x="240" y="288" style="&st0;" width="48" height="48"/>
	<rect x="288" y="288" style="&st0;" width="48" height="48"/>
	<rect x="336" y="288" style="&st0;" width="48" height="48"/>
	<rect x="384" y="288" style="&st0;" width="48" height="48"/>
	<rect x="432" y="288" style="&st0;" width="48" height="48"/>
	<rect x="480" y="288" style="&st0;" width="48" height="48"/>
	<rect x="528" y="288" style="&st0;" width="48" height="48"/>
	<rect x="576" y="288" style="&st0;" width="48" height="48"/>
	<rect x="624" y="288" style="&st0;" width="48" height="48"/>
	<rect x="672" y="288" style="&st0;" width="48" height="48"/>
	<rect x="720" y="288" style="&st0;" width="48" height="48"/>
	<rect y="336" style="&st0;" width="48" height="48"/>
	<rect x="48" y="336" style="&st0;" width="48" height="48"/>
	<rect x="96" y="336" style="&st0;" width="48" height="48"/>
	<rect x="144" y="336" style="&st0;" width="48" height="48"/>
	<rect x="192" y="336" style="&st0;" width="48" height="48"/>
	<rect x="240" y="336" style="&st0;" width="48" height="48"/>
	<rect x="288" y="336" style="&st0;" width="48" height="48"/>
	<rect x="336" y="336" style="&st0;" width="48" height="48"/>
	<rect x="384" y="336" style="&st0;" width="48" height="48"/>
	<rect x="432" y="336" style="&st0;" width="48" height="48"/>
	<rect x="480" y="336" style="&st0;" width="48" height="48"/>
	<rect x="528" y="336" style="&st0;" width="48" height="48"/>
	<rect x="576" y="336" style="&st0;" width="48" height="48"/>
	<rect x="624" y="336" style="&st0;" width="48" height="48"/>
	<rect x="672" y="336" style="&st0;" width="48" height="48"/>
	<rect x="720" y="336" style="&st0;" width="48" height="48"/>
	<g>
		<line style="&st2;" x1="768" y1="200" x2="768" y2="784"/>
		<line style="&st2;" x1="720" y1="200" x2="720" y2="784"/>
		<line style="&st2;" x1="720" y1="200" x2="720" y2="784"/>
		<line style="&st2;" x1="672" y1="200" x2="672" y2="784"/>
		<line style="&st2;" x1="672" y1="200" x2="672" y2="784"/>
		<line style="&st2;" x1="624" y1="200" x2="624" y2="784"/>
		<line style="&st2;" x1="624" y1="200" x2="624" y2="784"/>
		<line style="&st2;" x1="576" y1="200" x2="576" y2="784"/>
		<line style="&st2;" x1="576" y1="200" x2="576" y2="784"/>
		<line style="&st2;" x1="528" y1="200" x2="528" y2="784"/>
		<line style="&st2;" x1="528" y1="200" x2="528" y2="784"/>
		<line style="&st2;" x1="480" y1="200" x2="480" y2="784"/>
		<line style="&st2;" x1="480" y1="200" x2="480" y2="784"/>
		<line style="&st2;" x1="432" y1="200" x2="432" y2="784"/>
		<line style="&st2;" x1="432" y1="200" x2="432" y2="784"/>
		<line style="&st2;" x1="384" y1="200" x2="384" y2="784"/>
		<line style="&st2;" x1="384" y1="200" x2="384" y2="784"/>
		<line style="&st2;" x1="336" y1="200" x2="336" y2="784"/>
		<line style="&st2;" x1="336" y1="200" x2="336" y2="784"/>
		<line style="&st2;" x1="288" y1="200" x2="288" y2="784"/>
		<line style="&st2;" x1="288" y1="200" x2="288" y2="784"/>
		<line style="&st2;" x1="240" y1="200" x2="240" y2="784"/>
		<line style="&st2;" x1="240" y1="200" x2="240" y2="784"/>
		<line style="&st2;" x1="192" y1="200" x2="192" y2="784"/>
		<line style="&st2;" x1="192" y1="200" x2="192" y2="784"/>
		<line style="&st2;" x1="144" y1="200" x2="144" y2="784"/>
		<line style="&st2;" x1="144" y1="200" x2="144" y2="784"/>
		<line style="&st2;" x1="96" y1="200" x2="96" y2="784"/>
		<line style="&st2;" x1="96" y1="200" x2="96" y2="784"/>
		<line style="&st2;" x1="48" y1="200" x2="48" y2="784"/>
		<line style="&st2;" x1="48" y1="200" x2="48" y2="784"/>
		<line style="&st2;" x1="0" y1="200" x2="0" y2="784"/>
		<line style="&st2;" x1="-100" y1="384" x2="868" y2="384"/>
		<line style="&st2;" x1="-100" y1="336" x2="868" y2="336"/>
		<line style="&st2;" x1="-100" y1="336" x2="868" y2="336"/>
		<line style="&st2;" x1="-100" y1="288" x2="868" y2="288"/>
		<line style="&st2;" x1="-100" y1="288" x2="868" y2="288"/>
		<line style="&st2;" x1="-100" y1="240" x2="868" y2="240"/>
		<line style="&st2;" x1="-100" y1="240" x2="868" y2="240"/>
		<line style="&st2;" x1="-100" y1="192" x2="868" y2="192"/>
		<line style="&st2;" x1="-100" y1="192" x2="868" y2="192"/>
		<line style="&st2;" x1="-100" y1="144" x2="868" y2="144"/>
		<line style="&st2;" x1="-100" y1="144" x2="868" y2="144"/>
		<line style="&st2;" x1="-100" y1="96" x2="868" y2="96"/>
		<line style="&st2;" x1="-100" y1="96" x2="868" y2="96"/>
		<line style="&st2;" x1="-100" y1="48" x2="868" y2="48"/>
		<line style="&st2;" x1="-100" y1="48" x2="868" y2="48"/>
		<line style="&st2;" x1="-100" y1="0" x2="868" y2="0"/>
	</g>
</g>
</svg>
