<?xml version="1.0" encoding="utf-8"?>
<!-- Generator: Adobe Illustrator 28.0.0, SVG Export Plug-In . SVG Version: 6.00 Build 0)  -->
<svg version="1.1" id="Layer_2_00000061447200587061359330000017691934031135487902_"
	 xmlns="http://www.w3.org/2000/svg" xmlns:xlink="http://www.w3.org/1999/xlink" x="0px" y="0px" viewBox="0 0 1080 1920"
	 style="enable-background:new 0 0 1080 1920;" xml:space="preserve">
<polygon style="fill:#FFFFFF;stroke:#BFBFBF;stroke-miterlimit:10;" points="-96.2,-45.3 -57.9,301.5 1184.7,761.1 1120.9,-56 "/>
<polyline style="fill:#FFFFFF;stroke:#BFBFBF;stroke-miterlimit:10;" points="-23.8,199.4 -36.6,793 1135.7,793 1120.9,567.4 
	-23.8,199.4 "/>
<path style="fill:#FFFFFF;stroke:#BFBFBF;stroke-miterlimit:10;" d="M-96.2,705.7l59.6,531.9c0,0,1231.9-112.8,1231.9-134
	s-40.4-519.1-40.4-519.1L-96.2,705.7z"/>
<path style="fill:#FFFFFF;stroke:#BFBFBF;stroke-miterlimit:10;" d="M-77,1350.4c0-29.8,17.2-320.6,17.2-320.6l1272.2-9.2
	l29.8,353.2L-77,1350.4z"/>
<polygon style="fill:#FFFFFF;stroke:#BFBFBF;stroke-miterlimit:10;" points="-115.3,1237.7 -96.2,1750.4 1184.7,1437.7 
	1150.6,1114.3 "/>
<path style="fill:#FFFFFF;stroke:#BFBFBF;stroke-miterlimit:10;" d="M-19.6,1569.6V2010c0,0,1195.7-2.1,1189.4-29.8
	s-34-574.5-34-574.5L-19.6,1569.6z"/>
</svg>
