<?xml version="1.0" encoding="utf-8"?>
<!-- Generator: Adobe Illustrator 28.0.0, SVG Export Plug-In . SVG Version: 6.00 Build 0)  -->
<svg version="1.1" xmlns="http://www.w3.org/2000/svg" xmlns:xlink="http://www.w3.org/1999/xlink" x="0px" y="0px"
	 viewBox="0 0 1080 1920" enable-background="new 0 0 1080 1920" xml:space="preserve">
<filter  id="AI_GaussianBlur_7">
	<feGaussianBlur  stdDeviation="7"></feGaussianBlur>
</filter>
<g id="Layer_1" display="none">
	<g display="inline" filter="url(#AI_GaussianBlur_7)">
		<polygon fill="#FFFFFF" points="-38.7,145.9 1012.5,697.4 52.9,1824.6 -638,289.8 		"/>
		<polygon fill="none" stroke="#FFFFFF" stroke-miterlimit="10" points="-38.7,145.9 1012.5,697.4 52.9,1824.6 -638,289.8 		"/>
	</g>
	<g display="inline" opacity="0.2" filter="url(#AI_GaussianBlur_7)">
		<polygon fill="#FFFFFF" points="-456.3,812.7 -661.5,1040.6 1712.1,1348 1544.9,876.3 		"/>
		<polygon fill="none" stroke="#FFFFFF" stroke-miterlimit="10" points="-456.3,812.7 -661.5,1040.6 1712.1,1348 1544.9,876.3 		"/>
	</g>
	<g display="inline" opacity="5.000000e-02" filter="url(#AI_GaussianBlur_7)">
		<polygon fill="#FFFFFF" points="1012.5,284.4 1566.6,1775.3 1787.3,1622.7 1500,164.7 		"/>
		<polygon fill="none" stroke="#FFFFFF" stroke-miterlimit="10" points="1012.5,284.4 1566.6,1775.3 1787.3,1622.7 1500,164.7 		"/>
	</g>
	<g display="inline" opacity="0.1" filter="url(#AI_GaussianBlur_7)">
		<polygon fill="#FFFFFF" points="385.6,211.6 240,1866.8 1336.5,1831.6 1336.5,103.6 		"/>
		<polygon fill="none" stroke="#FFFFFF" stroke-miterlimit="10" points="385.6,211.6 240,1866.8 1336.5,1831.6 1336.5,103.6 		"/>
	</g>
</g>
<g id="Layer_2">
	<g>
		<defs>
			<rect id="SVGID_1_" y="0" width="1080" height="1920"/>
		</defs>
		<clipPath id="SVGID_00000100356594274283714840000006253427282104308129_">
			<use xlink:href="#SVGID_1_"  overflow="visible"/>
		</clipPath>
		<g clip-path="url(#SVGID_00000100356594274283714840000006253427282104308129_)">
			<g>
				<g display="none">
					<polygon display="inline" opacity="0" fill="#FFFFFF" stroke="#FFFFFF" stroke-miterlimit="10" points="1546.2,1960.3 
						-391.8,1597 571.1,60.1 1809.3,250.7 					"/>
					<polygon display="inline" opacity="7.692308e-02" fill="#EBEBEB" stroke="#FFFFFF" stroke-miterlimit="10" points="
						1546.2,1960.3 -375.5,1592.6 571.1,60.1 1809.3,250.7 					"/>
					<polygon display="inline" opacity="0.1538" fill="#D8D8D8" stroke="#FFFFFF" stroke-miterlimit="10" points="1546.2,1960.3 
						-359.2,1588.1 571.1,60.1 1809.3,250.7 					"/>
					<polygon display="inline" opacity="0.2308" fill="#C4C4C4" stroke="#FFFFFF" stroke-miterlimit="10" points="1546.2,1960.3 
						-342.9,1583.7 571.1,60.1 1809.3,250.7 					"/>
					<polygon display="inline" opacity="0.3077" fill="#B1B1B1" stroke="#FFFFFF" stroke-miterlimit="10" points="1546.2,1960.3 
						-326.5,1579.2 571.1,60.1 1809.3,250.7 					"/>
					<polygon display="inline" opacity="0.3846" fill="#9D9D9D" stroke="#FFFFFF" stroke-miterlimit="10" points="1546.2,1960.3 
						-310.2,1574.7 571.1,60.1 1809.3,250.7 					"/>
					<polygon display="inline" opacity="0.4615" fill="#898989" stroke="#FFFFFF" stroke-miterlimit="10" points="1546.2,1960.3 
						-293.9,1570.3 571.1,60.1 1809.3,250.7 					"/>
					<polygon display="inline" opacity="0.5385" fill="#767676" stroke="#FFFFFF" stroke-miterlimit="10" points="1546.2,1960.3 
						-277.6,1565.8 571.1,60.1 1809.3,250.7 					"/>
					<polygon display="inline" opacity="0.6154" fill="#626262" stroke="#FFFFFF" stroke-miterlimit="10" points="1546.2,1960.3 
						-261.3,1561.4 571.1,60.1 1809.3,250.7 					"/>
					<polygon display="inline" opacity="0.6923" fill="#4E4E4E" stroke="#FFFFFF" stroke-miterlimit="10" points="1546.2,1960.3 
						-244.9,1556.9 571.1,60.1 1809.3,250.7 					"/>
					<polygon display="inline" opacity="0.7692" fill="#3B3B3B" stroke="#FFFFFF" stroke-miterlimit="10" points="1546.2,1960.3 
						-228.6,1552.4 571.1,60.1 1809.3,250.7 					"/>
					<polygon display="inline" opacity="0.8462" fill="#272727" stroke="#FFFFFF" stroke-miterlimit="10" points="1546.2,1960.3 
						-212.3,1548 571.1,60.1 1809.3,250.7 					"/>
					<polygon display="inline" opacity="0.9231" fill="#141414" stroke="#FFFFFF" stroke-miterlimit="10" points="1546.2,1960.3 
						-196,1543.5 571.1,60.1 1809.3,250.7 					"/>
					<polygon display="inline" stroke="#FFFFFF" stroke-miterlimit="10" points="1546.2,1960.3 -179.7,1539.1 571.1,60.1 
						1809.3,250.7 					"/>
				</g>
				<polygon display="none" fill="#FFFFFF" stroke="#FFFFFF" stroke-miterlimit="10" points="1546.2,1960.3 -179.7,1539.1 
					571.1,60.1 1809.3,250.7 				"/>
			</g>
			<g>
				<polygon opacity="0" fill="#FFFFFF" stroke="#FFFFFF" stroke-miterlimit="10" points="-1400.8,2134.9 221.8,1014.6 
					635.1,2780.5 -372,3525.5 				"/>
				<polygon opacity="7.692308e-02" fill="#EBEBEB" stroke="#FFFFFF" stroke-miterlimit="10" points="-1397.3,2131.1 216.9,1025.5 
					638.5,2776.7 -368.6,3521.7 				"/>
				<polygon opacity="0.1538" fill="#D8D8D8" stroke="#FFFFFF" stroke-miterlimit="10" points="-1393.9,2127.3 212,1036.4 
					641.9,2772.9 -365.2,3517.9 				"/>
				<polygon opacity="0.2308" fill="#C4C4C4" stroke="#FFFFFF" stroke-miterlimit="10" points="-1390.5,2123.5 207.1,1047.4 
					645.4,2769.1 -361.7,3514.1 				"/>
				<polygon opacity="0.3077" fill="#B1B1B1" stroke="#FFFFFF" stroke-miterlimit="10" points="-1387,2119.7 202.2,1058.3 
					648.8,2765.3 -358.3,3510.3 				"/>
				<polygon opacity="0.3846" fill="#9D9D9D" stroke="#FFFFFF" stroke-miterlimit="10" points="-1383.6,2115.8 197.3,1069.2 
					652.2,2761.5 -354.9,3506.5 				"/>
				<polygon opacity="0.4615" fill="#898989" stroke="#FFFFFF" stroke-miterlimit="10" points="-1380.2,2112 192.4,1080.1 
					655.7,2757.7 -351.4,3502.7 				"/>
				<polygon opacity="0.5385" fill="#767676" stroke="#FFFFFF" stroke-miterlimit="10" points="-1376.7,2108.2 187.5,1091 
					659.1,2753.9 -348,3498.9 				"/>
				<polygon opacity="0.6154" fill="#626262" stroke="#FFFFFF" stroke-miterlimit="10" points="-1373.3,2104.4 182.7,1101.9 
					662.5,2750 -344.6,3495 				"/>
				<polygon opacity="0.6923" fill="#4E4E4E" stroke="#FFFFFF" stroke-miterlimit="10" points="-1369.9,2100.6 177.8,1112.8 
					666,2746.2 -341.2,3491.2 				"/>
				<polygon opacity="0.7692" fill="#3B3B3B" stroke="#FFFFFF" stroke-miterlimit="10" points="-1366.4,2096.8 172.9,1123.8 
					669.4,2742.4 -337.7,3487.4 				"/>
				<polygon opacity="0.8462" fill="#272727" stroke="#FFFFFF" stroke-miterlimit="10" points="-1363,2093 168,1134.7 672.8,2738.6 
					-334.3,3483.6 				"/>
				<polygon opacity="0.9231" fill="#141414" stroke="#FFFFFF" stroke-miterlimit="10" points="-1359.6,2089.2 163.1,1145.6 
					676.3,2734.8 -330.9,3479.8 				"/>
				<polygon stroke="#FFFFFF" stroke-miterlimit="10" points="-1356.1,2085.3 158.2,1156.5 679.7,2731 -327.4,3476 				"/>
			</g>
			<polygon fill="#FFFFFF" stroke="#FFFFFF" stroke-miterlimit="10" points="-1356.1,2085.3 158.2,1156.5 679.7,2731 -327.4,3476 
							"/>
		</g>
		<g clip-path="url(#SVGID_00000100356594274283714840000006253427282104308129_)">
			<g>
				<polygon opacity="0" fill="#FFFFFF" stroke="#FFFFFF" stroke-miterlimit="10" points="-877,-911.2 842.6,53.7 -561.9,1201.2 
					-1673.8,624.2 				"/>
				<polygon opacity="7.692308e-02" fill="#EBEBEB" stroke="#FFFFFF" stroke-miterlimit="10" points="-877,-911.2 825.7,52.7 
					-561.9,1201.2 -1673.8,624.2 				"/>
				<polygon opacity="0.1538" fill="#D8D8D8" stroke="#FFFFFF" stroke-miterlimit="10" points="-877,-911.2 808.8,51.7 
					-561.9,1201.2 -1673.8,624.2 				"/>
				<polygon opacity="0.2308" fill="#C4C4C4" stroke="#FFFFFF" stroke-miterlimit="10" points="-877,-911.2 791.9,50.7 
					-561.9,1201.2 -1673.8,624.2 				"/>
				<polygon opacity="0.3077" fill="#B1B1B1" stroke="#FFFFFF" stroke-miterlimit="10" points="-877,-911.2 775,49.7 -561.9,1201.2 
					-1673.8,624.2 				"/>
				<polygon opacity="0.3846" fill="#9D9D9D" stroke="#FFFFFF" stroke-miterlimit="10" points="-877,-911.2 758.1,48.7 
					-561.9,1201.2 -1673.8,624.2 				"/>
				<polygon opacity="0.4615" fill="#898989" stroke="#FFFFFF" stroke-miterlimit="10" points="-877,-911.2 741.2,47.7 
					-561.9,1201.2 -1673.8,624.2 				"/>
				<polygon opacity="0.5385" fill="#767676" stroke="#FFFFFF" stroke-miterlimit="10" points="-877,-911.2 724.4,46.7 
					-561.9,1201.2 -1673.8,624.2 				"/>
				<polygon opacity="0.6154" fill="#626262" stroke="#FFFFFF" stroke-miterlimit="10" points="-877,-911.2 707.5,45.7 
					-561.9,1201.2 -1673.8,624.2 				"/>
				<polygon opacity="0.6923" fill="#4E4E4E" stroke="#FFFFFF" stroke-miterlimit="10" points="-877,-911.2 690.6,44.7 
					-561.9,1201.2 -1673.8,624.2 				"/>
				<polygon opacity="0.7692" fill="#3B3B3B" stroke="#FFFFFF" stroke-miterlimit="10" points="-877,-911.2 673.7,43.7 
					-561.9,1201.2 -1673.8,624.2 				"/>
				<polygon opacity="0.8462" fill="#272727" stroke="#FFFFFF" stroke-miterlimit="10" points="-877,-911.2 656.8,42.7 
					-561.9,1201.2 -1673.8,624.2 				"/>
				<polygon opacity="0.9231" fill="#141414" stroke="#FFFFFF" stroke-miterlimit="10" points="-877,-911.2 639.9,41.7 
					-561.9,1201.2 -1673.8,624.2 				"/>
				<polygon stroke="#FFFFFF" stroke-miterlimit="10" points="-877,-911.2 623,40.7 -561.9,1201.2 -1673.8,624.2 				"/>
			</g>
			<polygon fill="#FFFFFF" stroke="#FFFFFF" stroke-miterlimit="10" points="-877,-911.2 623,40.7 -561.9,1201.2 -1673.8,624.2 			
				"/>
		</g>
		<g clip-path="url(#SVGID_00000100356594274283714840000006253427282104308129_)">
			<g>
				<polygon opacity="0" fill="#FFFFFF" stroke="#FFFFFF" stroke-miterlimit="10" points="1778.5,1693.9 -175.4,1958.4 255.5,196.7 
					1490.7,-11.7 				"/>
				<polygon opacity="7.692308e-02" fill="#EBEBEB" stroke="#FFFFFF" stroke-miterlimit="10" points="1778.5,1693.9 -161.3,1949.1 
					255.5,196.7 1490.7,-11.7 				"/>
				<polygon opacity="0.1538" fill="#D8D8D8" stroke="#FFFFFF" stroke-miterlimit="10" points="1778.5,1693.9 -147.2,1939.7 
					255.5,196.7 1490.7,-11.7 				"/>
				<polygon opacity="0.2308" fill="#C4C4C4" stroke="#FFFFFF" stroke-miterlimit="10" points="1778.5,1693.9 -133.1,1930.3 
					255.5,196.7 1490.7,-11.7 				"/>
				<polygon opacity="0.3077" fill="#B1B1B1" stroke="#FFFFFF" stroke-miterlimit="10" points="1778.5,1693.9 -119,1921 
					255.5,196.7 1490.7,-11.7 				"/>
				<polygon opacity="0.3846" fill="#9D9D9D" stroke="#FFFFFF" stroke-miterlimit="10" points="1778.5,1693.9 -104.9,1911.6 
					255.5,196.7 1490.7,-11.7 				"/>
				<polygon opacity="0.4615" fill="#898989" stroke="#FFFFFF" stroke-miterlimit="10" points="1778.5,1693.9 -90.8,1902.2 
					255.5,196.7 1490.7,-11.7 				"/>
				<polygon opacity="0.5385" fill="#767676" stroke="#FFFFFF" stroke-miterlimit="10" points="1778.5,1693.9 -76.7,1892.9 
					255.5,196.7 1490.7,-11.7 				"/>
				<polygon opacity="0.6154" fill="#626262" stroke="#FFFFFF" stroke-miterlimit="10" points="1778.5,1693.9 -62.7,1883.5 
					255.5,196.7 1490.7,-11.7 				"/>
				<polygon opacity="0.6923" fill="#4E4E4E" stroke="#FFFFFF" stroke-miterlimit="10" points="1778.5,1693.9 -48.6,1874.2 
					255.5,196.7 1490.7,-11.7 				"/>
				<polygon opacity="0.7692" fill="#3B3B3B" stroke="#FFFFFF" stroke-miterlimit="10" points="1778.5,1693.9 -34.5,1864.8 
					255.5,196.7 1490.7,-11.7 				"/>
				<polygon opacity="0.8462" fill="#272727" stroke="#FFFFFF" stroke-miterlimit="10" points="1778.5,1693.9 -20.4,1855.4 
					255.5,196.7 1490.7,-11.7 				"/>
				<polygon opacity="0.9231" fill="#141414" stroke="#FFFFFF" stroke-miterlimit="10" points="1778.5,1693.9 -6.3,1846.1 
					255.5,196.7 1490.7,-11.7 				"/>
				<polygon stroke="#FFFFFF" stroke-miterlimit="10" points="1778.5,1693.9 7.8,1836.7 255.5,196.7 1490.7,-11.7 				"/>
			</g>
			<polygon fill="#FFFFFF" stroke="#FFFFFF" stroke-miterlimit="10" points="1778.5,1693.9 7.8,1836.7 255.5,196.7 1490.7,-11.7 			
				"/>
		</g>
		<g display="none" clip-path="url(#SVGID_00000100356594274283714840000006253427282104308129_)">
			<g display="inline">
				<polygon opacity="0" fill="#FFFFFF" stroke="#FFFFFF" stroke-miterlimit="10" points="270,0 205.7,1970.7 -1459.8,1252.7 
					-1459.8,0 				"/>
				<polygon opacity="4.000000e-02" fill="#F5F5F5" stroke="#FFFFFF" stroke-miterlimit="10" points="270,0 202.1,1962.7 
					-1459.8,1252.7 -1459.8,0 				"/>
				<polygon opacity="8.000000e-02" fill="#EBEBEB" stroke="#FFFFFF" stroke-miterlimit="10" points="270,0 198.5,1954.6 
					-1459.8,1252.7 -1459.8,0 				"/>
				<polygon opacity="0.12" fill="#E0E0E0" stroke="#FFFFFF" stroke-miterlimit="10" points="270,0 195,1946.6 -1459.8,1252.7 
					-1459.8,0 				"/>
				<polygon opacity="0.16" fill="#D6D6D6" stroke="#FFFFFF" stroke-miterlimit="10" points="270,0 191.4,1938.6 -1459.8,1252.7 
					-1459.8,0 				"/>
				<polygon opacity="0.2" fill="#CCCCCC" stroke="#FFFFFF" stroke-miterlimit="10" points="270,0 187.8,1930.5 -1459.8,1252.7 
					-1459.8,0 				"/>
				<polygon opacity="0.24" fill="#C2C2C2" stroke="#FFFFFF" stroke-miterlimit="10" points="270,0 184.2,1922.5 -1459.8,1252.7 
					-1459.8,0 				"/>
				<polygon opacity="0.28" fill="#B8B8B8" stroke="#FFFFFF" stroke-miterlimit="10" points="270,0 180.6,1914.4 -1459.8,1252.7 
					-1459.8,0 				"/>
				<polygon opacity="0.32" fill="#ADADAD" stroke="#FFFFFF" stroke-miterlimit="10" points="270,0 177,1906.4 -1459.8,1252.7 
					-1459.8,0 				"/>
				<polygon opacity="0.36" fill="#A3A3A3" stroke="#FFFFFF" stroke-miterlimit="10" points="270,0 173.5,1898.4 -1459.8,1252.7 
					-1459.8,0 				"/>
				<polygon opacity="0.4" fill="#999999" stroke="#FFFFFF" stroke-miterlimit="10" points="270,0 169.9,1890.3 -1459.8,1252.7 
					-1459.8,0 				"/>
				<polygon opacity="0.44" fill="#8F8F8F" stroke="#FFFFFF" stroke-miterlimit="10" points="270,0 166.3,1882.3 -1459.8,1252.7 
					-1459.8,0 				"/>
				<polygon opacity="0.48" fill="#858585" stroke="#FFFFFF" stroke-miterlimit="10" points="270,0 162.7,1874.3 -1459.8,1252.7 
					-1459.8,0 				"/>
				<polygon opacity="0.52" fill="#7A7A7A" stroke="#FFFFFF" stroke-miterlimit="10" points="270,0 159.1,1866.2 -1459.8,1252.7 
					-1459.8,0 				"/>
				<polygon opacity="0.56" fill="#707070" stroke="#FFFFFF" stroke-miterlimit="10" points="270,0 155.6,1858.2 -1459.8,1252.7 
					-1459.8,0 				"/>
				<polygon opacity="0.6" fill="#666666" stroke="#FFFFFF" stroke-miterlimit="10" points="270,0 152,1850.2 -1459.8,1252.7 
					-1459.8,0 				"/>
				<polygon opacity="0.64" fill="#5C5C5C" stroke="#FFFFFF" stroke-miterlimit="10" points="270,0 148.4,1842.1 -1459.8,1252.7 
					-1459.8,0 				"/>
				<polygon opacity="0.68" fill="#525252" stroke="#FFFFFF" stroke-miterlimit="10" points="270,0 144.8,1834.1 -1459.8,1252.7 
					-1459.8,0 				"/>
				<polygon opacity="0.72" fill="#474747" stroke="#FFFFFF" stroke-miterlimit="10" points="270,0 141.2,1826.1 -1459.8,1252.7 
					-1459.8,0 				"/>
				<polygon opacity="0.76" fill="#3D3D3D" stroke="#FFFFFF" stroke-miterlimit="10" points="270,0 137.6,1818 -1459.8,1252.7 
					-1459.8,0 				"/>
				<polygon opacity="0.8" fill="#333333" stroke="#FFFFFF" stroke-miterlimit="10" points="270,0 134.1,1810 -1459.8,1252.7 
					-1459.8,0 				"/>
				<polygon opacity="0.84" fill="#292929" stroke="#FFFFFF" stroke-miterlimit="10" points="270,0 130.5,1802 -1459.8,1252.7 
					-1459.8,0 				"/>
				<polygon opacity="0.88" fill="#1F1F1F" stroke="#FFFFFF" stroke-miterlimit="10" points="270,0 126.9,1793.9 -1459.8,1252.7 
					-1459.8,0 				"/>
				<polygon opacity="0.92" fill="#141414" stroke="#FFFFFF" stroke-miterlimit="10" points="270,0 123.3,1785.9 -1459.8,1252.7 
					-1459.8,0 				"/>
				<polygon opacity="0.96" fill="#0A0A0A" stroke="#FFFFFF" stroke-miterlimit="10" points="270,0 119.7,1777.9 -1459.8,1252.7 
					-1459.8,0 				"/>
				<polygon stroke="#FFFFFF" stroke-miterlimit="10" points="270,0 116.2,1769.8 -1459.8,1252.7 -1459.8,0 				"/>
			</g>
			<polygon display="inline" fill="#FFFFFF" stroke="#FFFFFF" stroke-miterlimit="10" points="270,0 116.2,1769.8 -1459.8,1252.7 
				-1459.8,0 			"/>
		</g>
		<g clip-path="url(#SVGID_00000100356594274283714840000006253427282104308129_)">
			<g>
				<polygon opacity="0" fill="#FFFFFF" stroke="#FFFFFF" stroke-miterlimit="10" points="-877,1008.8 842.6,1973.7 -561.9,3121.2 
					-1673.8,2544.2 				"/>
				<polygon opacity="7.692308e-02" fill="#EBEBEB" stroke="#FFFFFF" stroke-miterlimit="10" points="-877,1008.8 825.7,1972.7 
					-561.9,3121.2 -1673.8,2544.2 				"/>
				<polygon opacity="0.1538" fill="#D8D8D8" stroke="#FFFFFF" stroke-miterlimit="10" points="-877,1008.8 808.8,1971.7 
					-561.9,3121.2 -1673.8,2544.2 				"/>
				<polygon opacity="0.2308" fill="#C4C4C4" stroke="#FFFFFF" stroke-miterlimit="10" points="-877,1008.8 791.9,1970.7 
					-561.9,3121.2 -1673.8,2544.2 				"/>
				<polygon opacity="0.3077" fill="#B1B1B1" stroke="#FFFFFF" stroke-miterlimit="10" points="-877,1008.8 775,1969.7 
					-561.9,3121.2 -1673.8,2544.2 				"/>
				<polygon opacity="0.3846" fill="#9D9D9D" stroke="#FFFFFF" stroke-miterlimit="10" points="-877,1008.8 758.1,1968.7 
					-561.9,3121.2 -1673.8,2544.2 				"/>
				<polygon opacity="0.4615" fill="#898989" stroke="#FFFFFF" stroke-miterlimit="10" points="-877,1008.8 741.2,1967.7 
					-561.9,3121.2 -1673.8,2544.2 				"/>
				<polygon opacity="0.5385" fill="#767676" stroke="#FFFFFF" stroke-miterlimit="10" points="-877,1008.8 724.4,1966.7 
					-561.9,3121.2 -1673.8,2544.2 				"/>
				<polygon opacity="0.6154" fill="#626262" stroke="#FFFFFF" stroke-miterlimit="10" points="-877,1008.8 707.5,1965.7 
					-561.9,3121.2 -1673.8,2544.2 				"/>
				<polygon opacity="0.6923" fill="#4E4E4E" stroke="#FFFFFF" stroke-miterlimit="10" points="-877,1008.8 690.6,1964.7 
					-561.9,3121.2 -1673.8,2544.2 				"/>
				<polygon opacity="0.7692" fill="#3B3B3B" stroke="#FFFFFF" stroke-miterlimit="10" points="-877,1008.8 673.7,1963.7 
					-561.9,3121.2 -1673.8,2544.2 				"/>
				<polygon opacity="0.8462" fill="#272727" stroke="#FFFFFF" stroke-miterlimit="10" points="-877,1008.8 656.8,1962.7 
					-561.9,3121.2 -1673.8,2544.2 				"/>
				<polygon opacity="0.9231" fill="#141414" stroke="#FFFFFF" stroke-miterlimit="10" points="-877,1008.8 639.9,1961.7 
					-561.9,3121.2 -1673.8,2544.2 				"/>
				<polygon stroke="#FFFFFF" stroke-miterlimit="10" points="-877,1008.8 623,1960.7 -561.9,3121.2 -1673.8,2544.2 				"/>
			</g>
			<polygon fill="#FFFFFF" stroke="#FFFFFF" stroke-miterlimit="10" points="-877,1008.8 623,1960.7 -561.9,3121.2 -1673.8,2544.2 
							"/>
		</g>
	</g>
</g>
</svg>
