<?xml version="1.0" encoding="utf-8"?>
<!-- Generator: Adobe Illustrator 28.0.0, SVG Export Plug-In . SVG Version: 6.00 Build 0)  -->
<svg version="1.1" xmlns="http://www.w3.org/2000/svg" xmlns:xlink="http://www.w3.org/1999/xlink" x="0px" y="0px"
	 viewBox="0 0 1080 1920" style="enable-background:new 0 0 1080 1920;" xml:space="preserve">
<filter  id="AI_GaussianBlur_14">
	<feGaussianBlur  stdDeviation="14"></feGaussianBlur>
</filter>
<g id="Layer_1" style="display:none;">
	<g style="display:inline;filter:url(#AI_GaussianBlur_14);">
		<polygon style="fill:#333333;" points="-1105.4,25.8 -1067.1,372.6 175.5,832.2 111.6,15.2 		"/>
	</g>
	<polygon style="display:inline;fill:#FAFAFA;" points="-1279.9,-97.9 -1235,308.8 222.1,847.7 147.3,-110.4 	"/>
	<g style="display:inline;filter:url(#AI_GaussianBlur_14);">
		<path style="fill:#333333;" d="M-1097,1350.4c0-29.8,17.2-320.6,17.2-320.6l1272.2-9.2l29.8,353.2L-1097,1350.4z"/>
	</g>
	<path style="display:inline;fill:#FAFAFA;" d="M-1073.7,1681.4c-3.9-56.4-24.5-607.9-24.5-607.9l1268-104.4l75.5,666.5
		L-1073.7,1681.4z"/>
	<g style="display:inline;filter:url(#AI_GaussianBlur_14);">
		<path style="fill:#333333;" d="M-1039.6,1569.6V2010c0,0,1195.7-2.1,1189.4-29.8s-34-574.5-34-574.5L-1039.6,1569.6z"/>
	</g>
	<path style="display:inline;fill:#FAFAFA;" d="M-1039.6,1569.6V2010c0,0,1195.7-2.1,1189.4-29.8s-34-574.5-34-574.5L-1039.6,1569.6
		z"/>
</g>
<g id="Layer_2">
</g>
<g id="Layer_3" style="display:none;">
	<g style="display:inline;">
		<path style="fill:none;stroke:#000000;stroke-miterlimit:10;" d="M237,731.3C128.3,748.5,15.1,767.4-74.4,831.4
			c-118,84.5-174.6,241.5-151.2,384.7s120.4,269.4,246.1,342c198.3,114.5,451.5,97.3,662.6,8.8s388.7-240.1,560-392
			c118.6-105.2,252.6-230.7,250.8-402.3c-1.2-120-65.6-192.3-184.9-201.6C1144,558,955,618,792.1,643.7
			C607.1,672.9,422,702.1,237,731.3z"/>
		<path style="fill:none;stroke:#000000;stroke-miterlimit:10;" d="M-534.1,557c-134,86-246.5,212.1-291.3,364.7
			c-50.7,172.9-10.2,356.5,35.6,530.8c41.6,158.3,119.2,310.2,244.4,414c120.2,99.6,278.5,139.1,433.1,164.6
			c257.6,42.5,518.8,59.7,771.6,71.6c111.8,5.3,223.6,12.9,335.4-3.3c111.7-16.2,224.8-56.5,312-131.4
			c22.9-51.5,45.6-103.3,68.2-155.2c95-218.3,161.3-451.3,267.3-664.6c57.1-115,147.6-228.2,142.2-369.1
			c-3.5-95.5-44.6-165.7-122.4-201.4c-66-78.9-178.4-114.6-285.9-138.6c-223.5-50.5-455.1-73.1-686.2-74.2
			c-110.6-0.3-220.9,4.5-330.1,2.4c-106.2-2.1-211-0.2-317.7,14.1c-86.3,11.6-173.3,28.9-259.1,50.4
			C-328.4,459.5-439.4,496.2-534.1,557z"/>
		<path style="fill:none;stroke:#000000;stroke-miterlimit:10;" d="M-993.9,282.5c-214.4,129.4-395.6,328.8-458.7,571.1
			c-71.7,275.1,13.7,563.9,98.5,835.2c54.6,174.6,113.4,356.6,242.7,486c161,161.1,399.3,210.6,623.2,252.7
			c374.5,70.4,749,140.7,1123.5,211.1c177.9,33.4,357.7,67,538.5,58.9c180.8-8.1,365.5-62,499.5-183.6
			c25.2-88.7,50.5-177.4,75.7-266.2c106.1-373.1,212.4-746.6,292.1-1126.3c37.7-179.7,66.6-378.7-26.3-537.1
			c-90.7-154.6-272.6-227.3-444.1-279.5C1211,195.5,838,130.1,462.5,109.8c-178.3-9.6-357.3,0-535-19.1
			c-111.1-11.9-219.2-32.4-331.3-19.8C-607.7,93.7-819.3,177.2-993.9,282.5z"/>
	</g>
</g>
</svg>
