<?xml version="1.0" encoding="utf-8"?>
<!-- Generator: Adobe Illustrator 28.0.0, SVG Export Plug-In . SVG Version: 6.00 Build 0)  -->
<svg version="1.1" xmlns="http://www.w3.org/2000/svg" xmlns:xlink="http://www.w3.org/1999/xlink" x="0px" y="0px"
	 viewBox="0 0 1080 1920" style="enable-background:new 0 0 1080 1920;" xml:space="preserve">
<filter  id="AI_GaussianBlur_14">
	<feGaussianBlur  stdDeviation="14"></feGaussianBlur>
</filter>
<g id="Layer_1" style="display:none;">
	<g style="display:inline;filter:url(#AI_GaussianBlur_14);">
		<polygon style="fill:#333333;" points="934.6,25.8 972.9,372.6 2215.5,832.2 2151.6,15.2 		"/>
	</g>
	<polygon style="display:inline;fill:#FAFAFA;" points="760.1,-97.9 805,308.8 2262.1,847.7 2187.3,-110.4 	"/>
	<g style="display:inline;filter:url(#AI_GaussianBlur_14);">
		<path style="fill:#333333;" d="M943,1350.4c0-29.8,17.2-320.6,17.2-320.6l1272.2-9.2l29.8,353.2L943,1350.4z"/>
	</g>
	<path style="display:inline;fill:#FAFAFA;" d="M966.3,1681.4c-3.9-56.4-24.5-607.9-24.5-607.9l1268-104.4l75.5,666.5L966.3,1681.4z
		"/>
	<g style="display:inline;filter:url(#AI_GaussianBlur_14);">
		<path style="fill:#333333;" d="M1000.4,1569.6V2010c0,0,1195.7-2.1,1189.4-29.8c-6.4-27.7-34-574.5-34-574.5L1000.4,1569.6z"/>
	</g>
	<path style="display:inline;fill:#FAFAFA;" d="M1000.4,1569.6V2010c0,0,1195.7-2.1,1189.4-29.8c-6.4-27.7-34-574.5-34-574.5
		L1000.4,1569.6z"/>
</g>
<g id="Layer_2">
	<rect x="1" y="-0.2" style="fill:#FAFAFA;" width="1080" height="1197"/>
	<g style="filter:url(#AI_GaussianBlur_14);">
		<path style="fill:#333333;" d="M-40.8,660.6c-74.3,371.8-130.6,901.3,110.3,999.4c42.8,17.4,80.5,14.9,104.2,13.1
			c690.1-54,1035.2-81,1141.5-274.3c94.2-171.2,110.7-482.4-38.9-533.9C697.7,665.3,12.9,391.4-40.8,660.6z"/>
	</g>
	<path style="fill:#FAFAFA;" d="M-92.5,716c-44.3,376.5-58.1,908.9,189.9,987.4c44.1,14,81.4,8.4,104.9,4.7
		c683.6-109.1,1025.4-163.6,1115.9-364.8c80.2-178.2,71.7-489.7-81.5-529.1C644,661.6-60.5,443.4-92.5,716z"/>
	<g style="filter:url(#AI_GaussianBlur_14);">
		<path style="fill:#333333;" d="M-219.8,1724.5c1196.5-329,1384.6-272.5,1409.5-213.5c3.5,8.2,4.7,20.1,7.1,43.9
			c0,0,15.9,157.5-63.3,317.7c-118.7,240-849.9,534.7-1191.9,200.7C-108.1,2024.8-192.3,1921.3-219.8,1724.5z"/>
	</g>
	<path style="fill:#FAFAFA;" d="M-87.4,1624.9C1138,1429,1318.8,1505.8,1337,1567.1c2.5,8.5,2.4,20.5,2.2,44.4
		c0,0-1.4,158.3-97.8,308.9c-144.3,225.5-903.3,438.3-1206.7,68.9C-9.3,1935.6-81.6,1823.6-87.4,1624.9z"/>
</g>
<g id="Layer_3" style="display:none;">
	<g style="display:inline;">
		<path style="fill:none;stroke:#000000;stroke-miterlimit:10;" d="M1046.1,282.5C831.8,411.9,650.6,611.3,587.4,853.6
			c-71.7,275.1,13.7,563.9,98.5,835.2c54.6,174.6,113.4,356.6,242.7,486c161,161.1,399.3,210.6,623.2,252.7
			c374.5,70.4,749,140.7,1123.5,211.1c177.9,33.4,357.7,67,538.5,58.9c180.8-8.1,365.5-62,499.5-183.6
			c25.2-88.7,50.5-177.4,75.7-266.2c106.1-373.1,212.4-746.6,292.1-1126.3c37.7-179.7,66.6-378.7-26.3-537.1
			c-90.7-154.6-272.6-227.3-444.1-279.5C3251,195.5,2878,130.1,2502.5,109.8c-178.3-9.6-357.3,0-535-19.1
			c-111.1-11.9-219.2-32.4-331.3-19.8C1432.3,93.7,1220.7,177.2,1046.1,282.5z"/>
	</g>
</g>
</svg>
