<?xml version="1.0" encoding="UTF-8"?><svg id="uuid-d77329fc-5523-4ec8-8cd7-b643610784ad" xmlns="http://www.w3.org/2000/svg" xmlns:xlink="http://www.w3.org/1999/xlink" viewBox="0 0 1080 1080"><defs><clipPath id="uuid-ce7f15dc-9b31-48cd-84b8-35e73a5dc0bc"><path d="M457.54,387.72v883.23h700.25V387.72H457.54ZM954.08,951.99c-40.78,17.29-82.08,31.59-123.77,42.88,10.63-11.88,21.1-23.99,31.25-36.19-12.19-8.74-24.36-16.98-36.34-24.6,25.63-7.28,50.32-15.57,74.05-24.62.29.21.58.41.86.62.33-.44.67-.89,1-1.33,39.66-15.24,76.6-32.59,110.6-50.95-19.32,30.46-40.3,60.7-62.55,90.14,1.61,1.33,3.24,2.68,4.89,4.06Z" fill="none"/></clipPath></defs><path d="M1109.96,1183.4c-73.41-157.26-342.93-360.2-443.15-336.11-156.35,37.59-217.71,343.54-149.95,385.73,77.2,48.07,389.16-202.53,536.2-513.68,45.23-95.71,66.33-232.87,72.79-327.57" fill="none" stroke="#3a3c4b" stroke-miterlimit="10" stroke-width="60"/><path d="M1166.83,792.87c-89.17,68.32-291.05,201.73-565.96,203.46-349.6,2.2-593.52-209.97-673.09-285.88" fill="none" stroke="#575c70" stroke-miterlimit="10" stroke-width="60"/><g clip-path="url(#uuid-ce7f15dc-9b31-48cd-84b8-35e73a5dc0bc)"><path d="M1109.96,1183.4c-73.41-157.26-342.93-360.2-443.15-336.11-156.35,37.59-217.71,343.54-149.95,385.73,77.2,48.07,389.16-202.53,536.2-513.68,45.23-95.71,66.33-232.87,72.79-327.57" fill="none" stroke="#3a3c4b" stroke-miterlimit="10" stroke-width="60"/></g></svg>