<?xml version="1.0" encoding="UTF-8"?><svg id="uuid-69aee876-45d1-454f-9ab1-bcd3849df516" xmlns="http://www.w3.org/2000/svg" xmlns:xlink="http://www.w3.org/1999/xlink" viewBox="0 0 1080 1920"><defs><clipPath id="uuid-a826a37d-12fd-4f57-baa1-001dd4047580"><rect y="1110" width="1080" height="810" fill="none"/></clipPath><clipPath id="uuid-45e1ea62-2a86-4482-b08f-565c8e9c5d19"><path d="M447.54,1227.04v893.91h720.22v-893.91H447.54ZM972.81,1794.76c-1.08.48-2.16.96-3.24,1.44-55.25,24.24-111.49,43.03-168.36,56.3l.08-.71c15.54-16.52,30.9-33.74,45.66-51.2-15.6-10.89-31.16-20.92-46.25-29.82l-.18-.38c91.71-23.44,172-60.26,239.07-99.82l.1.81c-23.02,38.77-48.85,77.44-76.79,114.93,3.17,2.67,6.43,5.44,9.91,8.44Z" fill="none"/></clipPath></defs><g clip-path="url(#uuid-a826a37d-12fd-4f57-baa1-001dd4047580)"><path d="M1109.96,2023.4c-73.41-157.26-342.93-360.2-443.15-336.11-156.35,37.59-217.71,343.54-149.95,385.73,77.2,48.07,389.16-202.53,536.2-513.68,45.23-95.71,66.33-232.87,72.79-327.57" fill="none" stroke="#f7931e" stroke-miterlimit="10" stroke-width="80"/><path d="M1166.83,1632.87c-89.17,68.32-291.05,201.73-565.96,203.46-349.6,2.2-593.52-209.97-673.09-285.88" fill="none" stroke="#ffd200" stroke-miterlimit="10" stroke-width="80"/><g clip-path="url(#uuid-45e1ea62-2a86-4482-b08f-565c8e9c5d19)"><path d="M1109.96,2023.4c-73.41-157.26-342.93-360.2-443.15-336.11-156.35,37.59-217.71,343.54-149.95,385.73,77.2,48.07,389.16-202.53,536.2-513.68,45.23-95.71,66.33-232.87,72.79-327.57" fill="none" stroke="#f7931e" stroke-miterlimit="10" stroke-width="80"/></g></g></svg>