<?xml version="1.0" encoding="UTF-8"?><svg id="a" xmlns="http://www.w3.org/2000/svg" viewBox="0 0 170.08 61.68"><polygon points="170.08 61.68 0 61.68 0 0 170.08 0 170.08 61.68 170.08 61.68" style="fill:#231f20; fill-rule:evenodd;"/><polygon points="104.97 23.11 97.81 52.2 109.42 52.2 116.88 21.89 104.97 23.11 104.97 23.11" style="fill:#fff;"/><path d="M143.25,21.83c-3.46-.34-8.87,.73-11.53,2.76-.05-1.11-.26-1.98-.49-2.88l-10.28,1.26c.41,2.87,0,6.06-1,10.34l-4.6,18.9h11.61l4.75-19.28c1.16-1.67,3.01-2.79,4.57-2.79,1.93,0,2.41,1.43,1.81,3.75l-4.46,18.32h11.61l4.99-19.9c1.19-5.39-.56-9.84-6.97-10.47h0Z" style="fill:#fff;"/><path d="M118.78,13.68c0-3.12-2.74-5.67-6.23-5.67s-6.46,2.55-6.46,5.67,2.85,5.67,6.27,5.67,6.42-2.55,6.42-5.67h0Z" style="fill:#ffcb05;"/><path d="M90.93,22.21l-3.67,8.49c-1.37,3.19-2.55,6.19-3.6,9.13l-.14-17.62h-10.48l-8.67,17.77,.94-18.18-11.56,1.44,2.33,28.97h10.22s7.75-15.62,8.44-17.43l.1,17.43h10.48l17.29-30h-11.68Z" style="fill:#fff; fill-rule:evenodd;"/><path d="M38.18,36.98c-1.33,5.58-3.07,8.07-6.01,8.07-1.2,0-2.21-.29-2.74-.69l3.19-13.32c.61-.52,1.67-1.45,3.41-1.45,2.6,0,3.53,1.45,2.14,7.39h0Zm3.07-15.53c-3.01,0-5.27,.79-6.6,1.53,1.9-5.89,2.32-11.32,2.32-11.32,.08-.88,.1-1.93,.08-2.62l-12.17,1.48c.15,1.95-.14,5.04-1.71,11.64l-5.87,24.3c-.27,1.16-.93,3.37-1.47,4.19,3.67,1.22,7.88,2.33,14.82,2.33,3.81,0,6.81-.71,9.88-2.51,5.27-3.08,8.53-8.63,9.88-14.01,2.52-10.06-1.6-15-9.14-15h0Z" style="fill:#fff; fill-rule:evenodd;"/></svg>