<?xml version="1.0" encoding="UTF-8"?><svg id="a" xmlns="http://www.w3.org/2000/svg" xmlns:xlink="http://www.w3.org/1999/xlink" viewBox="0 0 148.89 55"><defs><style>.c{fill:#6c6e71;}.d{clip-path:url(#b);}.e{fill:none;}</style><clipPath id="b"><rect class="e" width="148.89" height="55"/></clipPath></defs><polyline class="c" points="77.25 18.43 77.25 20.19 70.45 20.19 70.45 26.61 76.76 26.61 76.76 28.25 70.45 28.25 70.45 35.36 77.33 35.36 77.33 37.12 67.54 37.12 67.54 18.43"/><polyline class="c" points="84.12 18.43 84.12 35.33 90.74 35.33 90.74 37.12 81.2 37.12 81.2 18.43"/><polyline class="c" points="104.17 18.43 104.17 20.19 97.37 20.19 97.37 26.61 103.69 26.61 103.69 28.25 97.37 28.25 97.37 35.36 104.25 35.36 104.25 37.12 94.46 37.12 94.46 18.43"/><polyline class="c" points="111.33 18.43 111.33 27.07 118.84 18.43 121.24 18.43 113.83 26.64 121.64 37.12 118.04 37.12 111.33 27.72 111.33 37.12 108.42 37.12 108.42 18.43"/><polyline class="c" points="135.26 18.43 135.26 20.07 130.25 20.07 130.25 37.12 127.33 37.12 127.33 20.07 122.32 20.07 122.32 18.43"/><path class="c" d="M141.07,22.28l2.24,7.13h-4.5m1.84-10.98l-6.34,18.69h2.04l1.98-6.17h5.47l2.01,6.17h3.09l-6.4-18.69h-1.84Z"/><g class="d"><path class="c" d="M24.91,.12C9.81,1.56-1.31,15,.12,30.09c.69,7.31,4.19,13.92,9.85,18.6,5.66,4.68,12.8,6.88,20.11,6.19,7.31-.69,13.92-4.19,18.6-9.85,4.68-5.66,6.88-12.8,6.18-20.12-.36-3.81-1.47-7.42-3.31-10.73l-1.07,.94c1.74,3.14,2.6,6.32,2.95,9.92,.65,6.93-1.43,13.69-5.86,19.05-4.44,5.36-10.7,8.67-17.62,9.33-6.93,.66-13.69-1.42-19.05-5.86C5.54,43.14,2.22,36.88,1.57,29.96,.22,15.66,10.75,2.92,25.05,1.57c7.12-.67,13.88,1.45,19.3,6.13l1.11-1.02C39.73,1.74,32.43-.58,24.91,.12"/></g><path class="c" d="M29.01,27.43c-.62,.47-1.51,.34-1.97-.28-.47-.62-.35-1.51,.28-1.97,.62-.47,1.51-.34,1.97,.28,.47,.62,.35,1.51-.28,1.97"/><path class="c" d="M33.56,24.05c-.69,.52-1.66,.38-2.17-.31-.51-.68-.37-1.65,.31-2.17,.68-.51,1.65-.38,2.17,.31,.51,.68,.38,1.66-.31,2.17"/><path class="c" d="M38.12,20.58c-.75,.57-1.82,.41-2.38-.34-.57-.75-.41-1.82,.33-2.39,.76-.56,1.82-.41,2.39,.34,.57,.75,.41,1.82-.34,2.39"/><path class="c" d="M43.28,16.99c-.83,.62-2.01,.46-2.63-.37-.62-.83-.45-2,.37-2.63,.83-.62,2-.46,2.63,.37,.62,.83,.46,2-.37,2.63"/><path class="c" d="M48.68,12.95c-.91,.69-2.21,.5-2.89-.41-.68-.91-.5-2.2,.41-2.89,.91-.68,2.2-.5,2.89,.41,.68,.91,.5,2.2-.41,2.89"/></svg>