<?xml version="1.0" encoding="UTF-8"?><svg id="a" xmlns="http://www.w3.org/2000/svg" xmlns:xlink="http://www.w3.org/1999/xlink" viewBox="0 0 106.27 39.04"><defs><style>.c{fill:#114b8e;}.d,.e{fill-rule:evenodd;}.d,.f{fill:#605e5f;}.g{clip-path:url(#b);}.h{fill:none;}.e{fill:#939496;}</style><clipPath id="b"><rect class="h" width="106.27" height="39.04"/></clipPath></defs><path class="c" d="M69.9,17.34l-6.35,6.39h-6.36l9.55-9.62c1.12,1.01,2.18,2.08,3.16,3.23m5.15-5.17l-4.6,4.62c-.97-1.15-2.02-2.23-3.15-3.24l5-5.04h7.58v15.22h-4.97c.08-3.49,.09-6.5,.14-11.56"/><polygon class="c" points="25.29 23.73 25.29 8.51 42.27 8.51 42.27 11.93 29.88 11.93 29.88 14.58 41.45 14.58 41.45 17.59 29.88 17.59 29.88 20.3 42.27 20.3 42.27 23.73 25.29 23.73"/><g class="g"><path class="c" d="M43.39,23.73V8.49h12.34c1.1,0,2.03,.07,2.81,.19,.78,.13,1.43,.44,1.96,.92,.53,.49,.89,1.1,1.07,1.84,.18,.74,.27,1.63,.27,2.68,0,1.13-.08,2.06-.25,2.81-.17,.75-.47,1.34-.9,1.79s-1.01,.77-1.75,.96c-.73,.19-1.66,.29-2.78,.29-.17,0-.32,0-.44-.01-.13,0-.28-.01-.44-.01h-7.21v3.79h-4.68m4.68-7.48h7.12c.73,0,1.25-.14,1.55-.42,.3-.28,.46-.8,.46-1.56s-.14-1.26-.41-1.58c-.27-.33-.81-.49-1.6-.49h-7.12v4.06Z"/><path class="e" d="M50.74,1.29c3.94,.9,7.68,2.24,11.06,3.91,7.39,3.66,14.82,10.38,18.08,18.53h-5.06c-4.52-10.15-14.72-16.79-25.79-19.47-9.53-2.31-19.06-1.47-23.84,3.35-4.84,4.88-3.27,11.96,.26,17.14-3.11-3.7-4.9-7.7-4.84-11.55,.17-10.35,13.66-15.69,30.12-11.92"/></g><path class="c" d="M104.59,29.91c0-.11-.02-.2-.06-.26-.03-.06-.09-.11-.18-.14-.08-.03-.19-.05-.33-.06-.14-.01-.31-.02-.53-.02h-.09s-.05,0-.09,0c-.31,.01-.57,.02-.78,.02s-.38,.01-.51,.03c-.13,.02-.22,.06-.28,.12-.06,.06-.09,.15-.09,.29,0,.12,.04,.21,.13,.27,.09,.06,.21,.09,.36,.1,.21,0,.42,0,.61,.01,.19,0,.37,0,.54,0,.1,0,.2,0,.31,0,.11,0,.21,0,.3,0,.4,0,.74,.01,1.03,.03,.29,.02,.53,.08,.72,.17s.33,.24,.42,.44c.09,.2,.14,.47,.14,.82,0,.25-.02,.46-.07,.63-.05,.17-.12,.31-.23,.42-.1,.11-.23,.2-.39,.26-.16,.06-.35,.1-.57,.13-.13,.01-.38,.03-.74,.05-.37,.02-.84,.03-1.41,.03s-1.02-.02-1.38-.05c-.36-.03-.61-.11-.78-.22-.12-.08-.2-.17-.25-.26-.06-.09-.09-.19-.11-.3-.02-.11-.03-.22-.03-.34v-.4h1.44v.17c0,.06,.01,.11,.04,.15,.02,.05,.07,.09,.13,.12,.06,.04,.16,.06,.29,.07,.06,0,.18,.01,.35,.01,.17,0,.38,0,.64,0,.33,0,.61,0,.82,0,.21,0,.38-.02,.5-.05,.12-.03,.2-.07,.24-.13,.04-.06,.06-.14,.06-.25s-.02-.19-.06-.25c-.04-.06-.1-.1-.19-.13-.08-.03-.18-.04-.29-.05-.11,0-.24,0-.37,0-.47,0-.88,0-1.24,0-.36,0-.68,0-.95-.02-.27-.02-.49-.05-.68-.1-.18-.05-.33-.12-.44-.23-.11-.11-.19-.24-.24-.42-.05-.17-.07-.39-.07-.65,0-.23,.02-.44,.06-.61,.04-.17,.11-.32,.2-.43,.1-.12,.22-.21,.38-.27,.15-.06,.35-.11,.58-.14,.15-.02,.4-.04,.74-.06,.34-.02,.77-.03,1.29-.03,.27,0,.52,0,.73,0,.22,0,.41,.01,.58,.03,.17,.02,.32,.05,.45,.08,.13,.04,.24,.09,.34,.16,.1,.08,.19,.16,.25,.24,.06,.09,.1,.18,.13,.28,.03,.1,.05,.21,.06,.33,0,.12,.01,.24,.01,.38h-1.42m-6.9-.27v3.58h-1.47v-3.58h-2.14v-1.19h5.71v1.19h-2.1Zm-4.21-1.19v4.77h-2.31l-2.87-3.58v3.58h-1.37v-4.77h2.31l2.87,3.58v-3.58h1.37Zm-12.75,4.77v-4.77h5.32v1.07h-3.88v.83h3.63v.94h-3.63v.85h3.88v1.07h-5.32Zm-.83-4.77v4.77h-1.37v-3.63l-2.1,3.63h-1.17l-2.08-3.63v3.63h-1.37v-4.77h2.31l1.75,3.16,1.73-3.16h2.3Zm-12.13,1.97l1.6-1.97h1.82l-2.68,3.1v1.67h-1.49v-1.67l-2.71-3.1h1.83l1.62,1.97Zm-4.05,1.94h-3.08l-.47,.87h-1.62l2.66-4.77h1.96l2.6,4.77h-1.6l-.45-.87Zm-.53-.99l-1.02-1.89-1.03,1.89h2.05Zm-9.91,1.85v-4.78h3.87c.34,0,.64,.02,.88,.06,.24,.04,.45,.14,.62,.29,.17,.15,.28,.35,.34,.58,.06,.23,.09,.51,.09,.84,0,.35-.03,.65-.08,.88-.05,.23-.15,.42-.28,.56-.14,.14-.32,.24-.55,.3-.23,.06-.52,.09-.87,.09-.05,0-.1,0-.14,0-.04,0-.09,0-.14,0h-2.26v1.19h-1.47Zm1.47-2.35h2.23c.23,0,.39-.04,.49-.13,.1-.09,.14-.25,.14-.49s-.04-.39-.13-.5c-.08-.1-.25-.15-.5-.15h-2.23v1.27Zm-7.06,.56v-.91h3.27c0,.37,0,.69-.01,.97,0,.28-.02,.52-.04,.72-.03,.2-.08,.37-.15,.51-.07,.14-.18,.25-.32,.33-.14,.08-.33,.14-.56,.17-.23,.03-.52,.05-.87,.05-.15,0-.31,0-.46,0-.15,0-.31,0-.45,0h-.44c-.53,0-.98-.01-1.35-.04-.37-.03-.67-.11-.9-.24-.23-.13-.4-.34-.51-.61-.11-.27-.16-.65-.16-1.14,0-.15,0-.35,.01-.6,0-.25,.02-.55,.04-.9,0-.15,.04-.3,.1-.44,.06-.14,.14-.27,.24-.38,.1-.11,.21-.2,.34-.27,.13-.07,.26-.12,.4-.14,.29-.04,.57-.06,.86-.08,.29-.01,.57-.02,.86-.02h1.04c.31,0,.58,.01,.82,.03,.24,.02,.44,.05,.61,.1,.17,.05,.32,.11,.43,.2,.11,.09,.2,.18,.26,.27,.06,.1,.11,.2,.14,.31,.03,.11,.05,.23,.05,.36,0,.13,.01,.27,.01,.42h-1.42c-.01-.12-.03-.22-.06-.29-.03-.07-.08-.12-.15-.16-.07-.04-.18-.06-.31-.07-.13,0-.3-.01-.5-.01h-.36c-.13,0-.26,0-.38,0-.12,0-.24,0-.34,0-.24,0-.44,0-.59,0-.15,0-.28,.05-.38,.11-.1,.07-.16,.18-.2,.33s-.06,.37-.06,.65c0,.26,0,.48,.02,.66,.01,.18,.04,.32,.08,.43,.04,.11,.11,.19,.19,.25,.09,.06,.2,.09,.35,.12,.14,.02,.33,.04,.54,.04h1.39c.17,0,.32-.02,.43-.05,.11-.03,.2-.09,.25-.17,.06-.08,.08-.2,.08-.35,0-.03,0-.05,0-.06,0-.01,0-.04,0-.06h-1.84Zm-3.7-2.98v4.77h-2.31l-2.87-3.58v3.58h-1.37v-4.77h2.31l2.87,3.58v-3.58h1.37Zm-8.95,0h1.47v4.77h-1.47v-4.77Zm-4.02,2.98v-.91h3.27c0,.37,0,.69-.01,.97,0,.28-.02,.52-.04,.72-.03,.2-.08,.37-.15,.51-.07,.14-.18,.25-.32,.33-.14,.08-.33,.14-.56,.17-.23,.03-.52,.05-.87,.05-.15,0-.31,0-.46,0-.15,0-.31,0-.45,0h-.44c-.53,0-.98-.01-1.35-.04-.37-.03-.67-.11-.9-.24-.23-.13-.4-.34-.51-.61-.11-.27-.16-.65-.16-1.14,0-.15,0-.35,.01-.6,0-.25,.02-.55,.04-.9,0-.15,.04-.3,.1-.44,.06-.14,.14-.27,.24-.38,.1-.11,.21-.2,.34-.27,.13-.07,.26-.12,.4-.14,.29-.04,.57-.06,.86-.08,.29-.01,.57-.02,.86-.02h1.04c.31,0,.58,.01,.82,.03,.24,.02,.44,.05,.61,.1,.17,.05,.32,.11,.43,.2,.11,.09,.19,.18,.26,.27,.06,.1,.11,.2,.14,.31,.03,.11,.05,.23,.05,.36,0,.13,.01,.27,.01,.42h-1.42c0-.12-.03-.22-.06-.29-.03-.07-.08-.12-.15-.16-.07-.04-.18-.06-.31-.07-.13,0-.3-.01-.5-.01h-.37c-.13,0-.25,0-.38,0-.12,0-.24,0-.34,0-.24,0-.43,0-.59,0-.15,0-.28,.05-.38,.11-.1,.07-.16,.18-.2,.33-.04,.15-.06,.37-.06,.65,0,.26,0,.48,.02,.66,.01,.18,.04,.32,.08,.43,.04,.11,.11,.19,.19,.25,.09,.06,.2,.09,.35,.12,.15,.02,.33,.04,.54,.04h1.39c.17,0,.31-.02,.43-.05,.11-.03,.2-.09,.25-.17,.06-.08,.08-.2,.08-.35,0-.03,0-.05,0-.06,0-.01,0-.04,0-.06h-1.84Zm-8.15,.56v1.23h-1.47v-4.77h4.44c.29,0,.54,.03,.75,.08,.2,.05,.37,.14,.49,.26,.13,.12,.22,.27,.27,.47,.06,.19,.08,.42,.08,.7s-.02,.51-.07,.68c-.04,.17-.11,.3-.2,.39-.09,.1-.2,.17-.33,.21-.13,.05-.27,.1-.44,.14,.13,.03,.26,.05,.38,.08,.12,.02,.22,.06,.31,.12,.09,.06,.16,.15,.21,.27,.05,.12,.08,.29,.08,.51v.86h-1.47v-.63c0-.21-.04-.36-.12-.45-.08-.1-.25-.15-.5-.15h-2.41Zm0-1.16h2.18s.07,0,.09,0c.02,0,.06,0,.09,0,.17,0,.31-.01,.4-.03,.1-.02,.17-.05,.22-.1,.05-.05,.08-.12,.09-.2,.01-.08,.02-.19,.02-.33s-.01-.23-.04-.3-.07-.13-.13-.17c-.06-.04-.15-.07-.25-.08-.1,0-.24-.01-.39-.01h-2.29v1.22Zm-7.67,2.39v-4.77h5.32v1.07h-3.88v.83h3.63v.94h-3.63v.85h3.88v1.07h-5.32Zm-.83-4.77v4.77h-1.37v-3.63l-2.1,3.63h-1.17l-2.08-3.63v3.63h-1.37v-4.77h2.31l1.75,3.16,1.73-3.16h2.3ZM.08,33.22v-4.77H5.4v1.07H1.52v.83h3.63v.94H1.52v.85h3.88v1.07H.08Z"/><path class="d" d="M72.17,37.21v.25c0,.25,.01,.6,.12,.83,.11,.24,.53,.27,.75,.27h1.21c.07,.01,.14,.02,.21,.02s.14,0,.22,0c.07,0,.14,0,.21-.01,.07,0,.14,0,.21-.01,.19-.02,.43-.08,.51-.27,.08-.18,.1-.4,.1-.6,0-.06,0-.12,0-.18,0-.06,0-.12,0-.18,0-.06,0-.12,0-.18v-.18c0-.06,0-.11,0-.17,0-.06,0-.12,0-.18,0-.11-.02-.22-.04-.34-.02-.09-.04-.18-.1-.25-.02-.04-.06-.07-.09-.09-.04-.02-.08-.04-.12-.06h-.01s0-.01-.02-.01c-.06-.02-.12-.03-.18-.04-.06,0-.12-.01-.19-.02-.04,0-.07,0-.11,0h-1.73c-.21,0-.57,.03-.75,.16-.18,.13-.2,.52-.21,.72l-.02,.51m-11.43,.58l-1.19-1.99-1.18,1.99h2.37Zm-18.37-.58v.25c0,.25,.01,.6,.12,.83,.11,.24,.53,.27,.76,.27h1.21c.07,.01,.14,.02,.21,.02s.14,0,.22,0c.07,0,.14,0,.21-.01,.07,0,.14,0,.21-.01,.19-.02,.43-.08,.51-.27,.08-.18,.1-.4,.1-.6,0-.06,0-.12,0-.18,0-.06,0-.12,0-.18,0-.06,0-.12,0-.18v-.18c0-.06,0-.11,0-.17,0-.06,0-.12,0-.18,0-.11-.02-.22-.04-.34-.02-.09-.04-.18-.1-.25-.02-.04-.06-.07-.09-.09-.04-.02-.08-.04-.12-.06h-.03c-.06-.03-.11-.04-.17-.05-.06,0-.12-.01-.19-.02-.04,0-.07,0-.11,0h-1.73c-.21,0-.58,.03-.75,.16-.18,.13-.2,.52-.21,.72v.51Zm-15.6,.58l-1.19-1.99-1.18,1.99h2.37Zm52.12-1.98v3.12h-.44v-3.46h.71l3.18,3.1v-3.1h.44v3.46h-.7l-3.19-3.12Zm-7.19,1.41v-.17c0-.06,0-.11,0-.17,0-.12,0-.23,.02-.35,0-.11,.03-.23,.05-.34,.06-.25,.18-.49,.43-.6,.23-.1,.49-.14,.74-.14,.13,0,.26,0,.38,0,.13,0,.26,0,.38,0h.76c.37,0,1.1,.02,1.39,.29,.29,.27,.31,.98,.31,1.34,0,.15,0,.31,0,.46,0,.16-.01,.31-.03,.47-.03,.25-.1,.54-.31,.7-.21,.16-.5,.22-.76,.24-.14,.01-.29,.02-.43,.02-.14,0-.29,0-.43,0h-.77c-.12,0-.24,0-.37,0-.12,0-.24-.01-.37-.03-.02,0-.04,0-.05,0-.02,0-.04,0-.06,0-.13-.02-.26-.06-.38-.11-.12-.06-.23-.14-.3-.26-.07-.1-.11-.22-.13-.33-.03-.13-.05-.26-.06-.39-.01-.1-.02-.21-.02-.31,0-.1,0-.19,0-.28h0Zm-2.72-1.76h.44v3.46h-.44v-3.46Zm-3.63,.37v3.09h-.44v-3.09h-1.74v-.37h3.93v.37h-1.75Zm-4.41,2.32h-2.79l-.44,.77h-.51l2.05-3.46h.57l2.07,3.46h-.5l-.45-.77Zm-5.98-2.69h.44v3.46h-.44v-3.46Zm-5.13,3.11c.14,0,.27,0,.4,0,.14,0,.27,0,.4,0l.77-.02c.19,0,.46-.02,.64-.1,.19-.08,.21-.37,.21-.55v-.15h.45c0,.28-.02,.68-.19,.9-.18,.24-.7,.27-.97,.27l-.89,.02h-.1s-.06,0-.1,0h-.19c-.13,0-.26,0-.38,0-.13,0-.26-.02-.39-.03-.25-.02-.51-.1-.68-.29-.17-.19-.24-.45-.25-.7,0-.05,0-.11,0-.16,0-.06,0-.11,0-.17,0-.05,0-.11,0-.16v-.37c0-.07,0-.14,0-.2,0-.1,.01-.2,.02-.3,0-.1,.02-.2,.04-.3,.05-.24,.14-.51,.37-.63,.21-.12,.47-.16,.71-.18,.1-.01,.21-.02,.31-.02,.11,0,.21,0,.32-.01h.44s.08,0,.12,0h.25c.15,0,.3,0,.45,.01,.15,0,.3,.03,.45,.06,.24,.05,.45,.16,.52,.4,.06,.22,.1,.45,.11,.68h-.43v-.04s0-.07,0-.11c0-.04,0-.08,0-.12,0-.07-.02-.15-.05-.21-.02-.06-.06-.12-.12-.15-.08-.05-.2-.08-.29-.09-.14-.02-.29-.03-.43-.03-.08,0-.15,0-.23,0-.07,0-.14,0-.21,0-.19,0-.38,0-.57,0-.19,0-.38,.01-.57,.03-.15,.01-.45,.05-.57,.16-.11,.11-.15,.4-.17,.55,0,.07-.01,.14-.01,.22,0,.07,0,.14,0,.22,0,.07,0,.15,0,.22v.22c0,.27,.02,.59,.1,.85,.09,.27,.49,.3,.72,.3m-7.93-1.35v-.17c0-.06,0-.11,0-.17,0-.12,0-.23,.01-.35,0-.11,.03-.23,.05-.34,.06-.25,.18-.49,.43-.6,.23-.1,.49-.14,.74-.14,.13,0,.26,0,.38,0,.13,0,.26,0,.38,0h.76c.37,0,1.1,.02,1.39,.29,.28,.27,.31,.98,.31,1.34,0,.15,0,.31,0,.46,0,.16-.01,.31-.03,.47-.03,.25-.1,.54-.31,.7-.21,.16-.5,.22-.76,.24-.14,.01-.28,.02-.43,.02-.14,0-.29,0-.43,0h-.77c-.12,0-.25,0-.37,0-.12,0-.24-.01-.37-.03-.02,0-.03,0-.05,0s-.04,0-.06,0c-.13-.02-.26-.06-.38-.11-.13-.06-.22-.14-.3-.26-.06-.1-.1-.22-.13-.33-.03-.13-.05-.26-.06-.39-.01-.1-.02-.21-.02-.31,0-.1,0-.19,0-.28h0Zm-14.92,.93h-2.79l-.44,.77h-.51l2.05-3.46h.57l2.07,3.46h-.5l-.45-.77Zm6.54-1.72h-.42s0-.06,0-.08c0-.03,0-.05,0-.08,0-.07-.03-.14-.05-.2-.03-.06-.08-.11-.14-.14-.08-.04-.19-.06-.28-.07-.12-.02-.25-.03-.37-.03-.08,0-.17,0-.25,0-.08,0-.15,0-.23,0h-.15c-.09,0-.18,0-.28,.01-.11,0-.23,.01-.34,.02-.12,.01-.24,.02-.36,.04-.1,.02-.2,.04-.29,.08-.08,.03-.14,.09-.17,.17-.03,.08-.05,.16-.05,.24v.06c0,.16,.03,.35,.19,.43,.15,.08,.32,.1,.49,.11,.03,0,.06,0,.09,0,.03,0,.07,0,.1,0h.39c.07,0,.14,0,.21,0h.58c.06,0,.12,0,.18,0,.06,0,.12,0,.18,.01,.06,0,.12,0,.18,.01,.23,.03,.52,.09,.69,.25,.18,.17,.21,.46,.21,.69,0,.17-.02,.35-.09,.51-.07,.17-.21,.28-.38,.35-.12,.05-.25,.08-.37,.1-.15,.02-.29,.03-.44,.04-.08,0-.16,0-.24,0-.08,0-.15,0-.23,0h-.28c-.09,0-.17,0-.26,0-.09,0-.17,0-.26,0-.09,0-.18,0-.27-.01-.09,0-.18-.01-.26-.02-.23-.03-.57-.1-.71-.3-.14-.2-.17-.53-.17-.76h.44v.07h0v.02c0,.11,.01,.23,.04,.34,.03,.12,.15,.18,.26,.21,.09,.03,.19,.04,.29,.05,.11,.01,.23,.02,.34,.03,.1,0,.21,0,.31,0,.09,0,.18,0,.28,0,.05,0,.11,0,.16,0,.05,0,.11,0,.16,0,.11,0,.22,0,.33-.02s.22-.02,.32-.03c.15-.02,.32-.06,.43-.16,.11-.1,.14-.28,.14-.42,0-.16-.02-.4-.19-.48-.17-.07-.38-.09-.56-.09h-.79s-.06,0-.09,0-.06,0-.09,0c-.12,0-.25,0-.37,0-.12,0-.25,0-.37-.02-.25-.01-.52-.06-.74-.19-.23-.13-.29-.39-.29-.64,0-.2,.03-.39,.11-.57,.08-.19,.24-.3,.43-.37,.11-.04,.23-.07,.34-.08,.14-.02,.27-.04,.41-.04,.12-.01,.24-.02,.37-.02,.11,0,.21,0,.32,0,.08,0,.17,0,.25,0,.09,0,.17,0,.26,0,.08,0,.17,0,.25,.01s.17,.01,.25,.02c.24,.02,.5,.09,.67,.28,.16,.18,.2,.43,.2,.66v.02h-.02Zm6.14,0h-.42s0-.06,0-.08c0-.03,0-.05,0-.08,0-.07-.02-.14-.05-.2-.03-.06-.08-.11-.14-.14-.08-.04-.19-.06-.28-.07-.12-.02-.25-.03-.37-.03-.08,0-.17,0-.25,0-.07,0-.15,0-.22,0h-.14c-.09,0-.19,0-.28,.01-.11,0-.23,.01-.34,.02-.12,.01-.24,.02-.36,.04-.1,.02-.2,.04-.29,.08-.08,.03-.14,.09-.17,.17-.03,.08-.05,.16-.05,.24v.06c0,.16,.03,.35,.19,.43,.15,.08,.32,.1,.49,.11,.03,0,.06,0,.09,0,.03,0,.07,0,.1,0h.39c.07,0,.14,0,.21,0h.58c.06,0,.12,0,.19,0,.06,0,.12,0,.18,.01,.06,0,.12,0,.18,.01,.23,.03,.52,.09,.69,.25,.18,.17,.22,.46,.22,.69,0,.17-.03,.35-.09,.51-.07,.17-.21,.28-.38,.35-.12,.05-.25,.08-.37,.1-.15,.02-.29,.03-.44,.04-.08,0-.16,0-.24,0-.07,0-.15,0-.23,0h-.28c-.09,0-.18,0-.26,0-.09,0-.18,0-.26,0-.09,0-.18,0-.27-.01-.09,0-.18-.01-.26-.02-.23-.03-.57-.1-.71-.3-.14-.2-.17-.53-.17-.76h.44v.07h0v.02c0,.11,.01,.23,.04,.34,.03,.12,.15,.18,.26,.21,.09,.03,.19,.04,.29,.05,.11,.01,.23,.02,.34,.03,.1,0,.21,0,.31,0,.09,0,.18,0,.27,0,.05,0,.11,0,.16,0,.06,0,.11,0,.16,0,.11,0,.22,0,.33-.02,.11,0,.22-.02,.32-.03,.14-.02,.32-.06,.43-.16,.11-.1,.13-.28,.13-.42,0-.16-.02-.4-.19-.48-.16-.07-.38-.09-.56-.09h-.79s-.06,0-.1,0-.06,0-.09,0c-.12,0-.25,0-.37,0-.12,0-.25,0-.37-.02-.25-.01-.52-.06-.74-.19-.23-.13-.29-.39-.29-.64,0-.2,.03-.39,.11-.57,.08-.19,.24-.3,.43-.37,.11-.04,.23-.07,.35-.08,.13-.02,.27-.04,.41-.04,.12-.01,.24-.02,.37-.02,.11,0,.21,0,.32,0,.08,0,.17,0,.25,0,.09,0,.17,0,.26,0,.08,0,.17,0,.25,.01s.17,.01,.25,.02c.24,.02,.5,.09,.67,.28,.16,.18,.2,.43,.2,.66v.02h-.02Z"/><rect class="f" x=".07" y="37.02" width="21.33" height=".35"/><rect class="f" x="84.86" y="37.02" width="21.37" height=".35"/></svg>