<?xml version="1.0" encoding="UTF-8" standalone="no"?>
<svg
   xmlns:dc="http://purl.org/dc/elements/1.1/"
   xmlns:cc="http://creativecommons.org/ns#"
   xmlns:rdf="http://www.w3.org/1999/02/22-rdf-syntax-ns#"
   xmlns:svg="http://www.w3.org/2000/svg"
   xmlns="http://www.w3.org/2000/svg"
   xmlns:sodipodi="http://sodipodi.sourceforge.net/DTD/sodipodi-0.dtd"
   xmlns:inkscape="http://www.inkscape.org/namespaces/inkscape"
   version="1.1"
   x="0px"
   y="0px"
   width="180"
   height="80"
   viewBox="0 0 180 80"
   xml:space="preserve"
   id="svg16"
   sodipodi:docname="KRing_logo.svg"
   inkscape:version="1.0.1 (3bc2e813f5, 2020-09-07)"><metadata
   id="metadata22"><rdf:RDF><cc:Work
       rdf:about=""><dc:format>image/svg+xml</dc:format><dc:type
         rdf:resource="http://purl.org/dc/dcmitype/StillImage" /><dc:title></dc:title></cc:Work></rdf:RDF></metadata><defs
   id="defs20" /><sodipodi:namedview
   pagecolor="#ffffff"
   bordercolor="#666666"
   borderopacity="1"
   objecttolerance="10"
   gridtolerance="10"
   guidetolerance="10"
   inkscape:pageopacity="0"
   inkscape:pageshadow="2"
   inkscape:window-width="2880"
   inkscape:window-height="1526"
   id="namedview18"
   showgrid="false"
   inkscape:zoom="2.8284271"
   inkscape:cx="120.97919"
   inkscape:cy="40.872731"
   inkscape:window-x="2869"
   inkscape:window-y="-11"
   inkscape:window-maximized="1"
   inkscape:current-layer="svg16" />
<style
   type="text/css"
   id="style2">
<![CDATA[
	.st0{fill:#231F20;}
	.st1{fill:url(#SVGID_1_);}
]]>
</style>
<g
   id="Layer_1">
</g>

<g
   id="g31"
   transform="matrix(0.988886,0,0,0.988886,1,2.7425)"><g
     id="K_logo"
     transform="scale(0.41862108)">
	<linearGradient
   id="SVGID_1_"
   gradientUnits="userSpaceOnUse"
   x1="26.135742"
   y1="153.86523"
   x2="153.35565"
   y2="26.645327">
		<stop
   offset="0"
   style="stop-color:#FF0000"
   id="stop5" />
		<stop
   offset="1"
   style="stop-color:#FF00D2"
   id="stop7" />
	</linearGradient>
	<path
   class="st1"
   d="m 61.311523,49.915527 c 0,-1.697265 0.39209,-2.088867 2.089356,-2.088867 h 0.652832 c 1.697265,0 2.089355,0.391602 2.089355,2.088867 v 80.690433 c 0,1.69726 -0.392089,2.08886 -2.089355,2.08886 h -0.652832 c -1.697266,0 -2.089356,-0.3916 -2.089356,-2.08886 z m 53.430667,0 c 1.43603,-1.697265 2.34961,-2.088867 4.56982,-2.088867 h 0.65283 c 2.21875,0 2.35059,0.391602 0.91407,2.088867 L 93.720703,81.251465 c -3.00293,3.52539 -4.178223,5.353027 -4.178223,7.050293 0,1.697265 1.175293,3.656738 4.178223,7.181152 l 29.769527,35.12305 c 1.43604,1.69726 1.30518,2.08886 -0.91406,2.08886 h -0.65283 c -2.21973,0 -3.13379,-0.3916 -4.57031,-2.08886 l -25.852053,-30.292 c -4.438965,-5.222652 -6.658692,-8.095698 -6.658692,-12.012202 0,-3.786133 2.219727,-6.658692 6.658692,-11.750977 z M 90.000488,180.00049 C 40.374023,180.00049 0,139.62646 0,90 0,40.374023 40.374023,0 90.000488,0 c 49.625972,0 90.000002,40.374023 90.000002,90 0,49.62646 -40.37403,90.00049 -90.000002,90.00049 z m 0,-175.2353533 C 43.001465,4.7651367 4.7651367,43.001465 4.7651367,90 c 0,46.99854 38.2363283,85.23486 85.2353513,85.23486 46.998052,0 85.234862,-38.23632 85.234862,-85.23486 0,-46.998535 -38.23681,-85.2348633 -85.234862,-85.2348633 z"
   id="path10"
   style="fill:url(#SVGID_1_)" />
</g><g
     id="K_Ring_Normal"
     transform="scale(0.41862108)">
	<path
   class="st0"
   d="m 216.75439,95.617676 v 34.995114 c 0,1.69727 -0.3916,2.08887 -2.08935,2.08887 h -0.65234 c -1.69776,0 -2.08985,-0.3916 -2.08985,-2.08887 V 60.883789 c 0,-9.140625 3.91748,-13.058105 13.05811,-13.058105 h 19.06396 c 21.67627,0 26.63819,8.749023 26.63819,23.895996 0,13.188476 -3.91651,21.806152 -20.1084,23.634277 l 21.41406,35.256833 c 1.04443,1.69727 0.78418,2.08887 -1.17432,2.08887 h -0.52295 c -1.95849,0 -2.74218,-0.3916 -3.78662,-2.08887 L 245.35107,95.617676 Z m 7.83448,-43.22168 c -5.48389,0 -7.83448,2.350586 -7.83448,7.834473 v 30.816894 h 27.29053 c 18.54248,0 21.80762,-6.529297 21.80762,-19.325683 0,-12.796875 -3.39551,-19.325684 -21.80762,-19.325684 z m 65.67968,-7.57373 c 2.08936,0 3.52588,1.567382 3.52588,3.65625 0,1.958984 -1.43652,3.525879 -3.52588,3.525879 -2.08886,0 -3.65625,-1.566895 -3.65625,-3.525879 0,-2.088868 1.56739,-3.65625 3.65625,-3.65625 z m -2.35009,26.115722 c 0,-1.566894 0.3916,-1.958496 1.95898,-1.958496 h 0.65283 c 1.56641,0 1.95801,0.391602 1.95801,1.958496 v 59.804692 c 0,1.56738 -0.3916,1.95898 -1.95801,1.95898 h -0.65283 c -1.56738,0 -1.95898,-0.3916 -1.95898,-1.95898 z m 28.33447,59.804692 c 0,1.56738 -0.3916,1.95898 -1.95801,1.95898 h -0.65381 c -1.5664,0 -1.958,-0.3916 -1.958,-1.95898 V 90.916504 c 0,-13.449219 5.87597,-22.981934 25.4624,-22.981934 19.5874,0 25.46338,9.532715 25.46338,22.981934 v 39.826176 c 0,1.56738 -0.39209,1.95898 -1.95948,1.95898 h -0.65234 c -1.56738,0 -1.95947,-0.3916 -1.95947,-1.95898 V 90.916504 c 0,-11.882324 -4.56983,-18.672363 -20.89209,-18.672363 -16.32227,0 -20.89258,6.790039 -20.89258,18.672363 z m 87.09473,-17.36622 c -16.71485,0 -20.37061,1.04395 -20.37061,6.00586 0,4.44043 3.65576,5.61524 20.37061,5.61524 19.84765,0 26.63672,4.44043 26.63672,16.45312 0,14.36328 -7.31055,19.71778 -26.63672,19.71778 -20.89307,0 -26.89942,-6.66016 -26.89942,-18.67383 0,-8.74805 4.43994,-12.92676 8.09619,-15.14649 -4.43994,-1.56738 -6.13769,-4.04785 -6.13769,-7.96582 0,-4.96191 3.7876,-8.4873 10.96826,-8.74804 -7.7041,-2.35059 -11.62061,-9.66211 -11.62061,-18.934573 V 89.61084 c 0,-13.97168 9.40186,-21.67627 25.59327,-21.67627 3.65625,0 9.79296,0.653321 14.75586,3.134278 l 7.83398,-7.05127 c 0.91406,-0.783691 1.4375,-0.783691 2.21875,0 l 0.52344,0.521973 c 0.91406,0.783691 0.91406,1.306152 0,2.089355 l -7.05078,6.659668 c 5.35351,3.917481 7.05078,10.577149 7.05078,16.322266 v 2.088867 c 0,13.710933 -7.18164,21.676753 -25.33203,21.676753 z m -14.36329,15.14747 c -5.48535,2.74218 -7.96582,7.18066 -7.96582,13.9707 0,11.36133 6.39844,14.36426 22.32911,14.36426 15.01757,0 22.0664,-2.74219 22.0664,-15.0166 0,-11.09961 -7.04883,-12.53614 -22.0664,-12.53614 -6.00733,0 -10.70752,-0.25976 -14.36329,-0.78222 z m 35.125,-38.91309 c 0,-9.923828 -5.09179,-17.366699 -20.76171,-17.366699 -15.66944,0 -21.02295,7.442871 -21.02295,17.366699 v 2.088867 c 0,10.708003 4.04785,17.367183 21.02295,17.367183 16.97461,0 20.76171,-6.79003 20.76171,-17.367183 z"
   id="path13" />
</g></g>
</svg>
