<?xml version="1.0" encoding="UTF-8"?><svg id="a" xmlns="http://www.w3.org/2000/svg" xmlns:xlink="http://www.w3.org/1999/xlink" viewBox="0 0 66.69 20.08"><defs><style>.c{fill:#595a5a;}.d{clip-path:url(#b);}.e{fill:none;}.f{fill:#8dc640;}</style><clipPath id="b"><rect class="e" x="0" width="66.69" height="20.08"/></clipPath></defs><g><path class="f" d="M10.56,6.71c0,1.91-1.33,3.52-3.09,3.92l1.93,1.93c2.27-1.04,3.81-3.32,3.81-6.03C13.2,2.93,10.27,0,6.65,0,6.37,0,6.08,.02,5.81,.05l3.29,3.29c.9,.75,1.46,1.94,1.46,3.36"/><path class="c" d="M2.68,6.55c0-2.01,1.3-3.59,3.13-3.97L3.84,.6C1.55,1.63,0,3.88,0,6.57c0,3.64,2.95,6.6,6.57,6.6,.29,0,.58-.02,.87-.06l-3.24-3.24c-.93-.76-1.52-1.95-1.52-3.33"/><polygon class="f" points="60.59 13.26 60.59 1.48 62.59 1.48 62.59 11.42 66 11.42 66 13.26 60.59 13.26"/><path class="f" d="M19.54,8.05c-.23,.12-.5,.2-.79,.27-.43,.12-.77,.13-1.5,.13h-1.08v4.81h-2V1.48h2.92c1.24,0,2.02,.13,2.64,.45,1.07,.53,1.67,1.62,1.67,2.95,0,1.42-.68,2.6-1.85,3.17m-2.34-4.84h-1.03v3.57h1.05c1.45,0,2.19-.6,2.19-1.82s-.72-1.75-2.2-1.75"/><polygon class="f" points="26.85 3.3 26.85 13.26 24.87 13.26 24.87 3.3 22.1 3.3 22.1 1.48 29.62 1.48 29.62 3.3 26.85 3.3"/><rect class="f" x="30.84" y="1.48" width="2" height="11.78"/><polygon class="f" points="45.42 13.26 44.07 6.57 40.77 13.59 40.6 13.59 37.51 6.59 36.08 13.26 34.09 13.26 36.71 1.16 36.88 1.16 40.8 9.64 44.71 1.18 44.87 1.18 47.48 13.26 45.42 13.26"/><path class="f" d="M57.09,13.26l-1.17-2.77h-4.44l-1.3,2.77h-2.2L53.82,1.16h.15l5.34,12.1h-2.22Zm-3.27-8.01l-1.55,3.44h2.94l-1.38-3.44Z"/><path class="c" d="M8.87,18.02c-.09,.04-.19,.07-.29,.1-.16,.04-.29,.05-.56,.05h-.4v1.78h-.74v-4.37h1.08c.46,0,.75,.05,.98,.17,.4,.2,.62,.6,.62,1.1,0,.53-.25,.97-.69,1.18m-.87-1.8h-.38v1.33h.39c.54,0,.81-.22,.81-.68s-.27-.65-.82-.65"/><path class="c" d="M17.06,19.95l-.43-1.03h-1.65l-.48,1.03h-.82l2.17-4.49h.05l1.98,4.49h-.83Zm-1.21-2.97l-.58,1.28h1.09l-.51-1.28Z"/><polygon class="c" points="24.03 18.11 24.03 19.95 23.28 19.95 23.28 18.11 21.81 15.58 22.69 15.58 23.66 17.4 24.66 15.58 25.53 15.58 24.03 18.11"/><polygon class="c" points="34.22 19.95 33.72 17.47 32.49 20.08 32.43 20.08 31.28 17.47 30.75 19.95 30.01 19.95 30.98 15.46 31.05 15.46 32.5 18.61 33.95 15.47 34.01 15.47 34.98 19.95 34.22 19.95"/><polygon class="c" points="39.84 19.95 39.84 15.58 42.32 15.58 42.32 16.25 40.58 16.25 40.58 17.25 42.31 17.25 42.31 17.93 40.58 17.93 40.58 19.28 42.34 19.28 42.34 19.95 39.84 19.95"/><polygon class="c" points="51.22 20.07 48.08 17.05 48.08 19.95 47.36 19.95 47.36 15.46 47.42 15.46 50.58 18.42 50.58 15.58 51.29 15.58 51.29 20.07 51.22 20.07"/><polygon class="c" points="57.84 16.25 57.84 19.95 57.11 19.95 57.11 16.25 56.08 16.25 56.08 15.58 58.87 15.58 58.87 16.25 57.84 16.25"/></g><g class="d"><path class="c" d="M64.76,20.02c-.32,0-.6-.07-.85-.24-.16-.1-.3-.23-.41-.38-.12-.17-.18-.27-.28-.55l.63-.24c.2,.53,.51,.8,.95,.8,.41,0,.69-.27,.69-.64,0-.28-.17-.5-.49-.66l-.5-.24c-.69-.33-.97-.67-.97-1.2,0-.67,.54-1.17,1.28-1.17,.26,0,.53,.06,.73,.16,.22,.11,.38,.27,.58,.55l-.55,.39c-.13-.2-.19-.27-.29-.35-.12-.09-.28-.15-.46-.15-.33,0-.55,.19-.55,.48,0,.11,.03,.19,.09,.27,.08,.11,.18,.18,.42,.3l.42,.21c.43,.22,.46,.23,.63,.38,.27,.25,.41,.55,.41,.91,0,.79-.62,1.35-1.49,1.35"/><path class="f" d="M64.59,1.97c.06-.13,.14-.25,.24-.34,.1-.1,.22-.17,.35-.23,.13-.06,.27-.08,.42-.08s.29,.03,.42,.08c.13,.05,.25,.13,.35,.23,.1,.1,.18,.21,.24,.34,.06,.13,.09,.27,.09,.43s-.03,.3-.09,.43c-.06,.13-.14,.25-.24,.35-.1,.1-.21,.17-.35,.23-.13,.05-.27,.08-.42,.08s-.29-.03-.42-.08c-.13-.05-.25-.13-.35-.23-.1-.1-.18-.21-.24-.35-.06-.13-.09-.28-.09-.43s.03-.3,.09-.43m.18,.8c.05,.11,.11,.21,.19,.3,.08,.08,.18,.15,.29,.2,.11,.05,.23,.07,.36,.07s.24-.02,.35-.07c.11-.05,.2-.11,.28-.2,.08-.08,.14-.18,.19-.3,.05-.11,.07-.24,.07-.37s-.02-.25-.07-.36c-.05-.11-.11-.21-.19-.29-.08-.08-.17-.15-.28-.19-.11-.05-.23-.07-.35-.07s-.25,.02-.36,.07c-.11,.05-.2,.11-.29,.19-.08,.08-.14,.18-.19,.29-.05,.11-.07,.23-.07,.36s.02,.26,.07,.37m.9-1c.15,0,.26,.03,.34,.09,.07,.06,.11,.15,.11,.27,0,.11-.03,.2-.1,.25-.06,.05-.14,.08-.24,.1l.36,.56h-.21l-.35-.55h-.21v.55h-.2V1.76h.49Zm-.09,.56s.09,0,.13,0c.04,0,.08-.01,.11-.02,.03-.01,.06-.04,.07-.06,.02-.03,.03-.07,.03-.12,0-.04,0-.08-.02-.1-.02-.02-.04-.04-.06-.06-.03-.01-.06-.02-.09-.03-.03,0-.07,0-.1,0h-.26v.4h.21Z"/></g></svg>