<?xml version="1.0" encoding="UTF-8"?><svg id="a" xmlns="http://www.w3.org/2000/svg" viewBox="0 0 2000 1000"><g><path d="M2665.64,1297.93c-16.67,18.33-88.23,32.18-176.08,28.48-89.28-3.76-193.18-24.02-294.94-48.78-231.39-56.29-531.46-315.81-709.02-177.49-591.06,460.41-848.89,572.44-711.75-21.53-57.14-266.5-884.29,172.49-1071.76,370.59" style="fill:none; stroke:#d9e8eb; stroke-miterlimit:10;"/><path d="M2641.78,1236.87c-16.64,21.22-90.05,37.62-180,35.71-91.26-1.94-197.27-21.05-300.53-45.2-235.93-55.18-541.14-321.91-719.07-176.66-600.53,490.23-855.65,604.74-698.75-17.11-39.98-279.91-892.36,171.34-1100.85,361.41" style="fill:none; stroke:#d9e8eb; stroke-miterlimit:10;"/><path d="M2617.92,1175.82c-16.62,24.11-91.86,43.06-183.91,42.93-93.24-.13-201.37-18.08-306.12-41.62-240.48-54.05-550.74-328.01-729.12-175.83-609.69,520.17-748.89,657.66-685.75-12.69,27.59-292.91-900.44,170.19-1129.95,352.23" style="fill:none; stroke:#d9e8eb; stroke-miterlimit:10;"/><path d="M2594.05,1114.77c-16.59,27-93.68,48.5-187.83,50.16-95.23,1.68-205.46-15.1-311.71-38.04-245.03-52.91-560.27-334.13-739.17-175-618.55,550.19-765.49,691.11-672.75-8.28,40.32-304.11-908.52,169.04-1159.04,343.05" style="fill:none; stroke:#d9e8eb; stroke-miterlimit:10;"/><path d="M2570.19,1053.71c-16.57,29.89-95.5,53.94-191.74,57.39-97.21,3.48-209.56-12.12-317.3-34.46-249.58-51.76-569.72-340.25-749.22-174.16-627.13,580.28-782.12,723.79-659.76-3.86,53.12-315.9-916.6,167.89-1188.14,333.87" style="fill:none; stroke:#d9e8eb; stroke-miterlimit:10;"/><path d="M2546.33,992.66c-16.54,32.78-97.32,59.38-195.66,64.62-99.2,5.29-213.65-9.13-322.88-30.88-254.13-50.6-579.1-346.4-759.27-173.33-635.44,610.41-798.65,755.83-646.76,.55,66-328.2-924.67,166.75-1217.23,324.69" style="fill:none; stroke:#d9e8eb; stroke-miterlimit:10;"/><path d="M2522.47,931.61c-16.52,35.67-99.14,64.81-199.58,71.85-101.19,7.09-217.75-6.14-328.47-27.3-258.67-49.44-588.42-352.57-769.32-172.5-643.52,640.58-815,787.3-633.76,4.97,78.98-340.93-932.75,165.6-1246.32,315.51" style="fill:none; stroke:#d9e8eb; stroke-miterlimit:10;"/><path d="M2498.61,870.55c-16.5,38.56-100.97,70.24-203.49,79.08-103.19,8.89-221.84-3.15-334.06-23.73-263.22-48.26-597.69-358.76-779.37-171.67-651.37,670.76-831.11,818.32-620.76,9.39,92.06-354.04-940.83,164.45-1275.42,306.33" style="fill:none; stroke:#d9e8eb; stroke-miterlimit:10;"/><path d="M2474.75,809.5c-16.47,41.45-102.8,75.67-207.41,86.31-105.18,10.69-225.93-.16-339.65-20.15-267.77-47.08-606.9-364.97-789.42-170.84-659.01,700.95-846.95,848.94-607.77,13.8,105.25-367.48-948.91,163.3-1304.51,297.15" style="fill:none; stroke:#d9e8eb; stroke-miterlimit:10;"/><path d="M2450.89,748.45c-16.45,44.34-104.62,81.1-211.32,93.54-107.18,12.49-230.02,2.84-345.24-16.57-272.31-45.88-616.06-371.21-799.47-170-666.47,731.14-862.51,879.25-594.77,18.22,118.54-381.2-956.99,162.15-1333.61,287.97" style="fill:none; stroke:#d9e8eb; stroke-miterlimit:10;"/><path d="M2427.02,687.39c-16.42,47.23-106.45,86.53-215.24,100.77-109.17,14.29-234.12,5.84-350.83-12.99-276.85-44.68-625.18-377.47-809.52-169.17-673.76,761.32-877.79,909.29-581.77,22.64,131.93-395.16-965.06,161-1362.7,278.79" style="fill:none; stroke:#d9e8eb; stroke-miterlimit:10;"/><path d="M2403.16,626.34c-16.4,50.12-108.31,91.75-219.15,107.99-111.2,15.88-238.21,8.85-356.41-9.41-281.4-43.47-634.25-383.75-819.57-168.34-680.88,791.48-892.79,939.12-568.77,27.05,145.42-409.34-973.14,159.85-1391.8,269.61" style="fill:none; stroke:#d9e8eb; stroke-miterlimit:10;"/><path d="M2379.3,565.29c-16.37,53.01-110.14,97.22-223.07,115.22-113.2,17.73-242.33,12.09-362-5.83-286.02-41.7-643.29-390.06-829.62-167.51-687.86,821.61-907.52,968.77-555.78,31.47,159-423.69-981.22,158.7-1420.89,260.43" style="fill:none; stroke:#d9e8eb; stroke-miterlimit:10;"/><path d="M2355.44,504.24c-16.35,55.9-111.97,102.7-226.98,122.45-115.2,19.57-246.41,15.02-367.59-2.26-290.53-40.66-652.3-396.39-839.67-166.67C226.49,1309.48-.79,1456.03,378.42,493.64c172.67-438.2-989.3,157.56-1449.99,251.25" style="fill:none; stroke:#d9e8eb; stroke-miterlimit:10;"/><path d="M2331.58,443.18c-16.32,58.79-113.8,108.17-230.9,129.68-117.19,21.42-250.49,17.96-373.18,1.32-295.05-39.61-661.27-402.75-849.71-165.84C176.36,1290.15-58.44,1436,348,448.64,534.42-4.21-649.37,605.05-1131.08,690.71" style="fill:none; stroke:#d9e8eb; stroke-miterlimit:10;"/><path d="M2307.72,382.13c-16.3,61.68-115.63,113.65-234.81,136.91-119.19,23.26-254.57,20.89-378.77,4.9-299.56-38.56-670.21-409.13-859.76-165.01C126.33,1270.79-115.86,1415.87,317.59,403.65c200.24-467.62-1005.45,155.26-1508.18,232.89" style="fill:none; stroke:#d9e8eb; stroke-miterlimit:10;"/></g><g><path d="M2665.64,1297.93c-16.67,18.33-88.23,32.18-176.08,28.48-89.28-3.76-193.18-24.02-294.94-48.78-231.39-56.29-531.46-315.81-709.02-177.49-591.06,460.41-848.89,572.44-711.75-21.53-57.14-266.5-884.29,172.49-1071.76,370.59" style="fill:none; stroke:#e6f4fb; stroke-miterlimit:10;"/><path d="M2641.78,1236.87c-16.64,21.22-90.05,37.62-180,35.71-91.26-1.94-197.27-21.05-300.53-45.2-235.93-55.18-541.14-321.91-719.07-176.66-600.53,490.23-855.65,604.74-698.75-17.11-39.98-279.91-892.36,171.34-1100.85,361.41" style="fill:none; stroke:#e6f4fb; stroke-miterlimit:10;"/><path d="M2617.92,1175.82c-16.62,24.11-91.86,43.06-183.91,42.93-93.24-.13-201.37-18.08-306.12-41.62-240.48-54.05-550.74-328.01-729.12-175.83-609.69,520.17-748.89,657.66-685.75-12.69,27.59-292.91-900.44,170.19-1129.95,352.23" style="fill:none; stroke:#e6f4fb; stroke-miterlimit:10;"/><path d="M2594.05,1114.77c-16.59,27-93.68,48.5-187.83,50.16-95.23,1.68-205.46-15.1-311.71-38.04-245.03-52.91-560.27-334.13-739.17-175-618.55,550.19-765.49,691.11-672.75-8.28,40.32-304.11-908.52,169.04-1159.04,343.05" style="fill:none; stroke:#e6f4fb; stroke-miterlimit:10;"/><path d="M2570.19,1053.71c-16.57,29.89-95.5,53.94-191.74,57.39-97.21,3.48-209.56-12.12-317.3-34.46-249.58-51.76-569.72-340.25-749.22-174.16-627.13,580.28-782.12,723.79-659.76-3.86,53.12-315.9-916.6,167.89-1188.14,333.87" style="fill:none; stroke:#e6f4fb; stroke-miterlimit:10;"/><path d="M2546.33,992.66c-16.54,32.78-97.32,59.38-195.66,64.62-99.2,5.29-213.65-9.13-322.88-30.88-254.13-50.6-579.1-346.4-759.27-173.33-635.44,610.41-798.65,755.83-646.76,.55,66-328.2-924.67,166.75-1217.23,324.69" style="fill:none; stroke:#e6f4fb; stroke-miterlimit:10;"/><path d="M2522.47,931.61c-16.52,35.67-99.14,64.81-199.58,71.85-101.19,7.09-217.75-6.14-328.47-27.3-258.67-49.44-588.42-352.57-769.32-172.5-643.52,640.58-815,787.3-633.76,4.97,78.98-340.93-932.75,165.6-1246.32,315.51" style="fill:none; stroke:#e6f4fb; stroke-miterlimit:10;"/><path d="M2498.61,870.55c-16.5,38.56-100.97,70.24-203.49,79.08-103.19,8.89-221.84-3.15-334.06-23.73-263.22-48.26-597.69-358.76-779.37-171.67-651.37,670.76-831.11,818.32-620.76,9.39,92.06-354.04-940.83,164.45-1275.42,306.33" style="fill:none; stroke:#e6f4fb; stroke-miterlimit:10;"/><path d="M2474.75,809.5c-16.47,41.45-102.8,75.67-207.41,86.31-105.18,10.69-225.93-.16-339.65-20.15-267.77-47.08-606.9-364.97-789.42-170.84-659.01,700.95-846.95,848.94-607.77,13.8,105.25-367.48-948.91,163.3-1304.51,297.15" style="fill:none; stroke:#e6f4fb; stroke-miterlimit:10;"/><path d="M2450.89,748.45c-16.45,44.34-104.62,81.1-211.32,93.54-107.18,12.49-230.02,2.84-345.24-16.57-272.31-45.88-616.06-371.21-799.47-170-666.47,731.14-862.51,879.25-594.77,18.22,118.54-381.2-956.99,162.15-1333.61,287.97" style="fill:none; stroke:#e6f4fb; stroke-miterlimit:10;"/><path d="M2427.02,687.39c-16.42,47.23-106.45,86.53-215.24,100.77-109.17,14.29-234.12,5.84-350.83-12.99-276.85-44.68-625.18-377.47-809.52-169.17-673.76,761.32-877.79,909.29-581.77,22.64,131.93-395.16-965.06,161-1362.7,278.79" style="fill:none; stroke:#e6f4fb; stroke-miterlimit:10;"/><path d="M2403.16,626.34c-16.4,50.12-108.31,91.75-219.15,107.99-111.2,15.88-238.21,8.85-356.41-9.41-281.4-43.47-634.25-383.75-819.57-168.34-680.88,791.48-892.79,939.12-568.77,27.05,145.42-409.34-973.14,159.85-1391.8,269.61" style="fill:none; stroke:#e6f4fb; stroke-miterlimit:10;"/><path d="M2379.3,565.29c-16.37,53.01-110.14,97.22-223.07,115.22-113.2,17.73-242.33,12.09-362-5.83-286.02-41.7-643.29-390.06-829.62-167.51-687.86,821.61-907.52,968.77-555.78,31.47,159-423.69-981.22,158.7-1420.89,260.43" style="fill:none; stroke:#e6f4fb; stroke-miterlimit:10;"/><path d="M2355.44,504.24c-16.35,55.9-111.97,102.7-226.98,122.45-115.2,19.57-246.41,15.02-367.59-2.26-290.53-40.66-652.3-396.39-839.67-166.67C226.49,1309.48-.79,1456.03,378.42,493.64c172.67-438.2-989.3,157.56-1449.99,251.25" style="fill:none; stroke:#e6f4fb; stroke-miterlimit:10;"/><path d="M2331.58,443.18c-16.32,58.79-113.8,108.17-230.9,129.68-117.19,21.42-250.49,17.96-373.18,1.32-295.05-39.61-661.27-402.75-849.71-165.84C176.36,1290.15-58.44,1436,348,448.64,534.42-4.21-649.37,605.05-1131.08,690.71" style="fill:none; stroke:#e6f4fb; stroke-miterlimit:10;"/><path d="M2307.72,382.13c-16.3,61.68-115.63,113.65-234.81,136.91-119.19,23.26-254.57,20.89-378.77,4.9-299.56-38.56-670.21-409.13-859.76-165.01C126.33,1270.79-115.86,1415.87,317.59,403.65c200.24-467.62-1005.45,155.26-1508.18,232.89" style="fill:none; stroke:#e6f4fb; stroke-miterlimit:10;"/></g></svg>