<?xml version="1.0" encoding="UTF-8"?><svg id="a" xmlns="http://www.w3.org/2000/svg" viewBox="0 0 2000 1000"><path d="M0,984.69s868.03-263.72,2000,0" style="fill:none; stroke:#d9e8eb; stroke-miterlimit:10;"/><path d="M-38.69,930.03c.93-3.54,58.01-22.13,158.61-42.91,59.77-12.32,133.93-24.81,219.44-34.78,142.47-16.61,312.8-25.21,510.18-29.32,96.22-1.9,197.79-3.22,303.79-1.04,268.85,4.67,567.16,30.91,883.64,93.47" style="fill:none; stroke:#d9e8eb; stroke-miterlimit:10;"/><path d="M-77.39,875.38c1.87-7.08,61.22-27.61,162.41-48.43,63.08-12.92,140.55-24.79,227.98-32.76,151.26-13.79,325.66-14.24,528.77-17.27,100.54-1.32,205.95-3.26,315.16-3.71,281.68-1.16,590.86,19.35,917.01,72.99" style="fill:none; stroke:#d9e8eb; stroke-miterlimit:10;"/><path d="M-116.08,820.72c2.8-10.61,64.42-33.08,166.2-53.95,66.39-13.52,147.19-24.69,236.53-30.74,160.09-10.85,338.51-3.26,547.36-5.22,104.87-.74,214.11-4.69,326.52-6.38,294.54-4.41,614.57,7.79,950.38,52.51" style="fill:none; stroke:#d9e8eb; stroke-miterlimit:10;"/><path d="M-154.78,766.06c3.74-14.15,67.63-38.56,169.99-59.46,69.69-14.12,153.85-24.51,245.07-28.72,168.94-7.8,351.37,7.71,565.95,6.83,109.19-.16,222.28-5.56,337.89-9.04,307.39-9.26,638.28-3.77,983.74,32.03" style="fill:none; stroke:#d9e8eb; stroke-miterlimit:10;"/><path d="M-193.47,711.41c4.67-17.69,70.84-44.04,173.78-64.98,73-14.72,160.51-24.27,253.62-26.71,177.8-4.65,364.23,18.69,584.54,18.88,113.52,.43,230.45-6.45,349.26-11.71,320.25-14.18,661.98-15.33,1017.11,11.55" style="fill:none; stroke:#d9e8eb; stroke-miterlimit:10;"/><path d="M-232.16,656.75c5.61-21.23,74.04-49.52,177.58-70.49,76.31-15.33,167.19-26.62,262.16-24.69,186.64,3.81,377.08,29.66,603.14,30.93,117.85,1.01,238.62-7.36,360.62-14.37,333.11-19.16,685.69-26.89,1050.47-8.93" style="fill:none; stroke:#d9e8eb; stroke-miterlimit:10;"/><path d="M-270.86,602.1c6.54-24.76,77.25-55,181.37-76.01,79.62-15.93,173.91-26.28,270.71-22.67,195.42,7.3,389.94,40.64,621.73,42.98,122.17,1.59,246.79-8.29,371.99-17.04,345.97-24.19,709.4-38.45,1083.84-29.41" style="fill:none; stroke:#d9e8eb; stroke-miterlimit:10;"/><path d="M-309.55,547.44c7.48-28.3,80.46-60.47,185.16-81.52,82.92-16.53,180.51-23.24,279.25-20.65,204.41,5.37,402.8,51.61,640.32,55.03,126.5,2.18,254.96-9.23,383.35-19.71,358.82-29.27,733.1-50.01,1117.21-49.89" style="fill:none; stroke:#d9e8eb; stroke-miterlimit:10;"/><path d="M-348.25,492.79c8.41-31.84,83.67-65.95,188.95-87.04,86.23-17.13,187.17-22.82,287.8-18.63,213.27,8.88,415.66,62.59,658.91,67.08,130.83,2.76,263.12-10.2,394.72-22.37,371.67-34.39,756.81-61.57,1150.57-70.37" style="fill:none; stroke:#d9e8eb; stroke-miterlimit:10;"/><path d="M-386.94,438.13c9.35-35.38,86.87-71.43,192.75-92.56,89.54-17.74,193.83-22.37,296.35-16.61,222.12,12.47,428.51,73.56,677.5,79.13,135.15,3.34,271.29-11.17,406.09-25.04,384.51-39.56,780.52-73.13,1183.94-90.85" style="fill:none; stroke:#d9e8eb; stroke-miterlimit:10;"/><path d="M-425.64,383.47c10.28-38.92,90.08-76.91,196.54-98.07,92.85-18.34,200.48-21.89,304.89-14.59,230.96,16.14,441.37,84.54,696.09,91.18,139.48,3.92,279.45-12.16,417.45-27.71,397.34-44.76,804.22-84.69,1217.31-111.33" style="fill:none; stroke:#d9e8eb; stroke-miterlimit:10;"/><path d="M-464.33,328.82c11.22-42.45,93.29-82.39,200.33-103.59,96.16-18.94,207.12-21.38,313.44-12.57,239.78,19.87,454.23,95.51,714.69,103.24,143.81,4.51,287.6-13.16,428.82-30.37,410.16-49.99,827.93-96.25,1250.67-131.81" style="fill:none; stroke:#d9e8eb; stroke-miterlimit:10;"/><path d="M-503.02,274.16c12.15-45.99,96.49-87.87,204.12-109.1,99.46-19.54,213.76-20.86,321.98-10.55,248.59,23.66,467.08,106.49,733.28,115.29,148.13,5.09,295.72-14.44,440.18-33.04,422.87-56.06,851.64-107.81,1284.04-152.29" style="fill:none; stroke:#d9e8eb; stroke-miterlimit:10;"/><path d="M-541.72,219.51c13.09-49.53,99.7-93.34,207.92-114.62C-231.03,84.74-113.41,84.58-3.27,96.35c257.38,27.52,479.94,117.46,751.87,127.34,152.46,5.67,303.89-15.38,451.55-35.71,435.71-61.12,875.35-119.37,1317.41-172.77" style="fill:none; stroke:#d9e8eb; stroke-miterlimit:10;"/><path d="M-580.41,164.85c14.02-53.07,102.91-98.82,211.71-120.13,106.08-20.75,227.01-19.75,339.07-6.52,266.16,31.43,492.8,128.44,770.46,139.39,156.78,6.26,312.05-16.31,462.91-38.37C1652.29,73.03,2102.8,8.29,2554.52-54.04" style="fill:none; stroke:#d9e8eb; stroke-miterlimit:10;"/><path d="M-619.11,110.2c14.96-56.61,106.12-104.3,215.5-125.65,109.39-21.35,233.63-19.17,347.62-4.5C218.94,15.44,449.67,119.46,733.07,131.49c161.11,6.84,320.21-17.25,474.28-41.04C1668.73,19.2,2130.11-52.04,2591.49-123.29" style="fill:none; stroke:#d9e8eb; stroke-miterlimit:10;"/></svg>