<?xml version="1.0" encoding="UTF-8"?><svg id="a" xmlns="http://www.w3.org/2000/svg" viewBox="0 0 2000 1000"><path d="M1803.33,210.4c-25.72-2.99-51.88-5.96-77.35-1.22-45.34,8.45-85.26,42.92-101.27,87.44-16,44.52-7.51,97.47,21.55,134.31,54.15,68.66,156.47,68.92,226.86,119.59,47.45,34.16,76.6,88.37,110.89,136.42,34.29,48.05,80.78,94.17,138.55,97.92,51.08,3.32,99.49-28.51,130.72-70.29,31.22-41.78,48.33-92.64,64.93-142.52,17.76-53.35,35.76-108.58,31.41-164.8-8.14-105.15-101.47-198.17-205.54-189.28-42.51,3.63-83.32,14.94-126.33,14.83-71.23-.18-143.72-14.18-214.42-22.4Z" style="fill:none; stroke:#fff; stroke-miterlimit:10;"/><path d="M1529.08,226.84c-3.69,14.22-4.04,29.15-7.39,43.52-5.63,24.08-17.19,43.46-25.11,63.21-14.66,36.87-21.02,79.38-9.46,119.37,14.12,48.82,49.66,88.09,95.28,117.05,34.98,22.21,76.02,36.98,116.2,51.17,36.77,12.99,73.24,25.85,107.46,41.09,81.92,36.44,151.98,75.89,215.51,117.3,52.35,34.12,107.96,76.85,178.33,81.75,11.53,.8,22.97,.68,34.22-.17,49.47-3.73,92.31-24.5,130.55-55.12,21.77-17.43,40.81-43.15,51.93-71.51,20.1-51.26,19.09-106.59,22.34-157.42,4.1-64.07,17.66-127.65,4.91-192.88-7.14-36.63-21.46-72.26-40.76-104.82-44.62-75.3-116.18-133.86-190.48-146.27-20.56-14.08-43.89-25.47-76.05-26.2-23.8-.54-48.61,6.79-72.6,8.4-23.75,1.57-47.59,1.13-71.59,.61-86.54-1.86-174.95-14.28-259.6-14.42-30.66-.11-61.43,.93-90.72,10.12-52.3,16.51-98.61,59.91-112.97,115.23Z" style="fill:none; stroke:#fff; stroke-miterlimit:10;"/><path d="M1433.46,157.05c-4.42,20.8-3.27,42.63-8.65,63.28-9.06,34.73-31.95,59.7-49.44,85.65-32.43,48.36-53.89,108.18-47.37,168.96,7.36,68.61,46.82,131.49,105.23,175.97,45.24,34.45,101.19,55.78,156.27,74.39,50.4,17.03,100.92,32.47,149.51,48.66,116.38,38.73,222.32,64.32,320.14,98.19,65.62,22.73,135.13,59.54,218.11,65.58,13.59,.99,27.08,1.34,40.39,1.28,58.56-.24,109.63-12.89,158.44-41.56,33.39-19.61,61.19-55.41,75.27-95.43,25.44-72.26,14.16-149.27,8.34-219.93-6.05-73.39-.44-146.73-21.6-220.96-11.82-41.64-30.33-82.39-53.1-120.52-52.42-87.84-128.02-161.34-203.85-192.37-24.48-29.58-54.76-54.83-102.75-59.04-34.69-3.05-71.45,9.42-106.45,11.08-34.88,1.62-69.85-.18-104.95-1.25-101.86-3.11-206.18-14.37-304.78-6.44-35.59,2.77-70.97,7.82-104.09,21.46-59.26,24.56-110.71,77.35-124.67,143.02Z" style="fill:none; stroke:#fff; stroke-miterlimit:10;"/><path d="M1337.83,87.26c-5.04,27.41-2.5,56.1-9.91,83.05-12.49,45.37-46.72,75.95-73.78,108.09-50.19,59.85-86.3,137-85.28,218.54,1.11,88.43,43.96,174.92,115.19,234.9,55.48,46.72,126.35,74.57,196.34,97.61,64.02,21.08,128.61,39.09,191.55,56.23,150.85,41.01,291.23,55.78,424.76,79.08,77.8,13.58,162.31,42.23,257.89,49.41,15.65,1.18,31.19,2,46.55,2.72,67.64,3.25,127.51-.45,186.33-28.01,45.36-21.26,81.57-67.68,98.62-119.34,30.79-93.26,10.49-191.98-5.67-282.44-14.78-82.74-18.55-165.8-48.11-249.04-16.51-46.65-39.2-92.52-65.44-136.22-60.23-100.38-139.86-188.83-217.21-238.47-28.4-45.08-65.64-84.14-129.45-91.89-45.58-5.53-94.28,12.04-140.3,13.76-46.02,1.68-92.11-1.45-138.3-3.11-117.19-4.22-237.41-14.46-349.96,1.53-40.53,5.64-80.52,14.71-117.46,32.81-66.21,32.61-122.42,94.87-136.38,170.8Z" style="fill:none; stroke:#fff; stroke-miterlimit:10;"/><path d="M1242.21,17.47c-5.58,34.03-1.74,69.58-11.17,102.81-15.92,56.01-61.48,92.19-98.11,130.53-67.95,71.34-118.5,165.88-123.19,268.13-4.97,108.33,40.94,218.53,125.15,293.83,65.59,59.12,151.52,93.37,236.4,120.83,77.65,25.12,156.29,45.71,233.6,63.8,185.32,43.3,367.55,9.59,529.39,59.97,86.2,26.84,189.48,24.91,297.66,33.24,17.7,1.36,35.3,2.66,52.72,4.17,76.73,6.73,145.5,12.44,214.22-14.46,57.46-22.5,101.95-79.94,121.96-143.25,36.13-114.27,7.63-234.95-19.68-344.94-22.91-92.3-36.65-184.88-74.62-277.12-21.2-51.66-48.07-102.64-77.77-151.93-68.03-112.92-151.71-216.31-230.58-284.58-32.33-60.58-76.52-113.44-156.15-124.73-56.48-8-117.12,14.67-174.15,16.44-57.15,1.74-114.38-2.69-171.66-4.97-132.51-5.29-268.64-14.55-395.14,9.51-45.46,8.52-90.06,21.6-130.83,44.15-73.17,40.67-133.96,112.41-148.08,198.59Z" style="fill:none; stroke:#fff; stroke-miterlimit:10;"/><path d="M1146.58-52.32c-6.06,40.66-.97,83.06-12.43,122.57-19.35,66.66-76.25,108.43-122.45,152.97-85.71,82.83-150.6,194.82-161.1,317.71-10.96,128.3,38.06,261.96,135.11,352.75,75.81,71.39,176.68,112.16,276.47,144.05,91.27,29.17,183.98,52.33,275.65,71.37,219.79,45.58,432.99,3.8,634.01,40.86,101.06,18.63,216.66,7.6,337.44,17.07,19.76,1.55,39.42,3.32,58.89,5.62,85.81,10.22,163.49,25.58,242.12-.91,69.6-23.45,122.33-92.2,145.3-167.16,41.48-135.27,5.28-278.18-33.68-407.45-30.77-102.08-54.75-203.95-101.12-305.2-25.89-56.67-56.94-112.77-90.11-167.63-75.84-125.45-177.53-232.69-243.94-330.68-47.28-69.77-87.41-142.74-182.85-157.57-67.39-10.47-139.96,17.3-208.01,19.12-68.29,1.8-136.64-3.91-205.01-6.84-147.84-6.33-299.87-14.64-440.31,17.49-50.4,11.4-99.61,28.49-144.2,55.49-80.13,48.72-145.41,129.96-159.78,226.37Z" style="fill:none; stroke:#fff; stroke-miterlimit:10;"/><path d="M1050.96-122.11c-6.5,47.29-.2,96.53-13.68,142.33-22.78,77.3-91.01,124.67-146.78,175.41-103.47,94.32-182.65,223.8-199,367.3-16.91,148.31,35.18,305.4,145.07,411.68,86.04,83.67,201.85,130.96,316.54,167.27,104.9,33.22,211.66,58.95,317.69,78.94,254.26,47.87,499.7,.86,738.63,21.75,115.61,10.11,243.83-9.72,377.22,.9,21.82,1.74,43.53,3.97,65.05,7.07,94.9,13.7,181.44,38.87,270.01,12.64,81.75-24.21,142.7-104.46,168.65-191.07,46.82-156.27,3.27-321.62-47.69-469.96-38.48-112.01-72.86-223.02-127.63-333.28-30.58-61.69-65.81-122.9-102.45-183.33-83.64-137.99-189-261.99-257.3-376.78-51.14-85.94-98.3-172.03-209.56-190.41-78.29-12.94-162.8,19.92-241.86,21.8-79.42,1.85-158.91-5.11-238.37-8.7-163.17-7.36-331.1-14.73-485.49,25.46-55.33,14.27-109.15,35.38-157.57,66.83-87.08,56.77-156.82,147.5-171.48,254.16Z" style="fill:none; stroke:#fff; stroke-miterlimit:10;"/><path d="M955.33-191.9c-6.92,53.92,.57,110.01-14.94,162.09-26.21,87.95-105.78,140.91-171.12,197.85-121.23,105.81-214.66,252.8-236.91,416.89-22.83,168.35,32.29,348.83,155.03,470.61,96.26,95.94,227.01,149.75,356.61,190.49,118.53,37.26,239.35,65.57,359.74,86.51,288.73,50.15,569.83,37.4,843.26,2.63,128.85-16.38,271.01-27.03,417-15.27,23.87,1.92,47.64,4.63,71.22,8.52,103.98,17.19,199.36,52.25,297.9,26.19,93.89-24.83,163.08-116.73,191.99-214.99,52.17-177.28,1.49-365.25-61.69-532.46-46.12-122.07-90.96-242.1-154.14-361.36-35.27-66.7-74.68-133.03-114.79-199.04-91.45-150.53-200.12-291-270.67-422.88-54.63-102.12-109.23-201.11-236.26-223.26-89.22-15.25-185.63,22.55-275.71,24.48-90.55,1.91-181.17-6.31-271.72-10.56-178.5-8.38-362.33-14.82-530.67,33.44-60.27,17.15-118.7,42.27-170.94,78.17-94.04,64.83-168.19,165.04-183.19,281.95Z" style="fill:none; stroke:#fff; stroke-miterlimit:10;"/><path d="M859.71-261.69c-7.31,60.55,1.34,123.48-16.2,181.85-29.64,98.59-120.54,157.15-195.45,220.29-138.99,117.3-246.66,281.83-274.82,466.47-28.74,188.41,29.41,392.27,164.99,529.53,106.48,108.21,252.18,168.55,396.68,213.71,132.15,41.31,267.03,72.19,401.79,94.08,323.2,52.44,640.42,34.27,947.88-16.48,142.2-23.47,298.18-44.34,456.78-31.44,25.93,2.11,51.75,5.29,77.38,9.97,113.07,20.67,217.23,65.69,325.79,39.74s183.46-128.99,215.33-238.9c57.51-198.28-.14-409-75.7-594.97-53.72-132.23-109.06-261.17-180.64-389.44-39.96-71.71-83.55-143.16-127.13-214.74-99.25-163.07-211.02-319.77-284.03-468.98-57.87-118.25-120.12-230.41-262.96-256.1-100.12-17.73-208.47,25.17-309.56,27.16-101.69,1.97-203.44-7.5-305.08-12.42-193.83-9.39-393.56-14.91-575.85,41.42-65.2,20.03-128.24,49.16-184.31,89.51-100.99,72.88-179.54,182.57-194.89,309.73Z" style="fill:none; stroke:#fff; stroke-miterlimit:10;"/><path d="M764.08-331.48c-7.68,67.18,2.1,136.96-17.46,201.61-33.07,109.23-135.31,173.4-219.79,242.74C370.08,241.65,248.19,423.72,214.1,628.92c-34.64,208.49,26.53,435.7,174.95,588.46,116.71,120.49,277.34,187.34,436.75,236.93,145.78,45.35,294.72,78.81,443.84,101.65,357.67,54.72,711.23,31.32,1052.51-35.59,155.69-30.53,325.36-61.66,496.56-47.61,27.99,2.3,55.86,5.95,83.55,11.42,122.15,24.16,235.08,79.18,353.68,53.29,118.15-25.79,203.84-141.25,238.68-262.81,62.86-219.28-1.66-452.87-89.7-657.47-61.3-142.46-127.17-280.25-207.15-417.52-44.65-76.72-92.42-153.28-139.46-230.44-107.06-175.61-221.76-348.36-297.4-515.08-60.95-134.35-131.01-259.71-289.66-288.94-111.03-20.2-231.31,27.8-343.41,29.84-112.82,2.03-225.7-8.68-338.43-14.28-209.16-10.39-424.79-15.01-621.03,49.4-70.14,22.9-137.79,56.05-197.68,100.85-107.95,80.93-190.87,200.1-206.59,337.52Z" style="fill:none; stroke:#fff; stroke-miterlimit:10;"/><path d="M668.45-401.27c-8.04,73.81,2.87,150.44-18.72,221.37C613.23-60.02,499.66,9.74,405.61,85.27,231.1,225.55,95,425.18,54.97,650.92c-40.53,228.57,23.65,479.14,184.91,647.39,126.93,132.76,302.51,206.14,476.82,260.16,159.4,49.4,322.4,85.43,485.88,109.22,392.14,57,782.23,28.5,1157.13-54.7,169.28-37.57,352.53-78.97,536.33-63.78,30.04,2.48,59.97,6.61,89.71,12.87,131.24,27.65,252.89,92.7,381.57,66.85,130.26-26.18,224.22-153.52,262.02-286.72,68.2-240.29-3.1-496.82-103.71-719.98-68.87-152.75-145.27-299.32-233.66-445.6-49.34-81.73-101.29-163.41-151.8-246.15-114.86-188.15-232.41-376.79-310.76-561.18-63.92-150.41-141.89-289.02-316.36-321.78-121.93-22.68-254.15,30.43-377.26,32.52-123.95,2.09-247.97-9.86-371.79-16.14-224.49-11.39-456.02-15.1-666.21,57.37-75.08,25.78-147.33,62.94-211.05,112.19-114.91,88.99-202.2,217.62-218.29,365.3Z" style="fill:none; stroke:#fff; stroke-miterlimit:10;"/><path d="M572.83-471.06c-8.4,80.44,3.64,163.91-19.98,241.13C512.91-99.41,388.01-24.05,284.39,57.68,92.12,209.45-58.19,426.65-104.16,672.91c-46.42,248.67,20.77,522.58,194.87,706.32,137.15,145.03,327.67,224.93,516.88,283.38,173.03,53.45,350.09,92.05,527.93,116.79,426.6,59.29,853.36,25.76,1261.75-73.81,182.95-44.61,379.7-96.28,576.11-79.95,32.1,2.67,64.09,7.27,95.88,14.31,140.32,31.13,270.69,106.25,409.46,80.4,142.35-26.52,244.6-165.78,285.37-310.64,73.55-261.29-4.48-540.85-117.72-782.49-76.43-163.09-163.37-318.4-260.16-473.68-54.02-86.75-110.16-173.54-164.14-261.85-122.67-200.69-242.98-405.11-324.13-607.29-66.81-166.44-152.78-318.32-343.06-354.62-132.84-25.15-276.99,33.05-411.12,35.2-135.09,2.14-270.25-10.78-405.14-18-239.85-11.95-487.25-15.19-711.39,65.35-80.01,28.66-156.88,69.83-224.42,123.53-121.86,97.04-213.51,235.14-230,393.09Z" style="fill:none; stroke:#fff; stroke-miterlimit:10;"/><path d="M477.2-540.85c-8.74,87.07,4.41,177.39-21.24,260.89C412.6-138.8,276.36-57.84,163.17,30.1-46.86,193.35-211.37,428.12-263.29,694.91c-52.3,268.77,17.89,566.01,204.83,765.24,147.37,157.31,352.84,243.73,556.95,306.6,186.65,57.49,377.77,98.67,569.98,124.36,461.07,61.57,924.6,23.07,1366.38-92.93,196.69-51.64,406.88-113.6,615.89-96.12,34.16,2.86,68.2,7.93,102.04,15.76,149.41,34.62,288.46,119.81,437.35,93.95s264.97-178.04,308.71-334.55c78.89-282.29-5.81-584.93-131.72-844.99-83.98-173.46-181.47-337.47-286.67-501.76-58.71-91.76-119.03-183.67-176.48-277.55-130.47-213.23-253.5-433.34-337.49-653.39-69.64-182.44-163.67-347.62-369.77-387.47-143.74-27.63-299.82,35.68-444.97,37.88-146.22,2.2-292.52-11.99-438.5-19.86-255.17-13.02-518.48-15.28-756.56,73.33-84.95,31.54-166.42,76.72-237.79,134.87-128.82,105.09-224.82,252.66-241.7,420.88Z" style="fill:none; stroke:#fff; stroke-miterlimit:10;"/><path d="M381.58-610.64c-9.07,93.7,5.18,190.86-22.5,280.65C312.28-178.18,164.71-91.63,41.95,2.51-185.84,177.25-364.55,429.6-422.42,716.91c-58.19,288.88,15.01,609.45,214.79,824.17,157.6,169.58,378,262.52,597.02,329.82,200.28,61.54,405.46,105.29,612.02,131.92,495.54,63.86,995.93,20.41,1471-112.04,210.47-58.68,434.05-130.91,655.67-112.29,36.21,3.04,72.31,8.59,108.21,17.21,158.49,38.1,306.22,133.39,465.25,107.5,166.53-27.11,285.35-190.3,332.05-358.46,84.24-303.3-7.1-629.05-145.73-907.5-91.54-183.86-199.58-356.54-313.18-529.84-63.4-96.77-127.9-193.8-188.82-293.26-138.28-225.77-263.98-461.49-350.86-699.49-72.43-198.41-174.56-376.93-396.47-420.31-154.64-30.11-322.66,38.31-478.82,40.56-157.36,2.26-314.78-13.19-471.85-21.72-270.5-14.08-549.71-15.37-801.74,81.3-89.88,34.41-175.97,83.61-251.16,146.21-135.77,113.15-236.12,270.18-253.4,448.66Z" style="fill:none; stroke:#fff; stroke-miterlimit:10;"/><path d="M285.95-680.43c-9.4,100.33,5.95,204.34-23.75,300.41C211.97-217.57,53.06-125.42-79.27-25.08c-245.56,186.23-438.46,456.16-502.28,763.99-64.07,309,12.13,652.88,224.75,883.1,167.82,181.85,403.17,281.32,637.09,353.04,213.9,65.58,433.14,111.91,654.07,139.49,530.01,66.14,1067.32,17.79,1575.63-131.15,224.29-65.72,461.23-148.22,695.45-128.46,38.27,3.23,76.42,9.24,114.37,18.66,167.58,41.59,323.96,146.98,493.14,121.05,178.6-27.37,305.73-202.57,355.4-382.37,89.58-324.3-8.37-673.22-159.73-970.01-99.09-194.29-217.68-375.62-339.68-557.92-68.09-101.78-136.76-203.92-201.15-308.96-146.08-238.31-274.43-489.58-364.22-745.59-75.18-214.35-185.45-406.23-423.17-453.15-165.55-32.58-345.5,40.93-512.67,43.24-168.49,2.32-337.05-14.4-505.21-23.59-285.83-15.15-580.94-15.46-846.92,89.28-94.82,37.29-185.51,90.5-264.53,157.55-142.73,121.2-247.42,287.69-265.1,476.45Z" style="fill:none; stroke:#fff; stroke-miterlimit:10;"/><path d="M190.33-750.22c-9.72,106.96,6.71,217.82-25.01,320.17C111.65-256.95-58.59-159.2-200.49-52.67c-263.32,197.72-469.94,485.33-540.19,813.57-69.48,329.21,9.24,696.32,234.71,942.02,178.04,194.13,428.33,300.11,677.16,376.26,227.53,69.63,460.82,118.53,696.12,147.06,564.48,68.43,1138.77,15.17,1680.25-150.26,238.15-72.76,488.4-165.54,735.23-144.63,40.33,3.42,80.53,9.9,120.54,20.11,176.66,45.08,341.7,160.57,521.03,134.6,190.67-27.61,326.11-214.83,378.74-406.28,94.93-345.3-9.61-717.41-173.74-1032.51-106.64-204.74-235.78-394.69-366.19-586-72.78-106.79-145.63-214.05-213.49-324.66-153.89-250.85-284.85-517.62-377.58-791.69-77.92-230.28-196.34-435.53-449.87-485.99-176.45-35.06-368.34,43.56-546.52,45.92-179.62,2.38-359.32-15.61-538.56-25.45-301.16-16.22-612.17-15.55-892.1,97.26-99.75,40.17-195.06,97.4-277.9,168.89-149.69,129.25-258.71,305.2-276.81,504.23Z" style="fill:none; stroke:#fff; stroke-miterlimit:10;"/><path d="M94.7-820.01c-9.91,113.6,7.48,231.29-26.27,339.93C11.34-296.34-170.24-192.99-321.71-80.26c-281.08,209.21-502.12,514.36-578.1,863.16-75.59,349.28,6.36,739.76,244.67,1000.95,188.26,206.4,453.5,318.91,717.23,399.48,241.15,73.68,488.51,125.16,738.16,154.63,598.95,70.71,1210.27,12.57,1784.88-169.37,252.03-79.8,515.58-182.85,775-160.8,42.38,3.6,84.64,10.56,126.71,21.56,185.75,48.56,359.42,174.17,548.92,148.15,202.73-27.84,346.49-227.09,402.08-430.2,100.27-366.31-10.84-761.64-187.74-1095.02-114.2-215.2-253.89-413.77-392.7-614.08-77.47-111.8-154.5-224.18-225.83-340.37-161.69-263.39-295.26-545.61-390.95-837.79-80.63-246.19-207.23-464.84-476.57-518.84-187.36-37.53-391.17,46.19-580.38,48.6-190.76,2.43-381.58-16.82-571.92-27.31-316.49-17.29-643.4-15.64-937.28,105.24-104.69,43.04-204.61,104.29-291.27,180.23-156.64,137.31-269.76,322.73-288.51,532.02Z" style="fill:none; stroke:#fff; stroke-miterlimit:10;"/><path d="M1586.38-1754.4c-331.82-18.36-674.63-15.74-982.46,113.21C296.09-1512.23,28.46-1230.83-.92-889.8c-10.36,120.22,8.25,244.77-27.53,359.69C-88.98-335.72-281.89-226.78-442.93-107.85-741.76,112.85-977.23,435.54-1058.94,804.9c-81.7,369.36,3.48,783.19,254.63,1059.88,198.49,218.67,478.66,337.7,757.3,422.7,866.04,264.19,1808.73,254.91,2669.71-26.28,309.38-101.04,633.49-237.89,947.65-153.97,194.83,52.05,377.13,187.78,576.81,161.7,214.79-28.05,366.86-239.36,425.43-454.11,105.62-387.31-12.05-805.89-201.75-1157.52C4181.14,305.66,3922.29-.99,3713.47-340.94c-169.5-275.93-305.65-573.57-404.31-883.9-83.33-262.09-218.12-494.14-503.27-551.68-198.26-40.01-414.01,48.81-614.23,51.28-201.89,2.49-403.85-18.02-605.28-29.17Z" style="fill:none; stroke:#fff; stroke-miterlimit:10;"/></svg>