<?xml version="1.0" encoding="UTF-8"?><svg id="a" xmlns="http://www.w3.org/2000/svg" viewBox="0 0 1920 1080"><g style="opacity:.13;"><path d="M1126.83,260.09c-97.17,59.43-151.44,181.04-133.16,290.73,11.53,69.15,39.15,131.69,64.28,181.02,6.08,11.94,11.79,23.11,19.33,34.33,7.59,11.24,17.47,22.42,30.59,32.42,15.03,11.46,35.26,17.91,54.97,22.39,108.17,24.59,221.43,28.78,328.89,9.52,26.18-4.7,52.45-10.9,76.46-23.19,56.83-29.33,98.39-82.86,120.53-140.31,22.37-57.8,25.95-120.06,18.72-183.08-5.68-49.49-17.91-93.18-39.43-130.01-20.16-34.55-48.33-62.21-79.86-85.34-44.19-32.43-97.28-49.75-154.96-58.51-50.39-7.67-102.92-7.65-153.69-.64-55.12,7.75-108.58,23.86-152.68,50.69Z" style="fill:none; stroke:#fff; stroke-miterlimit:10; stroke-width:1.1px;"/><path d="M1105.95,175.55c-112.75,67.9-170.94,207.72-162.58,334.96,6.05,92.11,27.44,179.69,35.52,251.63,1.97,17.52,2.82,34.05,7.05,51.33,4.27,17.3,12.68,35.52,27.83,51.17,18.91,19.53,48.38,28.69,76.5,34.88,154.15,33.95,314.2,43.18,469.01,24.88,37.69-4.46,75.93-10.77,110.2-28.07,73.66-37.48,122.2-112.59,141.87-189.55,19.86-77.27,12.88-157.26-2.09-237.62-10.71-57.49-26.37-110.3-53.17-155.63-24.47-41.46-58.41-75.14-94.87-105.02-52.23-42.8-114.53-65.07-183.77-78.7-60.55-11.94-123.69-14.89-185.37-9.3-66.32,6.21-131.83,22.57-186.12,55.05Z" style="fill:none; stroke:#fff; stroke-miterlimit:10; stroke-width:1.1px;"/><path d="M1085.07,91.02c-128.33,76.37-191.65,234.5-192.01,379.18-.28,115.13,15.64,227.68,6.77,322.24-2.17,23.1-6.16,44.98-5.24,68.33,.95,23.36,7.76,48.71,25.07,69.92,22.63,27.72,61.5,39.47,98.02,47.37,200.14,43.31,406.97,57.58,609.12,40.24,49.19-4.23,99.41-10.64,143.93-32.95,90.49-45.62,146.02-142.32,163.2-238.79,17.35-96.73,.17-194.52-22.89-292.16-15.48-65.53-34.82-127.42-66.91-181.24-28.79-48.37-68.46-88.11-109.88-124.7-60.24-53.22-131.79-80.39-212.57-98.89-70.71-16.21-144.46-22.14-217.05-17.96-77.52,4.68-155.08,21.28-219.55,59.41Z" style="fill:none; stroke:#fff; stroke-miterlimit:10; stroke-width:1.1px;"/><path d="M1043.31-78.05c-159.48,93.32-234.63,287.74-250.86,467.63-14.52,160.94-8.22,323.53-50.75,463.47-10.5,34.24-24.1,66.86-29.82,102.32-5.69,35.48-2.23,75.12,19.56,107.41,29.82,44.2,87.75,61.03,141.06,72.35,292.12,62.02,592.51,86.38,889.35,70.97,72.21-3.76,146.37-10.39,211.4-42.71,124.15-61.92,193.65-201.79,205.87-337.28,12.34-135.66-24.65-269.25-64.51-401.23-24.69-81.75-51.73-161.66-94.39-232.46-37.42-62.19-88.54-114.09-139.91-164.05-76.2-74.12-166.3-111.04-270.18-139.27-91.02-24.75-185.99-36.63-280.42-35.29-99.92,1.61-201.58,18.69-286.43,68.13Z" style="fill:none; stroke:#fff; stroke-miterlimit:10; stroke-width:1.1px;"/><path d="M1022.43-162.58c-175.06,101.79-256.49,314.18-280.28,511.86-22.11,183.7-20.02,371.47-79.5,534.08-14.64,39.8-33.08,77.8-42.1,119.32-9.01,41.53-7.26,88.33,16.81,126.16,33.36,52.44,100.87,71.81,162.58,84.84,338.11,71.38,685.28,100.78,1029.47,86.33,83.72-3.52,169.85-10.26,245.14-47.59,140.98-70.06,217.47-231.53,227.21-386.52,9.83-155.12-36.89-306.7-85.32-455.76-29.21-89.9-60.19-178.78-108.12-258.07-41.74-69.1-98.47-127.18-154.92-183.73-84.02-84.72-183.55-126.36-298.99-159.46-101.18-29.03-206.76-43.88-312.1-43.95-111.12,.08-224.83,17.4-319.87,72.49Z" style="fill:none; stroke:#fff; stroke-miterlimit:10; stroke-width:1.1px;"/><path d="M1001.55-247.11c-190.64,110.27-278.47,340.53-309.71,556.08-29.91,206.37-31.82,419.4-108.26,604.69-18.77,45.37-42.05,88.74-54.39,136.32-12.33,47.59-12.3,101.54,14.05,144.91,36.87,60.69,113.99,82.6,184.1,97.33,384.1,80.74,778.06,115.18,1169.58,101.69,95.23-3.28,193.33-10.14,278.88-52.47,157.81-78.21,241.28-261.26,248.54-435.76,7.32-174.59-49.05-344.19-106.12-510.3-33.7-98.08-68.65-195.91-121.86-283.69-46.05-76.01-108.51-140.15-169.93-203.41-92.01-95.15-200.81-141.68-327.79-179.65-111.33-33.3-227.53-51.12-343.78-52.61-122.32-1.46-248.08,16.11-353.31,76.85Z" style="fill:none; stroke:#fff; stroke-miterlimit:10; stroke-width:1.1px;"/><path d="M1379.98-501.75c-144.72-4.52-294.58,13.53-420.18,85.57C738.01-288.96,637.14-23.18,591.24,228.35c-45.91,251.53-55.41,515.28-165.77,745.92-27.04,56.51-59.99,110.61-78.97,170.32-18.97,59.71-22.42,127.94,8.54,182.41,43.87,77.19,140.24,104.16,227.14,122.31,476.07,99.45,963.6,143.98,1449.81,132.42,118.24-2.81,240.29-9.89,346.35-62.23,191.47-94.5,288.91-320.73,291.22-534.24,2.3-213.51-73.23-419.26-147.74-619.37-42.62-114.49-85.56-230.15-149.34-334.91-54.69-89.83-128.6-166.1-199.96-242.76-107.99-116.01-235.32-172.33-385.4-220.03-131.64-41.84-269.06-65.62-407.14-69.93Z" style="fill:none; stroke:#fff; stroke-miterlimit:10; stroke-width:1.1px;"/></g><g style="opacity:.13;"><path d="M563.65-390.34c-83.29,20.49-168.37,41.73-240.18,88.65-71.81,46.91-129.07,125.19-127.31,210.95,1.61,78.05,49.7,146.08,87.56,214.35,96.39,173.82,132.78,387.97,64,574.45-44.83,121.54-130.05,223.59-188.6,339.16-58.55,115.56-87.45,261.64-17.39,370.61" style="fill:none; stroke:#fff; stroke-miterlimit:10;"/><path d="M298.02-413.99c-50.03,25.74-103.24,54.62-148.36,105.18-45.14,50.53-81.2,127.18-74,210.54,6.56,75.91,47.07,144.78,77.08,213.98,2.93,6.75,5.76,13.54,8.5,20.37,22.07,55.18,38.04,113.27,45.52,171.72,10.51,81.53,4.9,162.99-12.76,243.42-9.06,41.3-21.31,82.4-37.13,122.66-46.59,118.54-120.63,223.85-169.68,340.23-49.05,116.33-70.83,256.95-11.17,367.88" style="fill:none; stroke:#fff; stroke-miterlimit:10;"/><path d="M165.2-425.82c-33.39,28.37-70.68,61.06-102.45,113.45C30.94-260.03,5.49-184.2,15.4-102.03,24.44-27.19,61.16,42.1,87.24,111.77c2.54,6.79,4.99,13.62,7.34,20.49,18.95,55.48,31.68,113.54,35.3,171.32,5.13,80.54-6.88,159.41-28.11,237.91-10.89,40.3-24.22,80.59-40.33,120.31-47.47,117.04-115.91,223.98-160.23,340.77-44.31,116.71-62.53,254.6-8.06,366.52" style="fill:none; stroke:#fff; stroke-miterlimit:10;"/><path d="M32.39-437.65c-16.76,31-38.11,67.5-56.54,121.71-18.48,54.15-33.33,129.16-20.7,210.14C-33.33-32.03-.41,37.69,21.74,107.82c2.16,6.83,4.22,13.7,6.19,20.6,15.83,55.77,25.33,113.8,25.08,170.92-.25,79.55-18.66,155.83-43.47,232.4-12.71,39.29-27.14,78.79-43.53,117.97-48.35,115.54-111.2,224.11-150.77,341.3-39.56,117.1-54.22,252.25-4.96,365.15" style="fill:none; stroke:#fff; stroke-miterlimit:10;"/></g></svg>