<?xml version="1.0" encoding="utf-8"?>
<!-- Generator: Adobe Illustrator 28.0.0, SVG Export Plug-In . SVG Version: 6.00 Build 0)  -->
<svg version="1.1" xmlns="http://www.w3.org/2000/svg" xmlns:xlink="http://www.w3.org/1999/xlink" x="0px" y="0px"
	 viewBox="0 0 1920 1080" style="enable-background:new 0 0 1920 1080;" xml:space="preserve">
<style type="text/css">
	.st0{display:none;}
	.st1{display:inline;fill:#0F172A;stroke:#000000;stroke-width:2;stroke-miterlimit:10;}
	.st2{fill:#FFFFFF;}
	.st3{display:none;opacity:0.13;}
	.st4{display:inline;fill:none;stroke:#FFFFFF;stroke-width:2;stroke-miterlimit:10;}
</style>
<g id="Layer_2" class="st0">
	<rect class="st1" width="1920" height="1080"/>
</g>
<g id="Layer_1">
	<g>
		<g>
			<path class="st2" d="M1449.1-1791.6c92,0,189.6,5.2,280.9,67.1c104.8,71,200.3,174.7,292.6,274.9
				c38.2,41.5,74.3,80.7,111.1,117.7l240.7,242.5l240.7,242.5c135.5,136.5,275.6,277.7,387.6,440.9
				c86.8,126.5,156.4,267.2,206.6,417.9c47.9,143.7,78,295.4,89.4,451c11.1,150.8,4.6,302.7-19.3,451.5
				c-23.7,147.4-64,288.5-119.7,419.4c-53.9,126.6-122.5,249.1-203.9,364.3c-76.6,108.4-166.4,212.9-267,310.7
				c-94.1,91.5-199.9,179.3-314.5,261c-106.4,75.9-222.9,148.4-346.2,215.3c-247.6,134.4-511.2,243.5-783.4,324
				c-96.9,28.7-224.7,61.6-354.9,61.6c-49,0-96.3-4.7-140.6-14.1c-48.2-10.2-94.6-26.1-138-47.5c-51.1-25.2-100.2-59.1-146-100.8
				c-43.1-39.4-83.5-85.9-120-138.2c-68.3-98-122.2-215.2-155.7-338.8c-26.5-97.5-43.8-204.9-52.9-328.4
				c-8.1-110-9.1-221.7-10.1-329.8c-0.2-19.4-0.4-39.5-0.6-59.2c-2.6-234.8-12.7-483.5-102.8-716.6
				C-19.4,687.6-79.2,583.1-137.1,482c-53.8-94-109.4-191.1-150.9-292.3c-33.1-80.6-57.8-165.6-73.4-252.9
				c-15.1-84.1-21.8-170.6-20.1-257.1c1.7-84.3,11.5-168.6,29-250.8c17.3-81,42.2-159.7,73.9-233.8
				c60.5-141.4,146.8-273.5,256.5-392.4c100.6-109.1,220.8-207.1,357-291.4c315.1-194.8,686.7-299.5,1074.5-302.8l2.1,0
				C1423.8-1791.5,1436.6-1791.6,1449.1-1791.6 M1449.1-1793.6c-13.2,0-26.5,0.1-39.7,0.2c-386,3.3-758.1,106.9-1075.5,303.1
				C73-1329.1-153.8-1101.9-280.5-805.6c-126.7,296.2-144.9,665.9-9.4,996.1c86.3,210.1,229.2,396,311.1,607.6
				c89.4,231.2,100,477.4,102.7,715.9c2.7,238.5-0.8,480.5,63.7,717.9s210.7,474.8,422.7,579.1c90.9,44.7,185.2,61.8,279.5,61.8
				c121.1,0,242-28.1,355.4-61.7c272.9-80.8,535.6-189.4,783.8-324.2c476.1-258.5,909.5-628.5,1132.5-1152.3
				c223-523.8,200.6-1220.4-157.2-1741.8c-111.6-162.7-250.3-302.6-387.8-441.2c-160.5-161.7-320.9-323.4-481.4-485.1
				c-127.2-128.2-256.4-292.8-404-392.8C1641-1787.3,1545.5-1793.6,1449.1-1793.6L1449.1-1793.6z"/>
		</g>
		<g>
			<path class="st2" d="M1456.4-1613c2.8,0,5.7,0,8.6,0c47.6,0.2,101.5,0.4,153,9.1c27,4.6,51.5,11.1,74.7,19.8
				c26,9.8,49.9,22.2,72.9,37.9c94.8,64.3,181.1,157.9,264.6,248.4c34.1,37,66.4,71.9,99.2,105c142.2,143.4,287.9,290.7,433,437.7
				c121.3,123,246.8,250.1,347.8,398.2c77.9,114.2,140.3,241,185.4,376.8c43,129.5,70.1,266.2,80.4,406.3
				c10,135.8,4.2,272.7-17.3,406.7c-21.3,132.8-57.5,259.9-107.6,377.8c-40,95-90.1,187.2-153.1,281.6
				c-56,83.9-119.8,166-189.8,243.9c-66.8,74.3-140.8,146.7-219.9,215.2c-147.1,127.2-316.4,244.7-503.2,349.2
				c-219.8,122.9-458.7,224.2-710.1,300.9c-60.1,18.4-113.1,31.8-161.8,41.2c-60.1,11.5-114.7,17.2-166.9,17.2
				c-43.1,0-84.9-4-124.2-11.9c-42.5-8.5-83.6-22-122.3-39.9c-47.5-22.1-93.4-51.9-136.4-88.8c-40.6-34.9-78.9-76.2-113.8-122.8
				c-65.5-87.4-118.4-192.8-153-304.5c-28.6-92.3-48.4-194.5-60.6-312.5c-10.9-105.3-14.9-213-18.7-317.1
				c-0.4-9.5-0.7-19.1-1.1-28.6c-9-232.1-23.5-457.9-101.3-668.8C78,664.6,27,568.7-22.4,476c-47.9-90-97.4-183.1-133.4-279.2
				c-27.9-74.5-48.1-152.7-60.2-232.5c-11.6-77.1-15.7-156.2-12.1-235c3.5-76.9,14.4-153.7,32.2-228.3
				c17.7-73.7,42.2-145.2,72.8-212.4c58.5-128.3,140.5-248.1,243.8-356c94.5-98.8,206.7-187.8,333.7-264.7
				c149.8-90.1,310.5-159.8,477.7-207.4C1103.7-1588.3,1280.1-1613,1456.4-1613 M1456.4-1615c-359.3,0-705.8,102.5-1003,281.1
				C210.8-1187-2.2-981.3-124.8-712.3c-122.7,269-147,604.9-32.8,909.7c73,194.9,197.7,370.2,270.8,568.3
				c79.9,216.5,92.6,446.5,101.2,668.2c8.3,221.2,13.8,443.5,80.5,658.8c66.7,215.3,207.3,426,404.3,517.4
				c80.7,37.4,164.1,52,247.3,52c112.2,0,224.2-26.4,329.3-58.4c247.6-75.6,486.2-175.6,710.5-301.1
				c354.8-198.5,683.5-463.6,913.6-808.9c58.6-88,110.9-181.4,153.2-282C3253.7,739.4,3232.9,112.6,2911.9-358
				c-100.1-146.8-224.5-273.2-348-398.5c-144.1-146.1-288.5-292-433-437.7c-114.7-115.6-231.1-263.4-364.1-353.6
				c-96.4-65.6-198.9-66.8-301.8-67.2C1462.1-1615,1459.2-1615,1456.4-1615L1456.4-1615z"/>
		</g>
		<g>
			<path class="st2" d="M1489.4-1434.9c10.3,0,20.8,0.1,31.2,0.3c50.8,0.9,96.6,2.4,142.7,11.1c52.4,9.8,97.5,28.1,138,55.8
				c84.7,57.6,162,141.1,236.7,221.9c30,32.5,58.4,63.2,87.3,92.3c126.5,127.7,255.9,259,384.6,390.4
				c50.6,51.6,107.9,110.1,161.9,170.7c58.5,65.6,106.3,126,146.1,184.8c69,101.9,124.2,214.8,164.1,335.6
				c38,115.2,61.9,236.8,71.1,361.5c8.8,120.8,3.7,242.5-15.2,361.8c-18.8,118.1-50.7,231.4-94.9,336.6
				c-36.5,87.1-84.2,173.1-145.8,263.1c-53.2,77.7-113.9,154.1-180.4,227.2c-62.6,68.8-132.3,136.6-207.1,201.6
				c-69.7,60.6-146.1,120.7-227,178.5c-74.4,53.2-155.2,106.4-240.1,158c-94.7,57.6-195.9,109.1-309.3,157.6
				c-100,42.8-207.1,82.1-327.5,120.2c-54.9,17.4-103.7,30.2-149.1,39.1c-55.2,10.9-105.5,16.1-153.9,16.1
				c-37.2,0-73.5-3.3-107.7-9.7c-36.8-7-72.5-17.8-106.2-32.4c-44-18.9-86.7-44.8-127-76.8c-38.2-30.4-74.4-66.5-107.7-107.4
				c-62.6-76.9-114.5-170.3-150.2-270.3c-30.9-86.7-53.5-183.4-69.1-295.4c-14.3-102.8-21.6-209.5-28-303.7l-0.3-3.9
				C292,1145.1,277,933.5,207,732.7c-31.5-90.4-73.6-177-114.3-260.7C50.6,385.2,7,295.6-23.5,203.8C-46.2,135.5-62,64.1-70.4-8.3
				c-8.2-70.2-9.6-141.8-4.2-212.9c5.3-69.6,17.3-138.8,35.4-205.9c18-66.4,42.2-130.7,71.8-191c56.6-115.4,134.3-223,230.9-319.9
				c88.6-88.9,193-168.8,310.5-237.7C863.2-1345.3,1179.7-1434.9,1489.4-1434.9 M1489.4-1436.9c-327.6,0-643.9,99.7-916.4,259.5
				C348.2-1045.6,149.5-860.6,30.8-618.9c-118.7,241.7-149,544-56.2,823.4c59.7,179.8,166.1,344.3,230.5,528.9
				c70.4,201.8,85.1,415.7,99.6,620.5c13.9,203.8,28.4,406.6,97.2,599.7c69,193.2,203.9,377.2,386,455.6
				c70.3,30.3,142.6,42.3,214.7,42.3c103.5,0,206.7-24.7,303.5-55.3c222.2-70.3,439.3-157.6,637.3-278
				c326.1-198.2,635.3-444.4,855.3-765.9c56-81.9,106.3-168.9,146-263.5c176.9-421.4,159-977.8-125.2-1397.4
				c-88.6-130.9-198.7-243.9-308.2-355.7c-127.8-130.5-256-260.6-384.6-390.4c-102.1-103-205.9-234-324.3-314.5
				c-90.3-61.8-185.9-65.5-281.8-67.2C1510.2-1436.8,1499.7-1436.9,1489.4-1436.9L1489.4-1436.9z"/>
		</g>
		<g>
			<path class="st2" d="M1567.8-1079.6c21.3,0,42.8,0.6,63.9,1.8c39.2,2.1,81.1,5.4,122,15.1c44.5,10.5,83.4,27.5,118.9,51.9
				c64.7,44.5,124,108.1,181.3,169.6c21.7,23.3,42.2,45.2,63,66.3c95.2,96.3,192,195.8,287.7,295.7c41.4,43.2,81.8,85.7,120.2,129.8
				c43.2,49.7,78.6,95.5,108.2,140.2c51.1,77.2,92,162.4,121.6,253.4c28.2,86.8,46,178.3,52.8,271.9c6.6,90.8,2.9,182.3-11.1,272.1
				c-13.9,88.8-37.5,174.2-70.2,253.8c-29.6,72-71.3,143.8-131.2,226c-97,133.1-210.9,259.7-338.5,376
				c-121.7,111-256.1,213.1-399.5,303.4c-73.9,46.5-154,90.1-238.3,129.5c-78.8,36.8-163.6,71.2-252.1,102.1
				c-44.9,15.7-85.7,27.3-124.6,35.5c-45.1,9.5-88.5,14.3-128.8,14.3c-51.8,0-101.2-7.9-146.7-23.5c-37-12.7-73.5-30.4-108.3-52.7
				c-33.2-21.4-65.3-47.1-95.3-76.5c-56.9-55.8-106.9-125.6-144.5-201.8c-33.7-68.5-60.9-144.6-83.1-232.8
				c-21.9-86.9-36.3-174.2-47.5-248.1c-5-33.1-9.8-67.3-14.5-100.3c-19.9-140.5-40.6-285.8-82-425c-19.7-66.1-43.6-130-66.7-191.9
				c-32.9-88-63.9-171.1-83.1-258c-12.3-56-19.3-113.6-20.7-171.2c-1.3-56.2,2.6-113,11.8-168.7c9-54.9,23.1-109.1,41.9-161.1
				c18.7-51.8,42.2-101.7,69.7-148.3c52.7-89.2,121.8-172.4,205.3-247.4c76.3-68.5,165.1-130.4,263.8-184.1
				c122.7-66.7,244.5-118.8,361.9-154.7c65.3-20,130.4-35.3,193.7-45.6C1435.9-1074,1502.9-1079.6,1567.8-1079.6 M1567.8-1081.6
				c-268.8,0-528.6,93.5-755.8,217.1C623.5-762,452.7-619.4,342.1-432.3C231.4-245,188.8-9.7,239.1,218.4
				C272.2,368.2,342,510.9,389,668.5c51.3,172.5,70.7,354.1,96.5,525.1c25.5,169.1,57.5,332.6,130.8,481.5
				c73.5,149,196.4,279.9,349.2,332.1c48.6,16.6,98.1,23.6,147.4,23.6c86.8,0,173.2-21.5,254.1-49.8
				c171.6-59.9,337.5-135.2,490.8-231.8c280.9-177,538.8-406.1,738.5-680c50.8-69.7,97.4-143.7,131.5-226.5
				c131.1-318.6,117.3-735.1-93.2-1053.1c-65.6-99-147-185.2-228.5-270.3c-95.1-99.2-191-197.9-287.7-295.7
				c-76.9-77.8-155.6-174.9-244.6-236.1c-78.2-53.8-159.9-62.9-241.9-67.3C1610.4-1081,1589.1-1081.6,1567.8-1081.6L1567.8-1081.6z"
				/>
		</g>
		<g>
			<path class="st2" d="M1660.3-725.4c27.8,0,55.6,1.5,82.5,4.4c40.7,4.3,72,10.1,101.4,19c36.6,11.1,69.2,26.8,99.7,48
				c45,31.4,86.4,75.3,126.4,117.7c13.1,13.9,25.5,27.1,38.1,39.9c63.9,64.9,128.1,132.5,190.8,200.9
				c54,58.9,106.1,117.4,148.7,184.5c33.3,52.6,59.9,110.2,79.2,171.2c18.5,58.5,30.2,119.9,34.7,182.5c4.4,60.9,2.1,122.3-7,182.4
				c-9,59.6-24.4,117.1-45.9,170.8c-29.6,74-75.6,137.1-116.7,189c-89.8,113.3-187.8,221-291.3,320.1
				c-104.8,100.3-215.8,192.3-330.1,273.6c-51.1,36.4-107.2,70.9-166.5,102.5c-54.9,29.3-114.6,57.2-177.3,82.8
				c-35.5,14.6-70.2,25.8-103.1,33.5c-37,8.6-73,13-107,13c-25.2,0-49.9-2.4-73.5-7.1c-60.3-12.1-118.5-37-172.9-74.1
				c-52.1-35.5-98.7-80.5-138.3-133.8c-37.1-50.1-68.9-105.7-97.2-170.1c-25.1-57.1-46.9-120-66.7-192.5
				c-23.3-85.2-41.5-176.7-59.2-265.2c-10.8-54.2-21.9-110.2-34.2-164.4c-5.7-25.1-11.6-50-17.3-74.2c-24.3-102.9-47.2-200-52-296.8
				C497.2,60.2,550.2-109,655-244.4c92.8-120,226.3-222.8,397-305.4c78.3-37.9,182.5-86,293.3-121.5
				C1459-707.7,1562-725.4,1660.3-725.4 M1660.3-727.4c-215.1,0-423.5,85.9-609.1,175.8c-152.2,73.7-295.2,173.4-397.7,306
				C550.6-112.8,495,56,503.6,232.4c5.9,120,39.7,240.8,69.3,371.3c32.3,143.1,55.8,292.4,93.4,429.7
				c36.8,134.4,86.7,258.6,164.3,363.3c78,104.8,188,183.6,312.4,208.6c24.5,4.9,49.3,7.2,73.9,7.2c72.2,0,144.1-19.3,210.9-46.7
				c120.9-49.5,237.7-109.8,344.2-185.6c231.1-164.4,442.4-367.7,621.8-594.1c45.6-57.5,88.6-118.4,117-189.5
				c86.1-215.5,75.7-492.4-61.3-708.7c-42.6-67.2-95.4-126.5-148.9-184.8c-62.4-68-126.1-135.1-190.9-201
				c-51.8-52.6-105.1-116.1-164.8-157.8c-66.1-46.1-133.9-60.3-202-67.4C1715.4-726,1687.7-727.4,1660.3-727.4L1660.3-727.4z"/>
		</g>
		<g>
			<path class="st2" d="M1711.2-548.6c29.6,0,58.9,2,87.2,6c49.8,6.9,115.4,20.8,181.2,67.1c35.5,25,68.3,59.4,99.9,92.6
				c8.2,8.6,16.6,17.4,24.8,25.8c48.2,49.2,96.1,100.9,142.4,153.5c35.7,40.6,76.5,88.4,108.8,141.8c24.4,40.3,43.9,84,58.1,130.2
				c13.7,44.4,22.3,90.8,25.8,137.9c6.7,92.3-6.7,184.6-38.8,266.7c-11.7,29.8-27.4,59.4-48.1,90.3c-20.3,30.3-43.4,58.8-61.3,80.1
				c-179.9,215.4-369.3,400.7-563.1,550.8c-78.7,61-169.8,115.6-270.6,162.3c-67.7,31.4-133,47.3-194.1,47.3
				c-10.5,0-21.1-0.5-31.4-1.4c-54.1-5.1-107.2-20.6-157.7-46.1c-49.4-24.9-94.8-58.6-135.1-100.2
				c-75.1-77.7-135.9-179.8-180.6-303.5c-43.5-120.2-69.2-254.5-91.7-381.7c-19.2-108-37.3-222.6-29-331.4
				c5.7-73.7,23.7-145,53.7-212c29.2-65.3,69.3-125.4,118.9-178.4c46.3-49.6,102.6-96.1,167.2-138.4
				c56.9-37.2,122.1-72.2,193.8-104.1C1335.3-466.1,1521-548.6,1711.2-548.6 M1711.2-550.6c-189.9,0-374.3,81.6-540.5,155.5
				c-133.8,59.5-263.1,137.5-361.6,242.9C710.3-46.7,647.4,89,635.9,239.4c-8.1,105.2,8.1,214.9,29,331.9
				c22.8,128.4,48.3,261.5,91.8,382c42.3,117,101.3,221.7,181.1,304.2c80.3,82.7,183.5,136.5,294.1,146.9c10.5,1,21,1.5,31.5,1.5
				c66.9,0,133.7-19.1,194.9-47.5c95.5-44.2,187.3-97.7,271-162.5c205.5-159.2,394.2-348.5,563.4-551.1
				c42.9-51.4,84.2-105.7,109.7-171c63.9-163.7,54.9-371.1-45.3-536.6c-31.1-51.3-69.6-97.2-109.1-142.1
				c-46-52.4-93.6-103.7-142.5-153.6c-39.2-40-79.9-86.8-125-118.6c-59.9-42.2-120.9-59-182-67.4
				C1769.4-548.7,1740.2-550.6,1711.2-550.6L1711.2-550.6z"/>
		</g>
		<g>
			<path class="st2" d="M1765.1-372.1c30.3,0,60.2,2.7,88.8,7.9c29.1,5.3,55.6,12.8,80.8,22.9c28.5,11.4,54.8,25.9,80.5,44.3
				c27.2,19.4,52.2,45.4,76.4,70.4c2.8,2.9,5.7,5.9,8.5,8.8c32.5,33.5,64.1,69.2,93.9,106.1c21,26,47.9,60.8,69,99.1
				c30.5,55.2,49.2,118.3,53.9,182.5c4.7,62.6-3.9,124.9-24.8,180.2c-22.4,59.4-62.7,107.6-102.1,151.9
				c-86.6,97.3-166.7,183.3-245.1,262.7c-89.5,90.8-174.4,171-259.8,245.2c-62.2,54.1-128.6,100.9-197.4,139.2
				c-26.8,14.9-54.2,26.9-81.4,35.7c-29,9.3-57.9,14.9-85.8,16.7c-8,0.5-16.2,0.8-24.3,0.8c-43.6,0-87.2-7.4-129.8-22
				c-42.2-14.5-82.7-35.9-120.3-63.5c-81-59.7-149.2-144.2-197.2-244.3c-44.9-93.6-75.2-205.9-90.1-333.7
				c-13.2-113-9.6-208.5,11.3-291.8c15.1-60.4,40-117.4,74.1-169.4C876.7,27.9,917.6-17.5,966-57.4c81-67,184.3-124,325-179.5
				c21.5-8.5,43.9-17.6,65.4-26.4c64.7-26.3,131.6-53.6,200-74.2C1633.7-360.8,1701.9-372.1,1765.1-372.1 M1765.1-374.1
				c-165.8,0-327.2,77.2-474.9,135.4C1174.8-193.2,1059.2-137,964.7-58.9c-94.8,78.3-165.4,180.6-196.6,305.3
				c-22.5,90.3-23.4,189-11.3,292.6c13.3,113.7,40.6,230.7,90.3,334.3c47.7,99.6,115.9,184.7,197.8,245.1
				c75.6,55.5,162.9,85.9,251.3,85.9c8.1,0,16.3-0.3,24.4-0.8c58.2-3.7,115.9-23.6,168.1-52.7c70.2-39,136.6-86.2,197.7-139.4
				c178.7-155.5,346-329.3,505-508.1c40.3-45.4,80-93,102.5-152.5c42.1-111.7,34-249.8-29.3-364.4c-19.6-35.4-43.8-67.9-69.2-99.3
				c-29.6-36.7-61.1-72.4-94-106.3c-26.6-27.5-54.6-57.6-85.1-79.4c-53.8-38.5-107.9-57.7-162.1-67.5
				C1824.4-371.7,1794.7-374.1,1765.1-374.1L1765.1-374.1z"/>
		</g>
	</g>
	<g class="st3">
		<path class="st4" d="M364.8,1153c6.8-92.5,19.1-190.4,43.4-279.3c18.5-67.7,47.5-129.9,75.1-193.5c93-214.4,130-458.8,83.2-689.8"
			/>
		<path class="st4" d="M156.6,1170.7c75.7-166.4,97.8-359.4,72.5-539.9c-12.2-87.1-37.9-169.5-42.5-256
			c-6.6-122.1,0.1-257.4,0.7-386.2"/>
		<path class="st4" d="M96.9,1173.6c87.2-178.7,112.9-388,77.4-583.4c-16.5-90.5-48-176.3-62.1-266.4
			C95.4,217.3,90.6,100.1,99.1-11.8"/>
		<path class="st4" d="M37.2,1176.6c98.7-191,128.3-416.8,82.2-626.8c-20.6-94-55.7-184.2-81.7-276.8S-5.5,82.7,10.8-12.1"/>
	</g>
</g>
</svg>
