<?xml version="1.0" encoding="utf-8"?>
<!-- Generator: Adobe Illustrator 28.0.0, SVG Export Plug-In . SVG Version: 6.00 Build 0)  -->
<svg version="1.1" xmlns="http://www.w3.org/2000/svg" xmlns:xlink="http://www.w3.org/1999/xlink" x="0px" y="0px"
	 viewBox="0 0 1920 1080" style="enable-background:new 0 0 1920 1080;" xml:space="preserve">
<style type="text/css">
	.st0{display:none;}
	.st1{display:inline;fill:#0F172A;stroke:#000000;stroke-width:2;stroke-miterlimit:10;}
	.st2{display:inline;}
	.st3{fill:#FFFFFF;}
	.st4{opacity:0.13;}
	.st5{display:inline;fill:none;stroke:#FFFFFF;stroke-width:2;stroke-miterlimit:10;}
	.st6{fill:none;stroke:#FFFFFF;stroke-width:2;stroke-miterlimit:10;}
</style>
<g id="Layer_2" class="st0">
</g>
<g id="Layer_1" class="st0">
	<g class="st2">
		<g>
			<path class="st3" d="M-1590.9-1791.6c92,0,189.6,5.2,280.9,67.1c104.8,71,200.3,174.7,292.6,274.9
				c38.2,41.5,74.3,80.7,111.1,117.7l240.7,242.5l240.7,242.5C-289.4-710.4-149.3-569.2-37.3-406C49.6-279.5,119.1-138.8,169.3,11.9
				c47.9,143.7,78,295.4,89.4,451c11.1,150.8,4.6,302.7-19.3,451.5c-23.7,147.4-64,288.5-119.7,419.4
				C65.8,1460.4-2.8,1583-84.2,1698.2c-76.6,108.4-166.4,212.9-267,310.7c-94.1,91.5-199.9,179.3-314.5,261
				c-106.4,75.9-222.9,148.4-346.2,215.3c-247.6,134.4-511.2,243.5-783.4,324c-96.9,28.7-224.7,61.6-354.9,61.6
				c-49,0-96.3-4.7-140.6-14.1c-48.2-10.2-94.6-26.1-138-47.5c-51.1-25.2-100.2-59.1-146-100.8c-43.1-39.4-83.5-85.9-120-138.2
				c-68.3-98-122.2-215.2-155.7-338.8c-26.5-97.5-43.8-204.9-52.9-328.4c-8.1-110-9.1-221.7-10.1-329.8c-0.2-19.4-0.4-39.5-0.6-59.2
				c-2.6-234.8-12.7-483.5-102.8-716.6c-42.4-109.8-102.3-214.3-160.2-315.4c-53.8-94-109.4-191.1-150.9-292.3
				c-33.1-80.6-57.8-165.6-73.4-252.9c-15.1-84.1-21.8-170.6-20.1-257.1c1.7-84.3,11.5-168.6,29-250.8
				c17.3-81,42.2-159.7,73.9-233.8c60.5-141.4,146.8-273.5,256.5-392.4c100.6-109.1,220.8-207.1,357-291.4
				c315.1-194.8,686.7-299.5,1074.5-302.8l2.1,0C-1616.2-1791.5-1603.4-1791.6-1590.9-1791.6 M-1590.9-1793.6
				c-13.2,0-26.5,0.1-39.7,0.2c-386,3.3-758.1,106.9-1075.5,303.1c-260.8,161.2-487.6,388.5-614.3,684.7
				c-126.7,296.2-144.9,665.9-9.4,996.1c86.3,210.1,229.2,396,311.1,607.6c89.4,231.2,100,477.4,102.7,715.9
				c2.7,238.5-0.8,480.5,63.7,717.9c64.5,237.4,210.7,474.8,422.7,579.1c90.9,44.7,185.2,61.8,279.5,61.8
				c121.1,0,242-28.1,355.4-61.7c272.9-80.8,535.6-189.4,783.8-324.2c476.1-258.5,909.5-628.5,1132.5-1152.3
				C344.6,810.8,322.1,114.2-35.6-407.1c-111.6-162.7-250.3-302.6-387.8-441.2c-160.5-161.7-320.9-323.4-481.4-485.1
				c-127.2-128.2-256.4-292.8-404-392.8C-1399-1787.3-1494.5-1793.6-1590.9-1793.6L-1590.9-1793.6z"/>
		</g>
		<g>
			<path class="st3" d="M-1583.6-1613c2.8,0,5.7,0,8.6,0c47.6,0.2,101.5,0.4,153,9.1c27,4.6,51.5,11.1,74.7,19.8
				c26,9.8,49.9,22.2,72.9,37.9c94.8,64.3,181.1,157.9,264.6,248.4c34.1,37,66.4,71.9,99.2,105c142.2,143.4,287.9,290.7,433,437.7
				c121.3,123,246.8,250.1,347.8,398.2C-51.8-242.6,10.6-115.8,55.7,20c43,129.5,70.1,266.2,80.4,406.3
				c10,135.8,4.2,272.7-17.3,406.7C97.5,965.8,61.3,1093,11.3,1210.9c-40,95-90.1,187.2-153.1,281.6c-56,83.9-119.8,166-189.8,243.9
				c-66.8,74.3-140.8,146.7-219.9,215.2c-147.1,127.2-316.4,244.7-503.2,349.2c-219.8,122.9-458.7,224.2-710.1,300.9
				c-60.1,18.4-113.1,31.8-161.8,41.2c-60.1,11.5-114.7,17.2-166.9,17.2c-43.1,0-84.9-4-124.2-11.9c-42.5-8.5-83.6-22-122.3-39.9
				c-47.5-22.1-93.4-51.9-136.4-88.8c-40.6-34.9-78.9-76.2-113.8-122.8c-65.5-87.4-118.4-192.8-153-304.5
				c-28.6-92.3-48.4-194.5-60.6-312.5c-10.9-105.3-14.9-213-18.7-317.1c-0.4-9.5-0.7-19.1-1.1-28.6c-9-232.1-23.5-457.9-101.3-668.8
				C-2962,664.6-3013,568.7-3062.4,476c-47.9-90-97.4-183.1-133.4-279.2c-27.9-74.5-48.1-152.7-60.2-232.5
				c-11.6-77.1-15.7-156.2-12.1-235c3.5-76.9,14.4-153.7,32.2-228.3c17.7-73.7,42.2-145.2,72.8-212.4
				c58.5-128.3,140.5-248.1,243.8-356c94.5-98.8,206.7-187.8,333.7-264.7c149.8-90.1,310.5-159.8,477.7-207.4
				C-1936.3-1588.3-1759.9-1613-1583.6-1613 M-1583.6-1615c-359.3,0-705.8,102.5-1003,281.1c-242.6,146.8-455.6,352.6-578.2,621.6
				c-122.7,269-147,604.9-32.8,909.7c73,194.9,197.7,370.2,270.8,568.3c79.9,216.5,92.6,446.5,101.2,668.2
				c8.3,221.2,13.8,443.5,80.5,658.8c66.7,215.3,207.3,426,404.3,517.4c80.7,37.4,164.1,52,247.3,52c112.2,0,224.2-26.4,329.3-58.4
				c247.6-75.6,486.2-175.6,710.5-301.1c354.8-198.5,683.5-463.6,913.6-808.9c58.6-88,110.9-181.4,153.2-282
				C213.7,739.4,192.9,112.6-128.1-358c-100.1-146.8-224.5-273.2-348-398.5c-144.1-146.1-288.5-292-433-437.7
				c-114.7-115.6-231.1-263.4-364.1-353.6c-96.4-65.6-198.9-66.8-301.8-67.2C-1577.9-1615-1580.8-1615-1583.6-1615L-1583.6-1615z"/>
		</g>
		<g>
			<path class="st3" d="M-1550.6-1434.9c10.3,0,20.8,0.1,31.2,0.3c50.8,0.9,96.6,2.4,142.7,11.1c52.4,9.8,97.5,28.1,138,55.8
				c84.7,57.6,162,141.1,236.7,221.9c30,32.5,58.4,63.2,87.3,92.3c126.5,127.7,255.9,259,384.6,390.4
				c50.6,51.6,107.9,110.1,161.9,170.7c58.5,65.6,106.3,126,146.1,184.8C-153.2-205.8-98-92.9-58.1,28
				c38,115.2,61.9,236.8,71.1,361.5c8.8,120.8,3.7,242.5-15.2,361.8C-21.1,869.4-53,982.6-97.2,1087.9
				c-36.5,87.1-84.2,173.1-145.8,263.1c-53.2,77.7-113.9,154.1-180.4,227.2c-62.6,68.8-132.3,136.6-207.1,201.6
				c-69.7,60.6-146.1,120.7-227,178.5c-74.4,53.2-155.2,106.4-240.1,158c-94.7,57.6-195.9,109.1-309.3,157.6
				c-100,42.8-207.1,82.1-327.5,120.2c-54.9,17.4-103.7,30.2-149.1,39.1c-55.2,10.9-105.5,16.1-153.9,16.1
				c-37.2,0-73.5-3.3-107.7-9.7c-36.8-7-72.5-17.8-106.2-32.4c-44-18.9-86.7-44.8-127-76.8c-38.2-30.4-74.4-66.5-107.7-107.4
				c-62.6-76.9-114.5-170.3-150.2-270.3c-30.9-86.7-53.5-183.4-69.1-295.4c-14.3-102.8-21.6-209.5-28-303.7l-0.3-3.9
				c-14.5-204.7-29.4-416.3-99.4-617.1c-31.5-90.4-73.6-177-114.3-260.7c-42.1-86.7-85.7-176.4-116.2-268.2
				c-22.7-68.3-38.5-139.7-47-212.1c-8.2-70.2-9.6-141.8-4.2-212.9c5.3-69.6,17.3-138.8,35.4-205.9c18-66.4,42.2-130.7,71.8-191
				c56.6-115.4,134.3-223,230.9-319.9c88.6-88.9,193-168.8,310.5-237.7C-2176.8-1345.3-1860.3-1434.9-1550.6-1434.9 M-1550.6-1436.9
				c-327.6,0-643.9,99.7-916.4,259.5c-224.8,131.8-423.5,316.8-542.1,558.5c-118.7,241.7-149,544-56.2,823.4
				c59.7,179.8,166.1,344.3,230.5,528.9c70.4,201.8,85.1,415.7,99.6,620.5c13.9,203.8,28.4,406.6,97.2,599.7
				c69,193.2,203.9,377.2,386,455.6c70.3,30.3,142.6,42.3,214.7,42.3c103.5,0,206.7-24.7,303.5-55.3
				c222.2-70.3,439.3-157.6,637.3-278c326.1-198.2,635.3-444.4,855.3-765.9c56-81.9,106.3-168.9,146-263.5
				C81.5,667.3,63.6,110.9-220.6-308.8c-88.6-130.9-198.7-243.9-308.2-355.7c-127.8-130.5-256-260.6-384.6-390.4
				c-102.1-103-205.9-234-324.3-314.5c-90.3-61.8-185.9-65.5-281.8-67.2C-1529.8-1436.8-1540.3-1436.9-1550.6-1436.9L-1550.6-1436.9
				z"/>
		</g>
	</g>
</g>
<g id="Layer_3">
	<g>
		<path class="st6" d="M1593.7,1186.2c89.4-58.8,155.5-153.4,212.2-250.5c62.8-107.6,117.6-223.1,143.5-347.7s20.9-259.6-31-371.8
			C1855.8,80.6,1731.2-7.9,1599.9-51.2S1329-97.9,1191.3-101c-69.8-1.6-145.9-1-201.6,47.3c-47.2,40.9-69.3,107.5-86.5,171
			c-46.6,172.2-74.3,350.4-82.3,529.3c-4.9,111.5,0.2,231.5,60.1,319.3c40.2,58.9,100.5,96,161.4,125.7
			c75,36.5,154,58.2,225.9,102.3c59.7,36.7,125,52.3,194.1,42.7C1508.5,1230.3,1553.5,1212.6,1593.7,1186.2z"/>
		<path class="st6" d="M889.9-128.4c-52.4,45-82.7,112-107.7,177.5c-69.4,181.7-108.6,376.4-115,567.5c-4,128.4,9.7,261,73,365.1
			c41.9,68.7,103.6,117.1,164.3,162c89.3,66.1,183.7,122,280.3,186.9c78.7,52.7,165.7,83.9,259.2,90.8c65.6,4.8,133.8-1.4,199-24.7
			c29.7-10.6,58.6-24.4,86.9-41.5c107-64.7,191.2-172.8,260.9-281.8c100.7-156.8,182.9-325.7,227.4-502.7
			c19.7-79.1,22.1-154.8-2.2-223.7c-27.1-76.8-50.6-160.6-94.2-233.2c-58-97.1-141.7-174.4-239.2-230.5
			c-63.4-36.5-132.5-64-203.9-82.3c-139.5-36.3-287.8-40.2-435.4-28.6c-32.8,2.5-65.6,5.7-98.2,9.6
			C1055.5-207.4,962.1-190.2,889.9-128.4z"/>
		<path class="st6" d="M790-203.2c-57.6,49-96.3,116.5-128.9,183.9c-92.5,191.1-142.8,402.4-147.7,605.7
			c-3.1,145.2,19.2,290.4,85.8,410.9c43.6,78.5,105.8,139.8,167.2,198.3c102.7,97.8,213.4,185.8,334.7,271.4
			c97.7,68.7,206.4,116.1,324.3,138.9c85.2,16.5,176.5,21.1,266.7,1.2c40.7-9,81-22.7,120.8-41.8
			c150.4-72.2,268.1-213.2,362.6-354.2c138.5-206,248.3-428.2,311.4-657.8c27.2-99.9,27-190.9-18.9-269.3
			c-50.3-86-83.5-187.3-143.1-272.7c-78.5-113.2-186.2-203.6-311.4-267.8c-79.7-40.9-166.3-71.2-256.3-90.3
			c-171.9-37.3-356-36.3-538.6-9.4c-40.1,5.8-80.3,12.8-120.1,21.2C989.5-312.2,878.7-278.3,790-203.2z"/>
		<path class="st6" d="M690.1-277.9c-62.8,53.1-109.9,121-150,190.3C424.1,112.8,363,340.8,359.6,556.3
			c-2.2,162.1,28.8,319.9,98.7,456.6c45.4,88.3,107.3,163.2,170.1,234.6c114.8,130.6,243.1,249.7,389.1,355.9
			c116.7,84.8,247,148.5,389.5,187c104.8,28.3,219.2,43.4,334.5,27.1c51.6-7.5,103.4-21,154.7-42.1
			c193.9-79.7,345-253.6,464.4-426.6c176.4-255.2,313.6-530.8,395.4-812.8c34.8-120.7,32.1-227.1-35.6-314.8
			C2646.9,125.9,2604,7.2,2528.4-91.1c-99-129.2-230.6-233.2-383.6-305.2c-95.9-45.5-200.1-78.3-308.6-98.3
			c-204.4-38.3-424.2-32.5-641.8,9.8c-47.4,9.1-94.9,20-142,32.8C923.5-416.9,795.3-366.5,690.1-277.9z"/>
		<path class="st6" d="M590.2-352.7C522.1-295.6,466.5-227.3,419-155.9C279.4,53.6,207.7,298.4,205.8,526.2
			c-1.2,179,38.3,349.3,111.5,502.4c47.1,98.2,108.4,186.8,173.1,270.9c126,164,272.7,313.5,443.6,440.4
			c135.7,100.8,287.4,181.3,454.6,235.1c124.2,40.5,261.9,66,402.2,53c62.6-5.9,125.8-19.3,188.6-42.4
			c237.3-87.2,421.9-294,566.1-499c214.2-304.4,378.9-633.3,479.3-967.9c42.4-141.6,37.4-263.6-52.2-360.4
			c-96.3-104.8-149.2-240.6-240.8-351.7c-119.5-145.3-275.1-262.5-455.8-342.6c-112.2-49.9-233.9-85.4-361-106.4
			c-236.8-39.3-492.4-28.6-745,28.9c-54.7,12.4-109.6,27.1-163.8,44.4C857.5-521.7,712-454.7,590.2-352.7z"/>
		<path class="st6" d="M2407-675.8c-366-154.9-818.3-178.6-1261.5-66.3C913.6-683.3,679.1-585,490.3-427.5
			C199-184.4,52.5,175.4,52,496.1c-0.5,320.7,128.8,606.8,300.4,855.4C596.7,1705.6,936.2,2002,1370,2159.6
			c207.8,75.5,451,117.5,692.5,36.1c280.8-94.7,498.8-334.4,667.8-571.5c252.1-353.6,444.3-735.9,563.3-1123
			c49.9-162.4,42.4-299.8-68.9-406c-119.5-114.1-182.1-267.3-289.6-391.2C2795.1-457.3,2615.4-587.7,2407-675.8z"/>
	</g>
</g>
<g id="Layer_4">
</g>
</svg>
